  0
SECTION
  2
HEADER
  9
$ACADVER
  1
AC1024
  9
$ACADMAINTVER
 70
6
  9
$DWGCODEPAGE
  3
ANSI_1252
  9
$LASTSAVEDBY
  1
ezdxf
  9
$INSBASE
 10
0.0
 20
0.0
 30
0.0
  9
$EXTMIN
 10
1e+20
 20
1e+20
 30
1e+20
  9
$EXTMAX
 10
-1e+20
 20
-1e+20
 30
-1e+20
  9
$LIMMIN
 10
0.0
 20
0.0
  9
$LIMMAX
 10
420.0
 20
297.0
  9
$ORTHOMODE
 70
0
  9
$REGENMODE
 70
1
  9
$FILLMODE
 70
1
  9
$QTEXTMODE
 70
0
  9
$MIRRTEXT
 70
1
  9
$LTSCALE
 40
1.0
  9
$ATTMODE
 70
1
  9
$TEXTSIZE
 40
2.5
  9
$TRACEWID
 40
1.0
  9
$TEXTSTYLE
  7
OpenSans
  9
$CLAYER
  8
0
  9
$CELTYPE
  6
ByLayer
  9
$CECOLOR
 62
256
  9
$CELTSCALE
 40
1.0
  9
$DISPSILH
 70
0
  9
$DIMSCALE
 40
1.0
  9
$DIMASZ
 40
0.175
  9
$DIMEXO
 40
0.125
  9
$DIMDLI
 40
3.75
  9
$DIMRND
 40
0.0
  9
$DIMDLE
 40
0.0
  9
$DIMEXE
 40
0.375
  9
$DIMTP
 40
0.0
  9
$DIMTM
 40
0.0
  9
$DIMTXT
 40
0.25
  9
$DIMCEN
 40
2.5
  9
$DIMTSZ
 40
0.0
  9
$DIMTOL
 70
0
  9
$DIMLIM
 70
0
  9
$DIMTIH
 70
0
  9
$DIMTOH
 70
0
  9
$DIMSE1
 70
0
  9
$DIMSE2
 70
0
  9
$DIMTAD
 70
1
  9
$DIMZIN
 70
12
  9
$DIMBLK
  1
ARCHTICK
  9
$DIMASO
 70
1
  9
$DIMSHO
 70
1
  9
$DIMPOST
  1

  9
$DIMAPOST
  1

  9
$DIMALT
 70
0
  9
$DIMALTD
 70
3
  9
$DIMALTF
 40
0.03937007874
  9
$DIMLFAC
 40
100.0
  9
$DIMTOFL
 70
1
  9
$DIMTVP
 40
0.0
  9
$DIMTIX
 70
0
  9
$DIMSOXD
 70
0
  9
$DIMSAH
 70
0
  9
$DIMBLK1
  1

  9
$DIMBLK2
  1

  9
$DIMSTYLE
  2
EZDXF
  9
$DIMCLRD
 70
0
  9
$DIMCLRE
 70
0
  9
$DIMCLRT
 70
0
  9
$DIMTFAC
 40
0.5
  9
$DIMGAP
 40
0.1
  9
$DIMJUST
 70
0
  9
$DIMSD1
 70
0
  9
$DIMSD2
 70
0
  9
$DIMTOLJ
 70
0
  9
$DIMTZIN
 70
8
  9
$DIMALTZ
 70
0
  9
$DIMALTTZ
 70
0
  9
$DIMUPT
 70
1
  9
$DIMDEC
 70
2
  9
$DIMTDEC
 70
2
  9
$DIMALTU
 70
2
  9
$DIMALTTD
 70
3
  9
$DIMTXSTY
  7
OpenSansCondensed-Light
  9
$DIMAUNIT
 70
0
  9
$DIMADEC
 70
2
  9
$DIMALTRND
 40
0.0
  9
$DIMAZIN
 70
3
  9
$DIMDSEP
 70
46
  9
$DIMATFIT
 70
3
  9
$DIMFRAC
 70
0
  9
$DIMLDRBLK
  1

  9
$DIMLUNIT
 70
2
  9
$DIMLWD
 70
-2
  9
$DIMLWE
 70
-2
  9
$DIMTMOVE
 70
2
  9
$DIMFXL
 40
1.0
  9
$DIMFXLON
 70
0
  9
$DIMJOGANG
 40
0.785398163397
  9
$DIMTFILL
 70
0
  9
$DIMTFILLCLR
 70
0
  9
$DIMARCSYM
 70
0
  9
$DIMLTYPE
  6

  9
$DIMLTEX1
  6

  9
$DIMLTEX2
  6

  9
$DIMTXTDIRECTION
 70
0
  9
$LUNITS
 70
2
  9
$LUPREC
 70
4
  9
$SKETCHINC
 40
1.0
  9
$FILLETRAD
 40
10.0
  9
$AUNITS
 70
0
  9
$AUPREC
 70
2
  9
$MENU
  1
.
  9
$ELEVATION
 40
0.0
  9
$PELEVATION
 40
0.0
  9
$THICKNESS
 40
0.0
  9
$LIMCHECK
 70
0
  9
$CHAMFERA
 40
0.0
  9
$CHAMFERB
 40
0.0
  9
$CHAMFERC
 40
0.0
  9
$CHAMFERD
 40
0.0
  9
$SKPOLY
 70
0
  9
$TDCREATE
 40
2461314.6893287036
  9
$TDUCREATE
 40
2458532.153996898
  9
$TDUPDATE
 40
2461314.6893287036
  9
$TDUUPDATE
 40
2458532.1544311
  9
$TDINDWG
 40
0.0
  9
$TDUSRTIMER
 40
0.0
  9
$USRTIMER
 70
1
  9
$ANGBASE
 50
0.0
  9
$ANGDIR
 70
0
  9
$PDMODE
 70
0
  9
$PDSIZE
 40
0.0
  9
$PLINEWID
 40
0.0
  9
$SPLFRAME
 70
0
  9
$SPLINETYPE
 70
6
  9
$SPLINESEGS
 70
8
  9
$HANDSEED
  5
A1
  9
$SURFTAB1
 70
6
  9
$SURFTAB2
 70
6
  9
$SURFTYPE
 70
6
  9
$SURFU
 70
6
  9
$SURFV
 70
6
  9
$UCSBASE
  2

  9
$UCSNAME
  2

  9
$UCSORG
 10
0.0
 20
0.0
 30
0.0
  9
$UCSXDIR
 10
1.0
 20
0.0
 30
0.0
  9
$UCSYDIR
 10
0.0
 20
1.0
 30
0.0
  9
$UCSORTHOREF
  2

  9
$UCSORTHOVIEW
 70
0
  9
$UCSORGTOP
 10
0.0
 20
0.0
 30
0.0
  9
$UCSORGBOTTOM
 10
0.0
 20
0.0
 30
0.0
  9
$UCSORGLEFT
 10
0.0
 20
0.0
 30
0.0
  9
$UCSORGRIGHT
 10
0.0
 20
0.0
 30
0.0
  9
$UCSORGFRONT
 10
0.0
 20
0.0
 30
0.0
  9
$UCSORGBACK
 10
0.0
 20
0.0
 30
0.0
  9
$PUCSBASE
  2

  9
$PUCSNAME
  2

  9
$PUCSORG
 10
0.0
 20
0.0
 30
0.0
  9
$PUCSXDIR
 10
1.0
 20
0.0
 30
0.0
  9
$PUCSYDIR
 10
0.0
 20
1.0
 30
0.0
  9
$PUCSORTHOREF
  2

  9
$PUCSORTHOVIEW
 70
0
  9
$PUCSORGTOP
 10
0.0
 20
0.0
 30
0.0
  9
$PUCSORGBOTTOM
 10
0.0
 20
0.0
 30
0.0
  9
$PUCSORGLEFT
 10
0.0
 20
0.0
 30
0.0
  9
$PUCSORGRIGHT
 10
0.0
 20
0.0
 30
0.0
  9
$PUCSORGFRONT
 10
0.0
 20
0.0
 30
0.0
  9
$PUCSORGBACK
 10
0.0
 20
0.0
 30
0.0
  9
$USERI1
 70
0
  9
$USERI2
 70
0
  9
$USERI3
 70
0
  9
$USERI4
 70
0
  9
$USERI5
 70
0
  9
$USERR1
 40
0.0
  9
$USERR2
 40
0.0
  9
$USERR3
 40
0.0
  9
$USERR4
 40
0.0
  9
$USERR5
 40
0.0
  9
$WORLDVIEW
 70
1
  9
$SHADEDGE
 70
3
  9
$SHADEDIF
 70
70
  9
$TILEMODE
 70
1
  9
$MAXACTVP
 70
64
  9
$PINSBASE
 10
0.0
 20
0.0
 30
0.0
  9
$PLIMCHECK
 70
0
  9
$PEXTMIN
 10
1e+20
 20
1e+20
 30
1e+20
  9
$PEXTMAX
 10
-1e+20
 20
-1e+20
 30
-1e+20
  9
$PLIMMIN
 10
0.0
 20
0.0
  9
$PLIMMAX
 10
420.0
 20
297.0
  9
$UNITMODE
 70
0
  9
$VISRETAIN
 70
1
  9
$PLINEGEN
 70
0
  9
$PSLTSCALE
 70
1
  9
$TREEDEPTH
 70
3020
  9
$CMLSTYLE
  2
Standard
  9
$CMLJUST
 70
0
  9
$CMLSCALE
 40
20.0
  9
$PROXYGRAPHICS
 70
1
  9
$MEASUREMENT
 70
1
  9
$CELWEIGHT
370
-1
  9
$ENDCAPS
280
0
  9
$JOINSTYLE
280
0
  9
$LWDISPLAY
290
0
  9
$INSUNITS
 70
4
  9
$HYPERLINKBASE
  1

  9
$STYLESHEET
  1

  9
$XEDIT
290
1
  9
$CEPSNTYPE
380
0
  9
$PSTYLEMODE
290
1
  9
$FINGERPRINTGUID
  2
{76D7B592-3593-4FD4-BB2B-6C5056E53ED5}
  9
$VERSIONGUID
  2
{1675288C-B852-44D0-96BD-E63538B7054E}
  9
$EXTNAMES
290
1
  9
$PSVPSCALE
 40
0.0
  9
$OLESTARTUP
290
0
  9
$SORTENTS
280
127
  9
$INDEXCTL
280
0
  9
$HIDETEXT
280
1
  9
$XCLIPFRAME
280
1
  9
$HALOGAP
280
0
  9
$OBSCOLOR
 70
257
  9
$OBSLTYPE
280
0
  9
$INTERSECTIONDISPLAY
280
0
  9
$INTERSECTIONCOLOR
 70
257
  9
$DIMASSOC
280
2
  9
$PROJECTNAME
  1

  9
$CAMERADISPLAY
290
0
  9
$LENSLENGTH
 40
50.0
  9
$CAMERAHEIGHT
 40
0.0
  9
$STEPSPERSEC
 40
24.0
  9
$STEPSIZE
 40
100.0
  9
$3DDWFPREC
 40
2.0
  9
$PSOLWIDTH
 40
0.005
  9
$PSOLHEIGHT
 40
0.08
  9
$LOFTANG1
 40
1.570796326795
  9
$LOFTANG2
 40
1.570796326795
  9
$LOFTMAG1
 40
0.0
  9
$LOFTMAG2
 40
0.0
  9
$LOFTPARAM
 70
7
  9
$LOFTNORMALS
280
1
  9
$LATITUDE
 40
37.795
  9
$LONGITUDE
 40
-122.394
  9
$NORTHDIRECTION
 40
0.0
  9
$TIMEZONE
 70
-8000
  9
$LIGHTGLYPHDISPLAY
280
1
  9
$TILEMODELIGHTSYNCH
280
1
  9
$CMATERIAL
347
20
  9
$SOLIDHIST
280
0
  9
$SHOWHIST
280
1
  9
$DWFFRAME
280
2
  9
$DGNFRAME
280
2
  9
$REALWORLDSCALE
290
1
  9
$INTERFERECOLOR
 62
256
  9
$CSHADOW
280
0
  9
$SHADOWPLANELOCATION
 40
0.0
  0
ENDSEC
  0
SECTION
  2
CLASSES
  0
CLASS
  1
ACDBDICTIONARYWDFLT
  2
AcDbDictionaryWithDefault
  3
ObjectDBX Classes
 90
0
 91
0
280
0
281
0
  0
CLASS
  1
SUN
  2
AcDbSun
  3
SCENEOE
 90
1153
 91
0
280
0
281
0
  0
CLASS
  1
VISUALSTYLE
  2
AcDbVisualStyle
  3
ObjectDBX Classes
 90
4095
 91
0
280
0
281
0
  0
CLASS
  1
MATERIAL
  2
AcDbMaterial
  3
ObjectDBX Classes
 90
1153
 91
0
280
0
281
0
  0
CLASS
  1
SCALE
  2
AcDbScale
  3
ObjectDBX Classes
 90
1153
 91
0
280
0
281
0
  0
CLASS
  1
TABLESTYLE
  2
AcDbTableStyle
  3
ObjectDBX Classes
 90
4095
 91
0
280
0
281
0
  0
CLASS
  1
MLEADERSTYLE
  2
AcDbMLeaderStyle
  3
ACDB_MLEADERSTYLE_CLASS
 90
4095
 91
0
280
0
281
0
  0
CLASS
  1
DICTIONARYVAR
  2
AcDbDictionaryVar
  3
ObjectDBX Classes
 90
0
 91
0
280
0
281
0
  0
CLASS
  1
CELLSTYLEMAP
  2
AcDbCellStyleMap
  3
ObjectDBX Classes
 90
1152
 91
0
280
0
281
0
  0
CLASS
  1
MENTALRAYRENDERSETTINGS
  2
AcDbMentalRayRenderSettings
  3
SCENEOE
 90
1024
 91
0
280
0
281
0
  0
CLASS
  1
ACDBDETAILVIEWSTYLE
  2
AcDbDetailViewStyle
  3
ObjectDBX Classes
 90
1025
 91
0
280
0
281
0
  0
CLASS
  1
ACDBSECTIONVIEWSTYLE
  2
AcDbSectionViewStyle
  3
ObjectDBX Classes
 90
1025
 91
0
280
0
281
0
  0
CLASS
  1
RASTERVARIABLES
  2
AcDbRasterVariables
  3
ISM
 90
0
 91
0
280
0
281
0
  0
CLASS
  1
ACDBPLACEHOLDER
  2
AcDbPlaceHolder
  3
ObjectDBX Classes
 90
0
 91
0
280
0
281
0
  0
CLASS
  1
LAYOUT
  2
AcDbLayout
  3
ObjectDBX Classes
 90
0
 91
0
280
0
281
0
  0
ENDSEC
  0
SECTION
  2
TABLES
  0
TABLE
  2
VPORT
  5
8
330
0
100
AcDbSymbolTable
 70
1
  0
VPORT
  5
23
330
8
100
AcDbSymbolTableRecord
100
AcDbViewportTableRecord
  2
*Active
 70
0
 10
0.0
 20
0.0
 11
1.0
 21
1.0
 12
0.0
 22
0.0
 13
0.0
 23
0.0
 14
0.5
 24
0.5
 15
0.5
 25
0.5
 16
0.0
 26
0.0
 36
1.0
 17
0.0
 27
0.0
 37
0.0
 40
1000.0
 41
1.34
 42
50.0
 43
0.0
 44
0.0
 50
0.0
 51
0.0
 71
0
 72
1000
 73
1
 74
3
 75
0
 76
0
 77
0
 78
0
281
0
 65
0
146
0.0
  0
ENDTAB
  0
TABLE
  2
LTYPE
  5
2
330
0
100
AcDbSymbolTable
 70
21
  0
LTYPE
  5
24
330
2
100
AcDbSymbolTableRecord
100
AcDbLinetypeTableRecord
  2
ByBlock
 70
0
  3

 72
65
 73
0
 40
0.0
  0
LTYPE
  5
25
330
2
100
AcDbSymbolTableRecord
100
AcDbLinetypeTableRecord
  2
ByLayer
 70
0
  3

 72
65
 73
0
 40
0.0
  0
LTYPE
  5
26
330
2
100
AcDbSymbolTableRecord
100
AcDbLinetypeTableRecord
  2
Continuous
 70
0
  3

 72
65
 73
0
 40
0.0
  0
LTYPE
  5
2F
330
2
100
AcDbSymbolTableRecord
100
AcDbLinetypeTableRecord
  2
CENTER
 70
0
  3
Center ____ _ ____ _ ____ _ ____ _ ____ _ ____
 72
65
 73
4
 40
5.08
 49
3.175
 74
0
 49
-0.635
 74
0
 49
0.635
 74
0
 49
-0.635
 74
0
  0
LTYPE
  5
30
330
2
100
AcDbSymbolTableRecord
100
AcDbLinetypeTableRecord
  2
CENTERX2
 70
0
  3
Center (2x) ________  __  ________  __  ________
 72
65
 73
4
 40
8.89
 49
6.35
 74
0
 49
-0.635
 74
0
 49
1.27
 74
0
 49
-0.635
 74
0
  0
LTYPE
  5
31
330
2
100
AcDbSymbolTableRecord
100
AcDbLinetypeTableRecord
  2
CENTER2
 70
0
  3
Center (.5x) ____ _ ____ _ ____ _ ____ _ ____
 72
65
 73
4
 40
2.54
 49
1.587
 74
0
 49
-0.318
 74
0
 49
0.318
 74
0
 49
-0.318
 74
0
  0
LTYPE
  5
32
330
2
100
AcDbSymbolTableRecord
100
AcDbLinetypeTableRecord
  2
DASHED
 70
0
  3
Dashed __ __ __ __ __ __ __ __ __ __ __ __ __ _
 72
65
 73
2
 40
1.524
 49
1.27
 74
0
 49
-0.254
 74
0
  0
LTYPE
  5
33
330
2
100
AcDbSymbolTableRecord
100
AcDbLinetypeTableRecord
  2
DASHEDX2
 70
0
  3
Dashed (2x) ____  ____  ____  ____  ____  ____
 72
65
 73
2
 40
3.048
 49
2.54
 74
0
 49
-0.508
 74
0
  0
LTYPE
  5
34
330
2
100
AcDbSymbolTableRecord
100
AcDbLinetypeTableRecord
  2
DASHED2
 70
0
  3
Dashed (.5x) _ _ _ _ _ _ _ _ _ _ _ _ _ _
 72
65
 73
2
 40
0.762
 49
0.635
 74
0
 49
-0.127
 74
0
  0
LTYPE
  5
35
330
2
100
AcDbSymbolTableRecord
100
AcDbLinetypeTableRecord
  2
PHANTOM
 70
0
  3
Phantom ______  __  __  ______  __  __  ______
 72
65
 73
6
 40
6.35
 49
3.175
 74
0
 49
-0.635
 74
0
 49
0.635
 74
0
 49
-0.635
 74
0
 49
0.635
 74
0
 49
-0.635
 74
0
  0
LTYPE
  5
36
330
2
100
AcDbSymbolTableRecord
100
AcDbLinetypeTableRecord
  2
PHANTOMX2
 70
0
  3
Phantom (2x)____________    ____    ____    ____________
 72
65
 73
6
 40
10.795
 49
6.35
 74
0
 49
-0.635
 74
0
 49
1.27
 74
0
 49
-0.635
 74
0
 49
1.27
 74
0
 49
-0.635
 74
0
  0
LTYPE
  5
37
330
2
100
AcDbSymbolTableRecord
100
AcDbLinetypeTableRecord
  2
PHANTOM2
 70
0
  3
Phantom (.5x) ___ _ _ ___ _ _ ___ _ _ ___ _ _ ___
 72
65
 73
6
 40
3.175
 49
1.587
 74
0
 49
-0.318
 74
0
 49
0.318
 74
0
 49
-0.318
 74
0
 49
0.318
 74
0
 49
-0.318
 74
0
  0
LTYPE
  5
38
330
2
100
AcDbSymbolTableRecord
100
AcDbLinetypeTableRecord
  2
DASHDOT
 70
0
  3
Dash dot __ . __ . __ . __ . __ . __ . __ . __
 72
65
 73
4
 40
3.556
 49
2.54
 74
0
 49
-0.508
 74
0
 49
0.0
 74
0
 49
-0.508
 74
0
  0
LTYPE
  5
39
330
2
100
AcDbSymbolTableRecord
100
AcDbLinetypeTableRecord
  2
DASHDOTX2
 70
0
  3
Dash dot (2x) ____  .  ____  .  ____  .  ____
 72
65
 73
4
 40
6.096
 49
5.08
 74
0
 49
-0.508
 74
0
 49
0.0
 74
0
 49
-0.508
 74
0
  0
LTYPE
  5
3A
330
2
100
AcDbSymbolTableRecord
100
AcDbLinetypeTableRecord
  2
DASHDOT2
 70
0
  3
Dash dot (.5x) _ . _ . _ . _ . _ . _ . _ . _
 72
65
 73
4
 40
1.778
 49
1.27
 74
0
 49
-0.254
 74
0
 49
0.0
 74
0
 49
-0.254
 74
0
  0
LTYPE
  5
3B
330
2
100
AcDbSymbolTableRecord
100
AcDbLinetypeTableRecord
  2
DOT
 70
0
  3
Dot .  .  .  .  .  .  .  .  .  .  .  .  .  .  .  .
 72
65
 73
2
 40
0.508
 49
0.0
 74
0
 49
-0.508
 74
0
  0
LTYPE
  5
3C
330
2
100
AcDbSymbolTableRecord
100
AcDbLinetypeTableRecord
  2
DOTX2
 70
0
  3
Dot (2x) .    .    .    .    .    .    .    . 
 72
65
 73
2
 40
1.016
 49
0.0
 74
0
 49
-1.016
 74
0
  0
LTYPE
  5
3D
330
2
100
AcDbSymbolTableRecord
100
AcDbLinetypeTableRecord
  2
DOT2
 70
0
  3
Dot (.5) . . . . . . . . . . . . . . . . . . . 
 72
65
 73
2
 40
0.254
 49
0.0
 74
0
 49
-0.254
 74
0
  0
LTYPE
  5
3E
330
2
100
AcDbSymbolTableRecord
100
AcDbLinetypeTableRecord
  2
DIVIDE
 70
0
  3
Divide __ . . __ . . __ . . __ . . __ . . __
 72
65
 73
6
 40
4.064
 49
2.54
 74
0
 49
-0.508
 74
0
 49
0.0
 74
0
 49
-0.508
 74
0
 49
0.0
 74
0
 49
-0.508
 74
0
  0
LTYPE
  5
3F
330
2
100
AcDbSymbolTableRecord
100
AcDbLinetypeTableRecord
  2
DIVIDEX2
 70
0
  3
Divide (2x) ____  . .  ____  . .  ____  . .  ____
 72
65
 73
6
 40
6.604
 49
5.08
 74
0
 49
-0.508
 74
0
 49
0.0
 74
0
 49
-0.508
 74
0
 49
0.0
 74
0
 49
-0.508
 74
0
  0
LTYPE
  5
40
330
2
100
AcDbSymbolTableRecord
100
AcDbLinetypeTableRecord
  2
DIVIDE2
 70
0
  3
Divide(.5x) _ . _ . _ . _ . _ . _ . _ . _
 72
65
 73
6
 40
2.032
 49
1.27
 74
0
 49
-0.254
 74
0
 49
0.0
 74
0
 49
-0.254
 74
0
 49
0.0
 74
0
 49
-0.254
 74
0
  0
ENDTAB
  0
TABLE
  2
LAYER
  5
1
330
0
100
AcDbSymbolTable
 70
8
  0
LAYER
  5
27
330
1
100
AcDbSymbolTableRecord
100
AcDbLayerTableRecord
  2
0
 70
0
 62
7
  6
Continuous
370
-3
390
13
347
21
  0
LAYER
  5
28
330
1
100
AcDbSymbolTableRecord
100
AcDbLayerTableRecord
  2
Defpoints
 70
0
 62
7
  6
Continuous
290
0
370
-3
390
13
347
21
  0
LAYER
  5
8A
330
1
100
AcDbSymbolTableRecord
100
AcDbLayerTableRecord
  2
CUT_OUT
 70
0
 62
7
  6
Continuous
370
-3
390
13
347
21
  0
LAYER
  5
8B
330
1
100
AcDbSymbolTableRecord
100
AcDbLayerTableRecord
  2
CUT_IN
 70
0
 62
1
  6
Continuous
370
-3
390
13
347
21
  0
LAYER
  5
8C
330
1
100
AcDbSymbolTableRecord
100
AcDbLayerTableRecord
  2
DRILL
 70
0
 62
3
  6
Continuous
370
-3
390
13
347
21
  0
LAYER
  5
8D
330
1
100
AcDbSymbolTableRecord
100
AcDbLayerTableRecord
  2
MARK
 70
0
 62
5
  6
Continuous
370
-3
390
13
347
21
  0
LAYER
  5
8E
330
1
100
AcDbSymbolTableRecord
100
AcDbLayerTableRecord
  2
TEXT
 70
0
 62
8
  6
Continuous
370
-3
390
13
347
21
  0
LAYER
  5
8F
330
1
100
AcDbSymbolTableRecord
100
AcDbLayerTableRecord
  2
SHEET
 70
0
 62
9
  6
Continuous
370
-3
390
13
347
21
  0
ENDTAB
  0
TABLE
  2
STYLE
  5
5
330
0
100
AcDbSymbolTable
 70
26
  0
STYLE
  5
29
330
5
100
AcDbSymbolTableRecord
100
AcDbTextStyleTableRecord
  2
Standard
 70
0
 40
0.0
 41
1.0
 50
0.0
 71
0
 42
2.5
  3
txt
  4

  0
STYLE
  5
41
330
5
100
AcDbSymbolTableRecord
100
AcDbTextStyleTableRecord
  2
OpenSans-Light
 70
0
 40
0.0
 41
1.0
 50
0.0
 71
0
 42
2.5
  3
OpenSans-Light.ttf
  4

  0
STYLE
  5
42
330
5
100
AcDbSymbolTableRecord
100
AcDbTextStyleTableRecord
  2
OpenSans-Light-Italic
 70
0
 40
0.0
 41
1.0
 50
0.0
 71
0
 42
2.5
  3
OpenSans-LightItalic.ttf
  4

  0
STYLE
  5
43
330
5
100
AcDbSymbolTableRecord
100
AcDbTextStyleTableRecord
  2
OpenSans
 70
0
 40
0.0
 41
1.0
 50
0.0
 71
0
 42
2.5
  3
OpenSans-Regular.ttf
  4

  0
STYLE
  5
44
330
5
100
AcDbSymbolTableRecord
100
AcDbTextStyleTableRecord
  2
OpenSans-Italic
 70
0
 40
0.0
 41
1.0
 50
0.0
 71
0
 42
2.5
  3
OpenSans-Italic.ttf
  4

  0
STYLE
  5
45
330
5
100
AcDbSymbolTableRecord
100
AcDbTextStyleTableRecord
  2
OpenSans-SemiBold
 70
0
 40
0.0
 41
1.0
 50
0.0
 71
0
 42
2.5
  3
OpenSans-SemiBold.ttf
  4

  0
STYLE
  5
46
330
5
100
AcDbSymbolTableRecord
100
AcDbTextStyleTableRecord
  2
OpenSans-SemiBoldItalic
 70
0
 40
0.0
 41
1.0
 50
0.0
 71
0
 42
2.5
  3
OpenSans-SemiBoldItalic.ttf
  4

  0
STYLE
  5
47
330
5
100
AcDbSymbolTableRecord
100
AcDbTextStyleTableRecord
  2
OpenSans-Bold
 70
0
 40
0.0
 41
1.0
 50
0.0
 71
0
 42
2.5
  3
OpenSans-Bold.ttf
  4

  0
STYLE
  5
48
330
5
100
AcDbSymbolTableRecord
100
AcDbTextStyleTableRecord
  2
OpenSans-BoldItalic
 70
0
 40
0.0
 41
1.0
 50
0.0
 71
0
 42
2.5
  3
OpenSans-BoldItalic.ttf
  4

  0
STYLE
  5
49
330
5
100
AcDbSymbolTableRecord
100
AcDbTextStyleTableRecord
  2
OpenSans-ExtraBold
 70
0
 40
0.0
 41
1.0
 50
0.0
 71
0
 42
2.5
  3
OpenSans-ExtraBold.ttf
  4

  0
STYLE
  5
4A
330
5
100
AcDbSymbolTableRecord
100
AcDbTextStyleTableRecord
  2
OpenSans-ExtraBoldItalic
 70
0
 40
0.0
 41
1.0
 50
0.0
 71
0
 42
2.5
  3
OpenSans-ExtraBoldItalic.ttf
  4

  0
STYLE
  5
4B
330
5
100
AcDbSymbolTableRecord
100
AcDbTextStyleTableRecord
  2
OpenSansCondensed-Bold
 70
0
 40
0.0
 41
1.0
 50
0.0
 71
0
 42
2.5
  3
OpenSansCondensed-Bold.ttf
  4

  0
STYLE
  5
4C
330
5
100
AcDbSymbolTableRecord
100
AcDbTextStyleTableRecord
  2
OpenSansCondensed-Light
 70
0
 40
0.0
 41
1.0
 50
0.0
 71
0
 42
2.5
  3
OpenSansCondensed-Light.ttf
  4

  0
STYLE
  5
4D
330
5
100
AcDbSymbolTableRecord
100
AcDbTextStyleTableRecord
  2
OpenSansCondensed-Italic
 70
0
 40
0.0
 41
1.0
 50
0.0
 71
0
 42
2.5
  3
OpenSansCondensed-LightItalic.ttf
  4

  0
STYLE
  5
4E
330
5
100
AcDbSymbolTableRecord
100
AcDbTextStyleTableRecord
  2
LiberationSans
 70
0
 40
0.0
 41
1.0
 50
0.0
 71
0
 42
2.5
  3
LiberationSans-Regular.ttf
  4

  0
STYLE
  5
4F
330
5
100
AcDbSymbolTableRecord
100
AcDbTextStyleTableRecord
  2
LiberationSans-Bold
 70
0
 40
0.0
 41
1.0
 50
0.0
 71
0
 42
2.5
  3
LiberationSans-Bold.ttf
  4

  0
STYLE
  5
50
330
5
100
AcDbSymbolTableRecord
100
AcDbTextStyleTableRecord
  2
LiberationSans-BoldItalic
 70
0
 40
0.0
 41
1.0
 50
0.0
 71
0
 42
2.5
  3
LiberationSans-BoldItalic.ttf
  4

  0
STYLE
  5
51
330
5
100
AcDbSymbolTableRecord
100
AcDbTextStyleTableRecord
  2
LiberationSans-Italic
 70
0
 40
0.0
 41
1.0
 50
0.0
 71
0
 42
2.5
  3
LiberationSans-Italic.ttf
  4

  0
STYLE
  5
52
330
5
100
AcDbSymbolTableRecord
100
AcDbTextStyleTableRecord
  2
LiberationSerif
 70
0
 40
0.0
 41
1.0
 50
0.0
 71
0
 42
2.5
  3
LiberationSerif-Regular.ttf
  4

  0
STYLE
  5
53
330
5
100
AcDbSymbolTableRecord
100
AcDbTextStyleTableRecord
  2
LiberationSerif-Bold
 70
0
 40
0.0
 41
1.0
 50
0.0
 71
0
 42
2.5
  3
LiberationSerif-Bold.ttf
  4

  0
STYLE
  5
54
330
5
100
AcDbSymbolTableRecord
100
AcDbTextStyleTableRecord
  2
LiberationSerif-BoldItalic
 70
0
 40
0.0
 41
1.0
 50
0.0
 71
0
 42
2.5
  3
LiberationSerif-BoldItalic.ttf
  4

  0
STYLE
  5
55
330
5
100
AcDbSymbolTableRecord
100
AcDbTextStyleTableRecord
  2
LiberationSerif-Italic
 70
0
 40
0.0
 41
1.0
 50
0.0
 71
0
 42
2.5
  3
LiberationSerif-Italic.ttf
  4

  0
STYLE
  5
56
330
5
100
AcDbSymbolTableRecord
100
AcDbTextStyleTableRecord
  2
LiberationMono
 70
0
 40
0.0
 41
1.0
 50
0.0
 71
0
 42
2.5
  3
LiberationMono-Regular.ttf
  4

  0
STYLE
  5
57
330
5
100
AcDbSymbolTableRecord
100
AcDbTextStyleTableRecord
  2
LiberationMono-Bold
 70
0
 40
0.0
 41
1.0
 50
0.0
 71
0
 42
2.5
  3
LiberationMono-Bold.ttf
  4

  0
STYLE
  5
58
330
5
100
AcDbSymbolTableRecord
100
AcDbTextStyleTableRecord
  2
LiberationMono-BoldItalic
 70
0
 40
0.0
 41
1.0
 50
0.0
 71
0
 42
2.5
  3
LiberationMono-BoldItalic.ttf
  4

  0
STYLE
  5
59
330
5
100
AcDbSymbolTableRecord
100
AcDbTextStyleTableRecord
  2
LiberationMono-Italic
 70
0
 40
0.0
 41
1.0
 50
0.0
 71
0
 42
2.5
  3
LiberationMono-Italic.ttf
  4

  0
ENDTAB
  0
TABLE
  2
VIEW
  5
7
330
0
100
AcDbSymbolTable
 70
0
  0
ENDTAB
  0
TABLE
  2
UCS
  5
6
330
0
100
AcDbSymbolTable
 70
0
  0
ENDTAB
  0
TABLE
  2
APPID
  5
3
330
0
100
AcDbSymbolTable
 70
3
  0
APPID
  5
2A
330
3
100
AcDbSymbolTableRecord
100
AcDbRegAppTableRecord
  2
ACAD
 70
0
  0
APPID
  5
9E
330
3
100
AcDbSymbolTableRecord
100
AcDbRegAppTableRecord
  2
HATCHBACKGROUNDCOLOR
 70
0
  0
APPID
  5
9F
330
3
100
AcDbSymbolTableRecord
100
AcDbRegAppTableRecord
  2
EZDXF
 70
0
  0
ENDTAB
  0
TABLE
  2
DIMSTYLE
  5
4
330
0
100
AcDbSymbolTable
 70
12
100
AcDbDimStyleTable
  0
DIMSTYLE
105
2B
330
4
100
AcDbSymbolTableRecord
100
AcDbDimStyleTableRecord
  2
Standard
 70
0
 40
1.0
 41
2.5
 42
0.625
 43
3.75
 44
1.25
 45
0.0
 46
0.0
 47
0.0
 48
0.0
 49
2.5
140
2.5
141
2.5
142
0.0
143
0.03937007874
144
1.0
145
0.0
146
1.0
147
0.625
148
0.0
 69
0
 70
0
 71
0
 72
0
 73
0
 74
0
 75
0
 76
0
 77
1
 78
8
 79
3
170
0
171
3
172
1
173
0
174
0
175
0
176
0
177
0
178
0
179
2
271
2
272
2
273
2
274
3
275
0
276
0
277
2
278
44
279
0
280
0
281
0
282
0
283
0
284
8
285
0
286
0
288
0
289
3
290
0
371
-2
372
-2
  0
DIMSTYLE
105
73
330
4
100
AcDbSymbolTableRecord
100
AcDbDimStyleTableRecord
  2
EZDXF
 70
0
 40
1.0
 41
0.175
 42
0.125
 43
3.75
 44
0.375
 45
0.0
 46
0.0
 47
0.0
 48
0.0
 49
2.5
140
0.25
141
2.5
142
0.0
143
0.03937007874
144
100.0
145
0.0
146
0.5
147
0.1
148
0.0
 69
0
 70
0
 71
0
 72
0
 73
0
 74
0
 75
0
 76
0
 77
1
 78
12
 79
3
170
0
171
3
172
1
173
0
174
0
175
0
176
0
177
0
178
0
179
2
271
2
272
2
273
2
274
3
275
0
276
0
277
2
278
46
279
2
280
0
281
0
282
0
283
0
284
8
285
0
286
0
288
1
289
3
290
0
340
4C
342
74
371
-2
372
-2
  0
DIMSTYLE
105
7C
330
4
100
AcDbSymbolTableRecord
100
AcDbDimStyleTableRecord
  2
EZ_M_100_H25_CM
 70
0
 40
1.0
 41
0.25
 42
0.125
 43
3.75
 44
0.375
 45
0.0
 46
0.0
 47
0.0
 48
0.0
 49
2.5
140
0.25
141
2.5
142
0.125
143
0.03937007874
144
100.0
145
0.0
146
0.5
147
0.1
148
0.0
 69
0
 70
0
 71
0
 72
0
 73
0
 74
0
 75
0
 76
0
 77
1
 78
12
 79
3
170
0
171
3
172
1
173
0
174
0
175
0
176
0
177
0
178
0
179
2
271
2
272
2
273
2
274
3
275
0
276
0
277
2
278
46
279
2
280
0
281
0
282
0
283
0
284
8
285
0
286
0
288
1
289
3
290
0
340
4C
371
-2
372
-2
  0
DIMSTYLE
105
7D
330
4
100
AcDbSymbolTableRecord
100
AcDbDimStyleTableRecord
  2
EZ_M_50_H25_CM
 70
0
 40
1.0
 41
0.125
 42
0.0625
 43
3.75
 44
0.1875
 45
0.0
 46
0.0
 47
0.0
 48
0.0
 49
2.5
140
0.125
141
2.5
142
0.0625
143
0.03937007874
144
100.0
145
0.0
146
0.5
147
0.05
148
0.0
 69
0
 70
0
 71
0
 72
0
 73
0
 74
0
 75
0
 76
0
 77
1
 78
12
 79
3
170
0
171
3
172
1
173
0
174
0
175
0
176
0
177
0
178
0
179
2
271
2
272
2
273
2
274
3
275
0
276
0
277
2
278
46
279
2
280
0
281
0
282
0
283
0
284
8
285
0
286
0
288
1
289
3
290
0
340
4C
371
-2
372
-2
  0
DIMSTYLE
105
7E
330
4
100
AcDbSymbolTableRecord
100
AcDbDimStyleTableRecord
  2
EZ_M_25_H25_CM
 70
0
 40
1.0
 41
0.0625
 42
0.03125
 43
3.75
 44
0.09375
 45
0.0
 46
0.0
 47
0.0
 48
0.0
 49
2.5
140
0.0625
141
2.5
142
0.03125
143
0.03937007874
144
100.0
145
0.0
146
0.5
147
0.025
148
0.0
 69
0
 70
0
 71
0
 72
0
 73
0
 74
0
 75
0
 76
0
 77
1
 78
12
 79
3
170
0
171
3
172
1
173
0
174
0
175
0
176
0
177
0
178
0
179
2
271
2
272
2
273
2
274
3
275
0
276
0
277
2
278
46
279
2
280
0
281
0
282
0
283
0
284
8
285
0
286
0
288
1
289
3
290
0
340
4C
371
-2
372
-2
  0
DIMSTYLE
105
7F
330
4
100
AcDbSymbolTableRecord
100
AcDbDimStyleTableRecord
  2
EZ_M_20_H25_CM
 70
0
 40
1.0
 41
0.05
 42
0.025
 43
3.75
 44
0.07500000000000001
 45
0.0
 46
0.0
 47
0.0
 48
0.0
 49
2.5
140
0.05
141
2.5
142
0.025
143
0.03937007874
144
100.0
145
0.0
146
0.5
147
0.020000000000000004
148
0.0
 69
0
 70
0
 71
0
 72
0
 73
0
 74
0
 75
0
 76
0
 77
1
 78
12
 79
3
170
0
171
3
172
1
173
0
174
0
175
0
176
0
177
0
178
0
179
2
271
2
272
2
273
2
274
3
275
0
276
0
277
2
278
46
279
2
280
0
281
0
282
0
283
0
284
8
285
0
286
0
288
1
289
3
290
0
340
4C
371
-2
372
-2
  0
DIMSTYLE
105
80
330
4
100
AcDbSymbolTableRecord
100
AcDbDimStyleTableRecord
  2
EZ_M_10_H25_CM
 70
0
 40
1.0
 41
0.025
 42
0.0125
 43
3.75
 44
0.037500000000000006
 45
0.0
 46
0.0
 47
0.0
 48
0.0
 49
2.5
140
0.025
141
2.5
142
0.0125
143
0.03937007874
144
100.0
145
0.0
146
0.5
147
0.010000000000000002
148
0.0
 69
0
 70
0
 71
0
 72
0
 73
0
 74
0
 75
0
 76
0
 77
1
 78
12
 79
3
170
0
171
3
172
1
173
0
174
0
175
0
176
0
177
0
178
0
179
2
271
2
272
2
273
2
274
3
275
0
276
0
277
2
278
46
279
2
280
0
281
0
282
0
283
0
284
8
285
0
286
0
288
1
289
3
290
0
340
4C
371
-2
372
-2
  0
DIMSTYLE
105
81
330
4
100
AcDbSymbolTableRecord
100
AcDbDimStyleTableRecord
  2
EZ_M_5_H25_CM
 70
0
 40
1.0
 41
0.0125
 42
0.00625
 43
3.75
 44
0.018750000000000003
 45
0.0
 46
0.0
 47
0.0
 48
0.0
 49
2.5
140
0.0125
141
2.5
142
0.00625
143
0.03937007874
144
100.0
145
0.0
146
0.5
147
0.005000000000000001
148
0.0
 69
0
 70
0
 71
0
 72
0
 73
0
 74
0
 75
0
 76
0
 77
1
 78
12
 79
3
170
0
171
3
172
1
173
0
174
0
175
0
176
0
177
0
178
0
179
2
271
2
272
2
273
2
274
3
275
0
276
0
277
2
278
46
279
2
280
0
281
0
282
0
283
0
284
8
285
0
286
0
288
1
289
3
290
0
340
4C
371
-2
372
-2
  0
DIMSTYLE
105
82
330
4
100
AcDbSymbolTableRecord
100
AcDbDimStyleTableRecord
  2
EZ_M_1_H25_CM
 70
0
 40
1.0
 41
0.0025
 42
0.00125
 43
3.75
 44
0.00375
 45
0.0
 46
0.0
 47
0.0
 48
0.0
 49
2.5
140
0.0025
141
2.5
142
0.00125
143
0.03937007874
144
100.0
145
0.0
146
0.5
147
0.001
148
0.0
 69
0
 70
0
 71
0
 72
0
 73
0
 74
0
 75
0
 76
0
 77
1
 78
12
 79
3
170
0
171
3
172
1
173
0
174
0
175
0
176
0
177
0
178
0
179
2
271
2
272
2
273
2
274
3
275
0
276
0
277
2
278
46
279
2
280
0
281
0
282
0
283
0
284
8
285
0
286
0
288
1
289
3
290
0
340
4C
371
-2
372
-2
  0
DIMSTYLE
105
83
330
4
100
AcDbSymbolTableRecord
100
AcDbDimStyleTableRecord
  2
EZ_RADIUS
 70
0
 40
1.0
 41
0.25
 42
0.125
 43
3.75
 44
0.375
 45
0.0
 46
0.0
 47
0.0
 48
0.0
 49
2.5
140
0.25
141
0.0
142
0.0
143
0.03937007874
144
100.0
145
0.0
146
0.5
147
0.1
148
0.0
 69
0
 70
0
 71
0
 72
0
 73
0
 74
0
 75
0
 76
0
 77
1
 78
12
 79
3
170
0
171
3
172
0
173
0
174
0
175
0
176
0
177
0
178
0
179
2
271
2
272
2
273
2
274
3
275
0
276
0
277
2
278
46
279
1
280
0
281
0
282
0
283
0
284
8
285
0
286
0
288
1
289
3
290
0
340
4C
342
84
371
-2
372
-2
  0
DIMSTYLE
105
88
330
4
100
AcDbSymbolTableRecord
100
AcDbDimStyleTableRecord
  2
EZ_RADIUS_INSIDE
 70
0
 40
1.0
 41
0.25
 42
0.125
 43
3.75
 44
0.375
 45
0.0
 46
0.0
 47
0.0
 48
0.0
 49
2.5
140
0.25
141
0.0
142
0.0
143
0.03937007874
144
100.0
145
0.0
146
0.5
147
0.1
148
0.0
 69
0
 70
0
 71
0
 72
0
 73
0
 74
0
 75
0
 76
0
 77
0
 78
12
 79
3
170
0
171
3
172
0
173
0
174
1
175
0
176
0
177
0
178
0
179
2
271
2
272
2
273
2
274
3
275
0
276
0
277
2
278
46
279
0
280
0
281
0
282
0
283
0
284
8
285
0
286
0
288
1
289
0
290
0
340
4C
342
84
371
-2
372
-2
  0
DIMSTYLE
105
89
330
4
100
AcDbSymbolTableRecord
100
AcDbDimStyleTableRecord
  2
EZ_CURVED
 70
0
 40
1.0
 41
0.25
 42
0.125
 43
3.75
 44
0.375
 45
0.0
 46
0.0
 47
0.0
 48
0.0
 49
2.5
140
0.25
141
2.5
142
0.0
143
0.03937007874
144
100.0
145
0.0
146
0.5
147
0.1
148
0.0
 69
0
 70
0
 71
0
 72
0
 73
0
 74
0
 75
0
 76
0
 77
1
 78
12
 79
2
 90
2
170
0
171
3
172
1
173
0
174
0
175
0
176
0
177
0
178
0
179
2
271
2
272
2
273
2
274
3
275
0
276
0
277
2
278
46
279
2
280
0
281
0
282
0
283
0
284
8
285
0
286
0
288
1
289
3
290
0
340
4C
371
-2
372
-2
  0
ENDTAB
  0
TABLE
  2
BLOCK_RECORD
  5
9
330
0
100
AcDbSymbolTable
 70
5
  0
BLOCK_RECORD
  5
17
330
9
100
AcDbSymbolTableRecord
100
AcDbBlockTableRecord
  2
*Model_Space
340
1A
 70
0
280
1
281
0
  0
BLOCK_RECORD
  5
1B
330
9
100
AcDbSymbolTableRecord
100
AcDbBlockTableRecord
  2
*Paper_Space
340
1E
 70
0
280
1
281
0
  0
BLOCK_RECORD
  5
74
330
9
100
AcDbSymbolTableRecord
100
AcDbBlockTableRecord
  2
_ARCHTICK
340
0
 70
0
280
1
281
0
  0
BLOCK_RECORD
  5
78
330
9
100
AcDbSymbolTableRecord
100
AcDbBlockTableRecord
  2
_CLOSEDFILLED
340
0
 70
0
280
1
281
0
  0
BLOCK_RECORD
  5
84
330
9
100
AcDbSymbolTableRecord
100
AcDbBlockTableRecord
  2
_CLOSEDBLANK
340
0
 70
0
280
1
281
0
  0
ENDTAB
  0
ENDSEC
  0
SECTION
  2
BLOCKS
  0
BLOCK
  5
18
330
17
100
AcDbEntity
  8
0
100
AcDbBlockBegin
  2
*Model_Space
 70
0
 10
0.0
 20
0.0
 30
0.0
  3
*Model_Space
  1

  0
ENDBLK
  5
19
330
17
100
AcDbEntity
  8
0
100
AcDbBlockEnd
  0
BLOCK
  5
1C
330
1B
100
AcDbEntity
  8
0
100
AcDbBlockBegin
  2
*Paper_Space
 70
0
 10
0.0
 20
0.0
 30
0.0
  3
*Paper_Space
  1

  0
ENDBLK
  5
1D
330
1B
100
AcDbEntity
  8
0
100
AcDbBlockEnd
  0
BLOCK
  5
75
330
74
100
AcDbEntity
  8
0
100
AcDbBlockBegin
  2
_ARCHTICK
 70
0
 10
0.0
 20
0.0
 30
0.0
  3
_ARCHTICK
  1

  0
LWPOLYLINE
  5
77
330
74
100
AcDbEntity
  8
0
  6
BYBLOCK
 62
0
100
AcDbPolyline
 90
2
 70
0
 43
0.15
 10
-0.5
 20
-0.5
 10
0.5
 20
0.5
  0
ENDBLK
  5
76
330
74
100
AcDbEntity
  8
0
100
AcDbBlockEnd
  0
BLOCK
  5
79
330
78
100
AcDbEntity
  8
0
100
AcDbBlockBegin
  2
_CLOSEDFILLED
 70
0
 10
0.0
 20
0.0
 30
0.0
  3
_CLOSEDFILLED
  1

  0
SOLID
  5
7B
330
78
100
AcDbEntity
  8
0
  6
BYBLOCK
 62
0
100
AcDbTrace
 10
-1.0
 20
0.16439898372402537
 30
0.0
 11
0.0
 21
0.0
 31
0.0
 12
-1.0
 22
-0.16439898372402537
 32
0.0
 13
-1.0
 23
-0.16439898372402537
 33
0.0
  0
ENDBLK
  5
7A
330
78
100
AcDbEntity
  8
0
100
AcDbBlockEnd
  0
BLOCK
  5
85
330
84
100
AcDbEntity
  8
0
100
AcDbBlockBegin
  2
_CLOSEDBLANK
 70
0
 10
0.0
 20
0.0
 30
0.0
  3
_CLOSEDBLANK
  1

  0
LWPOLYLINE
  5
87
330
84
100
AcDbEntity
  8
0
  6
BYBLOCK
 62
0
100
AcDbPolyline
 90
3
 70
1
 10
-1.0
 20
0.16439898372402537
 10
0.0
 20
0.0
 10
-1.0
 20
-0.16439898372402537
  0
ENDBLK
  5
86
330
84
100
AcDbEntity
  8
0
100
AcDbBlockEnd
  0
ENDSEC
  0
SECTION
  2
ENTITIES
  0
LWPOLYLINE
  5
90
330
17
100
AcDbEntity
  8
CUT_OUT
100
AcDbPolyline
 90
206
 70
1
 10
32.674148060217604
 20
33.45102698551139
 10
32.13703647095581
 20
34.60560894893463
 10
29.58766508567951
 20
40.94532191449947
 10
29.286817003026975
 20
41.78169314437916
 10
25.235311063638974
 20
54.50620546879024
 10
25.138915619722532
 20
54.82410898451441
 10
12.462187387339238
 20
98.8145775362838
 10
12.425580320073223
 20
98.94434609410091
 10
8.76641916418934
 20
112.20028248438895
 10
8.67502387936972
 20
112.55206350691113
 10
5.940211630118066
 20
123.7739949825462
 10
5.828178147457967
 20
124.28118708617761
 10
3.988068895935287
 20
133.56089102335943
 10
3.8956276478657212
 20
134.08854693212044
 10
2.470010636481595
 20
143.45093644688546
 10
2.4050417870835936
 20
143.94683992131462
 10
1.3646723883873406
 20
153.41616567936165
 10
1.3253357158643482
 20
153.84493532543723
 10
0.6213685874092167
 20
163.399511194142
 10
0.5986900509165647
 20
163.79736341332523
 10
0.130203970594021
 20
175.4056689944889
 10
0.12108972876930046
 20
175.7650204850359
 10
0.0
 20
187.43113590502685
 10
0.0007166303234189542
 20
187.7365437004538
 10
0.2071345577952055
 20
201.43080975263877
 10
0.21556973265290935
 20
201.7347805333328
 10
0.7679926299711717
 20
215.39660533187953
 10
0.7873042540767301
 20
215.74711224368042
 10
2.1543078389536117
 20
235.33711274070055
 10
2.186378670495891
 20
235.7119791386184
 10
4.37031189747994
 20
257.25677650733047
 10
4.406796963314859
 20
257.5744600176894
 10
7.171647506190174
 20
279.11281992857613
 10
7.207535665588601
 20
279.37027787489257
 10
11.041433487862935
 20
304.85260700469865
 10
11.075531270034597
 20
305.0661449970177
 10
15.709011040502126
 20
332.4939406107204
 10
15.73814957218788
 20
332.65936784743803
 10
21.48067798848506
 20
363.97663253163444
 10
21.51322246615189
 20
364.14715384125896
 10
27.70517815827588
 20
395.3628734961854
 10
27.74553765589024
 20
395.557849422637
 10
34.44601050260068
 20
426.62685579317775
 10
34.50205482009241
 20
426.8740285133882
 10
39.5334844808627
 20
448.02586524171795
 10
39.59952887720812
 20
448.2901506387076
 10
44.58726484149113
 20
467.3278590172325
 10
44.68744204819707
 20
467.687331384205
 10
49.67322329871736
 20
484.5591324903355
 10
49.80563653819511
 20
484.9787504480415
 10
54.09651063110363
 20
497.7554096177604
 10
54.29758816076577
 20
498.3087767485124
 10
57.648273269764516
 20
506.8695377938632
 10
58.03483277729052
 20
507.7512197719019
 10
61.86652512945142
 20
515.616695310797
 10
62.52797648065922
 20
516.7997082143305
 10
65.95570774030922
 20
522.1909477711574
 10
66.89691030130665
 20
523.4745510456571
 10
69.69042316745596
 20
526.797431655106
 10
172.1945700034753
 20
526.797431655106
 10
172.6204065411087
 20
526.4706757873124
 10
173.34394940580114
 20
526.1709745197985
 10
174.1204065411087
 20
526.0687519986657
 10
174.89686367641627
 20
526.1709745197985
 10
175.6204065411087
 20
526.4706757873124
 10
176.04624307874218
 20
526.797431655106
 10
176.24172688466837
 20
526.797431655106
 10
176.24172688466837
 20
526.947431655106
 10
176.71848275246202
 20
527.5687519986657
 10
177.01818401997593
 20
528.2922948633582
 10
177.1204065411087
 20
529.0687519986657
 10
177.01818401997593
 20
529.8452091339732
 10
176.71848275246202
 20
530.5687519986657
 10
176.24172688466837
 20
531.1900723422253
 10
176.24172688466837
 20
544.8294614068463
 10
464.48414502805883
 20
544.8416727959692
 10
464.6112418282354
 20
544.8410050953225
 10
486.25330598163964
 20
544.6126894986301
 10
486.8276111725383
 20
544.5928708957466
 10
494.15924576207436
 20
544.163913929909
 10
494.8320522355291
 20
544.1055137860568
 10
499.9870550062608
 20
543.5114897699909
 10
500.82128002360287
 20
543.3855051695461
 10
505.68945895562615
 20
542.4742328538297
 10
506.74031210365285
 20
542.2281456180275
 10
511.26097762381283
 20
540.9525552402393
 10
512.4713529903565
 20
540.5402395325369
 10
516.6433610220126
 20
538.8660181512996
 10
517.9239442435322
 20
538.2621230308866
 10
521.8732302498591
 20
536.1062586200268
 10
522.9208333949439
 20
535.4626223080418
 10
525.1063689152077
 20
533.9603940044176
 10
526.0789262474884
 20
533.2160720847577
 10
529.51717023152
 20
530.2947845244274
 10
530.530120534442
 20
529.3268054032642
 10
533.5421721743215
 20
526.0915436878417
 10
534.4649230572351
 20
524.9716578671033
 10
538.2972007784577
 20
519.7010742900836
 10
538.9563610236846
 20
518.6915268901332
 10
541.4046030934848
 20
514.4954781141545
 10
541.8414031424144
 20
513.6754768095658
 10
544.9212112416816
 20
507.3116338284027
 10
545.2504754220383
 20
506.5680102277752
 10
547.9402753401546
 20
499.89076093873234
 10
548.1907853467167
 20
499.2102477122878
 10
551.1318842266531
 20
490.40909330840975
 10
551.32468823797
 20
489.77426491917674
 10
553.8104973469582
 20
480.69389514826287
 10
553.9268718082126
 20
480.23315724856127
 10
556.0873048247478
 20
470.90566687835224
 10
556.1641070518051
 20
470.54957608838265
 10
560.4157533057379
 20
449.27509475410966
 10
560.4625008911155
 20
449.027700644393
 10
564.2777486546366
 20
427.6076596054411
 10
564.3180938877296
 20
427.3669997731902
 10
581.9916291573317
 20
314.9458698498292
 10
582.0250302265073
 20
314.7193387786687
 10
583.6164313419325
 20
303.16323321374347
 10
583.6677822039604
 20
302.73300687174185
 10
584.6250707072392
 20
293.2627465222812
 10
584.665244324045
 20
292.7598840300393
 10
585.1048829951662
 20
285.2788568834692
 10
585.1235076455348
 20
284.79630424023316
 10
585.299533648363
 20
275.258886947503
 10
585.2999625564665
 20
274.8406163626614
 10
585.0422477867213
 20
259.1309682039461
 10
585.0386630056213
 20
258.9745960659484
 10
583.74866815179
 20
215.1664113341542
 10
583.7401962916321
 20
214.94697426772575
 10
582.4210286136938
 20
187.33460875387988
 10
582.3870234668163
 20
186.83862683913873
 10
581.1817843134565
 20
173.3582813142338
 10
581.1358980346704
 20
172.93132923924838
 10
579.444653417688
 20
159.46714588182795
 10
579.3841974293291
 20
159.04628658751363
 10
577.216760101613
 20
145.64879087677247
 10
577.1412638503541
 20
145.22948653588458
 10
574.900354330871
 20
133.93687435257124
 10
574.7836657086264
 20
133.4109662629312
 10
571.5975835512179
 20
120.43593651734976
 10
571.4067061013399
 20
119.74772669339343
 10
566.8618754622256
 20
105.07191565137073
 10
566.6942529174008
 20
104.57007238317983
 10
560.0552304767381
 20
86.0618589712001
 10
560.0045416200753
 20
85.92323739871937
 10
546.849845362644
 20
50.622987005780445
 10
546.6585364393
 20
50.14162971336334
 10
543.0632136039192
 20
41.63501374917867
 10
542.6701772526444
 20
40.7968103652603
 10
539.5680342167224
 20
34.794929057327934
 10
538.8745605040552
 20
33.62176407290528
 10
535.3165893977398
 20
28.315569830659086
 10
534.3977004483347
 20
27.116009139615883
 10
531.4464722008572
 20
23.728498557406127
 10
530.6313983174726
 20
22.880666855653928
 10
528.5756209240789
 20
20.942063723807493
 10
527.8614270909266
 20
20.3199544797355
 10
525.5555841614205
 20
18.466258221076274
 10
524.8188245851566
 20
17.91899879958298
 10
522.4195408841565
 20
16.27536733554753
 10
521.5149520208136
 20
15.712980061467263
 10
517.275781159805
 20
13.331566924389236
 10
516.4238810018311
 20
12.896720686716847
 10
513.6560237909292
 20
11.620269294877176
 10
512.903197488609
 20
11.303691945732808
 10
508.22561782563514
 20
9.52146385753214
 10
507.2513523441402
 20
9.197263830827069
 10
498.68234526782214
 20
6.747660029285498
 10
497.698606978062
 20
6.510809691010223
 10
484.8547552489712
 20
3.9860864301129197
 10
484.1212293406457
 20
3.86536390236553
 10
468.95984862455305
 20
1.8502507225812082
 10
468.3176146290964
 20
1.7824213478519937
 10
452.9865438535712
 20
0.5793414577586731
 10
452.41090834986954
 20
0.5480592880642376
 10
436.8900144211079
 20
0.07813252281947314
 10
436.5297436468951
 20
0.07263645299325105
 10
134.64522055037787
 20
0.0
 10
134.56288226168692
 20
0.00026267453692696563
 10
116.73619962999823
 20
0.11829419431361998
 10
116.46433366792208
 20
0.12317492423356668
 10
104.81199510181133
 20
0.4644598658194212
 10
104.4027457468785
 20
0.48344291302085196
 10
92.88291080807718
 20
1.2150470238035211
 10
92.39318742269587
 20
1.2562323051143807
 10
82.98963160405263
 20
2.24135808173439
 10
82.42155579768435
 20
2.3146149329092225
 10
75.21851759105584
 20
3.418845605205547
 10
74.43772321826505
 20
3.565142526960358
 10
67.65697800292378
 20
5.069541921231917
 10
66.52348066017822
 20
5.3799722013961
 10
60.24594247820097
 20
7.434554093165318
 10
58.98822186885961
 20
7.92614065091233
 10
54.89551530056643
 20
9.797663830705659
 10
53.68905981815836
 20
10.43463121609851
 10
49.920193168020546
 20
12.707373291189214
 10
48.698130974105396
 20
13.55166285273826
 10
45.31952673457166
 20
16.209199197952543
 10
44.17894098040225
 20
17.230632636328735
 10
41.086088880001945
 20
20.37829799839409
 10
40.25503800161201
 20
21.31758667662426
 10
38.524958367322306
 20
23.492137304156827
 10
37.964013908468736
 20
24.25744867365664
 10
36.403711783478286
 20
26.572943887849874
 10
35.758765217399
 20
27.64709102015283
 10
32.674148060217604
 20
33.45102698551139
  0
LWPOLYLINE
  5
91
330
17
100
AcDbEntity
  8
CUT_IN
100
AcDbPolyline
 90
53
 70
1
 10
106.69143786601683
 20
40.57418752289968
 10
105.9678950013244
 20
40.87388879041356
 10
105.19143786601683
 20
40.97611131154636
 10
104.41498073070926
 20
40.87388879041356
 10
103.69143786601683
 20
40.57418752289968
 10
103.07011752245718
 20
40.09743165510601
 10
102.59336165466351
 20
39.47611131154636
 10
102.29366038714963
 20
38.752568446853914
 10
102.19143786601683
 20
37.97611131154636
 10
102.29366038714963
 20
37.199654176238795
 10
102.59336165466351
 20
36.47611131154636
 10
103.07011752245718
 20
35.854790967986716
 10
103.07011752245718
 20
14.040072342225287
 10
102.59336165466351
 20
13.418751998665641
 10
102.29366038714963
 20
12.695209133973208
 10
102.19143786601683
 20
11.918751998665641
 10
102.29366038714963
 20
11.142294863358075
 10
102.59336165466351
 20
10.418751998665641
 10
103.07011752245718
 20
9.797431655105996
 10
103.69143786601683
 20
9.320675787312325
 10
104.41498073070927
 20
9.020974519798443
 10
105.19143786601683
 20
8.918751998665641
 10
105.9678950013244
 20
9.020974519798443
 10
106.69143786601683
 20
9.320675787312325
 10
107.31275820957647
 20
9.797431655105996
 10
117.1274768353379
 20
9.797431655105996
 10
117.74879717889755
 20
9.320675787312325
 10
118.47234004358998
 20
9.020974519798443
 10
119.24879717889755
 20
8.918751998665641
 10
120.02525431420511
 20
9.020974519798443
 10
120.74879717889755
 20
9.320675787312325
 10
121.37011752245719
 20
9.797431655105996
 10
121.84687339025086
 20
10.418751998665641
 10
122.14657465776475
 20
11.142294863358089
 10
122.24879717889755
 20
11.918751998665641
 10
122.14657465776475
 20
12.695209133973208
 10
121.84687339025086
 20
13.418751998665641
 10
121.37011752245719
 20
14.040072342225287
 10
121.37011752245719
 20
35.854790967986716
 10
121.84687339025086
 20
36.47611131154636
 10
122.14657465776475
 20
37.199654176238795
 10
122.24879717889755
 20
37.97611131154636
 10
122.14657465776475
 20
38.75256844685393
 10
121.84687339025086
 20
39.47611131154636
 10
121.37011752245719
 20
40.09743165510601
 10
120.74879717889755
 20
40.57418752289968
 10
120.02525431420511
 20
40.87388879041356
 10
119.24879717889755
 20
40.97611131154636
 10
118.47234004358998
 20
40.87388879041356
 10
117.74879717889755
 20
40.57418752289968
 10
117.1274768353379
 20
40.09743165510601
 10
107.31275820957647
 20
40.09743165510601
 10
106.69143786601683
 20
40.57418752289968
  0
LWPOLYLINE
  5
92
330
17
100
AcDbEntity
  8
CUT_IN
100
AcDbPolyline
 90
53
 70
1
 10
530.3932547781707
 20
105.097431655106
 10
529.7719344346111
 20
105.57418752289966
 10
529.0483915699186
 20
105.87388879041357
 10
528.2719344346111
 20
105.97611131154638
 10
527.4954772993035
 20
105.87388879041357
 10
526.7719344346111
 20
105.57418752289966
 10
526.1506140910515
 20
105.097431655106
 10
525.6738582232578
 20
104.47611131154635
 10
525.3741569557438
 20
103.75256844685391
 10
525.2719344346111
 20
102.97611131154635
 10
525.3741569557438
 20
102.19965417623881
 10
525.6738582232578
 20
101.47611131154635
 10
526.1506140910515
 20
100.85479096798672
 10
526.1506140910515
 20
79.04007234222529
 10
525.6738582232578
 20
78.41875199866563
 10
525.3741569557438
 20
77.6952091339732
 10
525.2719344346111
 20
76.91875199866566
 10
525.3741569557438
 20
76.14229486335809
 10
525.6738582232578
 20
75.41875199866563
 10
526.1506140910515
 20
74.797431655106
 10
526.7719344346111
 20
74.32067578731234
 10
527.4954772993035
 20
74.02097451979843
 10
528.2719344346111
 20
73.91875199866563
 10
529.0483915699186
 20
74.02097451979843
 10
529.7719344346111
 20
74.32067578731234
 10
530.3932547781707
 20
74.797431655106
 10
540.2079734039322
 20
74.797431655106
 10
540.8292937474918
 20
74.32067578731234
 10
541.5528366121843
 20
74.02097451979843
 10
542.3292937474918
 20
73.91875199866563
 10
543.1057508827994
 20
74.02097451979843
 10
543.8292937474918
 20
74.32067578731234
 10
544.4506140910514
 20
74.797431655106
 10
544.9273699588451
 20
75.41875199866566
 10
545.227071226359
 20
76.14229486335809
 10
545.3292937474918
 20
76.91875199866566
 10
545.227071226359
 20
77.6952091339732
 10
544.9273699588451
 20
78.41875199866566
 10
544.4506140910514
 20
79.04007234222529
 10
544.4506140910514
 20
100.85479096798672
 10
544.9273699588451
 20
101.47611131154635
 10
545.227071226359
 20
102.19965417623881
 10
545.3292937474918
 20
102.97611131154635
 10
545.227071226359
 20
103.75256844685391
 10
544.9273699588451
 20
104.47611131154635
 10
544.4506140910514
 20
105.097431655106
 10
543.8292937474918
 20
105.57418752289966
 10
543.1057508827994
 20
105.87388879041357
 10
542.3292937474918
 20
105.97611131154638
 10
541.5528366121843
 20
105.87388879041357
 10
540.8292937474918
 20
105.57418752289966
 10
540.2079734039322
 20
105.097431655106
 10
530.3932547781707
 20
105.097431655106
  0
LWPOLYLINE
  5
93
330
17
100
AcDbEntity
  8
CUT_IN
100
AcDbPolyline
 90
53
 70
1
 10
107.31275820957647
 20
200.097431655106
 10
106.69143786601683
 20
200.5741875228997
 10
105.9678950013244
 20
200.87388879041356
 10
105.19143786601683
 20
200.9761113115464
 10
104.41498073070926
 20
200.87388879041356
 10
103.69143786601683
 20
200.5741875228997
 10
103.07011752245718
 20
200.097431655106
 10
102.59336165466351
 20
199.4761113115464
 10
102.29366038714963
 20
198.75256844685396
 10
102.19143786601683
 20
197.9761113115464
 10
102.29366038714963
 20
197.19965417623882
 10
102.59336165466351
 20
196.4761113115464
 10
103.07011752245718
 20
195.85479096798673
 10
103.07011752245718
 20
174.0400723422253
 10
102.59336165466351
 20
173.41875199866564
 10
102.29366038714963
 20
172.6952091339732
 10
102.19143786601683
 20
171.91875199866564
 10
102.29366038714963
 20
171.14229486335807
 10
102.59336165466351
 20
170.41875199866564
 10
103.07011752245718
 20
169.79743165510598
 10
103.69143786601683
 20
169.32067578731233
 10
104.41498073070927
 20
169.02097451979841
 10
105.19143786601683
 20
168.91875199866564
 10
105.9678950013244
 20
169.02097451979841
 10
106.69143786601683
 20
169.32067578731233
 10
107.31275820957647
 20
169.79743165510598
 10
117.1274768353379
 20
169.79743165510598
 10
117.74879717889755
 20
169.32067578731233
 10
118.47234004358998
 20
169.02097451979841
 10
119.24879717889755
 20
168.91875199866564
 10
120.02525431420511
 20
169.02097451979841
 10
120.74879717889755
 20
169.32067578731233
 10
121.37011752245719
 20
169.79743165510598
 10
121.84687339025086
 20
170.41875199866564
 10
122.14657465776475
 20
171.14229486335807
 10
122.24879717889755
 20
171.91875199866564
 10
122.14657465776475
 20
172.6952091339732
 10
121.84687339025086
 20
173.41875199866564
 10
121.37011752245719
 20
174.0400723422253
 10
121.37011752245719
 20
195.85479096798673
 10
121.84687339025086
 20
196.4761113115464
 10
122.14657465776475
 20
197.19965417623882
 10
122.24879717889755
 20
197.9761113115464
 10
122.14657465776475
 20
198.75256844685396
 10
121.84687339025086
 20
199.4761113115464
 10
121.37011752245719
 20
200.097431655106
 10
120.74879717889755
 20
200.5741875228997
 10
120.02525431420511
 20
200.87388879041356
 10
119.24879717889755
 20
200.9761113115464
 10
118.47234004358998
 20
200.87388879041356
 10
117.74879717889755
 20
200.5741875228997
 10
117.1274768353379
 20
200.097431655106
 10
107.31275820957647
 20
200.097431655106
  0
LWPOLYLINE
  5
94
330
17
100
AcDbEntity
  8
CUT_IN
100
AcDbPolyline
 90
53
 70
1
 10
530.3932547781707
 20
210.097431655106
 10
529.7719344346111
 20
210.5741875228997
 10
529.0483915699186
 20
210.87388879041356
 10
528.2719344346111
 20
210.9761113115464
 10
527.4954772993035
 20
210.87388879041356
 10
526.7719344346111
 20
210.5741875228997
 10
526.1506140910515
 20
210.097431655106
 10
525.6738582232578
 20
209.4761113115464
 10
525.3741569557438
 20
208.75256844685396
 10
525.2719344346111
 20
207.9761113115464
 10
525.3741569557438
 20
207.19965417623882
 10
525.6738582232578
 20
206.4761113115464
 10
526.1506140910515
 20
205.85479096798673
 10
526.1506140910515
 20
184.0400723422253
 10
525.6738582232578
 20
183.41875199866564
 10
525.3741569557438
 20
182.6952091339732
 10
525.2719344346111
 20
181.91875199866564
 10
525.3741569557438
 20
181.14229486335807
 10
525.6738582232578
 20
180.41875199866564
 10
526.1506140910515
 20
179.79743165510604
 10
526.7719344346111
 20
179.32067578731233
 10
527.4954772993035
 20
179.02097451979847
 10
528.2719344346111
 20
178.91875199866564
 10
529.0483915699186
 20
179.02097451979847
 10
529.7719344346111
 20
179.32067578731233
 10
530.3932547781707
 20
179.79743165510604
 10
540.2079734039322
 20
179.79743165510604
 10
540.8292937474918
 20
179.32067578731233
 10
541.5528366121843
 20
179.02097451979847
 10
542.3292937474918
 20
178.91875199866564
 10
543.1057508827994
 20
179.02097451979847
 10
543.8292937474918
 20
179.32067578731233
 10
544.4506140910514
 20
179.79743165510604
 10
544.9273699588451
 20
180.41875199866564
 10
545.227071226359
 20
181.14229486335807
 10
545.3292937474918
 20
181.91875199866564
 10
545.227071226359
 20
182.6952091339732
 10
544.9273699588451
 20
183.41875199866564
 10
544.4506140910514
 20
184.0400723422253
 10
544.4506140910514
 20
205.85479096798673
 10
544.9273699588451
 20
206.4761113115464
 10
545.227071226359
 20
207.19965417623882
 10
545.3292937474918
 20
207.9761113115464
 10
545.227071226359
 20
208.75256844685396
 10
544.9273699588451
 20
209.4761113115464
 10
544.4506140910514
 20
210.097431655106
 10
543.8292937474918
 20
210.5741875228997
 10
543.1057508827994
 20
210.87388879041356
 10
542.3292937474918
 20
210.9761113115464
 10
541.5528366121843
 20
210.87388879041356
 10
540.8292937474918
 20
210.5741875228997
 10
540.2079734039322
 20
210.097431655106
 10
530.3932547781707
 20
210.097431655106
  0
LWPOLYLINE
  5
95
330
17
100
AcDbEntity
  8
CUT_IN
100
AcDbPolyline
 90
55
 70
1
 10
50.11518886654142
 20
234.85479096798673
 10
50.11518886654143
 20
234.85479096798673
 10
50.5919447343351
 20
235.4761113115464
 10
50.89164600184899
 20
236.19965417623882
 10
50.993868522981785
 20
236.9761113115464
 10
50.89164600184898
 20
237.75256844685396
 10
50.5919447343351
 20
238.4761113115464
 10
50.11518886654142
 20
239.097431655106
 10
49.493868522981785
 20
239.5741875228997
 10
48.770325658289345
 20
239.87388879041356
 10
47.993868522981785
 20
239.9761113115464
 10
47.21741138767422
 20
239.87388879041356
 10
46.493868522981785
 20
239.5741875228997
 10
45.87254817942214
 20
239.097431655106
 10
24.05782955366071
 20
239.097431655106
 10
23.436509210101065
 20
239.5741875228997
 10
22.712966345408628
 20
239.87388879041356
 10
21.936509210101065
 20
239.9761113115464
 10
21.1600520747935
 20
239.87388879041356
 10
20.436509210101065
 20
239.5741875228997
 10
19.815188866541423
 20
239.097431655106
 10
19.33843299874775
 20
238.4761113115464
 10
19.03873173123386
 20
237.75256844685396
 10
18.936509210101065
 20
236.9761113115464
 10
19.03873173123386
 20
236.19965417623882
 10
19.33843299874775
 20
235.4761113115464
 10
19.815188866541426
 20
234.85479096798673
 10
19.815188866541426
 20
225.0400723422253
 10
19.815188866541423
 20
225.0400723422253
 10
19.33843299874775
 20
224.41875199866564
 10
19.03873173123386
 20
223.6952091339732
 10
18.936509210101065
 20
222.91875199866564
 10
19.03873173123386
 20
222.14229486335807
 10
19.33843299874775
 20
221.41875199866564
 10
19.815188866541426
 20
220.79743165510604
 10
20.436509210101065
 20
220.32067578731233
 10
21.160052074793505
 20
220.02097451979847
 10
21.936509210101065
 20
219.91875199866564
 10
22.71296634540863
 20
220.02097451979847
 10
23.436509210101065
 20
220.32067578731233
 10
24.05782955366071
 20
220.79743165510604
 10
45.87254817942214
 20
220.79743165510604
 10
46.493868522981785
 20
220.32067578731233
 10
47.21741138767422
 20
220.02097451979847
 10
47.993868522981785
 20
219.91875199866564
 10
48.770325658289345
 20
220.02097451979847
 10
49.493868522981785
 20
220.32067578731233
 10
50.11518886654143
 20
220.79743165510604
 10
50.5919447343351
 20
221.41875199866564
 10
50.89164600184899
 20
222.14229486335807
 10
50.993868522981785
 20
222.91875199866564
 10
50.89164600184898
 20
223.6952091339732
 10
50.5919447343351
 20
224.41875199866564
 10
50.11518886654142
 20
225.0400723422253
 10
50.11518886654142
 20
234.85479096798673
  0
LWPOLYLINE
  5
96
330
17
100
AcDbEntity
  8
CUT_IN
100
AcDbPolyline
 90
53
 70
1
 10
337.3701175224572
 20
234.85479096798673
 10
337.8468733902509
 20
235.4761113115464
 10
338.14657465776475
 20
236.19965417623882
 10
338.2487971788976
 20
236.9761113115464
 10
338.14657465776475
 20
237.75256844685396
 10
337.8468733902509
 20
238.4761113115464
 10
337.3701175224572
 20
239.097431655106
 10
336.7487971788976
 20
239.5741875228997
 10
336.02525431420514
 20
239.87388879041356
 10
335.2487971788976
 20
239.9761113115464
 10
334.47234004359
 20
239.87388879041356
 10
333.7487971788976
 20
239.5741875228997
 10
333.1274768353379
 20
239.097431655106
 10
311.3127582095765
 20
239.097431655106
 10
310.6914378660168
 20
239.5741875228997
 10
309.9678950013244
 20
239.87388879041356
 10
309.1914378660168
 20
239.9761113115464
 10
308.41498073070926
 20
239.87388879041356
 10
307.6914378660168
 20
239.5741875228997
 10
307.0701175224572
 20
239.097431655106
 10
306.5933616546635
 20
238.4761113115464
 10
306.29366038714966
 20
237.75256844685396
 10
306.1914378660168
 20
236.9761113115464
 10
306.29366038714966
 20
236.19965417623882
 10
306.5933616546635
 20
235.4761113115464
 10
307.0701175224572
 20
234.85479096798673
 10
307.0701175224572
 20
225.0400723422253
 10
306.5933616546635
 20
224.41875199866564
 10
306.29366038714966
 20
223.6952091339732
 10
306.1914378660168
 20
222.91875199866564
 10
306.29366038714966
 20
222.14229486335807
 10
306.5933616546635
 20
221.41875199866564
 10
307.0701175224572
 20
220.79743165510604
 10
307.6914378660168
 20
220.32067578731233
 10
308.41498073070926
 20
220.02097451979847
 10
309.1914378660168
 20
219.91875199866564
 10
309.9678950013244
 20
220.02097451979847
 10
310.6914378660168
 20
220.32067578731233
 10
311.3127582095765
 20
220.79743165510604
 10
333.1274768353379
 20
220.79743165510604
 10
333.7487971788976
 20
220.32067578731233
 10
334.47234004359
 20
220.02097451979847
 10
335.2487971788976
 20
219.91875199866564
 10
336.02525431420514
 20
220.02097451979847
 10
336.7487971788976
 20
220.32067578731233
 10
337.3701175224572
 20
220.79743165510604
 10
337.8468733902509
 20
221.41875199866564
 10
338.14657465776475
 20
222.14229486335807
 10
338.2487971788976
 20
222.91875199866564
 10
338.14657465776475
 20
223.6952091339732
 10
337.8468733902509
 20
224.41875199866564
 10
337.3701175224572
 20
225.0400723422253
 10
337.3701175224572
 20
234.85479096798673
  0
LWPOLYLINE
  5
97
330
17
100
AcDbEntity
  8
CUT_IN
100
AcDbPolyline
 90
53
 70
1
 10
573.8451257621844
 20
234.85479096798673
 10
574.3218816299781
 20
235.4761113115464
 10
574.621582897492
 20
236.19965417623882
 10
574.7238054186247
 20
236.9761113115464
 10
574.621582897492
 20
237.75256844685396
 10
574.3218816299781
 20
238.4761113115464
 10
573.8451257621844
 20
239.097431655106
 10
573.2238054186247
 20
239.5741875228997
 10
572.5002625539323
 20
239.87388879041356
 10
571.7238054186247
 20
239.9761113115464
 10
570.9473482833172
 20
239.87388879041356
 10
570.2238054186247
 20
239.5741875228997
 10
569.6024850750651
 20
239.097431655106
 10
547.7877664493036
 20
239.097431655106
 10
547.1664461057441
 20
239.5741875228997
 10
546.4429032410516
 20
239.87388879041356
 10
545.6664461057441
 20
239.9761113115464
 10
544.8899889704364
 20
239.87388879041356
 10
544.1664461057441
 20
239.5741875228997
 10
543.5451257621844
 20
239.097431655106
 10
543.0683698943907
 20
238.4761113115464
 10
542.7686686268768
 20
237.75256844685396
 10
542.6664461057441
 20
236.9761113115464
 10
542.7686686268768
 20
236.19965417623882
 10
543.0683698943907
 20
235.4761113115464
 10
543.5451257621844
 20
234.85479096798673
 10
543.5451257621844
 20
225.0400723422253
 10
543.0683698943907
 20
224.41875199866564
 10
542.7686686268768
 20
223.6952091339732
 10
542.6664461057441
 20
222.91875199866564
 10
542.7686686268768
 20
222.14229486335807
 10
543.0683698943907
 20
221.41875199866564
 10
543.5451257621844
 20
220.79743165510604
 10
544.1664461057441
 20
220.32067578731233
 10
544.8899889704364
 20
220.02097451979847
 10
545.6664461057441
 20
219.91875199866564
 10
546.4429032410516
 20
220.02097451979847
 10
547.1664461057441
 20
220.32067578731233
 10
547.7877664493036
 20
220.79743165510604
 10
569.6024850750651
 20
220.79743165510604
 10
570.2238054186247
 20
220.32067578731233
 10
570.9473482833172
 20
220.02097451979847
 10
571.7238054186247
 20
219.91875199866564
 10
572.5002625539323
 20
220.02097451979847
 10
573.2238054186247
 20
220.32067578731233
 10
573.8451257621844
 20
220.79743165510604
 10
574.3218816299781
 20
221.41875199866564
 10
574.621582897492
 20
222.14229486335807
 10
574.7238054186247
 20
222.91875199866564
 10
574.621582897492
 20
223.6952091339732
 10
574.3218816299781
 20
224.41875199866564
 10
573.8451257621844
 20
225.0400723422253
 10
573.8451257621844
 20
234.85479096798673
  0
LWPOLYLINE
  5
98
330
17
100
AcDbEntity
  8
CUT_IN
100
AcDbPolyline
 90
53
 70
1
 10
278.33192949314014
 20
51.93953925987542
 10
281.2640968542831
 20
53.386191721955484
 10
283.98239222155297
 20
55.203133954409125
 10
286.44032009309313
 20
57.35928778892564
 10
288.59583846298693
 20
59.817772960092
 10
290.41207793522375
 20
62.53653792957415
 10
291.8579723619634
 20
65.46907916313212
 10
292.90879021924695
 20
68.56523655748539
 10
293.54655763115846
 20
71.77205141152639
 10
293.76036580675435
 20
75.03467226658184
 10
293.76036580675435
 20
171.94743165510602
 10
293.54648734109963
 20
175.21058646060732
 10
292.90851146398103
 20
178.41790778266903
 10
291.8573541195365
 20
181.51451746423328
 10
290.4110009013653
 20
184.44743165510602
 10
288.5941993140352
 20
187.16646738032404
 10
286.43803533641807
 20
189.62510118476968
 10
283.97940153197237
 20
191.7812651623869
 10
281.26036580675435
 20
193.59806674971696
 10
278.3274516158816
 20
195.0444199678882
 10
275.23084193431737
 20
196.0955773123327
 10
272.02352061225565
 20
196.7335531894513
 10
268.76036580675435
 20
196.94743165510602
 10
167.2201175224572
 20
196.94743165510602
 10
163.9569627169559
 20
196.7335531894513
 10
160.74964139489418
 20
196.0955773123327
 10
157.65303171332994
 20
195.0444199678882
 10
154.7201175224572
 20
193.59806674971696
 10
152.00108179723918
 20
191.7812651623869
 10
149.54244799279348
 20
189.62510118476973
 10
147.38628401517633
 20
187.16646738032404
 10
145.5694824278462
 20
184.44743165510602
 10
144.12312920967503
 20
181.51451746423328
 10
143.07197186523047
 20
178.41790778266903
 10
142.43399598811192
 20
175.21058646060732
 10
142.2201175224572
 20
171.94743165510602
 10
142.2201175224572
 20
75.00842335865339
 10
142.4340662896733
 20
71.7447346042206
 10
143.0722506653221
 20
68.53690682463481
 10
144.12374754856944
 20
65.4398448838068
 10
145.57055962246324
 20
62.50655778847509
 10
147.3879233942352
 20
59.78725139127464
 10
149.54473304480098
 20
57.328469072314576
 10
152.004072832892
 20
55.17229510727442
 10
154.72384894124195
 20
53.355634357092114
 10
157.6575099502121
 20
51.90958060800371
 10
160.75484360729854
 20
50.85888437336489
 10
163.96283625509392
 20
50.22152926630521
 10
167.2265802078196
 20
50.00842419397945
 10
268.76682849211676
 20
50.0346731019079
 10
272.0293939671594
 20
50.24932468204152
 10
275.2360438464463
 20
50.88792105806
 10
278.33192949314014
 20
51.93953925987542
  0
LWPOLYLINE
  5
99
330
17
100
AcDbEntity
  8
CUT_IN
100
AcDbPolyline
 90
61
 70
1
 10
505.1241206516981
 20
83.85603157182429
 10
505.3006140910515
 20
86.82141890462522
 10
505.3006140910515
 20
171.94743165510602
 10
505.0867356253968
 20
175.21058646060732
 10
504.4487597482782
 20
178.41790778266903
 10
503.3976024038337
 20
181.51451746423328
 10
501.95124918566245
 20
184.44743165510602
 10
500.1344475983324
 20
187.16646738032404
 10
497.9782836207152
 20
189.62510118476968
 10
495.5196498162695
 20
191.7812651623869
 10
492.8006140910515
 20
193.59806674971696
 10
489.86769990017876
 20
195.0444199678882
 10
486.7710902186145
 20
196.0955773123327
 10
483.5637688965528
 20
196.7335531894513
 10
480.3006140910515
 20
196.94743165510602
 10
378.76036580675435
 20
196.94743165510602
 10
375.49721100125305
 20
196.7335531894513
 10
372.28988967919133
 20
196.0955773123327
 10
369.1932799976271
 20
195.0444199678882
 10
366.26036580675435
 20
193.59806674971696
 10
363.54133008153633
 20
191.7812651623869
 10
361.0826962770907
 20
189.62510118476973
 10
358.9265322994735
 20
187.16646738032404
 10
357.1097307121434
 20
184.44743165510602
 10
355.6633774939722
 20
181.51451746423328
 10
354.6122201495277
 20
178.41790778266903
 10
353.97424427240907
 20
175.21058646060732
 10
353.76036580675435
 20
171.94743165510602
 10
353.76036580675435
 20
75.06310808312666
 10
353.97431457397045
 20
71.79941932869387
 10
354.61249894961924
 20
68.59159154910809
 10
355.66399583286665
 20
65.49452960828008
 10
357.1108079067604
 20
62.56124251294834
 10
358.92817167853235
 20
59.84193611574791
 10
361.0849813290982
 20
57.38315379678782
 10
363.54432111718916
 20
55.2269798317477
 10
366.26409722553916
 20
53.41031908156536
 10
369.1977582345093
 20
51.964265332476984
 10
372.29509189159575
 20
50.91356909783816
 10
375.5030845393911
 20
50.27621399077849
 10
378.7668284921168
 20
50.06310891845273
 10
435.7516563071825
 20
50.077839919449005
 10
436.5017729860709
 20
50.08928995325924
 10
449.38473341921394
 20
50.479347893923645
 10
450.5839740519258
 20
50.544519080787055
 10
462.71531753193847
 20
51.49650577462698
 10
464.0533050224732
 20
51.63781697197949
 10
475.5982883540643
 20
53.17227141960022
 10
477.1264673297424
 20
53.423776685740634
 10
482.18935168926726
 20
54.41899075231025
 10
485.26943269336874
 20
55.23126119525334
 10
488.22122606895573
 20
56.42859077901322
 10
490.9968103608411
 20
57.99154122702659
 10
493.55112481397265
 20
59.894738520748106
 10
495.84270092089605
 20
62.107284839016685
 10
497.8343356501849
 20
64.59326017465385
 10
499.4936954261838
 20
67.31230548470346
 10
500.793841054638
 20
70.22027790704816
 10
503.72708991959774
 20
78.09214457885575
 10
504.5971323283686
 20
80.93251395177386
 10
505.1241206516981
 20
83.85603157182429
  0
LWPOLYLINE
  5
9A
330
17
100
AcDbEntity
  8
CUT_IN
100
AcDbPolyline
 90
53
 70
1
 10
272.02352061225565
 20
263.16131012076073
 10
275.23084193431737
 20
263.79928599787934
 10
278.3274516158816
 20
264.85044334232384
 10
281.26036580675435
 20
266.29679656049507
 10
283.97940153197237
 20
268.11359814782514
 10
286.43803533641807
 20
270.26976212544236
 10
288.5941993140352
 20
272.728395929888
 10
290.4110009013653
 20
275.447431655106
 10
291.8573541195365
 20
278.38034584597875
 10
292.90851146398103
 20
281.476955527543
 10
293.54648734109963
 20
284.6842768496047
 10
293.76036580675435
 20
287.947431655106
 10
293.76036580675435
 20
451.947431655106
 10
293.54648734109963
 20
455.21058646060726
 10
292.90851146398103
 20
458.4179077826691
 10
291.8573541195365
 20
461.5145174642332
 10
290.4110009013653
 20
464.447431655106
 10
288.5941993140352
 20
467.166467380324
 10
286.43803533641807
 20
469.62510118476973
 10
283.97940153197237
 20
471.78126516238694
 10
281.26036580675435
 20
473.59806674971696
 10
278.3274516158816
 20
475.0444199678882
 10
275.23084193431737
 20
476.0955773123327
 10
272.02352061225565
 20
476.7335531894513
 10
268.76036580675435
 20
476.947431655106
 10
167.2201175224572
 20
476.947431655106
 10
163.9569627169559
 20
476.7335531894513
 10
160.74964139489418
 20
476.0955773123327
 10
157.65303171332994
 20
475.0444199678882
 10
154.7201175224572
 20
473.59806674971696
 10
152.00108179723918
 20
471.78126516238694
 10
149.54244799279348
 20
469.62510118476973
 10
147.38628401517633
 20
467.1664673803241
 10
145.5694824278462
 20
464.447431655106
 10
144.12312920967503
 20
461.5145174642332
 10
143.07197186523047
 20
458.4179077826691
 10
142.43399598811192
 20
455.21058646060726
 10
142.2201175224572
 20
451.947431655106
 10
142.2201175224572
 20
287.947431655106
 10
142.43399598811192
 20
284.6842768496047
 10
143.07197186523047
 20
281.476955527543
 10
144.12312920967503
 20
278.38034584597875
 10
145.5694824278462
 20
275.447431655106
 10
147.38628401517633
 20
272.728395929888
 10
149.54244799279348
 20
270.26976212544236
 10
152.00108179723918
 20
268.11359814782514
 10
154.7201175224572
 20
266.29679656049507
 10
157.65303171332994
 20
264.85044334232384
 10
160.74964139489418
 20
263.79928599787934
 10
163.9569627169559
 20
263.16131012076073
 10
167.2201175224572
 20
262.947431655106
 10
268.76036580675435
 20
262.947431655106
 10
272.02352061225565
 20
263.16131012076073
  0
LWPOLYLINE
  5
9B
330
17
100
AcDbEntity
  8
CUT_IN
100
AcDbPolyline
 90
53
 70
1
 10
378.76036580675435
 20
476.947431655106
 10
375.49721100125305
 20
476.7335531894513
 10
372.28988967919133
 20
476.0955773123327
 10
369.1932799976271
 20
475.0444199678882
 10
366.26036580675435
 20
473.59806674971696
 10
363.54133008153633
 20
471.78126516238694
 10
361.0826962770907
 20
469.62510118476973
 10
358.9265322994735
 20
467.1664673803241
 10
357.1097307121434
 20
464.447431655106
 10
355.6633774939722
 20
461.5145174642332
 10
354.6122201495277
 20
458.4179077826691
 10
353.97424427240907
 20
455.21058646060726
 10
353.76036580675435
 20
451.947431655106
 10
353.76036580675435
 20
287.947431655106
 10
353.97424427240907
 20
284.6842768496047
 10
354.6122201495277
 20
281.476955527543
 10
355.6633774939722
 20
278.38034584597875
 10
357.1097307121434
 20
275.447431655106
 10
358.9265322994735
 20
272.728395929888
 10
361.08269627709063
 20
270.26976212544236
 10
363.54133008153633
 20
268.11359814782514
 10
366.26036580675435
 20
266.29679656049507
 10
369.1932799976271
 20
264.85044334232384
 10
372.28988967919133
 20
263.79928599787934
 10
375.49721100125305
 20
263.16131012076073
 10
378.76036580675435
 20
262.947431655106
 10
480.3006140910515
 20
262.947431655106
 10
483.5637688965528
 20
263.16131012076073
 10
486.7710902186145
 20
263.79928599787934
 10
489.86769990017876
 20
264.85044334232384
 10
492.8006140910515
 20
266.29679656049507
 10
495.5196498162695
 20
268.11359814782514
 10
497.9782836207152
 20
270.26976212544236
 10
500.1344475983324
 20
272.728395929888
 10
501.95124918566245
 20
275.447431655106
 10
503.3976024038337
 20
278.38034584597875
 10
504.4487597482782
 20
281.476955527543
 10
505.0867356253968
 20
284.6842768496047
 10
505.3006140910515
 20
287.947431655106
 10
505.3006140910515
 20
451.947431655106
 10
505.0867356253968
 20
455.21058646060726
 10
504.4487597482782
 20
458.4179077826691
 10
503.3976024038337
 20
461.5145174642332
 10
501.95124918566245
 20
464.447431655106
 10
500.1344475983324
 20
467.166467380324
 10
497.9782836207152
 20
469.62510118476973
 10
495.5196498162695
 20
471.78126516238694
 10
492.8006140910515
 20
473.59806674971696
 10
489.86769990017876
 20
475.0444199678882
 10
486.7710902186145
 20
476.0955773123327
 10
483.5637688965528
 20
476.7335531894513
 10
480.3006140910515
 20
476.947431655106
 10
378.76036580675435
 20
476.947431655106
  0
TEXT
  5
9C
330
17
100
AcDbEntity
  8
TEXT
100
AcDbText
 10
77.32932387137932
 20
271.4990790276652
 30
0.0
 40
10.0
  1
Б
 72
1
 11
77.32932387137932
 21
271.4990790276652
 31
0.0
100
AcDbText
 73
2
  0
TEXT
  5
9D
330
17
100
AcDbEntity
  8
TEXT
100
AcDbText
 10
0.0
 20
-20.0
 30
0.0
 40
8.0
  1
Б Боковина (лекало подлокотника и стенка короба); Фанера берёзовая ФК 18 мм; 2 шт.
 11
0.0
 21
-20.0
 31
0.0
100
AcDbText
  0
ENDSEC
  0
SECTION
  2
OBJECTS
  0
DICTIONARY
  5
A
330
0
100
AcDbDictionary
281
1
  3
ACAD_COLOR
350
B
  3
ACAD_GROUP
350
C
  3
ACAD_LAYOUT
350
D
  3
ACAD_MATERIAL
350
E
  3
ACAD_MLEADERSTYLE
350
F
  3
ACAD_MLINESTYLE
350
10
  3
ACAD_PLOTSETTINGS
350
11
  3
ACAD_PLOTSTYLENAME
350
12
  3
ACAD_SCALELIST
350
14
  3
ACAD_TABLESTYLE
350
15
  3
ACAD_VISUALSTYLE
350
16
  3
EZDXF_META
350
2D
  0
DICTIONARY
  5
B
330
A
100
AcDbDictionary
281
1
  0
DICTIONARY
  5
C
330
A
100
AcDbDictionary
281
1
  0
DICTIONARY
  5
D
330
A
100
AcDbDictionary
281
1
  3
Model
350
1A
  3
Layout1
350
1E
  0
DICTIONARY
  5
E
330
A
100
AcDbDictionary
281
1
  3
ByBlock
350
1F
  3
ByLayer
350
20
  3
Global
350
21
  0
DICTIONARY
  5
F
330
A
100
AcDbDictionary
281
1
  3
Standard
350
2C
  0
DICTIONARY
  5
10
330
A
100
AcDbDictionary
281
1
  3
Standard
350
22
  0
DICTIONARY
  5
11
330
A
100
AcDbDictionary
281
1
  0
ACDBDICTIONARYWDFLT
  5
12
330
A
100
AcDbDictionary
281
1
  3
Normal
350
13
100
AcDbDictionaryWithDefault
340
13
  0
ACDBPLACEHOLDER
  5
13
330
12
  0
DICTIONARY
  5
14
330
A
100
AcDbDictionary
281
1
  0
DICTIONARY
  5
15
330
A
100
AcDbDictionary
281
1
  0
DICTIONARY
  5
16
330
A
100
AcDbDictionary
281
1
  3
2dWireframe
350
5A
  3
Basic
350
5B
  3
Brighten
350
5C
  3
ColorChange
350
5D
  3
Conceptual
350
5E
  3
Dim
350
5F
  3
EdgeColorOff
350
60
  3
Facepattern
350
61
  3
Flat
350
62
  3
FlatWithEdges
350
63
  3
Gouraud
350
64
  3
GouraudWithEdges
350
65
  3
Hidden
350
66
  3
JitterOff
350
67
  3
Linepattern
350
68
  3
Modeling
350
69
  3
OverhangOff
350
6A
  3
Realistic
350
6B
  3
Shaded
350
6C
  3
Shaded with edges
350
6D
  3
Shades of Gray
350
6E
  3
Sketchy
350
6F
  3
Thicken
350
70
  3
Wireframe
350
71
  3
X-Ray
350
72
  0
LAYOUT
  5
1A
330
D
100
AcDbPlotSettings
  1

  4
A3
  6

 40
7.5
 41
20.0
 42
7.5
 43
20.0
 44
420.0
 45
297.0
 46
0.0
 47
0.0
 48
0.0
 49
0.0
140
0.0
141
0.0
142
1.0
143
1.0
 70
1024
 72
1
 73
0
 74
5
  7

 75
16
 76
0
 77
2
 78
300
147
1.0
148
0.0
149
0.0
100
AcDbLayout
  1
Model
 70
1
 71
0
 10
0.0
 20
0.0
 11
420.0
 21
297.0
 12
0.0
 22
0.0
 32
0.0
 14
1e+20
 24
1e+20
 34
1e+20
 15
-1e+20
 25
-1e+20
 35
-1e+20
146
0.0
 13
0.0
 23
0.0
 33
0.0
 16
1.0
 26
0.0
 36
0.0
 17
0.0
 27
1.0
 37
0.0
 76
1
330
17
  0
LAYOUT
  5
1E
330
D
100
AcDbPlotSettings
  1

  4
A3
  6

 40
7.5
 41
20.0
 42
7.5
 43
20.0
 44
420.0
 45
297.0
 46
0.0
 47
0.0
 48
0.0
 49
0.0
140
0.0
141
0.0
142
1.0
143
1.0
 70
0
 72
1
 73
0
 74
5
  7

 75
16
 76
0
 77
2
 78
300
147
1.0
148
0.0
149
0.0
100
AcDbLayout
  1
Layout1
 70
1
 71
1
 10
0.0
 20
0.0
 11
420.0
 21
297.0
 12
0.0
 22
0.0
 32
0.0
 14
1e+20
 24
1e+20
 34
1e+20
 15
-1e+20
 25
-1e+20
 35
-1e+20
146
0.0
 13
0.0
 23
0.0
 33
0.0
 16
1.0
 26
0.0
 36
0.0
 17
0.0
 27
1.0
 37
0.0
 76
1
330
1B
  0
MATERIAL
  5
1F
102
{ACAD_REACTORS
330
E
102
}
330
E
100
AcDbMaterial
  1
ByBlock
  2

 70
0
 40
1.0
 71
1
 41
1.0
 91
-1023410177
 42
1.0
 72
1
  3

 73
1
 74
1
 75
1
 44
0.5
 73
0
 45
1.0
 46
1.0
 77
1
  4

 78
1
 79
1
170
1
 48
1.0
171
1
  6

172
1
173
1
174
1
140
1.0
141
1.0
175
1
  7

176
1
177
1
178
1
143
1.0
179
1
  8

270
1
271
1
272
1
145
1.0
146
1.0
273
1
  9

274
1
275
1
276
1
 42
1.0
 72
1
  3

 73
1
 74
1
 75
1
 94
63
  0
MATERIAL
  5
20
102
{ACAD_REACTORS
330
E
102
}
330
E
100
AcDbMaterial
  1
ByLayer
  2

 70
0
 40
1.0
 71
1
 41
1.0
 91
-1023410177
 42
1.0
 72
1
  3

 73
1
 74
1
 75
1
 44
0.5
 73
0
 45
1.0
 46
1.0
 77
1
  4

 78
1
 79
1
170
1
 48
1.0
171
1
  6

172
1
173
1
174
1
140
1.0
141
1.0
175
1
  7

176
1
177
1
178
1
143
1.0
179
1
  8

270
1
271
1
272
1
145
1.0
146
1.0
273
1
  9

274
1
275
1
276
1
 42
1.0
 72
1
  3

 73
1
 74
1
 75
1
 94
63
  0
MATERIAL
  5
21
102
{ACAD_REACTORS
330
E
102
}
330
E
100
AcDbMaterial
  1
Global
  2

 70
0
 40
1.0
 71
1
 41
1.0
 91
-1023410177
 42
1.0
 72
1
  3

 73
1
 74
1
 75
1
 44
0.5
 73
0
 45
1.0
 46
1.0
 77
1
  4

 78
1
 79
1
170
1
 48
1.0
171
1
  6

172
1
173
1
174
1
140
1.0
141
1.0
175
1
  7

176
1
177
1
178
1
143
1.0
179
1
  8

270
1
271
1
272
1
145
1.0
146
1.0
273
1
  9

274
1
275
1
276
1
 42
1.0
 72
1
  3

 73
1
 74
1
 75
1
 94
63
  0
MLINESTYLE
  5
22
102
{ACAD_REACTORS
330
10
102
}
330
10
100
AcDbMlineStyle
  2
Standard
 70
0
  3

 62
256
 51
90.0
 52
90.0
 71
2
 49
0.5
 62
256
  6
BYLAYER
 49
-0.5
 62
256
  6
BYLAYER
  0
MLEADERSTYLE
  5
2C
102
{ACAD_REACTORS
330
F
102
}
330
F
100
AcDbMLeaderStyle
179
2
170
2
171
1
172
0
 90
2
 40
0.0
 41
0.0
173
1
 91
-1056964608
 92
-2
290
1
 42
2.0
291
1
 43
8.0
  3
Standard
 44
4.0
300

342
29
174
1
175
1
176
0
178
1
 93
-1056964608
 45
4.0
292
0
297
0
 46
4.0
 94
-1056964608
 47
1.0
 49
1.0
140
1.0
294
1
141
0.0
177
0
142
1.0
295
0
296
0
143
3.75
271
0
272
9
273
9
  0
DICTIONARY
  5
2D
330
A
100
AcDbDictionary
280
1
281
1
  3
CREATED_BY_EZDXF
350
2E
  3
WRITTEN_BY_EZDXF
350
A0
  0
DICTIONARYVAR
  5
2E
330
2D
100
DictionaryVariables
280
0
  1
1.4.4 @ 2026-09-30T16:32:38.902541+00:00
  0
VISUALSTYLE
  5
5A
102
{ACAD_REACTORS
330
16
102
}
330
16
100
AcDbVisualStyle
  2
2dWireframe
 70
4
 90
0
 40
0.6
 62
7
290
0
291
0
  0
VISUALSTYLE
  5
5B
102
{ACAD_REACTORS
330
16
102
}
330
16
100
AcDbVisualStyle
  2
Basic
 70
7
 90
1
 40
0.6
 62
7
290
0
291
1
  0
VISUALSTYLE
  5
5C
102
{ACAD_REACTORS
330
16
102
}
330
16
100
AcDbVisualStyle
  2
Brighten
 70
12
 90
2
 40
0.6
 62
7
290
0
291
1
  0
VISUALSTYLE
  5
5D
102
{ACAD_REACTORS
330
16
102
}
330
16
100
AcDbVisualStyle
  2
ColorChange
 70
16
 90
2
 40
0.6
 62
8
290
0
291
1
  0
VISUALSTYLE
  5
5E
102
{ACAD_REACTORS
330
16
102
}
330
16
100
AcDbVisualStyle
  2
Conceptual
 70
9
 90
3
 40
0.6
 62
7
290
0
291
0
  0
VISUALSTYLE
  5
5F
102
{ACAD_REACTORS
330
16
102
}
330
16
100
AcDbVisualStyle
  2
Dim
 70
11
 90
2
 40
0.6
 62
7
290
0
291
1
  0
VISUALSTYLE
  5
60
102
{ACAD_REACTORS
330
16
102
}
330
16
100
AcDbVisualStyle
  2
EdgeColorOff
 70
22
 90
2
 40
0.6
 62
7
290
0
291
1
  0
VISUALSTYLE
  5
61
102
{ACAD_REACTORS
330
16
102
}
330
16
100
AcDbVisualStyle
  2
Facepattern
 70
15
 90
2
 40
0.6
 62
7
290
0
291
1
  0
VISUALSTYLE
  5
62
102
{ACAD_REACTORS
330
16
102
}
330
16
100
AcDbVisualStyle
  2
Flat
 70
0
 90
2
 40
0.6
 62
7
290
0
291
1
  0
VISUALSTYLE
  5
63
102
{ACAD_REACTORS
330
16
102
}
330
16
100
AcDbVisualStyle
  2
FlatWithEdges
 70
1
 90
2
 40
0.6
 62
7
290
0
291
1
  0
VISUALSTYLE
  5
64
102
{ACAD_REACTORS
330
16
102
}
330
16
100
AcDbVisualStyle
  2
Gouraud
 70
2
 90
2
 40
0.6
 62
7
290
0
291
1
  0
VISUALSTYLE
  5
65
102
{ACAD_REACTORS
330
16
102
}
330
16
100
AcDbVisualStyle
  2
GouraudWithEdges
 70
3
 90
2
 40
0.6
 62
7
290
0
291
1
  0
VISUALSTYLE
  5
66
102
{ACAD_REACTORS
330
16
102
}
330
16
100
AcDbVisualStyle
  2
Hidden
 70
6
 90
1
 40
0.6
 62
7
290
0
291
0
  0
VISUALSTYLE
  5
67
102
{ACAD_REACTORS
330
16
102
}
330
16
100
AcDbVisualStyle
  2
JitterOff
 70
20
 90
2
 40
0.6
 62
7
290
0
291
1
  0
VISUALSTYLE
  5
68
102
{ACAD_REACTORS
330
16
102
}
330
16
100
AcDbVisualStyle
  2
Linepattern
 70
14
 90
2
 40
0.6
 62
7
290
0
291
1
  0
VISUALSTYLE
  5
69
102
{ACAD_REACTORS
330
16
102
}
330
16
100
AcDbVisualStyle
  2
Modeling
 70
10
 90
2
 40
0.6
 62
7
290
0
291
0
  0
VISUALSTYLE
  5
6A
102
{ACAD_REACTORS
330
16
102
}
330
16
100
AcDbVisualStyle
  2
OverhangOff
 70
21
 90
2
 40
0.6
 62
7
290
0
291
1
  0
VISUALSTYLE
  5
6B
102
{ACAD_REACTORS
330
16
102
}
330
16
100
AcDbVisualStyle
  2
Realistic
 70
8
 90
2
 40
0.6
 62
7
290
0
291
0
  0
VISUALSTYLE
  5
6C
102
{ACAD_REACTORS
330
16
102
}
330
16
100
AcDbVisualStyle
  2
Shaded
 70
27
 90
2
 40
0.6
 62
7
290
0
291
0
  0
VISUALSTYLE
  5
6D
102
{ACAD_REACTORS
330
16
102
}
330
16
100
AcDbVisualStyle
  2
Shaded with edges
 70
26
 90
2
 40
0.6
 62
7
290
0
291
0
  0
VISUALSTYLE
  5
6E
102
{ACAD_REACTORS
330
16
102
}
330
16
100
AcDbVisualStyle
  2
Shades of Gray
 70
23
 90
2
 40
0.6
 62
7
290
0
291
0
  0
VISUALSTYLE
  5
6F
102
{ACAD_REACTORS
330
16
102
}
330
16
100
AcDbVisualStyle
  2
Sketchy
 70
24
 90
1
 40
0.6
 62
7
290
0
291
0
  0
VISUALSTYLE
  5
70
102
{ACAD_REACTORS
330
16
102
}
330
16
100
AcDbVisualStyle
  2
Thicken
 70
13
 90
2
 40
0.6
 62
7
290
0
291
1
  0
VISUALSTYLE
  5
71
102
{ACAD_REACTORS
330
16
102
}
330
16
100
AcDbVisualStyle
  2
Wireframe
 70
5
 90
0
 40
0.6
 62
7
290
0
291
0
  0
VISUALSTYLE
  5
72
102
{ACAD_REACTORS
330
16
102
}
330
16
100
AcDbVisualStyle
  2
X-Ray
 70
25
 90
2
 40
0.5
 62
7
290
0
291
0
  0
DICTIONARYVAR
  5
A0
330
2D
100
DictionaryVariables
280
0
  1
1.4.4 @ 2026-09-30T16:32:38.909829+00:00
  0
ENDSEC
  0
EOF
