  0
SECTION
  2
HEADER
  9
$ACADVER
  1
AC1024
  9
$ACADMAINTVER
 70
6
  9
$DWGCODEPAGE
  3
ANSI_1252
  9
$LASTSAVEDBY
  1
ezdxf
  9
$INSBASE
 10
0.0
 20
0.0
 30
0.0
  9
$EXTMIN
 10
1e+20
 20
1e+20
 30
1e+20
  9
$EXTMAX
 10
-1e+20
 20
-1e+20
 30
-1e+20
  9
$LIMMIN
 10
0.0
 20
0.0
  9
$LIMMAX
 10
420.0
 20
297.0
  9
$ORTHOMODE
 70
0
  9
$REGENMODE
 70
1
  9
$FILLMODE
 70
1
  9
$QTEXTMODE
 70
0
  9
$MIRRTEXT
 70
1
  9
$LTSCALE
 40
1.0
  9
$ATTMODE
 70
1
  9
$TEXTSIZE
 40
2.5
  9
$TRACEWID
 40
1.0
  9
$TEXTSTYLE
  7
OpenSans
  9
$CLAYER
  8
0
  9
$CELTYPE
  6
ByLayer
  9
$CECOLOR
 62
256
  9
$CELTSCALE
 40
1.0
  9
$DISPSILH
 70
0
  9
$DIMSCALE
 40
1.0
  9
$DIMASZ
 40
0.175
  9
$DIMEXO
 40
0.125
  9
$DIMDLI
 40
3.75
  9
$DIMRND
 40
0.0
  9
$DIMDLE
 40
0.0
  9
$DIMEXE
 40
0.375
  9
$DIMTP
 40
0.0
  9
$DIMTM
 40
0.0
  9
$DIMTXT
 40
0.25
  9
$DIMCEN
 40
2.5
  9
$DIMTSZ
 40
0.0
  9
$DIMTOL
 70
0
  9
$DIMLIM
 70
0
  9
$DIMTIH
 70
0
  9
$DIMTOH
 70
0
  9
$DIMSE1
 70
0
  9
$DIMSE2
 70
0
  9
$DIMTAD
 70
1
  9
$DIMZIN
 70
12
  9
$DIMBLK
  1
ARCHTICK
  9
$DIMASO
 70
1
  9
$DIMSHO
 70
1
  9
$DIMPOST
  1

  9
$DIMAPOST
  1

  9
$DIMALT
 70
0
  9
$DIMALTD
 70
3
  9
$DIMALTF
 40
0.03937007874
  9
$DIMLFAC
 40
100.0
  9
$DIMTOFL
 70
1
  9
$DIMTVP
 40
0.0
  9
$DIMTIX
 70
0
  9
$DIMSOXD
 70
0
  9
$DIMSAH
 70
0
  9
$DIMBLK1
  1

  9
$DIMBLK2
  1

  9
$DIMSTYLE
  2
EZDXF
  9
$DIMCLRD
 70
0
  9
$DIMCLRE
 70
0
  9
$DIMCLRT
 70
0
  9
$DIMTFAC
 40
0.5
  9
$DIMGAP
 40
0.1
  9
$DIMJUST
 70
0
  9
$DIMSD1
 70
0
  9
$DIMSD2
 70
0
  9
$DIMTOLJ
 70
0
  9
$DIMTZIN
 70
8
  9
$DIMALTZ
 70
0
  9
$DIMALTTZ
 70
0
  9
$DIMUPT
 70
1
  9
$DIMDEC
 70
2
  9
$DIMTDEC
 70
2
  9
$DIMALTU
 70
2
  9
$DIMALTTD
 70
3
  9
$DIMTXSTY
  7
OpenSansCondensed-Light
  9
$DIMAUNIT
 70
0
  9
$DIMADEC
 70
2
  9
$DIMALTRND
 40
0.0
  9
$DIMAZIN
 70
3
  9
$DIMDSEP
 70
46
  9
$DIMATFIT
 70
3
  9
$DIMFRAC
 70
0
  9
$DIMLDRBLK
  1

  9
$DIMLUNIT
 70
2
  9
$DIMLWD
 70
-2
  9
$DIMLWE
 70
-2
  9
$DIMTMOVE
 70
2
  9
$DIMFXL
 40
1.0
  9
$DIMFXLON
 70
0
  9
$DIMJOGANG
 40
0.785398163397
  9
$DIMTFILL
 70
0
  9
$DIMTFILLCLR
 70
0
  9
$DIMARCSYM
 70
0
  9
$DIMLTYPE
  6

  9
$DIMLTEX1
  6

  9
$DIMLTEX2
  6

  9
$DIMTXTDIRECTION
 70
0
  9
$LUNITS
 70
2
  9
$LUPREC
 70
4
  9
$SKETCHINC
 40
1.0
  9
$FILLETRAD
 40
10.0
  9
$AUNITS
 70
0
  9
$AUPREC
 70
2
  9
$MENU
  1
.
  9
$ELEVATION
 40
0.0
  9
$PELEVATION
 40
0.0
  9
$THICKNESS
 40
0.0
  9
$LIMCHECK
 70
0
  9
$CHAMFERA
 40
0.0
  9
$CHAMFERB
 40
0.0
  9
$CHAMFERC
 40
0.0
  9
$CHAMFERD
 40
0.0
  9
$SKPOLY
 70
0
  9
$TDCREATE
 40
2461314.6893287036
  9
$TDUCREATE
 40
2458532.153996898
  9
$TDUPDATE
 40
2461314.6893287036
  9
$TDUUPDATE
 40
2458532.1544311
  9
$TDINDWG
 40
0.0
  9
$TDUSRTIMER
 40
0.0
  9
$USRTIMER
 70
1
  9
$ANGBASE
 50
0.0
  9
$ANGDIR
 70
0
  9
$PDMODE
 70
0
  9
$PDSIZE
 40
0.0
  9
$PLINEWID
 40
0.0
  9
$SPLFRAME
 70
0
  9
$SPLINETYPE
 70
6
  9
$SPLINESEGS
 70
8
  9
$HANDSEED
  5
9E
  9
$SURFTAB1
 70
6
  9
$SURFTAB2
 70
6
  9
$SURFTYPE
 70
6
  9
$SURFU
 70
6
  9
$SURFV
 70
6
  9
$UCSBASE
  2

  9
$UCSNAME
  2

  9
$UCSORG
 10
0.0
 20
0.0
 30
0.0
  9
$UCSXDIR
 10
1.0
 20
0.0
 30
0.0
  9
$UCSYDIR
 10
0.0
 20
1.0
 30
0.0
  9
$UCSORTHOREF
  2

  9
$UCSORTHOVIEW
 70
0
  9
$UCSORGTOP
 10
0.0
 20
0.0
 30
0.0
  9
$UCSORGBOTTOM
 10
0.0
 20
0.0
 30
0.0
  9
$UCSORGLEFT
 10
0.0
 20
0.0
 30
0.0
  9
$UCSORGRIGHT
 10
0.0
 20
0.0
 30
0.0
  9
$UCSORGFRONT
 10
0.0
 20
0.0
 30
0.0
  9
$UCSORGBACK
 10
0.0
 20
0.0
 30
0.0
  9
$PUCSBASE
  2

  9
$PUCSNAME
  2

  9
$PUCSORG
 10
0.0
 20
0.0
 30
0.0
  9
$PUCSXDIR
 10
1.0
 20
0.0
 30
0.0
  9
$PUCSYDIR
 10
0.0
 20
1.0
 30
0.0
  9
$PUCSORTHOREF
  2

  9
$PUCSORTHOVIEW
 70
0
  9
$PUCSORGTOP
 10
0.0
 20
0.0
 30
0.0
  9
$PUCSORGBOTTOM
 10
0.0
 20
0.0
 30
0.0
  9
$PUCSORGLEFT
 10
0.0
 20
0.0
 30
0.0
  9
$PUCSORGRIGHT
 10
0.0
 20
0.0
 30
0.0
  9
$PUCSORGFRONT
 10
0.0
 20
0.0
 30
0.0
  9
$PUCSORGBACK
 10
0.0
 20
0.0
 30
0.0
  9
$USERI1
 70
0
  9
$USERI2
 70
0
  9
$USERI3
 70
0
  9
$USERI4
 70
0
  9
$USERI5
 70
0
  9
$USERR1
 40
0.0
  9
$USERR2
 40
0.0
  9
$USERR3
 40
0.0
  9
$USERR4
 40
0.0
  9
$USERR5
 40
0.0
  9
$WORLDVIEW
 70
1
  9
$SHADEDGE
 70
3
  9
$SHADEDIF
 70
70
  9
$TILEMODE
 70
1
  9
$MAXACTVP
 70
64
  9
$PINSBASE
 10
0.0
 20
0.0
 30
0.0
  9
$PLIMCHECK
 70
0
  9
$PEXTMIN
 10
1e+20
 20
1e+20
 30
1e+20
  9
$PEXTMAX
 10
-1e+20
 20
-1e+20
 30
-1e+20
  9
$PLIMMIN
 10
0.0
 20
0.0
  9
$PLIMMAX
 10
420.0
 20
297.0
  9
$UNITMODE
 70
0
  9
$VISRETAIN
 70
1
  9
$PLINEGEN
 70
0
  9
$PSLTSCALE
 70
1
  9
$TREEDEPTH
 70
3020
  9
$CMLSTYLE
  2
Standard
  9
$CMLJUST
 70
0
  9
$CMLSCALE
 40
20.0
  9
$PROXYGRAPHICS
 70
1
  9
$MEASUREMENT
 70
1
  9
$CELWEIGHT
370
-1
  9
$ENDCAPS
280
0
  9
$JOINSTYLE
280
0
  9
$LWDISPLAY
290
0
  9
$INSUNITS
 70
4
  9
$HYPERLINKBASE
  1

  9
$STYLESHEET
  1

  9
$XEDIT
290
1
  9
$CEPSNTYPE
380
0
  9
$PSTYLEMODE
290
1
  9
$FINGERPRINTGUID
  2
{9B59625F-738E-4A4D-9074-1E5A7C118D1F}
  9
$VERSIONGUID
  2
{9B0DDE66-E5CC-4E77-AEB4-A33201EA5BE3}
  9
$EXTNAMES
290
1
  9
$PSVPSCALE
 40
0.0
  9
$OLESTARTUP
290
0
  9
$SORTENTS
280
127
  9
$INDEXCTL
280
0
  9
$HIDETEXT
280
1
  9
$XCLIPFRAME
280
1
  9
$HALOGAP
280
0
  9
$OBSCOLOR
 70
257
  9
$OBSLTYPE
280
0
  9
$INTERSECTIONDISPLAY
280
0
  9
$INTERSECTIONCOLOR
 70
257
  9
$DIMASSOC
280
2
  9
$PROJECTNAME
  1

  9
$CAMERADISPLAY
290
0
  9
$LENSLENGTH
 40
50.0
  9
$CAMERAHEIGHT
 40
0.0
  9
$STEPSPERSEC
 40
24.0
  9
$STEPSIZE
 40
100.0
  9
$3DDWFPREC
 40
2.0
  9
$PSOLWIDTH
 40
0.005
  9
$PSOLHEIGHT
 40
0.08
  9
$LOFTANG1
 40
1.570796326795
  9
$LOFTANG2
 40
1.570796326795
  9
$LOFTMAG1
 40
0.0
  9
$LOFTMAG2
 40
0.0
  9
$LOFTPARAM
 70
7
  9
$LOFTNORMALS
280
1
  9
$LATITUDE
 40
37.795
  9
$LONGITUDE
 40
-122.394
  9
$NORTHDIRECTION
 40
0.0
  9
$TIMEZONE
 70
-8000
  9
$LIGHTGLYPHDISPLAY
280
1
  9
$TILEMODELIGHTSYNCH
280
1
  9
$CMATERIAL
347
20
  9
$SOLIDHIST
280
0
  9
$SHOWHIST
280
1
  9
$DWFFRAME
280
2
  9
$DGNFRAME
280
2
  9
$REALWORLDSCALE
290
1
  9
$INTERFERECOLOR
 62
256
  9
$CSHADOW
280
0
  9
$SHADOWPLANELOCATION
 40
0.0
  0
ENDSEC
  0
SECTION
  2
CLASSES
  0
CLASS
  1
ACDBDICTIONARYWDFLT
  2
AcDbDictionaryWithDefault
  3
ObjectDBX Classes
 90
0
 91
0
280
0
281
0
  0
CLASS
  1
SUN
  2
AcDbSun
  3
SCENEOE
 90
1153
 91
0
280
0
281
0
  0
CLASS
  1
VISUALSTYLE
  2
AcDbVisualStyle
  3
ObjectDBX Classes
 90
4095
 91
0
280
0
281
0
  0
CLASS
  1
MATERIAL
  2
AcDbMaterial
  3
ObjectDBX Classes
 90
1153
 91
0
280
0
281
0
  0
CLASS
  1
SCALE
  2
AcDbScale
  3
ObjectDBX Classes
 90
1153
 91
0
280
0
281
0
  0
CLASS
  1
TABLESTYLE
  2
AcDbTableStyle
  3
ObjectDBX Classes
 90
4095
 91
0
280
0
281
0
  0
CLASS
  1
MLEADERSTYLE
  2
AcDbMLeaderStyle
  3
ACDB_MLEADERSTYLE_CLASS
 90
4095
 91
0
280
0
281
0
  0
CLASS
  1
DICTIONARYVAR
  2
AcDbDictionaryVar
  3
ObjectDBX Classes
 90
0
 91
0
280
0
281
0
  0
CLASS
  1
CELLSTYLEMAP
  2
AcDbCellStyleMap
  3
ObjectDBX Classes
 90
1152
 91
0
280
0
281
0
  0
CLASS
  1
MENTALRAYRENDERSETTINGS
  2
AcDbMentalRayRenderSettings
  3
SCENEOE
 90
1024
 91
0
280
0
281
0
  0
CLASS
  1
ACDBDETAILVIEWSTYLE
  2
AcDbDetailViewStyle
  3
ObjectDBX Classes
 90
1025
 91
0
280
0
281
0
  0
CLASS
  1
ACDBSECTIONVIEWSTYLE
  2
AcDbSectionViewStyle
  3
ObjectDBX Classes
 90
1025
 91
0
280
0
281
0
  0
CLASS
  1
RASTERVARIABLES
  2
AcDbRasterVariables
  3
ISM
 90
0
 91
0
280
0
281
0
  0
CLASS
  1
ACDBPLACEHOLDER
  2
AcDbPlaceHolder
  3
ObjectDBX Classes
 90
0
 91
0
280
0
281
0
  0
CLASS
  1
LAYOUT
  2
AcDbLayout
  3
ObjectDBX Classes
 90
0
 91
0
280
0
281
0
  0
ENDSEC
  0
SECTION
  2
TABLES
  0
TABLE
  2
VPORT
  5
8
330
0
100
AcDbSymbolTable
 70
1
  0
VPORT
  5
23
330
8
100
AcDbSymbolTableRecord
100
AcDbViewportTableRecord
  2
*Active
 70
0
 10
0.0
 20
0.0
 11
1.0
 21
1.0
 12
0.0
 22
0.0
 13
0.0
 23
0.0
 14
0.5
 24
0.5
 15
0.5
 25
0.5
 16
0.0
 26
0.0
 36
1.0
 17
0.0
 27
0.0
 37
0.0
 40
1000.0
 41
1.34
 42
50.0
 43
0.0
 44
0.0
 50
0.0
 51
0.0
 71
0
 72
1000
 73
1
 74
3
 75
0
 76
0
 77
0
 78
0
281
0
 65
0
146
0.0
  0
ENDTAB
  0
TABLE
  2
LTYPE
  5
2
330
0
100
AcDbSymbolTable
 70
21
  0
LTYPE
  5
24
330
2
100
AcDbSymbolTableRecord
100
AcDbLinetypeTableRecord
  2
ByBlock
 70
0
  3

 72
65
 73
0
 40
0.0
  0
LTYPE
  5
25
330
2
100
AcDbSymbolTableRecord
100
AcDbLinetypeTableRecord
  2
ByLayer
 70
0
  3

 72
65
 73
0
 40
0.0
  0
LTYPE
  5
26
330
2
100
AcDbSymbolTableRecord
100
AcDbLinetypeTableRecord
  2
Continuous
 70
0
  3

 72
65
 73
0
 40
0.0
  0
LTYPE
  5
2F
330
2
100
AcDbSymbolTableRecord
100
AcDbLinetypeTableRecord
  2
CENTER
 70
0
  3
Center ____ _ ____ _ ____ _ ____ _ ____ _ ____
 72
65
 73
4
 40
5.08
 49
3.175
 74
0
 49
-0.635
 74
0
 49
0.635
 74
0
 49
-0.635
 74
0
  0
LTYPE
  5
30
330
2
100
AcDbSymbolTableRecord
100
AcDbLinetypeTableRecord
  2
CENTERX2
 70
0
  3
Center (2x) ________  __  ________  __  ________
 72
65
 73
4
 40
8.89
 49
6.35
 74
0
 49
-0.635
 74
0
 49
1.27
 74
0
 49
-0.635
 74
0
  0
LTYPE
  5
31
330
2
100
AcDbSymbolTableRecord
100
AcDbLinetypeTableRecord
  2
CENTER2
 70
0
  3
Center (.5x) ____ _ ____ _ ____ _ ____ _ ____
 72
65
 73
4
 40
2.54
 49
1.587
 74
0
 49
-0.318
 74
0
 49
0.318
 74
0
 49
-0.318
 74
0
  0
LTYPE
  5
32
330
2
100
AcDbSymbolTableRecord
100
AcDbLinetypeTableRecord
  2
DASHED
 70
0
  3
Dashed __ __ __ __ __ __ __ __ __ __ __ __ __ _
 72
65
 73
2
 40
1.524
 49
1.27
 74
0
 49
-0.254
 74
0
  0
LTYPE
  5
33
330
2
100
AcDbSymbolTableRecord
100
AcDbLinetypeTableRecord
  2
DASHEDX2
 70
0
  3
Dashed (2x) ____  ____  ____  ____  ____  ____
 72
65
 73
2
 40
3.048
 49
2.54
 74
0
 49
-0.508
 74
0
  0
LTYPE
  5
34
330
2
100
AcDbSymbolTableRecord
100
AcDbLinetypeTableRecord
  2
DASHED2
 70
0
  3
Dashed (.5x) _ _ _ _ _ _ _ _ _ _ _ _ _ _
 72
65
 73
2
 40
0.762
 49
0.635
 74
0
 49
-0.127
 74
0
  0
LTYPE
  5
35
330
2
100
AcDbSymbolTableRecord
100
AcDbLinetypeTableRecord
  2
PHANTOM
 70
0
  3
Phantom ______  __  __  ______  __  __  ______
 72
65
 73
6
 40
6.35
 49
3.175
 74
0
 49
-0.635
 74
0
 49
0.635
 74
0
 49
-0.635
 74
0
 49
0.635
 74
0
 49
-0.635
 74
0
  0
LTYPE
  5
36
330
2
100
AcDbSymbolTableRecord
100
AcDbLinetypeTableRecord
  2
PHANTOMX2
 70
0
  3
Phantom (2x)____________    ____    ____    ____________
 72
65
 73
6
 40
10.795
 49
6.35
 74
0
 49
-0.635
 74
0
 49
1.27
 74
0
 49
-0.635
 74
0
 49
1.27
 74
0
 49
-0.635
 74
0
  0
LTYPE
  5
37
330
2
100
AcDbSymbolTableRecord
100
AcDbLinetypeTableRecord
  2
PHANTOM2
 70
0
  3
Phantom (.5x) ___ _ _ ___ _ _ ___ _ _ ___ _ _ ___
 72
65
 73
6
 40
3.175
 49
1.587
 74
0
 49
-0.318
 74
0
 49
0.318
 74
0
 49
-0.318
 74
0
 49
0.318
 74
0
 49
-0.318
 74
0
  0
LTYPE
  5
38
330
2
100
AcDbSymbolTableRecord
100
AcDbLinetypeTableRecord
  2
DASHDOT
 70
0
  3
Dash dot __ . __ . __ . __ . __ . __ . __ . __
 72
65
 73
4
 40
3.556
 49
2.54
 74
0
 49
-0.508
 74
0
 49
0.0
 74
0
 49
-0.508
 74
0
  0
LTYPE
  5
39
330
2
100
AcDbSymbolTableRecord
100
AcDbLinetypeTableRecord
  2
DASHDOTX2
 70
0
  3
Dash dot (2x) ____  .  ____  .  ____  .  ____
 72
65
 73
4
 40
6.096
 49
5.08
 74
0
 49
-0.508
 74
0
 49
0.0
 74
0
 49
-0.508
 74
0
  0
LTYPE
  5
3A
330
2
100
AcDbSymbolTableRecord
100
AcDbLinetypeTableRecord
  2
DASHDOT2
 70
0
  3
Dash dot (.5x) _ . _ . _ . _ . _ . _ . _ . _
 72
65
 73
4
 40
1.778
 49
1.27
 74
0
 49
-0.254
 74
0
 49
0.0
 74
0
 49
-0.254
 74
0
  0
LTYPE
  5
3B
330
2
100
AcDbSymbolTableRecord
100
AcDbLinetypeTableRecord
  2
DOT
 70
0
  3
Dot .  .  .  .  .  .  .  .  .  .  .  .  .  .  .  .
 72
65
 73
2
 40
0.508
 49
0.0
 74
0
 49
-0.508
 74
0
  0
LTYPE
  5
3C
330
2
100
AcDbSymbolTableRecord
100
AcDbLinetypeTableRecord
  2
DOTX2
 70
0
  3
Dot (2x) .    .    .    .    .    .    .    . 
 72
65
 73
2
 40
1.016
 49
0.0
 74
0
 49
-1.016
 74
0
  0
LTYPE
  5
3D
330
2
100
AcDbSymbolTableRecord
100
AcDbLinetypeTableRecord
  2
DOT2
 70
0
  3
Dot (.5) . . . . . . . . . . . . . . . . . . . 
 72
65
 73
2
 40
0.254
 49
0.0
 74
0
 49
-0.254
 74
0
  0
LTYPE
  5
3E
330
2
100
AcDbSymbolTableRecord
100
AcDbLinetypeTableRecord
  2
DIVIDE
 70
0
  3
Divide __ . . __ . . __ . . __ . . __ . . __
 72
65
 73
6
 40
4.064
 49
2.54
 74
0
 49
-0.508
 74
0
 49
0.0
 74
0
 49
-0.508
 74
0
 49
0.0
 74
0
 49
-0.508
 74
0
  0
LTYPE
  5
3F
330
2
100
AcDbSymbolTableRecord
100
AcDbLinetypeTableRecord
  2
DIVIDEX2
 70
0
  3
Divide (2x) ____  . .  ____  . .  ____  . .  ____
 72
65
 73
6
 40
6.604
 49
5.08
 74
0
 49
-0.508
 74
0
 49
0.0
 74
0
 49
-0.508
 74
0
 49
0.0
 74
0
 49
-0.508
 74
0
  0
LTYPE
  5
40
330
2
100
AcDbSymbolTableRecord
100
AcDbLinetypeTableRecord
  2
DIVIDE2
 70
0
  3
Divide(.5x) _ . _ . _ . _ . _ . _ . _ . _
 72
65
 73
6
 40
2.032
 49
1.27
 74
0
 49
-0.254
 74
0
 49
0.0
 74
0
 49
-0.254
 74
0
 49
0.0
 74
0
 49
-0.254
 74
0
  0
ENDTAB
  0
TABLE
  2
LAYER
  5
1
330
0
100
AcDbSymbolTable
 70
8
  0
LAYER
  5
27
330
1
100
AcDbSymbolTableRecord
100
AcDbLayerTableRecord
  2
0
 70
0
 62
7
  6
Continuous
370
-3
390
13
347
21
  0
LAYER
  5
28
330
1
100
AcDbSymbolTableRecord
100
AcDbLayerTableRecord
  2
Defpoints
 70
0
 62
7
  6
Continuous
290
0
370
-3
390
13
347
21
  0
LAYER
  5
8A
330
1
100
AcDbSymbolTableRecord
100
AcDbLayerTableRecord
  2
CUT_OUT
 70
0
 62
7
  6
Continuous
370
-3
390
13
347
21
  0
LAYER
  5
8B
330
1
100
AcDbSymbolTableRecord
100
AcDbLayerTableRecord
  2
CUT_IN
 70
0
 62
1
  6
Continuous
370
-3
390
13
347
21
  0
LAYER
  5
8C
330
1
100
AcDbSymbolTableRecord
100
AcDbLayerTableRecord
  2
DRILL
 70
0
 62
3
  6
Continuous
370
-3
390
13
347
21
  0
LAYER
  5
8D
330
1
100
AcDbSymbolTableRecord
100
AcDbLayerTableRecord
  2
MARK
 70
0
 62
5
  6
Continuous
370
-3
390
13
347
21
  0
LAYER
  5
8E
330
1
100
AcDbSymbolTableRecord
100
AcDbLayerTableRecord
  2
TEXT
 70
0
 62
8
  6
Continuous
370
-3
390
13
347
21
  0
LAYER
  5
8F
330
1
100
AcDbSymbolTableRecord
100
AcDbLayerTableRecord
  2
SHEET
 70
0
 62
9
  6
Continuous
370
-3
390
13
347
21
  0
ENDTAB
  0
TABLE
  2
STYLE
  5
5
330
0
100
AcDbSymbolTable
 70
26
  0
STYLE
  5
29
330
5
100
AcDbSymbolTableRecord
100
AcDbTextStyleTableRecord
  2
Standard
 70
0
 40
0.0
 41
1.0
 50
0.0
 71
0
 42
2.5
  3
txt
  4

  0
STYLE
  5
41
330
5
100
AcDbSymbolTableRecord
100
AcDbTextStyleTableRecord
  2
OpenSans-Light
 70
0
 40
0.0
 41
1.0
 50
0.0
 71
0
 42
2.5
  3
OpenSans-Light.ttf
  4

  0
STYLE
  5
42
330
5
100
AcDbSymbolTableRecord
100
AcDbTextStyleTableRecord
  2
OpenSans-Light-Italic
 70
0
 40
0.0
 41
1.0
 50
0.0
 71
0
 42
2.5
  3
OpenSans-LightItalic.ttf
  4

  0
STYLE
  5
43
330
5
100
AcDbSymbolTableRecord
100
AcDbTextStyleTableRecord
  2
OpenSans
 70
0
 40
0.0
 41
1.0
 50
0.0
 71
0
 42
2.5
  3
OpenSans-Regular.ttf
  4

  0
STYLE
  5
44
330
5
100
AcDbSymbolTableRecord
100
AcDbTextStyleTableRecord
  2
OpenSans-Italic
 70
0
 40
0.0
 41
1.0
 50
0.0
 71
0
 42
2.5
  3
OpenSans-Italic.ttf
  4

  0
STYLE
  5
45
330
5
100
AcDbSymbolTableRecord
100
AcDbTextStyleTableRecord
  2
OpenSans-SemiBold
 70
0
 40
0.0
 41
1.0
 50
0.0
 71
0
 42
2.5
  3
OpenSans-SemiBold.ttf
  4

  0
STYLE
  5
46
330
5
100
AcDbSymbolTableRecord
100
AcDbTextStyleTableRecord
  2
OpenSans-SemiBoldItalic
 70
0
 40
0.0
 41
1.0
 50
0.0
 71
0
 42
2.5
  3
OpenSans-SemiBoldItalic.ttf
  4

  0
STYLE
  5
47
330
5
100
AcDbSymbolTableRecord
100
AcDbTextStyleTableRecord
  2
OpenSans-Bold
 70
0
 40
0.0
 41
1.0
 50
0.0
 71
0
 42
2.5
  3
OpenSans-Bold.ttf
  4

  0
STYLE
  5
48
330
5
100
AcDbSymbolTableRecord
100
AcDbTextStyleTableRecord
  2
OpenSans-BoldItalic
 70
0
 40
0.0
 41
1.0
 50
0.0
 71
0
 42
2.5
  3
OpenSans-BoldItalic.ttf
  4

  0
STYLE
  5
49
330
5
100
AcDbSymbolTableRecord
100
AcDbTextStyleTableRecord
  2
OpenSans-ExtraBold
 70
0
 40
0.0
 41
1.0
 50
0.0
 71
0
 42
2.5
  3
OpenSans-ExtraBold.ttf
  4

  0
STYLE
  5
4A
330
5
100
AcDbSymbolTableRecord
100
AcDbTextStyleTableRecord
  2
OpenSans-ExtraBoldItalic
 70
0
 40
0.0
 41
1.0
 50
0.0
 71
0
 42
2.5
  3
OpenSans-ExtraBoldItalic.ttf
  4

  0
STYLE
  5
4B
330
5
100
AcDbSymbolTableRecord
100
AcDbTextStyleTableRecord
  2
OpenSansCondensed-Bold
 70
0
 40
0.0
 41
1.0
 50
0.0
 71
0
 42
2.5
  3
OpenSansCondensed-Bold.ttf
  4

  0
STYLE
  5
4C
330
5
100
AcDbSymbolTableRecord
100
AcDbTextStyleTableRecord
  2
OpenSansCondensed-Light
 70
0
 40
0.0
 41
1.0
 50
0.0
 71
0
 42
2.5
  3
OpenSansCondensed-Light.ttf
  4

  0
STYLE
  5
4D
330
5
100
AcDbSymbolTableRecord
100
AcDbTextStyleTableRecord
  2
OpenSansCondensed-Italic
 70
0
 40
0.0
 41
1.0
 50
0.0
 71
0
 42
2.5
  3
OpenSansCondensed-LightItalic.ttf
  4

  0
STYLE
  5
4E
330
5
100
AcDbSymbolTableRecord
100
AcDbTextStyleTableRecord
  2
LiberationSans
 70
0
 40
0.0
 41
1.0
 50
0.0
 71
0
 42
2.5
  3
LiberationSans-Regular.ttf
  4

  0
STYLE
  5
4F
330
5
100
AcDbSymbolTableRecord
100
AcDbTextStyleTableRecord
  2
LiberationSans-Bold
 70
0
 40
0.0
 41
1.0
 50
0.0
 71
0
 42
2.5
  3
LiberationSans-Bold.ttf
  4

  0
STYLE
  5
50
330
5
100
AcDbSymbolTableRecord
100
AcDbTextStyleTableRecord
  2
LiberationSans-BoldItalic
 70
0
 40
0.0
 41
1.0
 50
0.0
 71
0
 42
2.5
  3
LiberationSans-BoldItalic.ttf
  4

  0
STYLE
  5
51
330
5
100
AcDbSymbolTableRecord
100
AcDbTextStyleTableRecord
  2
LiberationSans-Italic
 70
0
 40
0.0
 41
1.0
 50
0.0
 71
0
 42
2.5
  3
LiberationSans-Italic.ttf
  4

  0
STYLE
  5
52
330
5
100
AcDbSymbolTableRecord
100
AcDbTextStyleTableRecord
  2
LiberationSerif
 70
0
 40
0.0
 41
1.0
 50
0.0
 71
0
 42
2.5
  3
LiberationSerif-Regular.ttf
  4

  0
STYLE
  5
53
330
5
100
AcDbSymbolTableRecord
100
AcDbTextStyleTableRecord
  2
LiberationSerif-Bold
 70
0
 40
0.0
 41
1.0
 50
0.0
 71
0
 42
2.5
  3
LiberationSerif-Bold.ttf
  4

  0
STYLE
  5
54
330
5
100
AcDbSymbolTableRecord
100
AcDbTextStyleTableRecord
  2
LiberationSerif-BoldItalic
 70
0
 40
0.0
 41
1.0
 50
0.0
 71
0
 42
2.5
  3
LiberationSerif-BoldItalic.ttf
  4

  0
STYLE
  5
55
330
5
100
AcDbSymbolTableRecord
100
AcDbTextStyleTableRecord
  2
LiberationSerif-Italic
 70
0
 40
0.0
 41
1.0
 50
0.0
 71
0
 42
2.5
  3
LiberationSerif-Italic.ttf
  4

  0
STYLE
  5
56
330
5
100
AcDbSymbolTableRecord
100
AcDbTextStyleTableRecord
  2
LiberationMono
 70
0
 40
0.0
 41
1.0
 50
0.0
 71
0
 42
2.5
  3
LiberationMono-Regular.ttf
  4

  0
STYLE
  5
57
330
5
100
AcDbSymbolTableRecord
100
AcDbTextStyleTableRecord
  2
LiberationMono-Bold
 70
0
 40
0.0
 41
1.0
 50
0.0
 71
0
 42
2.5
  3
LiberationMono-Bold.ttf
  4

  0
STYLE
  5
58
330
5
100
AcDbSymbolTableRecord
100
AcDbTextStyleTableRecord
  2
LiberationMono-BoldItalic
 70
0
 40
0.0
 41
1.0
 50
0.0
 71
0
 42
2.5
  3
LiberationMono-BoldItalic.ttf
  4

  0
STYLE
  5
59
330
5
100
AcDbSymbolTableRecord
100
AcDbTextStyleTableRecord
  2
LiberationMono-Italic
 70
0
 40
0.0
 41
1.0
 50
0.0
 71
0
 42
2.5
  3
LiberationMono-Italic.ttf
  4

  0
ENDTAB
  0
TABLE
  2
VIEW
  5
7
330
0
100
AcDbSymbolTable
 70
0
  0
ENDTAB
  0
TABLE
  2
UCS
  5
6
330
0
100
AcDbSymbolTable
 70
0
  0
ENDTAB
  0
TABLE
  2
APPID
  5
3
330
0
100
AcDbSymbolTable
 70
3
  0
APPID
  5
2A
330
3
100
AcDbSymbolTableRecord
100
AcDbRegAppTableRecord
  2
ACAD
 70
0
  0
APPID
  5
9B
330
3
100
AcDbSymbolTableRecord
100
AcDbRegAppTableRecord
  2
HATCHBACKGROUNDCOLOR
 70
0
  0
APPID
  5
9C
330
3
100
AcDbSymbolTableRecord
100
AcDbRegAppTableRecord
  2
EZDXF
 70
0
  0
ENDTAB
  0
TABLE
  2
DIMSTYLE
  5
4
330
0
100
AcDbSymbolTable
 70
12
100
AcDbDimStyleTable
  0
DIMSTYLE
105
2B
330
4
100
AcDbSymbolTableRecord
100
AcDbDimStyleTableRecord
  2
Standard
 70
0
 40
1.0
 41
2.5
 42
0.625
 43
3.75
 44
1.25
 45
0.0
 46
0.0
 47
0.0
 48
0.0
 49
2.5
140
2.5
141
2.5
142
0.0
143
0.03937007874
144
1.0
145
0.0
146
1.0
147
0.625
148
0.0
 69
0
 70
0
 71
0
 72
0
 73
0
 74
0
 75
0
 76
0
 77
1
 78
8
 79
3
170
0
171
3
172
1
173
0
174
0
175
0
176
0
177
0
178
0
179
2
271
2
272
2
273
2
274
3
275
0
276
0
277
2
278
44
279
0
280
0
281
0
282
0
283
0
284
8
285
0
286
0
288
0
289
3
290
0
371
-2
372
-2
  0
DIMSTYLE
105
73
330
4
100
AcDbSymbolTableRecord
100
AcDbDimStyleTableRecord
  2
EZDXF
 70
0
 40
1.0
 41
0.175
 42
0.125
 43
3.75
 44
0.375
 45
0.0
 46
0.0
 47
0.0
 48
0.0
 49
2.5
140
0.25
141
2.5
142
0.0
143
0.03937007874
144
100.0
145
0.0
146
0.5
147
0.1
148
0.0
 69
0
 70
0
 71
0
 72
0
 73
0
 74
0
 75
0
 76
0
 77
1
 78
12
 79
3
170
0
171
3
172
1
173
0
174
0
175
0
176
0
177
0
178
0
179
2
271
2
272
2
273
2
274
3
275
0
276
0
277
2
278
46
279
2
280
0
281
0
282
0
283
0
284
8
285
0
286
0
288
1
289
3
290
0
340
4C
342
74
371
-2
372
-2
  0
DIMSTYLE
105
7C
330
4
100
AcDbSymbolTableRecord
100
AcDbDimStyleTableRecord
  2
EZ_M_100_H25_CM
 70
0
 40
1.0
 41
0.25
 42
0.125
 43
3.75
 44
0.375
 45
0.0
 46
0.0
 47
0.0
 48
0.0
 49
2.5
140
0.25
141
2.5
142
0.125
143
0.03937007874
144
100.0
145
0.0
146
0.5
147
0.1
148
0.0
 69
0
 70
0
 71
0
 72
0
 73
0
 74
0
 75
0
 76
0
 77
1
 78
12
 79
3
170
0
171
3
172
1
173
0
174
0
175
0
176
0
177
0
178
0
179
2
271
2
272
2
273
2
274
3
275
0
276
0
277
2
278
46
279
2
280
0
281
0
282
0
283
0
284
8
285
0
286
0
288
1
289
3
290
0
340
4C
371
-2
372
-2
  0
DIMSTYLE
105
7D
330
4
100
AcDbSymbolTableRecord
100
AcDbDimStyleTableRecord
  2
EZ_M_50_H25_CM
 70
0
 40
1.0
 41
0.125
 42
0.0625
 43
3.75
 44
0.1875
 45
0.0
 46
0.0
 47
0.0
 48
0.0
 49
2.5
140
0.125
141
2.5
142
0.0625
143
0.03937007874
144
100.0
145
0.0
146
0.5
147
0.05
148
0.0
 69
0
 70
0
 71
0
 72
0
 73
0
 74
0
 75
0
 76
0
 77
1
 78
12
 79
3
170
0
171
3
172
1
173
0
174
0
175
0
176
0
177
0
178
0
179
2
271
2
272
2
273
2
274
3
275
0
276
0
277
2
278
46
279
2
280
0
281
0
282
0
283
0
284
8
285
0
286
0
288
1
289
3
290
0
340
4C
371
-2
372
-2
  0
DIMSTYLE
105
7E
330
4
100
AcDbSymbolTableRecord
100
AcDbDimStyleTableRecord
  2
EZ_M_25_H25_CM
 70
0
 40
1.0
 41
0.0625
 42
0.03125
 43
3.75
 44
0.09375
 45
0.0
 46
0.0
 47
0.0
 48
0.0
 49
2.5
140
0.0625
141
2.5
142
0.03125
143
0.03937007874
144
100.0
145
0.0
146
0.5
147
0.025
148
0.0
 69
0
 70
0
 71
0
 72
0
 73
0
 74
0
 75
0
 76
0
 77
1
 78
12
 79
3
170
0
171
3
172
1
173
0
174
0
175
0
176
0
177
0
178
0
179
2
271
2
272
2
273
2
274
3
275
0
276
0
277
2
278
46
279
2
280
0
281
0
282
0
283
0
284
8
285
0
286
0
288
1
289
3
290
0
340
4C
371
-2
372
-2
  0
DIMSTYLE
105
7F
330
4
100
AcDbSymbolTableRecord
100
AcDbDimStyleTableRecord
  2
EZ_M_20_H25_CM
 70
0
 40
1.0
 41
0.05
 42
0.025
 43
3.75
 44
0.07500000000000001
 45
0.0
 46
0.0
 47
0.0
 48
0.0
 49
2.5
140
0.05
141
2.5
142
0.025
143
0.03937007874
144
100.0
145
0.0
146
0.5
147
0.020000000000000004
148
0.0
 69
0
 70
0
 71
0
 72
0
 73
0
 74
0
 75
0
 76
0
 77
1
 78
12
 79
3
170
0
171
3
172
1
173
0
174
0
175
0
176
0
177
0
178
0
179
2
271
2
272
2
273
2
274
3
275
0
276
0
277
2
278
46
279
2
280
0
281
0
282
0
283
0
284
8
285
0
286
0
288
1
289
3
290
0
340
4C
371
-2
372
-2
  0
DIMSTYLE
105
80
330
4
100
AcDbSymbolTableRecord
100
AcDbDimStyleTableRecord
  2
EZ_M_10_H25_CM
 70
0
 40
1.0
 41
0.025
 42
0.0125
 43
3.75
 44
0.037500000000000006
 45
0.0
 46
0.0
 47
0.0
 48
0.0
 49
2.5
140
0.025
141
2.5
142
0.0125
143
0.03937007874
144
100.0
145
0.0
146
0.5
147
0.010000000000000002
148
0.0
 69
0
 70
0
 71
0
 72
0
 73
0
 74
0
 75
0
 76
0
 77
1
 78
12
 79
3
170
0
171
3
172
1
173
0
174
0
175
0
176
0
177
0
178
0
179
2
271
2
272
2
273
2
274
3
275
0
276
0
277
2
278
46
279
2
280
0
281
0
282
0
283
0
284
8
285
0
286
0
288
1
289
3
290
0
340
4C
371
-2
372
-2
  0
DIMSTYLE
105
81
330
4
100
AcDbSymbolTableRecord
100
AcDbDimStyleTableRecord
  2
EZ_M_5_H25_CM
 70
0
 40
1.0
 41
0.0125
 42
0.00625
 43
3.75
 44
0.018750000000000003
 45
0.0
 46
0.0
 47
0.0
 48
0.0
 49
2.5
140
0.0125
141
2.5
142
0.00625
143
0.03937007874
144
100.0
145
0.0
146
0.5
147
0.005000000000000001
148
0.0
 69
0
 70
0
 71
0
 72
0
 73
0
 74
0
 75
0
 76
0
 77
1
 78
12
 79
3
170
0
171
3
172
1
173
0
174
0
175
0
176
0
177
0
178
0
179
2
271
2
272
2
273
2
274
3
275
0
276
0
277
2
278
46
279
2
280
0
281
0
282
0
283
0
284
8
285
0
286
0
288
1
289
3
290
0
340
4C
371
-2
372
-2
  0
DIMSTYLE
105
82
330
4
100
AcDbSymbolTableRecord
100
AcDbDimStyleTableRecord
  2
EZ_M_1_H25_CM
 70
0
 40
1.0
 41
0.0025
 42
0.00125
 43
3.75
 44
0.00375
 45
0.0
 46
0.0
 47
0.0
 48
0.0
 49
2.5
140
0.0025
141
2.5
142
0.00125
143
0.03937007874
144
100.0
145
0.0
146
0.5
147
0.001
148
0.0
 69
0
 70
0
 71
0
 72
0
 73
0
 74
0
 75
0
 76
0
 77
1
 78
12
 79
3
170
0
171
3
172
1
173
0
174
0
175
0
176
0
177
0
178
0
179
2
271
2
272
2
273
2
274
3
275
0
276
0
277
2
278
46
279
2
280
0
281
0
282
0
283
0
284
8
285
0
286
0
288
1
289
3
290
0
340
4C
371
-2
372
-2
  0
DIMSTYLE
105
83
330
4
100
AcDbSymbolTableRecord
100
AcDbDimStyleTableRecord
  2
EZ_RADIUS
 70
0
 40
1.0
 41
0.25
 42
0.125
 43
3.75
 44
0.375
 45
0.0
 46
0.0
 47
0.0
 48
0.0
 49
2.5
140
0.25
141
0.0
142
0.0
143
0.03937007874
144
100.0
145
0.0
146
0.5
147
0.1
148
0.0
 69
0
 70
0
 71
0
 72
0
 73
0
 74
0
 75
0
 76
0
 77
1
 78
12
 79
3
170
0
171
3
172
0
173
0
174
0
175
0
176
0
177
0
178
0
179
2
271
2
272
2
273
2
274
3
275
0
276
0
277
2
278
46
279
1
280
0
281
0
282
0
283
0
284
8
285
0
286
0
288
1
289
3
290
0
340
4C
342
84
371
-2
372
-2
  0
DIMSTYLE
105
88
330
4
100
AcDbSymbolTableRecord
100
AcDbDimStyleTableRecord
  2
EZ_RADIUS_INSIDE
 70
0
 40
1.0
 41
0.25
 42
0.125
 43
3.75
 44
0.375
 45
0.0
 46
0.0
 47
0.0
 48
0.0
 49
2.5
140
0.25
141
0.0
142
0.0
143
0.03937007874
144
100.0
145
0.0
146
0.5
147
0.1
148
0.0
 69
0
 70
0
 71
0
 72
0
 73
0
 74
0
 75
0
 76
0
 77
0
 78
12
 79
3
170
0
171
3
172
0
173
0
174
1
175
0
176
0
177
0
178
0
179
2
271
2
272
2
273
2
274
3
275
0
276
0
277
2
278
46
279
0
280
0
281
0
282
0
283
0
284
8
285
0
286
0
288
1
289
0
290
0
340
4C
342
84
371
-2
372
-2
  0
DIMSTYLE
105
89
330
4
100
AcDbSymbolTableRecord
100
AcDbDimStyleTableRecord
  2
EZ_CURVED
 70
0
 40
1.0
 41
0.25
 42
0.125
 43
3.75
 44
0.375
 45
0.0
 46
0.0
 47
0.0
 48
0.0
 49
2.5
140
0.25
141
2.5
142
0.0
143
0.03937007874
144
100.0
145
0.0
146
0.5
147
0.1
148
0.0
 69
0
 70
0
 71
0
 72
0
 73
0
 74
0
 75
0
 76
0
 77
1
 78
12
 79
2
 90
2
170
0
171
3
172
1
173
0
174
0
175
0
176
0
177
0
178
0
179
2
271
2
272
2
273
2
274
3
275
0
276
0
277
2
278
46
279
2
280
0
281
0
282
0
283
0
284
8
285
0
286
0
288
1
289
3
290
0
340
4C
371
-2
372
-2
  0
ENDTAB
  0
TABLE
  2
BLOCK_RECORD
  5
9
330
0
100
AcDbSymbolTable
 70
5
  0
BLOCK_RECORD
  5
17
330
9
100
AcDbSymbolTableRecord
100
AcDbBlockTableRecord
  2
*Model_Space
340
1A
 70
0
280
1
281
0
  0
BLOCK_RECORD
  5
1B
330
9
100
AcDbSymbolTableRecord
100
AcDbBlockTableRecord
  2
*Paper_Space
340
1E
 70
0
280
1
281
0
  0
BLOCK_RECORD
  5
74
330
9
100
AcDbSymbolTableRecord
100
AcDbBlockTableRecord
  2
_ARCHTICK
340
0
 70
0
280
1
281
0
  0
BLOCK_RECORD
  5
78
330
9
100
AcDbSymbolTableRecord
100
AcDbBlockTableRecord
  2
_CLOSEDFILLED
340
0
 70
0
280
1
281
0
  0
BLOCK_RECORD
  5
84
330
9
100
AcDbSymbolTableRecord
100
AcDbBlockTableRecord
  2
_CLOSEDBLANK
340
0
 70
0
280
1
281
0
  0
ENDTAB
  0
ENDSEC
  0
SECTION
  2
BLOCKS
  0
BLOCK
  5
18
330
17
100
AcDbEntity
  8
0
100
AcDbBlockBegin
  2
*Model_Space
 70
0
 10
0.0
 20
0.0
 30
0.0
  3
*Model_Space
  1

  0
ENDBLK
  5
19
330
17
100
AcDbEntity
  8
0
100
AcDbBlockEnd
  0
BLOCK
  5
1C
330
1B
100
AcDbEntity
  8
0
100
AcDbBlockBegin
  2
*Paper_Space
 70
0
 10
0.0
 20
0.0
 30
0.0
  3
*Paper_Space
  1

  0
ENDBLK
  5
1D
330
1B
100
AcDbEntity
  8
0
100
AcDbBlockEnd
  0
BLOCK
  5
75
330
74
100
AcDbEntity
  8
0
100
AcDbBlockBegin
  2
_ARCHTICK
 70
0
 10
0.0
 20
0.0
 30
0.0
  3
_ARCHTICK
  1

  0
LWPOLYLINE
  5
77
330
74
100
AcDbEntity
  8
0
  6
BYBLOCK
 62
0
100
AcDbPolyline
 90
2
 70
0
 43
0.15
 10
-0.5
 20
-0.5
 10
0.5
 20
0.5
  0
ENDBLK
  5
76
330
74
100
AcDbEntity
  8
0
100
AcDbBlockEnd
  0
BLOCK
  5
79
330
78
100
AcDbEntity
  8
0
100
AcDbBlockBegin
  2
_CLOSEDFILLED
 70
0
 10
0.0
 20
0.0
 30
0.0
  3
_CLOSEDFILLED
  1

  0
SOLID
  5
7B
330
78
100
AcDbEntity
  8
0
  6
BYBLOCK
 62
0
100
AcDbTrace
 10
-1.0
 20
0.16439898372402537
 30
0.0
 11
0.0
 21
0.0
 31
0.0
 12
-1.0
 22
-0.16439898372402537
 32
0.0
 13
-1.0
 23
-0.16439898372402537
 33
0.0
  0
ENDBLK
  5
7A
330
78
100
AcDbEntity
  8
0
100
AcDbBlockEnd
  0
BLOCK
  5
85
330
84
100
AcDbEntity
  8
0
100
AcDbBlockBegin
  2
_CLOSEDBLANK
 70
0
 10
0.0
 20
0.0
 30
0.0
  3
_CLOSEDBLANK
  1

  0
LWPOLYLINE
  5
87
330
84
100
AcDbEntity
  8
0
  6
BYBLOCK
 62
0
100
AcDbPolyline
 90
3
 70
1
 10
-1.0
 20
0.16439898372402537
 10
0.0
 20
0.0
 10
-1.0
 20
-0.16439898372402537
  0
ENDBLK
  5
86
330
84
100
AcDbEntity
  8
0
100
AcDbBlockEnd
  0
ENDSEC
  0
SECTION
  2
ENTITIES
  0
LWPOLYLINE
  5
90
330
17
100
AcDbEntity
  8
CUT_OUT
100
AcDbPolyline
 90
393
 70
1
 10
49.742092334363065
 20
637.882706229831
 10
50.13001551276801
 20
638.0476853329687
 10
51.61947288098406
 20
638.6443829866796
 10
51.81866106800334
 20
638.7217213529003
 10
59.30389453216239
 20
641.536345500926
 10
59.53993685137459
 20
641.6217372270357
 10
67.2704008796095
 20
644.3091116793839
 10
67.54046701372019
 20
644.398710115441
 10
74.55599775009037
 20
646.6159294126768
 10
74.82025954387132
 20
646.6954543011516
 10
83.75114955665308
 20
649.2491978628136
 10
83.97870749781558
 20
649.311372988838
 10
92.0972803467221
 20
651.4270083392206
 10
92.35533991319554
 20
651.4906066748048
 10
103.22310340373909
 20
654.0162409709653
 10
103.37594185951642
 20
654.0505007948151
 10
110.51119395505083
 20
655.5913312832515
 10
110.75109887800772
 20
655.6400722625058
 10
123.29296534639312
 20
658.0287085229321
 10
123.37721036707538
 20
658.0443795016075
 10
131.3134653024579
 20
659.4855034300549
 10
131.56292516037155
 20
659.5275499624283
 10
142.48688934047027
 20
661.2269764326674
 10
142.54777686126485
 20
661.2362566705965
 10
153.1451340840556
 20
662.8180868870415
 10
153.39198836716616
 20
662.851795905234
 10
165.28858528388133
 20
664.32560978473
 10
169.18089159147024
 20
628.7130094340387
 10
168.77446370295448
 20
628.0435682504883
 10
168.55514863679178
 20
627.2917464441068
 10
168.53789235230587
 20
626.5087794285546
 10
168.7238708367671
 20
625.7480251120278
 10
169.1004099638034
 20
625.0613276439915
 10
169.6418492141676
 20
624.4954843220712
 10
170.31129039771804
 20
624.0890564335554
 10
171.06311220409958
 20
623.8697413673926
 10
171.84607921965164
 20
623.8524850829067
 10
172.60683353617853
 20
624.038463567368
 10
173.29353100421486
 20
624.4150026944044
 10
173.85937432613517
 20
624.9564419447685
 10
180.63375119533387
 20
625.6968526297034
 10
181.3031923788843
 20
625.2904247411875
 10
182.05501418526586
 20
625.0711096750249
 10
182.83798120081792
 20
625.053853390539
 10
183.59873551734478
 20
625.2398318750002
 10
184.28543298538114
 20
625.6163710020365
 10
184.85127630730145
 20
626.1578102524007
 10
185.2577041958172
 20
626.8272514359512
 10
185.4770192619799
 20
627.5790732423327
 10
185.49427554646581
 20
628.3620402578847
 10
185.30829706200458
 20
629.1227945744117
 10
184.9317579349683
 20
629.809492042448
 10
184.3903186846041
 20
630.3753353643683
 10
180.4989150403213
 20
665.9796768101759
 10
194.72618064588636
 20
667.3067448003965
 10
194.7418361527032
 20
667.3081926763599
 10
196.90149202675508
 20
667.506213059592
 10
197.1477730402038
 20
667.5257301766005
 10
221.94499520636663
 20
669.1828869579278
 10
222.15503452354312
 20
669.194705787632
 10
235.84320152574912
 20
669.8205750712655
 10
235.85609311732287
 20
669.8211561831863
 10
247.92114730887346
 20
670.3572100518953
 10
248.08498311956157
 20
670.3631441295549
 10
254.17926485521315
 20
670.5338687702797
 10
254.20487434087912
 20
670.53455336343
 10
278.19403757478887
 20
671.1450826194061
 10
278.36407011309916
 20
671.1479635469099
 10
287.99319920675555
 20
671.2292239504604
 10
288.05416632781396
 20
671.2295525916438
 10
301.35462112327
 20
671.2607024276915
 10
301.2661280077841
 20
633.475634139379
 10
301.2661280077841
 20
633.475634139379
 10
300.7879183112556
 20
632.8554320650978
 10
300.48652332363304
 20
632.1325930870171
 10
300.3824826152441
 20
631.3563774869453
 10
300.48288638842996
 20
630.5796830752706
 10
300.78089229197326
 20
629.8554402926002
 10
301.25619171602546
 20
629.2330050877054
 10
301.8763937903068
 20
628.7547953911769
 10
302.59923276838754
 20
628.4534004035544
 10
303.3754483684592
 20
628.3493596951654
 10
304.152142780134
 20
628.4497634683512
 10
304.8763855628044
 20
628.7477693718945
 10
305.49882076769916
 20
629.2230687959468
 10
312.3135207040892
 20
629.2071086811238
 10
312.9337227783706
 20
628.7288989845954
 10
313.6565617564513
 20
628.4275039969727
 10
314.43277735652305
 20
628.3234632885838
 10
315.20947176819783
 20
628.4238670617697
 10
315.93371455086816
 20
628.721872965313
 10
316.556149755763
 20
629.1971723893652
 10
317.0343594522914
 20
629.8173744636465
 10
317.335754439914
 20
630.5402134417272
 10
317.439795148303
 20
631.316429041799
 10
317.3393913751171
 20
632.0931234534737
 10
317.04138547157385
 20
632.8173662361442
 10
316.56608604752165
 20
633.439801441039
 10
316.6546630327237
 20
671.2606806840789
 10
329.94583367218604
 20
671.2295525916438
 10
330.00680079324445
 20
671.2292239504604
 10
339.63592988690084
 20
671.1479635469099
 10
339.80596242521113
 20
671.1450826194061
 10
363.7951256591209
 20
670.53455336343
 10
363.82073514478685
 20
670.5338687702797
 10
369.91501688043843
 20
670.3631441295549
 10
370.07885269112654
 20
670.3572100518953
 10
382.14390688267713
 20
669.8211561831863
 10
382.1567984742509
 20
669.8205750712655
 10
395.8449654764569
 20
669.194705787632
 10
396.0550047936334
 20
669.1828869579278
 10
420.8522269597962
 20
667.5257301766005
 10
421.0985079732449
 20
667.506213059592
 10
423.2581638472968
 20
667.3081926763599
 10
423.27381935411364
 20
667.3067448003965
 10
437.5010849596787
 20
665.9796768101759
 10
433.6096813153959
 20
630.3753353643683
 10
433.0682420650317
 20
629.809492042448
 10
432.6917029379954
 20
629.1227945744117
 10
432.5057244535342
 20
628.3620402578847
 10
432.5229807380201
 20
627.5790732423327
 10
432.7422958041828
 20
626.8272514359512
 10
433.1487236926986
 20
626.1578102524007
 10
433.71456701461886
 20
625.6163710020365
 10
434.4012644826552
 20
625.2398318750002
 10
435.1620187991821
 20
625.053853390539
 10
435.94498581473414
 20
625.0711096750249
 10
436.6968076211157
 20
625.2904247411875
 10
437.36624880466616
 20
625.6968526297034
 10
444.1406256738648
 20
624.9564419447685
 10
444.70646899578514
 20
624.4150026944044
 10
445.39316646382144
 20
624.038463567368
 10
446.15392078034836
 20
623.8524850829067
 10
446.9368877959004
 20
623.8697413673926
 10
447.68870960228196
 20
624.0890564335554
 10
448.3581507858324
 20
624.4954843220712
 10
448.35815078583244
 20
624.4954843220712
 10
448.89959003619657
 20
625.0613276439915
 10
449.2761291632329
 20
625.7480251120278
 10
449.4621076476941
 20
626.5087794285546
 10
449.4448513632082
 20
627.2917464441068
 10
449.22553629704555
 20
628.0435682504883
 10
448.81910840852976
 20
628.7130094340387
 10
452.71141471611867
 20
664.32560978473
 10
464.60801163283384
 20
662.851795905234
 10
464.8548659159444
 20
662.8180868870415
 10
475.4522231387351
 20
661.2362566705965
 10
475.51311065952973
 20
661.2269764326674
 10
486.43707483962845
 20
659.5275499624283
 10
486.68653469754213
 20
659.4855034300549
 10
494.62278963292465
 20
658.0443795016075
 10
494.7070346536069
 20
658.0287085229321
 10
507.2489011219923
 20
655.6400722625058
 10
507.4888060449492
 20
655.5913312832515
 10
514.6240581404836
 20
654.0505007948151
 10
514.7768965962609
 20
654.0162409709653
 10
525.6446600868045
 20
651.4906066748048
 10
525.9027196532779
 20
651.4270083392206
 10
534.0212925021845
 20
649.311372988838
 10
534.2488504433469
 20
649.2491978628136
 10
543.1797404561287
 20
646.6954543011516
 10
543.4440022499097
 20
646.6159294126768
 10
550.4595329862798
 20
644.398710115441
 10
550.7295991203905
 20
644.3091116793839
 10
558.4600631486254
 20
641.6217372270357
 10
558.6961054678376
 20
641.536345500926
 10
566.1813389319966
 20
638.7217213529003
 10
566.3805271190159
 20
638.6443829866796
 10
567.8699844872319
 20
638.0476853329687
 10
568.2579076656369
 20
637.882706229831
 10
570.6194333842833
 20
636.8190549959756
 10
555.3759871709958
 20
604.450726969129
 10
554.6799506423101
 20
604.0917446888811
 10
554.1005424341947
 20
603.5648469234984
 10
553.677248258515
 20
602.9059408849524
 10
553.438914913817
 20
602.1599299308762
 10
553.4017844236774
 20
601.3776534749484
 10
553.5683871696383
 20
600.6124223648678
 10
553.9273694498863
 20
599.9163858361824
 10
554.4542672152688
 20
599.3369776280667
 10
555.1131732538149
 20
598.9136834523872
 10
555.8591842078912
 20
598.6753501076892
 10
556.6414606638189
 20
598.6382196175496
 10
557.4066917738994
 20
598.8048223635103
 10
563.5719477564334
 20
595.9013746511986
 10
563.9309300366814
 20
595.205338122513
 10
564.457827802064
 20
594.6259299143974
 10
565.11673384061
 20
594.2026357387178
 10
565.8627447946863
 20
593.9643023940198
 10
566.645021250614
 20
593.9271719038802
 10
567.4102523606946
 20
594.0937746498411
 10
568.1062888893802
 20
594.452756930089
 10
568.6856970974957
 20
594.9796546954717
 10
569.1089912731753
 20
595.6385607340177
 10
569.3473246178733
 20
596.384571688094
 10
569.3844551080128
 20
597.1668481440217
 10
569.2178523620521
 20
597.9320792541023
 10
584.4122296986045
 20
630.1962131587112
 10
589.5940709780673
 20
627.3538082236657
 10
590.2488172162841
 20
626.9614314479011
 10
594.8012626889478
 20
623.991383671136
 10
594.9181055201706
 20
623.9139818740016
 10
595.5808908011668
 20
623.468209786189
 10
597.0882012196791
 20
622.2242921485481
 10
598.3247908499947
 20
620.7109640700451
 10
599.2434304291423
 20
618.9860243288908
 10
599.8090342106505
 20
617.1153538209355
 10
600.0
 20
615.1703993602121
 10
600.0
 20
586.7065027919854
 10
618.0
 20
586.7065027919854
 10
618.0
 20
556.7065027919854
 10
600.0
 20
556.7065027919854
 10
600.0
 20
299.4515741360696
 10
618.0
 20
299.4515741360696
 10
618.0
 20
269.4515741360696
 10
600.0
 20
269.4515741360696
 10
600.0
 20
62.97656589634238
 10
618.0
 20
62.97656589634238
 10
618.0
 20
32.97656589634238
 10
600.0
 20
32.97656589634238
 10
600.0
 20
19.468268234914603
 10
599.8298022492352
 20
17.631154264326426
 10
599.3250024518139
 20
15.856574826876738
 10
598.5027837657576
 20
14.204935808327093
 10
597.3911341452672
 20
12.732458257883934
 10
596.0278936433516
 20
11.48926464897471
 10
594.4594663534465
 20
10.517672732799724
 10
594.191462368824
 20
10.38414477348897
 10
593.8526972325642
 20
10.223218916430312
 10
592.8910006020086
 20
9.788289960015675
 10
592.4006440981499
 20
9.58205422520939
 10
584.3821334884279
 20
6.457916376673268
 10
583.7287666381296
 20
6.229071834309877
 10
583.274068629632
 20
6.087280445371221
 10
583.163847535297
 20
6.053605173965707
 10
575.4921378967459
 20
3.757959051671662
 10
574.943319121417
 20
3.610586528087481
 10
573.4057244619368
 20
3.2442031479334332
 10
573.0167414310972
 20
3.1596595138734074
 10
568.194516527822
 20
2.2116701504763796
 10
567.8473681661633
 20
2.149761338865403
 10
565.726780363959
 20
1.810048438894455
 10
565.2828766783791
 20
1.7491024068352203
 10
564.3935851890311
 20
1.647248104014352
 10
564.0267286598682
 20
1.612065952018554
 10
560.9329346152499
 20
1.3728078102396353
 10
560.6365728623791
 20
1.3543104999587854
 10
557.9552814360846
 20
1.2268900799171547
 10
557.5322403137325
 20
1.2157508047570218
 10
555.823576231202
 20
1.2069265458650875
 10
555.4449977497031
 20
1.2121389449685012
 10
539.5141914469298
 20
1.7332512877534327
 10
539.4420389108884
 20
1.7358722504753246
 10
535.2080207928584
 20
1.9049813482581044
 10
535.0223024934365
 20
1.9089452937538454
 10
534.2117072502007
 20
1.9111840732218184
 10
533.9123911306629
 20
1.9164916857058643
 10
532.9536266758522
 20
1.9478538140081127
 10
532.7429208056653
 20
1.9503030456278339
 10
529.9334816417912
 20
1.9237460356883958
 10
529.8113392151405
 20
1.9233374305116513
 10
525.1616334602344
 20
1.9361794325627102
 10
525.0877363050269
 20
1.9358374286032927
 10
502.535924740057
 20
1.6647958730559367
 10
502.5102708384196
 20
1.6645204609749271
 10
496.8960956596668
 20
1.6114508989280125
 10
496.8007884366832
 20
1.6096412453285325
 10
496.04884810946635
 20
1.5881915202188566
 10
495.8838832344844
 20
1.5848475428722395
 10
493.18024056978624
 20
1.552353500813922
 10
493.0890295933335
 20
1.5504248775304177
 10
466.4071175445948
 20
0.7426516919303481
 10
466.38965667044374
 20
0.7421383424401711
 10
462.9428690736951
 20
0.6438158508997276
 10
462.8295423883309
 20
0.6412258562941133
 10
458.4368657189865
 20
0.5657416466486893
 10
424.37143196611447
 20
0.000617308039238651
 10
424.082402460724
 20
0.0
 10
310.95397248736543
 20
1.3933849309135553
 10
310.83148010121073
 20
1.3933930416294515
 10
309.1218348910936
 20
1.3725620517246853
 10
308.8781651089064
 20
1.3725620517246853
 10
307.16851989878927
 20
1.3933930416294515
 10
307.04602751263457
 20
1.3933849309135553
 10
193.91759753927602
 20
0.0
 10
193.62856803388553
 20
0.000617308039238651
 10
159.5690795150232
 20
0.5656412511886515
 10
155.17045761166915
 20
0.6412258562941133
 10
155.0571309263049
 20
0.6438158508997276
 10
151.6103433295563
 20
0.7421383424401711
 10
151.5928824554052
 20
0.7426516919303481
 10
124.91097040666648
 20
1.5504248775304177
 10
124.81975943021376
 20
1.552353500813922
 10
122.11611676551556
 20
1.5848475428722395
 10
121.95115189053362
 20
1.5881915202188566
 10
121.1992115633168
 20
1.6096412453285325
 10
121.10390434033317
 20
1.6114508989280125
 10
115.48972916158039
 20
1.6645204609749271
 10
115.46407525994303
 20
1.6647958730559367
 10
92.91226369497312
 20
1.9358374286032927
 10
92.83836653976564
 20
1.9361794325627102
 10
88.18866078485951
 20
1.9233374305116513
 10
88.06651835820881
 20
1.9237460356883958
 10
85.25707919433461
 20
1.9503030456278339
 10
85.04637332414782
 20
1.9478538140081127
 10
84.08760886933715
 20
1.9164916857058643
 10
83.78829274979935
 20
1.9111840732218184
 10
82.97769750656343
 20
1.9089452937538454
 10
82.79197920714154
 20
1.9049813482581044
 10
78.55796108911164
 20
1.7358722504753246
 10
78.48580855307026
 20
1.7332512877534327
 10
62.555002250296894
 20
1.2121389449685012
 10
62.176423768798
 20
1.2069265458650875
 10
60.467759686267556
 20
1.2157508047570218
 10
60.04471856391535
 20
1.2268900799171547
 10
57.36342713762093
 20
1.3543104999587854
 10
57.06706538475012
 20
1.3728078102396353
 10
53.9732713401317
 20
1.612065952018554
 10
53.606414810968886
 20
1.647248104014352
 10
52.71712332162082
 20
1.7491024068352203
 10
52.27321963604089
 20
1.810048438894455
 10
50.15263183383678
 20
2.149761338865403
 10
49.805483472178025
 20
2.2116701504763796
 10
44.98325856890273
 20
3.1596595138734074
 10
44.59427553806324
 20
3.2442031479334332
 10
43.05668087858305
 20
3.610586528087481
 10
42.50786210325407
 20
3.757959051671662
 10
34.83615246470299
 20
6.053605173965707
 10
34.725931370368016
 20
6.087280445371221
 10
34.27123336187037
 20
6.229071834309877
 10
33.61786651157206
 20
6.457916376673268
 10
25.599355901850117
 20
9.58205422520939
 10
25.108999397991397
 20
9.788289960015675
 10
24.147302767435747
 20
10.223218916430312
 10
23.808537631175966
 20
10.38414477348897
 10
23.540533646553513
 20
10.517672732799724
 10
21.972106356648396
 20
11.48926464897471
 10
20.608865854732812
 20
12.732458257883934
 10
19.49721623424233
 20
14.204935808327093
 10
18.67499754818607
 20
15.856574826876738
 10
18.17019775076477
 20
17.631154264326426
 10
18.0
 20
19.468268234914603
 10
18.0
 20
32.97656589634238
 10
0.0
 20
32.97656589634238
 10
0.0
 20
62.97656589634238
 10
18.0
 20
62.97656589634238
 10
18.0
 20
269.4515741360696
 10
0.0
 20
269.4515741360696
 10
0.0
 20
299.4515741360696
 10
18.0
 20
299.4515741360696
 10
18.0
 20
556.7065027919854
 10
0.0
 20
556.7065027919854
 10
0.0
 20
586.7065027919854
 10
18.0
 20
586.7065027919854
 10
18.0
 20
615.1703993602121
 10
18.19096578934949
 20
617.1153538209355
 10
18.756569570857607
 20
618.9860243288908
 10
19.675209150005344
 20
620.7109640700451
 10
20.91179878032085
 20
622.2242921485481
 10
22.419109198833155
 20
623.468209786189
 10
23.08189447982943
 20
623.9139818740016
 10
23.19873731105224
 20
623.991383671136
 10
27.75118278371582
 20
626.9614314479011
 10
28.405929021932764
 20
627.3538082236657
 10
33.587770301395494
 20
630.1962131587112
 10
48.78214763794796
 20
597.9320792541023
 10
48.615544891987156
 20
597.1668481440217
 10
48.65267538212669
 20
596.384571688094
 10
48.89100872682468
 20
595.6385607340177
 10
49.31430290250432
 20
594.9796546954717
 10
49.89371111061985
 20
594.452756930089
 10
50.58974763930547
 20
594.0937746498411
 10
51.35497874938602
 20
593.9271719038802
 10
52.13725520531369
 20
593.9643023940198
 10
52.88326615939002
 20
594.2026357387178
 10
53.542172197936026
 20
594.6259299143974
 10
54.06906996331861
 20
595.205338122513
 10
54.42805224356661
 20
595.9013746511986
 10
60.59330822610059
 20
598.8048223635103
 10
61.35853933618114
 20
598.6382196175496
 10
62.14081579210881
 20
598.6753501076892
 10
62.886826746185136
 20
598.9136834523872
 10
63.54573278473117
 20
599.3369776280667
 10
64.07263055011373
 20
599.9163858361824
 10
64.43161283036173
 20
600.6124223648678
 10
64.59821557632256
 20
601.3776534749484
 10
64.56108508618297
 20
602.1599299308762
 10
64.322751741485
 20
602.9059408849524
 10
63.899457565805335
 20
603.5648469234984
 10
63.32004935768981
 20
604.091744688881
 10
62.624012829004215
 20
604.450726969129
 10
47.3805666157167
 20
636.8190549959756
 10
49.742092334363065
 20
637.882706229831
  0
LWPOLYLINE
  5
91
330
17
100
AcDbEntity
  8
CUT_IN
100
AcDbPolyline
 90
69
 70
1
 10
540.2132034355964
 20
95.15787413187888
 10
542.1903136008821
 20
97.33927904256595
 10
543.9440883690763
 20
99.70397057688723
 10
545.4576379304507
 20
102.22917546269537
 10
546.7163859753387
 20
104.89057459652261
 10
547.7082100719663
 20
107.66253724984145
 10
548.4235584120969
 20
110.51836790699147
 10
548.8555418001658
 20
113.43056335758848
 10
549.0
 20
116.37107756747531
 10
549.0
 20
486.4515741360696
 10
548.8555418001658
 20
489.39208834595644
 10
548.4235584120969
 20
492.3042837965535
 10
547.7082100719663
 20
495.1601144537035
 10
546.7163859753387
 20
497.93207710702234
 10
545.4576379304507
 20
500.59347624084955
 10
543.9440883690763
 20
503.1186811266577
 10
542.1903136008821
 20
505.48337266097894
 10
540.2132034355964
 20
507.66477757166604
 10
538.0317985249094
 20
509.64188773695173
 10
535.6671069905881
 20
511.395662505146
 10
533.14190210478
 20
512.9092120665202
 10
530.4805029709527
 20
514.1679601114082
 10
527.7085403176338
 20
515.159784208036
 10
524.8527096604838
 20
515.8751325481666
 10
521.9405142098868
 20
516.3071159362355
 10
519.0
 20
516.4515741360697
 10
99.0
 20
516.4515741360697
 10
96.05948579011317
 20
516.3071159362355
 10
93.14729033951616
 20
515.8751325481666
 10
90.29145968236614
 20
515.159784208036
 10
87.5194970290473
 20
514.1679601114082
 10
84.85809789522006
 20
512.9092120665202
 10
82.33289300941195
 20
511.395662505146
 10
79.96820147509064
 20
509.64188773695173
 10
77.78679656440357
 20
507.66477757166604
 10
75.80968639911788
 20
505.48337266097894
 10
74.05591163092365
 20
503.1186811266577
 10
72.54236206954934
 20
500.59347624084955
 10
71.2836140246614
 20
497.93207710702234
 10
70.29178992803372
 20
495.1601144537035
 10
69.57644158790308
 20
492.3042837965535
 10
69.1444581998341
 20
489.39208834595644
 10
69.0
 20
486.4515741360696
 10
69.0
 20
116.37107756747531
 10
69.1444581998341
 20
113.43056335758848
 10
69.57644158790308
 20
110.51836790699144
 10
70.29178992803372
 20
107.66253724984145
 10
71.2836140246614
 20
104.89057459652261
 10
72.54236206954934
 20
102.22917546269537
 10
74.05591163092365
 20
99.70397057688723
 10
75.80968639911788
 20
97.33927904256595
 10
77.78679656440357
 20
95.15787413187888
 10
79.96820147509064
 20
93.18076396659319
 10
82.33289300941195
 20
91.42698919839896
 10
84.85809789522006
 20
89.91343963702465
 10
87.5194970290473
 20
88.65469159213671
 10
90.29145968236614
 20
87.66286749550903
 10
93.14729033951616
 20
86.94751915537839
 10
96.05948579011317
 20
86.51553576730942
 10
99.0
 20
86.37107756747531
 10
519.0
 20
86.37107756747531
 10
521.9405142098868
 20
86.51553576730942
 10
524.8527096604838
 20
86.94751915537839
 10
527.7085403176338
 20
87.66286749550903
 10
530.4805029709527
 20
88.65469159213671
 10
533.14190210478
 20
89.91343963702465
 10
535.6671069905881
 20
91.42698919839896
 10
538.0317985249094
 20
93.18076396659319
 10
540.2132034355964
 20
95.15787413187888
  0
LWPOLYLINE
  5
92
330
17
100
AcDbEntity
  8
CUT_IN
100
AcDbPolyline
 90
53
 70
1
 10
179.2076669887647
 20
48.464750657184084
 10
178.42962110475014
 20
48.37542132737127
 10
177.7012066231844
 20
48.0877627279134
 10
177.0720637872243
 20
47.621378316985215
 10
170.25828269273745
 20
47.73441434979679
 10
169.64495579720702
 20
48.221410495588316
 10
168.9264836314341
 20
48.53307196867465
 10
168.15182888618477
 20
48.64815955470999
 10
167.37378300217023
 20
48.55883022489718
 10
166.64536852060445
 20
48.27117162543931
 10
166.01622568464435
 20
47.80478721451112
 10
165.52922953885286
 20
47.19146031898072
 10
165.2175680657665
 20
46.47298815320778
 10
165.10248047973118
 20
45.698333407958444
 10
165.19180980954397
 20
44.9202875239439
 10
165.47946840900184
 20
44.19187304237812
 10
165.94585281993002
 20
43.56273020641805
 10
165.5840111378633
 20
21.751012728918397
 10
165.09701499207182
 20
21.13768583338799
 10
164.78535351898546
 20
20.419213667615054
 10
164.67026593295014
 20
19.644558922365718
 10
164.75959526276293
 20
18.866513038351172
 10
165.0472538622208
 20
18.138098556785394
 10
165.51363827314898
 20
17.508955720825327
 10
166.12696516867942
 20
17.021959575033804
 10
166.84543733445233
 20
16.710298101947444
 10
167.6200920797017
 20
16.59521051591213
 10
168.3981379637162
 20
16.68453984572494
 10
169.126552445282
 20
16.972198445182812
 10
169.75569528124208
 20
17.438582856110997
 10
176.56947637572893
 20
17.32554682329942
 10
177.18280327125936
 20
16.838550677507897
 10
177.90127543703227
 20
16.526889204421536
 10
178.6759301822816
 20
16.41180161838622
 10
179.45397606629615
 20
16.501130948199034
 10
180.18239054786193
 20
16.788789547656904
 10
180.81153338382202
 20
17.25517395858509
 10
181.29852952961352
 20
17.868500854115496
 10
181.61019100269988
 20
18.586973019888433
 10
181.7252785887352
 20
19.36162776513777
 10
181.6359492589224
 20
20.139673649152314
 10
181.34829065946454
 20
20.868088130718093
 10
180.88190624853635
 20
21.49723096667816
 10
181.24374793060306
 20
43.308948444177815
 10
181.73074407639456
 20
43.92227533970822
 10
182.04240554948092
 20
44.64074750548116
 10
182.15749313551623
 20
45.415402250730494
 10
182.06816380570342
 20
46.19344813474504
 10
181.78050520624558
 20
46.92186261631076
 10
181.3141207953174
 20
47.551005452270886
 10
180.70079389978696
 20
48.03800159806241
 10
179.98232173401405
 20
48.34966307114877
 10
179.2076669887647
 20
48.464750657184084
  0
LWPOLYLINE
  5
93
330
17
100
AcDbEntity
  8
CUT_IN
100
AcDbPolyline
 90
53
 70
1
 10
56.77814942842383
 20
47.6188576863629
 10
56.06961338601408
 20
47.95249192232063
 10
55.298869229429755
 20
48.091375225449156
 10
54.518441899227156
 20
48.026042928155846
 10
53.78151622824245
 20
47.760947318534534
 10
47.289929077837826
 20
49.834515792687625
 10
46.84313598359296
 20
50.47771953780409
 10
46.24509361573678
 20
50.98336808476708
 10
45.53655757332706
 20
51.317002320724754
 10
44.76581341674273
 20
51.455885623853305
 10
43.98538608654013
 20
51.390553326559996
 10
43.24846041555543
 20
51.125457716938655
 10
42.60525667043896
 20
50.67866462269376
 10
42.099608123475946
 20
50.08062225483761
 10
41.76597388751827
 20
49.37208621242786
 10
41.62709058438975
 20
48.60134205584353
 10
41.692422881683
 20
47.82091472564093
 10
41.95751849130437
 20
47.08398905465623
 10
35.319781073371644
 20
26.30365241898744
 10
34.67657732825518
 20
25.856859324742516
 10
34.17092878129222
 20
25.258816956886392
 10
33.837294545334544
 20
24.550280914476616
 10
33.698411242205964
 20
23.779536757892288
 10
33.76374353949927
 20
22.99910942768969
 10
34.02883914912064
 20
22.262183756704985
 10
34.47563224336551
 20
21.61898001158852
 10
35.07367461122169
 20
21.11333146462556
 10
35.782210653631466
 20
20.77969722866783
 10
36.552954810215795
 20
20.640813925539305
 10
37.333382140418394
 20
20.706146222832615
 10
38.0703078114031
 20
20.971241832453927
 10
44.561894961807695
 20
18.897673358300835
 10
45.00868805605256
 20
18.25446961318437
 10
45.60673042390874
 20
17.74882106622141
 10
46.31526646631846
 20
17.41518683026368
 10
47.08601062290279
 20
17.276303527135155
 10
47.86643795310539
 20
17.341635824428465
 10
48.60336362409009
 20
17.606731434049777
 10
49.24656736920656
 20
18.0535245282947
 10
49.752215916169575
 20
18.651566896150825
 10
50.08585015212725
 20
19.3601029385606
 10
50.22473345525577
 20
20.13084709514493
 10
50.15940115796252
 20
20.91127442534753
 10
49.89430554834115
 20
21.648200096332232
 10
56.53204296627385
 20
42.42853673200102
 10
57.175246711390315
 20
42.875329826245945
 10
57.6808952583533
 20
43.47337219410207
 10
58.014529494311006
 20
44.181908236511845
 10
58.15341279743953
 20
44.95265239309617
 10
58.08808050014625
 20
45.73307972329877
 10
57.82298489052488
 20
46.470005394283476
 10
57.37619179628001
 20
47.11320913939994
 10
56.77814942842383
 20
47.6188576863629
  0
LWPOLYLINE
  5
94
330
17
100
AcDbEntity
  8
CUT_IN
100
AcDbPolyline
 90
53
 70
1
 10
179.42645713530757
 20
63.5659407757274
 10
179.52867965644037
 20
64.34239791103496
 10
179.42645713530757
 20
65.1188550463425
 10
179.12675586779366
 20
65.84239791103496
 10
178.65
 20
66.4637182545946
 10
178.65
 20
76.27843688035603
 10
179.12675586779366
 20
76.89975722391566
 10
179.42645713530757
 20
77.62330008860812
 10
179.52867965644037
 20
78.39975722391566
 10
179.42645713530757
 20
79.17621435922322
 10
179.12675586779366
 20
79.89975722391569
 10
178.65
 20
80.52107756747532
 10
178.02867965644035
 20
80.997833435269
 10
177.3051367917479
 20
81.29753470278288
 10
176.52867965644035
 20
81.39975722391566
 10
175.7522225211328
 20
81.29753470278288
 10
175.02867965644035
 20
80.99783343526897
 10
174.40735931288071
 20
80.52107756747532
 10
152.59264068711929
 20
80.52107756747532
 10
151.97132034355963
 20
80.997833435269
 10
151.2477774788672
 20
81.29753470278288
 10
150.47132034355965
 20
81.39975722391566
 10
149.6948632082521
 20
81.29753470278288
 10
148.97132034355963
 20
80.99783343526897
 10
148.35
 20
80.52107756747532
 10
147.87324413220634
 20
79.89975722391566
 10
147.57354286469243
 20
79.17621435922322
 10
147.47132034355963
 20
78.39975722391566
 10
147.57354286469243
 20
77.62330008860812
 10
147.87324413220634
 20
76.89975722391566
 10
148.35
 20
76.27843688035603
 10
148.35
 20
66.4637182545946
 10
147.87324413220634
 20
65.84239791103496
 10
147.57354286469243
 20
65.1188550463425
 10
147.47132034355963
 20
64.34239791103496
 10
147.57354286469243
 20
63.5659407757274
 10
147.87324413220634
 20
62.842397911034936
 10
148.35
 20
62.221077567475305
 10
148.97132034355965
 20
61.74432169968165
 10
149.6948632082521
 20
61.44462043216774
 10
150.47132034355965
 20
61.342397911034965
 10
151.2477774788672
 20
61.44462043216774
 10
151.97132034355965
 20
61.74432169968165
 10
152.59264068711929
 20
62.221077567475305
 10
174.40735931288071
 20
62.221077567475305
 10
175.02867965644035
 20
61.74432169968165
 10
175.7522225211328
 20
61.44462043216774
 10
176.52867965644035
 20
61.342397911034965
 10
177.3051367917479
 20
61.44462043216774
 10
178.02867965644035
 20
61.74432169968165
 10
178.65
 20
62.221077567475305
 10
179.12675586779366
 20
62.842397911034965
 10
179.42645713530757
 20
63.5659407757274
  0
LWPOLYLINE
  5
95
330
17
100
AcDbEntity
  8
CUT_IN
100
AcDbPolyline
 90
53
 70
1
 10
449.8481711138152
 20
48.64815955470999
 10
449.0735163685659
 20
48.53307196867465
 10
448.355044202793
 20
48.221410495588316
 10
447.74171730726255
 20
47.73441434979679
 10
440.92793621277576
 20
47.621378316985215
 10
440.29879337681564
 20
48.0877627279134
 10
439.57037889524986
 20
48.37542132737127
 10
438.7923330112353
 20
48.464750657184084
 10
438.017678265986
 20
48.34966307114877
 10
437.29920610021304
 20
48.03800159806241
 10
436.6858792046826
 20
47.551005452270886
 10
436.2194947937544
 20
46.92186261631076
 10
435.9318361942966
 20
46.19344813474504
 10
435.84250686448377
 20
45.415402250730494
 10
435.9575944505191
 20
44.64074750548116
 10
436.26925592360544
 20
43.92227533970822
 10
436.75625206939696
 20
43.308948444177815
 10
437.1180937514637
 20
21.49723096667816
 10
436.65170934053543
 20
20.868088130718093
 10
436.36405074107756
 20
20.139673649152314
 10
436.2747214112648
 20
19.36162776513777
 10
436.3898089973001
 20
18.586973019888433
 10
436.7014704703865
 20
17.868500854115496
 10
437.18846661617795
 20
17.25517395858509
 10
437.8176094521381
 20
16.788789547656904
 10
438.54602393370385
 20
16.501130948199034
 10
439.3240698177184
 20
16.41180161838622
 10
440.09872456296773
 20
16.526889204421536
 10
440.81719672874067
 20
16.838550677507897
 10
441.4305236242711
 20
17.32554682329942
 10
448.2443047187579
 20
17.438582856110997
 10
448.87344755471804
 20
16.972198445182812
 10
449.6018620362838
 20
16.68453984572494
 10
450.3799079202983
 20
16.59521051591213
 10
451.1545626655477
 20
16.710298101947444
 10
451.8730348313206
 20
17.021959575033804
 10
452.486361726851
 20
17.508955720825327
 10
452.9527461377792
 20
18.13809855678545
 10
453.2404047372371
 20
18.866513038351172
 10
453.32973406704986
 20
19.644558922365718
 10
453.21464648101454
 20
20.419213667615054
 10
452.9029850079282
 20
21.13768583338799
 10
452.4159888621367
 20
21.751012728918397
 10
452.05414718007
 20
43.56273020641805
 10
452.5205315909982
 20
44.19187304237812
 10
452.808190190456
 20
44.9202875239439
 10
452.8975195202688
 20
45.698333407958444
 10
452.7824319342335
 20
46.47298815320778
 10
452.47077046114714
 20
47.19146031898072
 10
451.9837743153556
 20
47.80478721451112
 10
451.35463147939555
 20
48.27117162543931
 10
450.6262169978298
 20
48.55883022489718
 10
449.8481711138152
 20
48.64815955470999
  0
LWPOLYLINE
  5
96
330
17
100
AcDbEntity
  8
CUT_IN
100
AcDbPolyline
 90
57
 70
1
 10
315.4428151157343
 20
48.64051066475963
 10
314.6666723938627
 20
48.74509365612326
 10
313.889908023962
 20
48.6452325503339
 10
313.16545721417697
 20
48.34773271672282
 10
312.542690089983
 20
47.87286827730884
 10
305.7280029674377
 20
47.89358952521076
 10
305.7280029674377
 20
47.89358952521076
 10
305.10813514901633
 20
48.37223241347124
 10
304.385506919033
 20
48.67413234395801
 10
303.6093641971614
 20
48.778715335321664
 10
302.8325998272607
 20
48.678854229532305
 10
302.1081490174757
 20
48.38135439592122
 10
301.4853818932817
 20
47.906489956507244
 10
301.00673900502125
 20
47.286622138085875
 10
300.70483907453445
 20
46.56399390810253
 10
300.6002560831708
 20
45.78785118623097
 10
300.7001171889602
 20
45.01108681633025
 10
300.99761702257126
 20
44.28663600654522
 10
301.47248146198524
 20
43.66386888235127
 10
301.40615030183346
 20
21.849251102102755
 10
301.40615030183346
 20
21.849251102102755
 10
300.927507413573
 20
21.229383283681386
 10
300.6256074830862
 20
20.506755053698043
 10
300.5210244917225
 20
19.730612331826478
 10
300.6208855975119
 20
18.95384796192576
 10
300.918385431123
 20
18.229397152140734
 10
301.393249870537
 20
17.60663002794678
 10
302.01311768895835
 20
17.127987139686297
 10
302.73574591894163
 20
16.8260872091995
 10
303.5118886408132
 20
16.721504217835843
 10
304.288653010714
 20
16.82136532362523
 10
305.01310382049894
 20
17.118865157236314
 10
305.63587094469295
 20
17.59372959665029
 10
312.45055806723826
 20
17.573008348748374
 10
312.45055806723826
 20
17.573008348748374
 10
313.07042588565963
 20
17.094365460487893
 10
313.793054115643
 20
16.792465530001095
 10
314.56919683751454
 20
16.687882538637496
 10
315.34596120741526
 20
16.787743644426826
 10
316.0704120172003
 20
17.08524347803791
 10
316.69317914139424
 20
17.560107917451887
 10
317.1718220296547
 20
18.179975735873256
 10
317.4737219601415
 20
18.9026039658566
 10
317.5783049515051
 20
19.678746687728164
 10
317.4784438457158
 20
20.455511057628883
 10
317.1809440121047
 20
21.17996186741391
 10
316.7060795726907
 20
21.802728991607864
 10
316.7724107328425
 20
43.617346771856376
 10
316.7724107328425
 20
43.617346771856376
 10
317.251053621103
 20
44.237214590277745
 10
317.5529535515898
 20
44.95984282026109
 10
317.6575365429534
 20
45.73598554213265
 10
317.55767543716405
 20
46.51274991203337
 10
317.26017560355297
 20
47.2372007218184
 10
316.785311164139
 20
47.85996784601235
 10
316.1654433457176
 20
48.338610734272834
 10
315.4428151157343
 20
48.64051066475963
  0
LWPOLYLINE
  5
97
330
17
100
AcDbEntity
  8
CUT_IN
100
AcDbPolyline
 90
53
 70
1
 10
573.2341865832573
 20
51.455885623853305
 10
572.463442426673
 20
51.317002320724754
 10
571.7549063842632
 20
50.98336808476705
 10
571.1568640164071
 20
50.47771953780409
 10
570.7100709221622
 20
49.834515792687625
 10
564.2184837717575
 20
47.760947318534534
 10
563.4815581007729
 20
48.026042928155846
 10
562.7011307705702
 20
48.091375225449156
 10
561.9303866139859
 20
47.95249192232063
 10
561.2218505715762
 20
47.6188576863629
 10
560.62380820372
 20
47.11320913939994
 10
560.1770151094752
 20
46.470005394283476
 10
559.9119194998538
 20
45.73307972329877
 10
559.8465872025605
 20
44.95265239309617
 10
559.985470505689
 20
44.181908236511845
 10
560.3191047416467
 20
43.47337219410207
 10
560.8247532886097
 20
42.875329826245945
 10
561.4679570337262
 20
42.42853673200102
 10
568.1056944516588
 20
21.648200096332232
 10
567.8405988420375
 20
20.91127442534753
 10
567.7752665447442
 20
20.13084709514493
 10
567.9141498478727
 20
19.3601029385606
 10
568.2477840838304
 20
18.651566896150825
 10
568.7534326307934
 20
18.0535245282947
 10
569.3966363759099
 20
17.606731434049777
 10
570.1335620468947
 20
17.341635824428465
 10
570.9139893770972
 20
17.276303527135155
 10
571.6847335336815
 20
17.41518683026368
 10
572.3932695760913
 20
17.74882106622141
 10
572.9913119439475
 20
18.25446961318437
 10
573.4381050381924
 20
18.897673358300835
 10
579.9296921885968
 20
20.971241832453927
 10
580.6666178595816
 20
20.706146222832615
 10
581.4470451897841
 20
20.640813925539305
 10
582.2177893463686
 20
20.77969722866783
 10
582.9263253887783
 20
21.11333146462556
 10
583.5243677566345
 20
21.61898001158852
 10
583.9711608508794
 20
22.262183756704985
 10
584.2362564605007
 20
22.99910942768969
 10
584.301588757794
 20
23.779536757892288
 10
584.1627054546655
 20
24.550280914476616
 10
583.8290712187078
 20
25.258816956886392
 10
583.3234226717448
 20
25.856859324742516
 10
582.6802189266284
 20
26.30365241898744
 10
576.0424815086956
 20
47.08398905465623
 10
576.307577118317
 20
47.82091472564093
 10
576.3729094156103
 20
48.60134205584353
 10
576.2340261124817
 20
49.37208621242786
 10
575.900391876524
 20
50.08062225483761
 10
575.394743329561
 20
50.67866462269376
 10
574.7515395844446
 20
51.125457716938655
 10
574.0146139134599
 20
51.390553326559996
 10
573.2341865832573
 20
51.455885623853305
  0
LWPOLYLINE
  5
98
330
17
100
AcDbEntity
  8
CUT_IN
100
AcDbPolyline
 90
53
 70
1
 10
470.5286796564404
 20
64.34239791103496
 10
470.4264571353076
 20
65.1188550463425
 10
470.1267558677937
 20
65.84239791103496
 10
469.65
 20
66.4637182545946
 10
469.65
 20
76.27843688035603
 10
470.1267558677937
 20
76.89975722391566
 10
470.4264571353076
 20
77.62330008860812
 10
470.5286796564404
 20
78.39975722391566
 10
470.4264571353076
 20
79.17621435922322
 10
470.1267558677937
 20
79.89975722391569
 10
469.65
 20
80.52107756747532
 10
469.0286796564403
 20
80.997833435269
 10
468.30513679174794
 20
81.29753470278288
 10
467.5286796564403
 20
81.39975722391566
 10
466.7522225211328
 20
81.29753470278288
 10
466.0286796564403
 20
80.99783343526897
 10
465.4073593128807
 20
80.52107756747532
 10
443.5926406871193
 20
80.52107756747532
 10
442.9713203435596
 20
80.997833435269
 10
442.2477774788672
 20
81.29753470278288
 10
441.4713203435597
 20
81.39975722391566
 10
440.69486320825206
 20
81.29753470278288
 10
439.9713203435596
 20
80.99783343526897
 10
439.35
 20
80.52107756747532
 10
438.8732441322063
 20
79.89975722391566
 10
438.5735428646924
 20
79.17621435922322
 10
438.4713203435596
 20
78.39975722391566
 10
438.5735428646924
 20
77.62330008860812
 10
438.8732441322063
 20
76.89975722391566
 10
439.35
 20
76.27843688035603
 10
439.35
 20
66.4637182545946
 10
438.8732441322063
 20
65.84239791103496
 10
438.5735428646924
 20
65.1188550463425
 10
438.4713203435596
 20
64.34239791103496
 10
438.5735428646924
 20
63.5659407757274
 10
438.8732441322063
 20
62.842397911034936
 10
439.35
 20
62.221077567475305
 10
439.9713203435597
 20
61.74432169968165
 10
440.69486320825206
 20
61.44462043216774
 10
441.4713203435597
 20
61.342397911034965
 10
442.2477774788672
 20
61.44462043216774
 10
442.9713203435597
 20
61.74432169968165
 10
443.5926406871193
 20
62.221077567475305
 10
465.4073593128807
 20
62.221077567475305
 10
466.0286796564403
 20
61.74432169968165
 10
466.7522225211328
 20
61.44462043216774
 10
467.5286796564403
 20
61.342397911034965
 10
468.30513679174794
 20
61.44462043216774
 10
469.0286796564403
 20
61.74432169968165
 10
469.65
 20
62.221077567475305
 10
470.1267558677937
 20
62.842397911034965
 10
470.4264571353076
 20
63.5659407757274
 10
470.5286796564404
 20
64.34239791103496
  0
TEXT
  5
99
330
17
100
AcDbEntity
  8
TEXT
100
AcDbText
 10
43.5
 20
392.9515741360696
 30
0.0
 40
10.0
  1
П3
 72
1
 11
43.5
 21
392.9515741360696
 31
0.0
100
AcDbText
 73
2
  0
TEXT
  5
9A
330
17
100
AcDbEntity
  8
TEXT
100
AcDbText
 10
0.0
 20
-20.0
 30
0.0
 40
8.0
  1
П3 Плита уровня сиденья; Фанера берёзовая ФК 18 мм; 1 шт.
 11
0.0
 21
-20.0
 31
0.0
100
AcDbText
  0
ENDSEC
  0
SECTION
  2
OBJECTS
  0
DICTIONARY
  5
A
330
0
100
AcDbDictionary
281
1
  3
ACAD_COLOR
350
B
  3
ACAD_GROUP
350
C
  3
ACAD_LAYOUT
350
D
  3
ACAD_MATERIAL
350
E
  3
ACAD_MLEADERSTYLE
350
F
  3
ACAD_MLINESTYLE
350
10
  3
ACAD_PLOTSETTINGS
350
11
  3
ACAD_PLOTSTYLENAME
350
12
  3
ACAD_SCALELIST
350
14
  3
ACAD_TABLESTYLE
350
15
  3
ACAD_VISUALSTYLE
350
16
  3
EZDXF_META
350
2D
  0
DICTIONARY
  5
B
330
A
100
AcDbDictionary
281
1
  0
DICTIONARY
  5
C
330
A
100
AcDbDictionary
281
1
  0
DICTIONARY
  5
D
330
A
100
AcDbDictionary
281
1
  3
Model
350
1A
  3
Layout1
350
1E
  0
DICTIONARY
  5
E
330
A
100
AcDbDictionary
281
1
  3
ByBlock
350
1F
  3
ByLayer
350
20
  3
Global
350
21
  0
DICTIONARY
  5
F
330
A
100
AcDbDictionary
281
1
  3
Standard
350
2C
  0
DICTIONARY
  5
10
330
A
100
AcDbDictionary
281
1
  3
Standard
350
22
  0
DICTIONARY
  5
11
330
A
100
AcDbDictionary
281
1
  0
ACDBDICTIONARYWDFLT
  5
12
330
A
100
AcDbDictionary
281
1
  3
Normal
350
13
100
AcDbDictionaryWithDefault
340
13
  0
ACDBPLACEHOLDER
  5
13
330
12
  0
DICTIONARY
  5
14
330
A
100
AcDbDictionary
281
1
  0
DICTIONARY
  5
15
330
A
100
AcDbDictionary
281
1
  0
DICTIONARY
  5
16
330
A
100
AcDbDictionary
281
1
  3
2dWireframe
350
5A
  3
Basic
350
5B
  3
Brighten
350
5C
  3
ColorChange
350
5D
  3
Conceptual
350
5E
  3
Dim
350
5F
  3
EdgeColorOff
350
60
  3
Facepattern
350
61
  3
Flat
350
62
  3
FlatWithEdges
350
63
  3
Gouraud
350
64
  3
GouraudWithEdges
350
65
  3
Hidden
350
66
  3
JitterOff
350
67
  3
Linepattern
350
68
  3
Modeling
350
69
  3
OverhangOff
350
6A
  3
Realistic
350
6B
  3
Shaded
350
6C
  3
Shaded with edges
350
6D
  3
Shades of Gray
350
6E
  3
Sketchy
350
6F
  3
Thicken
350
70
  3
Wireframe
350
71
  3
X-Ray
350
72
  0
LAYOUT
  5
1A
330
D
100
AcDbPlotSettings
  1

  4
A3
  6

 40
7.5
 41
20.0
 42
7.5
 43
20.0
 44
420.0
 45
297.0
 46
0.0
 47
0.0
 48
0.0
 49
0.0
140
0.0
141
0.0
142
1.0
143
1.0
 70
1024
 72
1
 73
0
 74
5
  7

 75
16
 76
0
 77
2
 78
300
147
1.0
148
0.0
149
0.0
100
AcDbLayout
  1
Model
 70
1
 71
0
 10
0.0
 20
0.0
 11
420.0
 21
297.0
 12
0.0
 22
0.0
 32
0.0
 14
1e+20
 24
1e+20
 34
1e+20
 15
-1e+20
 25
-1e+20
 35
-1e+20
146
0.0
 13
0.0
 23
0.0
 33
0.0
 16
1.0
 26
0.0
 36
0.0
 17
0.0
 27
1.0
 37
0.0
 76
1
330
17
  0
LAYOUT
  5
1E
330
D
100
AcDbPlotSettings
  1

  4
A3
  6

 40
7.5
 41
20.0
 42
7.5
 43
20.0
 44
420.0
 45
297.0
 46
0.0
 47
0.0
 48
0.0
 49
0.0
140
0.0
141
0.0
142
1.0
143
1.0
 70
0
 72
1
 73
0
 74
5
  7

 75
16
 76
0
 77
2
 78
300
147
1.0
148
0.0
149
0.0
100
AcDbLayout
  1
Layout1
 70
1
 71
1
 10
0.0
 20
0.0
 11
420.0
 21
297.0
 12
0.0
 22
0.0
 32
0.0
 14
1e+20
 24
1e+20
 34
1e+20
 15
-1e+20
 25
-1e+20
 35
-1e+20
146
0.0
 13
0.0
 23
0.0
 33
0.0
 16
1.0
 26
0.0
 36
0.0
 17
0.0
 27
1.0
 37
0.0
 76
1
330
1B
  0
MATERIAL
  5
1F
102
{ACAD_REACTORS
330
E
102
}
330
E
100
AcDbMaterial
  1
ByBlock
  2

 70
0
 40
1.0
 71
1
 41
1.0
 91
-1023410177
 42
1.0
 72
1
  3

 73
1
 74
1
 75
1
 44
0.5
 73
0
 45
1.0
 46
1.0
 77
1
  4

 78
1
 79
1
170
1
 48
1.0
171
1
  6

172
1
173
1
174
1
140
1.0
141
1.0
175
1
  7

176
1
177
1
178
1
143
1.0
179
1
  8

270
1
271
1
272
1
145
1.0
146
1.0
273
1
  9

274
1
275
1
276
1
 42
1.0
 72
1
  3

 73
1
 74
1
 75
1
 94
63
  0
MATERIAL
  5
20
102
{ACAD_REACTORS
330
E
102
}
330
E
100
AcDbMaterial
  1
ByLayer
  2

 70
0
 40
1.0
 71
1
 41
1.0
 91
-1023410177
 42
1.0
 72
1
  3

 73
1
 74
1
 75
1
 44
0.5
 73
0
 45
1.0
 46
1.0
 77
1
  4

 78
1
 79
1
170
1
 48
1.0
171
1
  6

172
1
173
1
174
1
140
1.0
141
1.0
175
1
  7

176
1
177
1
178
1
143
1.0
179
1
  8

270
1
271
1
272
1
145
1.0
146
1.0
273
1
  9

274
1
275
1
276
1
 42
1.0
 72
1
  3

 73
1
 74
1
 75
1
 94
63
  0
MATERIAL
  5
21
102
{ACAD_REACTORS
330
E
102
}
330
E
100
AcDbMaterial
  1
Global
  2

 70
0
 40
1.0
 71
1
 41
1.0
 91
-1023410177
 42
1.0
 72
1
  3

 73
1
 74
1
 75
1
 44
0.5
 73
0
 45
1.0
 46
1.0
 77
1
  4

 78
1
 79
1
170
1
 48
1.0
171
1
  6

172
1
173
1
174
1
140
1.0
141
1.0
175
1
  7

176
1
177
1
178
1
143
1.0
179
1
  8

270
1
271
1
272
1
145
1.0
146
1.0
273
1
  9

274
1
275
1
276
1
 42
1.0
 72
1
  3

 73
1
 74
1
 75
1
 94
63
  0
MLINESTYLE
  5
22
102
{ACAD_REACTORS
330
10
102
}
330
10
100
AcDbMlineStyle
  2
Standard
 70
0
  3

 62
256
 51
90.0
 52
90.0
 71
2
 49
0.5
 62
256
  6
BYLAYER
 49
-0.5
 62
256
  6
BYLAYER
  0
MLEADERSTYLE
  5
2C
102
{ACAD_REACTORS
330
F
102
}
330
F
100
AcDbMLeaderStyle
179
2
170
2
171
1
172
0
 90
2
 40
0.0
 41
0.0
173
1
 91
-1056964608
 92
-2
290
1
 42
2.0
291
1
 43
8.0
  3
Standard
 44
4.0
300

342
29
174
1
175
1
176
0
178
1
 93
-1056964608
 45
4.0
292
0
297
0
 46
4.0
 94
-1056964608
 47
1.0
 49
1.0
140
1.0
294
1
141
0.0
177
0
142
1.0
295
0
296
0
143
3.75
271
0
272
9
273
9
  0
DICTIONARY
  5
2D
330
A
100
AcDbDictionary
280
1
281
1
  3
CREATED_BY_EZDXF
350
2E
  3
WRITTEN_BY_EZDXF
350
9D
  0
DICTIONARYVAR
  5
2E
330
2D
100
DictionaryVariables
280
0
  1
1.4.4 @ 2026-09-30T16:32:38.865822+00:00
  0
VISUALSTYLE
  5
5A
102
{ACAD_REACTORS
330
16
102
}
330
16
100
AcDbVisualStyle
  2
2dWireframe
 70
4
 90
0
 40
0.6
 62
7
290
0
291
0
  0
VISUALSTYLE
  5
5B
102
{ACAD_REACTORS
330
16
102
}
330
16
100
AcDbVisualStyle
  2
Basic
 70
7
 90
1
 40
0.6
 62
7
290
0
291
1
  0
VISUALSTYLE
  5
5C
102
{ACAD_REACTORS
330
16
102
}
330
16
100
AcDbVisualStyle
  2
Brighten
 70
12
 90
2
 40
0.6
 62
7
290
0
291
1
  0
VISUALSTYLE
  5
5D
102
{ACAD_REACTORS
330
16
102
}
330
16
100
AcDbVisualStyle
  2
ColorChange
 70
16
 90
2
 40
0.6
 62
8
290
0
291
1
  0
VISUALSTYLE
  5
5E
102
{ACAD_REACTORS
330
16
102
}
330
16
100
AcDbVisualStyle
  2
Conceptual
 70
9
 90
3
 40
0.6
 62
7
290
0
291
0
  0
VISUALSTYLE
  5
5F
102
{ACAD_REACTORS
330
16
102
}
330
16
100
AcDbVisualStyle
  2
Dim
 70
11
 90
2
 40
0.6
 62
7
290
0
291
1
  0
VISUALSTYLE
  5
60
102
{ACAD_REACTORS
330
16
102
}
330
16
100
AcDbVisualStyle
  2
EdgeColorOff
 70
22
 90
2
 40
0.6
 62
7
290
0
291
1
  0
VISUALSTYLE
  5
61
102
{ACAD_REACTORS
330
16
102
}
330
16
100
AcDbVisualStyle
  2
Facepattern
 70
15
 90
2
 40
0.6
 62
7
290
0
291
1
  0
VISUALSTYLE
  5
62
102
{ACAD_REACTORS
330
16
102
}
330
16
100
AcDbVisualStyle
  2
Flat
 70
0
 90
2
 40
0.6
 62
7
290
0
291
1
  0
VISUALSTYLE
  5
63
102
{ACAD_REACTORS
330
16
102
}
330
16
100
AcDbVisualStyle
  2
FlatWithEdges
 70
1
 90
2
 40
0.6
 62
7
290
0
291
1
  0
VISUALSTYLE
  5
64
102
{ACAD_REACTORS
330
16
102
}
330
16
100
AcDbVisualStyle
  2
Gouraud
 70
2
 90
2
 40
0.6
 62
7
290
0
291
1
  0
VISUALSTYLE
  5
65
102
{ACAD_REACTORS
330
16
102
}
330
16
100
AcDbVisualStyle
  2
GouraudWithEdges
 70
3
 90
2
 40
0.6
 62
7
290
0
291
1
  0
VISUALSTYLE
  5
66
102
{ACAD_REACTORS
330
16
102
}
330
16
100
AcDbVisualStyle
  2
Hidden
 70
6
 90
1
 40
0.6
 62
7
290
0
291
0
  0
VISUALSTYLE
  5
67
102
{ACAD_REACTORS
330
16
102
}
330
16
100
AcDbVisualStyle
  2
JitterOff
 70
20
 90
2
 40
0.6
 62
7
290
0
291
1
  0
VISUALSTYLE
  5
68
102
{ACAD_REACTORS
330
16
102
}
330
16
100
AcDbVisualStyle
  2
Linepattern
 70
14
 90
2
 40
0.6
 62
7
290
0
291
1
  0
VISUALSTYLE
  5
69
102
{ACAD_REACTORS
330
16
102
}
330
16
100
AcDbVisualStyle
  2
Modeling
 70
10
 90
2
 40
0.6
 62
7
290
0
291
0
  0
VISUALSTYLE
  5
6A
102
{ACAD_REACTORS
330
16
102
}
330
16
100
AcDbVisualStyle
  2
OverhangOff
 70
21
 90
2
 40
0.6
 62
7
290
0
291
1
  0
VISUALSTYLE
  5
6B
102
{ACAD_REACTORS
330
16
102
}
330
16
100
AcDbVisualStyle
  2
Realistic
 70
8
 90
2
 40
0.6
 62
7
290
0
291
0
  0
VISUALSTYLE
  5
6C
102
{ACAD_REACTORS
330
16
102
}
330
16
100
AcDbVisualStyle
  2
Shaded
 70
27
 90
2
 40
0.6
 62
7
290
0
291
0
  0
VISUALSTYLE
  5
6D
102
{ACAD_REACTORS
330
16
102
}
330
16
100
AcDbVisualStyle
  2
Shaded with edges
 70
26
 90
2
 40
0.6
 62
7
290
0
291
0
  0
VISUALSTYLE
  5
6E
102
{ACAD_REACTORS
330
16
102
}
330
16
100
AcDbVisualStyle
  2
Shades of Gray
 70
23
 90
2
 40
0.6
 62
7
290
0
291
0
  0
VISUALSTYLE
  5
6F
102
{ACAD_REACTORS
330
16
102
}
330
16
100
AcDbVisualStyle
  2
Sketchy
 70
24
 90
1
 40
0.6
 62
7
290
0
291
0
  0
VISUALSTYLE
  5
70
102
{ACAD_REACTORS
330
16
102
}
330
16
100
AcDbVisualStyle
  2
Thicken
 70
13
 90
2
 40
0.6
 62
7
290
0
291
1
  0
VISUALSTYLE
  5
71
102
{ACAD_REACTORS
330
16
102
}
330
16
100
AcDbVisualStyle
  2
Wireframe
 70
5
 90
0
 40
0.6
 62
7
290
0
291
0
  0
VISUALSTYLE
  5
72
102
{ACAD_REACTORS
330
16
102
}
330
16
100
AcDbVisualStyle
  2
X-Ray
 70
25
 90
2
 40
0.5
 62
7
290
0
291
0
  0
DICTIONARYVAR
  5
9D
330
2D
100
DictionaryVariables
280
0
  1
1.4.4 @ 2026-09-30T16:32:38.874774+00:00
  0
ENDSEC
  0
EOF
