  0
SECTION
  2
HEADER
  9
$ACADVER
  1
AC1024
  9
$ACADMAINTVER
 70
6
  9
$DWGCODEPAGE
  3
ANSI_1252
  9
$LASTSAVEDBY
  1
ezdxf
  9
$INSBASE
 10
0.0
 20
0.0
 30
0.0
  9
$EXTMIN
 10
1e+20
 20
1e+20
 30
1e+20
  9
$EXTMAX
 10
-1e+20
 20
-1e+20
 30
-1e+20
  9
$LIMMIN
 10
0.0
 20
0.0
  9
$LIMMAX
 10
420.0
 20
297.0
  9
$ORTHOMODE
 70
0
  9
$REGENMODE
 70
1
  9
$FILLMODE
 70
1
  9
$QTEXTMODE
 70
0
  9
$MIRRTEXT
 70
1
  9
$LTSCALE
 40
1.0
  9
$ATTMODE
 70
1
  9
$TEXTSIZE
 40
2.5
  9
$TRACEWID
 40
1.0
  9
$TEXTSTYLE
  7
OpenSans
  9
$CLAYER
  8
0
  9
$CELTYPE
  6
ByLayer
  9
$CECOLOR
 62
256
  9
$CELTSCALE
 40
1.0
  9
$DISPSILH
 70
0
  9
$DIMSCALE
 40
1.0
  9
$DIMASZ
 40
0.175
  9
$DIMEXO
 40
0.125
  9
$DIMDLI
 40
3.75
  9
$DIMRND
 40
0.0
  9
$DIMDLE
 40
0.0
  9
$DIMEXE
 40
0.375
  9
$DIMTP
 40
0.0
  9
$DIMTM
 40
0.0
  9
$DIMTXT
 40
0.25
  9
$DIMCEN
 40
2.5
  9
$DIMTSZ
 40
0.0
  9
$DIMTOL
 70
0
  9
$DIMLIM
 70
0
  9
$DIMTIH
 70
0
  9
$DIMTOH
 70
0
  9
$DIMSE1
 70
0
  9
$DIMSE2
 70
0
  9
$DIMTAD
 70
1
  9
$DIMZIN
 70
12
  9
$DIMBLK
  1
ARCHTICK
  9
$DIMASO
 70
1
  9
$DIMSHO
 70
1
  9
$DIMPOST
  1

  9
$DIMAPOST
  1

  9
$DIMALT
 70
0
  9
$DIMALTD
 70
3
  9
$DIMALTF
 40
0.03937007874
  9
$DIMLFAC
 40
100.0
  9
$DIMTOFL
 70
1
  9
$DIMTVP
 40
0.0
  9
$DIMTIX
 70
0
  9
$DIMSOXD
 70
0
  9
$DIMSAH
 70
0
  9
$DIMBLK1
  1

  9
$DIMBLK2
  1

  9
$DIMSTYLE
  2
EZDXF
  9
$DIMCLRD
 70
0
  9
$DIMCLRE
 70
0
  9
$DIMCLRT
 70
0
  9
$DIMTFAC
 40
0.5
  9
$DIMGAP
 40
0.1
  9
$DIMJUST
 70
0
  9
$DIMSD1
 70
0
  9
$DIMSD2
 70
0
  9
$DIMTOLJ
 70
0
  9
$DIMTZIN
 70
8
  9
$DIMALTZ
 70
0
  9
$DIMALTTZ
 70
0
  9
$DIMUPT
 70
1
  9
$DIMDEC
 70
2
  9
$DIMTDEC
 70
2
  9
$DIMALTU
 70
2
  9
$DIMALTTD
 70
3
  9
$DIMTXSTY
  7
OpenSansCondensed-Light
  9
$DIMAUNIT
 70
0
  9
$DIMADEC
 70
2
  9
$DIMALTRND
 40
0.0
  9
$DIMAZIN
 70
3
  9
$DIMDSEP
 70
46
  9
$DIMATFIT
 70
3
  9
$DIMFRAC
 70
0
  9
$DIMLDRBLK
  1

  9
$DIMLUNIT
 70
2
  9
$DIMLWD
 70
-2
  9
$DIMLWE
 70
-2
  9
$DIMTMOVE
 70
2
  9
$DIMFXL
 40
1.0
  9
$DIMFXLON
 70
0
  9
$DIMJOGANG
 40
0.785398163397
  9
$DIMTFILL
 70
0
  9
$DIMTFILLCLR
 70
0
  9
$DIMARCSYM
 70
0
  9
$DIMLTYPE
  6

  9
$DIMLTEX1
  6

  9
$DIMLTEX2
  6

  9
$DIMTXTDIRECTION
 70
0
  9
$LUNITS
 70
2
  9
$LUPREC
 70
4
  9
$SKETCHINC
 40
1.0
  9
$FILLETRAD
 40
10.0
  9
$AUNITS
 70
0
  9
$AUPREC
 70
2
  9
$MENU
  1
.
  9
$ELEVATION
 40
0.0
  9
$PELEVATION
 40
0.0
  9
$THICKNESS
 40
0.0
  9
$LIMCHECK
 70
0
  9
$CHAMFERA
 40
0.0
  9
$CHAMFERB
 40
0.0
  9
$CHAMFERC
 40
0.0
  9
$CHAMFERD
 40
0.0
  9
$SKPOLY
 70
0
  9
$TDCREATE
 40
2461314.682916667
  9
$TDUCREATE
 40
2458532.153996898
  9
$TDUPDATE
 40
2461314.682916667
  9
$TDUUPDATE
 40
2458532.1544311
  9
$TDINDWG
 40
0.0
  9
$TDUSRTIMER
 40
0.0
  9
$USRTIMER
 70
1
  9
$ANGBASE
 50
0.0
  9
$ANGDIR
 70
0
  9
$PDMODE
 70
0
  9
$PDSIZE
 40
0.0
  9
$PLINEWID
 40
0.0
  9
$SPLFRAME
 70
0
  9
$SPLINETYPE
 70
6
  9
$SPLINESEGS
 70
8
  9
$HANDSEED
  5
95
  9
$SURFTAB1
 70
6
  9
$SURFTAB2
 70
6
  9
$SURFTYPE
 70
6
  9
$SURFU
 70
6
  9
$SURFV
 70
6
  9
$UCSBASE
  2

  9
$UCSNAME
  2

  9
$UCSORG
 10
0.0
 20
0.0
 30
0.0
  9
$UCSXDIR
 10
1.0
 20
0.0
 30
0.0
  9
$UCSYDIR
 10
0.0
 20
1.0
 30
0.0
  9
$UCSORTHOREF
  2

  9
$UCSORTHOVIEW
 70
0
  9
$UCSORGTOP
 10
0.0
 20
0.0
 30
0.0
  9
$UCSORGBOTTOM
 10
0.0
 20
0.0
 30
0.0
  9
$UCSORGLEFT
 10
0.0
 20
0.0
 30
0.0
  9
$UCSORGRIGHT
 10
0.0
 20
0.0
 30
0.0
  9
$UCSORGFRONT
 10
0.0
 20
0.0
 30
0.0
  9
$UCSORGBACK
 10
0.0
 20
0.0
 30
0.0
  9
$PUCSBASE
  2

  9
$PUCSNAME
  2

  9
$PUCSORG
 10
0.0
 20
0.0
 30
0.0
  9
$PUCSXDIR
 10
1.0
 20
0.0
 30
0.0
  9
$PUCSYDIR
 10
0.0
 20
1.0
 30
0.0
  9
$PUCSORTHOREF
  2

  9
$PUCSORTHOVIEW
 70
0
  9
$PUCSORGTOP
 10
0.0
 20
0.0
 30
0.0
  9
$PUCSORGBOTTOM
 10
0.0
 20
0.0
 30
0.0
  9
$PUCSORGLEFT
 10
0.0
 20
0.0
 30
0.0
  9
$PUCSORGRIGHT
 10
0.0
 20
0.0
 30
0.0
  9
$PUCSORGFRONT
 10
0.0
 20
0.0
 30
0.0
  9
$PUCSORGBACK
 10
0.0
 20
0.0
 30
0.0
  9
$USERI1
 70
0
  9
$USERI2
 70
0
  9
$USERI3
 70
0
  9
$USERI4
 70
0
  9
$USERI5
 70
0
  9
$USERR1
 40
0.0
  9
$USERR2
 40
0.0
  9
$USERR3
 40
0.0
  9
$USERR4
 40
0.0
  9
$USERR5
 40
0.0
  9
$WORLDVIEW
 70
1
  9
$SHADEDGE
 70
3
  9
$SHADEDIF
 70
70
  9
$TILEMODE
 70
1
  9
$MAXACTVP
 70
64
  9
$PINSBASE
 10
0.0
 20
0.0
 30
0.0
  9
$PLIMCHECK
 70
0
  9
$PEXTMIN
 10
1e+20
 20
1e+20
 30
1e+20
  9
$PEXTMAX
 10
-1e+20
 20
-1e+20
 30
-1e+20
  9
$PLIMMIN
 10
0.0
 20
0.0
  9
$PLIMMAX
 10
420.0
 20
297.0
  9
$UNITMODE
 70
0
  9
$VISRETAIN
 70
1
  9
$PLINEGEN
 70
0
  9
$PSLTSCALE
 70
1
  9
$TREEDEPTH
 70
3020
  9
$CMLSTYLE
  2
Standard
  9
$CMLJUST
 70
0
  9
$CMLSCALE
 40
20.0
  9
$PROXYGRAPHICS
 70
1
  9
$MEASUREMENT
 70
1
  9
$CELWEIGHT
370
-1
  9
$ENDCAPS
280
0
  9
$JOINSTYLE
280
0
  9
$LWDISPLAY
290
0
  9
$INSUNITS
 70
4
  9
$HYPERLINKBASE
  1

  9
$STYLESHEET
  1

  9
$XEDIT
290
1
  9
$CEPSNTYPE
380
0
  9
$PSTYLEMODE
290
1
  9
$FINGERPRINTGUID
  2
{15B3FE13-F5B1-4B63-8419-C9DB3A8D1944}
  9
$VERSIONGUID
  2
{B950D7C9-DDBC-4615-985F-C060D65EFB08}
  9
$EXTNAMES
290
1
  9
$PSVPSCALE
 40
0.0
  9
$OLESTARTUP
290
0
  9
$SORTENTS
280
127
  9
$INDEXCTL
280
0
  9
$HIDETEXT
280
1
  9
$XCLIPFRAME
280
1
  9
$HALOGAP
280
0
  9
$OBSCOLOR
 70
257
  9
$OBSLTYPE
280
0
  9
$INTERSECTIONDISPLAY
280
0
  9
$INTERSECTIONCOLOR
 70
257
  9
$DIMASSOC
280
2
  9
$PROJECTNAME
  1

  9
$CAMERADISPLAY
290
0
  9
$LENSLENGTH
 40
50.0
  9
$CAMERAHEIGHT
 40
0.0
  9
$STEPSPERSEC
 40
24.0
  9
$STEPSIZE
 40
100.0
  9
$3DDWFPREC
 40
2.0
  9
$PSOLWIDTH
 40
0.005
  9
$PSOLHEIGHT
 40
0.08
  9
$LOFTANG1
 40
1.570796326795
  9
$LOFTANG2
 40
1.570796326795
  9
$LOFTMAG1
 40
0.0
  9
$LOFTMAG2
 40
0.0
  9
$LOFTPARAM
 70
7
  9
$LOFTNORMALS
280
1
  9
$LATITUDE
 40
37.795
  9
$LONGITUDE
 40
-122.394
  9
$NORTHDIRECTION
 40
0.0
  9
$TIMEZONE
 70
-8000
  9
$LIGHTGLYPHDISPLAY
280
1
  9
$TILEMODELIGHTSYNCH
280
1
  9
$CMATERIAL
347
20
  9
$SOLIDHIST
280
0
  9
$SHOWHIST
280
1
  9
$DWFFRAME
280
2
  9
$DGNFRAME
280
2
  9
$REALWORLDSCALE
290
1
  9
$INTERFERECOLOR
 62
256
  9
$CSHADOW
280
0
  9
$SHADOWPLANELOCATION
 40
0.0
  0
ENDSEC
  0
SECTION
  2
CLASSES
  0
CLASS
  1
ACDBDICTIONARYWDFLT
  2
AcDbDictionaryWithDefault
  3
ObjectDBX Classes
 90
0
 91
0
280
0
281
0
  0
CLASS
  1
SUN
  2
AcDbSun
  3
SCENEOE
 90
1153
 91
0
280
0
281
0
  0
CLASS
  1
VISUALSTYLE
  2
AcDbVisualStyle
  3
ObjectDBX Classes
 90
4095
 91
0
280
0
281
0
  0
CLASS
  1
MATERIAL
  2
AcDbMaterial
  3
ObjectDBX Classes
 90
1153
 91
0
280
0
281
0
  0
CLASS
  1
SCALE
  2
AcDbScale
  3
ObjectDBX Classes
 90
1153
 91
0
280
0
281
0
  0
CLASS
  1
TABLESTYLE
  2
AcDbTableStyle
  3
ObjectDBX Classes
 90
4095
 91
0
280
0
281
0
  0
CLASS
  1
MLEADERSTYLE
  2
AcDbMLeaderStyle
  3
ACDB_MLEADERSTYLE_CLASS
 90
4095
 91
0
280
0
281
0
  0
CLASS
  1
DICTIONARYVAR
  2
AcDbDictionaryVar
  3
ObjectDBX Classes
 90
0
 91
0
280
0
281
0
  0
CLASS
  1
CELLSTYLEMAP
  2
AcDbCellStyleMap
  3
ObjectDBX Classes
 90
1152
 91
0
280
0
281
0
  0
CLASS
  1
MENTALRAYRENDERSETTINGS
  2
AcDbMentalRayRenderSettings
  3
SCENEOE
 90
1024
 91
0
280
0
281
0
  0
CLASS
  1
ACDBDETAILVIEWSTYLE
  2
AcDbDetailViewStyle
  3
ObjectDBX Classes
 90
1025
 91
0
280
0
281
0
  0
CLASS
  1
ACDBSECTIONVIEWSTYLE
  2
AcDbSectionViewStyle
  3
ObjectDBX Classes
 90
1025
 91
0
280
0
281
0
  0
CLASS
  1
RASTERVARIABLES
  2
AcDbRasterVariables
  3
ISM
 90
0
 91
0
280
0
281
0
  0
CLASS
  1
ACDBPLACEHOLDER
  2
AcDbPlaceHolder
  3
ObjectDBX Classes
 90
0
 91
0
280
0
281
0
  0
CLASS
  1
LAYOUT
  2
AcDbLayout
  3
ObjectDBX Classes
 90
0
 91
0
280
0
281
0
  0
ENDSEC
  0
SECTION
  2
TABLES
  0
TABLE
  2
VPORT
  5
8
330
0
100
AcDbSymbolTable
 70
1
  0
VPORT
  5
23
330
8
100
AcDbSymbolTableRecord
100
AcDbViewportTableRecord
  2
*Active
 70
0
 10
0.0
 20
0.0
 11
1.0
 21
1.0
 12
0.0
 22
0.0
 13
0.0
 23
0.0
 14
0.5
 24
0.5
 15
0.5
 25
0.5
 16
0.0
 26
0.0
 36
1.0
 17
0.0
 27
0.0
 37
0.0
 40
1000.0
 41
1.34
 42
50.0
 43
0.0
 44
0.0
 50
0.0
 51
0.0
 71
0
 72
1000
 73
1
 74
3
 75
0
 76
0
 77
0
 78
0
281
0
 65
0
146
0.0
  0
ENDTAB
  0
TABLE
  2
LTYPE
  5
2
330
0
100
AcDbSymbolTable
 70
21
  0
LTYPE
  5
24
330
2
100
AcDbSymbolTableRecord
100
AcDbLinetypeTableRecord
  2
ByBlock
 70
0
  3

 72
65
 73
0
 40
0.0
  0
LTYPE
  5
25
330
2
100
AcDbSymbolTableRecord
100
AcDbLinetypeTableRecord
  2
ByLayer
 70
0
  3

 72
65
 73
0
 40
0.0
  0
LTYPE
  5
26
330
2
100
AcDbSymbolTableRecord
100
AcDbLinetypeTableRecord
  2
Continuous
 70
0
  3

 72
65
 73
0
 40
0.0
  0
LTYPE
  5
2F
330
2
100
AcDbSymbolTableRecord
100
AcDbLinetypeTableRecord
  2
CENTER
 70
0
  3
Center ____ _ ____ _ ____ _ ____ _ ____ _ ____
 72
65
 73
4
 40
5.08
 49
3.175
 74
0
 49
-0.635
 74
0
 49
0.635
 74
0
 49
-0.635
 74
0
  0
LTYPE
  5
30
330
2
100
AcDbSymbolTableRecord
100
AcDbLinetypeTableRecord
  2
CENTERX2
 70
0
  3
Center (2x) ________  __  ________  __  ________
 72
65
 73
4
 40
8.89
 49
6.35
 74
0
 49
-0.635
 74
0
 49
1.27
 74
0
 49
-0.635
 74
0
  0
LTYPE
  5
31
330
2
100
AcDbSymbolTableRecord
100
AcDbLinetypeTableRecord
  2
CENTER2
 70
0
  3
Center (.5x) ____ _ ____ _ ____ _ ____ _ ____
 72
65
 73
4
 40
2.54
 49
1.587
 74
0
 49
-0.318
 74
0
 49
0.318
 74
0
 49
-0.318
 74
0
  0
LTYPE
  5
32
330
2
100
AcDbSymbolTableRecord
100
AcDbLinetypeTableRecord
  2
DASHED
 70
0
  3
Dashed __ __ __ __ __ __ __ __ __ __ __ __ __ _
 72
65
 73
2
 40
1.524
 49
1.27
 74
0
 49
-0.254
 74
0
  0
LTYPE
  5
33
330
2
100
AcDbSymbolTableRecord
100
AcDbLinetypeTableRecord
  2
DASHEDX2
 70
0
  3
Dashed (2x) ____  ____  ____  ____  ____  ____
 72
65
 73
2
 40
3.048
 49
2.54
 74
0
 49
-0.508
 74
0
  0
LTYPE
  5
34
330
2
100
AcDbSymbolTableRecord
100
AcDbLinetypeTableRecord
  2
DASHED2
 70
0
  3
Dashed (.5x) _ _ _ _ _ _ _ _ _ _ _ _ _ _
 72
65
 73
2
 40
0.762
 49
0.635
 74
0
 49
-0.127
 74
0
  0
LTYPE
  5
35
330
2
100
AcDbSymbolTableRecord
100
AcDbLinetypeTableRecord
  2
PHANTOM
 70
0
  3
Phantom ______  __  __  ______  __  __  ______
 72
65
 73
6
 40
6.35
 49
3.175
 74
0
 49
-0.635
 74
0
 49
0.635
 74
0
 49
-0.635
 74
0
 49
0.635
 74
0
 49
-0.635
 74
0
  0
LTYPE
  5
36
330
2
100
AcDbSymbolTableRecord
100
AcDbLinetypeTableRecord
  2
PHANTOMX2
 70
0
  3
Phantom (2x)____________    ____    ____    ____________
 72
65
 73
6
 40
10.795
 49
6.35
 74
0
 49
-0.635
 74
0
 49
1.27
 74
0
 49
-0.635
 74
0
 49
1.27
 74
0
 49
-0.635
 74
0
  0
LTYPE
  5
37
330
2
100
AcDbSymbolTableRecord
100
AcDbLinetypeTableRecord
  2
PHANTOM2
 70
0
  3
Phantom (.5x) ___ _ _ ___ _ _ ___ _ _ ___ _ _ ___
 72
65
 73
6
 40
3.175
 49
1.587
 74
0
 49
-0.318
 74
0
 49
0.318
 74
0
 49
-0.318
 74
0
 49
0.318
 74
0
 49
-0.318
 74
0
  0
LTYPE
  5
38
330
2
100
AcDbSymbolTableRecord
100
AcDbLinetypeTableRecord
  2
DASHDOT
 70
0
  3
Dash dot __ . __ . __ . __ . __ . __ . __ . __
 72
65
 73
4
 40
3.556
 49
2.54
 74
0
 49
-0.508
 74
0
 49
0.0
 74
0
 49
-0.508
 74
0
  0
LTYPE
  5
39
330
2
100
AcDbSymbolTableRecord
100
AcDbLinetypeTableRecord
  2
DASHDOTX2
 70
0
  3
Dash dot (2x) ____  .  ____  .  ____  .  ____
 72
65
 73
4
 40
6.096
 49
5.08
 74
0
 49
-0.508
 74
0
 49
0.0
 74
0
 49
-0.508
 74
0
  0
LTYPE
  5
3A
330
2
100
AcDbSymbolTableRecord
100
AcDbLinetypeTableRecord
  2
DASHDOT2
 70
0
  3
Dash dot (.5x) _ . _ . _ . _ . _ . _ . _ . _
 72
65
 73
4
 40
1.778
 49
1.27
 74
0
 49
-0.254
 74
0
 49
0.0
 74
0
 49
-0.254
 74
0
  0
LTYPE
  5
3B
330
2
100
AcDbSymbolTableRecord
100
AcDbLinetypeTableRecord
  2
DOT
 70
0
  3
Dot .  .  .  .  .  .  .  .  .  .  .  .  .  .  .  .
 72
65
 73
2
 40
0.508
 49
0.0
 74
0
 49
-0.508
 74
0
  0
LTYPE
  5
3C
330
2
100
AcDbSymbolTableRecord
100
AcDbLinetypeTableRecord
  2
DOTX2
 70
0
  3
Dot (2x) .    .    .    .    .    .    .    . 
 72
65
 73
2
 40
1.016
 49
0.0
 74
0
 49
-1.016
 74
0
  0
LTYPE
  5
3D
330
2
100
AcDbSymbolTableRecord
100
AcDbLinetypeTableRecord
  2
DOT2
 70
0
  3
Dot (.5) . . . . . . . . . . . . . . . . . . . 
 72
65
 73
2
 40
0.254
 49
0.0
 74
0
 49
-0.254
 74
0
  0
LTYPE
  5
3E
330
2
100
AcDbSymbolTableRecord
100
AcDbLinetypeTableRecord
  2
DIVIDE
 70
0
  3
Divide __ . . __ . . __ . . __ . . __ . . __
 72
65
 73
6
 40
4.064
 49
2.54
 74
0
 49
-0.508
 74
0
 49
0.0
 74
0
 49
-0.508
 74
0
 49
0.0
 74
0
 49
-0.508
 74
0
  0
LTYPE
  5
3F
330
2
100
AcDbSymbolTableRecord
100
AcDbLinetypeTableRecord
  2
DIVIDEX2
 70
0
  3
Divide (2x) ____  . .  ____  . .  ____  . .  ____
 72
65
 73
6
 40
6.604
 49
5.08
 74
0
 49
-0.508
 74
0
 49
0.0
 74
0
 49
-0.508
 74
0
 49
0.0
 74
0
 49
-0.508
 74
0
  0
LTYPE
  5
40
330
2
100
AcDbSymbolTableRecord
100
AcDbLinetypeTableRecord
  2
DIVIDE2
 70
0
  3
Divide(.5x) _ . _ . _ . _ . _ . _ . _ . _
 72
65
 73
6
 40
2.032
 49
1.27
 74
0
 49
-0.254
 74
0
 49
0.0
 74
0
 49
-0.254
 74
0
 49
0.0
 74
0
 49
-0.254
 74
0
  0
ENDTAB
  0
TABLE
  2
LAYER
  5
1
330
0
100
AcDbSymbolTable
 70
8
  0
LAYER
  5
27
330
1
100
AcDbSymbolTableRecord
100
AcDbLayerTableRecord
  2
0
 70
0
 62
7
  6
Continuous
370
-3
390
13
347
21
  0
LAYER
  5
28
330
1
100
AcDbSymbolTableRecord
100
AcDbLayerTableRecord
  2
Defpoints
 70
0
 62
7
  6
Continuous
290
0
370
-3
390
13
347
21
  0
LAYER
  5
8A
330
1
100
AcDbSymbolTableRecord
100
AcDbLayerTableRecord
  2
CUT_OUT
 70
0
 62
7
  6
Continuous
370
-3
390
13
347
21
  0
LAYER
  5
8B
330
1
100
AcDbSymbolTableRecord
100
AcDbLayerTableRecord
  2
CUT_IN
 70
0
 62
1
  6
Continuous
370
-3
390
13
347
21
  0
LAYER
  5
8C
330
1
100
AcDbSymbolTableRecord
100
AcDbLayerTableRecord
  2
DRILL
 70
0
 62
3
  6
Continuous
370
-3
390
13
347
21
  0
LAYER
  5
8D
330
1
100
AcDbSymbolTableRecord
100
AcDbLayerTableRecord
  2
MARK
 70
0
 62
5
  6
Continuous
370
-3
390
13
347
21
  0
LAYER
  5
8E
330
1
100
AcDbSymbolTableRecord
100
AcDbLayerTableRecord
  2
TEXT
 70
0
 62
8
  6
Continuous
370
-3
390
13
347
21
  0
LAYER
  5
8F
330
1
100
AcDbSymbolTableRecord
100
AcDbLayerTableRecord
  2
SHEET
 70
0
 62
9
  6
Continuous
370
-3
390
13
347
21
  0
ENDTAB
  0
TABLE
  2
STYLE
  5
5
330
0
100
AcDbSymbolTable
 70
26
  0
STYLE
  5
29
330
5
100
AcDbSymbolTableRecord
100
AcDbTextStyleTableRecord
  2
Standard
 70
0
 40
0.0
 41
1.0
 50
0.0
 71
0
 42
2.5
  3
txt
  4

  0
STYLE
  5
41
330
5
100
AcDbSymbolTableRecord
100
AcDbTextStyleTableRecord
  2
OpenSans-Light
 70
0
 40
0.0
 41
1.0
 50
0.0
 71
0
 42
2.5
  3
OpenSans-Light.ttf
  4

  0
STYLE
  5
42
330
5
100
AcDbSymbolTableRecord
100
AcDbTextStyleTableRecord
  2
OpenSans-Light-Italic
 70
0
 40
0.0
 41
1.0
 50
0.0
 71
0
 42
2.5
  3
OpenSans-LightItalic.ttf
  4

  0
STYLE
  5
43
330
5
100
AcDbSymbolTableRecord
100
AcDbTextStyleTableRecord
  2
OpenSans
 70
0
 40
0.0
 41
1.0
 50
0.0
 71
0
 42
2.5
  3
OpenSans-Regular.ttf
  4

  0
STYLE
  5
44
330
5
100
AcDbSymbolTableRecord
100
AcDbTextStyleTableRecord
  2
OpenSans-Italic
 70
0
 40
0.0
 41
1.0
 50
0.0
 71
0
 42
2.5
  3
OpenSans-Italic.ttf
  4

  0
STYLE
  5
45
330
5
100
AcDbSymbolTableRecord
100
AcDbTextStyleTableRecord
  2
OpenSans-SemiBold
 70
0
 40
0.0
 41
1.0
 50
0.0
 71
0
 42
2.5
  3
OpenSans-SemiBold.ttf
  4

  0
STYLE
  5
46
330
5
100
AcDbSymbolTableRecord
100
AcDbTextStyleTableRecord
  2
OpenSans-SemiBoldItalic
 70
0
 40
0.0
 41
1.0
 50
0.0
 71
0
 42
2.5
  3
OpenSans-SemiBoldItalic.ttf
  4

  0
STYLE
  5
47
330
5
100
AcDbSymbolTableRecord
100
AcDbTextStyleTableRecord
  2
OpenSans-Bold
 70
0
 40
0.0
 41
1.0
 50
0.0
 71
0
 42
2.5
  3
OpenSans-Bold.ttf
  4

  0
STYLE
  5
48
330
5
100
AcDbSymbolTableRecord
100
AcDbTextStyleTableRecord
  2
OpenSans-BoldItalic
 70
0
 40
0.0
 41
1.0
 50
0.0
 71
0
 42
2.5
  3
OpenSans-BoldItalic.ttf
  4

  0
STYLE
  5
49
330
5
100
AcDbSymbolTableRecord
100
AcDbTextStyleTableRecord
  2
OpenSans-ExtraBold
 70
0
 40
0.0
 41
1.0
 50
0.0
 71
0
 42
2.5
  3
OpenSans-ExtraBold.ttf
  4

  0
STYLE
  5
4A
330
5
100
AcDbSymbolTableRecord
100
AcDbTextStyleTableRecord
  2
OpenSans-ExtraBoldItalic
 70
0
 40
0.0
 41
1.0
 50
0.0
 71
0
 42
2.5
  3
OpenSans-ExtraBoldItalic.ttf
  4

  0
STYLE
  5
4B
330
5
100
AcDbSymbolTableRecord
100
AcDbTextStyleTableRecord
  2
OpenSansCondensed-Bold
 70
0
 40
0.0
 41
1.0
 50
0.0
 71
0
 42
2.5
  3
OpenSansCondensed-Bold.ttf
  4

  0
STYLE
  5
4C
330
5
100
AcDbSymbolTableRecord
100
AcDbTextStyleTableRecord
  2
OpenSansCondensed-Light
 70
0
 40
0.0
 41
1.0
 50
0.0
 71
0
 42
2.5
  3
OpenSansCondensed-Light.ttf
  4

  0
STYLE
  5
4D
330
5
100
AcDbSymbolTableRecord
100
AcDbTextStyleTableRecord
  2
OpenSansCondensed-Italic
 70
0
 40
0.0
 41
1.0
 50
0.0
 71
0
 42
2.5
  3
OpenSansCondensed-LightItalic.ttf
  4

  0
STYLE
  5
4E
330
5
100
AcDbSymbolTableRecord
100
AcDbTextStyleTableRecord
  2
LiberationSans
 70
0
 40
0.0
 41
1.0
 50
0.0
 71
0
 42
2.5
  3
LiberationSans-Regular.ttf
  4

  0
STYLE
  5
4F
330
5
100
AcDbSymbolTableRecord
100
AcDbTextStyleTableRecord
  2
LiberationSans-Bold
 70
0
 40
0.0
 41
1.0
 50
0.0
 71
0
 42
2.5
  3
LiberationSans-Bold.ttf
  4

  0
STYLE
  5
50
330
5
100
AcDbSymbolTableRecord
100
AcDbTextStyleTableRecord
  2
LiberationSans-BoldItalic
 70
0
 40
0.0
 41
1.0
 50
0.0
 71
0
 42
2.5
  3
LiberationSans-BoldItalic.ttf
  4

  0
STYLE
  5
51
330
5
100
AcDbSymbolTableRecord
100
AcDbTextStyleTableRecord
  2
LiberationSans-Italic
 70
0
 40
0.0
 41
1.0
 50
0.0
 71
0
 42
2.5
  3
LiberationSans-Italic.ttf
  4

  0
STYLE
  5
52
330
5
100
AcDbSymbolTableRecord
100
AcDbTextStyleTableRecord
  2
LiberationSerif
 70
0
 40
0.0
 41
1.0
 50
0.0
 71
0
 42
2.5
  3
LiberationSerif-Regular.ttf
  4

  0
STYLE
  5
53
330
5
100
AcDbSymbolTableRecord
100
AcDbTextStyleTableRecord
  2
LiberationSerif-Bold
 70
0
 40
0.0
 41
1.0
 50
0.0
 71
0
 42
2.5
  3
LiberationSerif-Bold.ttf
  4

  0
STYLE
  5
54
330
5
100
AcDbSymbolTableRecord
100
AcDbTextStyleTableRecord
  2
LiberationSerif-BoldItalic
 70
0
 40
0.0
 41
1.0
 50
0.0
 71
0
 42
2.5
  3
LiberationSerif-BoldItalic.ttf
  4

  0
STYLE
  5
55
330
5
100
AcDbSymbolTableRecord
100
AcDbTextStyleTableRecord
  2
LiberationSerif-Italic
 70
0
 40
0.0
 41
1.0
 50
0.0
 71
0
 42
2.5
  3
LiberationSerif-Italic.ttf
  4

  0
STYLE
  5
56
330
5
100
AcDbSymbolTableRecord
100
AcDbTextStyleTableRecord
  2
LiberationMono
 70
0
 40
0.0
 41
1.0
 50
0.0
 71
0
 42
2.5
  3
LiberationMono-Regular.ttf
  4

  0
STYLE
  5
57
330
5
100
AcDbSymbolTableRecord
100
AcDbTextStyleTableRecord
  2
LiberationMono-Bold
 70
0
 40
0.0
 41
1.0
 50
0.0
 71
0
 42
2.5
  3
LiberationMono-Bold.ttf
  4

  0
STYLE
  5
58
330
5
100
AcDbSymbolTableRecord
100
AcDbTextStyleTableRecord
  2
LiberationMono-BoldItalic
 70
0
 40
0.0
 41
1.0
 50
0.0
 71
0
 42
2.5
  3
LiberationMono-BoldItalic.ttf
  4

  0
STYLE
  5
59
330
5
100
AcDbSymbolTableRecord
100
AcDbTextStyleTableRecord
  2
LiberationMono-Italic
 70
0
 40
0.0
 41
1.0
 50
0.0
 71
0
 42
2.5
  3
LiberationMono-Italic.ttf
  4

  0
ENDTAB
  0
TABLE
  2
VIEW
  5
7
330
0
100
AcDbSymbolTable
 70
0
  0
ENDTAB
  0
TABLE
  2
UCS
  5
6
330
0
100
AcDbSymbolTable
 70
0
  0
ENDTAB
  0
TABLE
  2
APPID
  5
3
330
0
100
AcDbSymbolTable
 70
3
  0
APPID
  5
2A
330
3
100
AcDbSymbolTableRecord
100
AcDbRegAppTableRecord
  2
ACAD
 70
0
  0
APPID
  5
92
330
3
100
AcDbSymbolTableRecord
100
AcDbRegAppTableRecord
  2
HATCHBACKGROUNDCOLOR
 70
0
  0
APPID
  5
93
330
3
100
AcDbSymbolTableRecord
100
AcDbRegAppTableRecord
  2
EZDXF
 70
0
  0
ENDTAB
  0
TABLE
  2
DIMSTYLE
  5
4
330
0
100
AcDbSymbolTable
 70
12
100
AcDbDimStyleTable
  0
DIMSTYLE
105
2B
330
4
100
AcDbSymbolTableRecord
100
AcDbDimStyleTableRecord
  2
Standard
 70
0
 40
1.0
 41
2.5
 42
0.625
 43
3.75
 44
1.25
 45
0.0
 46
0.0
 47
0.0
 48
0.0
 49
2.5
140
2.5
141
2.5
142
0.0
143
0.03937007874
144
1.0
145
0.0
146
1.0
147
0.625
148
0.0
 69
0
 70
0
 71
0
 72
0
 73
0
 74
0
 75
0
 76
0
 77
1
 78
8
 79
3
170
0
171
3
172
1
173
0
174
0
175
0
176
0
177
0
178
0
179
2
271
2
272
2
273
2
274
3
275
0
276
0
277
2
278
44
279
0
280
0
281
0
282
0
283
0
284
8
285
0
286
0
288
0
289
3
290
0
371
-2
372
-2
  0
DIMSTYLE
105
73
330
4
100
AcDbSymbolTableRecord
100
AcDbDimStyleTableRecord
  2
EZDXF
 70
0
 40
1.0
 41
0.175
 42
0.125
 43
3.75
 44
0.375
 45
0.0
 46
0.0
 47
0.0
 48
0.0
 49
2.5
140
0.25
141
2.5
142
0.0
143
0.03937007874
144
100.0
145
0.0
146
0.5
147
0.1
148
0.0
 69
0
 70
0
 71
0
 72
0
 73
0
 74
0
 75
0
 76
0
 77
1
 78
12
 79
3
170
0
171
3
172
1
173
0
174
0
175
0
176
0
177
0
178
0
179
2
271
2
272
2
273
2
274
3
275
0
276
0
277
2
278
46
279
2
280
0
281
0
282
0
283
0
284
8
285
0
286
0
288
1
289
3
290
0
340
4C
342
74
371
-2
372
-2
  0
DIMSTYLE
105
7C
330
4
100
AcDbSymbolTableRecord
100
AcDbDimStyleTableRecord
  2
EZ_M_100_H25_CM
 70
0
 40
1.0
 41
0.25
 42
0.125
 43
3.75
 44
0.375
 45
0.0
 46
0.0
 47
0.0
 48
0.0
 49
2.5
140
0.25
141
2.5
142
0.125
143
0.03937007874
144
100.0
145
0.0
146
0.5
147
0.1
148
0.0
 69
0
 70
0
 71
0
 72
0
 73
0
 74
0
 75
0
 76
0
 77
1
 78
12
 79
3
170
0
171
3
172
1
173
0
174
0
175
0
176
0
177
0
178
0
179
2
271
2
272
2
273
2
274
3
275
0
276
0
277
2
278
46
279
2
280
0
281
0
282
0
283
0
284
8
285
0
286
0
288
1
289
3
290
0
340
4C
371
-2
372
-2
  0
DIMSTYLE
105
7D
330
4
100
AcDbSymbolTableRecord
100
AcDbDimStyleTableRecord
  2
EZ_M_50_H25_CM
 70
0
 40
1.0
 41
0.125
 42
0.0625
 43
3.75
 44
0.1875
 45
0.0
 46
0.0
 47
0.0
 48
0.0
 49
2.5
140
0.125
141
2.5
142
0.0625
143
0.03937007874
144
100.0
145
0.0
146
0.5
147
0.05
148
0.0
 69
0
 70
0
 71
0
 72
0
 73
0
 74
0
 75
0
 76
0
 77
1
 78
12
 79
3
170
0
171
3
172
1
173
0
174
0
175
0
176
0
177
0
178
0
179
2
271
2
272
2
273
2
274
3
275
0
276
0
277
2
278
46
279
2
280
0
281
0
282
0
283
0
284
8
285
0
286
0
288
1
289
3
290
0
340
4C
371
-2
372
-2
  0
DIMSTYLE
105
7E
330
4
100
AcDbSymbolTableRecord
100
AcDbDimStyleTableRecord
  2
EZ_M_25_H25_CM
 70
0
 40
1.0
 41
0.0625
 42
0.03125
 43
3.75
 44
0.09375
 45
0.0
 46
0.0
 47
0.0
 48
0.0
 49
2.5
140
0.0625
141
2.5
142
0.03125
143
0.03937007874
144
100.0
145
0.0
146
0.5
147
0.025
148
0.0
 69
0
 70
0
 71
0
 72
0
 73
0
 74
0
 75
0
 76
0
 77
1
 78
12
 79
3
170
0
171
3
172
1
173
0
174
0
175
0
176
0
177
0
178
0
179
2
271
2
272
2
273
2
274
3
275
0
276
0
277
2
278
46
279
2
280
0
281
0
282
0
283
0
284
8
285
0
286
0
288
1
289
3
290
0
340
4C
371
-2
372
-2
  0
DIMSTYLE
105
7F
330
4
100
AcDbSymbolTableRecord
100
AcDbDimStyleTableRecord
  2
EZ_M_20_H25_CM
 70
0
 40
1.0
 41
0.05
 42
0.025
 43
3.75
 44
0.07500000000000001
 45
0.0
 46
0.0
 47
0.0
 48
0.0
 49
2.5
140
0.05
141
2.5
142
0.025
143
0.03937007874
144
100.0
145
0.0
146
0.5
147
0.020000000000000004
148
0.0
 69
0
 70
0
 71
0
 72
0
 73
0
 74
0
 75
0
 76
0
 77
1
 78
12
 79
3
170
0
171
3
172
1
173
0
174
0
175
0
176
0
177
0
178
0
179
2
271
2
272
2
273
2
274
3
275
0
276
0
277
2
278
46
279
2
280
0
281
0
282
0
283
0
284
8
285
0
286
0
288
1
289
3
290
0
340
4C
371
-2
372
-2
  0
DIMSTYLE
105
80
330
4
100
AcDbSymbolTableRecord
100
AcDbDimStyleTableRecord
  2
EZ_M_10_H25_CM
 70
0
 40
1.0
 41
0.025
 42
0.0125
 43
3.75
 44
0.037500000000000006
 45
0.0
 46
0.0
 47
0.0
 48
0.0
 49
2.5
140
0.025
141
2.5
142
0.0125
143
0.03937007874
144
100.0
145
0.0
146
0.5
147
0.010000000000000002
148
0.0
 69
0
 70
0
 71
0
 72
0
 73
0
 74
0
 75
0
 76
0
 77
1
 78
12
 79
3
170
0
171
3
172
1
173
0
174
0
175
0
176
0
177
0
178
0
179
2
271
2
272
2
273
2
274
3
275
0
276
0
277
2
278
46
279
2
280
0
281
0
282
0
283
0
284
8
285
0
286
0
288
1
289
3
290
0
340
4C
371
-2
372
-2
  0
DIMSTYLE
105
81
330
4
100
AcDbSymbolTableRecord
100
AcDbDimStyleTableRecord
  2
EZ_M_5_H25_CM
 70
0
 40
1.0
 41
0.0125
 42
0.00625
 43
3.75
 44
0.018750000000000003
 45
0.0
 46
0.0
 47
0.0
 48
0.0
 49
2.5
140
0.0125
141
2.5
142
0.00625
143
0.03937007874
144
100.0
145
0.0
146
0.5
147
0.005000000000000001
148
0.0
 69
0
 70
0
 71
0
 72
0
 73
0
 74
0
 75
0
 76
0
 77
1
 78
12
 79
3
170
0
171
3
172
1
173
0
174
0
175
0
176
0
177
0
178
0
179
2
271
2
272
2
273
2
274
3
275
0
276
0
277
2
278
46
279
2
280
0
281
0
282
0
283
0
284
8
285
0
286
0
288
1
289
3
290
0
340
4C
371
-2
372
-2
  0
DIMSTYLE
105
82
330
4
100
AcDbSymbolTableRecord
100
AcDbDimStyleTableRecord
  2
EZ_M_1_H25_CM
 70
0
 40
1.0
 41
0.0025
 42
0.00125
 43
3.75
 44
0.00375
 45
0.0
 46
0.0
 47
0.0
 48
0.0
 49
2.5
140
0.0025
141
2.5
142
0.00125
143
0.03937007874
144
100.0
145
0.0
146
0.5
147
0.001
148
0.0
 69
0
 70
0
 71
0
 72
0
 73
0
 74
0
 75
0
 76
0
 77
1
 78
12
 79
3
170
0
171
3
172
1
173
0
174
0
175
0
176
0
177
0
178
0
179
2
271
2
272
2
273
2
274
3
275
0
276
0
277
2
278
46
279
2
280
0
281
0
282
0
283
0
284
8
285
0
286
0
288
1
289
3
290
0
340
4C
371
-2
372
-2
  0
DIMSTYLE
105
83
330
4
100
AcDbSymbolTableRecord
100
AcDbDimStyleTableRecord
  2
EZ_RADIUS
 70
0
 40
1.0
 41
0.25
 42
0.125
 43
3.75
 44
0.375
 45
0.0
 46
0.0
 47
0.0
 48
0.0
 49
2.5
140
0.25
141
0.0
142
0.0
143
0.03937007874
144
100.0
145
0.0
146
0.5
147
0.1
148
0.0
 69
0
 70
0
 71
0
 72
0
 73
0
 74
0
 75
0
 76
0
 77
1
 78
12
 79
3
170
0
171
3
172
0
173
0
174
0
175
0
176
0
177
0
178
0
179
2
271
2
272
2
273
2
274
3
275
0
276
0
277
2
278
46
279
1
280
0
281
0
282
0
283
0
284
8
285
0
286
0
288
1
289
3
290
0
340
4C
342
84
371
-2
372
-2
  0
DIMSTYLE
105
88
330
4
100
AcDbSymbolTableRecord
100
AcDbDimStyleTableRecord
  2
EZ_RADIUS_INSIDE
 70
0
 40
1.0
 41
0.25
 42
0.125
 43
3.75
 44
0.375
 45
0.0
 46
0.0
 47
0.0
 48
0.0
 49
2.5
140
0.25
141
0.0
142
0.0
143
0.03937007874
144
100.0
145
0.0
146
0.5
147
0.1
148
0.0
 69
0
 70
0
 71
0
 72
0
 73
0
 74
0
 75
0
 76
0
 77
0
 78
12
 79
3
170
0
171
3
172
0
173
0
174
1
175
0
176
0
177
0
178
0
179
2
271
2
272
2
273
2
274
3
275
0
276
0
277
2
278
46
279
0
280
0
281
0
282
0
283
0
284
8
285
0
286
0
288
1
289
0
290
0
340
4C
342
84
371
-2
372
-2
  0
DIMSTYLE
105
89
330
4
100
AcDbSymbolTableRecord
100
AcDbDimStyleTableRecord
  2
EZ_CURVED
 70
0
 40
1.0
 41
0.25
 42
0.125
 43
3.75
 44
0.375
 45
0.0
 46
0.0
 47
0.0
 48
0.0
 49
2.5
140
0.25
141
2.5
142
0.0
143
0.03937007874
144
100.0
145
0.0
146
0.5
147
0.1
148
0.0
 69
0
 70
0
 71
0
 72
0
 73
0
 74
0
 75
0
 76
0
 77
1
 78
12
 79
2
 90
2
170
0
171
3
172
1
173
0
174
0
175
0
176
0
177
0
178
0
179
2
271
2
272
2
273
2
274
3
275
0
276
0
277
2
278
46
279
2
280
0
281
0
282
0
283
0
284
8
285
0
286
0
288
1
289
3
290
0
340
4C
371
-2
372
-2
  0
ENDTAB
  0
TABLE
  2
BLOCK_RECORD
  5
9
330
0
100
AcDbSymbolTable
 70
5
  0
BLOCK_RECORD
  5
17
330
9
100
AcDbSymbolTableRecord
100
AcDbBlockTableRecord
  2
*Model_Space
340
1A
 70
0
280
1
281
0
  0
BLOCK_RECORD
  5
1B
330
9
100
AcDbSymbolTableRecord
100
AcDbBlockTableRecord
  2
*Paper_Space
340
1E
 70
0
280
1
281
0
  0
BLOCK_RECORD
  5
74
330
9
100
AcDbSymbolTableRecord
100
AcDbBlockTableRecord
  2
_ARCHTICK
340
0
 70
0
280
1
281
0
  0
BLOCK_RECORD
  5
78
330
9
100
AcDbSymbolTableRecord
100
AcDbBlockTableRecord
  2
_CLOSEDFILLED
340
0
 70
0
280
1
281
0
  0
BLOCK_RECORD
  5
84
330
9
100
AcDbSymbolTableRecord
100
AcDbBlockTableRecord
  2
_CLOSEDBLANK
340
0
 70
0
280
1
281
0
  0
ENDTAB
  0
ENDSEC
  0
SECTION
  2
BLOCKS
  0
BLOCK
  5
18
330
17
100
AcDbEntity
  8
0
100
AcDbBlockBegin
  2
*Model_Space
 70
0
 10
0.0
 20
0.0
 30
0.0
  3
*Model_Space
  1

  0
ENDBLK
  5
19
330
17
100
AcDbEntity
  8
0
100
AcDbBlockEnd
  0
BLOCK
  5
1C
330
1B
100
AcDbEntity
  8
0
100
AcDbBlockBegin
  2
*Paper_Space
 70
0
 10
0.0
 20
0.0
 30
0.0
  3
*Paper_Space
  1

  0
ENDBLK
  5
1D
330
1B
100
AcDbEntity
  8
0
100
AcDbBlockEnd
  0
BLOCK
  5
75
330
74
100
AcDbEntity
  8
0
100
AcDbBlockBegin
  2
_ARCHTICK
 70
0
 10
0.0
 20
0.0
 30
0.0
  3
_ARCHTICK
  1

  0
LWPOLYLINE
  5
77
330
74
100
AcDbEntity
  8
0
  6
BYBLOCK
 62
0
100
AcDbPolyline
 90
2
 70
0
 43
0.15
 10
-0.5
 20
-0.5
 10
0.5
 20
0.5
  0
ENDBLK
  5
76
330
74
100
AcDbEntity
  8
0
100
AcDbBlockEnd
  0
BLOCK
  5
79
330
78
100
AcDbEntity
  8
0
100
AcDbBlockBegin
  2
_CLOSEDFILLED
 70
0
 10
0.0
 20
0.0
 30
0.0
  3
_CLOSEDFILLED
  1

  0
SOLID
  5
7B
330
78
100
AcDbEntity
  8
0
  6
BYBLOCK
 62
0
100
AcDbTrace
 10
-1.0
 20
0.16439898372402537
 30
0.0
 11
0.0
 21
0.0
 31
0.0
 12
-1.0
 22
-0.16439898372402537
 32
0.0
 13
-1.0
 23
-0.16439898372402537
 33
0.0
  0
ENDBLK
  5
7A
330
78
100
AcDbEntity
  8
0
100
AcDbBlockEnd
  0
BLOCK
  5
85
330
84
100
AcDbEntity
  8
0
100
AcDbBlockBegin
  2
_CLOSEDBLANK
 70
0
 10
0.0
 20
0.0
 30
0.0
  3
_CLOSEDBLANK
  1

  0
LWPOLYLINE
  5
87
330
84
100
AcDbEntity
  8
0
  6
BYBLOCK
 62
0
100
AcDbPolyline
 90
3
 70
1
 10
-1.0
 20
0.16439898372402537
 10
0.0
 20
0.0
 10
-1.0
 20
-0.16439898372402537
  0
ENDBLK
  5
86
330
84
100
AcDbEntity
  8
0
100
AcDbBlockEnd
  0
ENDSEC
  0
SECTION
  2
ENTITIES
  0
LWPOLYLINE
  5
90
330
17
100
AcDbEntity
  8
CUT_OUT
100
AcDbPolyline
 90
2793
 70
1
 10
22.988514781429558
 20
9.027946685632628
 10
22.95995196603525
 20
9.094482565492001
 10
22.77057898710615
 20
9.602479827509967
 10
22.76525852441671
 20
9.616642870554472
 10
22.74425536050802
 20
9.672127780531468
 10
22.732086654870557
 20
9.705459909393312
 10
22.508493693399714
 20
10.341161655052474
 10
22.28450982380997
 20
10.998212801193176
 10
22.2829605674076
 20
11.002745653554427
 10
21.996817638227355
 20
11.837770639756627
 10
21.99045373586108
 20
11.85675404317675
 10
21.83252471399237
 20
12.33849839136849
 10
21.66856930352759
 20
12.855351294136028
 10
21.170631700130173
 20
14.434643052973001
 10
21.058327546523287
 20
14.799043968924536
 10
21.053403364784742
 20
14.815365072358816
 10
20.945122158667232
 20
15.181889234538971
 10
20.234331100799523
 20
17.61676289401106
 10
20.17642511745197
 20
17.817397099705033
 10
20.171168093853055
 20
17.83607099777379
 10
20.12431212299697
 20
18.006756947856616
 10
19.3610894527219
 20
20.856458497991497
 10
19.359969080542896
 20
20.860629697844075
 10
19.221560347629918
 20
21.374455423530776
 10
19.21223258541994
 20
21.410897111126133
 10
18.391748198522635
 20
24.792317755974295
 10
18.341997084966238
 20
24.99868717272426
 10
18.334072563855955
 20
25.033361023135484
 10
18.279476637663493
 20
25.28600973447712
 10
17.64136049447518
 20
28.334528122026313
 10
17.569116007522325
 20
28.682310773855022
 10
17.563937349905643
 20
28.708402167992517
 10
17.5010069934998
 20
29.040881143205127
 10
16.837136772648364
 20
32.71221171535103
 10
16.83616766255318
 20
32.71754357406502
 10
16.734186189762852
 20
33.275760138786296
 10
16.73127720368643
 20
33.292200061664346
 10
16.723362358120767
 20
33.33842822787696
 10
16.68001776353026
 20
33.599569643979606
 10
16.679321692086546
 20
33.603745078667515
 10
15.981381350347533
 20
37.77225673054252
 10
15.790174846198113
 20
38.940676805049065
 10
15.465250272935293
 20
40.96370577463776
 10
15.464591838880722
 20
40.96778731939287
 10
15.226523216280782
 20
42.43710291834279
 10
14.874198772611294
 20
44.643639038370594
 10
14.399059964497098
 20
47.666840363235195
 10
14.344523845823574
 20
48.01687098420396
 10
13.881025860001898
 20
51.0449003395679
 10
13.397674263492092
 20
54.28777626867668
 10
13.261131171522322
 20
55.23976613296065
 10
12.809451610837925
 20
58.45718685707914
 10
12.48959099081793
 20
60.838016499835106
 10
12.487430110646528
 20
60.8548236952455
 10
11.88133062968393
 20
65.78969204591763
 10
11.751121775884315
 20
66.88943476456123
 10
11.696643659840788
 20
67.38870589973376
 10
11.694909268215895
 20
67.40554001588941
 10
11.57159650397125
 20
68.67414560628907
 10
11.571029629976863
 20
68.67991945607099
 10
11.567785710917917
 20
68.71263479605392
 10
11.567207672113284
 20
68.7184075387703
 10
11.029019342507638
 20
74.04125178600589
 10
10.848678014126165
 20
76.01042348457045
 10
10.458378883852788
 20
80.66839397399451
 10
10.229243129863903
 20
83.67286654388292
 10
10.020650068946452
 20
86.58840326857762
 10
9.983219352776985
 20
87.16450947089388
 10
9.937737843916238
 20
87.91765009908863
 10
9.937195255787685
 20
87.92642142753249
 10
9.934005061296943
 20
87.97679580183805
 10
9.933428888336948
 20
87.9856845649843
 10
9.543366970417367
 20
93.86796642562359
 10
9.220863700543532
 20
98.96094541267394
 10
9.142033216785023
 20
100.38296099962815
 10
9.076433448479122
 20
101.66563925148643
 10
9.075631717353076
 20
101.68058461540829
 10
9.0708574755418
 20
101.76561704171371
 10
9.069977373306472
 20
101.78062067019235
 10
8.752372271692082
 20
106.9725207343468
 10
8.48946900892929
 20
111.3951710098311
 10
8.40988145899405
 20
112.85711709250114
 10
8.408768869471146
 20
112.87640933651988
 10
8.40208569927097
 20
112.98614517744551
 10
8.40084369593228
 20
113.00550654798272
 10
8.379950638381388
 20
113.31551074154206
 10
8.323412923451713
 20
114.22206773589747
 10
8.00737557907712
 20
119.71207255764023
 10
7.920336926542689
 20
121.43080274753618
 10
7.918986414795086
 20
121.45546124544978
 10
7.910716843493219
 20
121.59586659953229
 10
7.909155003230069
 20
121.62063805277407
 10
7.7773023703229
 20
123.5826040036151
 10
7.418194128582741
 20
129.14857371739876
 10
7.365596880880446
 20
130.10553500468592
 10
7.3648370585068506
 20
130.11882145158316
 10
7.360219226877746
 20
130.19654526251338
 10
7.3593729045218765
 20
130.21025937566182
 10
7.326199224456104
 20
130.72851012502554
 10
7.325820178206698
 20
130.73434258848633
 10
7.323640056342185
 20
130.76739108549856
 10
7.323249647686509
 20
130.77322279941507
 10
7.254004517606859
 20
131.79266780049394
 10
6.866661808636536
 20
137.73845883932145
 10
6.8661944913772
 20
137.74550442898413
 10
6.580792483121343
 20
141.9730720022675
 10
6.580261571986739
 20
141.9807881948322
 10
6.351207138565485
 20
145.2483219327929
 10
6.089061998715636
 20
149.0185784419109
 10
5.806580213814698
 20
153.17049082940156
 10
5.53338815794109
 20
157.26672160391058
 10
5.533033330136618
 20
157.27197250723194
 10
5.246979173755335
 20
161.450640327413
 10
4.957193855732953
 20
165.76273470896734
 10
4.709520729551684
 20
169.62589785979836
 10
4.485297418167818
 20
173.2226733191779
 10
4.484965309295262
 20
173.22792647557145
 10
4.483055841920645
 20
173.2577145900302
 10
4.482714262058607
 20
173.26297102099758
 10
4.211057110239608
 20
177.38743065013426
 10
3.9747425264027356
 20
181.1659287196124
 10
3.773024453396431
 20
184.47888827057886
 10
3.512542306754881
 20
188.82484118028424
 10
3.3824449664734857
 20
191.00771797351564
 10
3.3175373621007793
 20
192.13838199746937
 10
3.3172251359070515
 20
192.14373717049648
 10
3.3154223547945776
 20
192.17418914676193
 10
3.315099395379491
 20
192.17956274025056
 10
3.182997180777704
 20
194.3451123070641
 10
3.029620405505682
 20
197.22335407637186
 10
2.9180526729717826
 20
199.62626740023717
 10
2.917335703745664
 20
199.64093439426082
 10
2.9130441808760565
 20
199.72452993911986
 10
2.9122505334261746
 20
199.7392802453718
 10
2.794618990629317
 20
201.82958266462356
 10
2.578456587025528
 20
205.99093561860286
 10
2.553829805774569
 20
206.54534457891833
 10
2.553441373477085
 20
206.55381885664514
 10
2.551047755471018
 20
206.6044736306673
 10
2.550612019375251
 20
206.6134120819251
 10
2.539633146462677
 20
206.83192465718162
 10
2.5393546481088265
 20
206.8373689095386
 10
2.5377484624918907
 20
206.86821820910015
 10
2.537460071721796
 20
206.87366194641032
 10
2.520989367809534
 20
207.17931022123787
 10
2.3167098442229985
 20
211.18392249187872
 10
2.3165084662224444
 20
211.18782038523216
 10
2.1579231004975554
 20
214.21914319091908
 10
2.1575116738837323
 20
214.226819017683
 10
2.09735335883164
 20
215.32289416457388
 10
2.038828892760421
 20
216.45698446710932
 10
1.9047382193398334
 20
219.11247641589586
 10
1.7910995544699517
 20
221.66639944015287
 10
1.7907600842690385
 20
221.67382172930303
 10
1.7437462234368581
 20
222.6745937382002
 10
1.7002293043235
 20
223.72933128764404
 10
1.6212713168540063
 20
225.9807259730876
 10
1.5705959355803998
 20
227.83776278897332
 10
1.5701353867048056
 20
227.85318537121975
 10
1.5672739946711545
 20
227.9414017648827
 10
1.5667286292351719
 20
227.95696807143202
 10
1.4997217661841091
 20
229.73743653188126
 10
1.4130449250112633
 20
232.47817844313465
 10
1.37668926863131
 20
233.90191501787103
 10
1.344114139994474
 20
235.2600513842159
 10
1.3439156005804875
 20
235.26790047846288
 10
1.342731201469519
 20
235.31241998888393
 10
1.342511899005956
 20
235.32027610167705
 10
1.2353487157724317
 20
238.98700656590594
 10
1.0922162961431354
 20
244.26567831901963
 10
1.070229212243703
 20
245.15215201719613
 10
1.046433473080981
 20
246.1133691676227
 10
0.8973456143304475
 20
251.95752195717122
 10
0.7732404673161568
 20
257.1908719769296
 10
0.7731659236408746
 20
257.1939487936729
 10
0.726292721262837
 20
259.0885203720463
 10
0.6571417753477249
 20
261.93340373703944
 10
0.5581577989153175
 20
266.33433702100865
 10
0.5144947514044134
 20
268.4944228243006
 10
0.5142867938054678
 20
268.5039603118806
 10
0.5130210084587361
 20
268.55806525234925
 10
0.5127824364346338
 20
268.56761283172926
 10
0.39623907515101564
 20
272.9521537086147
 10
0.38405732571334283
 20
273.54722448916215
 10
0.32443311431541133
 20
277.4612598577681
 10
0.32413850566643987
 20
277.4776566668051
 10
0.32221154128245644
 20
277.5707390559597
 10
0.3218265076254738
 20
277.5871644504888
 10
0.22407634029093515
 20
281.32074127715674
 10
0.2030910648316535
 20
282.33608417791794
 10
0.1575470317167742
 20
285.60852808072826
 10
0.15743760442705934
 20
285.6157635452446
 10
0.15676233328440503
 20
285.6571148922599
 10
0.15663429146695762
 20
285.66441204575136
 10
0.12944846245193276
 20
287.1132721809676
 10
0.09949328055313345
 20
289.28212435223975
 10
0.05974965707116553
 20
292.01759706826164
 10
0.0355747126644701
 20
294.0409084303676
 10
0.016971743805754613
 20
296.4122107240781
 10
0.012545599500185745
 20
298.7659659579081
 10
0.012520094994613373
 20
298.7739205848312
 10
0.012314061707343171
 20
298.8193820111454
 10
0.012266975713430384
 20
298.82740456970595
 10
0.0
 20
300.5296444728409
 10
0.002366635806367867
 20
302.2546299949226
 10
0.012331541698245019
 20
304.29613803764084
 10
0.04122595771508486
 20
306.5317107053933
 10
0.06162696477707641
 20
307.96898183093754
 10
0.08662397419664103
 20
309.07885334174466
 10
0.08676216812153825
 20
309.08529661267517
 10
0.0875388367264236
 20
309.12341869431464
 10
0.08766835130052186
 20
309.13014627569197
 10
0.1386576345788626
 20
311.94266228703765
 10
0.2236430880226976
 20
315.98479860412476
 10
0.23092044614622864
 20
316.2901505651719
 10
0.2309965849169089
 20
316.29342010358215
 10
0.23715787514623798
 20
316.56434184811883
 10
0.2372776776178398
 20
316.5698307089518
 10
0.28920473789122525
 20
319.0530689004254
 10
0.3407219424379946
 20
321.2210888531166
 10
0.3408252695109013
 20
321.22557871651014
 10
0.3413938751922956
 20
321.25111736321287
 10
0.3414908313021101
 20
321.25562425905946
 10
0.45113197927696547
 20
326.5366904043965
 10
0.46003608081207403
 20
326.96057861097074
 10
0.4690792239445045
 20
327.4050382843649
 10
0.469155322388076
 20
327.40890100604264
 10
0.5775948980838734
 20
333.09930227944625
 10
0.5776539498505144
 20
333.102489955753
 10
0.6162817533559064
 20
335.24925759299407
 10
0.6904639201324017
 20
338.8131922868683
 10
0.6905957189565584
 20
338.8198829575547
 10
0.700887586092449
 20
339.37371061107496
 10
0.7168730075562735
 20
340.18672794606505
 10
0.8354245041051627
 20
345.6858721749163
 10
0.9007485645497582
 20
348.37318595093143
 10
0.9009259345843361
 20
348.3808899005889
 10
0.9018765200561347
 20
348.4246185347094
 10
0.902034343236096
 20
348.432335570551
 10
0.9706821342285252
 20
352.0143975171862
 10
1.0006358816074226
 20
353.28429533598205
 10
1.0011679615996627
 20
353.3022604232748
 10
1.1094597375854391
 20
356.3419059028905
 10
1.1097886600227298
 20
356.35157674911125
 10
1.1115641677930626
 20
356.40638104931946
 10
1.1118618954444628
 20
356.41605290616104
 10
1.2083876793931267
 20
359.72527827292254
 10
1.2478258250643535
 20
360.7644811122923
 10
1.4347084541987556
 20
364.7317050047119
 10
1.4349596931901374
 20
364.7371433947192
 10
1.436379175834361
 20
364.76848682304905
 10
1.4366245685604326
 20
364.7740182482745
 10
1.5495471941583787
 20
367.37359852170374
 10
1.8158060406948948
 20
372.5311064327742
 10
1.9156125093396668
 20
374.44548785772065
 10
1.9884317819978605
 20
375.7628519488958
 10
2.328806984448363
 20
381.79559995100135
 10
2.72289282055425
 20
388.47723302303643
 10
2.7232958347067893
 20
388.48420405220116
 10
2.7723456219889044
 20
389.35011764399087
 10
2.7726383568361257
 20
389.35536697610536
 10
2.8163061106114924
 20
390.1509580743435
 10
3.185171769305043
 20
396.5920474546216
 10
3.185698852092571
 20
396.6015133221267
 10
3.188602093000327
 20
396.6551800353387
 10
3.1890994592488937
 20
396.6646514458394
 10
3.457719509397009
 20
401.9392196531236
 10
3.4580334927533727
 20
401.9455151627406
 10
3.507063449989573
 20
402.94979395775636
 10
3.5073197511128456
 20
402.9551417360915
 10
3.5087257069033058
 20
402.9850351306466
 10
3.508969440354349
 20
402.99031654953717
 10
3.5541806008101844
 20
403.9891001477211
 10
3.760220216520281
 20
408.3407748872287
 10
3.9381771623754958
 20
412.03107471662736
 10
3.938548226886155
 20
412.0389865706255
 10
3.978417720057564
 20
412.91376064446354
 10
4.025092423105548
 20
413.79017489456464
 10
4.188022772670649
 20
416.8043552917079
 10
4.1891559364598265
 20
416.8231329972066
 10
4.388869441463044
 20
419.8199273769113
 10
4.418487952355974
 20
420.24329828436726
 10
4.4200108034003165
 20
420.26315538935967
 10
4.443639843038454
 20
420.5465085065397
 10
4.444569528070815
 20
420.5579199395115
 10
4.449714327203992
 20
420.62259450216976
 10
4.45060045479687
 20
420.63400940009336
 10
4.668782502620843
 20
423.5158367930491
 10
4.8561929355600455
 20
425.78873722267446
 10
4.915551170233186
 20
426.4973827586792
 10
4.916115277590222
 20
426.50421106168733
 10
4.93935745786149
 20
426.7895189704079
 10
5.16589418377356
 20
429.42903820183653
 10
5.346900281426315
 20
431.5572944956615
 10
5.347642930844756
 20
431.5661830244327
 10
5.351774222866084
 20
431.616531068326
 10
5.352490103257878
 20
431.62541748193337
 10
5.427010986820505
 20
432.56796046589557
 10
5.659124167878588
 20
435.4623273757352
 10
5.66248435485727
 20
435.49867185677465
 10
5.671910358396303
 20
435.58866629516933
 10
5.674454779779126
 20
435.6139959398382
 10
5.688263873178357
 20
435.7575887274545
 10
5.690593264949257
 20
435.782939051182
 10
5.702538121572047
 20
435.91927874211353
 10
5.704487627785625
 20
435.93989305181606
 10
6.036691210650645
 20
439.21157269591697
 10
6.040155038798218
 20
439.2424917806081
 10
6.137699573136047
 20
440.03849516829064
 10
6.140593044793036
 20
440.062937152249
 10
6.156420905178493
 20
440.20150624487144
 10
6.159113753776069
 20
440.2259711447198
 10
6.3759525532428825
 20
442.2731669592689
 10
6.3778823605094885
 20
442.29043140549743
 10
6.459139925226339
 20
442.98112558916074
 10
6.4613812480627075
 20
442.99922776625425
 10
6.869077746952371
 20
446.1355171677665
 10
6.871553287852976
 20
446.1550626217935
 10
6.885217494083918
 20
446.2658648518938
 10
6.887564623382389
 20
446.28542614172454
 10
6.993132093636518
 20
447.1903504760446
 10
7.13675843594109
 20
448.3667727265354
 10
7.54258942820951
 20
451.44878996597043
 10
7.950587790916472
 20
454.563679681858
 10
7.952103731457726
 20
454.5754334865651
 10
7.960560513091025
 20
454.64203967176945
 10
7.9620297032091685
 20
454.653796879628
 10
8.125878266645145
 20
455.9863791702524
 10
8.126908051481507
 20
455.99485395876263
 10
8.256057039268967
 20
457.07048641966196
 10
8.675393466336743
 20
460.39118775556256
 10
8.67781106058527
 20
460.41085487885937
 10
8.691176488393182
 20
460.52262970508417
 10
8.69346978921942
 20
460.5423625218307
 10
8.835167880116614
 20
461.79784755516357
 10
8.837518862958007
 20
461.81751215475947
 10
9.10700441613534
 20
463.95195860056936
 10
9.108100191061794
 20
463.9607418738773
 10
9.114236141695187
 20
464.0105227887648
 10
9.115305997236419
 20
464.0193092568762
 10
9.22874698611247
 20
464.96256861159947
 10
9.229700652866995
 20
464.9705893963866
 10
9.235043566123977
 20
465.0160476883383
 10
9.235975634064118
 20
465.02407101173173
 10
9.753543239232897
 20
469.53227817913637
 10
9.756712566590465
 20
469.5579315143058
 10
9.760655849492593
 20
469.5877367016062
 10
9.764529702654556
 20
469.6182167165697
 10
9.78559639910776
 20
469.7910438832325
 10
9.789157884985059
 20
469.8215619740795
 10
9.79739237257428
 20
469.8954051174477
 10
10.305287081444646
 20
474.11580188405617
 10
10.450877809430835
 20
475.243235000357
 10
10.453577079209083
 20
475.2647495993532
 10
10.468636449847736
 20
475.3883967402479
 10
10.471214051635343
 20
475.4102266118199
 10
10.798705041829407
 20
478.27381786314504
 10
10.982296881141906
 20
479.78138427097673
 10
11.24538715341356
 20
481.8911761072891
 10
11.246799758452482
 20
481.90268526659383
 10
11.25468992473094
 20
481.9680140697611
 10
11.256059995363387
 20
481.9795453845351
 10
11.276016263854672
 20
482.1503296136984
 10
11.295550757747208
 20
482.31178407726316
 10
11.766992793577401
 20
485.99604053130923
 10
12.035462272258599
 20
488.0215318082852
 10
12.284806419232893
 20
489.87012098458223
 10
12.299281165261675
 20
489.9735536458019
 10
12.323186979781497
 20
490.13839788005293
 10
12.324233770572846
 20
490.14567893652367
 10
12.330595456895878
 20
490.19031671946635
 10
12.331707661385906
 20
490.1981954665184
 10
12.888947607643104
 20
494.18380930703233
 10
13.412533237757486
 20
497.88688120140705
 10
13.457994176563147
 20
498.1912932103113
 10
13.501285033822342
 20
498.47102350879265
 10
13.504154982947341
 20
498.4899682039814
 10
13.52041354841009
 20
498.59965609433004
 10
13.523219582333923
 20
498.61902217469526
 10
14.04026203001888
 20
502.27132986426
 10
14.537792238026213
 20
505.74731246603267
 10
14.541786008357406
 20
505.7735566617631
 10
14.558268501754696
 20
505.87577732918146
 10
14.597237307329465
 20
506.1103819016666
 10
14.600759861157258
 20
506.132080301869
 10
14.620658370874537
 20
506.2575568109882
 10
14.62408714040356
 20
506.2797129002593
 10
15.140262346524935
 20
509.6996491900262
 10
15.142730927083676
 20
509.71543468525806
 10
15.494222850465917
 20
511.887235553354
 10
15.498457313570896
 20
511.9120747688689
 10
15.772842682898613
 20
513.4438325050186
 10
16.240670761023125
 20
515.9458591568837
 10
16.251923079068433
 20
516.0003983989685
 10
16.44613700634494
 20
516.8606428588453
 10
16.452343626819186
 20
516.8870226073927
 10
16.760074698951883
 20
518.1439191879898
 10
17.49094198093087
 20
521.0829930494448
 10
17.508552216815815
 20
521.1476107443025
 10
18.26165557171811
 20
523.6861164574191
 10
18.26301814851331
 20
523.6907228536272
 10
18.270718512787823
 20
523.7168319275376
 10
18.27207371192594
 20
523.7214404996326
 10
19.343573039614967
 20
527.3760538724939
 10
19.358248310577835
 20
527.4232168161582
 10
21.950161717952426
 20
535.2938057582949
 10
22.08770328826631
 20
535.7057195335718
 10
22.10297805210371
 20
535.749215601993
 10
22.205945454092387
 20
536.0285881551774
 10
22.210012109856507
 20
536.0396892220131
 10
22.23293243651773
 20
536.1026403869565
 10
22.236955313353803
 20
536.113757393561
 10
23.517682964207324
 20
539.6748947739302
 10
25.517783485222026
 20
545.2324783686302
 10
25.53680226384165
 20
545.2825050871858
 10
28.88845654785723
 20
553.6462678161361
 10
28.891017688671525
 20
553.6526802838787
 10
28.905488979112533
 20
553.6890342466813
 10
28.90803535376608
 20
553.6954525923404
 10
29.265060496557396
 20
554.5983937844899
 10
29.294257108153317
 20
554.6671721621527
 10
29.701868236331336
 20
555.5645486765163
 10
33.16516828709058
 20
563.1380108125189
 10
33.2127934130321
 20
563.2330893004209
 10
36.70273637188592
 20
569.6238839075936
 10
36.70489064070358
 20
569.6278358563252
 10
37.18871730189409
 20
570.5169895321112
 10
37.235083194044535
 20
570.5963100348747
 10
37.69794508942675
 20
571.3352244873947
 10
41.073752392172764
 20
576.7013711301287
 10
41.117806111606626
 20
576.7674493840855
 10
44.02134273415032
 20
580.882221518293
 10
44.02418546427191
 20
580.8862571620373
 10
44.04027544084903
 20
580.9091390447818
 10
44.04311152667253
 20
580.9131793606239
 10
44.58867976712543
 20
581.6917626586496
 10
44.626209760595486
 20
581.7429797799718
 10
45.03864394594916
 20
582.2815349319577
 10
47.3874235302477
 20
585.3206053119075
 10
47.41501618012205
 20
585.3552375788211
 10
48.90006927887731
 20
587.1637205924226
 10
48.904129545215255
 20
587.1686759231778
 10
48.92710770844491
 20
587.1967806594358
 10
48.93115738369971
 20
587.2017446493526
 10
49.188983909166154
 20
587.5184717251053
 10
49.23230702004264
 20
587.5693347460012
 10
49.30753117087954
 20
587.6537664478078
 10
50.03608900848445
 20
588.4651002361629
 10
50.09693812654558
 20
588.5289751683489
 10
50.37394903934137
 20
588.8031354921609
 10
50.37844051685738
 20
588.8075901337343
 10
50.403865575361635
 20
588.8328599038316
 10
50.408347649667746
 20
588.8373240063966
 10
50.551587228463404
 20
588.9802903866903
 10
50.56051002568444
 20
588.9892337478345
 10
50.61096557269303
 20
589.0400189915024
 10
50.61985062952306
 20
589.048999848027
 10
50.66713340723123
 20
589.0969941345206
 10
50.794837062261934
 20
589.2251644930928
 10
51.02932563156787
 20
589.4900636301064
 10
52.267249053033254
 20
591.0668625378732
 10
52.46935697441489
 20
591.3582350465767
 10
52.56290599283574
 20
591.5117425575352
 10
52.609110912634094
 20
591.5803506841946
 10
52.67374652692047
 20
591.6213271628619
 10
53.498999127196385
 20
592.086610169767
 10
53.75946385482223
 20
592.2516539985513
 10
54.00161124824706
 20
592.4425623001375
 10
55.080461946731134
 20
593.3869578995225
 10
55.30173381722318
 20
593.6017138053453
 10
55.499792517460605
 20
593.8380485066
 10
56.36305095924564
 20
594.9828571108839
 10
56.53580407960976
 20
595.2382738275674
 10
56.68142655364147
 20
595.5100741859442
 10
57.13499221332211
 20
596.4724142870259
 10
57.16950671291187
 20
596.5371409611439
 10
57.22530837570082
 20
596.5827637700868
 10
57.229476925313804
 20
596.5858057200971
 10
57.315342519515866
 20
596.6477410748689
 10
57.58994000329869
 20
596.8716037956948
 10
59.06488134190391
 20
598.2266199342636
 10
59.31117300642683
 20
598.4812936703704
 10
59.362974133469265
 20
598.5416110772046
 10
59.41417561656192
 20
598.5982473805826
 10
59.44261330319608
 20
598.6281376613902
 10
59.54229163362254
 20
598.7236830812966
 10
60.11251848803363
 20
599.221962930027
 10
60.18310265821856
 20
599.2832942500459
 10
60.25799873179636
 20
599.3442376690823
 10
60.595565552944834
 20
599.6012839297142
 10
60.60457691188043
 20
599.608172741767
 10
60.655567266906246
 20
599.6473057149651
 10
60.66455251521677
 20
599.6542285492259
 10
62.29342262849576
 20
600.9141331258829
 10
62.338303140517326
 20
600.9475285496585
 10
65.0114468512769
 20
602.8601988337473
 10
65.79078056127275
 20
603.4063829991819
 10
65.84973876561958
 20
603.4456412906791
 10
66.977586635524
 20
604.1586637807858
 10
66.98969858837171
 20
604.166361535982
 10
67.0582281921495
 20
604.2101460180329
 10
67.0703031827004
 20
604.2179016250441
 10
70.88557620426207
 20
606.6813111594173
 10
70.95423244581292
 20
606.7230775811893
 10
75.98496348929905
 20
609.6017102903484
 10
77.27830935765292
 20
610.3298614312039
 10
77.3656779202114
 20
610.3753298587037
 10
78.91338439005648
 20
611.1172033213028
 10
78.92448361222011
 20
611.1225516485217
 10
78.98731665881695
 20
611.1529878373461
 10
78.99839382254805
 20
611.1583817024143
 10
85.29705892284005
 20
614.2414424534122
 10
85.40171551975311
 20
614.2878051890971
 10
92.46876032807904
 20
617.1009538153241
 10
92.5159770222092
 20
617.1188345412882
 10
94.50146879304452
 20
617.8327570827541
 10
94.55086147850051
 20
617.8495530057837
 10
97.12351287362407
 20
618.674750289819
 10
97.14715366433995
 20
618.6824414272482
 10
97.28093485899342
 20
618.7265787215537
 10
97.30451110356137
 20
618.734465499899
 10
104.88572053864752
 20
621.3055246821791
 10
104.93484813041354
 20
621.3212489949185
 10
113.36739289369336
 20
623.8612562304365
 10
115.42345807297377
 20
624.4602279255048
 10
115.46756147146951
 20
624.4723456319864
 10
117.07052569075205
 20
624.8865429997234
 10
117.08055536939352
 20
624.8891531040975
 10
117.13736446794815
 20
624.9040418136944
 10
117.14738506994559
 20
624.9066865507693
 10
126.5578723944613
 20
627.4077909633721
 10
126.60995306443951
 20
627.4206403355463
 10
136.7034444898441
 20
629.7202420981394
 10
136.7303705314221
 20
629.7261169940272
 10
137.63768856901552
 20
629.9153664887926
 10
137.66803032080279
 20
629.9213694507469
 10
138.85037253764975
 20
630.1426476054703
 10
138.86474055831468
 20
630.1453728780629
 10
138.94612113244148
 20
630.161014428076
 10
138.9604756974567
 20
630.1638097083332
 10
149.36307406159312
 20
632.2158481264535
 10
149.39243829536827
 20
632.2213373737916
 10
161.61894334299137
 20
634.381140781637
 10
161.76630552075034
 20
634.4064798465474
 10
161.78752519114187
 20
634.4099655371494
 10
161.8989256772391
 20
634.4274342311033
 10
161.907223023311
 20
634.4287472421147
 10
164.98662629035678
 20
634.9204668950695
 10
174.97555793557683
 20
636.5110915430778
 10
174.99753222629934
 20
636.5144239649894
 10
188.61131068228323
 20
638.4759002939197
 10
188.61766497057698
 20
638.4768227635141
 10
188.65366696170292
 20
638.4820886176985
 10
188.6600192610818
 20
638.4830246852509
 10
188.96198861600024
 20
638.5278527649282
 10
188.98162402995382
 20
638.5306351543293
 10
189.28176297868845
 20
638.5711435394978
 10
200.1457778766469
 20
639.9981321867181
 10
203.3264542862613
 20
640.4150023571686
 10
206.5882751377328
 20
640.8105277616985
 10
217.44367771478358
 20
642.1234887896836
 10
217.44906912779192
 20
642.1241458334675
 10
217.79589778845667
 20
642.1667319990858
 10
217.8132822459255
 20
642.1687637067085
 10
218.1567265150587
 20
642.2068719848455
 10
232.31072280390453
 20
643.7648778268996
 10
232.3279766401189
 20
643.7666761302448
 10
246.42583677513022
 20
645.1536853056002
 10
246.9172423131821
 20
645.2023702934794
 10
246.93483993868222
 20
645.2040091356412
 10
247.4013776828931
 20
645.2446862575405
 10
255.71642854679305
 20
645.9710330826065
 10
261.71324037773314
 20
646.4918197960227
 10
275.58565569744025
 20
647.5581469581739
 10
275.5918208175708
 20
647.5586272428106
 10
276.8502551754586
 20
647.6579686859236
 10
278.3760334540889
 20
647.7655924266107
 10
292.6088524337014
 20
648.6893512228664
 10
292.6305750370237
 20
648.6906028420517
 10
300.8057831127332
 20
649.1021629806517
 10
307.63512588659347
 20
649.4513732851781
 10
316.08478365331024
 20
649.8452077098091
 10
318.6956860886203
 20
649.95477270787
 10
319.4490141662872
 20
649.9853182046857
 10
321.3852229861371
 20
650.0604804104617
 10
330.6671579783256
 20
650.4235138587561
 10
334.89533628700985
 20
650.5723239768012
 10
334.90346546274117
 20
650.5726211174139
 10
338.38180839611636
 20
650.7044851470794
 10
344.17629839077705
 20
650.9030781348413
 10
346.5413348606902
 20
650.9803730112594
 10
347.57636706748946
 20
651.0125673210393
 10
352.3834362336709
 20
651.16666315774
 10
355.927946185923
 20
651.2787352821413
 10
356.0487762255162
 20
651.2824236758398
 10
356.06623177274014
 20
651.2828544730402
 10
356.0970785589602
 20
651.2834359207664
 10
356.1275706066077
 20
651.284022698586
 10
356.19417925566563
 20
651.2823221008094
 10
356.25583200817255
 20
651.2574046543925
 10
356.9207078666382
 20
650.9536854739545
 10
357.21929568979397
 20
650.8361558915207
 10
357.5287286718518
 20
650.7511904838611
 10
358.9861916141816
 20
650.4337212320208
 10
359.3029295705267
 20
650.382292077894
 10
359.6233487412339
 20
650.3649875719143
 10
361.11498693791367
 20
650.3643209877064
 10
361.43542144673785
 20
650.3813391085941
 10
361.75220524195225
 20
650.4324851541254
 10
363.20995134382275
 20
650.7486516555296
 10
363.51946014106517
 20
650.8333404701006
 10
363.8181528883287
 20
650.9506031394204
 10
364.46507957299303
 20
651.2454244658717
 10
364.5274163285952
 20
651.2704996490545
 10
364.59445676751636
 20
651.2718952340881
 10
365.29149231669436
 20
651.2551818618767
 10
365.29724330460846
 20
651.2550494827108
 10
365.32983292012324
 20
651.254330579595
 10
365.33558415130557
 20
651.2542092282083
 10
365.43361110404214
 20
651.2522348760497
 10
365.45136337366534
 20
651.2517721878698
 10
365.67598244580097
 20
651.2445870436334
 10
370.2049530865432
 20
651.0925885576349
 10
377.5956517571729
 20
650.8427327422467
 10
377.59876188862535
 20
650.8426292135398
 10
378.0941076122288
 20
650.8263975474586
 10
378.6501404045285
 20
650.8074552246749
 10
387.894205130102
 20
650.4798032718957
 10
388.2358658321383
 20
650.4674127735173
 10
398.23175131126914
 20
650.0766048146115
 10
399.81193755377586
 20
650.0121245052585
 10
402.7839618015297
 20
649.8772621087455
 10
402.78884992980113
 20
649.8770442930603
 10
413.8170998505031
 20
649.3946349529258
 10
419.03281498729604
 20
649.1422530429295
 10
425.5761218577548
 20
648.8253644939753
 10
425.5961130157322
 20
648.8242625554877
 10
438.73600179013323
 20
648.0119796827931
 10
442.66981309589255
 20
647.7617242115589
 10
442.6868793508294
 20
647.7605407335299
 10
444.9509147460749
 20
647.5905593464838
 10
458.36481760580546
 20
646.5935232704385
 10
458.3821395217014
 20
646.5921348210909
 10
466.5962501595585
 20
645.8858181712803
 10
473.04568343484885
 20
645.3266856417209
 10
473.49827469837993
 20
645.2873953165663
 10
473.51656551554976
 20
645.285694547739
 10
473.98499076122573
 20
645.2392432783681
 10
488.3135347407878
 20
643.8260768279624
 10
488.330792749529
 20
643.8242738898125
 10
502.7298600956546
 20
642.2357625115421
 10
503.0788341207131
 20
642.1970104420684
 10
503.0952111423631
 20
642.195100614756
 10
503.4208407016814
 20
642.155311349055
 10
503.4261878927923
 20
642.1546628375559
 10
512.5771124720629
 20
641.0531665641968
 10
517.5017511116932
 20
640.458025259845
 10
528.3603014073192
 20
639.052171099553
 10
531.2219936021232
 20
638.6809771682788
 10
531.2915031112832
 20
638.6714228945382
 10
543.8640328431934
 20
636.9168703211269
 10
543.879703168672
 20
636.9145990732746
 10
548.237787343444
 20
636.2594370420466
 10
554.5209544291773
 20
635.3092747999577
 10
554.5376000320049
 20
635.306805326699
 10
554.6319665023698
 20
635.2930758815864
 10
554.6486262274547
 20
635.290699741967
 10
554.8657900338164
 20
635.260347378311
 10
554.8811788676182
 20
635.2581151413696
 10
555.062774442686
 20
635.2308118697529
 10
564.0217318534276
 20
633.7963098533305
 10
571.2499418607717
 20
632.5805692492037
 10
571.2652104576381
 20
632.5780416453454
 10
571.3519805749961
 20
632.5639073418113
 10
571.3672994162533
 20
632.5614526435608
 10
571.9555508781929
 20
632.4687504188878
 10
572.4350710977587
 20
632.3897050686764
 10
578.4994493644181
 20
631.336586400495
 10
578.5027445456607
 20
631.3360160626867
 10
579.2084648046095
 20
631.214273407939
 10
583.3993204209614
 20
630.466438214097
 10
583.8377144432159
 20
630.3842938809889
 10
583.8714581038473
 20
630.3775565627768
 10
584.5820287117815
 20
630.2270953498844
 10
584.594229559166
 20
630.2245383308414
 10
584.6633974478705
 20
630.2101922744414
 10
584.6756088150936
 20
630.2076859756041
 10
588.3994137090049
 20
629.4514599859576
 10
588.4507076240737
 20
629.4401044208628
 10
592.7777439142799
 20
628.4023587973923
 10
593.223071381298
 20
628.2950993381926
 10
593.2812636003509
 20
628.2798421720217
 10
593.5198602606501
 20
628.2121431005207
 10
593.5380987928479
 20
628.2070302837365
 10
593.6415407276219
 20
628.1783842675095
 10
593.6598111777928
 20
628.173386707843
 10
596.4071521374767
 20
627.4312141161015
 10
599.8775463414742
 20
626.4804510398906
 10
599.9084246720246
 20
626.4716348172682
 10
606.7398610453247
 20
624.4418040031414
 10
606.7594783518246
 20
624.4360477675251
 10
606.8707527141445
 20
624.4038083240866
 10
606.8904087924587
 20
624.3981859092938
 10
608.4876026717988
 20
623.9472072279475
 10
608.5252558909693
 20
623.9360413096704
 10
610.4962995764395
 20
623.3233500824635
 10
610.5115184377652
 20
623.3185304011458
 10
617.8707777174775
 20
620.9447550535398
 10
617.9184461834603
 20
620.9284907227081
 10
624.6977005721562
 20
618.4876048298498
 10
624.7131121837281
 20
618.4821032797948
 10
624.8005289111534
 20
618.4511662877728
 10
624.8159703027005
 20
618.4457488851345
 10
627.5926950558028
 20
617.4800698561957
 10
627.6611116893939
 20
617.4543912410967
 10
630.3326206347992
 20
616.3767405648532
 10
636.381612756715
 20
613.869373263883
 10
636.4847064653084
 20
613.8219891909629
 10
641.5416406337783
 20
611.26163281645
 10
641.5528376538797
 20
611.2559930604414
 10
641.6163538866911
 20
611.2241671867065
 10
641.627574377791
 20
611.2185742727447
 10
643.9636906713811
 20
610.0602124386767
 10
644.0542696902603
 20
610.0113570743401
 10
645.9076093429825
 20
608.9280289984023
 10
650.1540819414586
 20
606.4081113014072
 10
650.2273681805796
 20
606.3617030242085
 10
653.5856493467334
 20
604.096381009726
 10
653.5915729972878
 20
604.0923954706363
 10
653.6251671688725
 20
604.0698507297291
 10
653.6311002877219
 20
604.0658792994517
 10
655.1408536452354
 20
603.0579005331599
 10
655.2007104022996
 20
603.0157904608025
 10
656.2129954626994
 20
602.2660548870167
 10
658.7550582922785
 20
600.3702570760663
 10
658.790525632141
 20
600.3429734573044
 10
660.3468028131342
 20
599.1083996478428
 10
660.3534082208625
 20
599.1031747563679
 10
660.9377820563661
 20
598.642265841049
 10
660.9904001112718
 20
598.5987865676443
 10
661.2074544505494
 20
598.4109573665894
 10
661.8820370044218
 20
597.8243886365199
 10
661.9492436487893
 20
597.7622471366215
 10
662.1567703574772
 20
597.5582642685565
 10
662.1613840834476
 20
597.5537390892323
 10
662.3804162772128
 20
597.3393729362524
 10
662.3847643224063
 20
597.3351261322213
 10
662.4919873007198
 20
597.2306117865257
 10
662.6008029832635
 20
597.1239051202829
 10
662.8617353143985
 20
596.8960431545639
 10
664.4101571630979
 20
595.6941184748534
 10
664.6958533960981
 20
595.4977135429631
 10
664.7589592472276
 20
595.4595036233096
 10
664.8144996973954
 20
595.4223568727283
 10
664.8483256005102
 20
595.3647336919556
 10
665.1854511780845
 20
594.726200980753
 10
665.3431967995083
 20
594.4613464360835
 10
665.5272893967937
 20
594.2140783092755
 10
666.4412451356675
 20
593.1098050880789
 10
666.6497408625837
 20
592.8827343000676
 10
666.880438198598
 20
592.6782585067167
 10
668.0005918555219
 20
591.7838367803749
 10
668.2510548518035
 20
591.6041150554663
 10
668.5186388525738
 20
591.4510450928925
 10
669.1622781875428
 20
591.1255471224365
 10
669.2205644503401
 20
591.0926896158217
 10
669.2586949347517
 20
591.0377080704588
 10
669.2994333950423
 20
590.9729090839787
 10
669.5001560030726
 20
590.6911191108085
 10
670.7250023186775
 20
589.1659936621732
 10
670.9568330536882
 20
588.9091869943122
 10
671.0883499616966
 20
588.7794011538435
 10
671.178130080244
 20
588.6907409779728
 10
671.1822806126456
 20
588.6866501755417
 10
671.2058403519206
 20
588.6634745515632
 10
671.210001928969
 20
588.6593887760802
 10
671.3793727512016
 20
588.4934259862623
 10
671.6253176295647
 20
588.2520469172148
 10
671.6876086377972
 20
588.1871305508839
 10
672.3728338114763
 20
587.4287419841465
 10
672.5101977402614
 20
587.2769396439269
 10
672.5542972525952
 20
587.2259469802462
 10
672.873552596339
 20
586.8395682369161
 10
674.2875406694857
 20
585.1269975154165
 10
674.3152506491296
 20
585.0924077320822
 10
676.5960985573624
 20
582.1574377595143
 10
677.0799911056251
 20
581.5347653726401
 10
677.1204161894742
 20
581.480243557204
 10
677.7220387382159
 20
580.6292334037108
 10
680.5554632907854
 20
576.6149433644212
 10
680.6014422184094
 20
576.5458171724182
 10
683.99912723074
 20
571.1175725964777
 10
684.0011361209363
 20
571.1143676270233
 10
684.4881836340292
 20
570.3384228756267
 10
684.5359793245676
 20
570.256650351661
 10
685.0219508272365
 20
569.3614681831813
 10
688.5997359382868
 20
562.7528746649805
 10
688.6465049430187
 20
562.6587499160324
 10
692.2950429353448
 20
554.6206789518646
 10
692.7049873346841
 20
553.7168270807626
 10
692.7349200382879
 20
553.6460664283109
 10
693.0971476066118
 20
552.7246707416889
 10
696.6632558341989
 20
543.6683665379038
 10
696.6851562169172
 20
543.6091191479873
 10
698.4991849101964
 20
538.3645627903473
 10
700.1544556729857
 20
533.5788321174705
 10
700.2931261168383
 20
533.1780799233231
 10
700.3141709754486
 20
533.1124134367824
 10
700.5212685365098
 20
532.4111251616259
 10
700.5234088199427
 20
532.4039109069195
 10
703.2733690567854
 20
523.1770731267488
 10
703.2954166184217
 20
523.0945885895363
 10
704.3622536611201
 20
518.5933900740213
 10
705.4204071363719
 20
514.0055861654438
 10
705.4347533318137
 20
513.9358640821847
 10
706.1057508732085
 20
510.231443108853
 10
706.760268599569
 20
506.6216788679916
 10
706.7639170364068
 20
506.6007108711241
 10
707.4124278881351
 20
502.7104204482006
 10
707.4177160644074
 20
502.67627779413834
 10
707.980520231723
 20
498.74365654688114
 10
707.9817680358685
 20
498.7350268987461
 10
708.7944714920574
 20
493.1715733155869
 10
709.5471130448647
 20
487.7397767284415
 10
709.5479217132022
 20
487.7339821553148
 10
709.5525713830194
 20
487.70090028756584
 10
709.5533976492941
 20
487.69506311613304
 10
710.932438070034
 20
478.02131335154013
 10
710.9337663757319
 20
478.01209787453956
 10
710.9413744557623
 20
477.9598886665127
 10
710.942731355922
 20
477.9506773563801
 10
711.2458480488042
 20
475.91488716512845
 10
711.4616520134939
 20
474.46896060115387
 10
712.8769628669631
 20
464.30065886291766
 10
714.3342869980079
 20
453.4808608274599
 10
714.3358022362918
 20
453.46976756722637
 10
714.344512063825
 20
453.4068772006897
 10
714.3460698179035
 20
453.39578176409896
 10
714.4220758260583
 20
452.8616589115829
 10
714.4242291969708
 20
452.8459300303333
 10
714.4873127717249
 20
452.3662736780725
 10
715.766771241829
 20
442.2223468153014
 10
715.7699407733624
 20
442.1952311686317
 10
716.6761476057479
 20
433.77887565075775
 10
716.6768148472987
 20
433.77273801541094
 10
716.6806316653957
 20
433.73796201566785
 10
716.681311536366
 20
433.7318257664606
 10
716.7583936432719
 20
433.04259310175973
 10
716.7612201773566
 20
433.0150144735237
 10
716.815718246885
 20
432.43002113841374
 10
717.444067664755
 20
425.42677291909354
 10
717.4458368934361
 20
425.4053256653111
 10
717.8686341624948
 20
419.78844794266627
 10
717.8689765397583
 20
419.78394473599735
 10
717.870935883825
 20
419.75842804222935
 10
717.8712850398304
 20
419.75392535608626
 10
717.9445980002896
 20
418.81763122413963
 10
718.026654473717
 20
417.6469204206966
 10
718.3379040794206
 20
412.99469383327505
 10
718.5059692872957
 20
410.47525359537144
 10
718.5071638434622
 20
410.4580876204002
 10
718.5142119280813
 20
410.36083374514635
 10
718.5155049304267
 20
410.3436748387485
 10
718.7411317579836
 20
407.4598755562845
 10
718.8791005947172
 20
405.5978310565256
 10
718.880645830731
 20
405.57450451781324
 10
719.0008731982509
 20
403.5163030722697
 10
719.0023453875028
 20
403.49269889649185
 10
719.0112148616494
 20
403.35897722799723
 10
719.0128730836205
 20
403.33538539137334
 10
719.1857757989823
 20
401.0067365488645
 10
719.1872302184262
 20
400.98501488744796
 10
719.2928339770467
 20
399.21524955622016
 10
719.4734100452815
 20
395.986595608582
 10
719.4743081890442
 20
395.97124292360786
 10
719.4796273181568
 20
395.884148432453
 10
719.4806054336491
 20
395.86878120750526
 10
719.6605748639918
 20
393.15130447991123
 10
719.6608044478644
 20
393.1478677638763
 10
719.9853364396054
 20
388.33141795553854
 10
720.1124201707407
 20
386.3543340657583
 10
720.2102268786216
 20
384.68284454938083
 10
720.2107184751985
 20
384.67463622580965
 10
720.5927279246328
 20
378.4393297181034
 10
720.5937107500911
 20
378.4215614341051
 10
720.9746777733204
 20
370.7042577695537
 10
721.0402984076607
 20
369.3147491772377
 10
721.0411232418442
 20
369.2943288983896
 10
721.0986802204466
 20
367.57972444092877
 10
721.0988641690343
 20
367.5743863926039
 10
721.4228817248227
 20
358.40870856162496
 10
721.4234634661511
 20
358.38833162684443
 10
721.6523919788035
 20
347.8626296187412
 10
721.7009566742586
 20
345.4180984345183
 10
721.7357170644941
 20
342.532100058552
 10
721.735779301865
 20
342.52725736246714
 10
721.8868075671894
 20
331.47030837891856
 10
721.9595326653574
 20
321.9106057025477
 10
721.9874353432857
 20
317.6142878314786
 10
722.0049948919852
 20
311.4516515096877
 10
722.0223948703374
 20
304.76379039390946
 10
722.0149819860583
 20
301.5736991481476
 10
722.0149740703586
 20
301.5677781198679
 10
722.0149622576257
 20
301.53403124992525
 10
722.0149660840262
 20
301.52807591682773
 10
722.0260755762727
 20
294.7335864421025
 10
722.0220176989839
 20
293.63882743055444
 10
721.9554935181059
 20
287.61132987579253
 10
721.9554032743472
 20
287.6017741216247
 10
721.9549763692527
 20
287.54739893449806
 10
721.9549163795429
 20
287.5378031884236
 10
721.9273968303236
 20
281.62258137641896
 10
721.9135571847341
 20
280.2803568330286
 10
721.8127094277144
 20
274.41361548614964
 10
721.8126073950527
 20
274.40729195271393
 10
721.8120639083058
 20
274.37125427669497
 10
721.8119747403683
 20
274.36489458388417
 10
721.7774817692632
 20
271.70351222075533
 10
721.7050275795568
 20
267.1239122230796
 10
721.6156466036718
 20
261.6749741485652
 10
721.535176347714
 20
257.60193645351126
 10
721.4051980589456
 20
251.36913905929333
 10
721.2084960005006
 20
244.28827760441322
 10
721.2083116215169
 20
244.28135228961565
 10
721.1151894890595
 20
240.62498754254082
 10
720.9881029078924
 20
236.71265960895116
 10
720.7204229244694
 20
229.1289396636283
 10
720.3719735557543
 20
221.1498420504179
 10
720.3716238025117
 20
221.14157131283116
 10
720.1913701973763
 20
216.73503472612322
 10
719.9743338260341
 20
212.14069764781974
 10
719.5865850982541
 20
204.3983894271659
 10
719.2269892317631
 20
197.90689052573782
 10
719.2266823955836
 20
197.9012554882038
 10
719.2249678061113
 20
197.86921198807926
 10
719.22467056842
 20
197.863556966307
 10
718.9608671873747
 20
192.75260953713916
 10
718.6023844110096
 20
186.27144624134596
 10
718.4119305616002
 20
183.01526535117233
 10
718.321885465604
 20
181.5897222992234
 10
718.3209812462273
 20
181.5748177307217
 10
718.3160450012267
 20
181.48995850681248
 10
718.3152113375935
 20
181.4749811552895
 10
718.1645801135903
 20
178.6411235028292
 10
717.9843468370956
 20
175.75763816541541
 10
717.9829521417291
 20
175.73751992647766
 10
717.7708480730666
 20
172.95054545701737
 10
717.7691181088657
 20
172.92654236954024
 10
717.7598607093912
 20
172.79048812925723
 10
717.7583233468547
 20
172.76647193678053
 10
717.6128271056238
 20
170.34101948438592
 10
717.6118367927679
 20
170.3258048462971
 10
717.433148120051
 20
167.780203595097
 10
717.4316499235745
 20
167.7606846218248
 10
717.252770790435
 20
165.6138768529764
 10
717.2516046230037
 20
165.59946132578517
 10
717.2451932890065
 20
165.51775796795266
 10
717.2440966303543
 20
165.50333698634853
 10
717.1767583125876
 20
164.58868894037107
 10
717.0351228354391
 20
162.70139166753302
 10
716.6485864112692
 20
157.62698340232333
 10
716.6481863331569
 20
157.6216688925968
 10
716.3136137751867
 20
153.12394667058862
 10
716.0354592164088
 20
149.4329571940082
 10
715.7296144523934
 20
145.36371794846164
 10
715.7291961878304
 20
145.358081946931
 10
715.3632527227139
 20
140.3633548616814
 10
715.3628509031041
 20
140.35779970786413
 10
714.9696594395912
 20
134.85089239767797
 10
714.6771579558535
 20
130.78552320178224
 10
714.6765582658304
 20
130.77701955913938
 10
714.6732283654826
 20
130.7288256688529
 10
714.6726528198569
 20
130.72032002671904
 10
714.425183909383
 20
126.98432646374877
 10
714.0275132292835
 20
121.20704883333875
 10
713.6059738185097
 20
115.03053458749736
 10
713.6055635333946
 20
115.02443137916725
 10
713.6032741830743
 20
114.98984928991135
 10
713.6028763961305
 20
114.98374608255523
 10
713.3949149266946
 20
111.74210185698536
 10
713.2053541958629
 20
108.86433375757304
 10
712.7612455731993
 20
102.55415656496442
 10
712.244983506615
 20
95.54662897161177
 10
712.2444781288914
 20
95.53965838497953
 10
712.241657571846
 20
95.50011636363843
 10
712.2411679624231
 20
95.49313777784872
 10
712.1078994001992
 20
93.56135183390535
 10
711.9932061005876
 20
91.95647846294489
 10
711.4496924491958
 20
85.12064554852881
 10
710.8014120711649
 20
77.6019949525643
 10
710.8001845994521
 20
77.58733929104659
 10
710.7934204049056
 20
77.50412478273145
 10
710.792262782196
 20
77.48943692269535
 10
710.7454521704452
 20
76.87628782619123
 10
710.7069580802884
 20
76.41719323177549
 10
710.7052178121241
 20
76.39798501883467
 10
710.2086309000983
 20
71.28788579392571
 10
709.9995578532655
 20
69.18499618399485
 10
709.9977441000686
 20
69.16776549828592
 10
709.2947191580474
 20
62.84034835788239
 10
709.1654873024845
 20
61.77243750465604
 10
709.1632658925864
 20
61.7549704914789
 10
708.9126802255323
 20
59.87389958201348
 10
708.9117308148691
 20
59.86670619455754
 10
708.9064001242446
 20
59.82593722978953
 10
708.9054681142017
 20
59.818741567142325
 10
708.2371589839254
 20
54.60956064382299
 10
708.2349236392056
 20
54.59287912435664
 10
707.8226471856806
 20
51.64207495887584
 10
707.2583456556706
 20
47.85625656582445
 10
706.901593024319
 20
45.551599794958264
 10
706.4308563420614
 20
42.59039685787249
 10
706.1521107896899
 20
40.91720894409511
 10
705.0666084569456
 20
34.429210237649926
 10
704.9816400819439
 20
33.935092848984226
 10
704.9773386092919
 20
33.91124632287628
 10
704.9332312265976
 20
33.67758383607534
 10
704.7148588315473
 20
32.552954963229496
 10
704.71299376621
 20
32.5432646352034
 10
704.7024011389713
 20
32.487736546547666
 10
704.7005481431875
 20
32.47793435935213
 10
703.9701577683311
 20
28.578723858182997
 10
703.966125111084
 20
28.558002236676714
 10
703.7278842338648
 20
27.37815197194334
 10
703.7232216350424
 20
27.35592948643537
 10
703.3647488551242
 20
25.70951489214727
 10
703.1477937514244
 20
24.71784888844428
 10
702.7721016163032
 20
23.076432559723173
 10
702.766013389362
 20
23.050878395480964
 10
702.3739353598064
 20
21.46714139446283
 10
702.2375679118398
 20
20.92050351093232
 10
701.8432242737376
 20
19.388921928335094
 10
701.8372685340157
 20
19.36651657743056
 10
701.4549311069914
 20
17.9718258829688
 10
701.3110510860336
 20
17.452428600302596
 10
700.9629720354886
 20
16.235362619787793
 10
700.9556690563551
 20
16.210644414743456
 10
700.6266508096592
 20
15.131399978942795
 10
700.484150311333
 20
14.673450879007135
 10
700.4784115157047
 20
14.655419906790144
 10
700.2310465324647
 20
13.894980570174766
 10
700.2203868574443
 20
13.863407686732103
 10
699.9935706344384
 20
13.215441030226884
 10
699.8048075807153
 20
12.688824356774262
 10
699.7939034828689
 20
12.659397396539589
 10
699.6575135677392
 20
12.302894398813692
 10
699.6444990000668
 20
12.270041177863561
 10
699.4696123953131
 20
11.84331744102434
 10
699.2456264257944
 20
11.295774378897647
 10
699.2234142062448
 20
11.24424757803854
 10
699.159935155564
 20
11.104255144641343
 10
699.1499377444588
 20
11.082664467998711
 10
698.9701178266466
 20
10.702262600377423
 10
698.9569347619674
 20
10.673994954770649
 10
698.8830657906998
 20
10.513428385578663
 10
698.8701773294192
 20
10.485025207088086
 10
698.774113379199
 20
10.270363937035938
 10
698.7238043457264
 20
10.168704983299222
 10
698.4914336284697
 20
9.747520147653006
 10
698.4599168931757
 20
9.693139811692902
 10
698.4256993821388
 20
9.636858274815665
 10
698.3102833033656
 20
9.472854810552803
 10
697.9333847961007
 20
9.006974099570357
 10
697.829153211489
 20
8.870305956577056
 10
697.7824965576896
 20
8.805352042784364
 10
697.7287915916743
 20
8.728054801476844
 10
697.5210526123724
 20
8.41881509364407
 10
697.3731223681987
 20
8.16186533851311
 10
697.3695787932165
 20
8.163827116531024
 10
697.2941243818398
 20
8.027533222925797
 10
697.2241867910304
 20
7.994915657644867
 10
696.7547648668997
 20
7.8052453904161325
 10
696.5478863995725
 20
7.712413511709542
 10
696.4061003432155
 20
7.642237203042498
 10
696.3961360774965
 20
7.637282409800832
 10
696.3397242081414
 20
7.609100637986103
 10
696.3297783902358
 20
7.604108917490009
 10
696.0606706228094
 20
7.468420621605276
 10
695.9747503658648
 20
7.423341051292539
 10
695.4921489611361
 20
7.160096605431363
 10
695.4077314475039
 20
7.1122620822802105
 10
694.8313880894109
 20
6.773253288957051
 10
694.6443685319151
 20
6.663971614626973
 10
694.4598960183691
 20
6.556684880717853
 10
694.4545243843068
 20
6.553553356582654
 10
694.4236885198924
 20
6.535534001525036
 10
694.4182502359703
 20
6.532348398635236
 10
693.580778296353
 20
6.040597190929361
 10
693.5718721833981
 20
6.035387934055507
 10
693.5395198360245
 20
6.0170099402052415
 10
692.4504769427051
 20
5.4162290729104825
 10
692.4477797000964
 20
5.414739306140632
 10
692.1885642235954
 20
5.271393160064179
 10
692.1536145821259
 20
5.252664907100723
 10
691.3412830206025
 20
4.831090002523297
 10
690.5304964705135
 20
4.410852738247172
 10
690.4885636502186
 20
4.389943023865214
 10
690.1434504808046
 20
4.224532966862455
 10
690.1384336050832
 20
4.222122691881111
 10
688.9850233848983
 20
3.666668327687205
 10
688.7549328607602
 20
3.557892700210232
 10
688.7024153164057
 20
3.5343141137586827
 10
687.4847125517714
 20
3.0156562586309974
 10
687.4775507315368
 20
3.012594824843802
 10
687.4369896839019
 20
2.995194052107877
 10
687.4298358360094
 20
2.9921140348683934
 10
686.8490782989238
 20
2.7411805822117117
 10
686.7795793661176
 20
2.713190218965167
 10
685.1732286261818
 20
2.1124224178264512
 10
685.1573149602449
 20
2.1065730825138758
 10
685.0521903639778
 20
2.0686057733292955
 10
684.99268335897
 20
2.0485121664431745
 10
684.7637567461038
 20
1.9765145195027003
 10
683.1612465547403
 20
1.4751077154164705
 10
683.0974472168107
 20
1.456686204461903
 10
682.8262030642692
 20
1.384832724880141
 10
682.8218368377984
 20
1.3836725779677863
 10
682.7970998543913
 20
1.3770797869640319
 10
682.7927353799496
 20
1.3759130662270422
 10
682.0675099886879
 20
1.1814590457134955
 10
682.0436204818909
 20
1.175263779205011
 10
681.3528146030811
 20
1.0021696275477439
 10
681.2890148957513
 20
0.9876547532603581
 10
680.467159342282
 20
0.819442955279726
 10
679.4329823206442
 20
0.6071924230806189
 10
679.3412138645915
 20
0.5913103825723738
 10
678.2445941050364
 20
0.4364234026575673
 10
678.2388193759962
 20
0.43560205116330053
 10
677.5381270528383
 20
0.335246103880138
 10
677.4797573641057
 20
0.3280509715969515
 10
676.7839903271927
 20
0.2561024983533571
 10
676.7556959744361
 20
0.25344726021501174
 10
676.0676879861212
 20
0.19545167630917604
 10
676.0537998617525
 20
0.1942484750506992
 10
675.9751168310303
 20
0.18724753175411024
 10
675.9612344475163
 20
0.18597980949550674
 10
675.5875077151735
 20
0.15097581211506395
 10
675.5321440579585
 20
0.14682238775588985
 10
674.2262777603651
 20
0.07313073594457364
 10
674.2051599861927
 20
0.07208828843289439
 10
673.8480497524507
 20
0.05698227431264513
 10
673.8245106805111
 20
0.055893926847090825
 10
673.6911492477002
 20
0.04920287762678299
 10
673.6676194505255
 20
0.04792967188052444
 10
673.530364684528
 20
0.039962019759627765
 10
673.4729564889496
 20
0.03773164705700083
 10
671.8545564069475
 20
0.005880398522378982
 10
671.8387002465876
 20
0.005652178286823073
 10
671.6401750376731
 20
0.003844324144836264
 10
671.6126081326756
 20
0.003466603561037118
 10
671.4707355675516
 20
0.0008706088186727357
 10
671.3711684780234
 20
0.0
 10
669.6325209335422
 20
0.027720911702658668
 10
669.4562972626964
 20
0.03178503893610696
 10
669.4320172362848
 20
0.03224667781609014
 10
669.3078778598929
 20
0.03410436469044953
 10
669.2553869925357
 20
0.035809438509886604
 10
667.3070796560628
 20
0.13326749084336598
 10
667.1597743644024
 20
0.14130624138977055
 10
667.1371408065103
 20
0.1424556736347995
 10
667.0862770645867
 20
0.14484618114698833
 10
667.0325038067449
 20
0.14834250663733428
 10
665.2082029971148
 20
0.29991172069179584
 10
664.8126086781831
 20
0.33305498866201333
 10
664.7656513714214
 20
0.33773417950374096
 10
662.4703386957545
 20
0.6029866758425442
 10
662.4183142208644
 20
0.6099231658690201
 10
662.1257898684478
 20
0.6541478721816247
 10
662.1183333362368
 20
0.6552655904885114
 10
662.0760717729834
 20
0.6615462181935072
 10
662.0686124551876
 20
0.6626451926349546
 10
661.4034748676229
 20
0.759785479123309
 10
660.0327537191056
 20
0.959273882219577
 10
659.9631332097056
 20
0.9710860334809013
 10
659.2476399720545
 20
1.1098832342717628
 10
659.2295721479384
 20
1.1133307380420092
 10
659.1271290539435
 20
1.1325525060527184
 10
659.109040431978
 20
1.135889166949596
 10
657.8540226412856
 20
1.3634159802039676
 10
657.4073466213254
 20
1.444409864727561
 10
657.3295929803851
 20
1.4606463590071144
 10
656.25276086842
 20
1.715445873511328
 10
656.2349871529434
 20
1.7195944295092431
 10
656.1341990181293
 20
1.7427962853987538
 10
656.1164003926433
 20
1.7468366330867298
 10
654.7951126881394
 20
2.042549921167506
 10
654.7095870295088
 20
2.0643526327909854
 10
653.2208322398463
 20
2.4909042206712684
 10
653.2086083853092
 20
2.494378548066436
 10
653.1392985430529
 20
2.5139195890031942
 10
653.127060080958
 20
2.5173421050454294
 10
652.1397606910763
 20
2.7911895008692795
 10
652.0609899145953
 20
2.8153875231252528
 10
650.9833421343226
 20
3.179124460872856
 10
649.8114720924547
 20
3.5763591950073987
 10
649.7990169060947
 20
3.580550800470405
 10
649.7283529092215
 20
3.6041595295866955
 10
649.7158736520948
 20
3.608298453738996
 10
649.2966453407928
 20
3.746322556715654
 10
649.2138412788199
 20
3.7763067286012415
 10
646.6224017809736
 20
4.801721204426201
 10
646.4108127833262
 20
4.885511449076773
 10
646.3118314688816
 20
4.9288973113589805
 10
646.2887742602439
 20
4.9400109223454365
 10
643.4936412867407
 20
6.286167374535694
 10
643.3869672470602
 20
6.342947453371835
 10
642.6951834507208
 20
6.747757753142025
 10
642.663469884719
 20
6.76684469421042
 10
640.6981126244661
 20
7.9829864645178645
 10
640.564750748186
 20
8.075870520410035
 10
638.8186364081309
 20
9.438328845028877
 10
638.7955132103098
 20
9.456740818828166
 10
637.9704844917208
 20
10.127063092352103
 10
637.8524391919223
 20
10.233864356548963
 10
634.8397629531976
 20
13.265638511852103
 10
634.7355588799935
 20
13.382055148439292
 10
631.5881556047738
 20
17.29045349053945
 10
631.5190601404867
 20
17.383384953100347
 10
630.8351087185877
 20
18.381593836474565
 10
630.796429455949
 20
18.44100980300982
 10
628.5673886883133
 20
22.048806822896296
 10
628.4952970569725
 20
22.179652533038535
 10
628.4838148020106
 20
22.203197587735133
 10
626.2952255150234
 20
26.700257312644993
 10
626.2821664784146
 20
26.727798427252367
 10
625.8063586719952
 20
27.758177679034674
 10
625.7615531441686
 20
27.86605969742257
 10
624.515370241742
 20
31.231024500888168
 10
624.5091550640057
 20
31.24765555581152
 10
624.4736572169359
 20
31.34179301351341
 10
624.467343723406
 20
31.35838699500067
 10
623.1794729895555
 20
34.71343907635443
 10
623.1483070446313
 20
34.80299569848415
 10
622.8798365522566
 20
35.660931519152456
 10
622.8667289237128
 20
35.705197830336886
 10
622.2319694200321
 20
37.97671143361964
 10
622.2278438106908
 20
37.99177730911407
 10
621.023247611013
 20
42.482374206737916
 10
621.0026694035924
 20
42.569371981474774
 10
620.4069303787485
 20
45.471593834980354
 10
620.4016376366928
 20
45.49863694871445
 10
619.639741947807
 20
49.590577029218565
 10
619.6364223496462
 20
49.609047006120534
 10
619.00215061497
 20
53.26945211877833
 10
618.9904113699524
 20
53.350201320976
 10
618.4738612439655
 20
57.7389413756504
 10
618.4703629619626
 20
57.771772351808835
 10
618.2169104717511
 20
60.42751120300417
 10
618.2142642805095
 20
60.45866966414974
 10
617.8704583283356
 20
65.0774452500875
 10
617.868081731916
 20
65.1073521693437
 10
617.853767366048
 20
65.27675238845467
 10
617.8510918110464
 20
65.30663404562728
 10
617.1838509840999
 20
72.36133798090756
 10
617.1811453938549
 20
72.39367089995366
 10
616.7177250450541
 20
78.75959942412396
 10
616.7162883642814
 20
78.78155811222376
 10
616.4265894381434
 20
83.77093431197878
 10
616.4254002307785
 20
83.79466109716597
 10
616.2132431731532
 20
88.82387814067633
 10
616.2123702266615
 20
88.84310642524866
 10
616.207074045993
 20
88.95204951628972
 10
616.206077748854
 20
88.97127180426929
 10
615.8469127421555
 20
95.49591043750155
 10
615.8456507675751
 20
95.52344235195619
 10
615.5930901054494
 20
102.41763253031547
 10
615.4716349124649
 20
106.96679544182629
 10
615.4711671029196
 20
106.99283961265533
 10
615.4312027116148
 20
111.3080963244231
 10
615.4310389685817
 20
111.32219771630449
 10
615.4299232833936
 20
111.40210290342893
 10
615.4296932547999
 20
111.4162033697944
 10
615.2965313359497
 20
118.55064544096436
 10
615.2962781247667
 20
118.57374010406812
 10
615.2711127772518
 20
126.28192975663089
 10
615.2946970685925
 20
130.0474575738314
 10
615.2949747816131
 20
130.06835971364035
 10
615.3608832787751
 20
133.3191550781441
 10
615.3612426356731
 20
133.34069573142253
 10
615.3628406814069
 20
133.4627648936075
 10
615.3630453419333
 20
133.484307572065
 10
615.41496678031
 20
142.27054891396787
 10
615.5665359306118
 20
156.11247849650056
 10
615.5668100619916
 20
156.12909702791615
 10
615.578937914121
 20
156.679379865834
 10
615.5793132658639
 20
156.69946269048165
 10
615.5810592542052
 20
156.81327098352816
 10
615.5813001348604
 20
156.83335587116215
 10
615.5821856687395
 20
156.93578844849685
 10
615.5834154051673
 20
157.0481709769933
 10
615.5894871215663
 20
157.53717663436234
 10
615.5898734188465
 20
157.5573468819731
 10
615.9714814438589
 20
172.30091543020478
 10
615.9717065841473
 20
172.31016525612424
 10
615.9729015457573
 20
172.362582757077
 10
615.9730981568023
 20
172.37183323337763
 10
616.1470548881957
 20
181.19701203633866
 10
616.1471565118147
 20
181.20241452994708
 10
616.1477048081373
 20
181.2330291498106
 10
616.1477967008951
 20
181.238431817698
 10
616.2109380116495
 20
185.15831624006768
 10
616.285835567209
 20
189.64334108909043
 10
616.4068203913504
 20
196.83657010904295
 10
616.4069029511484
 20
196.8417441356392
 10
616.4965432839593
 20
202.7805773630006
 10
616.571903023357
 20
207.3596045599097
 10
616.5719722622702
 20
207.3640081244003
 10
616.6342122172392
 20
211.51633155878463
 10
616.7051200480665
 20
216.42999430654174
 10
616.7052032747116
 20
216.43620766114432
 10
616.7056383556087
 20
216.47141129621517
 10
616.7057087026292
 20
216.47762386633957
 10
616.7486452968558
 20
220.65120098438075
 10
616.8000962099954
 20
224.25803784751875
 10
616.8412505586081
 20
227.0921313387507
 10
616.8414912726929
 20
227.11440202294992
 10
616.8423868493048
 20
227.24060614523955
 10
616.8424622204143
 20
227.2628781017555
 10
616.8411213776212
 20
231.3519434036039
 10
616.8410318062388
 20
231.37416286422555
 10
616.8400579673914
 20
231.50006922994788
 10
616.8398038301136
 20
231.522287417716
 10
616.7468146901715
 20
237.66334842530347
 10
616.7469355170042
 20
237.71569002874645
 10
616.7541247130264
 20
238.07950732640563
 10
616.7558125389605
 20
238.12692907550158
 10
616.759710462447
 20
238.20270371463542
 10
616.7636712628794
 20
238.35491824799982
 10
616.7642202603696
 20
239.21961773941229
 10
616.762472397118
 20
239.32393215582147
 10
616.7602595609603
 20
239.38871740822705
 10
616.7584386311361
 20
239.4889750372111
 10
616.7582258277303
 20
239.52639138569572
 10
616.7946593759402
 20
244.89544053000688
 10
616.7946913005494
 20
244.93072630670397
 10
616.7936963117475
 20
245.1306719692949
 10
616.7933132124766
 20
245.16595568071017
 10
616.7273533297273
 20
249.10625472111215
 10
616.7271432122425
 20
249.13140804182888
 10
616.7271446448569
 20
249.17659564644828
 10
616.72766153523
 20
249.262198022964
 10
616.7274384658169
 20
249.3211350106803
 10
616.7227284214591
 20
249.66723883607338
 10
616.7212753408849
 20
249.72830863607857
 10
616.716362267604
 20
249.87288006604626
 10
616.7155156966048
 20
249.93132432622116
 10
616.7305905025161
 20
252.94477833775727
 10
616.7317213506382
 20
252.99598870504857
 10
616.7755484415778
 20
254.1147345570066
 10
616.7777909939797
 20
254.21370198988154
 10
616.7812436397877
 20
254.77454746780884
 10
616.7802197268151
 20
254.87353500951673
 10
616.7531153166932
 20
255.88302934694826
 10
616.7526256100624
 20
255.93560990765064
 10
616.7739828810846
 20
258.5348114368982
 10
616.7754854324887
 20
258.59072786353045
 10
616.8025856792731
 20
259.1857543784901
 10
616.8045055262014
 20
259.23787066744194
 10
616.8128168703867
 20
259.53326461159503
 10
616.8138304781658
 20
259.58540639892203
 10
616.8162904909389
 20
259.81434343367613
 10
616.821054063911
 20
260.1472494054351
 10
616.8214552753174
 20
260.16651932770185
 10
616.9378339416546
 20
264.4330058686543
 10
616.9386131297322
 20
264.469890683689
 10
616.941743171815
 20
264.6789224874458
 10
616.9420687118436
 20
264.71581409540664
 10
616.9565360889734
 20
270.12392108425183
 10
616.957049321873
 20
270.15934807708805
 10
616.9819813470408
 20
271.1072245749566
 10
616.9828033960329
 20
271.1311886723111
 10
617.0102477715611
 20
271.7798680967096
 10
617.0129289796689
 20
271.90763429425164
 10
617.012698420869
 20
272.6315798477857
 10
617.0099358325492
 20
272.75934431161295
 10
616.9792609978688
 20
273.47360655652915
 10
616.9780066391698
 20
273.5184496900176
 10
616.9450557522991
 20
276.0510610408623
 10
616.9450237694505
 20
276.0874518930184
 10
617.0270451949709
 20
283.3765366113553
 10
617.0272060872865
 20
283.3970964152131
 10
617.0277185668658
 20
283.5136034851208
 10
617.0277385500708
 20
283.5341639087954
 10
617.0174750281215
 20
287.71512244109266
 10
617.0173947177025
 20
287.7309116007146
 10
617.0167041793954
 20
287.82038157869215
 10
617.0165407701143
 20
287.83617009694944
 10
616.9456330347106
 20
293.2982564860574
 10
616.8636826300733
 20
299.5877319301185
 10
616.8636202190809
 20
299.5922595264691
 10
616.8632471953999
 20
299.6179155878595
 10
616.8631779508765
 20
299.62244307936766
 10
616.798515418493
 20
303.6514893434458
 10
616.7980949482528
 20
303.6729175353565
 10
616.7952785814825
 20
303.794333622496
 10
616.7947050376832
 20
303.8157582637148
 10
616.5657026931806
 20
311.36231775026806
 10
616.5650523219233
 20
311.3968925224532
 10
616.528488257813
 20
316.4188204997651
 10
616.5287162797708
 20
316.45808229329504
 10
616.5666675126861
 20
318.46626093897737
 10
616.5670579964633
 20
318.55245072336066
 10
616.5622551335867
 20
319.0407727112652
 10
616.5601694599911
 20
319.12693814154477
 10
616.5109729919958
 20
320.4019380215757
 10
616.5099892456523
 20
320.43990269903554
 10
616.4925883726759
 20
321.753459659498
 10
616.4912602576283
 20
321.8114219340366
 10
616.4805614872979
 20
322.13976602440067
 10
616.4781135035322
 20
322.1976918091143
 10
616.3607124668591
 20
324.45778272672237
 10
616.3588472740516
 20
324.5140769081521
 10
616.2421759092816
 20
332.647861950991
 10
616.2420357061578
 20
332.675875260144
 10
616.2645568108871
 20
337.8729500422092
 10
616.2645793743422
 20
337.88015159477254
 10
616.2682503232024
 20
339.77937850349707
 10
616.2682173604387
 20
339.800388881792
 10
616.2676150958914
 20
339.9191631915394
 10
616.2674355413831
 20
339.9401270745617
 10
616.157839343487
 20
349.02813065030097
 10
616.1388171590639
 20
350.90666219690786
 10
616.0569676747348
 20
359.3002584541113
 10
616.0568527636408
 20
359.31031399271114
 10
616.0561060949547
 20
359.36729451801284
 10
616.0559574765155
 20
359.3773496889713
 10
616.0550230755928
 20
359.4341288627797
 10
616.054869929979
 20
359.44269186447883
 10
616.0539328445486
 20
359.4912141857218
 10
616.0537552540092
 20
359.49977671532946
 10
616.0521948191075
 20
359.57016650971684
 10
616.0518810917272
 20
359.5905991083861
 10
615.9678194680496
 20
369.4322003397455
 10
615.9435480651222
 20
374.11911440010374
 10
615.9421111283407
 20
374.1977107375637
 10
615.9281337056618
 20
374.6429549050731
 10
615.9246373411972
 20
374.72149746180463
 10
615.640509170048
 20
379.64968461950014
 10
615.6387799959438
 20
379.6883549065428
 10
615.311174309226
 20
389.99272126801657
 10
615.3104753300646
 20
390.0271361945112
 10
615.3043802407166
 20
390.71716071182044
 10
615.3043100681133
 20
390.72417617893257
 10
615.2988746964096
 20
391.21069392838774
 10
615.2984666979175
 20
391.2369366536482
 10
615.2955252816108
 20
391.3845772050248
 10
615.2948926122124
 20
391.4106443426805
 10
615.1627804224042
 20
396.0267836317544
 10
615.0056379656527
 20
402.5273605546247
 10
615.005422233596
 20
402.5357940045507
 10
615.0041304706352
 20
402.58365918473106
 10
615.0038906166292
 20
402.5921056631506
 10
614.7299441178258
 20
411.7829576587351
 10
614.728116524621
 20
411.83122276189334
 10
614.7155593700853
 20
412.1046207975375
 10
614.7129549757095
 20
412.15285022226715
 10
614.5515996917215
 20
414.75211376728953
 10
614.3246846236566
 20
418.91512371675935
 10
614.3238368842469
 20
418.9325507062781
 10
614.0628471194912
 20
425.02947229158326
 10
613.9457444650504
 20
428.02610861266254
 10
613.9440660584988
 20
428.06318071899244
 10
613.9332501635383
 20
428.2733055912286
 10
613.9311119829848
 20
428.3103748894619
 10
613.6166521137386
 20
433.23211246072844
 10
613.2875713337382
 20
438.39514887505845
 10
613.286095793749
 20
438.42212358247184
 10
613.2527231347891
 20
439.1528134460376
 10
613.2521107173858
 20
439.1656216096562
 10
613.2484852590001
 20
439.23819339689453
 10
613.247818101824
 20
439.2509988258876
 10
613.2126917678034
 20
439.8985755862559
 10
613.2118670152829
 20
439.9131267974933
 10
613.2069931554136
 20
439.9955717362003
 10
613.2060977203065
 20
440.0101187689254
 10
612.9304788889139
 20
444.3171236710249
 10
612.9300697511906
 20
444.3234134489029
 10
612.7130174103054
 20
447.60695750594016
 10
612.7118728782141
 20
447.62357111972574
 10
612.7051348577974
 20
447.71757195245846
 10
612.7038996760482
 20
447.7341588366647
 10
612.6058484799141
 20
449.0033401081172
 10
612.6011655818248
 20
449.0575497561063
 10
612.5718461197857
 20
449.3644674057442
 10
612.5661808222555
 20
449.41858320633463
 10
612.1895273316715
 20
452.7264643249573
 10
612.1866103689001
 20
452.7544076623357
 10
612.0532664701174
 20
454.1590625822244
 10
612.0129139997239
 20
454.61652477076615
 10
611.9974615697924
 20
454.7549208607841
 10
611.891420568473
 20
455.5391331563189
 10
611.8694822614083
 20
455.6771009423955
 10
611.8223640930997
 20
455.93460848812845
 10
611.81231917529
 20
455.9968728544035
 10
611.4117191982634
 20
458.8619354253133
 10
611.4088460726975
 20
458.8836374208456
 10
611.1952483216356
 20
460.59280529796047
 10
611.1873899523478
 20
460.6732512895454
 10
611.1848501050861
 20
460.7092562365103
 10
611.175574796964
 20
460.81436980061346
 10
611.112560452651
 20
461.4088724038633
 10
611.0995941895737
 20
461.51359474494234
 10
610.9931198250258
 20
462.2649275074075
 10
610.9875852295304
 20
462.30858267683345
 10
610.7120016665534
 20
464.77132394179847
 10
610.7060178844779
 20
464.8383878764895
 10
610.5431418114589
 20
467.2825211894541
 10
610.5368169332727
 20
467.3616414855146
 10
610.495052935094
 20
467.80942344610116
 10
610.4866371233202
 20
467.8883487237059
 10
610.397107554428
 20
468.6342458011577
 10
610.3890897580209
 20
468.7235224979357
 10
610.3355985188043
 20
469.6187845313033
 10
610.33364825695
 20
469.661777388627
 10
610.2807471302481
 20
471.36857452359186
 10
610.2803546837766
 20
471.4463718159389
 10
610.3086222183412
 20
472.79897323819773
 10
610.3091272682525
 20
472.83166930829753
 10
610.3109793753082
 20
473.0169561617999
 10
610.3111280136666
 20
473.0496557945498
 10
610.3100579140911
 20
474.2327568651772
 10
610.3139376124286
 20
474.3419185949922
 10
610.4044270493149
 20
475.59730950918004
 10
610.4056143011119
 20
475.6126789037041
 10
610.4646254567493
 20
476.32866857989336
 10
610.4768745517229
 20
476.4327255267556
 10
610.5455179466567
 20
476.8804875748275
 10
610.5471380105824
 20
476.8911840066788
 10
610.5562090482448
 20
476.9518134414708
 10
610.5577905288604
 20
476.9625156459422
 10
610.7355598452534
 20
478.1807017132418
 10
610.757772970725
 20
478.2992989062148
 10
611.0188192622172
 20
479.4377621037846
 10
611.0561512921992
 20
479.57171654567793
 10
611.2631594860677
 20
480.2001912458796
 10
611.3312883479086
 20
480.3709737811437
 10
611.5694811985209
 20
480.8756652464686
 10
611.6801043873459
 20
481.14267646948656
 10
612.2095473243318
 20
482.6178393409717
 10
612.2972868232425
 20
482.90749745057485
 10
612.3553948692012
 20
483.20452185213605
 10
612.5556058858493
 20
484.5977092304008
 10
612.5834910678178
 20
484.8990768742423
 10
612.5808695764864
 20
485.2017205061119
 10
612.4976986883386
 20
486.60676076372323
 10
612.4645972046752
 20
486.9076001426404
 10
612.4013526283724
 20
487.20357339091834
 10
612.0381772007368
 20
488.5634112970326
 10
611.9454332213197
 20
488.8515060634027
 10
611.8241337668145
 20
489.12879018206934
 10
611.1957014610113
 20
490.38820606221657
 10
611.0470810908514
 20
490.65185739580227
 10
610.8726524308004
 20
490.89919255844745
 10
610.0044823378896
 20
492.0070446297634
 10
609.8060206848651
 20
492.23554629804335
 10
609.5855459383537
 20
492.44288883173755
 10
608.5128923115811
 20
493.3541899450453
 10
608.2726484155418
 20
493.53826305699744
 10
608.0150805200318
 20
493.69719329115856
 10
606.7815011862707
 20
494.3749377485028
 10
606.5092307612417
 20
494.5071075475589
 10
606.225028915789
 20
494.6111717160768
 10
604.8806164992682
 20
495.02783798114797
 10
604.5873757778862
 20
495.10273737668194
 10
604.2880807207799
 20
495.1477096894945
 10
602.887428504758
 20
495.28637796956104
 10
602.5851252718431
 20
495.30096548124584
 10
602.2828906395935
 20
495.28501972328553
 10
600.8828756673321
 20
495.1400590403828
 10
600.5837857140192
 20
495.0937423052295
 10
600.2908845120569
 20
495.01752599452755
 10
598.9483579499151
 20
494.5948228456307
 10
598.6646265839538
 20
494.48948267239325
 10
598.3929528100499
 20
494.3560907659642
 10
597.1624313613756
 20
493.67281008681636
 10
596.9055802160393
 20
493.5127240809715
 10
596.6661658742948
 20
493.32757329621745
 10
595.4819981286697
 20
492.3123355769441
 10
595.2624572975518
 20
492.10400443764905
 10
595.0837935530185
 20
491.9164504025954
 10
594.984587730027
 20
491.82265670905906
 10
594.9590370045488
 20
491.8026005557415
 10
594.9097219028115
 20
491.7698390616879
 10
594.6662228508017
 20
491.6216101836639
 10
594.5935157584676
 20
491.575911142109
 10
594.4264884678062
 20
491.4675627748062
 10
594.2773416063926
 20
491.382533827216
 10
593.8792373605754
 20
491.1848769542786
 10
593.8409265916204
 20
491.16652740054246
 10
593.1244789046651
 20
490.835762970994
 10
593.05131827782
 20
490.80077947417
 10
592.6395095196857
 20
490.5969796360847
 10
592.5673211925018
 20
490.5600314590142
 10
592.2199642357513
 20
490.3762771175428
 10
592.214208221243
 20
490.3732241398291
 10
591.8632963910738
 20
490.1866127128018
 10
591.8448054258536
 20
490.17694378375097
 10
591.2190038122068
 20
489.8552349924231
 10
591.0594317497574
 20
489.7669712868071
 10
590.171364451051
 20
489.23988868054386
 10
590.0174498480862
 20
489.14209287369283
 10
589.7771721129236
 20
488.9789650847633
 10
589.6479243170834
 20
488.90043773048
 10
589.465301461004
 20
488.80173393534994
 10
589.3543556483165
 20
488.7386850006862
 10
588.7420878863754
 20
488.37329990651915
 10
588.614028748237
 20
488.29801840102607
 10
588.5435190328604
 20
488.27413218706346
 10
588.2847402464739
 20
488.2008832431168
 10
588.2191519791181
 20
488.1815079120521
 10
587.8487932979251
 20
488.0674951264998
 10
587.7836637391933
 20
488.0466297281569
 10
587.4319219328104
 20
487.92950579080133
 10
587.2594040292852
 20
487.88327744664025
 10
586.6858617163992
 20
487.76570711494924
 10
586.6637868534955
 20
487.76135425333894
 10
585.4445126120743
 20
487.5304164798447
 10
585.3737572449288
 20
487.51875978465404
 10
583.5545759580793
 20
487.26356413464123
 10
582.4451819391984
 20
487.1109105655188
 10
582.3774871182951
 20
487.103158972359
 10
581.3665980333827
 20
487.0106181457867
 10
581.3454806019975
 20
487.00860966148304
 10
581.2258571553085
 20
486.9968053495762
 10
581.2047544535568
 20
486.99464759695815
 10
578.846229953861
 20
486.74505957828296
 10
578.8033851100495
 20
486.7411460500714
 10
576.1407698456042
 20
486.53639668088204
 10
576.1257393991528
 20
486.53531678942113
 10
575.331850679816
 20
486.4822852885194
 10
575.3061747844681
 20
486.4807911374535
 10
574.6037714109339
 20
486.44595584471637
 10
572.0030188416873
 20
486.3212221851178
 10
571.9612158513119
 20
486.3198012523702
 10
569.4199494892105
 20
486.2688831537731
 10
569.4112168720949
 20
486.268695464448
 10
569.3617337134729
 20
486.26755985571464
 10
569.3530016798377
 20
486.2673467418075
 10
568.8718959304045
 20
486.2549040574618
 10
568.8250678828451
 20
486.25442427970563
 10
568.3613659019045
 20
486.2569128025022
 10
565.9065503470546
 20
486.2699765773045
 10
565.8794408314925
 20
486.2703658800609
 10
563.3946729603613
 20
486.3285129290143
 10
563.0606017626058
 20
486.33849982987635
 10
563.037212437521
 20
486.3393883388984
 10
562.7202980827828
 20
486.35393403773656
 10
562.6983780836879
 20
486.35485981099134
 10
562.5741475269067
 20
486.3596515838077
 10
562.5522213436799
 20
486.36041702847865
 10
560.0429039816693
 20
486.4388318663657
 10
557.2270471719542
 20
486.5528039124258
 10
557.2097359272655
 20
486.55360595449304
 10
557.1917556272966
 20
486.5545435209493
 10
554.0075033435598
 20
486.7351353975786
 10
551.0632694108457
 20
486.9074884412978
 10
551.0360361296443
 20
486.90895847428544
 10
550.8816517958986
 20
486.9165883983966
 10
550.8544012808203
 20
486.9178109974592
 10
550.5149163465373
 20
486.93149583277483
 10
550.4863137513352
 20
486.93292242950537
 10
550.0734124898634
 20
486.9574700244617
 10
550.0668010335647
 20
486.9578557624536
 10
550.0293337555263
 20
486.9600002548267
 10
550.0227214637973
 20
486.96037139665816
 10
546.691869118195
 20
487.14364116878244
 10
542.4158186508268
 20
487.39805708591905
 10
542.3036502002813
 20
487.40545024680455
 10
542.1839271963634
 20
487.413764745089
 10
539.7966639130981
 20
487.57771354728004
 10
537.3949622865371
 20
487.7547537273207
 10
532.4280809779223
 20
488.16553769681036
 10
532.1454814133217
 20
488.19033793840896
 10
532.1208023872093
 20
488.1927142345645
 10
531.7876093702993
 20
488.22760008596936
 10
531.771242758256
 20
488.22926834214803
 10
531.6784735233385
 20
488.238467416125
 10
531.6620980090286
 20
488.2400458962459
 10
526.3681138301542
 20
488.73570070658445
 10
521.5128270500206
 20
489.2014474841569
 10
521.4863044791415
 20
489.2042299001424
 10
520.8071825919542
 20
489.2815848799055
 10
520.7984955127042
 20
489.28256155766826
 10
519.9935921407481
 20
489.37186851663523
 10
519.9632595545534
 20
489.37507801483684
 10
519.7922643776201
 20
489.39229250435983
 10
519.7620592754338
 20
489.39517910114944
 10
515.1504193978717
 20
489.8123739760869
 10
515.1248573252043
 20
489.8145763052557
 10
514.97995533131
 20
489.8264365051036
 10
514.954375358751
 20
489.82842014232983
 10
510.63738722292334
 20
490.14462242644436
 10
510.61184569447755
 20
490.14671274573743
 10
510.30485121570746
 20
490.1744791784833
 10
510.2340654600214
 20
490.18003778588064
 10
509.8326395449857
 20
490.2067849976355
 10
509.7617420639965
 20
490.21066681595937
 10
509.46492418445666
 20
490.2233973319685
 10
509.45205919299394
 20
490.2239214554751
 10
509.3791515961628
 20
490.2267350302913
 10
509.36628447371544
 20
490.22720393399743
 10
505.9014626730259
 20
490.3460243556343
 10
505.88583198545257
 20
490.34664199974145
 10
505.79598465106847
 20
490.35066163103465
 10
505.75349919982057
 20
490.3522608014964
 10
505.5126983205924
 20
490.3596163478477
 10
505.47019447313244
 20
490.36061327557303
 10
502.4773481911021
 20
490.4095947325974
 10
502.4718058105816
 20
490.4096803186171
 10
502.4403985711335
 20
490.41013629070545
 10
502.4348560419354
 20
490.41021163603546
 10
502.0697915114562
 20
490.4148370161214
 10
502.04820014528315
 20
490.4150328689906
 10
501.92584694052664
 20
490.4157023829405
 10
501.904254723975
 20
490.4157428296524
 10
501.44596896512314
 20
490.41495205171805
 10
499.0987168985463
 20
490.4124096755854
 10
497.4225435512159
 20
490.4222675580184
 10
496.96421607208504
 20
490.4279303927617
 10
496.8899602059364
 20
490.43070304390477
 10
496.4305188457121
 20
490.45929931989406
 10
496.4004182806391
 20
490.46102102681346
 10
496.2298044544857
 20
490.4699199839482
 10
496.1996881067047
 20
490.4713390994249
 10
494.6864945865292
 20
490.53502353116886
 10
494.6425422362629
 20
490.5375199350949
 10
492.7758279431515
 20
490.6710541488121
 10
492.7547330144638
 20
490.6727127933307
 10
492.2717371171763
 20
490.71411945068286
 10
492.2559826139636
 20
490.71555379243136
 10
491.809117728478
 20
490.75861498023346
 10
491.7979794336529
 20
490.75966734026633
 10
491.73485156824256
 20
490.76551299856413
 10
491.7237094263111
 20
490.76652381331405
 10
489.0469661414738
 20
491.0043264517792
 10
485.3012023821976
 20
491.35860809736954
 10
485.2193777179979
 20
491.36646289793464
 10
485.2131260501384
 20
491.3670564271751
 10
485.1770857984211
 20
491.3704400079624
 10
485.1707251170081
 20
491.3710303392236
 10
485.08621593921276
 20
491.37878284801184
 10
483.5510163892543
 20
491.51916263938256
 10
480.5879969638571
 20
491.80953498145766
 10
480.58068682972703
 20
491.8102423330165
 10
475.7330882545229
 20
492.2733226727004
 10
475.4474517200741
 20
492.30153208200386
 10
475.11861076731225
 20
492.3351241491372
 10
475.1082829333056
 20
492.3361611176273
 10
475.04889691227123
 20
492.3420200310986
 10
475.03841520582864
 20
492.34303556395434
 10
469.9988539945567
 20
492.82237295586464
 10
465.62659661975306
 20
493.23690203192143
 10
464.7078083763654
 20
493.32950022351383
 10
464.69656090302277
 20
493.3306123788051
 10
464.63184177514563
 20
493.3368887536283
 10
464.6204186269937
 20
493.3379745078413
 10
464.5505310871633
 20
493.3444823816536
 10
464.53533355931427
 20
493.34597563206734
 10
459.4690062499699
 20
493.86982471056007
 10
455.8123600055526
 20
494.2759215136866
 10
455.78764798891905
 20
494.27856238456843
 10
455.6471575602665
 20
494.29298769611523
 10
455.6223544818587
 20
494.29543036198174
 10
454.38883681025817
 20
494.41173863697543
 10
452.13794389762023
 20
494.64164720316063
 10
452.1186183605084
 20
494.6437489310525
 10
449.97914415626957
 20
494.89050635694673
 10
449.9535520688036
 20
494.89368118615823
 10
448.9863744336363
 20
495.02211588680336
 10
448.9269985605081
 20
495.0293989457974
 10
448.59016318045263
 20
495.06731042452645
 10
448.5306538925945
 20
495.0734081221833
 10
446.6156799873424
 20
495.2503541523559
 10
446.5770232577191
 20
495.25443190717243
 10
445.63784367726544
 20
495.36582529102304
 10
445.6058284219174
 20
495.3699723648953
 10
443.82015956775984
 20
495.6208445551903
 10
443.7381340400975
 20
495.63121799764417
 10
443.27261663939623
 20
495.68358351689994
 10
443.19033640125275
 20
495.6916926418651
 10
441.38438329763255
 20
495.8445825529795
 10
441.3623493075779
 20
495.8466117159943
 10
440.63148226927865
 20
495.9193593382671
 10
440.58351160256007
 20
495.92491539266666
 10
439.0209090687361
 20
496.1314424174073
 10
438.9531436891646
 20
496.1396156302222
 10
438.56867150177897
 20
496.18155537508255
 10
438.5007377157185
 20
496.1881847632648
 10
437.6908531579211
 20
496.2579268407254
 10
437.6696578089305
 20
496.25990365974366
 10
435.91710338418045
 20
496.43591121865506
 10
435.89682265132814
 20
496.43808737599477
 10
434.3101496390638
 20
496.61926052869603
 10
433.4664287804858
 20
496.71614694620837
 10
433.4441768745516
 20
496.7186180927065
 10
433.318020327402
 20
496.7321518290185
 10
433.29574843980816
 20
496.73445705948814
 10
430.5640117011785
 20
497.00690323030494
 10
428.17404405626553
 20
497.24834883432925
 10
428.1522882450433
 20
497.25070718103973
 10
427.2771292075302
 20
497.35203970741617
 10
427.26577258862653
 20
497.3533327429709
 10
427.20140473132057
 20
497.3605373188427
 10
427.1900432683919
 20
497.3617870764004
 10
427.0911255501179
 20
497.3724773175061
 10
427.07734499020836
 20
497.3739344200834
 10
426.9992365709788
 20
497.3820109300931
 10
426.9854494275617
 20
497.38340436314377
 10
426.89873298069966
 20
497.3919663072969
 10
423.61481490830533
 20
497.73168500358594
 10
423.60401366999554
 20
497.7327826329483
 10
423.54262790971995
 20
497.73890849390386
 10
423.5317931607301
 20
497.7399698733941
 10
420.5975852902567
 20
498.02203282797524
 10
420.59401071235015
 20
498.0223742902266
 10
420.20060846639893
 20
498.05971654017526
 10
419.826276581632
 20
498.09605968718324
 10
419.81932862893746
 20
498.09672609238623
 10
419.7796387210471
 20
498.1004863149217
 10
419.77263383986593
 20
498.1011416708993
 10
416.9425332985482
 20
498.36257031523166
 10
414.067762786962
 20
498.6284142614776
 10
414.03888292709564
 20
498.6313670491206
 10
414.0196288655642
 20
498.6335241235328
 10
413.98988346649594
 20
498.6367064795224
 10
413.82124122445333
 20
498.65389891426037
 10
413.7914655710963
 20
498.65678450303335
 10
413.4199232204898
 20
498.6909220736881
 10
413.39678926306647
 20
498.6932285660911
 10
411.1123599390376
 20
498.93888371997787
 10
409.0153947208978
 20
499.16418663589167
 10
408.95253824097625
 20
499.1702715987731
 10
408.5960354075505
 20
499.2009999267226
 10
408.53306482981014
 20
499.20576047520615
 10
407.9293272364911
 20
499.2450168217422
 10
407.9229132677813
 20
499.24542697302377
 10
407.8865650045447
 20
499.24771222765855
 10
407.88015017186643
 20
499.24810863699975
 10
407.064231279172
 20
499.2976516753758
 10
407.02519059939306
 20
499.3005340368511
 10
405.6048651425684
 20
499.42405140861
 10
405.57619609624516
 20
499.42640615701384
 10
405.41367858850197
 20
499.4389705162751
 10
405.38498828177893
 20
499.44105026559816
 10
404.1819837168563
 20
499.52245972330746
 10
404.1486495962374
 20
499.5245291696199
 10
403.9596978568625
 20
499.5352041739381
 10
403.9263427636298
 20
499.53690239681043
 10
402.8150236344999
 20
499.5872830859947
 10
401.70663163252135
 20
499.6429401763496
 10
401.6928561882541
 20
499.6436001604861
 10
401.61423944147134
 20
499.6471856045465
 10
401.60036442024955
 20
499.64778621778817
 10
400.2817422491934
 20
499.70180831471794
 10
400.2560507360772
 20
499.70275061053144
 10
400.1104457604905
 20
499.70746637587786
 10
400.0847471157212
 20
499.7081884732263
 10
398.0474160710811
 20
499.7566992623373
 10
398.0256163522414
 20
499.75737694373845
 10
397.2754410549581
 20
499.78615797888256
 10
397.26741193174746
 20
499.7864552550725
 10
397.2219114070741
 20
499.7880788896216
 10
397.2138815164948
 20
499.7883546611009
 10
396.64360469885656
 20
499.80717521886584
 10
396.6108000730922
 20
499.80807826247826
 10
396.4248857479532
 20
499.812178607349
 10
396.39207320666264
 20
499.8127227519195
 10
393.2863942991732
 20
499.8472356463839
 10
392.73524835879704
 20
499.8533788088547
 10
392.7200258935124
 20
499.8536257477744
 10
389.2092538506309
 20
499.92840056298246
 10
389.190218653102
 20
499.9287455642612
 10
389.0823476081451
 20
499.9303582856645
 10
389.0633106045148
 20
499.9305824811865
 10
388.6251020296053
 20
499.93435258097185
 10
388.03246091377247
 20
499.9400446586782
 10
382.8026362095726
 20
500.0304147178202
 10
382.7992069682226
 20
500.0304720134614
 10
377.471883546273
 20
500.1164347156572
 10
377.4621359392655
 20
500.1165761635243
 10
377.4069217558473
 20
500.1172876511123
 10
377.3971775333196
 20
500.1173973864441
 10
376.2015865638542
 20
500.1289196080987
 10
374.977881926975
 20
500.14261564747926
 10
369.72288289547976
 20
500.22090033829386
 10
369.71473580542676
 20
500.2210106412304
 10
364.6435711939597
 20
500.282781172348
 10
364.6366612885618
 20
500.28285738074305
 10
363.6770465997316
 20
500.2923355095432
 10
363.6679235747025
 20
500.29241174455655
 10
363.6167421914146
 20
500.29276160435734
 10
363.60770269874916
 20
500.2928097760366
 10
362.8715026073254
 20
500.2956238189803
 10
358.7291032100921
 20
500.321692254705
 10
355.2027105969047
 20
500.34214648523346
 10
355.1978096762203
 20
500.34217090833266
 10
355.170044135251
 20
500.34228659407336
 10
355.1651442245889
 20
500.34230300805916
 10
354.66043053349574
 20
500.3435815440032
 10
354.2507272995295
 20
500.34735868212124
 10
351.3606639103653
 20
500.3903887749274
 10
351.3285613536785
 20
500.3912113028297
 10
348.67753988317986
 20
500.4875626376887
 10
348.6644237082888
 20
500.48801062012285
 10
348.59009358298965
 20
500.49038660214825
 10
348.57697557386024
 20
500.49077720231344
 10
348.3400682167803
 20
500.49731271027105
 10
348.2954904944297
 20
500.4992063410569
 10
348.13150549104006
 20
500.50861755216226
 10
348.11547787005367
 20
500.5096234958454
 10
345.5012146331422
 20
500.6877572823655
 10
345.47960384525607
 20
500.68938674952255
 10
342.73463853674735
 20
500.91631301795087
 10
342.7275822079861
 20
500.91688798239045
 10
342.68759256607694
 20
500.92009892750485
 10
342.68053490010385
 20
500.92065723809026
 10
342.4523797491032
 20
500.938435029423
 10
342.23355152962887
 20
500.95742079010995
 10
342.22337969559743
 20
500.9582858745131
 10
342.15620120466514
 20
500.96388409705276
 10
342.14434420987976
 20
500.964848514432
 10
339.35794147060244
 20
501.18592708579615
 10
339.2203726582434
 20
501.19730525113937
 10
339.2001686150527
 20
501.1989076097709
 10
336.5906432610913
 20
501.39699809040496
 10
336.53625055286176
 20
501.40063035196715
 10
336.22786814229903
 20
501.41841089980164
 10
336.17341841405323
 20
501.42105421713717
 10
335.49501969582684
 20
501.4478120267526
 10
335.4244243867878
 20
501.4497645912834
 10
335.02431928338274
 20
501.456119135947
 10
334.9536975734807
 20
501.4564094067275
 10
332.4775454759813
 20
501.43744057374954
 10
332.44777931220483
 20
501.4375079057574
 10
331.27597488818583
 20
501.45178648087904
 10
331.2674421450443
 20
501.4518783164365
 10
330.970041589881
 20
501.45465614859506
 10
330.80753923440045
 20
501.4517712328118
 10
329.8900388257066
 20
501.41060060894006
 10
329.7282723693201
 20
501.3989533091685
 10
329.4726230646941
 20
501.37358403567305
 10
328.40706158884666
 20
501.26848672935125
 10
328.3734231589054
 20
501.2655508758667
 10
326.06608323983426
 20
501.09031900962526
 10
326.0066991563418
 20
501.08521527002296
 10
325.6705156962158
 20
501.05295482742065
 10
325.6112447272832
 20
501.0466723301546
 10
325.03128229282026
 20
500.9793661101578
 10
324.9526106622808
 20
500.96918018410133
 10
324.50765948840046
 20
500.90557833332946
 10
324.42928468275335
 20
500.89331585474076
 10
322.3568258191543
 20
500.54092790736956
 10
322.3285200768919
 20
500.5363928411735
 10
320.09420218694265
 20
500.20028300299316
 10
320.069363503903
 20
500.196440031624
 10
320.02450232380386
 20
500.18930668568066
 10
319.95974385984
 20
500.18045157129245
 10
318.15607613755213
 20
499.9737434751436
 10
318.04583319853526
 20
499.9652126577631
 10
316.6568222595182
 20
499.9091360725095
 10
316.50229473405756
 20
499.91086992501977
 10
314.42219394464183
 20
500.0416501905683
 10
314.3873508330959
 20
500.04424859820006
 10
312.2312134863951
 20
500.2303173590427
 10
312.208017555245
 20
500.23250071917676
 10
311.88726337377113
 20
500.265207351395
 10
311.8088933506651
 20
500.27216152535794
 10
311.3643697081205
 20
500.3057377785459
 10
311.28584427216873
 20
500.31063440654975
 10
310.83414431325843
 20
500.3328593385809
 10
310.8232974689014
 20
500.33337335758165
 10
310.761826982777
 20
500.3361748785452
 10
310.75097834890204
 20
500.33664963222077
 10
308.3225230227302
 20
500.4385195633889
 10
308.1719725350163
 20
500.44105295494705
 10
307.3191250782074
 20
500.4339980384261
 10
307.16863710368915
 20
500.4289743993992
 10
304.5950250384251
 20
500.278329079955
 10
304.139588545904
 20
500.2515265307983
 10
303.9213339758814
 20
500.2306564932319
 10
302.6908347405215
 20
500.0674278327202
 10
302.4746898629071
 20
500.03067394162616
 10
302.00479889950793
 20
499.9329830507787
 10
299.2344770378952
 20
499.370321322121
 10
299.1316609902059
 20
499.34755304386164
 10
298.55132565381535
 20
499.208311293386
 10
298.44933945928716
 20
499.1819394808228
 10
295.52914003551376
 20
498.37187258446676
 10
295.5231073043043
 20
498.3701923144248
 10
295.4889318091232
 20
498.36063511611997
 10
295.4829025985407
 20
498.3589422567007
 10
294.9140750434351
 20
498.19858826915726
 10
294.8922205945037
 20
498.19233797223467
 10
294.76851498744554
 20
498.1564510575581
 10
294.7467085233004
 20
498.1500353525141
 10
294.2124751762843
 20
497.9906563681681
 10
291.4310536228553
 20
497.1693828955934
 10
291.3809654991983
 20
497.1555323615958
 10
288.73316089168657
 20
496.4725081477974
 10
288.5862243318035
 20
496.4423548115932
 10
286.4728427382186
 20
496.1178634467569
 10
286.35102359473206
 20
496.104228595234
 10
284.2247815568759
 20
495.9539201378477
 10
284.138191980074
 20
495.95030931087825
 10
283.9948866397859
 20
495.9484780552722
 10
283.94735419271865
 20
495.947493904736
 10
281.63200359273446
 20
495.8811972341574
 10
281.608570457482
 20
495.88070945511026
 10
281.3370082444664
 20
495.8771789906484
 10
281.31338682938383
 20
495.87705791261374
 10
278.7256017312384
 20
495.884170154572
 10
278.64139041816264
 20
495.8832195207889
 10
278.16437918333486
 20
495.8711367400646
 10
278.080227735395
 20
495.86782271470577
 10
277.31850754009326
 20
495.8271097429377
 10
277.27042590796094
 20
495.82415252429496
 10
276.9981185248663
 20
495.8052087848488
 10
276.9500905754883
 20
495.80147990174237
 10
273.706478259911
 20
495.5234299935381
 10
273.67341521066885
 20
495.5209635241796
 10
272.6266129450444
 20
495.4544978988779
 10
272.60320632117146
 20
495.4531952801906
 10
272.41688728980654
 20
495.44428619759515
 10
272.2549637460635
 20
495.4321441516821
 10
271.34004877143377
 20
495.3385786852717
 10
271.17901937593246
 20
495.3176933535301
 10
271.0667754749661
 20
495.3000346676698
 10
271.0202870136469
 20
495.2934647694723
 10
269.95398301148833
 20
495.1597579196573
 10
269.9239000410412
 20
495.156293794857
 10
266.2131882952866
 20
494.76690773896496
 10
265.05389932986935
 20
494.65102263453855
 10
264.98900455823025
 20
494.64382153642487
 10
264.62123326722246
 20
494.59895494036084
 10
264.55641738308094
 20
494.59032980203824
 10
261.055286561588
 20
494.08554030076954
 10
261.0305340662659
 20
494.08218165418486
 10
259.29714646841364
 20
493.8616625138477
 10
256.7938910494172
 20
493.56838060894836
 10
256.75058310382224
 20
493.5629870252964
 10
256.5044180955839
 20
493.53050955443
 10
256.4610186610737
 20
493.52446091527713
 10
256.3470067910944
 20
493.50772121626346
 10
256.3256303600853
 20
493.50473958683096
 10
256.26179940161455
 20
493.4963040231837
 10
256.23646203772387
 20
493.4931747216042
 10
252.06200783597734
 20
493.0136374284208
 10
248.05348115928504
 20
492.5744323315664
 10
248.03719757639453
 20
492.5726031586735
 10
247.94478019647187
 20
492.5619660425215
 10
247.9284763616254
 20
492.56004427846904
 10
247.65479167177108
 20
492.5270250576434
 10
247.40807697813682
 20
492.4993231072177
 10
243.77016420016983
 20
492.11973170283056
 10
240.34458655087468
 20
491.78137447917777
 10
240.3400137025819
 20
491.78091926488435
 10
240.3138802083082
 20
491.7782975326598
 10
240.30926877210982
 20
491.7778313114141
 10
240.10125331971562
 20
491.7566383763516
 10
240.08530619681818
 20
491.7550996618503
 10
239.89699361224643
 20
491.73794418201715
 10
239.8917684882647
 20
491.73746355975663
 10
236.70268510147767
 20
491.44130952270706
 10
233.7151891134112
 20
491.1728367302073
 10
233.5770048763525
 20
491.16036874983547
 10
233.56151685911445
 20
491.1589307988917
 10
233.4738592818004
 20
491.15056316207915
 10
233.45839287316758
 20
491.14904633141236
 10
233.40181342660975
 20
491.1433494447309
 10
230.73398232153437
 20
490.90130333634045
 10
230.73004420433264
 20
490.900943423041
 10
228.2684022044468
 20
490.67433238993317
 10
228.25257344684996
 20
490.6728329330698
 10
228.16297072559604
 20
490.66410524160676
 10
228.14716153370688
 20
490.66252308673427
 10
228.08382505313205
 20
490.65601504612675
 10
228.06620943407592
 20
490.6543099373
 10
228.00313417170702
 20
490.6485799321716
 10
227.99472995606095
 20
490.6478045392398
 10
225.75232952185073
 20
490.4377337972828
 10
223.56436191121165
 20
490.24773859920305
 10
223.5425331982108
 20
490.2460045471582
 10
221.26208013591042
 20
490.0816250118244
 10
218.9826851116528
 20
489.92508614435707
 10
218.9601239115505
 20
489.9234512589742
 10
218.83218603761435
 20
489.9136953067407
 10
218.80961520624894
 20
489.91188845996294
 10
218.67609061982895
 20
489.90069222441
 10
218.57634353587503
 20
489.89223169568686
 10
216.24080651165852
 20
489.7147829595988
 10
216.23102404739626
 20
489.7140236186641
 10
216.1747521618431
 20
489.70956305640476
 10
216.16482313115029
 20
489.7087594111093
 10
213.7226042046519
 20
489.50700697011405
 10
213.7169872141067
 20
489.5065376356531
 10
213.6851601325314
 20
489.5038481748766
 10
213.67954403371158
 20
489.50336828773914
 10
213.59585095648458
 20
489.4961376370326
 10
213.58988204722775
 20
489.4956159483951
 10
213.4868741239891
 20
489.48650929321855
 10
213.48323248526594
 20
489.486185109212
 10
211.8644127626352
 20
489.34108112645595
 10
211.12186071801816
 20
489.28050850949717
 10
208.8146307838528
 20
489.0913140995985
 10
208.79978249349622
 20
489.090059396154
 10
208.71567272562893
 20
489.0827415650815
 10
208.70083284042764
 20
489.0814133079356
 10
208.52832193822957
 20
489.0655406573753
 10
208.35372666859882
 20
489.04937953252943
 10
208.33738622926109
 20
489.04795702551996
 10
206.2524269858274
 20
488.8779326831948
 10
204.3454885467958
 20
488.7343229454117
 10
204.33471243823317
 20
488.73349188249716
 10
204.27314291207304
 20
488.7286320031422
 10
204.2622792531308
 20
488.7277546401212
 10
204.03021185825324
 20
488.708588215797
 10
203.98477090751447
 20
488.7055290588356
 10
203.76567533494088
 20
488.6941175858491
 10
203.74659867239876
 20
488.69306306734563
 10
203.63851790218754
 20
488.6867433100938
 10
203.61944834227813
 20
488.6855673220466
 10
201.7321914396955
 20
488.5631496697697
 10
199.34644280301333
 20
488.43071764959774
 10
199.32623269490256
 20
488.42973413847903
 10
199.2277686892717
 20
488.42561063447306
 10
199.07369683718724
 20
488.41963447620145
 10
199.05655533166538
 20
488.4189204956215
 10
198.95780988545548
 20
488.4145246584538
 10
198.94038644769677
 20
488.4136982616461
 10
196.1460259573081
 20
488.2730181219258
 10
195.96913522591487
 20
488.2655134180998
 10
192.25085002475052
 20
488.10668704063835
 10
192.24460834271025
 20
488.1064139158092
 10
192.20925880015528
 20
488.10483020232243
 10
192.20302067297683
 20
488.10454421884333
 10
191.9826118826269
 20
488.0942098099017
 10
191.97076055011576
 20
488.0936306402915
 10
191.9036097985281
 20
488.09021588523433
 10
191.89176084941664
 20
488.08958984634546
 10
191.6520293445675
 20
488.0764481770053
 10
187.12157481074001
 20
487.86296702002255
 10
187.11748830656055
 20
487.86277166569926
 10
182.52286356702476
 20
487.6399866025878
 10
182.51118214648335
 20
487.63939736433156
 10
182.44503270769937
 20
487.6359313400827
 10
182.43335991077907
 20
487.635296914578
 10
181.7352924620063
 20
487.59599217528773
 10
181.00246829717148
 20
487.5588506144526
 10
176.4043198132163
 20
487.3351331526178
 10
176.3958386889675
 20
487.33470848105594
 10
172.10828861327167
 20
487.1139361079404
 10
172.10310881723368
 20
487.1136649025731
 10
172.07393139887392
 20
487.1121119286041
 10
172.06878019661033
 20
487.1118333131294
 10
171.346712259717
 20
487.07215581734357
 10
171.3181425591748
 20
487.07044918837823
 10
171.15629805373217
 20
487.06000630571594
 10
171.12774593474575
 20
487.05802719658857
 10
170.5978334398151
 20
487.0187552073594
 10
170.5756329185719
 20
487.01727539191825
 10
167.0828382136512
 20
486.8104648738373
 10
167.07498233276232
 20
486.8099893807348
 10
167.03046929884653
 20
486.80723653241273
 10
167.02261469240656
 20
486.80674043169483
 10
164.03164731981275
 20
486.61389023346624
 10
164.00437019160887
 20
486.6120066145039
 10
163.8498522149378
 20
486.6006286648528
 10
163.82259338680885
 20
486.5984965221627
 10
163.34145708972005
 20
486.55865602839265
 10
163.31964746797578
 20
486.5570100866455
 10
162.86374219771656
 20
486.5259445761227
 10
160.38616068371948
 20
486.3664734794389
 10
160.36467037321722
 20
486.36524528646623
 10
157.96386274467937
 20
486.2453228963232
 10
157.67565793169595
 20
486.2313458127286
 10
157.64294499345536
 20
486.23011748952985
 10
157.37364172587638
 20
486.2229487854395
 10
155.0933194695763
 20
486.17362934341986
 10
155.03926931395782
 20
486.17343577316956
 10
152.75147081175862
 20
486.20648782844137
 10
152.38496206850493
 20
486.21162639636725
 10
152.31000860429916
 20
486.21455321853114
 10
151.8998307746856
 20
486.24085645695413
 10
151.8816141085326
 20
486.2419689985186
 10
151.77836828090471
 20
486.24795933912424
 10
151.76014518369035
 20
486.2489610388727
 10
149.1715073128703
 20
486.3833585231277
 10
149.1136597909941
 20
486.38748459880526
 10
146.42271334148202
 20
486.6317926259427
 10
146.40257559983291
 20
486.6337579355558
 10
145.68628045073552
 20
486.7085440009424
 10
145.63689139197007
 20
486.71453013248436
 10
144.61242637496474
 20
486.8559760624122
 10
144.60119540271648
 20
486.85750508608623
 10
144.5375371258616
 20
486.86604929128816
 10
144.52630045683765
 20
486.8675358713489
 10
141.4178798409314
 20
487.2727978733345
 10
141.37194210733327
 20
487.27951160348186
 10
138.7003315918609
 20
487.71229368577514
 10
137.16892151813127
 20
487.9719012627753
 10
137.1194859178494
 20
487.9811407830223
 10
135.32414400168736
 20
488.3479912247261
 10
135.31412914635337
 20
488.35001984433325
 10
135.2573589158101
 20
488.3614186673518
 10
135.24733720893113
 20
488.3634131638107
 10
133.16748214815573
 20
488.7736598788757
 10
133.10198908931875
 20
488.78810666713275
 10
131.72330874161435
 20
489.1247165917074
 10
131.70846341418402
 20
489.1284214628887
 10
130.25076804115864
 20
489.5001187425331
 10
130.13150318511097
 20
489.5358649945662
 10
128.9273227651557
 20
489.9520078781939
 10
128.91239952407352
 20
489.9571211976531
 10
128.82775899820675
 20
489.9858741050796
 10
128.81280907607285
 20
489.9909088829731
 10
128.4413341296719
 20
490.1149263218052
 10
128.28037074287698
 20
490.179356586753
 10
127.73047273842798
 20
490.4425375710214
 10
127.55462702057264
 20
490.5418193597602
 10
127.53738842749368
 20
490.55314988409623
 10
127.37117007853911
 20
490.67984627086435
 10
127.22518984897178
 20
490.80816253613574
 10
127.13364147180246
 20
490.895761620371
 10
127.01277229809043
 20
491.0216217787969
 10
126.79199628006958
 20
491.2293982463316
 10
125.60153802078617
 20
492.24134850880057
 10
125.36091885100271
 20
492.42578149318024
 10
125.10291386905274
 20
492.5849874600391
 10
123.86719593537828
 20
493.2637954028357
 10
123.59444003464407
 20
493.39614845043604
 10
123.30971875326662
 20
493.5002969143
 10
121.96285408223201
 20
493.91711173256704
 10
121.66907515561391
 20
493.99199198944154
 10
121.36923882097437
 20
494.036839319623
 10
119.9661067265694
 20
494.1746774872653
 10
119.66327508281805
 20
494.1890338843518
 10
119.36054081866192
 20
494.1727527326639
 10
117.95831328589327
 20
494.0259978991716
 10
117.65876809554365
 20
493.9792454710756
 10
117.36547110457931
 20
493.90249922891536
 10
116.02128326120746
 20
493.4771310630406
 10
115.73722978504702
 20
493.37117478302076
 10
115.46532073908705
 20
493.23709055083964
 10
114.2339428291495
 20
492.55044109316407
 10
113.97695510296919
 20
492.3895982531395
 10
113.73751320115721
 20
492.2036394236876
 10
112.6691189179827
 20
491.283686875733
 10
112.44966815720599
 20
491.0745111740156
 10
112.25244969324731
 20
490.84425482107775
 10
111.3905718034101
 20
489.72848354621095
 10
111.21759974321267
 20
489.47949805067856
 10
111.0706405756764
 20
489.21432619381676
 10
110.45039713398523
 20
487.9481993803233
 10
110.33095168957885
 20
487.66954924771073
 10
110.24023981300701
 20
487.3802665727313
 10
109.8869032431275
 20
486.0153737918895
 10
109.82585133558385
 20
485.7184128934875
 10
109.79508289381621
 20
485.4168065049848
 10
109.72305023873244
 20
484.008761643693
 10
109.72287948753987
 20
483.7055899407943
 10
109.75330817073043
 20
483.4039490850838
 10
109.96551447119359
 20
482.0101243038249
 10
110.02623183377582
 20
481.71309482300603
 10
110.1166177955651
 20
481.42371015080334
 10
110.65719946054858
 20
479.95776142581644
 10
110.776330948778
 20
479.67897692282753
 10
110.8381172943119
 20
479.5524896303922
 10
110.89901028925217
 20
479.40946807640705
 10
111.18357561974793
 20
478.6314486688897
 10
111.1969037715559
 20
478.5957144290012
 10
111.27371348963183
 20
478.393710096397
 10
111.28749484339232
 20
478.35814818110134
 10
111.48061185934444
 20
477.86907169667427
 10
111.5000216177936
 20
477.81708258247454
 10
111.5218697542287
 20
477.76032478993795
 10
111.5359356832258
 20
477.72486035968495
 10
111.55673521636828
 20
477.66517940607866
 10
111.57242457539292
 20
477.6039562011984
 10
111.71657582639304
 20
476.9230516704882
 10
111.73298667896199
 20
476.8316529668035
 10
111.87276543280771
 20
475.88563502307875
 10
111.87817416006669
 20
475.850472121958
 10
111.91000379157029
 20
475.6514056527777
 10
111.91582912160291
 20
475.6163093641446
 10
112.02166035700552
 20
475.00129839832584
 10
112.0349062213543
 20
474.90619695092636
 10
112.1031388279105
 20
474.2671589738288
 10
112.10587322331438
 20
474.2390446515559
 10
112.19608284554255
 20
473.21116950262564
 10
112.20069335062914
 20
473.1383150698473
 10
112.25046117121019
 20
471.85826841301537
 10
112.25106231813643
 20
471.84371665886664
 10
112.25466895301483
 20
471.76126555905654
 10
112.25534073736915
 20
471.7467168947807
 10
112.29393257546175
 20
470.9527735953585
 10
112.29565293002625
 20
470.86793925454657
 10
112.28999070105576
 20
470.16169033629495
 10
112.28994880698966
 20
470.1557251050722
 10
112.28974501545969
 20
470.12192193140584
 10
112.28971498309093
 20
470.11595662867137
 10
112.28345654535644
 20
468.566937416986
 10
112.28181458102253
 20
468.5025746986485
 10
112.18578102300057
 20
466.45954621974465
 10
112.18431864384894
 20
466.43332992051035
 10
112.18229879823153
 20
466.4020463377574
 10
112.17707825617873
 20
466.3407628444631
 10
112.12731006695782
 20
465.8707195773952
 10
112.11982939690591
 20
465.7895495681912
 10
112.06576415651685
 20
465.1006039064846
 10
112.05926870581416
 20
465.03586965710423
 10
111.92861686212291
 20
463.9675847666429
 10
111.91153607527491
 20
463.86032437412655
 10
111.72267480994677
 20
462.89978643069605
 10
111.71204353449733
 20
462.84281472917894
 10
111.65492442580546
 20
462.51942865309593
 10
111.6453956838746
 20
462.4622622130403
 10
111.4402166697873
 20
461.153489969405
 10
110.79619061119945
 20
457.27892319441366
 10
110.7492232409009
 20
456.9973968182532
 10
110.73677046296405
 20
456.9158639125285
 10
110.67256680219131
 20
456.45294877853235
 10
110.66235953422125
 20
456.37109937059574
 10
110.65723240568099
 20
456.3248128839632
 10
110.65392898295872
 20
456.29731309660076
 10
110.31526763373756
 20
453.6822102042639
 10
110.00092616933725
 20
451.3700016761526
 10
109.99663522614247
 20
451.33707450537304
 10
109.97329887893758
 20
451.14992244146254
 10
109.96936388841777
 20
451.11687258240494
 10
109.59742669676874
 20
447.8381603661094
 10
109.30017554380797
 20
445.3171931387085
 10
109.29489998569727
 20
445.2691230463839
 10
109.267182989753
 20
444.99631067607675
 10
109.26268001893598
 20
444.94812731163466
 10
109.2527605549098
 20
444.8318719032727
 10
109.25138636805227
 20
444.8152191795783
 10
109.24483886582524
 20
444.7330848801179
 10
109.23714458481493
 20
444.6456185711826
 10
108.59544676948943
 20
438.7669156209813
 10
108.5933883798653
 20
438.749051681199
 10
108.1606411421491
 20
435.18158968565854
 10
108.15075162860117
 20
435.0877364682858
 10
108.10309108895933
 20
434.55517505843557
 10
108.09615850097407
 20
434.46105721680465
 10
107.93743835500925
 20
431.71791955903376
 10
107.93557970578709
 20
431.69023848529065
 10
107.64649742749637
 20
427.9084680375895
 10
107.64361490944498
 20
427.87553792295193
 10
107.4810227480566
 20
426.22735338068645
 10
107.47099055587637
 20
426.0963525284659
 10
107.4304235420002
 20
425.3531886850726
 10
107.42613675236655
 20
425.2218742091112
 10
107.4034656353395
 20
423.1099637130119
 10
107.40195510542858
 20
423.0568691535366
 10
107.2593375064547
 20
419.9687441497221
 10
107.25829560287235
 20
419.9439607024176
 10
107.25297220294811
 20
419.80349958298314
 10
107.25213525383128
 20
419.7787083680158
 10
107.11243506978266
 20
415.06253545411596
 10
107.11183974434775
 20
415.03943082058333
 10
107.10897062190864
 20
414.9084938546446
 10
107.10855331324285
 20
414.88538532036495
 10
107.07141104351612
 20
412.2707583696568
 10
106.99176051959986
 20
408.8941670593793
 10
106.99159019738394
 20
408.8865347668159
 10
106.89321704056425
 20
404.2116783423328
 10
106.89308561650918
 20
404.2050887154819
 10
106.89238439886415
 20
404.16787932278066
 10
106.89226781042461
 20
404.1613109252713
 10
106.79363640980645
 20
398.23916643445773
 10
106.79316857444616
 20
398.2191225895534
 10
106.71604044680072
 20
395.6506344093787
 10
106.71551263860647
 20
395.63557818551084
 10
106.65307104473732
 20
394.07784037920936
 10
106.65169893618591
 20
394.0364859760117
 10
106.6455401025232
 20
393.8021038511787
 10
106.64473848683215
 20
393.760734457202
 10
106.58286468181745
 20
388.8024994138169
 10
106.58250323225329
 20
388.78334222138733
 10
106.52135211202372
 20
386.36225121073267
 10
106.52009454832478
 20
386.3279845219008
 10
106.2921509291115
 20
381.5940065337066
 10
106.28943906869358
 20
381.51723740411603
 10
106.27964375981085
 20
381.0820995039182
 10
106.27889835236735
 20
381.00528610786773
 10
106.29175560206602
 20
376.8569382584793
 10
106.29336059897705
 20
370.8078143702485
 10
106.29319207739056
 20
370.78493344607045
 10
106.28233233133219
 20
370.06068520860333
 10
106.28213177936405
 20
370.0443396903391
 10
106.28124767871898
 20
369.9517127994731
 10
106.28113619475658
 20
369.93536643107876
 10
106.28053974649202
 20
369.7897335890891
 10
106.28051726300941
 20
369.7814544775813
 10
106.28023134442478
 20
369.56741544965814
 10
106.26665774232009
 20
363.71951518335095
 10
106.26665801953416
 20
363.7054701542024
 10
106.26684590350507
 20
363.6258779383331
 10
106.26691194007932
 20
363.6118323172125
 10
106.28125355238973
 20
361.5754305034694
 10
106.28127524432409
 20
361.558046711187
 10
106.27002591985516
 20
359.08397651794064
 10
106.27005541352011
 20
359.05128281917666
 10
106.27123201441606
 20
358.86602590825936
 10
106.27161779383147
 20
358.8333344723323
 10
106.27620714759442
 20
358.56729682895923
 10
106.27643015591374
 20
358.54080225933933
 10
106.27626680523022
 20
358.147365141412
 10
106.27618465109614
 20
358.1322767167477
 10
106.23946778566912
 20
354.6270119961705
 10
106.23861166530841
 20
354.5896735280461
 10
106.12650798825055
 20
351.42197411625784
 10
106.09858778647904
 20
350.6181947350035
 10
106.09750295416958
 20
350.59304718225377
 10
106.06858411028432
 20
350.0320401862731
 10
106.06834839260083
 20
350.02739745001134
 10
106.0670330437164
 20
350.0010875948526
 10
106.06680452056824
 20
349.9964444989033
 10
105.86514674363914
 20
345.8335056227616
 10
105.62429121194629
 20
341.1616537316501
 10
105.62314463214918
 20
341.13752469716866
 10
105.61719566403227
 20
341.00071737562996
 10
105.61624308018872
 20
340.9765706097269
 10
105.5985987565362
 20
340.478375558755
 10
105.59819627487806
 20
340.4663269769759
 10
105.59605273582997
 20
340.398047422023
 10
105.59569867375572
 20
340.38599732018105
 10
105.58293678078348
 20
339.9197525526738
 10
105.58155819539459
 20
339.88452724740677
 10
105.35199893692143
 20
335.3755508650585
 10
105.18194583414791
 20
332.3200165992001
 10
105.17892184288553
 20
332.2516244646169
 10
105.16620394834226
 20
331.86374626710483
 10
105.1647409995386
 20
331.7952699770914
 10
105.14660082000265
 20
329.97137065347977
 10
105.14655746801316
 20
329.96663616491077
 10
105.12094904648686
 20
326.9061592144965
 10
105.1199550164367
 20
326.86268836616233
 10
105.07554921795676
 20
325.6745839700245
 10
105.05073532789368
 20
325.0456971739976
 10
105.04852501119225
 20
324.9544987457257
 10
105.04385786981396
 20
324.4374820016182
 10
105.04442211690386
 20
324.34622749850774
 10
105.06728851745694
 20
323.2775228815709
 10
105.06729997622364
 20
323.21389577160886
 10
105.02964188571036
 20
321.4237242691628
 10
105.02804669913391
 20
321.3792643224353
 10
104.96417862342673
 20
320.1204861224037
 10
104.96070246307863
 20
320.01608543772886
 10
104.95130881285658
 20
319.4243496453514
 10
104.9514693898457
 20
319.31989122842674
 10
104.97591865497597
 20
318.0297018420401
 10
104.97617496145563
 20
317.9950515660596
 10
104.96568041710248
 20
315.46883610916683
 10
104.96417433799652
 20
315.40758138243876
 10
104.93912019834718
 20
314.85132436366166
 10
104.93697864103132
 20
314.7896879887592
 10
104.92843455129386
 20
314.4403338818849
 10
104.9275604912931
 20
314.3786665080312
 10
104.9264237961867
 20
314.08673802007365
 10
104.92493800288347
 20
313.69572268874623
 10
104.92467536578155
 20
313.6727812049585
 10
104.85301698026282
 20
309.9206011905175
 10
104.85258052602433
 20
309.88906505123543
 10
104.85104671465018
 20
309.7103530707426
 10
104.85094182105809
 20
309.67881408581246
 10
104.85889329550935
 20
305.5604288424858
 10
104.85833532985404
 20
305.5165221924644
 10
104.83699553737364
 20
304.73633578036447
 10
104.83341446355593
 20
304.6659585962156
 10
104.80721448227433
 20
304.3141497395749
 10
104.7993661436069
 20
304.14251738922184
 10
104.78276987421532
 20
303.16959948720876
 10
104.78475985762583
 20
302.9977993123726
 10
104.81467579770305
 20
302.25442632247814
 10
104.81588633030611
 20
302.19687437842805
 10
104.82006749465023
 20
299.9238489375573
 10
104.81937711637534
 20
299.8755033777734
 10
104.68585191213111
 20
295.4842447462873
 10
104.6852399594132
 20
295.46120688909105
 10
104.68227371648806
 20
295.3306479781186
 10
104.68183875721263
 20
295.30760609970633
 10
104.63680295187396
 20
292.31216571998306
 10
104.63666482011968
 20
292.30178284415217
 10
104.63598390006689
 20
292.2429454004491
 10
104.6358817069696
 20
292.2325621087
 10
104.60258151692341
 20
288.1271538527948
 10
104.54335571689472
 20
283.79324971511863
 10
104.54316573240709
 20
283.7755074848056
 10
104.54238506950963
 20
283.67478422709655
 10
104.54229996407815
 20
283.65700909889466
 10
104.53579361372766
 20
280.09247134827046
 10
104.53580983534874
 20
280.0757120770987
 10
104.53616702485402
 20
279.9807440022636
 10
104.53627687029075
 20
279.9639850832263
 10
104.60071876035289
 20
273.0702129464452
 10
104.60054631779576
 20
273.02947492085895
 10
104.54658012858323
 20
270.00027527648535
 10
104.54519839109975
 20
269.95730585020124
 10
104.49109623868804
 20
268.79408093911155
 10
104.4879020197132
 20
268.6711980205563
 10
104.48407246075078
 20
267.9748346076477
 10
104.48591497051603
 20
267.8519239902657
 10
104.54278132100899
 20
266.2497505999173
 10
104.54352869844178
 20
266.220826302419
 10
104.6041675489796
 20
262.47531253178283
 10
104.60434831432394
 20
262.4441533993587
 10
104.5644616423956
 20
253.74620517571893
 10
104.5644305242588
 20
253.73085097513524
 10
104.564476843151
 20
253.64384405757713
 10
104.56452430915101
 20
253.62848989882986
 10
104.60170859123042
 20
247.04778546473247
 10
104.60175250075548
 20
247.04126766932205
 10
104.60204144349558
 20
247.0043338168926
 10
104.60209951378238
 20
246.9978161322635
 10
104.65779147164727
 20
241.42643132514854
 10
104.69281942267963
 20
236.24287889593444
 10
104.692887645045
 20
236.23451049388592
 10
104.69334087221853
 20
236.18703856358536
 10
104.69343255087955
 20
236.17866127291728
 10
104.78256037399308
 20
228.9561029260006
 10
104.78271875712068
 20
228.94494895853242
 10
104.78373376869945
 20
228.88174506853835
 10
104.78393362517119
 20
228.8705917671052
 10
105.03476119926742
 20
216.1890090794402
 10
105.03504863310098
 20
216.16354635339093
 10
105.03898044951984
 20
214.75911177669158
 10
105.03870608542744
 20
214.7259190813041
 10
105.03062389782747
 20
214.30787182889793
 10
105.0303373106508
 20
214.20934409893167
 10
105.03788059416783
 20
213.65117075970252
 10
105.04082964343684
 20
213.5526867568748
 10
105.06109422441537
 20
213.11586383301244
 10
105.06222766717246
 20
213.08421868491536
 10
105.09191009049155
 20
211.90875593836097
 10
105.09236199400107
 20
211.87973870296963
 10
105.16571835671212
 20
199.44323493326175
 10
105.16579455422857
 20
199.43317597462448
 10
105.1663219026778
 20
199.37617612141057
 10
105.16643182823577
 20
199.36611747481493
 10
105.27654230015307
 20
190.63082293055908
 10
105.27666285115083
 20
190.6222348323426
 10
105.27741563649727
 20
190.57357003765605
 10
105.27756077454134
 20
190.56498231977332
 10
105.34563834127817
 20
186.85150976666762
 10
105.39435231651322
 20
183.2654455187353
 10
105.39442870394339
 20
183.26016455321937
 10
105.39489037097391
 20
183.23007896046892
 10
105.39497654016924
 20
183.22476980958052
 10
105.55137939606291
 20
174.08670675971746
 10
105.5515774542458
 20
174.07620866046102
 10
105.55280388551714
 20
174.01672160973845
 10
105.55303868566389
 20
174.00622426798344
 10
105.89252275816776
 20
159.930566497722
 10
105.89289202108617
 20
159.90855767713313
 10
105.89871179463049
 20
159.2920031332219
 10
105.90039535085052
 20
159.12956463901483
 10
105.90157489388312
 20
158.98533559193925
 10
105.90181478349024
 20
158.96469049878192
 10
105.90358982448603
 20
158.84683680698532
 10
105.90397516782005
 20
158.8260401384888
 10
105.91868862881574
 20
158.15716223306407
 10
105.9189901512782
 20
158.13773002102195
 10
106.03432844664891
 20
145.37530640602725
 10
106.10773038199292
 20
136.66585524303136
 10
106.10799002638711
 20
136.64426619460195
 10
106.10990156046469
 20
136.52193432421078
 10
106.11031657508104
 20
136.50034751163025
 10
106.17403035368491
 20
133.70899890849518
 10
106.17432342800876
 20
133.69187402635436
 10
106.20623674553812
 20
130.89333492197022
 10
106.25302266529928
 20
122.17993693464871
 10
106.30089468173796
 20
108.33930441926532
 10
106.3008046047691
 20
108.27402377510936
 10
106.2993293290071
 20
108.13617974769522
 10
106.29918771292887
 20
108.1175316370691
 10
106.29881450052412
 20
108.03433478575019
 10
106.29782450528677
 20
107.98616272012327
 10
105.80041388695076
 20
94.40579250679312
 10
105.79893631024868
 20
94.37442946842916
 10
105.36045829686731
 20
86.76292172701167
 10
105.35896882939963
 20
86.73476170384362
 10
105.35127870085839
 20
86.57515271804678
 10
105.35005399473127
 20
86.54697993839918
 10
105.19926932667317
 20
82.65710651798048
 10
105.19762008241153
 20
82.62401013327818
 10
104.92404665669636
 20
78.13271417317901
 10
104.9225237863728
 20
78.11044468487623
 10
104.434995274649
 20
71.68402183464266
 10
104.4315858146274
 20
71.64562698306094
 10
103.7472578432646
 20
64.92112144393604
 10
103.74434554623997
 20
64.89099598292765
 10
103.72870412911936
 20
64.72020690250483
 10
103.72609590119424
 20
64.69005359386284
 10
103.35758992396006
 20
60.16400899562967
 10
103.35432395355525
 20
60.128980001461514
 10
103.07372330861148
 20
57.45860938129667
 10
103.06939371776718
 20
57.421790315120774
 10
102.43416526128925
 20
52.540641638188134
 10
102.42195902346879
 20
52.462861676007776
 10
101.85674810121077
 20
49.39020266731387
 10
101.85335907607237
 20
49.37238499903427
 10
100.92091365145916
 20
44.626576673867845
 10
100.91512324081515
 20
44.59852419851356
 10
100.07252237526671
 20
40.70460032518963
 10
100.05471946101363
 20
40.631297270822756
 10
99.10483289436388
 20
37.10891320370931
 10
98.02581643666281
 20
33.25176180702485
 10
98.01363205453839
 20
33.21050419433101
 10
97.61013375949216
 20
31.913088543069847
 10
97.57576087080633
 20
31.81474978194626
 10
96.66098456179606
 20
29.463243792499412
 10
96.65902196607578
 20
29.458185248479538
 10
96.6479265234563
 20
29.429510136039738
 10
96.64597308003624
 20
29.424448050669866
 10
95.3939240483619
 20
26.171175658296846
 10
95.34854801538478
 20
26.06554317321371
 10
93.66543843473187
 20
22.52789044956529
 10
93.66288609788148
 20
22.52251205789267
 10
93.6484531126892
 20
22.492020189781243
 10
93.64591145388079
 20
22.486636743780025
 10
93.25083244148067
 20
21.647671176271615
 10
93.18159139824553
 20
21.517627950598722
 10
91.79387045987437
 20
19.194270688212498
 10
91.78810603452524
 20
19.18457840969893
 10
91.75554431991202
 20
19.129594332968452
 10
91.74981636823384
 20
19.119880454656823
 10
90.4885941323725
 20
16.97179055756169
 10
90.3890899210777
 20
16.825388502133364
 10
87.62004097716266
 20
13.41961267881834
 10
87.47754555938087
 20
13.267357117296626
 10
84.28377305919389
 20
10.298921351060585
 10
84.14157735034695
 20
10.182285263576318
 10
81.40360706278017
 20
8.215026420579477
 10
81.25042164609738
 20
8.118435213863393
 10
80.63466874859796
 20
7.780348629825653
 10
80.5970182904835
 20
7.760367111965991
 10
79.16858549182416
 20
7.028102600529849
 10
79.03471019629063
 20
6.967564551250575
 10
77.60491055287753
 20
6.403675411552058
 10
77.58508614610935
 20
6.395775403540597
 10
77.47290873570336
 20
6.350609801760754
 10
77.45314102688047
 20
6.342568973556297
 10
76.48084015993413
 20
5.943033927306999
 10
76.3593178799149
 20
5.899118113714451
 10
74.05871628791687
 20
5.178190202722874
 10
73.65300908339998
 20
5.05117626734318
 10
73.56419441207737
 20
5.0263425738613705
 10
73.1489881262363
 20
4.9238995880587595
 10
73.11461464517072
 20
4.915202878936498
 10
72.92013080605386
 20
4.86477252230452
 10
72.88586250911277
 20
4.855670172335522
 10
70.40484341180519
 20
4.180940741657878
 10
70.36414334907539
 20
4.170482127491823
 10
69.209654977085
 20
3.8909955153000055
 10
69.20264786925907
 20
3.889290267389697
 10
69.16295260676321
 20
3.8795794871456337
 10
69.15594961837536
 20
3.877857399979291
 10
67.36105810156403
 20
3.4341916867124382
 10
67.31349762788017
 20
3.4232534004000854
 10
67.18852302228942
 20
3.3966438620342387
 10
67.12223704418659
 20
3.381743728190486
 10
66.74762915451066
 20
3.293069464562052
 10
66.68169759128568
 20
3.276672091228022
 10
64.91889782009389
 20
2.8170019795541066
 10
64.90030241039415
 20
2.8120892991417463
 10
64.79501893358065
 20
2.783913332341058
 10
64.77645540172807
 20
2.778881535849564
 10
64.01456538165189
 20
2.5697410170882335
 10
63.9632139344572
 20
2.5566160567369707
 10
61.94949808117576
 20
2.079668392172664
 10
61.90734214512321
 20
2.069361200551043
 10
61.668895653323716
 20
2.009229603592871
 10
61.626893227029655
 20
1.9983136826951977
 10
61.21928029940932
 20
1.8892266450883994
 10
61.20155955057942
 20
1.884425990284285
 10
61.101226320585226
 20
1.8569153119264001
 10
61.083535282670766
 20
1.8520062995020794
 10
61.038051445890005
 20
1.8392351578673924
 10
60.979364686603446
 20
1.8240294685593312
 10
59.0686970188292
 20
1.369978235980227
 10
58.631550502147036
 20
1.2668137598348608
 10
58.58325018067262
 20
1.2562529609453463
 10
58.56973673587254
 20
1.2535308833474232
 10
56.34932669059782
 20
0.8205441109265621
 10
56.280580083072266
 20
0.8087931450160113
 10
56.25020601296768
 20
0.8043258278622147
 10
56.24159251518489
 20
0.8030462090155197
 10
56.192793339278694
 20
0.7957242140680592
 10
56.184183592105285
 20
0.7944195984434828
 10
56.174793793319736
 20
0.7929828395954814
 10
56.088880889049676
 20
0.7823645946038482
 10
54.70243262667833
 20
0.6515077943084293
 10
54.67426318306099
 20
0.6494502121208257
 10
54.50239399394883
 20
0.6511221229764033
 10
53.79045673878369
 20
0.7018822565374876
 10
53.73415165308086
 20
0.7069648952538046
 10
53.4420877457635
 20
0.7388890299612285
 10
53.433757305159816
 20
0.7397878209511077
 10
53.38654447098952
 20
0.7448150370316853
 10
53.3782115526252
 20
0.745690558209958
 10
53.17335861750172
 20
0.7669248142890979
 10
53.07851379409777
 20
0.7798272083476832
 10
52.27471479406387
 20
0.9154282599244539
 10
52.20444350114866
 20
0.9290149664859086
 10
51.88365711110981
 20
0.9990173804591791
 10
51.86816071728788
 20
1.0023561566852095
 10
51.78029855441258
 20
1.0210437328001376
 10
51.76478473490266
 20
1.0243005797981937
 10
51.119017642899905
 20
1.1580874247835595
 10
51.1124202699383
 20
1.1594465133561016
 10
50.09937149734435
 20
1.3669538358445834
 10
50.03266434694558
 20
1.3822112540717058
 10
49.61687689901743
 20
1.487347657084399
 10
49.596692965611794
 20
1.4923770013950275
 10
49.48222015718659
 20
1.5204796964000593
 10
49.46200183721908
 20
1.5253689713640028
 10
48.750850123295265
 20
1.6947350597424133
 10
48.651936677580636
 20
1.7165343668660284
 10
48.08953014972417
 20
1.8305621177588591
 10
47.98993718818832
 20
1.849009923773906
 10
47.24768851594001
 20
1.973576757439389
 10
47.1866334426071
 20
1.985128432141721
 10
46.61363747086182
 20
2.1058853126525605
 10
46.59729293657898
 20
2.1092823980335424
 10
46.504621192982256
 20
2.128274680158995
 10
46.48825800837005
 20
2.1315807623329306
 10
45.5907650825705
 20
2.310316177840832
 10
45.40801020680351
 20
2.3408771604427443
 10
44.36821652915296
 20
2.4819005661656206
 10
44.183923567709314
 20
2.501120936517907
 10
43.84503693831948
 20
2.52591385343527
 10
43.79145915931474
 20
2.5308010767054725
 10
42.96761380728316
 20
2.620875371068678
 10
41.63698466373734
 20
2.7701595173847977
 10
41.551028750347825
 20
2.7779398850790926
 10
41.35988304909654
 20
2.8006202349837963
 10
41.272753063280504
 20
2.8096707279231055
 10
40.021071968244314
 20
2.921241715963504
 10
40.00478381013659
 20
2.922783173248547
 10
39.29979080154652
 20
2.9933826799648386
 10
39.24703362555573
 20
2.9996113810584006
 10
38.23668687251245
 20
3.137079295010153
 10
38.23355104937633
 20
3.137504271147918
 10
37.581991344827486
 20
3.2254556638021086
 10
37.56524198568303
 20
3.227812823048396
 10
37.39699752218081
 20
3.2524582502416024
 10
37.34192981861537
 20
3.2615745815123205
 10
35.86538540858089
 20
3.5343327785707856
 10
35.85716673200699
 20
3.535839160413957
 10
35.48067407636097
 20
3.6043038325021257
 10
35.34916707281877
 20
3.6343871802226886
 10
33.98749664128974
 20
4.0110865703580885
 10
33.927015485277025
 20
4.029197094874689
 10
33.38607504719329
 20
4.2036643028140475
 10
32.4606082993119
 20
4.505168075454947
 10
32.320269335770206
 20
4.558809813448931
 10
31.445950298530647
 20
4.944268472937779
 10
31.4271607120844
 20
4.952475612119144
 10
31.32052892420461
 20
4.99861824341923
 10
31.301683684427758
 20
5.0066967723766425
 10
30.690275219317584
 20
5.26632406868174
 10
30.660839807340608
 20
5.279197264054517
 10
29.10290706606287
 20
5.980509280222009
 10
29.049942344719568
 20
6.005607491647197
 10
27.722971923398745
 20
6.666466500381546
 10
27.69454388446951
 20
6.681003909847391
 10
27.29409775025556
 20
6.891188778112337
 10
27.26101203010171
 20
6.908293583928469
 10
27.07293311136698
 20
7.004052614634588
 10
27.03963758525157
 20
7.020745343611736
 10
26.42030021654807
 20
7.326454327532872
 10
26.40138928319061
 20
7.335706507965483
 10
26.2940449170452
 20
7.387758761788348
 10
26.275069521211663
 20
7.396878004973701
 10
25.632593603496275
 20
7.702870348368606
 10
25.511580077955273
 20
7.7547643914952005
 10
25.511837902087905
 20
7.755351379060016
 10
24.830191526825786
 20
8.05475275648746
 10
24.63996464998661
 20
8.130670292161938
 10
24.355504958937445
 20
8.233083134189087
 10
24.293695554906606
 20
8.254577534445616
 10
24.224440380892304
 20
8.277817682031866
 10
24.030401863267628
 20
8.344736012667113
 10
23.737489549187103
 20
8.429364345386261
 10
23.522170781361353
 20
8.479876093445682
 10
23.449150438511936
 20
8.50103276512624
 10
23.353911412626417
 20
8.621320958046624
 10
23.352565127922844
 20
8.620255027628843
 10
23.269907740552583
 20
8.726290066989975
 10
23.08985553738046
 20
8.919488286301373
 10
23.030695035329018
 20
8.977613867727712
 10
22.988514781429558
 20
9.027946685632628
  0
TEXT
  5
91
330
17
100
AcDbEntity
  8
TEXT
100
AcDbText
 10
0.0
 20
-25.0
 30
0.0
 40
10.0
  1
В1 Верхний валик — нижний слой; EL 2540, 50 мм; 1 шт.
 11
0.0
 21
-25.0
 31
0.0
100
AcDbText
  0
ENDSEC
  0
SECTION
  2
OBJECTS
  0
DICTIONARY
  5
A
330
0
100
AcDbDictionary
281
1
  3
ACAD_COLOR
350
B
  3
ACAD_GROUP
350
C
  3
ACAD_LAYOUT
350
D
  3
ACAD_MATERIAL
350
E
  3
ACAD_MLEADERSTYLE
350
F
  3
ACAD_MLINESTYLE
350
10
  3
ACAD_PLOTSETTINGS
350
11
  3
ACAD_PLOTSTYLENAME
350
12
  3
ACAD_SCALELIST
350
14
  3
ACAD_TABLESTYLE
350
15
  3
ACAD_VISUALSTYLE
350
16
  3
EZDXF_META
350
2D
  0
DICTIONARY
  5
B
330
A
100
AcDbDictionary
281
1
  0
DICTIONARY
  5
C
330
A
100
AcDbDictionary
281
1
  0
DICTIONARY
  5
D
330
A
100
AcDbDictionary
281
1
  3
Model
350
1A
  3
Layout1
350
1E
  0
DICTIONARY
  5
E
330
A
100
AcDbDictionary
281
1
  3
ByBlock
350
1F
  3
ByLayer
350
20
  3
Global
350
21
  0
DICTIONARY
  5
F
330
A
100
AcDbDictionary
281
1
  3
Standard
350
2C
  0
DICTIONARY
  5
10
330
A
100
AcDbDictionary
281
1
  3
Standard
350
22
  0
DICTIONARY
  5
11
330
A
100
AcDbDictionary
281
1
  0
ACDBDICTIONARYWDFLT
  5
12
330
A
100
AcDbDictionary
281
1
  3
Normal
350
13
100
AcDbDictionaryWithDefault
340
13
  0
ACDBPLACEHOLDER
  5
13
330
12
  0
DICTIONARY
  5
14
330
A
100
AcDbDictionary
281
1
  0
DICTIONARY
  5
15
330
A
100
AcDbDictionary
281
1
  0
DICTIONARY
  5
16
330
A
100
AcDbDictionary
281
1
  3
2dWireframe
350
5A
  3
Basic
350
5B
  3
Brighten
350
5C
  3
ColorChange
350
5D
  3
Conceptual
350
5E
  3
Dim
350
5F
  3
EdgeColorOff
350
60
  3
Facepattern
350
61
  3
Flat
350
62
  3
FlatWithEdges
350
63
  3
Gouraud
350
64
  3
GouraudWithEdges
350
65
  3
Hidden
350
66
  3
JitterOff
350
67
  3
Linepattern
350
68
  3
Modeling
350
69
  3
OverhangOff
350
6A
  3
Realistic
350
6B
  3
Shaded
350
6C
  3
Shaded with edges
350
6D
  3
Shades of Gray
350
6E
  3
Sketchy
350
6F
  3
Thicken
350
70
  3
Wireframe
350
71
  3
X-Ray
350
72
  0
LAYOUT
  5
1A
330
D
100
AcDbPlotSettings
  1

  4
A3
  6

 40
7.5
 41
20.0
 42
7.5
 43
20.0
 44
420.0
 45
297.0
 46
0.0
 47
0.0
 48
0.0
 49
0.0
140
0.0
141
0.0
142
1.0
143
1.0
 70
1024
 72
1
 73
0
 74
5
  7

 75
16
 76
0
 77
2
 78
300
147
1.0
148
0.0
149
0.0
100
AcDbLayout
  1
Model
 70
1
 71
0
 10
0.0
 20
0.0
 11
420.0
 21
297.0
 12
0.0
 22
0.0
 32
0.0
 14
1e+20
 24
1e+20
 34
1e+20
 15
-1e+20
 25
-1e+20
 35
-1e+20
146
0.0
 13
0.0
 23
0.0
 33
0.0
 16
1.0
 26
0.0
 36
0.0
 17
0.0
 27
1.0
 37
0.0
 76
1
330
17
  0
LAYOUT
  5
1E
330
D
100
AcDbPlotSettings
  1

  4
A3
  6

 40
7.5
 41
20.0
 42
7.5
 43
20.0
 44
420.0
 45
297.0
 46
0.0
 47
0.0
 48
0.0
 49
0.0
140
0.0
141
0.0
142
1.0
143
1.0
 70
0
 72
1
 73
0
 74
5
  7

 75
16
 76
0
 77
2
 78
300
147
1.0
148
0.0
149
0.0
100
AcDbLayout
  1
Layout1
 70
1
 71
1
 10
0.0
 20
0.0
 11
420.0
 21
297.0
 12
0.0
 22
0.0
 32
0.0
 14
1e+20
 24
1e+20
 34
1e+20
 15
-1e+20
 25
-1e+20
 35
-1e+20
146
0.0
 13
0.0
 23
0.0
 33
0.0
 16
1.0
 26
0.0
 36
0.0
 17
0.0
 27
1.0
 37
0.0
 76
1
330
1B
  0
MATERIAL
  5
1F
102
{ACAD_REACTORS
330
E
102
}
330
E
100
AcDbMaterial
  1
ByBlock
  2

 70
0
 40
1.0
 71
1
 41
1.0
 91
-1023410177
 42
1.0
 72
1
  3

 73
1
 74
1
 75
1
 44
0.5
 73
0
 45
1.0
 46
1.0
 77
1
  4

 78
1
 79
1
170
1
 48
1.0
171
1
  6

172
1
173
1
174
1
140
1.0
141
1.0
175
1
  7

176
1
177
1
178
1
143
1.0
179
1
  8

270
1
271
1
272
1
145
1.0
146
1.0
273
1
  9

274
1
275
1
276
1
 42
1.0
 72
1
  3

 73
1
 74
1
 75
1
 94
63
  0
MATERIAL
  5
20
102
{ACAD_REACTORS
330
E
102
}
330
E
100
AcDbMaterial
  1
ByLayer
  2

 70
0
 40
1.0
 71
1
 41
1.0
 91
-1023410177
 42
1.0
 72
1
  3

 73
1
 74
1
 75
1
 44
0.5
 73
0
 45
1.0
 46
1.0
 77
1
  4

 78
1
 79
1
170
1
 48
1.0
171
1
  6

172
1
173
1
174
1
140
1.0
141
1.0
175
1
  7

176
1
177
1
178
1
143
1.0
179
1
  8

270
1
271
1
272
1
145
1.0
146
1.0
273
1
  9

274
1
275
1
276
1
 42
1.0
 72
1
  3

 73
1
 74
1
 75
1
 94
63
  0
MATERIAL
  5
21
102
{ACAD_REACTORS
330
E
102
}
330
E
100
AcDbMaterial
  1
Global
  2

 70
0
 40
1.0
 71
1
 41
1.0
 91
-1023410177
 42
1.0
 72
1
  3

 73
1
 74
1
 75
1
 44
0.5
 73
0
 45
1.0
 46
1.0
 77
1
  4

 78
1
 79
1
170
1
 48
1.0
171
1
  6

172
1
173
1
174
1
140
1.0
141
1.0
175
1
  7

176
1
177
1
178
1
143
1.0
179
1
  8

270
1
271
1
272
1
145
1.0
146
1.0
273
1
  9

274
1
275
1
276
1
 42
1.0
 72
1
  3

 73
1
 74
1
 75
1
 94
63
  0
MLINESTYLE
  5
22
102
{ACAD_REACTORS
330
10
102
}
330
10
100
AcDbMlineStyle
  2
Standard
 70
0
  3

 62
256
 51
90.0
 52
90.0
 71
2
 49
0.5
 62
256
  6
BYLAYER
 49
-0.5
 62
256
  6
BYLAYER
  0
MLEADERSTYLE
  5
2C
102
{ACAD_REACTORS
330
F
102
}
330
F
100
AcDbMLeaderStyle
179
2
170
2
171
1
172
0
 90
2
 40
0.0
 41
0.0
173
1
 91
-1056964608
 92
-2
290
1
 42
2.0
291
1
 43
8.0
  3
Standard
 44
4.0
300

342
29
174
1
175
1
176
0
178
1
 93
-1056964608
 45
4.0
292
0
297
0
 46
4.0
 94
-1056964608
 47
1.0
 49
1.0
140
1.0
294
1
141
0.0
177
0
142
1.0
295
0
296
0
143
3.75
271
0
272
9
273
9
  0
DICTIONARY
  5
2D
330
A
100
AcDbDictionary
280
1
281
1
  3
CREATED_BY_EZDXF
350
2E
  3
WRITTEN_BY_EZDXF
350
94
  0
DICTIONARYVAR
  5
2E
330
2D
100
DictionaryVariables
280
0
  1
1.4.4 @ 2026-09-30T16:23:24.131845+00:00
  0
VISUALSTYLE
  5
5A
102
{ACAD_REACTORS
330
16
102
}
330
16
100
AcDbVisualStyle
  2
2dWireframe
 70
4
 90
0
 40
0.6
 62
7
290
0
291
0
  0
VISUALSTYLE
  5
5B
102
{ACAD_REACTORS
330
16
102
}
330
16
100
AcDbVisualStyle
  2
Basic
 70
7
 90
1
 40
0.6
 62
7
290
0
291
1
  0
VISUALSTYLE
  5
5C
102
{ACAD_REACTORS
330
16
102
}
330
16
100
AcDbVisualStyle
  2
Brighten
 70
12
 90
2
 40
0.6
 62
7
290
0
291
1
  0
VISUALSTYLE
  5
5D
102
{ACAD_REACTORS
330
16
102
}
330
16
100
AcDbVisualStyle
  2
ColorChange
 70
16
 90
2
 40
0.6
 62
8
290
0
291
1
  0
VISUALSTYLE
  5
5E
102
{ACAD_REACTORS
330
16
102
}
330
16
100
AcDbVisualStyle
  2
Conceptual
 70
9
 90
3
 40
0.6
 62
7
290
0
291
0
  0
VISUALSTYLE
  5
5F
102
{ACAD_REACTORS
330
16
102
}
330
16
100
AcDbVisualStyle
  2
Dim
 70
11
 90
2
 40
0.6
 62
7
290
0
291
1
  0
VISUALSTYLE
  5
60
102
{ACAD_REACTORS
330
16
102
}
330
16
100
AcDbVisualStyle
  2
EdgeColorOff
 70
22
 90
2
 40
0.6
 62
7
290
0
291
1
  0
VISUALSTYLE
  5
61
102
{ACAD_REACTORS
330
16
102
}
330
16
100
AcDbVisualStyle
  2
Facepattern
 70
15
 90
2
 40
0.6
 62
7
290
0
291
1
  0
VISUALSTYLE
  5
62
102
{ACAD_REACTORS
330
16
102
}
330
16
100
AcDbVisualStyle
  2
Flat
 70
0
 90
2
 40
0.6
 62
7
290
0
291
1
  0
VISUALSTYLE
  5
63
102
{ACAD_REACTORS
330
16
102
}
330
16
100
AcDbVisualStyle
  2
FlatWithEdges
 70
1
 90
2
 40
0.6
 62
7
290
0
291
1
  0
VISUALSTYLE
  5
64
102
{ACAD_REACTORS
330
16
102
}
330
16
100
AcDbVisualStyle
  2
Gouraud
 70
2
 90
2
 40
0.6
 62
7
290
0
291
1
  0
VISUALSTYLE
  5
65
102
{ACAD_REACTORS
330
16
102
}
330
16
100
AcDbVisualStyle
  2
GouraudWithEdges
 70
3
 90
2
 40
0.6
 62
7
290
0
291
1
  0
VISUALSTYLE
  5
66
102
{ACAD_REACTORS
330
16
102
}
330
16
100
AcDbVisualStyle
  2
Hidden
 70
6
 90
1
 40
0.6
 62
7
290
0
291
0
  0
VISUALSTYLE
  5
67
102
{ACAD_REACTORS
330
16
102
}
330
16
100
AcDbVisualStyle
  2
JitterOff
 70
20
 90
2
 40
0.6
 62
7
290
0
291
1
  0
VISUALSTYLE
  5
68
102
{ACAD_REACTORS
330
16
102
}
330
16
100
AcDbVisualStyle
  2
Linepattern
 70
14
 90
2
 40
0.6
 62
7
290
0
291
1
  0
VISUALSTYLE
  5
69
102
{ACAD_REACTORS
330
16
102
}
330
16
100
AcDbVisualStyle
  2
Modeling
 70
10
 90
2
 40
0.6
 62
7
290
0
291
0
  0
VISUALSTYLE
  5
6A
102
{ACAD_REACTORS
330
16
102
}
330
16
100
AcDbVisualStyle
  2
OverhangOff
 70
21
 90
2
 40
0.6
 62
7
290
0
291
1
  0
VISUALSTYLE
  5
6B
102
{ACAD_REACTORS
330
16
102
}
330
16
100
AcDbVisualStyle
  2
Realistic
 70
8
 90
2
 40
0.6
 62
7
290
0
291
0
  0
VISUALSTYLE
  5
6C
102
{ACAD_REACTORS
330
16
102
}
330
16
100
AcDbVisualStyle
  2
Shaded
 70
27
 90
2
 40
0.6
 62
7
290
0
291
0
  0
VISUALSTYLE
  5
6D
102
{ACAD_REACTORS
330
16
102
}
330
16
100
AcDbVisualStyle
  2
Shaded with edges
 70
26
 90
2
 40
0.6
 62
7
290
0
291
0
  0
VISUALSTYLE
  5
6E
102
{ACAD_REACTORS
330
16
102
}
330
16
100
AcDbVisualStyle
  2
Shades of Gray
 70
23
 90
2
 40
0.6
 62
7
290
0
291
0
  0
VISUALSTYLE
  5
6F
102
{ACAD_REACTORS
330
16
102
}
330
16
100
AcDbVisualStyle
  2
Sketchy
 70
24
 90
1
 40
0.6
 62
7
290
0
291
0
  0
VISUALSTYLE
  5
70
102
{ACAD_REACTORS
330
16
102
}
330
16
100
AcDbVisualStyle
  2
Thicken
 70
13
 90
2
 40
0.6
 62
7
290
0
291
1
  0
VISUALSTYLE
  5
71
102
{ACAD_REACTORS
330
16
102
}
330
16
100
AcDbVisualStyle
  2
Wireframe
 70
5
 90
0
 40
0.6
 62
7
290
0
291
0
  0
VISUALSTYLE
  5
72
102
{ACAD_REACTORS
330
16
102
}
330
16
100
AcDbVisualStyle
  2
X-Ray
 70
25
 90
2
 40
0.5
 62
7
290
0
291
0
  0
DICTIONARYVAR
  5
94
330
2D
100
DictionaryVariables
280
0
  1
1.4.4 @ 2026-09-30T16:23:24.155337+00:00
  0
ENDSEC
  0
EOF
