  0
SECTION
  2
HEADER
  9
$ACADVER
  1
AC1024
  9
$ACADMAINTVER
 70
6
  9
$DWGCODEPAGE
  3
ANSI_1252
  9
$LASTSAVEDBY
  1
ezdxf
  9
$INSBASE
 10
0.0
 20
0.0
 30
0.0
  9
$EXTMIN
 10
1e+20
 20
1e+20
 30
1e+20
  9
$EXTMAX
 10
-1e+20
 20
-1e+20
 30
-1e+20
  9
$LIMMIN
 10
0.0
 20
0.0
  9
$LIMMAX
 10
420.0
 20
297.0
  9
$ORTHOMODE
 70
0
  9
$REGENMODE
 70
1
  9
$FILLMODE
 70
1
  9
$QTEXTMODE
 70
0
  9
$MIRRTEXT
 70
1
  9
$LTSCALE
 40
1.0
  9
$ATTMODE
 70
1
  9
$TEXTSIZE
 40
2.5
  9
$TRACEWID
 40
1.0
  9
$TEXTSTYLE
  7
OpenSans
  9
$CLAYER
  8
0
  9
$CELTYPE
  6
ByLayer
  9
$CECOLOR
 62
256
  9
$CELTSCALE
 40
1.0
  9
$DISPSILH
 70
0
  9
$DIMSCALE
 40
1.0
  9
$DIMASZ
 40
0.175
  9
$DIMEXO
 40
0.125
  9
$DIMDLI
 40
3.75
  9
$DIMRND
 40
0.0
  9
$DIMDLE
 40
0.0
  9
$DIMEXE
 40
0.375
  9
$DIMTP
 40
0.0
  9
$DIMTM
 40
0.0
  9
$DIMTXT
 40
0.25
  9
$DIMCEN
 40
2.5
  9
$DIMTSZ
 40
0.0
  9
$DIMTOL
 70
0
  9
$DIMLIM
 70
0
  9
$DIMTIH
 70
0
  9
$DIMTOH
 70
0
  9
$DIMSE1
 70
0
  9
$DIMSE2
 70
0
  9
$DIMTAD
 70
1
  9
$DIMZIN
 70
12
  9
$DIMBLK
  1
ARCHTICK
  9
$DIMASO
 70
1
  9
$DIMSHO
 70
1
  9
$DIMPOST
  1

  9
$DIMAPOST
  1

  9
$DIMALT
 70
0
  9
$DIMALTD
 70
3
  9
$DIMALTF
 40
0.03937007874
  9
$DIMLFAC
 40
100.0
  9
$DIMTOFL
 70
1
  9
$DIMTVP
 40
0.0
  9
$DIMTIX
 70
0
  9
$DIMSOXD
 70
0
  9
$DIMSAH
 70
0
  9
$DIMBLK1
  1

  9
$DIMBLK2
  1

  9
$DIMSTYLE
  2
EZDXF
  9
$DIMCLRD
 70
0
  9
$DIMCLRE
 70
0
  9
$DIMCLRT
 70
0
  9
$DIMTFAC
 40
0.5
  9
$DIMGAP
 40
0.1
  9
$DIMJUST
 70
0
  9
$DIMSD1
 70
0
  9
$DIMSD2
 70
0
  9
$DIMTOLJ
 70
0
  9
$DIMTZIN
 70
8
  9
$DIMALTZ
 70
0
  9
$DIMALTTZ
 70
0
  9
$DIMUPT
 70
1
  9
$DIMDEC
 70
2
  9
$DIMTDEC
 70
2
  9
$DIMALTU
 70
2
  9
$DIMALTTD
 70
3
  9
$DIMTXSTY
  7
OpenSansCondensed-Light
  9
$DIMAUNIT
 70
0
  9
$DIMADEC
 70
2
  9
$DIMALTRND
 40
0.0
  9
$DIMAZIN
 70
3
  9
$DIMDSEP
 70
46
  9
$DIMATFIT
 70
3
  9
$DIMFRAC
 70
0
  9
$DIMLDRBLK
  1

  9
$DIMLUNIT
 70
2
  9
$DIMLWD
 70
-2
  9
$DIMLWE
 70
-2
  9
$DIMTMOVE
 70
2
  9
$DIMFXL
 40
1.0
  9
$DIMFXLON
 70
0
  9
$DIMJOGANG
 40
0.785398163397
  9
$DIMTFILL
 70
0
  9
$DIMTFILLCLR
 70
0
  9
$DIMARCSYM
 70
0
  9
$DIMLTYPE
  6

  9
$DIMLTEX1
  6

  9
$DIMLTEX2
  6

  9
$DIMTXTDIRECTION
 70
0
  9
$LUNITS
 70
2
  9
$LUPREC
 70
4
  9
$SKETCHINC
 40
1.0
  9
$FILLETRAD
 40
10.0
  9
$AUNITS
 70
0
  9
$AUPREC
 70
2
  9
$MENU
  1
.
  9
$ELEVATION
 40
0.0
  9
$PELEVATION
 40
0.0
  9
$THICKNESS
 40
0.0
  9
$LIMCHECK
 70
0
  9
$CHAMFERA
 40
0.0
  9
$CHAMFERB
 40
0.0
  9
$CHAMFERC
 40
0.0
  9
$CHAMFERD
 40
0.0
  9
$SKPOLY
 70
0
  9
$TDCREATE
 40
2461314.689351852
  9
$TDUCREATE
 40
2458532.153996898
  9
$TDUPDATE
 40
2461314.689351852
  9
$TDUUPDATE
 40
2458532.1544311
  9
$TDINDWG
 40
0.0
  9
$TDUSRTIMER
 40
0.0
  9
$USRTIMER
 70
1
  9
$ANGBASE
 50
0.0
  9
$ANGDIR
 70
0
  9
$PDMODE
 70
0
  9
$PDSIZE
 40
0.0
  9
$PLINEWID
 40
0.0
  9
$SPLFRAME
 70
0
  9
$SPLINETYPE
 70
6
  9
$SPLINESEGS
 70
8
  9
$HANDSEED
  5
A9
  9
$SURFTAB1
 70
6
  9
$SURFTAB2
 70
6
  9
$SURFTYPE
 70
6
  9
$SURFU
 70
6
  9
$SURFV
 70
6
  9
$UCSBASE
  2

  9
$UCSNAME
  2

  9
$UCSORG
 10
0.0
 20
0.0
 30
0.0
  9
$UCSXDIR
 10
1.0
 20
0.0
 30
0.0
  9
$UCSYDIR
 10
0.0
 20
1.0
 30
0.0
  9
$UCSORTHOREF
  2

  9
$UCSORTHOVIEW
 70
0
  9
$UCSORGTOP
 10
0.0
 20
0.0
 30
0.0
  9
$UCSORGBOTTOM
 10
0.0
 20
0.0
 30
0.0
  9
$UCSORGLEFT
 10
0.0
 20
0.0
 30
0.0
  9
$UCSORGRIGHT
 10
0.0
 20
0.0
 30
0.0
  9
$UCSORGFRONT
 10
0.0
 20
0.0
 30
0.0
  9
$UCSORGBACK
 10
0.0
 20
0.0
 30
0.0
  9
$PUCSBASE
  2

  9
$PUCSNAME
  2

  9
$PUCSORG
 10
0.0
 20
0.0
 30
0.0
  9
$PUCSXDIR
 10
1.0
 20
0.0
 30
0.0
  9
$PUCSYDIR
 10
0.0
 20
1.0
 30
0.0
  9
$PUCSORTHOREF
  2

  9
$PUCSORTHOVIEW
 70
0
  9
$PUCSORGTOP
 10
0.0
 20
0.0
 30
0.0
  9
$PUCSORGBOTTOM
 10
0.0
 20
0.0
 30
0.0
  9
$PUCSORGLEFT
 10
0.0
 20
0.0
 30
0.0
  9
$PUCSORGRIGHT
 10
0.0
 20
0.0
 30
0.0
  9
$PUCSORGFRONT
 10
0.0
 20
0.0
 30
0.0
  9
$PUCSORGBACK
 10
0.0
 20
0.0
 30
0.0
  9
$USERI1
 70
0
  9
$USERI2
 70
0
  9
$USERI3
 70
0
  9
$USERI4
 70
0
  9
$USERI5
 70
0
  9
$USERR1
 40
0.0
  9
$USERR2
 40
0.0
  9
$USERR3
 40
0.0
  9
$USERR4
 40
0.0
  9
$USERR5
 40
0.0
  9
$WORLDVIEW
 70
1
  9
$SHADEDGE
 70
3
  9
$SHADEDIF
 70
70
  9
$TILEMODE
 70
1
  9
$MAXACTVP
 70
64
  9
$PINSBASE
 10
0.0
 20
0.0
 30
0.0
  9
$PLIMCHECK
 70
0
  9
$PEXTMIN
 10
1e+20
 20
1e+20
 30
1e+20
  9
$PEXTMAX
 10
-1e+20
 20
-1e+20
 30
-1e+20
  9
$PLIMMIN
 10
0.0
 20
0.0
  9
$PLIMMAX
 10
420.0
 20
297.0
  9
$UNITMODE
 70
0
  9
$VISRETAIN
 70
1
  9
$PLINEGEN
 70
0
  9
$PSLTSCALE
 70
1
  9
$TREEDEPTH
 70
3020
  9
$CMLSTYLE
  2
Standard
  9
$CMLJUST
 70
0
  9
$CMLSCALE
 40
20.0
  9
$PROXYGRAPHICS
 70
1
  9
$MEASUREMENT
 70
1
  9
$CELWEIGHT
370
-1
  9
$ENDCAPS
280
0
  9
$JOINSTYLE
280
0
  9
$LWDISPLAY
290
0
  9
$INSUNITS
 70
4
  9
$HYPERLINKBASE
  1

  9
$STYLESHEET
  1

  9
$XEDIT
290
1
  9
$CEPSNTYPE
380
0
  9
$PSTYLEMODE
290
1
  9
$FINGERPRINTGUID
  2
{17F89802-7033-4E4B-BFB5-85164085AA28}
  9
$VERSIONGUID
  2
{6E4C4C26-5614-4C6A-8FE9-A8CD1B158D3B}
  9
$EXTNAMES
290
1
  9
$PSVPSCALE
 40
0.0
  9
$OLESTARTUP
290
0
  9
$SORTENTS
280
127
  9
$INDEXCTL
280
0
  9
$HIDETEXT
280
1
  9
$XCLIPFRAME
280
1
  9
$HALOGAP
280
0
  9
$OBSCOLOR
 70
257
  9
$OBSLTYPE
280
0
  9
$INTERSECTIONDISPLAY
280
0
  9
$INTERSECTIONCOLOR
 70
257
  9
$DIMASSOC
280
2
  9
$PROJECTNAME
  1

  9
$CAMERADISPLAY
290
0
  9
$LENSLENGTH
 40
50.0
  9
$CAMERAHEIGHT
 40
0.0
  9
$STEPSPERSEC
 40
24.0
  9
$STEPSIZE
 40
100.0
  9
$3DDWFPREC
 40
2.0
  9
$PSOLWIDTH
 40
0.005
  9
$PSOLHEIGHT
 40
0.08
  9
$LOFTANG1
 40
1.570796326795
  9
$LOFTANG2
 40
1.570796326795
  9
$LOFTMAG1
 40
0.0
  9
$LOFTMAG2
 40
0.0
  9
$LOFTPARAM
 70
7
  9
$LOFTNORMALS
280
1
  9
$LATITUDE
 40
37.795
  9
$LONGITUDE
 40
-122.394
  9
$NORTHDIRECTION
 40
0.0
  9
$TIMEZONE
 70
-8000
  9
$LIGHTGLYPHDISPLAY
280
1
  9
$TILEMODELIGHTSYNCH
280
1
  9
$CMATERIAL
347
20
  9
$SOLIDHIST
280
0
  9
$SHOWHIST
280
1
  9
$DWFFRAME
280
2
  9
$DGNFRAME
280
2
  9
$REALWORLDSCALE
290
1
  9
$INTERFERECOLOR
 62
256
  9
$CSHADOW
280
0
  9
$SHADOWPLANELOCATION
 40
0.0
  0
ENDSEC
  0
SECTION
  2
CLASSES
  0
CLASS
  1
ACDBDICTIONARYWDFLT
  2
AcDbDictionaryWithDefault
  3
ObjectDBX Classes
 90
0
 91
0
280
0
281
0
  0
CLASS
  1
SUN
  2
AcDbSun
  3
SCENEOE
 90
1153
 91
0
280
0
281
0
  0
CLASS
  1
VISUALSTYLE
  2
AcDbVisualStyle
  3
ObjectDBX Classes
 90
4095
 91
0
280
0
281
0
  0
CLASS
  1
MATERIAL
  2
AcDbMaterial
  3
ObjectDBX Classes
 90
1153
 91
0
280
0
281
0
  0
CLASS
  1
SCALE
  2
AcDbScale
  3
ObjectDBX Classes
 90
1153
 91
0
280
0
281
0
  0
CLASS
  1
TABLESTYLE
  2
AcDbTableStyle
  3
ObjectDBX Classes
 90
4095
 91
0
280
0
281
0
  0
CLASS
  1
MLEADERSTYLE
  2
AcDbMLeaderStyle
  3
ACDB_MLEADERSTYLE_CLASS
 90
4095
 91
0
280
0
281
0
  0
CLASS
  1
DICTIONARYVAR
  2
AcDbDictionaryVar
  3
ObjectDBX Classes
 90
0
 91
0
280
0
281
0
  0
CLASS
  1
CELLSTYLEMAP
  2
AcDbCellStyleMap
  3
ObjectDBX Classes
 90
1152
 91
0
280
0
281
0
  0
CLASS
  1
MENTALRAYRENDERSETTINGS
  2
AcDbMentalRayRenderSettings
  3
SCENEOE
 90
1024
 91
0
280
0
281
0
  0
CLASS
  1
ACDBDETAILVIEWSTYLE
  2
AcDbDetailViewStyle
  3
ObjectDBX Classes
 90
1025
 91
0
280
0
281
0
  0
CLASS
  1
ACDBSECTIONVIEWSTYLE
  2
AcDbSectionViewStyle
  3
ObjectDBX Classes
 90
1025
 91
0
280
0
281
0
  0
CLASS
  1
RASTERVARIABLES
  2
AcDbRasterVariables
  3
ISM
 90
0
 91
0
280
0
281
0
  0
CLASS
  1
ACDBPLACEHOLDER
  2
AcDbPlaceHolder
  3
ObjectDBX Classes
 90
0
 91
0
280
0
281
0
  0
CLASS
  1
LAYOUT
  2
AcDbLayout
  3
ObjectDBX Classes
 90
0
 91
0
280
0
281
0
  0
ENDSEC
  0
SECTION
  2
TABLES
  0
TABLE
  2
VPORT
  5
8
330
0
100
AcDbSymbolTable
 70
1
  0
VPORT
  5
23
330
8
100
AcDbSymbolTableRecord
100
AcDbViewportTableRecord
  2
*Active
 70
0
 10
0.0
 20
0.0
 11
1.0
 21
1.0
 12
0.0
 22
0.0
 13
0.0
 23
0.0
 14
0.5
 24
0.5
 15
0.5
 25
0.5
 16
0.0
 26
0.0
 36
1.0
 17
0.0
 27
0.0
 37
0.0
 40
1000.0
 41
1.34
 42
50.0
 43
0.0
 44
0.0
 50
0.0
 51
0.0
 71
0
 72
1000
 73
1
 74
3
 75
0
 76
0
 77
0
 78
0
281
0
 65
0
146
0.0
  0
ENDTAB
  0
TABLE
  2
LTYPE
  5
2
330
0
100
AcDbSymbolTable
 70
21
  0
LTYPE
  5
24
330
2
100
AcDbSymbolTableRecord
100
AcDbLinetypeTableRecord
  2
ByBlock
 70
0
  3

 72
65
 73
0
 40
0.0
  0
LTYPE
  5
25
330
2
100
AcDbSymbolTableRecord
100
AcDbLinetypeTableRecord
  2
ByLayer
 70
0
  3

 72
65
 73
0
 40
0.0
  0
LTYPE
  5
26
330
2
100
AcDbSymbolTableRecord
100
AcDbLinetypeTableRecord
  2
Continuous
 70
0
  3

 72
65
 73
0
 40
0.0
  0
LTYPE
  5
2F
330
2
100
AcDbSymbolTableRecord
100
AcDbLinetypeTableRecord
  2
CENTER
 70
0
  3
Center ____ _ ____ _ ____ _ ____ _ ____ _ ____
 72
65
 73
4
 40
5.08
 49
3.175
 74
0
 49
-0.635
 74
0
 49
0.635
 74
0
 49
-0.635
 74
0
  0
LTYPE
  5
30
330
2
100
AcDbSymbolTableRecord
100
AcDbLinetypeTableRecord
  2
CENTERX2
 70
0
  3
Center (2x) ________  __  ________  __  ________
 72
65
 73
4
 40
8.89
 49
6.35
 74
0
 49
-0.635
 74
0
 49
1.27
 74
0
 49
-0.635
 74
0
  0
LTYPE
  5
31
330
2
100
AcDbSymbolTableRecord
100
AcDbLinetypeTableRecord
  2
CENTER2
 70
0
  3
Center (.5x) ____ _ ____ _ ____ _ ____ _ ____
 72
65
 73
4
 40
2.54
 49
1.587
 74
0
 49
-0.318
 74
0
 49
0.318
 74
0
 49
-0.318
 74
0
  0
LTYPE
  5
32
330
2
100
AcDbSymbolTableRecord
100
AcDbLinetypeTableRecord
  2
DASHED
 70
0
  3
Dashed __ __ __ __ __ __ __ __ __ __ __ __ __ _
 72
65
 73
2
 40
1.524
 49
1.27
 74
0
 49
-0.254
 74
0
  0
LTYPE
  5
33
330
2
100
AcDbSymbolTableRecord
100
AcDbLinetypeTableRecord
  2
DASHEDX2
 70
0
  3
Dashed (2x) ____  ____  ____  ____  ____  ____
 72
65
 73
2
 40
3.048
 49
2.54
 74
0
 49
-0.508
 74
0
  0
LTYPE
  5
34
330
2
100
AcDbSymbolTableRecord
100
AcDbLinetypeTableRecord
  2
DASHED2
 70
0
  3
Dashed (.5x) _ _ _ _ _ _ _ _ _ _ _ _ _ _
 72
65
 73
2
 40
0.762
 49
0.635
 74
0
 49
-0.127
 74
0
  0
LTYPE
  5
35
330
2
100
AcDbSymbolTableRecord
100
AcDbLinetypeTableRecord
  2
PHANTOM
 70
0
  3
Phantom ______  __  __  ______  __  __  ______
 72
65
 73
6
 40
6.35
 49
3.175
 74
0
 49
-0.635
 74
0
 49
0.635
 74
0
 49
-0.635
 74
0
 49
0.635
 74
0
 49
-0.635
 74
0
  0
LTYPE
  5
36
330
2
100
AcDbSymbolTableRecord
100
AcDbLinetypeTableRecord
  2
PHANTOMX2
 70
0
  3
Phantom (2x)____________    ____    ____    ____________
 72
65
 73
6
 40
10.795
 49
6.35
 74
0
 49
-0.635
 74
0
 49
1.27
 74
0
 49
-0.635
 74
0
 49
1.27
 74
0
 49
-0.635
 74
0
  0
LTYPE
  5
37
330
2
100
AcDbSymbolTableRecord
100
AcDbLinetypeTableRecord
  2
PHANTOM2
 70
0
  3
Phantom (.5x) ___ _ _ ___ _ _ ___ _ _ ___ _ _ ___
 72
65
 73
6
 40
3.175
 49
1.587
 74
0
 49
-0.318
 74
0
 49
0.318
 74
0
 49
-0.318
 74
0
 49
0.318
 74
0
 49
-0.318
 74
0
  0
LTYPE
  5
38
330
2
100
AcDbSymbolTableRecord
100
AcDbLinetypeTableRecord
  2
DASHDOT
 70
0
  3
Dash dot __ . __ . __ . __ . __ . __ . __ . __
 72
65
 73
4
 40
3.556
 49
2.54
 74
0
 49
-0.508
 74
0
 49
0.0
 74
0
 49
-0.508
 74
0
  0
LTYPE
  5
39
330
2
100
AcDbSymbolTableRecord
100
AcDbLinetypeTableRecord
  2
DASHDOTX2
 70
0
  3
Dash dot (2x) ____  .  ____  .  ____  .  ____
 72
65
 73
4
 40
6.096
 49
5.08
 74
0
 49
-0.508
 74
0
 49
0.0
 74
0
 49
-0.508
 74
0
  0
LTYPE
  5
3A
330
2
100
AcDbSymbolTableRecord
100
AcDbLinetypeTableRecord
  2
DASHDOT2
 70
0
  3
Dash dot (.5x) _ . _ . _ . _ . _ . _ . _ . _
 72
65
 73
4
 40
1.778
 49
1.27
 74
0
 49
-0.254
 74
0
 49
0.0
 74
0
 49
-0.254
 74
0
  0
LTYPE
  5
3B
330
2
100
AcDbSymbolTableRecord
100
AcDbLinetypeTableRecord
  2
DOT
 70
0
  3
Dot .  .  .  .  .  .  .  .  .  .  .  .  .  .  .  .
 72
65
 73
2
 40
0.508
 49
0.0
 74
0
 49
-0.508
 74
0
  0
LTYPE
  5
3C
330
2
100
AcDbSymbolTableRecord
100
AcDbLinetypeTableRecord
  2
DOTX2
 70
0
  3
Dot (2x) .    .    .    .    .    .    .    . 
 72
65
 73
2
 40
1.016
 49
0.0
 74
0
 49
-1.016
 74
0
  0
LTYPE
  5
3D
330
2
100
AcDbSymbolTableRecord
100
AcDbLinetypeTableRecord
  2
DOT2
 70
0
  3
Dot (.5) . . . . . . . . . . . . . . . . . . . 
 72
65
 73
2
 40
0.254
 49
0.0
 74
0
 49
-0.254
 74
0
  0
LTYPE
  5
3E
330
2
100
AcDbSymbolTableRecord
100
AcDbLinetypeTableRecord
  2
DIVIDE
 70
0
  3
Divide __ . . __ . . __ . . __ . . __ . . __
 72
65
 73
6
 40
4.064
 49
2.54
 74
0
 49
-0.508
 74
0
 49
0.0
 74
0
 49
-0.508
 74
0
 49
0.0
 74
0
 49
-0.508
 74
0
  0
LTYPE
  5
3F
330
2
100
AcDbSymbolTableRecord
100
AcDbLinetypeTableRecord
  2
DIVIDEX2
 70
0
  3
Divide (2x) ____  . .  ____  . .  ____  . .  ____
 72
65
 73
6
 40
6.604
 49
5.08
 74
0
 49
-0.508
 74
0
 49
0.0
 74
0
 49
-0.508
 74
0
 49
0.0
 74
0
 49
-0.508
 74
0
  0
LTYPE
  5
40
330
2
100
AcDbSymbolTableRecord
100
AcDbLinetypeTableRecord
  2
DIVIDE2
 70
0
  3
Divide(.5x) _ . _ . _ . _ . _ . _ . _ . _
 72
65
 73
6
 40
2.032
 49
1.27
 74
0
 49
-0.254
 74
0
 49
0.0
 74
0
 49
-0.254
 74
0
 49
0.0
 74
0
 49
-0.254
 74
0
  0
ENDTAB
  0
TABLE
  2
LAYER
  5
1
330
0
100
AcDbSymbolTable
 70
8
  0
LAYER
  5
27
330
1
100
AcDbSymbolTableRecord
100
AcDbLayerTableRecord
  2
0
 70
0
 62
7
  6
Continuous
370
-3
390
13
347
21
  0
LAYER
  5
28
330
1
100
AcDbSymbolTableRecord
100
AcDbLayerTableRecord
  2
Defpoints
 70
0
 62
7
  6
Continuous
290
0
370
-3
390
13
347
21
  0
LAYER
  5
8A
330
1
100
AcDbSymbolTableRecord
100
AcDbLayerTableRecord
  2
CUT_OUT
 70
0
 62
7
  6
Continuous
370
-3
390
13
347
21
  0
LAYER
  5
8B
330
1
100
AcDbSymbolTableRecord
100
AcDbLayerTableRecord
  2
CUT_IN
 70
0
 62
1
  6
Continuous
370
-3
390
13
347
21
  0
LAYER
  5
8C
330
1
100
AcDbSymbolTableRecord
100
AcDbLayerTableRecord
  2
DRILL
 70
0
 62
3
  6
Continuous
370
-3
390
13
347
21
  0
LAYER
  5
8D
330
1
100
AcDbSymbolTableRecord
100
AcDbLayerTableRecord
  2
MARK
 70
0
 62
5
  6
Continuous
370
-3
390
13
347
21
  0
LAYER
  5
8E
330
1
100
AcDbSymbolTableRecord
100
AcDbLayerTableRecord
  2
TEXT
 70
0
 62
8
  6
Continuous
370
-3
390
13
347
21
  0
LAYER
  5
8F
330
1
100
AcDbSymbolTableRecord
100
AcDbLayerTableRecord
  2
SHEET
 70
0
 62
9
  6
Continuous
370
-3
390
13
347
21
  0
ENDTAB
  0
TABLE
  2
STYLE
  5
5
330
0
100
AcDbSymbolTable
 70
26
  0
STYLE
  5
29
330
5
100
AcDbSymbolTableRecord
100
AcDbTextStyleTableRecord
  2
Standard
 70
0
 40
0.0
 41
1.0
 50
0.0
 71
0
 42
2.5
  3
txt
  4

  0
STYLE
  5
41
330
5
100
AcDbSymbolTableRecord
100
AcDbTextStyleTableRecord
  2
OpenSans-Light
 70
0
 40
0.0
 41
1.0
 50
0.0
 71
0
 42
2.5
  3
OpenSans-Light.ttf
  4

  0
STYLE
  5
42
330
5
100
AcDbSymbolTableRecord
100
AcDbTextStyleTableRecord
  2
OpenSans-Light-Italic
 70
0
 40
0.0
 41
1.0
 50
0.0
 71
0
 42
2.5
  3
OpenSans-LightItalic.ttf
  4

  0
STYLE
  5
43
330
5
100
AcDbSymbolTableRecord
100
AcDbTextStyleTableRecord
  2
OpenSans
 70
0
 40
0.0
 41
1.0
 50
0.0
 71
0
 42
2.5
  3
OpenSans-Regular.ttf
  4

  0
STYLE
  5
44
330
5
100
AcDbSymbolTableRecord
100
AcDbTextStyleTableRecord
  2
OpenSans-Italic
 70
0
 40
0.0
 41
1.0
 50
0.0
 71
0
 42
2.5
  3
OpenSans-Italic.ttf
  4

  0
STYLE
  5
45
330
5
100
AcDbSymbolTableRecord
100
AcDbTextStyleTableRecord
  2
OpenSans-SemiBold
 70
0
 40
0.0
 41
1.0
 50
0.0
 71
0
 42
2.5
  3
OpenSans-SemiBold.ttf
  4

  0
STYLE
  5
46
330
5
100
AcDbSymbolTableRecord
100
AcDbTextStyleTableRecord
  2
OpenSans-SemiBoldItalic
 70
0
 40
0.0
 41
1.0
 50
0.0
 71
0
 42
2.5
  3
OpenSans-SemiBoldItalic.ttf
  4

  0
STYLE
  5
47
330
5
100
AcDbSymbolTableRecord
100
AcDbTextStyleTableRecord
  2
OpenSans-Bold
 70
0
 40
0.0
 41
1.0
 50
0.0
 71
0
 42
2.5
  3
OpenSans-Bold.ttf
  4

  0
STYLE
  5
48
330
5
100
AcDbSymbolTableRecord
100
AcDbTextStyleTableRecord
  2
OpenSans-BoldItalic
 70
0
 40
0.0
 41
1.0
 50
0.0
 71
0
 42
2.5
  3
OpenSans-BoldItalic.ttf
  4

  0
STYLE
  5
49
330
5
100
AcDbSymbolTableRecord
100
AcDbTextStyleTableRecord
  2
OpenSans-ExtraBold
 70
0
 40
0.0
 41
1.0
 50
0.0
 71
0
 42
2.5
  3
OpenSans-ExtraBold.ttf
  4

  0
STYLE
  5
4A
330
5
100
AcDbSymbolTableRecord
100
AcDbTextStyleTableRecord
  2
OpenSans-ExtraBoldItalic
 70
0
 40
0.0
 41
1.0
 50
0.0
 71
0
 42
2.5
  3
OpenSans-ExtraBoldItalic.ttf
  4

  0
STYLE
  5
4B
330
5
100
AcDbSymbolTableRecord
100
AcDbTextStyleTableRecord
  2
OpenSansCondensed-Bold
 70
0
 40
0.0
 41
1.0
 50
0.0
 71
0
 42
2.5
  3
OpenSansCondensed-Bold.ttf
  4

  0
STYLE
  5
4C
330
5
100
AcDbSymbolTableRecord
100
AcDbTextStyleTableRecord
  2
OpenSansCondensed-Light
 70
0
 40
0.0
 41
1.0
 50
0.0
 71
0
 42
2.5
  3
OpenSansCondensed-Light.ttf
  4

  0
STYLE
  5
4D
330
5
100
AcDbSymbolTableRecord
100
AcDbTextStyleTableRecord
  2
OpenSansCondensed-Italic
 70
0
 40
0.0
 41
1.0
 50
0.0
 71
0
 42
2.5
  3
OpenSansCondensed-LightItalic.ttf
  4

  0
STYLE
  5
4E
330
5
100
AcDbSymbolTableRecord
100
AcDbTextStyleTableRecord
  2
LiberationSans
 70
0
 40
0.0
 41
1.0
 50
0.0
 71
0
 42
2.5
  3
LiberationSans-Regular.ttf
  4

  0
STYLE
  5
4F
330
5
100
AcDbSymbolTableRecord
100
AcDbTextStyleTableRecord
  2
LiberationSans-Bold
 70
0
 40
0.0
 41
1.0
 50
0.0
 71
0
 42
2.5
  3
LiberationSans-Bold.ttf
  4

  0
STYLE
  5
50
330
5
100
AcDbSymbolTableRecord
100
AcDbTextStyleTableRecord
  2
LiberationSans-BoldItalic
 70
0
 40
0.0
 41
1.0
 50
0.0
 71
0
 42
2.5
  3
LiberationSans-BoldItalic.ttf
  4

  0
STYLE
  5
51
330
5
100
AcDbSymbolTableRecord
100
AcDbTextStyleTableRecord
  2
LiberationSans-Italic
 70
0
 40
0.0
 41
1.0
 50
0.0
 71
0
 42
2.5
  3
LiberationSans-Italic.ttf
  4

  0
STYLE
  5
52
330
5
100
AcDbSymbolTableRecord
100
AcDbTextStyleTableRecord
  2
LiberationSerif
 70
0
 40
0.0
 41
1.0
 50
0.0
 71
0
 42
2.5
  3
LiberationSerif-Regular.ttf
  4

  0
STYLE
  5
53
330
5
100
AcDbSymbolTableRecord
100
AcDbTextStyleTableRecord
  2
LiberationSerif-Bold
 70
0
 40
0.0
 41
1.0
 50
0.0
 71
0
 42
2.5
  3
LiberationSerif-Bold.ttf
  4

  0
STYLE
  5
54
330
5
100
AcDbSymbolTableRecord
100
AcDbTextStyleTableRecord
  2
LiberationSerif-BoldItalic
 70
0
 40
0.0
 41
1.0
 50
0.0
 71
0
 42
2.5
  3
LiberationSerif-BoldItalic.ttf
  4

  0
STYLE
  5
55
330
5
100
AcDbSymbolTableRecord
100
AcDbTextStyleTableRecord
  2
LiberationSerif-Italic
 70
0
 40
0.0
 41
1.0
 50
0.0
 71
0
 42
2.5
  3
LiberationSerif-Italic.ttf
  4

  0
STYLE
  5
56
330
5
100
AcDbSymbolTableRecord
100
AcDbTextStyleTableRecord
  2
LiberationMono
 70
0
 40
0.0
 41
1.0
 50
0.0
 71
0
 42
2.5
  3
LiberationMono-Regular.ttf
  4

  0
STYLE
  5
57
330
5
100
AcDbSymbolTableRecord
100
AcDbTextStyleTableRecord
  2
LiberationMono-Bold
 70
0
 40
0.0
 41
1.0
 50
0.0
 71
0
 42
2.5
  3
LiberationMono-Bold.ttf
  4

  0
STYLE
  5
58
330
5
100
AcDbSymbolTableRecord
100
AcDbTextStyleTableRecord
  2
LiberationMono-BoldItalic
 70
0
 40
0.0
 41
1.0
 50
0.0
 71
0
 42
2.5
  3
LiberationMono-BoldItalic.ttf
  4

  0
STYLE
  5
59
330
5
100
AcDbSymbolTableRecord
100
AcDbTextStyleTableRecord
  2
LiberationMono-Italic
 70
0
 40
0.0
 41
1.0
 50
0.0
 71
0
 42
2.5
  3
LiberationMono-Italic.ttf
  4

  0
ENDTAB
  0
TABLE
  2
VIEW
  5
7
330
0
100
AcDbSymbolTable
 70
0
  0
ENDTAB
  0
TABLE
  2
UCS
  5
6
330
0
100
AcDbSymbolTable
 70
0
  0
ENDTAB
  0
TABLE
  2
APPID
  5
3
330
0
100
AcDbSymbolTable
 70
3
  0
APPID
  5
2A
330
3
100
AcDbSymbolTableRecord
100
AcDbRegAppTableRecord
  2
ACAD
 70
0
  0
APPID
  5
A6
330
3
100
AcDbSymbolTableRecord
100
AcDbRegAppTableRecord
  2
HATCHBACKGROUNDCOLOR
 70
0
  0
APPID
  5
A7
330
3
100
AcDbSymbolTableRecord
100
AcDbRegAppTableRecord
  2
EZDXF
 70
0
  0
ENDTAB
  0
TABLE
  2
DIMSTYLE
  5
4
330
0
100
AcDbSymbolTable
 70
12
100
AcDbDimStyleTable
  0
DIMSTYLE
105
2B
330
4
100
AcDbSymbolTableRecord
100
AcDbDimStyleTableRecord
  2
Standard
 70
0
 40
1.0
 41
2.5
 42
0.625
 43
3.75
 44
1.25
 45
0.0
 46
0.0
 47
0.0
 48
0.0
 49
2.5
140
2.5
141
2.5
142
0.0
143
0.03937007874
144
1.0
145
0.0
146
1.0
147
0.625
148
0.0
 69
0
 70
0
 71
0
 72
0
 73
0
 74
0
 75
0
 76
0
 77
1
 78
8
 79
3
170
0
171
3
172
1
173
0
174
0
175
0
176
0
177
0
178
0
179
2
271
2
272
2
273
2
274
3
275
0
276
0
277
2
278
44
279
0
280
0
281
0
282
0
283
0
284
8
285
0
286
0
288
0
289
3
290
0
371
-2
372
-2
  0
DIMSTYLE
105
73
330
4
100
AcDbSymbolTableRecord
100
AcDbDimStyleTableRecord
  2
EZDXF
 70
0
 40
1.0
 41
0.175
 42
0.125
 43
3.75
 44
0.375
 45
0.0
 46
0.0
 47
0.0
 48
0.0
 49
2.5
140
0.25
141
2.5
142
0.0
143
0.03937007874
144
100.0
145
0.0
146
0.5
147
0.1
148
0.0
 69
0
 70
0
 71
0
 72
0
 73
0
 74
0
 75
0
 76
0
 77
1
 78
12
 79
3
170
0
171
3
172
1
173
0
174
0
175
0
176
0
177
0
178
0
179
2
271
2
272
2
273
2
274
3
275
0
276
0
277
2
278
46
279
2
280
0
281
0
282
0
283
0
284
8
285
0
286
0
288
1
289
3
290
0
340
4C
342
74
371
-2
372
-2
  0
DIMSTYLE
105
7C
330
4
100
AcDbSymbolTableRecord
100
AcDbDimStyleTableRecord
  2
EZ_M_100_H25_CM
 70
0
 40
1.0
 41
0.25
 42
0.125
 43
3.75
 44
0.375
 45
0.0
 46
0.0
 47
0.0
 48
0.0
 49
2.5
140
0.25
141
2.5
142
0.125
143
0.03937007874
144
100.0
145
0.0
146
0.5
147
0.1
148
0.0
 69
0
 70
0
 71
0
 72
0
 73
0
 74
0
 75
0
 76
0
 77
1
 78
12
 79
3
170
0
171
3
172
1
173
0
174
0
175
0
176
0
177
0
178
0
179
2
271
2
272
2
273
2
274
3
275
0
276
0
277
2
278
46
279
2
280
0
281
0
282
0
283
0
284
8
285
0
286
0
288
1
289
3
290
0
340
4C
371
-2
372
-2
  0
DIMSTYLE
105
7D
330
4
100
AcDbSymbolTableRecord
100
AcDbDimStyleTableRecord
  2
EZ_M_50_H25_CM
 70
0
 40
1.0
 41
0.125
 42
0.0625
 43
3.75
 44
0.1875
 45
0.0
 46
0.0
 47
0.0
 48
0.0
 49
2.5
140
0.125
141
2.5
142
0.0625
143
0.03937007874
144
100.0
145
0.0
146
0.5
147
0.05
148
0.0
 69
0
 70
0
 71
0
 72
0
 73
0
 74
0
 75
0
 76
0
 77
1
 78
12
 79
3
170
0
171
3
172
1
173
0
174
0
175
0
176
0
177
0
178
0
179
2
271
2
272
2
273
2
274
3
275
0
276
0
277
2
278
46
279
2
280
0
281
0
282
0
283
0
284
8
285
0
286
0
288
1
289
3
290
0
340
4C
371
-2
372
-2
  0
DIMSTYLE
105
7E
330
4
100
AcDbSymbolTableRecord
100
AcDbDimStyleTableRecord
  2
EZ_M_25_H25_CM
 70
0
 40
1.0
 41
0.0625
 42
0.03125
 43
3.75
 44
0.09375
 45
0.0
 46
0.0
 47
0.0
 48
0.0
 49
2.5
140
0.0625
141
2.5
142
0.03125
143
0.03937007874
144
100.0
145
0.0
146
0.5
147
0.025
148
0.0
 69
0
 70
0
 71
0
 72
0
 73
0
 74
0
 75
0
 76
0
 77
1
 78
12
 79
3
170
0
171
3
172
1
173
0
174
0
175
0
176
0
177
0
178
0
179
2
271
2
272
2
273
2
274
3
275
0
276
0
277
2
278
46
279
2
280
0
281
0
282
0
283
0
284
8
285
0
286
0
288
1
289
3
290
0
340
4C
371
-2
372
-2
  0
DIMSTYLE
105
7F
330
4
100
AcDbSymbolTableRecord
100
AcDbDimStyleTableRecord
  2
EZ_M_20_H25_CM
 70
0
 40
1.0
 41
0.05
 42
0.025
 43
3.75
 44
0.07500000000000001
 45
0.0
 46
0.0
 47
0.0
 48
0.0
 49
2.5
140
0.05
141
2.5
142
0.025
143
0.03937007874
144
100.0
145
0.0
146
0.5
147
0.020000000000000004
148
0.0
 69
0
 70
0
 71
0
 72
0
 73
0
 74
0
 75
0
 76
0
 77
1
 78
12
 79
3
170
0
171
3
172
1
173
0
174
0
175
0
176
0
177
0
178
0
179
2
271
2
272
2
273
2
274
3
275
0
276
0
277
2
278
46
279
2
280
0
281
0
282
0
283
0
284
8
285
0
286
0
288
1
289
3
290
0
340
4C
371
-2
372
-2
  0
DIMSTYLE
105
80
330
4
100
AcDbSymbolTableRecord
100
AcDbDimStyleTableRecord
  2
EZ_M_10_H25_CM
 70
0
 40
1.0
 41
0.025
 42
0.0125
 43
3.75
 44
0.037500000000000006
 45
0.0
 46
0.0
 47
0.0
 48
0.0
 49
2.5
140
0.025
141
2.5
142
0.0125
143
0.03937007874
144
100.0
145
0.0
146
0.5
147
0.010000000000000002
148
0.0
 69
0
 70
0
 71
0
 72
0
 73
0
 74
0
 75
0
 76
0
 77
1
 78
12
 79
3
170
0
171
3
172
1
173
0
174
0
175
0
176
0
177
0
178
0
179
2
271
2
272
2
273
2
274
3
275
0
276
0
277
2
278
46
279
2
280
0
281
0
282
0
283
0
284
8
285
0
286
0
288
1
289
3
290
0
340
4C
371
-2
372
-2
  0
DIMSTYLE
105
81
330
4
100
AcDbSymbolTableRecord
100
AcDbDimStyleTableRecord
  2
EZ_M_5_H25_CM
 70
0
 40
1.0
 41
0.0125
 42
0.00625
 43
3.75
 44
0.018750000000000003
 45
0.0
 46
0.0
 47
0.0
 48
0.0
 49
2.5
140
0.0125
141
2.5
142
0.00625
143
0.03937007874
144
100.0
145
0.0
146
0.5
147
0.005000000000000001
148
0.0
 69
0
 70
0
 71
0
 72
0
 73
0
 74
0
 75
0
 76
0
 77
1
 78
12
 79
3
170
0
171
3
172
1
173
0
174
0
175
0
176
0
177
0
178
0
179
2
271
2
272
2
273
2
274
3
275
0
276
0
277
2
278
46
279
2
280
0
281
0
282
0
283
0
284
8
285
0
286
0
288
1
289
3
290
0
340
4C
371
-2
372
-2
  0
DIMSTYLE
105
82
330
4
100
AcDbSymbolTableRecord
100
AcDbDimStyleTableRecord
  2
EZ_M_1_H25_CM
 70
0
 40
1.0
 41
0.0025
 42
0.00125
 43
3.75
 44
0.00375
 45
0.0
 46
0.0
 47
0.0
 48
0.0
 49
2.5
140
0.0025
141
2.5
142
0.00125
143
0.03937007874
144
100.0
145
0.0
146
0.5
147
0.001
148
0.0
 69
0
 70
0
 71
0
 72
0
 73
0
 74
0
 75
0
 76
0
 77
1
 78
12
 79
3
170
0
171
3
172
1
173
0
174
0
175
0
176
0
177
0
178
0
179
2
271
2
272
2
273
2
274
3
275
0
276
0
277
2
278
46
279
2
280
0
281
0
282
0
283
0
284
8
285
0
286
0
288
1
289
3
290
0
340
4C
371
-2
372
-2
  0
DIMSTYLE
105
83
330
4
100
AcDbSymbolTableRecord
100
AcDbDimStyleTableRecord
  2
EZ_RADIUS
 70
0
 40
1.0
 41
0.25
 42
0.125
 43
3.75
 44
0.375
 45
0.0
 46
0.0
 47
0.0
 48
0.0
 49
2.5
140
0.25
141
0.0
142
0.0
143
0.03937007874
144
100.0
145
0.0
146
0.5
147
0.1
148
0.0
 69
0
 70
0
 71
0
 72
0
 73
0
 74
0
 75
0
 76
0
 77
1
 78
12
 79
3
170
0
171
3
172
0
173
0
174
0
175
0
176
0
177
0
178
0
179
2
271
2
272
2
273
2
274
3
275
0
276
0
277
2
278
46
279
1
280
0
281
0
282
0
283
0
284
8
285
0
286
0
288
1
289
3
290
0
340
4C
342
84
371
-2
372
-2
  0
DIMSTYLE
105
88
330
4
100
AcDbSymbolTableRecord
100
AcDbDimStyleTableRecord
  2
EZ_RADIUS_INSIDE
 70
0
 40
1.0
 41
0.25
 42
0.125
 43
3.75
 44
0.375
 45
0.0
 46
0.0
 47
0.0
 48
0.0
 49
2.5
140
0.25
141
0.0
142
0.0
143
0.03937007874
144
100.0
145
0.0
146
0.5
147
0.1
148
0.0
 69
0
 70
0
 71
0
 72
0
 73
0
 74
0
 75
0
 76
0
 77
0
 78
12
 79
3
170
0
171
3
172
0
173
0
174
1
175
0
176
0
177
0
178
0
179
2
271
2
272
2
273
2
274
3
275
0
276
0
277
2
278
46
279
0
280
0
281
0
282
0
283
0
284
8
285
0
286
0
288
1
289
0
290
0
340
4C
342
84
371
-2
372
-2
  0
DIMSTYLE
105
89
330
4
100
AcDbSymbolTableRecord
100
AcDbDimStyleTableRecord
  2
EZ_CURVED
 70
0
 40
1.0
 41
0.25
 42
0.125
 43
3.75
 44
0.375
 45
0.0
 46
0.0
 47
0.0
 48
0.0
 49
2.5
140
0.25
141
2.5
142
0.0
143
0.03937007874
144
100.0
145
0.0
146
0.5
147
0.1
148
0.0
 69
0
 70
0
 71
0
 72
0
 73
0
 74
0
 75
0
 76
0
 77
1
 78
12
 79
2
 90
2
170
0
171
3
172
1
173
0
174
0
175
0
176
0
177
0
178
0
179
2
271
2
272
2
273
2
274
3
275
0
276
0
277
2
278
46
279
2
280
0
281
0
282
0
283
0
284
8
285
0
286
0
288
1
289
3
290
0
340
4C
371
-2
372
-2
  0
ENDTAB
  0
TABLE
  2
BLOCK_RECORD
  5
9
330
0
100
AcDbSymbolTable
 70
5
  0
BLOCK_RECORD
  5
17
330
9
100
AcDbSymbolTableRecord
100
AcDbBlockTableRecord
  2
*Model_Space
340
1A
 70
0
280
1
281
0
  0
BLOCK_RECORD
  5
1B
330
9
100
AcDbSymbolTableRecord
100
AcDbBlockTableRecord
  2
*Paper_Space
340
1E
 70
0
280
1
281
0
  0
BLOCK_RECORD
  5
74
330
9
100
AcDbSymbolTableRecord
100
AcDbBlockTableRecord
  2
_ARCHTICK
340
0
 70
0
280
1
281
0
  0
BLOCK_RECORD
  5
78
330
9
100
AcDbSymbolTableRecord
100
AcDbBlockTableRecord
  2
_CLOSEDFILLED
340
0
 70
0
280
1
281
0
  0
BLOCK_RECORD
  5
84
330
9
100
AcDbSymbolTableRecord
100
AcDbBlockTableRecord
  2
_CLOSEDBLANK
340
0
 70
0
280
1
281
0
  0
ENDTAB
  0
ENDSEC
  0
SECTION
  2
BLOCKS
  0
BLOCK
  5
18
330
17
100
AcDbEntity
  8
0
100
AcDbBlockBegin
  2
*Model_Space
 70
0
 10
0.0
 20
0.0
 30
0.0
  3
*Model_Space
  1

  0
ENDBLK
  5
19
330
17
100
AcDbEntity
  8
0
100
AcDbBlockEnd
  0
BLOCK
  5
1C
330
1B
100
AcDbEntity
  8
0
100
AcDbBlockBegin
  2
*Paper_Space
 70
0
 10
0.0
 20
0.0
 30
0.0
  3
*Paper_Space
  1

  0
ENDBLK
  5
1D
330
1B
100
AcDbEntity
  8
0
100
AcDbBlockEnd
  0
BLOCK
  5
75
330
74
100
AcDbEntity
  8
0
100
AcDbBlockBegin
  2
_ARCHTICK
 70
0
 10
0.0
 20
0.0
 30
0.0
  3
_ARCHTICK
  1

  0
LWPOLYLINE
  5
77
330
74
100
AcDbEntity
  8
0
  6
BYBLOCK
 62
0
100
AcDbPolyline
 90
2
 70
0
 43
0.15
 10
-0.5
 20
-0.5
 10
0.5
 20
0.5
  0
ENDBLK
  5
76
330
74
100
AcDbEntity
  8
0
100
AcDbBlockEnd
  0
BLOCK
  5
79
330
78
100
AcDbEntity
  8
0
100
AcDbBlockBegin
  2
_CLOSEDFILLED
 70
0
 10
0.0
 20
0.0
 30
0.0
  3
_CLOSEDFILLED
  1

  0
SOLID
  5
7B
330
78
100
AcDbEntity
  8
0
  6
BYBLOCK
 62
0
100
AcDbTrace
 10
-1.0
 20
0.16439898372402537
 30
0.0
 11
0.0
 21
0.0
 31
0.0
 12
-1.0
 22
-0.16439898372402537
 32
0.0
 13
-1.0
 23
-0.16439898372402537
 33
0.0
  0
ENDBLK
  5
7A
330
78
100
AcDbEntity
  8
0
100
AcDbBlockEnd
  0
BLOCK
  5
85
330
84
100
AcDbEntity
  8
0
100
AcDbBlockBegin
  2
_CLOSEDBLANK
 70
0
 10
0.0
 20
0.0
 30
0.0
  3
_CLOSEDBLANK
  1

  0
LWPOLYLINE
  5
87
330
84
100
AcDbEntity
  8
0
  6
BYBLOCK
 62
0
100
AcDbPolyline
 90
3
 70
1
 10
-1.0
 20
0.16439898372402537
 10
0.0
 20
0.0
 10
-1.0
 20
-0.16439898372402537
  0
ENDBLK
  5
86
330
84
100
AcDbEntity
  8
0
100
AcDbBlockEnd
  0
ENDSEC
  0
SECTION
  2
ENTITIES
  0
LWPOLYLINE
  5
90
330
17
100
AcDbEntity
  8
SHEET
100
AcDbPolyline
 90
4
 70
1
 10
0.0
 20
0.0
 10
1525.0
 20
0.0
 10
1525.0
 20
1525.0
 10
0.0
 20
1525.0
  0
TEXT
  5
91
330
17
100
AcDbEntity
  8
TEXT
100
AcDbText
 10
0.0
 20
-25.0
 30
0.0
 40
12.0
  1
Фанера ФК 15 мм, лист 1 из 1
 11
0.0
 21
-25.0
 31
0.0
100
AcDbText
  0
LWPOLYLINE
  5
92
330
17
100
AcDbEntity
  8
CUT_OUT
100
AcDbPolyline
 90
266
 70
1
 10
10.019142346466435
 20
319.8705903848144
 10
10.854524383712338
 20
347.5548870450195
 10
10.859466456637577
 20
347.68404671954573
 10
10.86245803918466
 20
347.74858131497484
 10
10.86948620261081
 20
347.87764428614526
 10
12.34639789782456
 20
371.4850102201678
 10
12.357281270319488
 20
371.6360264625204
 10
12.363434213767821
 20
371.7114425446925
 10
12.377173640697146
 20
371.8622257712087
 10
15.121758051198093
 20
399.125238527323
 10
15.131772389427688
 20
399.24179467566256
 10
15.173312599403125
 20
399.82519542949063
 10
15.179913989799562
 20
399.94199459186234
 10
16.16006973810938
 20
423.35763731331383
 10
16.166201802949345
 20
423.48124241098077
 10
16.16974460902497
 20
423.5429990674844
 10
16.17778800914951
 20
423.66649451720974
 10
17.46842672293747
 20
441.3700190897806
 10
17.474536756942896
 20
441.44850280047933
 10
17.477784377361406
 20
441.48772392732377
 10
17.484666397569754
 20
441.56614371537876
 10
22.823453100287416
 20
499.1465009364513
 10
22.830551523380574
 20
499.2194252623374
 10
22.83426724072138
 20
499.2558665865175
 10
22.84203324556659
 20
499.3287228428371
 10
26.80089421333941
 20
534.9212928788685
 10
26.810709777202923
 20
535.0054792693182
 10
26.81583967835664
 20
535.0475393834611
 10
26.82654659862753
 20
535.131617058794
 10
29.161823159259757
 20
552.7254753667282
 10
29.17856481970235
 20
552.8447190043975
 10
29.187381368715712
 20
552.9042575843117
 10
29.205915894756163
 20
553.0232357321514
 10
30.41408427644784
 20
560.4127058400067
 10
30.46421854212984
 20
560.6888330514424
 10
30.491656953565617
 20
560.8262028655529
 10
30.551445477146416
 20
561.1004017239363
 10
31.759581960332742
 20
566.208899046277
 10
31.833284959360547
 20
566.4965934583394
 10
31.872725250062597
 20
566.6394605790472
 10
31.957055745696948
 20
566.9242211351373
 10
35.339553038072815
 20
577.6131098134716
 10
35.37080968503446
 20
577.716736762988
 10
35.52005711106885
 20
578.2369005592521
 10
35.54849834157156
 20
578.3413353190454
 10
35.71768935217594
 20
578.9974881814677
 10
36.22869363052446
 20
580.4126148743443
 10
36.995624723916464
 20
581.7070358365397
 10
37.99135593290926
 20
582.8349668135148
 10
39.18066779454877
 20
583.7565123767649
 10
40.52149381069413
 20
584.4390770431593
 10
41.96640835907198
 20
584.8585181919136
 10
43.464304158973604
 20
585.0
 10
55.48966972064786
 20
585.0
 10
55.48966972064786
 20
603.0
 10
79.37568570703498
 20
603.0
 10
79.37568570703498
 20
585.0
 10
84.66893009101643
 20
585.0
 10
86.21963552945434
 20
584.84826813018
 10
87.71151810896367
 20
584.3988281607998
 10
89.08798629620925
 20
583.6687286835909
 10
90.29682656824144
 20
582.685664538261
 10
91.29218402636295
 20
581.4869262650412
 10
92.03630180850877
 20
580.1179855638367
 10
92.50095331906606
 20
578.6307704177141
 10
92.66851294740695
 20
577.0816953104096
 10
93.0078169054531
 20
543.8571428571429
 10
93.4279861249944
 20
502.7142857142858
 10
93.84815534453577
 20
461.57142857142856
 10
94.26832456407702
 20
420.42857142857144
 10
94.68849378361834
 20
379.2857142857143
 10
95.10866300315969
 20
338.14285714285717
 10
95.38354145941221
 20
311.2268325240326
 10
95.43855023164818
 20
305.8403883190544
 10
95.52450542017901
 20
297.42367934101014
 10
95.55640608974781
 20
297.15
 10
59.85784925558439
 20
297.15
 10
59.23652891202475
 20
297.62675586779363
 10
58.51298604733231
 20
297.92645713530754
 10
57.73652891202475
 20
298.0286796564403
 10
56.960071776717186
 20
297.92645713530754
 10
56.23652891202475
 20
297.62675586779363
 10
55.61520856846511
 20
297.15
 10
55.138452700671436
 20
296.5286796564403
 10
54.83875143315755
 20
295.8051367917479
 10
54.73652891202475
 20
295.0286796564403
 10
54.83875143315755
 20
294.25222252113275
 10
55.138452700671436
 20
293.5286796564403
 10
55.61520856846511
 20
292.90735931288066
 10
55.61520856846511
 20
283.09264068711934
 10
55.138452700671436
 20
282.4713203435597
 10
54.83875143315755
 20
281.74777747886725
 10
54.73652891202475
 20
280.9713203435597
 10
54.83875143315755
 20
280.1948632082521
 10
55.138452700671436
 20
279.4713203435597
 10
55.61520856846511
 20
278.85
 10
56.23652891202475
 20
278.37324413220637
 10
56.96007177671719
 20
278.07354286469246
 10
57.73652891202475
 20
277.9713203435597
 10
58.51298604733231
 20
278.07354286469246
 10
59.23652891202475
 20
278.37324413220637
 10
59.8578492555844
 20
278.85
 10
153.1555502707527
 20
278.85
 10
153.65495606757028
 20
278.3867516162275
 10
154.5275154612231
 20
277.214972231114
 10
155.17242721034043
 20
275.90405054822105
 10
155.56818323780243
 20
274.497706355089
 10
155.70158491422922
 20
273.04284181996724
 10
155.70158491422922
 20
36.0
 10
155.54786715745507
 20
34.439277423870976
 10
155.0926211743195
 20
32.93853254107928
 10
154.35334181264957
 20
31.555438135843183
 10
153.35843916372158
 20
30.343145750507617
 10
152.14614677838603
 20
29.34824310157964
 10
150.76305237314995
 20
28.608963739909704
 10
149.26230749035824
 20
28.153717756774157
 10
147.70158491422922
 20
28.0
 10
134.0985658411069
 20
28.0
 10
134.0985658411069
 20
10.0
 10
104.0985658411069
 20
10.0
 10
104.0985658411069
 20
28.0
 10
100.42584428381308
 20
28.0
 10
100.16409162123885
 20
28.004283300189073
 10
100.0334604979358
 20
28.00855972038046
 10
99.77198812666889
 20
28.02140503428255
 10
97.88031998860922
 20
28.145391514548237
 10
97.35933548468992
 20
28.196704009466586
 10
97.10135093816749
 20
28.230668319355217
 10
96.58483789979888
 20
28.315944967119854
 10
95.04669856131834
 20
28.621899904296804
 10
94.53686877662722
 20
28.740775537210098
 10
94.28552455570484
 20
28.80812301822848
 10
93.78456119409971
 20
28.960088592580178
 10
92.29951598382664
 20
29.464193513812027
 10
91.80956424733124
 20
29.648598289682567
 10
91.5691609213149
 20
29.748176607758133
 10
91.0923188584836
 20
29.964230935586933
 10
89.68577731169813
 20
30.657860465907177
 10
89.22408683344999
 20
30.904639167893258
 10
88.9987377699001
 20
31.03474451039542
 10
88.55417590574342
 20
31.311190842250497
 10
87.25020433827855
 20
32.18247678808467
 10
86.8246747703656
 20
32.48740696417514
 10
86.61823575423783
 20
32.64581319262181
 10
86.21356066550705
 20
32.97792145511987
 10
85.03447039241077
 20
34.01195587236901
 10
84.65238266371894
 20
34.36982008270844
 10
84.46838592381519
 20
34.55381682261219
 10
84.11052171347578
 20
34.935904551304006
 10
83.07648729622684
 20
36.11499482440004
 10
82.74437903372855
 20
36.51966991313111
 10
82.5859728052819
 20
36.726108929258885
 10
82.28104262919165
 20
37.15163849717154
 10
81.40975668335754
 20
38.455610064636296
 10
81.1333103515023
 20
38.90017192879328
 10
81.0032050089998
 20
39.125520992343766
 10
80.7564263070139
 20
39.5872114705916
 10
80.0627967766939
 20
40.993753017376534
 10
79.84674244886511
 20
41.4705950802078
 10
79.74716413078953
 20
41.71099840622418
 10
79.56275935491897
 20
42.200950142719606
 10
79.05865443368711
 20
43.68599535299266
 10
78.90668885933539
 20
44.186958714597864
 10
78.839341378317
 20
44.43830293552027
 10
78.72046574540371
 20
44.948132720211376
 10
78.41451080822672
 20
46.48627205869214
 10
78.3292341604621
 20
47.002785097060695
 10
78.29526985057349
 20
47.260769643582904
 10
78.24395735565513
 20
47.78175414750231
 10
78.14133236581844
 20
49.34750892194856
 10
78.12420375172728
 20
49.87073395578963
 10
78.11135843782517
 20
50.26315276870841
 10
78.11138479641708
 20
50.263153631599366
 10
78.0985658411069
 20
50.654732208259375
 10
78.0985658411069
 20
56.85249157033354
 10
78.0898217642051
 20
57.11679636772736
 10
78.01121590361336
 20
58.30349491536663
 10
77.94154982107186
 20
58.82705576825633
 10
77.73319948985149
 20
59.863246129693735
 10
77.59508465683484
 20
60.37304375879384
 10
77.25188166880294
 20
61.372699716942066
 10
77.0477314780115
 20
61.859826014051166
 10
76.57567289784225
 20
62.80547976809851
 10
76.30905463143884
 20
63.261422779620105
 10
75.7163891222674
 20
64.13655015314588
 10
75.39196161785752
 20
64.55334281637012
 10
74.68904530568692
 20
65.34265199770527
 10
74.31247754866352
 20
65.71301135576942
 10
73.5115930613602
 20
66.40271010424743
 10
73.08946512611612
 20
66.7201645671582
 10
72.20460696907287
 20
67.29820121614301
 10
71.7442950400144
 20
67.55720364412706
 10
70.67152540958185
 20
68.07062125612514
 10
70.42934282872673
 20
68.17683369577668
 10
65.50845988322675
 20
70.14361791630341
 10
65.09153444485239
 20
70.32414857981874
 10
64.88663203670544
 20
70.41987041662578
 10
64.48062743687399
 20
70.62377825499597
 10
60.28303939877996
 20
72.8834145248117
 10
59.850386349502685
 20
73.13406550462686
 10
59.63922292559023
 20
73.26538069382752
 10
59.22307344214374
 20
73.54257048829736
 10
55.44385469670042
 20
76.23405530653821
 10
55.01330479903072
 20
76.56322187421765
 10
54.80505151406375
 20
76.7339180412554
 10
54.39777632102773
 20
77.09148028870226
 10
51.066376941690855
 20
80.22230798698776
 10
50.67373388981071
 20
80.6179606038407
 10
50.485687932377076
 20
80.8211401216649
 10
50.12154900740859
 20
81.24317377285318
 10
45.94989355007619
 20
86.43319192737356
 10
45.664026519388756
 20
86.8112549855683
 10
45.527418304829446
 20
87.00350494308948
 10
45.26444218810718
 20
87.39783373640745
 10
42.66916156448472
 20
91.55089258753272
 10
42.47206562781799
 20
91.88395687571925
 10
42.377878765860785
 20
92.05228045221057
 10
42.1971212487759
 20
92.39448703942449
 10
39.052238843903964
 20
98.71387529913194
 10
38.90382446259988
 20
99.02913429644512
 10
38.83325232597333
 20
99.1879270956394
 10
38.6987068347392
 20
99.5093498309166
 10
33.8397056530074
 20
111.86614712220248
 10
33.76081020408546
 20
112.07531967655655
 10
33.72286842848618
 20
112.18033403007962
 10
33.6498484574693
 20
112.39162939961903
 10
29.436352337436503
 20
125.15921438783681
 10
29.37060069864307
 20
125.36800912271914
 10
29.339188637185632
 20
125.47273856783983
 10
29.279174302658184
 20
125.68325412301297
 10
26.782116515973097
 20
134.91980018618437
 10
26.75046888834798
 20
135.04059833877508
 10
26.735122095794086
 20
135.10109879902998
 10
26.705363849938752
 20
135.22237621987753
 10
21.71597980274794
 20
156.26448032159155
 10
21.67697683767062
 20
156.43749116510364
 10
21.658447956841968
 20
156.52414883378697
 10
21.623289833208396
 20
156.69798176967717
 10
19.077980776476622
 20
170.04240687551186
 10
19.05113917868089
 20
170.19070749668046
 10
19.038423633699658
 20
170.26494468740265
 10
19.0143804758715
 20
170.4137246328694
 10
13.657332943582706
 20
205.66881629000844
 10
13.639314950617923
 20
205.7940543656479
 10
13.63080435376462
 20
205.8567211261836
 10
13.61476931094196
 20
205.9822285007151
 10
12.472041006414145
 20
215.52623443835606
 10
12.452441436309345
 20
215.70738240593548
 10
12.443679981288149
 20
215.7979974331667
 10
12.428210989458734
 20
215.9795447812558
 10
11.57392944513386
 20
227.56361190040286
 10
11.565690319686041
 20
227.68868615832957
 10
11.56206202964927
 20
227.75123252090043
 10
11.55578353973831
 20
227.8764205145281
 10
10.975239795525844
 20
241.60035671820793
 10
10.971996801826155
 20
241.68853408795525
 10
10.970618700983401
 20
241.73262366832836
 10
10.968348452911368
 20
241.82083144302698
 10
10.002042305304268
 20
289.61106768836027
 10
10.000796587493948
 20
289.6938877500012
 10
10.000388170221918
 20
289.73529434613704
 10
10.0
 20
289.8181228662673
 10
10.0145941618422
 20
319.57389562254383
 10
10.01553300920294
 20
319.69259355816934
 10
10.016442445842326
 20
319.7519194452684
 10
10.019142346466435
 20
319.8705903848144
  0
TEXT
  5
93
330
17
100
AcDbEntity
  8
TEXT
100
AcDbText
 10
52.71011256754721
 20
308.5336104215435
 30
0.0
 40
10.0
  1
РС1
 72
1
 11
52.71011256754721
 21
308.5336104215435
 31
0.0
100
AcDbText
 73
2
  0
LWPOLYLINE
  5
94
330
17
100
AcDbEntity
  8
CUT_OUT
100
AcDbPolyline
 90
254
 70
1
 10
37.14355932191803
 20
1185.4973328780234
 10
38.373202673147
 20
1186.5575923640567
 10
39.791594176617075
 20
1187.3477432938348
 10
41.34030999932105
 20
1187.835239190691
 10
42.95555822317431
 20
1188.0
 10
53.93700550248185
 20
1188.0
 10
53.93700550248185
 20
1206.0
 10
70.2337538808152
 20
1206.0
 10
70.2337538808152
 20
1188.0
 10
75.52697107996671
 20
1188.0
 10
77.0776168900808
 20
1187.8482799116478
 10
78.56944667036655
 20
1187.398874392894
 10
79.94587528430613
 20
1186.668829404991
 10
81.15469476417023
 20
1185.6858355704553
 10
82.15005456038716
 20
1184.4871778671434
 10
82.89420065390088
 20
1183.118321408218
 10
83.35890756694768
 20
1181.6311869494011
 10
83.52654895605124
 20
1180.0821815335637
 10
83.86787754531377
 20
1146.857142857143
 10
84.29054773461192
 20
1105.7142857142858
 10
84.71321792391014
 20
1064.5714285714284
 10
85.13588811320822
 20
1023.4285714285714
 10
85.55855830250637
 20
982.2857142857142
 10
85.98122849180459
 20
941.1428571428571
 10
86.31083164457294
 20
909.059176363993
 10
86.40009992539359
 20
900.3697721472174
 10
86.42274022558817
 20
900.15
 10
54.407828343686774
 20
900.15
 10
53.78650800012713
 20
900.6267558677937
 10
53.062965135434695
 20
900.9264571353076
 10
52.28650800012713
 20
901.0286796564403
 10
51.51005086481956
 20
900.9264571353076
 10
50.78650800012713
 20
900.6267558677937
 10
50.16518765656748
 20
900.15
 10
49.68843178877381
 20
899.5286796564403
 10
49.38873052125993
 20
898.8051367917478
 10
49.28650800012713
 20
898.0286796564403
 10
49.38873052125993
 20
897.2522225211328
 10
49.68843178877381
 20
896.5286796564403
 10
50.16518765656748
 20
895.9073593128807
 10
50.16518765656748
 20
886.0926406871193
 10
49.68843178877381
 20
885.4713203435597
 10
49.38873052125993
 20
884.7477774788672
 10
49.28650800012713
 20
883.9713203435597
 10
49.38873052125993
 20
883.1948632082522
 10
49.68843178877381
 20
882.4713203435597
 10
50.16518765656748
 20
881.85
 10
50.78650800012713
 20
881.3732441322063
 10
51.510050864819576
 20
881.0735428646924
 10
52.28650800012713
 20
880.9713203435597
 10
53.062965135434695
 20
881.0735428646924
 10
53.78650800012713
 20
881.3732441322063
 10
54.407828343686774
 20
881.85
 10
149.45600348856934
 20
881.85
 10
150.0462842934701
 20
881.3188136937472
 10
150.9487658279717
 20
880.1361104697737
 10
151.61665640759978
 20
878.8067564876615
 10
152.0268589168104
 20
877.3767237126694
 10
152.1651876565675
 20
875.895465802692
 10
152.1651876565675
 20
639.0
 10
152.01146989979335
 20
637.439277423871
 10
151.55622391665779
 20
635.9385325410793
 10
150.81694455498786
 20
634.5554381358431
 10
149.82204190605987
 20
633.3431457505076
 10
148.6097495207243
 20
632.3482431015797
 10
147.22665511548823
 20
631.6089637399097
 10
145.72591023269652
 20
631.1537177567742
 10
144.1651876565675
 20
631.0
 10
125.1105797064084
 20
631.0
 10
125.1105797064084
 20
613.0
 10
95.1105797064084
 20
613.0
 10
95.1105797064084
 20
631.0
 10
91.43785814911458
 20
631.0
 10
91.17610548654035
 20
631.0042833001891
 10
91.0454743632373
 20
631.0085597203805
 10
90.78400199197038
 20
631.0214050342826
 10
88.89233385391071
 20
631.1453915145482
 10
88.37134934999142
 20
631.1967040094665
 10
88.11336480346898
 20
631.2306683193552
 10
87.59685176510038
 20
631.3159449671199
 10
86.05871242661983
 20
631.6218999042968
 10
85.54888264192871
 20
631.7407755372101
 10
85.29753842100634
 20
631.8081230182285
 10
84.7965750594012
 20
631.9600885925802
 10
83.31152984912814
 20
632.464193513812
 10
82.82157811263268
 20
632.6485982896826
 10
82.58117478661632
 20
632.7481766077582
 10
82.10433272378509
 20
632.9642309355869
 10
80.69779117699989
 20
633.657860465907
 10
80.2361006987519
 20
633.904639167893
 10
80.01075163520173
 20
634.0347445103954
 10
79.56618977104486
 20
634.3111908422505
 10
78.26221820358015
 20
635.1824767880846
 10
77.83668863566709
 20
635.4874069641752
 10
77.63024961953901
 20
635.6458131926221
 10
77.22557453080834
 20
635.97792145512
 10
76.04648425771235
 20
637.011955872369
 10
75.66439652902052
 20
637.3698200827083
 10
75.4803997891168
 20
637.5538168226121
 10
75.12253557877739
 20
637.9359045513039
 10
74.08850116152826
 20
639.1149948244001
 10
73.75639289903
 20
639.5196699131312
 10
73.59798667058344
 20
639.7261089292589
 10
73.29305649449314
 20
640.1516384971716
 10
72.42177054865887
 20
641.4556100646365
 10
72.14532421680359
 20
641.9001719287936
 10
72.01521887430138
 20
642.1255209923436
 10
71.76844017231552
 20
642.5872114705913
 10
71.0748106419954
 20
643.9937530173765
 10
70.85875631416671
 20
644.4705950802075
 10
70.75917799609111
 20
644.710998406224
 10
70.57477322022042
 20
645.2009501427198
 10
70.07066829898855
 20
646.6859953529929
 10
69.91870272463692
 20
647.1869587145978
 10
69.85135524361856
 20
647.4383029355201
 10
69.73247961070521
 20
647.9481327202113
 10
69.42652467352825
 20
649.486272058692
 10
69.34124802576362
 20
650.0027850970606
 10
69.30728371587499
 20
650.260769643583
 10
69.25597122095664
 20
650.7817541475024
 10
69.13198474069097
 20
652.673422285562
 10
69.11913942678888
 20
652.9348946568286
 10
69.11486300659749
 20
653.0655257801319
 10
69.1105797064084
 20
653.3272784427063
 10
69.1105797064084
 20
660.8176847473434
 10
69.10091786066204
 20
661.0954941347385
 10
69.01407215295679
 20
662.3425317632315
 10
68.93712720040588
 20
662.8922876742749
 10
68.7070831519002
 20
663.9791093032223
 10
68.55467875998525
 20
664.5128929567517
 10
68.17620995547759
 20
665.5573367711407
 10
67.95128847098566
 20
666.0648428432858
 10
67.43170169774739
 20
667.0467446217123
 10
67.13860549558598
 20
667.5181751083469
 10
66.487931989946
 20
668.4185780772775
 10
66.13231963846654
 20
668.8448314560624
 10
65.36312142094599
 20
669.6463522727379
 10
64.95185843659914
 20
670.0191992187576
 10
64.07898578726864
 20
670.7063635771551
 10
63.62001208770005
 20
671.0186058397563
 10
62.540100836565685
 20
671.6482380446964
 10
62.29523788592162
 20
671.779818979448
 10
62.159231420297886
 20
671.8469200112474
 10
61.75250705639429
 20
672.0623474419926
 10
61.5532389093231
 20
672.1753496309667
 10
61.15957644066856
 20
672.413810417854
 10
58.7938232814798
 20
673.9415772110578
 10
58.429031143087315
 20
674.1917098455586
 10
58.25091427137454
 20
674.3212237391491
 10
57.90050398234504
 20
674.5911353328565
 10
55.80235201488138
 20
676.3017490870617
 10
55.39068650488859
 20
676.6614792347502
 10
55.192401793090795
 20
676.8470721631971
 10
54.80626593629201
 20
677.2340778109178
 10
50.24911609926231
 20
682.1248792265417
 10
49.94781676206145
 20
682.4673116437152
 10
49.8027607287041
 20
682.6419684070331
 10
49.5214667524135
 20
683.0010156878076
 10
45.418404113425936
 20
688.5574983039686
 10
45.18707970096874
 20
688.8878787102144
 10
45.07600785883865
 20
689.0553444628924
 10
44.86162800178364
 20
689.3969633638902
 10
41.315615041706785
 20
695.37732019225
 10
41.11310470812472
 20
695.7399984868057
 10
41.01694942915486
 20
695.9232232942313
 10
40.833537195690155
 20
696.2959241570751
 10
37.887784496439664
 20
702.6960657887828
 10
37.7543682918006
 20
703.0026459347366
 10
37.691030579512585
 20
703.1569250217021
 10
37.570541309691265
 20
703.4688121894583
 10
34.40002464917953
 20
712.2151942495093
 10
34.32805053696927
 20
712.422584427798
 10
34.293525379301485
 20
712.5266556369055
 10
34.227268729450415
 20
712.7359425577336
 10
30.888112933001032
 20
723.8092005472764
 10
30.850984373750087
 20
723.9361108125169
 10
30.83295192133792
 20
723.9996933057181
 10
30.797926028589327
 20
724.127199902302
 10
26.7593595355799
 20
739.3194609565237
 10
26.73415960434663
 20
739.416713360449
 10
26.721867877819935
 20
739.4654071578088
 10
26.697891208370553
 20
739.5629683484824
 10
23.03833942820097
 20
754.8677161412174
 10
23.011438787597758
 20
754.9840499635411
 10
22.9984269122003
 20
755.0422977832793
 10
22.97326555317033
 20
755.1590201405772
 10
20.18677425979112
 20
768.5705257942811
 10
20.16155502695559
 20
768.6970184329975
 10
20.149459997911322
 20
768.7603417062701
 10
20.126283388304362
 20
768.8872244951795
 10
17.773472370207983
 20
782.3825090077459
 10
17.75388725018736
 20
782.5000092352451
 10
17.74453521290445
 20
782.5588126943246
 10
17.726701812821346
 20
782.6765915134301
 10
15.488219249511275
 20
798.2424806973661
 10
15.473498101189882
 20
798.3500212735382
 10
15.466504243091334
 20
798.4038266351147
 10
15.453243519783197
 20
798.5115570437689
 10
13.866402305613956
 20
812.1664354367216
 10
13.85532619289907
 20
812.267323535213
 10
13.850109389186823
 20
812.3177905279529
 10
13.840314087698411
 20
812.4188110246798
 10
12.598888736364483
 20
826.1264819532986
 10
12.590880435627518
 20
826.2211652734718
 10
12.587158232459657
 20
826.2685206905614
 10
12.580275094343879
 20
826.3632924501179
 10
11.396900603499631
 20
844.1154498702606
 10
11.391868180228197
 20
844.1972548340805
 10
11.389561856465008
 20
844.2381637637363
 10
11.385367774145777
 20
844.3200159907249
 10
10.564750014894344
 20
862.1188889092342
 10
10.561674435223207
 20
862.1930792818995
 10
10.56030897806039
 20
862.2301768103991
 10
10.557922140826005
 20
862.3043925337636
 10
10.1229359470933
 20
878.1130097262692
 10
10.121079149255369
 20
878.1962392710889
 10
10.120367396424479
 20
878.2378521136304
 10
10.119376797495175
 20
878.3210964740573
 10
10.00013321295242
 20
896.1285696109423
 10
10.0
 20
896.2093093548849
 10
10.000137091266255
 20
896.2496733949188
 10
10.0008187391137
 20
896.3304103712915
 10
10.241224769669257
 20
914.151860348244
 10
10.24250266349088
 20
914.223080722468
 10
10.243300053326962
 20
914.2586838304958
 10
10.245212034976
 20
914.3298900032855
 10
10.866440602560969
 20
934.1729320612747
 10
10.868479520915205
 20
934.2312558542133
 10
10.869605257893866
 20
934.260411704696
 10
10.872069587014156
 20
934.3187190720935
 10
11.874632672465275
 20
956.1520038049548
 10
11.87982283322344
 20
956.2515057757718
 10
13.274586849615318
 20
980.1312587270683
 10
13.280857687253839
 20
980.2284536330579
 10
15.107306741072797
 20
1006.0866265495558
 10
15.112380170694747
 20
1006.154361567993
 10
15.11504958412023
 20
1006.188078354819
 10
15.120685988433785
 20
1006.2556316404446
 10
19.47641536246922
 20
1055.9194873619533
 10
19.483643533456352
 20
1055.9975104897435
 10
19.487448126041933
 20
1056.0364987427404
 10
19.495440150632515
 20
1056.114447331368
 10
25.034177992712888
 20
1107.6468000863742
 10
25.04421283710375
 20
1107.7355035082833
 10
25.049476732500608
 20
1107.779818946476
 10
25.0605007474939
 20
1107.8684048723012
 10
31.49039096591309
 20
1157.2857363774056
 10
31.500158638725065
 20
1157.3582155847998
 10
31.505207491506916
 20
1157.394428324576
 10
31.51563733981332
 20
1157.466815210132
 10
35.042626543331636
 20
1181.1770778352097
 10
35.4432532821114
 20
1182.7505044032835
 10
36.15331338135769
 20
1184.210637138484
 10
37.14355932191803
 20
1185.4973328780234
  0
TEXT
  5
95
330
17
100
AcDbEntity
  8
TEXT
100
AcDbText
 10
48.245773927866445
 20
911.6055183561184
 30
0.0
 40
10.0
  1
РС2
 72
1
 11
48.245773927866445
 21
911.6055183561184
 31
0.0
100
AcDbText
 73
2
  0
LWPOLYLINE
  5
96
330
17
100
AcDbEntity
  8
CUT_OUT
100
AcDbPolyline
 90
254
 70
1
 10
30.502667121976742
 20
1243.143559321918
 10
29.44240763594337
 20
1244.373202673147
 10
28.652256706165304
 20
1245.791594176617
 10
28.164760809309087
 20
1247.340309999321
 10
28.0
 20
1248.9555582231742
 10
28.0
 20
1259.937005502482
 10
10.0
 20
1259.937005502482
 10
10.0
 20
1276.2337538808151
 10
28.0
 20
1276.2337538808151
 10
28.0
 20
1281.5269710799666
 10
28.151720088352135
 20
1283.077616890081
 10
28.60112560710604
 20
1284.5694466703665
 10
29.331170595009098
 20
1285.945875284306
 10
30.31416442954469
 20
1287.1546947641702
 10
31.512822132856627
 20
1288.1500545603872
 10
32.88167859178213
 20
1288.894200653901
 10
34.36881305059899
 20
1289.3589075669477
 10
35.9178184664363
 20
1289.5265489560513
 10
69.14285714285711
 20
1289.8678775453138
 10
110.28571428571422
 20
1290.290547734612
 10
151.42857142857144
 20
1290.7132179239102
 10
192.57142857142856
 20
1291.1358881132082
 10
233.71428571428572
 20
1291.5585583025063
 10
274.85714285714283
 20
1291.9812284918046
 10
306.9408236360071
 20
1292.310831644573
 10
315.6302278527826
 20
1292.4000999253935
 10
315.85
 20
1292.422740225588
 10
315.85
 20
1260.4078283436868
 10
315.37324413220637
 20
1259.786508000127
 10
315.07354286469246
 20
1259.0629651354348
 10
314.9713203435597
 20
1258.286508000127
 10
315.07354286469246
 20
1257.5100508648195
 10
315.37324413220637
 20
1256.786508000127
 10
315.85
 20
1256.1651876565675
 10
316.4713203435597
 20
1255.6884317887739
 10
317.1948632082521
 20
1255.38873052126
 10
317.9713203435597
 20
1255.286508000127
 10
318.74777747886725
 20
1255.38873052126
 10
319.4713203435597
 20
1255.6884317887739
 10
320.09264068711934
 20
1256.1651876565675
 10
329.90735931288066
 20
1256.1651876565675
 10
330.5286796564403
 20
1255.6884317887739
 10
331.25222252113275
 20
1255.38873052126
 10
332.0286796564403
 20
1255.286508000127
 10
332.8051367917479
 20
1255.38873052126
 10
333.5286796564403
 20
1255.6884317887739
 10
334.15
 20
1256.1651876565675
 10
334.62675586779363
 20
1256.786508000127
 10
334.92645713530754
 20
1257.5100508648195
 10
335.0286796564403
 20
1258.286508000127
 10
334.92645713530754
 20
1259.0629651354348
 10
334.62675586779363
 20
1259.786508000127
 10
334.15
 20
1260.4078283436868
 10
334.15
 20
1355.4560034885694
 10
334.6811863062528
 20
1356.04628429347
 10
335.86388953022634
 20
1356.9487658279718
 10
337.1932435123386
 20
1357.6166564075997
 10
338.6232762873305
 20
1358.0268589168104
 10
340.104534197308
 20
1358.1651876565675
 10
577.0
 20
1358.1651876565675
 10
578.560722576129
 20
1358.0114698997934
 10
580.0614674589207
 20
1357.5562239166577
 10
581.4445618641569
 20
1356.816944554988
 10
582.6568542494924
 20
1355.82204190606
 10
583.6517568984203
 20
1354.6097495207243
 10
584.3910362600903
 20
1353.2266551154883
 10
584.8462822432258
 20
1351.7259102326966
 10
585.0
 20
1350.1651876565675
 10
585.0
 20
1331.1105797064083
 10
603.0
 20
1331.1105797064083
 10
603.0
 20
1301.1105797064083
 10
585.0
 20
1301.1105797064083
 10
585.0
 20
1297.4378581491146
 10
584.9957166998109
 20
1297.1761054865403
 10
584.9914402796195
 20
1297.0454743632372
 10
584.9785949657174
 20
1296.7840019919704
 10
584.8546084854518
 20
1294.8923338539107
 10
584.8032959905335
 20
1294.3713493499913
 10
584.7693316806448
 20
1294.113364803469
 10
584.6840550328801
 20
1293.5968517651004
 10
584.3781000957032
 20
1292.0587124266199
 10
584.2592244627899
 20
1291.5488826419287
 10
584.1918769817715
 20
1291.2975384210063
 10
584.0399114074198
 20
1290.7965750594012
 10
583.535806486188
 20
1289.3115298491282
 10
583.3514017103174
 20
1288.8215781126328
 10
583.2518233922418
 20
1288.5811747866164
 10
583.0357690644131
 20
1288.104332723785
 10
582.342139534093
 20
1286.697791177
 10
582.095360832107
 20
1286.236100698752
 10
581.9652554896046
 20
1286.0107516352018
 10
581.6888091577495
 20
1285.566189771045
 10
580.8175232119154
 20
1284.2622182035802
 10
580.5125930358248
 20
1283.836688635667
 10
580.3541868073779
 20
1283.630249619539
 10
580.02207854488
 20
1283.2255745308084
 10
578.988044127631
 20
1282.0464842577123
 10
578.6301799172917
 20
1281.6643965290205
 10
578.4461831773879
 20
1281.4803997891167
 10
578.0640954486961
 20
1281.1225355787774
 10
576.8850051755999
 20
1280.0885011615283
 10
576.4803300868688
 20
1279.75639289903
 10
576.2738910707411
 20
1279.5979866705834
 10
575.8483615028284
 20
1279.2930564944932
 10
574.5443899353635
 20
1278.421770548659
 10
574.0998280712064
 20
1278.1453242168036
 10
573.8744790076564
 20
1278.0152188743014
 10
573.4127885294087
 20
1277.7684401723154
 10
572.0062469826235
 20
1277.0748106419953
 10
571.5294049197925
 20
1276.8587563141666
 10
571.289001593776
 20
1276.759177996091
 10
570.7990498572802
 20
1276.5747732202203
 10
569.3140046470071
 20
1276.0706682989885
 10
568.8130412854022
 20
1275.918702724637
 10
568.5616970644799
 20
1275.8513552436186
 10
568.0518672797887
 20
1275.7324796107052
 10
566.513727941308
 20
1275.4265246735283
 10
565.9972149029394
 20
1275.3412480257637
 10
565.739230356417
 20
1275.307283715875
 10
565.2182458524976
 20
1275.2559712209566
 10
563.326577714438
 20
1275.131984740691
 10
563.0651053431714
 20
1275.119139426789
 10
562.9344742198681
 20
1275.1148630065975
 10
562.6727215572937
 20
1275.1105797064083
 10
555.1823152526566
 20
1275.1105797064083
 10
554.9045058652615
 20
1275.100917860662
 10
553.6574682367685
 20
1275.0140721529567
 10
553.1077123257251
 20
1274.937127200406
 10
552.0208906967777
 20
1274.7070831519002
 10
551.4871070432483
 20
1274.5546787599853
 10
550.4426632288593
 20
1274.1762099554776
 10
549.9351571567142
 20
1273.9512884709857
 10
548.9532553782877
 20
1273.4317016977475
 10
548.4818248916531
 20
1273.138605495586
 10
547.5814219227225
 20
1272.487931989946
 10
547.1551685439376
 20
1272.1323196384665
 10
546.3536477272621
 20
1271.363121420946
 10
545.9808007812424
 20
1270.9518584365992
 10
545.2936364228449
 20
1270.0789857872687
 10
544.9813941602437
 20
1269.6200120877002
 10
544.3517619553036
 20
1268.5401008365657
 10
544.220181020552
 20
1268.2952378859216
 10
544.1530799887526
 20
1268.1592314202978
 10
543.9376525580074
 20
1267.7525070563943
 10
543.8246503690333
 20
1267.553238909323
 10
543.586189582146
 20
1267.1595764406686
 10
542.0584227889422
 20
1264.7938232814797
 10
541.8082901544414
 20
1264.4290311430873
 10
541.6787762608509
 20
1264.2509142713745
 10
541.4088646671435
 20
1263.900503982345
 10
539.6982509129383
 20
1261.8023520148813
 10
539.3385207652498
 20
1261.3906865048887
 10
539.1529278368029
 20
1261.1924017930908
 10
538.7659221890822
 20
1260.806265936292
 10
533.8751207734583
 20
1256.2491160992622
 10
533.5326883562848
 20
1255.9478167620614
 10
533.3580315929669
 20
1255.802760728704
 10
532.9989843121924
 20
1255.5214667524135
 10
527.4425016960314
 20
1251.4184041134258
 10
527.1121212897856
 20
1251.1870797009688
 10
526.9446555371076
 20
1251.0760078588387
 10
526.6030366361098
 20
1250.8616280017836
 10
520.62267980775
 20
1247.3156150417067
 10
520.2600015131943
 20
1247.1131047081246
 10
520.0767767057687
 20
1247.016949429155
 10
519.7040758429248
 20
1246.83353719569
 10
513.3039342112172
 20
1243.8877844964397
 10
512.9973540652634
 20
1243.7543682918006
 10
512.8430749782979
 20
1243.6910305795125
 10
512.5311878105417
 20
1243.5705413096912
 10
503.78480575049076
 20
1240.4000246491796
 10
503.57741557220197
 20
1240.3280505369694
 10
503.4733443630945
 20
1240.2935253793014
 10
503.26405744226645
 20
1240.2272687294503
 10
492.1907994527236
 20
1236.8881129330011
 10
492.06388918748314
 20
1236.8509843737502
 10
492.0003066942819
 20
1236.832951921338
 10
491.87280009769796
 20
1236.7979260285892
 10
476.68053904347624
 20
1232.75935953558
 10
476.58328663955103
 20
1232.7341596043466
 10
476.5345928421911
 20
1232.72186787782
 10
476.4370316515176
 20
1232.6978912083705
 10
461.13228385878256
 20
1229.038339428201
 10
461.01595003645883
 20
1229.0114387875979
 10
460.95770221672063
 20
1228.9984269122003
 10
460.84097985942276
 20
1228.9732655531702
 10
447.4294742057189
 20
1226.186774259791
 10
447.30298156700246
 20
1226.1615550269555
 10
447.23965829373
 20
1226.1494599979114
 10
447.1127755048205
 20
1226.1262833883043
 10
433.61749099225415
 20
1223.773472370208
 10
433.4999907647549
 20
1223.7538872501873
 10
433.4411873056753
 20
1223.7445352129043
 10
433.32340848656986
 20
1223.7267018128214
 10
417.75751930263385
 20
1221.4882192495113
 10
417.64997872646177
 20
1221.47349810119
 10
417.5961733648854
 20
1221.4665042430913
 10
417.4884429562311
 20
1221.4532435197832
 10
403.8335645632784
 20
1219.866402305614
 10
403.732676464787
 20
1219.8553261928992
 10
403.68220947204713
 20
1219.8501093891869
 10
403.5811889753202
 20
1219.8403140876985
 10
389.8735180467014
 20
1218.5988887363644
 10
389.7788347265282
 20
1218.5908804356275
 10
389.7314793094385
 20
1218.5871582324596
 10
389.6367075498821
 20
1218.580275094344
 10
371.8845501297394
 20
1217.3969006034997
 10
371.8027451659196
 20
1217.3918681802281
 10
371.76183623626366
 20
1217.389561856465
 10
371.6799840092751
 20
1217.3853677741458
 10
353.8811110907658
 20
1216.5647500148943
 10
353.8069207181005
 20
1216.5616744352233
 10
353.76982318960086
 20
1216.5603089780604
 10
353.6956074662364
 20
1216.557922140826
 10
337.8869902737309
 20
1216.1229359470933
 10
337.8037607289112
 20
1216.1210791492554
 10
337.76214788636963
 20
1216.1203673964244
 10
337.6789035259427
 20
1216.119376797495
 10
319.87143038905765
 20
1216.0001332129525
 10
319.7906906451151
 20
1216.0
 10
319.75032660508117
 20
1216.0001370912662
 10
319.6695896287085
 20
1216.0008187391138
 10
301.848139651756
 20
1216.2412247696693
 10
301.77691927753204
 20
1216.2425026634908
 10
301.7413161695043
 20
1216.243300053327
 10
301.67010999671453
 20
1216.245212034976
 10
281.82706793872535
 20
1216.866440602561
 10
281.7687441457868
 20
1216.8684795209151
 10
281.739588295304
 20
1216.869605257894
 10
281.68128092790647
 20
1216.8720695870143
 10
259.84799619504514
 20
1217.8746326724652
 10
259.74849422422824
 20
1217.8798228332234
 10
235.86874127293174
 20
1219.2745868496154
 10
235.77154636694206
 20
1219.2808576872537
 10
209.91337345044423
 20
1221.1073067410728
 10
209.84563843200698
 20
1221.1123801706947
 10
209.81192164518092
 20
1221.1150495841202
 10
209.74436835955544
 20
1221.1206859884337
 10
160.08051263804663
 20
1225.4764153624692
 10
160.00248951025645
 20
1225.4836435334564
 10
159.96350125725968
 20
1225.487448126042
 10
159.88555266863204
 20
1225.4954401506325
 10
108.35319991362576
 20
1231.0341779927128
 10
108.26449649171684
 20
1231.0442128371037
 10
108.22018105352402
 20
1231.0494767325006
 10
108.13159512769892
 20
1231.060500747494
 10
58.71426362259433
 20
1237.490390965913
 10
58.64178441520028
 20
1237.500158638725
 10
58.60557167542402
 20
1237.505207491507
 10
58.53318478986807
 20
1237.5156373398133
 10
34.82292216479016
 20
1241.0426265433316
 10
33.24949559671654
 20
1241.4432532821113
 10
31.789362861516224
 20
1242.1533133813577
 10
30.502667121976742
 20
1243.143559321918
  0
TEXT
  5
97
330
17
100
AcDbEntity
  8
TEXT
100
AcDbText
 10
172.98919543212054
 20
1286.926242970585
 30
0.0
 40
10.0
  1
РС2
 72
1
 11
172.98919543212054
 21
1286.926242970585
 31
0.0
100
AcDbText
 73
2
  0
LWPOLYLINE
  5
98
330
17
100
AcDbEntity
  8
CUT_OUT
100
AcDbPolyline
 90
222
 70
1
 10
162.16545758089342
 20
837.9208408587189
 10
162.1651876565675
 20
838.0455599789084
 10
162.32119011004303
 20
865.7505295160538
 10
162.32263347873734
 20
865.8639782389497
 10
162.32375707330104
 20
865.9206803703073
 10
162.3268092131785
 20
866.0340972142153
 10
163.26971589665894
 20
893.7596307127023
 10
163.27354741735684
 20
893.8554012331936
 10
163.27574956266147
 20
893.9032647091428
 10
163.28072820402178
 20
893.998982451888
 10
165.12325783505852
 20
925.7544650413981
 10
165.12700623694863
 20
925.8150872277137
 10
165.12899533135027
 20
925.8453885859433
 10
165.13320388039483
 20
925.9059805664808
 10
168.19222819266489
 20
967.6544866017466
 10
168.19851427665685
 20
967.7347353217756
 10
174.51075591394556
 20
1043.42439623633
 10
174.51419563016736
 20
1043.464427598804
 10
183.1444144582779
 20
1141.0297426987563
 10
183.1503214597041
 20
1141.0936042303981
 10
186.98060942370756
 20
1180.7687556754804
 10
187.2563876878158
 20
1182.2151668113065
 10
187.7925889114878
 20
1183.586533674159
 10
188.57104794761466
 20
1184.836397808323
 10
189.5653925644945
 20
1185.9224169645443
 10
190.74193687062763
 20
1186.8077995487997
 10
192.06082250788742
 20
1187.4625510288492
 10
193.47736895231566
 20
1187.8644900734503
 10
194.94358717775265
 20
1188.0
 10
212.29319553222254
 20
1188.0
 10
213.8452832247933
 20
1187.8479948900704
 10
215.33838960228164
 20
1187.3977559486425
 10
216.71577471492589
 20
1186.6663928306634
 10
217.92509616886025
 20
1185.6816982689193
 10
218.9203982039484
 20
1184.4810919146867
 10
219.6638580713761
 20
1183.11019834318
 10
220.12722334642422
 20
1181.6211132614085
 10
220.29288555669993
 20
1180.07042380476
 10
220.5852725874141
 20
1146.857142857143
 10
220.94746618864463
 20
1105.7142857142858
 10
221.30965978987516
 20
1064.5714285714284
 10
221.67185339110563
 20
1023.4285714285714
 10
222.03404699233613
 20
982.2857142857142
 10
222.3962405935667
 20
941.1428571428571
 10
222.75503918732417
 20
900.3856509529357
 10
222.7799084156127
 20
900.15
 10
208.14300353172104
 20
900.15
 10
207.5216831881614
 20
900.6267558677937
 10
206.79814032346894
 20
900.9264571353076
 10
206.0216831881614
 20
901.0286796564403
 10
205.24522605285384
 20
900.9264571353076
 10
204.5216831881614
 20
900.6267558677937
 10
203.90036284460174
 20
900.15
 10
203.4236069768081
 20
899.5286796564403
 10
203.1239057092942
 20
898.8051367917478
 10
203.0216831881614
 20
898.0286796564403
 10
203.1239057092942
 20
897.2522225211328
 10
203.4236069768081
 20
896.5286796564403
 10
203.90036284460174
 20
895.9073593128807
 10
203.90036284460174
 20
886.0926406871193
 10
203.4236069768081
 20
885.4713203435597
 10
203.1239057092942
 20
884.7477774788672
 10
203.0216831881614
 20
883.9713203435597
 10
203.1239057092942
 20
883.1948632082522
 10
203.4236069768081
 20
882.4713203435597
 10
203.90036284460174
 20
881.85
 10
204.5216831881614
 20
881.3732441322063
 10
205.24522605285384
 20
881.0735428646924
 10
206.0216831881614
 20
880.9713203435597
 10
206.79814032346894
 20
881.0735428646924
 10
207.5216831881614
 20
881.3732441322063
 10
208.14300353172104
 20
881.85
 10
302.77559717027736
 20
881.85
 10
303.6114447884205
 20
881.1487423786409
 10
304.5840558413805
 20
879.9430310456632
 10
305.3060584753494
 20
878.5724748536911
 10
305.75038083967604
 20
877.0884634941086
 10
305.9003628446018
 20
875.5466407166762
 10
305.9003628446018
 20
639.0
 10
305.7466450878276
 20
637.439277423871
 10
305.291399104692
 20
635.9385325410793
 10
304.5521197430221
 20
634.5554381358431
 10
303.5572170940941
 20
633.3431457505076
 10
302.3449247087585
 20
632.3482431015797
 10
300.96183030352245
 20
631.6089637399097
 10
299.4610854207308
 20
631.1537177567742
 10
297.9003628446018
 20
631.0
 10
265.4866001075414
 20
631.0
 10
265.4866001075414
 20
613.0
 10
235.4866001075414
 20
613.0
 10
235.4866001075414
 20
631.0
 10
231.81387855024758
 20
631.0
 10
231.55212588767336
 20
631.0042833001891
 10
231.4214947643703
 20
631.0085597203805
 10
231.16002239310336
 20
631.0214050342826
 10
229.26835425504373
 20
631.1453915145482
 10
228.74736975112452
 20
631.1967040094665
 10
228.489385204602
 20
631.2306683193552
 10
227.9728721662334
 20
631.3159449671199
 10
226.43473282775287
 20
631.6218999042968
 10
225.9249030430615
 20
631.7407755372102
 10
225.6735588221391
 20
631.8081230182286
 10
225.17259546053424
 20
631.9600885925802
 10
223.68755025026127
 20
632.464193513812
 10
223.19759851376563
 20
632.6485982896826
 10
222.95719518774905
 20
632.7481766077583
 10
222.48035312491794
 20
632.964230935587
 10
221.07381157813282
 20
633.6578604659071
 10
220.6121210998849
 20
633.904639167893
 10
220.38677203633483
 20
634.0347445103953
 10
219.942210172178
 20
634.3111908422504
 10
218.638238604713
 20
635.1824767880847
 10
218.2127090368002
 20
635.4874069641751
 10
218.00627002067245
 20
635.6458131926217
 10
217.60159493194152
 20
635.9779214551198
 10
216.42250465884536
 20
637.011955872369
 10
216.0404169301533
 20
637.3698200827085
 10
215.85642019024965
 20
637.5538168226122
 10
215.49855597991046
 20
637.9359045513038
 10
214.46452156266122
 20
639.1149948244002
 10
214.13241330016302
 20
639.5196699131311
 10
213.9740070717165
 20
639.7261089292588
 10
213.66907689562615
 20
640.1516384971716
 10
212.79779094979193
 20
641.4556100646365
 10
212.52134461793676
 20
641.9001719287933
 10
212.39123927543446
 20
642.1255209923435
 10
212.14446057344844
 20
642.5872114705915
 10
211.45083104312837
 20
643.9937530173765
 10
211.23477671529955
 20
644.4705950802079
 10
211.13519839722392
 20
644.7109984062245
 10
210.9507936213534
 20
645.2009501427199
 10
210.44668870012157
 20
646.6859953529928
 10
210.29472312576988
 20
647.186958714598
 10
210.2273756447515
 20
647.4383029355203
 10
210.1085000118382
 20
647.9481327202113
 10
209.80254507466125
 20
649.486272058692
 10
209.71726842689662
 20
650.0027850970605
 10
209.683304117008
 20
650.260769643583
 10
209.63199162208963
 20
650.7817541475024
 10
209.50800514182396
 20
652.673422285562
 10
209.49515982792187
 20
652.9348946568289
 10
209.49088340773048
 20
653.0655257801321
 10
209.4866001075414
 20
653.3272784427063
 10
209.4866001075414
 20
660.7388282736156
 10
209.47730045706894
 20
661.0113885064677
 10
209.393706346008
 20
662.2349778225248
 10
209.3196332290249
 20
662.7745615228107
 10
209.0981466010607
 20
663.8417431339583
 10
208.95137687367907
 20
664.3662391238362
 10
208.5868085703325
 20
665.3933821857966
 10
208.37006966599074
 20
665.8930437148525
 10
207.8691944888431
 20
666.861060746963
 10
207.58651408372276
 20
667.3266025655299
 10
206.9586398357592
 20
668.2175048308111
 10
206.61527100215983
 20
668.6402757384976
 10
205.87206552013131
 20
669.4375075297738
 10
205.4743891082131
 20
669.8096511414046
 10
204.5238574707318
 20
670.5846662353995
 10
204.306737868477
 20
670.74969545205
 10
202.08537657214208
 20
672.3215610377284
 10
201.73409397247784
 20
672.5848906606711
 10
201.5628438969237
 20
672.7207601469468
 10
201.22653581493222
 20
673.0029636712578
 10
199.06845387888143
 20
674.9171866264348
 10
198.76005712265473
 20
675.2056318013952
 10
198.61029484700308
 20
675.3533056227591
 10
198.31754749626015
 20
675.6576215225108
 10
194.97830162576324
 20
679.3174241300519
 10
194.7323100313654
 20
679.6000480198511
 10
194.61301815742598
 20
679.743766594918
 10
194.3805295647618
 20
680.0375984888316
 10
191.2374975212369
 20
684.2069924325858
 10
191.1006050876053
 20
684.3941706674234
 10
191.03359999743446
 20
684.4886327033267
 10
190.90219021403917
 20
684.6796999658553
 10
187.90331235112325
 20
689.1782879276485
 10
187.77541043685733
 20
689.376418938418
 10
187.7130012437671
 20
689.4762967770754
 10
187.5909948696797
 20
689.6781116471512
 10
184.91165907639544
 20
694.2613416918211
 10
184.76270843741085
 20
694.5276656553514
 10
184.69093019415172
 20
694.6619545559638
 10
184.55224456080458
 20
694.9337652281367
 10
182.27558229389302
 20
699.6142158077477
 10
182.14368779205927
 20
699.899482806224
 10
182.08068896242727
 20
700.0430787379338
 10
181.9601008763077
 20
700.3333061203763
 10
180.04196166483123
 20
705.2184975088874
 10
179.94624310026015
 20
705.4751044217251
 10
179.90066063439573
 20
705.60400022206
 10
179.8137817477328
 20
705.8637331817935
 10
177.5863164429051
 20
712.9223651630215
 10
177.52931784326583
 20
713.1110577723746
 10
177.50200583387283
 20
713.2056689687827
 10
177.44967341617712
 20
713.3957085942396
 10
175.01909796104513
 20
722.6668279570006
 10
174.9862877479454
 20
722.796380067715
 10
174.97043035219295
 20
722.8612659812385
 10
174.93978884667393
 20
722.9913480999712
 10
172.79982803925037
 20
732.4286323086036
 10
172.77322825623514
 20
732.5503233255862
 10
172.76040674192055
 20
732.6112502155378
 10
172.7357049196913
 20
732.7333406412441
 10
170.51461219807135
 20
744.1685654910266
 10
170.486337946044
 20
744.3221262766492
 10
170.4729577963195
 20
744.399000686284
 10
170.4476859495102
 20
744.5530840467338
 10
167.16047393492494
 20
765.8974718762846
 10
167.13677309752487
 20
766.0628220933677
 10
167.12579304021534
 20
766.1455667797829
 10
167.10554969754162
 20
766.3113757996218
 10
164.27176616722494
 20
791.725199675756
 10
164.25412070413066
 20
791.9010660598747
 10
164.24627516417587
 20
791.9890322654919
 10
164.2325193051866
 20
792.1652455560643
 10
162.7912685547481
 20
813.6898058530703
 10
162.78193263018062
 20
813.8547759549048
 10
162.7781189889579
 20
813.9372564022117
 10
162.77219220896094
 20
814.1023841323655
 10
162.1682926162566
 20
837.7338053286555
 10
162.16607842188338
 20
837.8585050846425
 10
162.16545758089342
 20
837.9208408587189
  0
TEXT
  5
99
330
17
100
AcDbEntity
  8
TEXT
100
AcDbText
 10
184.0114345067076
 20
900.5062034103647
 30
0.0
 40
10.0
  1
РС3
 72
1
 11
184.0114345067076
 21
900.5062034103647
 31
0.0
100
AcDbText
 73
2
  0
LWPOLYLINE
  5
9A
330
17
100
AcDbEntity
  8
CUT_OUT
100
AcDbPolyline
 90
222
 70
1
 10
165.70185483855514
 20
234.92084085871886
 10
165.70158491422922
 20
235.04555997890833
 10
165.85758736770475
 20
262.75052951605386
 10
165.85903073639906
 20
262.8639782389497
 10
165.86015433096276
 20
262.92068037030725
 10
165.86320647084023
 20
263.0340972142153
 10
166.80611315432066
 20
290.75963071270235
 10
166.80994467501856
 20
290.8554012331935
 10
166.8121468203232
 20
290.9032647091429
 10
166.8171254616835
 20
290.998982451888
 10
168.65965509272024
 20
322.7544650413981
 10
168.66340349461035
 20
322.81508722771366
 10
168.665392589012
 20
322.8453885859433
 10
168.66960113805655
 20
322.9059805664808
 10
171.7286254503266
 20
364.6544866017466
 10
171.73491153431857
 20
364.73473532177553
 10
178.04715317160728
 20
440.42439623633004
 10
178.05059288782908
 20
440.4644275988039
 10
186.68081171593963
 20
538.0297426987563
 10
186.6867187173658
 20
538.0936042303981
 10
190.51700668136925
 20
577.7687556754803
 10
190.7927849454775
 20
579.2151668113066
 10
191.32898616914952
 20
580.5865336741591
 10
192.10744520527638
 20
581.8363978083231
 10
193.1017898221562
 20
582.9224169645443
 10
194.27833412828937
 20
583.8077995487996
 10
195.59721976554914
 20
584.4625510288491
 10
197.01376620997738
 20
584.8644900734502
 10
198.47998443541434
 20
585.0
 10
215.82959278988426
 20
585.0
 10
217.381680482455
 20
584.8479948900704
 10
218.87478685994336
 20
584.3977559486426
 10
220.25217197258758
 20
583.6663928306633
 10
221.46149342652197
 20
582.6816982689193
 10
222.4567954616101
 20
581.4810919146865
 10
223.20025532903782
 20
580.1101983431798
 10
223.66362060408593
 20
578.6211132614085
 10
223.82928281436165
 20
577.0704238047599
 10
224.12166984507581
 20
543.8571428571429
 10
224.48386344630634
 20
502.7142857142858
 10
224.84605704753687
 20
461.57142857142856
 10
225.20825064876735
 20
420.42857142857144
 10
225.57044424999785
 20
379.2857142857143
 10
225.9326378512284
 20
338.14285714285717
 10
226.2914364449859
 20
297.3856509529358
 10
226.31630567327443
 20
297.15
 10
211.67940078938275
 20
297.15
 10
211.05808044582312
 20
297.62675586779363
 10
210.3345375811307
 20
297.92645713530754
 10
209.55808044582312
 20
298.0286796564403
 10
208.78162331051556
 20
297.92645713530754
 10
208.05808044582312
 20
297.62675586779363
 10
207.43676010226346
 20
297.15
 10
206.9600042344698
 20
296.5286796564403
 10
206.6603029669559
 20
295.8051367917479
 10
206.55808044582312
 20
295.0286796564403
 10
206.6603029669559
 20
294.25222252113275
 10
206.9600042344698
 20
293.5286796564403
 10
207.43676010226346
 20
292.90735931288066
 10
207.43676010226346
 20
283.09264068711934
 10
206.9600042344698
 20
282.4713203435597
 10
206.6603029669559
 20
281.74777747886725
 10
206.55808044582312
 20
280.9713203435597
 10
206.6603029669559
 20
280.1948632082521
 10
206.9600042344698
 20
279.4713203435597
 10
207.43676010226346
 20
278.85
 10
208.05808044582312
 20
278.37324413220637
 10
208.78162331051556
 20
278.07354286469246
 10
209.55808044582312
 20
277.9713203435597
 10
210.3345375811307
 20
278.07354286469246
 10
211.05808044582312
 20
278.37324413220637
 10
211.67940078938275
 20
278.85
 10
306.31199442793906
 20
278.85
 10
307.1478420460822
 20
278.1487423786409
 10
308.12045309904227
 20
276.94303104566325
 10
308.8424557330111
 20
275.5724748536912
 10
309.2867780973378
 20
274.0884634941086
 10
309.43676010226346
 20
272.5466407166762
 10
309.43676010226346
 20
36.0
 10
309.2830423454893
 20
34.439277423870976
 10
308.82779636235375
 20
32.93853254107928
 10
308.08851700068385
 20
31.555438135843183
 10
307.09361435175583
 20
30.343145750507617
 10
305.8813219664203
 20
29.34824310157964
 10
304.4982275611842
 20
28.608963739909704
 10
302.9974826783925
 20
28.153717756774157
 10
301.43676010226346
 20
28.0
 10
269.0229973652031
 20
28.0
 10
269.0229973652031
 20
10.0
 10
239.0229973652031
 20
10.0
 10
239.0229973652031
 20
28.0
 10
235.35027580790927
 20
28.0
 10
235.08852314533505
 20
28.004283300189073
 10
234.957892022032
 20
28.00855972038046
 10
234.69641965076508
 20
28.02140503428255
 10
232.80475151270545
 20
28.145391514548237
 10
232.28376700878624
 20
28.19670400946658
 10
232.02578246226375
 20
28.230668319355217
 10
231.5092694238951
 20
28.315944967119854
 10
229.9711300854146
 20
28.62189990429679
 10
229.46130030072322
 20
28.740775537210148
 10
229.20995607980083
 20
28.808123018228535
 10
228.70899271819596
 20
28.96008859258017
 10
227.223947507923
 20
29.464193513811978
 10
226.73399577142735
 20
29.64859828968261
 10
226.49359244541077
 20
29.74817660775829
 10
226.01675038257963
 20
29.964230935587004
 10
224.61020883579454
 20
30.65786046590707
 10
224.1485183575466
 20
30.904639167893045
 10
223.92316929399658
 20
31.034744510395285
 10
223.4786074298397
 20
31.311190842250454
 10
222.1746358623747
 20
32.1824767880847
 10
221.7491062944619
 20
32.487406964175065
 10
221.5426672783342
 20
32.645813192621695
 10
221.13799218960327
 20
32.97792145511987
 10
219.95890191650705
 20
34.01195587236893
 10
219.576814187815
 20
34.36982008270859
 10
219.39281744791137
 20
34.55381682261224
 10
219.03495323757215
 20
34.935904551303835
 10
218.0009188203229
 20
36.11499482440023
 10
217.66881055782474
 20
36.51966991313117
 10
217.51040432937822
 20
36.72610892925876
 10
217.20547415328787
 20
37.15163849717155
 10
216.33418820745362
 20
38.45561006463649
 10
216.05774187559848
 20
38.90017192879332
 10
215.92763653309618
 20
39.12552099234345
 10
215.6808578311102
 20
39.58721147059144
 10
214.9872283007901
 20
40.99375301737658
 10
214.77117397296126
 20
41.47059508020794
 10
214.67159565488564
 20
41.710998406224434
 10
214.4871908790151
 20
42.20095014271983
 10
213.9830859577833
 20
43.68599535299283
 10
213.8311203834316
 20
44.18695871459791
 10
213.76377290241322
 20
44.43830293552023
 10
213.64489726949992
 20
44.94813272021139
 10
213.33894233232297
 20
46.48627205869195
 10
213.25366568455837
 20
47.00278509706045
 10
213.2197013746697
 20
47.260769643582975
 10
213.16838887975135
 20
47.78175414750238
 10
213.04440239948568
 20
49.67342228556193
 10
213.0315570855836
 20
49.93489465682886
 10
213.0272806653922
 20
50.06552578013215
 10
213.0229973652031
 20
50.32727844270633
 10
213.0229973652031
 20
57.73882827361561
 10
213.01369771473065
 20
58.01138850646767
 10
212.93010360366972
 20
59.23497782252478
 10
212.85603048668662
 20
59.77456152281066
 10
212.6345438587224
 20
60.841743133958246
 10
212.48777413134079
 20
61.366239123836166
 10
212.1232058279942
 20
62.39338218579654
 10
211.90646692365246
 20
62.89304371485257
 10
211.40559174650485
 20
63.861060746962934
 10
211.12291134138448
 20
64.32660256552991
 10
210.49503709342093
 20
65.21750483081104
 10
210.15166825982155
 20
65.64027573849764
 10
209.40846277779303
 20
66.43750752977385
 10
209.01078636587482
 20
66.80965114140459
 10
208.06025472839352
 20
67.58466623539951
 10
207.8431351261387
 20
67.74969545204995
 10
205.62177382980383
 20
69.32156103772843
 10
205.27049123013956
 20
69.58489066067108
 10
205.09924115458543
 20
69.72076014694673
 10
204.76293307259397
 20
70.00296367125786
 10
202.60485113654318
 20
71.91718662643483
 10
202.29645438031645
 20
72.20563180139519
 10
202.1466921046648
 20
72.35330562275911
 10
201.85394475392187
 20
72.65762152251084
 10
198.51469888342496
 20
76.31742413005196
 10
198.2687072890271
 20
76.60004801985116
 10
198.14941541508767
 20
76.74376659491807
 10
197.9169268224235
 20
77.0375984888316
 10
194.7738947788986
 20
81.20699243258586
 10
194.63700234526704
 20
81.39417066742342
 10
194.56999725509618
 20
81.48863270332673
 10
194.43858747170088
 20
81.67969996585529
 10
191.439709608785
 20
86.17828792764848
 10
191.31180769451902
 20
86.37641893841803
 10
191.24939850142886
 20
86.47629677707542
 10
191.1273921273414
 20
86.67811164715127
 10
188.44805633405716
 20
91.26134169182117
 10
188.29910569507257
 20
91.5276656553514
 10
188.22732745181344
 20
91.66195455596382
 10
188.08864181846633
 20
91.93376522813676
 10
185.81197955155474
 20
96.61421580774767
 10
185.680085049721
 20
96.89948280622403
 10
185.617086220089
 20
97.04307873793384
 10
185.4964981339694
 20
97.33330612037625
 10
183.57835892249295
 20
102.21849750888735
 10
183.48264035792187
 20
102.4751044217251
 10
183.43705789205745
 20
102.60400022205995
 10
183.35017900539452
 20
102.86373318179349
 10
181.1227137005668
 20
109.92236516302151
 10
181.06571510092755
 20
110.11105777237464
 10
181.03840309153458
 20
110.20566896878262
 10
180.98607067383884
 20
110.39570859423966
 10
178.55549521870682
 20
119.66682795700063
 10
178.52268500560712
 20
119.79638006771492
 10
178.50682760985467
 20
119.86126598123852
 10
178.47618610433565
 20
119.99134809997119
 10
176.3362252969121
 20
129.4286323086036
 10
176.30962551389683
 20
129.5503233255862
 10
176.29680399958227
 20
129.61125021553775
 10
176.27210217735302
 20
129.7333406412441
 10
174.0510094557331
 20
141.16856549102658
 10
174.0227352037057
 20
141.32212627664924
 10
174.0093550539812
 20
141.39900068628404
 10
173.98408320717192
 20
141.55308404673377
 10
170.69687119258666
 20
162.89747187628458
 10
170.67317035518658
 20
163.06282209336763
 10
170.66219029787706
 20
163.14556677978288
 10
170.64194695520334
 20
163.31137579962189
 10
167.80816342488666
 20
188.72519967575604
 10
167.79051796179237
 20
188.9010660598746
 10
167.7826724218376
 20
188.98903226549186
 10
167.76891656284832
 20
189.16524555606426
 10
166.3276658124098
 20
210.68980585307037
 10
166.31832988784234
 20
210.85477595490477
 10
166.31451624661963
 20
210.93725640221174
 10
166.30858946662266
 20
211.10238413236547
 10
165.7046898739183
 20
234.73380532865554
 10
165.7024756795451
 20
234.8585050846425
 10
165.70185483855514
 20
234.92084085871886
  0
TEXT
  5
9B
330
17
100
AcDbEntity
  8
TEXT
100
AcDbText
 10
187.54783176436933
 20
297.5062034103647
 30
0.0
 40
10.0
  1
РС3
 72
1
 11
187.54783176436933
 21
297.5062034103647
 31
0.0
100
AcDbText
 73
2
  0
LWPOLYLINE
  5
9C
330
17
100
AcDbEntity
  8
CUT_OUT
100
AcDbPolyline
 90
179
 70
1
 10
24.158701524924822
 20
1374.38690374648
 10
22.720914396952253
 20
1375.105945531013
 10
21.455912260164098
 20
1376.0979246170775
 10
20.414774574830346
 20
1377.3227859290005
 10
19.639541389332862
 20
1378.7310708509433
 10
19.16151580707924
 20
1380.2659143139647
 10
19.0
 20
1381.8653409478968
 10
19.0
 20
1409.7406439202018
 10
10.0
 20
1409.7406439202018
 10
10.0
 20
1439.7406439202018
 10
19.0
 20
1439.7406439202018
 10
19.0
 20
1445.3785572500199
 10
19.153717756774142
 20
1446.9392798261488
 10
19.60896373990971
 20
1448.4400247089407
 10
20.348243101579612
 20
1449.8231191141767
 10
21.34314575050763
 20
1451.0354114995123
 10
22.55543813584319
 20
1452.0303141484403
 10
23.93853254107927
 20
1452.76959351011
 10
25.439277423870976
 20
1453.2248394932458
 10
27.0
 20
1453.3785572500199
 10
262.0
 20
1453.3785572500199
 10
263.560722576129
 20
1453.2248394932458
 10
265.06146745892073
 20
1452.76959351011
 10
266.4445618641568
 20
1452.0303141484403
 10
267.65685424949237
 20
1451.0354114995123
 10
268.65175689842033
 20
1449.8231191141767
 10
269.3910362600903
 20
1448.4400247089407
 10
269.84628224322586
 20
1446.9392798261488
 10
270.0
 20
1445.3785572500199
 10
270.0
 20
1441.7058356927262
 10
269.99571669981094
 20
1441.444083030152
 10
269.99144027961955
 20
1441.3134519068487
 10
269.97859496571743
 20
1441.051979535582
 10
269.8936453259896
 20
1439.7558984913549
 10
269.84233283107125
 20
1439.2349139874354
 10
269.8083685211827
 20
1438.9769294409132
 10
269.723091873418
 20
1438.4604164025448
 10
269.53357952668995
 20
1437.5076734975935
 10
269.4147038937767
 20
1436.9978437129023
 10
269.3473564127583
 20
1436.7464994919799
 10
269.1953908384066
 20
1436.2455361303748
 10
268.8831418925282
 20
1435.3256803980476
 10
268.69873711665775
 20
1434.8357286615524
 10
268.5991587985821
 20
1434.5953253355358
 10
268.38310447075327
 20
1434.1184832727045
 10
267.9534615917604
 20
1433.2472536996136
 10
267.70668288977436
 20
1432.7855632213655
 10
267.576577547272
 20
1432.5602141578154
 10
267.30013121541685
 20
1432.1156522936585
 10
266.7604457120884
 20
1431.3079558593502
 10
266.45551553599785
 20
1430.8824262914372
 10
266.29710930755107
 20
1430.6759872753094
 10
265.9650010450531
 20
1430.2713121865786
 10
265.3245070859802
 20
1429.5409688009795
 10
264.9666428756408
 20
1429.1588810722876
 10
264.7826461357368
 20
1428.9748843323837
 10
264.40055840704497
 20
1428.617020122044
 10
263.6702150214458
 20
1427.9765261629714
 10
263.2655399327152
 20
1427.6444179004734
 10
263.05910091658734
 20
1427.4860116720265
 10
262.6335713486742
 20
1427.181081495936
 10
261.8258749143657
 20
1426.6413959926074
 10
261.38131305020875
 20
1426.3649496607522
 10
261.1559639866587
 20
1426.23484431825
 10
260.6942735084109
 20
1425.988065616264
 10
259.82304393531996
 20
1425.558422737271
 10
259.3462018724885
 20
1425.3423684094423
 10
259.1057985464721
 20
1425.2427900913667
 10
258.6158468099768
 20
1425.0583853154963
 10
257.6959910776495
 20
1424.7461363696177
 10
257.19502771604436
 20
1424.594170795266
 10
256.9436834951222
 20
1424.5268233142476
 10
256.43385371043104
 20
1424.4079476813345
 10
255.48111080547963
 20
1424.2184353346063
 10
254.96459776711094
 20
1424.1331586868416
 10
254.70661322058865
 20
1424.0991943769532
 10
254.18562871666947
 20
1424.0478818820347
 10
252.88954767244257
 20
1423.962932242307
 10
252.6280753011754
 20
1423.9500869284047
 10
252.4974441778722
 20
1423.9458105082135
 10
252.23569151529824
 20
1423.9415272080244
 10
239.5811843373702
 20
1423.9415272080244
 10
239.31666797494896
 20
1423.9327691077553
 10
238.12902381601597
 20
1423.8540373284939
 10
237.60505196688592
 20
1423.7842599785056
 10
236.5680658337725
 20
1423.5755779216195
 10
236.0578901499373
 20
1423.4372444517894
 10
235.05752559323253
 20
1423.0935015321172
 10
234.57007507422185
 20
1422.889033028997
 10
233.62384028755335
 20
1422.4162453709155
 10
233.1676462013068
 20
1422.149220404057
 10
232.29210200917686
 20
1421.5556626488526
 10
231.875148579386
 20
1421.230754639352
 10
231.08561859271452
 20
1420.526815123994
 10
230.7152032604305
 20
1420.1497105511485
 10
230.02550568557913
 20
1419.3477094935558
 10
229.70811139076307
 20
1418.9250083711654
 10
229.13031718586774
 20
1418.0389822440534
 10
228.87149890418578
 20
1417.5780826082114
 10
228.4157205155026
 20
1416.6235384753684
 10
228.22000803617965
 20
1416.1325069054164
 10
227.85342103409982
 20
1415.000115051322
 10
227.7436964095425
 20
1414.6185122332633
 10
227.74273639672856
 20
1414.6187882717006
 10
227.6666175991665
 20
1414.3499625252416
 10
226.83062654154566
 20
1411.6942964098494
 10
226.6806401069661
 20
1411.261508715091
 10
226.59984875918914
 20
1411.0483161125908
 10
226.42533903122415
 20
1410.6248217511907
 10
225.26988198976647
 20
1408.0339560554767
 10
225.0845766795621
 20
1407.646726583777
 10
224.98715005025977
 20
1407.456424151552
 10
224.7813400836344
 20
1407.079692178685
 10
223.41094997495864
 20
1404.7237432171785
 10
223.11786484691396
 20
1404.2575680199272
 10
222.96439410911557
 20
1404.0311474031625
 10
222.63993470791624
 20
1403.5862380823041
 10
219.96595270843375
 20
1400.1728487294267
 10
219.50622076503467
 20
1399.6365606847178
 10
219.2673318902136
 20
1399.3815916901556
 10
218.76208599055417
 20
1398.8879471747834
 10
215.51464126449787
 20
1395.9839621674873
 10
215.1064500701155
 20
1395.6426784862822
 10
214.89806863590093
 20
1395.4799145831082
 10
214.46809458678302
 20
1395.1665187961023
 10
212.07446655465594
 20
1393.540936548806
 10
211.80536023945314
 20
1393.365962909541
 10
211.6693807501676
 20
1393.2813807624984
 10
211.39347188762412
 20
1393.11734331894
 10
208.66654571924232
 20
1391.5692768937367
 10
208.35527859650193
 20
1391.4015565116015
 10
208.19825284028738
 20
1391.3213720859528
 10
207.8798787637014
 20
1391.16756930431
 10
199.59555328397707
 20
1387.3889742893857
 10
199.2753916395597
 20
1387.2512878311086
 10
199.11427089445993
 20
1387.1861183663887
 10
198.78841629577
 20
1387.062506797912
 10
188.21810535828658
 20
1383.3139825775877
 10
187.95629369454838
 20
1383.2261934980527
 10
187.82486549414517
 20
1383.184632959021
 10
187.56018000931397
 20
1383.1059318543635
 10
174.59072796279818
 20
1379.4920347585396
 10
174.43975110938405
 20
1379.451550768006
 10
174.36410826251287
 20
1379.4320574541068
 10
174.2123692567299
 20
1379.3945309583933
 10
157.05159694262912
 20
1375.327993178684
 10
156.9108751853298
 20
1375.2959845036848
 10
156.84040436167473
 20
1375.2806223329608
 10
156.69912810368803
 20
1375.2511573167214
 10
141.51689208934658
 20
1372.2273372563175
 10
141.24513116821524
 20
1372.1780723019474
 10
141.10906913360105
 20
1372.1558255723896
 10
140.83576960832275
 20
1372.1159707926754
 10
125.60165029530381
 20
1370.1623339087387
 10
125.3648093051049
 20
1370.1355410091119
 10
125.24634716622697
 20
1370.1239243511138
 10
125.00881311758795
 20
1370.1041989906353
 10
105.54374577164992
 20
1368.7794180300998
 10
105.38167863755152
 20
1368.7700387551793
 10
105.30064756734168
 20
1368.7661737270798
 10
105.13842348384293
 20
1368.760084927036
 10
83.53071445954126
 20
1368.1685484872305
 10
83.37524770232534
 20
1368.1658040583832
 10
83.29754504351655
 20
1368.1651876565675
 10
83.14205431261627
 20
1368.1654653131932
 10
71.56703596922529
 20
1368.2986303937787
 10
71.37841305247798
 20
1368.3030254280168
 10
71.28420617422438
 20
1368.3063323942488
 10
71.09573936160362
 20
1368.3151744295812
 10
59.64848509103837
 20
1368.9875982925914
 10
59.40973256986803
 20
1369.0052111047812
 10
59.29064826847525
 20
1369.0157896587762
 10
59.052529657811135
 20
1369.040538492562
 10
47.646667522230814
 20
1370.398798374918
 10
47.475010017005104
 20
1370.4211261345984
 10
47.38936224589992
 20
1370.4332101548978
 10
47.21822802417557
 20
1370.4592467850146
 10
25.711217306986043
 20
1373.9698334170164
 10
24.158701524924822
 20
1374.38690374648
  0
TEXT
  5
9D
330
17
100
AcDbEntity
  8
TEXT
100
AcDbText
 10
118.25629694760332
 20
1410.8365689318907
 30
0.0
 40
10.0
  1
РН3
 72
1
 11
118.25629694760332
 21
1410.8365689318907
 31
0.0
100
AcDbText
 73
2
  0
LWPOLYLINE
  5
9E
330
17
100
AcDbEntity
  8
CUT_OUT
100
AcDbPolyline
 90
183
 70
1
 10
294.2118297943774
 20
1375.6160313021737
 10
292.76095214009615
 20
1376.3298621315985
 10
291.4832528657836
 20
1377.320864142268
 10
290.4309299880051
 20
1378.5485517986504
 10
289.6469741917449
 20
1379.962770215388
 10
289.16341252629564
 20
1381.5057441414276
 10
289.0
 20
1383.1144382599534
 10
289.0
 20
1408.2355355891004
 10
280.0
 20
1408.2355355891004
 10
280.0
 20
1438.2355355891004
 10
289.0
 20
1438.2355355891004
 10
289.0
 20
1444.0806697111789
 10
289.15371775677414
 20
1445.6413922873078
 10
289.6089637399097
 20
1447.1421371700994
 10
290.3482431015796
 20
1448.5252315753355
 10
291.34314575050763
 20
1449.737523960671
 10
292.5554381358432
 20
1450.732426609599
 10
293.93853254107927
 20
1451.471705971269
 10
295.439277423871
 20
1451.9269519544046
 10
297.0
 20
1452.0806697111789
 10
532.0
 20
1452.0806697111789
 10
533.560722576129
 20
1451.9269519544046
 10
535.0614674589208
 20
1451.471705971269
 10
536.4445618641569
 20
1450.732426609599
 10
537.6568542494924
 20
1449.737523960671
 10
538.6517568984203
 20
1448.5252315753355
 10
539.3910362600902
 20
1447.1421371700994
 10
539.8462822432259
 20
1445.6413922873078
 10
540.0
 20
1444.0806697111789
 10
540.0
 20
1440.407948153885
 10
539.9957166998109
 20
1440.146195491311
 10
539.9914402796196
 20
1440.015564368008
 10
539.9785949657174
 20
1439.7540919967407
 10
539.9213463787819
 20
1438.8806473467841
 10
539.8700338838635
 20
1438.3596628428652
 10
539.8360695739749
 20
1438.101678296343
 10
539.7507929262104
 20
1437.5851652579743
 10
539.6439097651655
 20
1437.0478273214105
 10
539.5250341322521
 20
1436.5379975367193
 10
539.4576866512338
 20
1436.286653315797
 10
539.305721076882
 20
1435.7856899541919
 10
539.1296156413018
 20
1435.2669000701885
 10
538.9452108654314
 20
1434.7769483336929
 10
538.8456325473556
 20
1434.5365450076765
 10
538.6295782195268
 20
1434.059702944845
 10
538.3872637222396
 20
1433.5683377521525
 10
538.1404850202537
 20
1433.1066472739046
 10
538.0103796777513
 20
1432.8812982103545
 10
537.733933345896
 20
1432.4367363461974
 10
537.4295558551324
 20
1431.981203239495
 10
537.124625679042
 20
1431.555673671582
 10
536.9662194505954
 20
1431.3492346554544
 10
536.6341111880972
 20
1430.9445595667235
 10
536.2728786871139
 20
1430.5326528437647
 10
535.9150144767744
 20
1430.1505651150728
 10
535.7310177368704
 20
1429.966568375169
 10
535.3489300081786
 20
1429.6087041648293
 10
534.9370232852198
 20
1429.247471663846
 10
534.532348196489
 20
1428.915363401348
 10
534.3259091803611
 20
1428.7569571729011
 10
533.9003796124482
 20
1428.4520269968107
 10
533.4448465057457
 20
1428.1476495060472
 10
533.0002846415889
 20
1427.871203174192
 10
532.7749355780388
 20
1427.7410978316898
 10
532.313245099791
 20
1427.4943191297039
 10
531.8218799070984
 20
1427.2520046324164
 10
531.3450378442669
 20
1427.0359503045877
 10
531.1046345182504
 20
1426.9363719865119
 10
530.614682781755
 20
1426.7519672106414
 10
530.0958928977514
 20
1426.5758617750612
 10
529.5949295361463
 20
1426.4238962007096
 10
529.343585315224
 20
1426.356548719691
 10
528.8337555305328
 20
1426.2376730867777
 10
528.2964175939692
 20
1426.130789925733
 10
527.7799045556006
 20
1426.0455132779684
 10
527.5219200090783
 20
1426.0115489680798
 10
527.0009355051588
 20
1425.9602364731613
 10
526.1274908552025
 20
1425.902987886226
 10
525.8660184839355
 20
1425.8901425723238
 10
525.7353873606324
 20
1425.8858661521324
 10
525.4736346980583
 20
1425.8815828519432
 10
509.71947784996274
 20
1425.8815828519432
 10
509.461812571244
 20
1425.8732731365014
 10
508.30479522329335
 20
1425.7985677274417
 10
507.7941423968845
 20
1425.732348785088
 10
506.7829662461314
 20
1425.534277191798
 10
506.28506913919637
 20
1425.4029389705838
 10
505.307760706299
 20
1425.0764764292292
 10
504.83088763682
 20
1424.8821999946015
 10
503.90367657400367
 20
1424.4327678986056
 10
503.4557467247206
 20
1424.1787794981478
 10
502.5940307432734
 20
1423.6138413322935
 10
502.18248265194
 20
1423.304358819111
 10
501.40057182043944
 20
1422.633296217335
 10
501.03223985190067
 20
1422.2734590063658
 10
500.34311895635636
 20
1421.5074159558492
 10
500.02411980781
 20
1421.1031996762754
 10
499.4392327200843
 20
1420.2548974550523
 10
499.17486384427593
 20
1419.8130147161387
 10
498.7039234796628
 20
1418.8965406374552
 10
498.4985751128467
 20
1418.4243295557433
 10
498.105676021175
 20
1417.3335040218628
 10
498.02617810026067
 20
1417.0882683641823
 10
497.8991182980067
 20
1416.6484616261862
 10
497.7650555466593
 20
1416.2282287965663
 10
496.8219009613083
 20
1413.5310038852874
 10
496.66924670967126
 20
1413.129396904712
 10
496.5878791044817
 20
1412.9315036115872
 10
496.4138844173459
 20
1412.5386711584486
 10
495.17695343624206
 20
1409.9370292221386
 10
494.98387193725273
 20
1409.5573316804027
 10
494.8827070908737
 20
1409.3708504841734
 10
494.6696889832724
 20
1409.0019684240433
 10
493.2540823877422
 20
1406.6946837706646
 10
492.94129221609876
 20
1406.223137198749
 10
492.7777898302342
 20
1405.9946262877124
 10
492.4324494965271
 20
1405.5463697597315
 10
489.5655019859
 20
1402.0854628401505
 10
489.1911221905265
 20
1401.664605927968
 10
488.99796672291995
 20
1401.4622873096525
 10
488.5949009245684
 20
1401.0688171914537
 10
486.55202490242186
 20
1399.2104447506142
 10
486.2602140300553
 20
1398.957585856516
 10
486.1117771259121
 20
1398.8351080064654
 10
485.8081053629714
 20
1398.5966239064749
 10
483.45507106139905
 20
1396.8388289581412
 10
483.098417007942
 20
1396.5872574023003
 10
482.91746897469295
 20
1396.466877744039
 10
482.5476259391628
 20
1396.2351311353784
 10
476.6498054264449
 20
1392.7598755354354
 10
476.24950055747394
 20
1392.5391569771575
 10
476.0471895536397
 20
1392.4350308843566
 10
475.63493141472713
 20
1392.2375368414318
 10
467.40980339647797
 20
1388.5823898404944
 10
467.1074370097782
 20
1388.455378108459
 10
466.9553362298652
 20
1388.3951240430533
 10
466.6480181757471
 20
1388.2806119236345
 10
455.96002090253324
 20
1384.5457307683453
 10
455.7576656363199
 20
1384.4780328773402
 10
455.6561449978026
 20
1384.4455680576518
 10
455.452056206874
 20
1384.383291066493
 10
440.54686258057956
 20
1380.0514488458766
 10
440.3798006040953
 20
1380.0048540683827
 10
440.29607612900037
 20
1379.9824779855483
 10
440.12804330868994
 20
1379.939515809452
 10
425.01730563533465
 20
1376.2500775095966
 10
424.8343333756368
 20
1376.207672577398
 10
424.7426741828287
 20
1376.187560770671
 10
424.5587568479044
 20
1376.1494630016018
 10
409.34000013165405
 20
1373.1828335673472
 10
409.1315211473914
 20
1373.145052738432
 10
409.02714142000343
 20
1373.1275612245279
 10
408.8177350390302
 20
1373.0953145887304
 10
391.47908213262946
 20
1370.6599113527304
 10
391.29470387462254
 20
1370.6361944786695
 10
391.2024517381643
 20
1370.6254159583605
 10
391.0175721832993
 20
1370.605989627417
 10
371.60182865714296
 20
1368.7936800213145
 10
371.3821912843063
 20
1368.776225835463
 10
371.2723774951821
 20
1368.7690193652797
 10
371.0523427578235
 20
1368.7576203080393
 10
355.63517664912104
 20
1368.1716649884538
 10
355.39644832933726
 20
1368.1661581363535
 10
355.2772026496227
 20
1368.1651876565675
 10
355.0384163231092
 20
1368.166808260438
 10
343.60064626584557
 20
1368.41518159087
 10
343.3907105422472
 20
1368.422498944287
 10
343.28589922893957
 20
1368.4275306483942
 10
343.07622800008886
 20
1368.440357475594
 10
331.656724967712
 20
1369.2895770542052
 10
331.42733786489464
 20
1369.3099593618379
 10
331.3129333914129
 20
1369.3217867719304
 10
331.0842280015345
 20
1369.3487631698322
 10
317.7682500565037
 20
1371.114093981471
 10
317.54588879424233
 20
1371.146757528519
 10
317.435068944467
 20
1371.164629995576
 10
317.2137129713217
 20
1371.20352692879
 10
298.0748555515791
 20
1374.8444821247072
 10
298.0070301992614
 20
1374.8567805406722
 10
297.66739626304076
 20
1374.9153464863523
 10
297.5993690495302
 20
1374.9264742747278
 10
295.7766129329195
 20
1375.20853387879
 10
294.2118297943774
 20
1375.6160313021737
  0
TEXT
  5
9F
330
17
100
AcDbEntity
  8
TEXT
100
AcDbText
 10
387.897709463397
 20
1411.2378501902936
 30
0.0
 40
10.0
  1
РН2
 72
1
 11
387.897709463397
 21
1411.2378501902936
 31
0.0
100
AcDbText
 73
2
  0
LWPOLYLINE
  5
A0
330
17
100
AcDbEntity
  8
CUT_OUT
100
AcDbPolyline
 90
183
 70
1
 10
564.2118297943774
 20
1375.6160313021737
 10
562.7609521400962
 20
1376.3298621315985
 10
561.4832528657836
 20
1377.320864142268
 10
560.4309299880051
 20
1378.5485517986504
 10
559.6469741917449
 20
1379.962770215388
 10
559.1634125262956
 20
1381.5057441414276
 10
559.0
 20
1383.1144382599534
 10
559.0
 20
1408.2355355891004
 10
550.0
 20
1408.2355355891004
 10
550.0
 20
1438.2355355891004
 10
559.0
 20
1438.2355355891004
 10
559.0
 20
1444.0806697111789
 10
559.1537177567741
 20
1445.6413922873078
 10
559.6089637399098
 20
1447.1421371700994
 10
560.3482431015796
 20
1448.5252315753355
 10
561.3431457505076
 20
1449.737523960671
 10
562.5554381358431
 20
1450.732426609599
 10
563.9385325410792
 20
1451.471705971269
 10
565.439277423871
 20
1451.9269519544046
 10
567.0
 20
1452.0806697111789
 10
802.0
 20
1452.0806697111789
 10
803.560722576129
 20
1451.9269519544046
 10
805.0614674589208
 20
1451.471705971269
 10
806.4445618641569
 20
1450.732426609599
 10
807.6568542494924
 20
1449.737523960671
 10
808.6517568984203
 20
1448.5252315753355
 10
809.3910362600902
 20
1447.1421371700994
 10
809.8462822432259
 20
1445.6413922873078
 10
810.0
 20
1444.0806697111789
 10
810.0
 20
1440.407948153885
 10
809.9957166998109
 20
1440.146195491311
 10
809.9914402796196
 20
1440.015564368008
 10
809.9785949657174
 20
1439.7540919967407
 10
809.9213463787819
 20
1438.8806473467841
 10
809.8700338838635
 20
1438.3596628428652
 10
809.8360695739749
 20
1438.101678296343
 10
809.7507929262104
 20
1437.5851652579743
 10
809.6439097651655
 20
1437.0478273214105
 10
809.5250341322521
 20
1436.5379975367193
 10
809.4576866512338
 20
1436.286653315797
 10
809.305721076882
 20
1435.7856899541919
 10
809.1296156413018
 20
1435.2669000701885
 10
808.9452108654314
 20
1434.7769483336929
 10
808.8456325473556
 20
1434.5365450076765
 10
808.6295782195268
 20
1434.059702944845
 10
808.3872637222396
 20
1433.5683377521525
 10
808.1404850202537
 20
1433.1066472739046
 10
808.0103796777513
 20
1432.8812982103545
 10
807.733933345896
 20
1432.4367363461974
 10
807.4295558551324
 20
1431.981203239495
 10
807.124625679042
 20
1431.555673671582
 10
806.9662194505954
 20
1431.3492346554544
 10
806.6341111880972
 20
1430.9445595667235
 10
806.2728786871139
 20
1430.5326528437647
 10
805.9150144767744
 20
1430.1505651150728
 10
805.7310177368704
 20
1429.966568375169
 10
805.3489300081786
 20
1429.6087041648293
 10
804.9370232852198
 20
1429.247471663846
 10
804.532348196489
 20
1428.915363401348
 10
804.3259091803611
 20
1428.7569571729011
 10
803.9003796124482
 20
1428.4520269968107
 10
803.4448465057457
 20
1428.1476495060472
 10
803.0002846415889
 20
1427.871203174192
 10
802.7749355780388
 20
1427.7410978316898
 10
802.313245099791
 20
1427.4943191297039
 10
801.8218799070984
 20
1427.2520046324164
 10
801.3450378442669
 20
1427.0359503045877
 10
801.1046345182504
 20
1426.9363719865119
 10
800.614682781755
 20
1426.7519672106414
 10
800.0958928977514
 20
1426.5758617750612
 10
799.5949295361463
 20
1426.4238962007096
 10
799.343585315224
 20
1426.356548719691
 10
798.8337555305328
 20
1426.2376730867777
 10
798.2964175939692
 20
1426.130789925733
 10
797.7799045556006
 20
1426.0455132779684
 10
797.5219200090783
 20
1426.0115489680798
 10
797.0009355051588
 20
1425.9602364731613
 10
796.1274908552025
 20
1425.902987886226
 10
795.8660184839355
 20
1425.8901425723238
 10
795.7353873606324
 20
1425.8858661521324
 10
795.4736346980583
 20
1425.8815828519432
 10
779.7194778499627
 20
1425.8815828519432
 10
779.4618125712441
 20
1425.8732731365014
 10
778.3047952232934
 20
1425.7985677274417
 10
777.7941423968846
 20
1425.732348785088
 10
776.7829662461314
 20
1425.534277191798
 10
776.2850691391964
 20
1425.4029389705838
 10
775.307760706299
 20
1425.0764764292292
 10
774.8308876368201
 20
1424.8821999946015
 10
773.9036765740036
 20
1424.4327678986056
 10
773.4557467247206
 20
1424.1787794981478
 10
772.5940307432734
 20
1423.6138413322935
 10
772.1824826519401
 20
1423.304358819111
 10
771.4005718204394
 20
1422.633296217335
 10
771.0322398519006
 20
1422.2734590063658
 10
770.3431189563564
 20
1421.5074159558492
 10
770.0241198078099
 20
1421.1031996762754
 10
769.4392327200843
 20
1420.2548974550523
 10
769.1748638442759
 20
1419.8130147161387
 10
768.7039234796628
 20
1418.8965406374552
 10
768.4985751128468
 20
1418.4243295557433
 10
768.105676021175
 20
1417.3335040218628
 10
768.0261781002607
 20
1417.0882683641823
 10
767.8991182980067
 20
1416.6484616261862
 10
767.7650555466594
 20
1416.2282287965663
 10
766.8219009613083
 20
1413.5310038852874
 10
766.6692467096713
 20
1413.129396904712
 10
766.5878791044818
 20
1412.9315036115872
 10
766.4138844173459
 20
1412.5386711584486
 10
765.176953436242
 20
1409.9370292221386
 10
764.9838719372527
 20
1409.5573316804027
 10
764.8827070908737
 20
1409.3708504841734
 10
764.6696889832724
 20
1409.0019684240433
 10
763.2540823877422
 20
1406.6946837706646
 10
762.9412922160988
 20
1406.223137198749
 10
762.7777898302343
 20
1405.9946262877124
 10
762.4324494965272
 20
1405.5463697597315
 10
759.5655019859
 20
1402.0854628401505
 10
759.1911221905266
 20
1401.664605927968
 10
758.99796672292
 20
1401.4622873096525
 10
758.5949009245684
 20
1401.0688171914537
 10
756.5520249024219
 20
1399.2104447506142
 10
756.2602140300553
 20
1398.957585856516
 10
756.1117771259121
 20
1398.8351080064654
 10
755.8081053629714
 20
1398.5966239064749
 10
753.455071061399
 20
1396.8388289581412
 10
753.098417007942
 20
1396.5872574023003
 10
752.917468974693
 20
1396.466877744039
 10
752.5476259391628
 20
1396.2351311353784
 10
746.6498054264449
 20
1392.7598755354354
 10
746.249500557474
 20
1392.5391569771575
 10
746.0471895536398
 20
1392.4350308843566
 10
745.6349314147271
 20
1392.2375368414318
 10
737.409803396478
 20
1388.5823898404944
 10
737.1074370097782
 20
1388.455378108459
 10
736.9553362298652
 20
1388.3951240430533
 10
736.6480181757471
 20
1388.2806119236345
 10
725.9600209025332
 20
1384.5457307683453
 10
725.7576656363199
 20
1384.4780328773402
 10
725.6561449978026
 20
1384.4455680576518
 10
725.452056206874
 20
1384.383291066493
 10
710.5468625805795
 20
1380.0514488458766
 10
710.3798006040953
 20
1380.0048540683827
 10
710.2960761290003
 20
1379.9824779855483
 10
710.1280433086899
 20
1379.939515809452
 10
695.0173056353347
 20
1376.2500775095966
 10
694.8343333756368
 20
1376.207672577398
 10
694.7426741828288
 20
1376.187560770671
 10
694.5587568479044
 20
1376.1494630016018
 10
679.340000131654
 20
1373.1828335673472
 10
679.1315211473914
 20
1373.145052738432
 10
679.0271414200034
 20
1373.1275612245279
 10
678.8177350390301
 20
1373.0953145887304
 10
661.4790821326294
 20
1370.6599113527304
 10
661.2947038746225
 20
1370.6361944786695
 10
661.2024517381643
 20
1370.6254159583605
 10
661.0175721832993
 20
1370.605989627417
 10
641.601828657143
 20
1368.7936800213145
 10
641.3821912843064
 20
1368.776225835463
 10
641.2723774951821
 20
1368.7690193652797
 10
641.0523427578235
 20
1368.7576203080393
 10
625.635176649121
 20
1368.1716649884538
 10
625.3964483293373
 20
1368.1661581363535
 10
625.2772026496227
 20
1368.1651876565675
 10
625.0384163231092
 20
1368.166808260438
 10
613.6006462658456
 20
1368.41518159087
 10
613.3907105422472
 20
1368.422498944287
 10
613.2858992289396
 20
1368.4275306483942
 10
613.0762280000888
 20
1368.440357475594
 10
601.6567249677121
 20
1369.2895770542052
 10
601.4273378648946
 20
1369.3099593618379
 10
601.3129333914129
 20
1369.3217867719304
 10
601.0842280015345
 20
1369.3487631698322
 10
587.7682500565037
 20
1371.114093981471
 10
587.5458887942423
 20
1371.146757528519
 10
587.435068944467
 20
1371.164629995576
 10
587.2137129713217
 20
1371.20352692879
 10
568.074855551579
 20
1374.8444821247072
 10
568.0070301992614
 20
1374.8567805406722
 10
567.6673962630407
 20
1374.9153464863523
 10
567.5993690495302
 20
1374.9264742747278
 10
565.7766129329195
 20
1375.20853387879
 10
564.2118297943774
 20
1375.6160313021737
  0
TEXT
  5
A1
330
17
100
AcDbEntity
  8
TEXT
100
AcDbText
 10
657.897709463397
 20
1411.2378501902936
 30
0.0
 40
10.0
  1
РН2
 72
1
 11
657.897709463397
 21
1411.2378501902936
 31
0.0
100
AcDbText
 73
2
  0
LWPOLYLINE
  5
A2
330
17
100
AcDbEntity
  8
CUT_OUT
100
AcDbPolyline
 90
109
 70
1
 10
318.9097413428811
 20
799.6697917246065
 10
319.6251233672871
 20
801.1168099756323
 10
320.61642466738374
 20
802.3907624834094
 10
321.84328637382947
 20
803.4397827944149
 10
323.2557592418228
 20
804.2211621240799
 10
324.7963372356887
 20
804.7030881603769
 10
326.4022987732415
 20
804.8659402391047
 10
337.31056165509244
 20
804.8659402391047
 10
337.31056165509244
 20
813.8659402391047
 10
367.31056165509244
 20
813.8659402391047
 10
367.31056165509244
 20
804.8659402391047
 10
372.6846590913446
 20
804.8659402391047
 10
374.2453816674736
 20
804.7122224823305
 10
375.7461265502653
 20
804.2569764991949
 10
377.1292209555014
 20
803.517697137525
 10
378.34151334083697
 20
802.522794488597
 10
379.33641598976493
 20
801.3105021032615
 10
380.0756953514349
 20
799.9274076980254
 10
380.53094133457046
 20
798.4266628152337
 10
380.68465909134454
 20
796.8659402391047
 10
380.68465909134454
 20
602.9954466928947
 10
380.524289085334
 20
601.4016457149362
 10
380.04960870200915
 20
599.8717442050813
 10
379.27964906535186
 20
598.4670797419129
 10
378.2452797832517
 20
597.2439688375314
 10
376.9879713077056
 20
596.2514490677084
 10
375.5581322806587
 20
595.5293130328071
 10
374.0130885254514
 20
595.1065129728918
 10
372.41478471116096
 20
595.0
 10
370.82730083586364
 20
595.2140444856575
 10
369.31428309921506
 20
595.7400648510013
 10
364.1621070669993
 20
598.1334289474212
 10
363.82950083419763
 20
598.2974129974937
 10
363.66562844667607
 20
598.3829837912868
 10
363.3409788623946
 20
598.5622052247227
 10
360.69897843693224
 20
600.1016631901776
 10
360.39244225405025
 20
600.2896304637483
 10
360.2417449055008
 20
600.3867642108312
 10
359.94396483412896
 20
600.5883160811854
 10
357.5364447596526
 20
602.2979732929741
 10
357.1859110392866
 20
602.5616469418882
 10
357.0150338059539
 20
602.6976742526225
 10
356.67947849101023
 20
602.980163744212
 10
354.56238349446244
 20
604.8640089541211
 10
354.2373320708139
 20
605.1699164686399
 10
354.0798140569184
 20
605.3266706398305
 10
353.7723300823709
 20
605.6502312073475
 10
351.8289227833828
 20
607.8130009491155
 10
351.5779904077898
 20
608.1061831251325
 10
351.4564864707942
 20
608.2552789984444
 10
351.2199844975722
 20
608.5602210619852
 10
349.3771062169464
 20
611.0585803891111
 10
349.201879748548
 20
611.3057996635393
 10
349.11679146444567
 20
611.4307993004152
 10
348.9510530933185
 20
611.6844772009364
 10
347.22336999548475
 20
614.4415163208279
 10
347.0794569815038
 20
614.6803230432729
 10
347.00970884475225
 20
614.800760678478
 10
346.87420492969045
 20
615.0444372987786
 10
344.35947066959216
 20
619.758252615019
 10
344.2514308919348
 20
619.9681720578449
 10
344.19902846877426
 20
620.0737908068311
 10
344.09723006417045
 20
620.2868068880382
 10
341.844579100819
 20
625.1850442146567
 10
341.74471494870807
 20
625.411344352486
 10
341.6966014424682
 20
625.5251030827293
 10
341.6037812545249
 20
625.7543824188429
 10
335.32310483281606
 20
641.9855800051148
 10
335.24284147777183
 20
642.2022515651222
 10
335.2043227270655
 20
642.3110306716572
 10
335.1303502163746
 20
642.529929823645
 10
329.7881430247387
 20
659.1249789986146
 10
329.7220393827164
 20
659.3407069088261
 10
329.6905464080006
 20
659.4489077445537
 10
329.63055274752
 20
659.6664140282214
 10
325.73668850261475
 20
674.6021659523087
 10
325.6818974974797
 20
674.8254206419842
 10
325.65613790882253
 20
674.9373028885875
 10
325.60778407916564
 20
675.162039663201
 10
322.18389220363304
 20
692.2669762812022
 10
322.1440241372022
 20
692.4812774828268
 10
322.1255705931427
 20
692.5885800552611
 10
322.0915559061598
 20
692.8038879018625
 10
319.5911573306933
 20
710.1621393111117
 10
319.5702016073742
 20
710.318532400092
 10
319.56050061601326
 20
710.3967865899597
 10
319.5426334929718
 20
710.5535625655899
 10
317.1041351159209
 20
734.0036688996314
 10
317.0867273726018
 20
734.1928921044073
 10
317.07915363948604
 20
734.2875269281462
 10
317.06624506695107
 20
734.4771102067027
 10
315.9721824229643
 20
753.9560130576002
 10
315.96322620959273
 20
754.1635771240042
 10
315.96009897490717
 20
754.2673122612676
 10
315.9565356934666
 20
754.4750389048295
 10
315.9003628446018
 20
767.9559093409723
 10
315.90225397205705
 20
768.1663466770678
 10
315.90458116429573
 20
768.2714437044604
 10
315.91200686614667
 20
768.4817584869603
 10
316.5628678725143
 20
781.9059794024633
 10
316.57803886711116
 20
782.144911044385
 10
316.58739957536994
 20
782.2641030104323
 10
316.609713387512
 20
782.5024736931435
 10
317.84851002122923
 20
793.8961163303533
 10
317.8713750308283
 20
794.0853956908924
 10
317.8839246379918
 20
794.1798186208232
 10
317.91129372585283
 20
794.3684993512115
 10
318.49940395660553
 20
798.1086202128662
 10
318.9097413428811
 20
799.6697917246065
  0
TEXT
  5
A3
330
17
100
AcDbEntity
  8
TEXT
100
AcDbText
 10
350.7630078548856
 20
701.483013606487
 30
0.0
 40
10.0
  1
РН1
 72
1
 11
350.7630078548856
 21
701.483013606487
 31
0.0
100
AcDbText
 73
2
  0
LWPOLYLINE
  5
A4
330
17
100
AcDbEntity
  8
CUT_OUT
100
AcDbPolyline
 90
109
 70
1
 10
318.9097413428811
 20
1028.5357319637112
 10
319.6251233672871
 20
1029.982750214737
 10
320.61642466738374
 20
1031.256702722514
 10
321.84328637382947
 20
1032.3057230335196
 10
323.2557592418228
 20
1033.0871023631846
 10
324.7963372356887
 20
1033.5690283994816
 10
326.4022987732415
 20
1033.7318804782094
 10
337.31056165509244
 20
1033.7318804782094
 10
337.31056165509244
 20
1042.7318804782094
 10
367.31056165509244
 20
1042.7318804782094
 10
367.31056165509244
 20
1033.7318804782094
 10
372.6846590913446
 20
1033.7318804782094
 10
374.2453816674736
 20
1033.5781627214353
 10
375.7461265502653
 20
1033.1229167382996
 10
377.1292209555014
 20
1032.3836373766298
 10
378.34151334083697
 20
1031.3887347277018
 10
379.33641598976493
 20
1030.1764423423663
 10
380.0756953514349
 20
1028.7933479371302
 10
380.53094133457046
 20
1027.2926030543383
 10
380.68465909134454
 20
1025.7318804782094
 10
380.68465909134454
 20
831.8613869319994
 10
380.524289085334
 20
830.2675859540409
 10
380.04960870200915
 20
828.737684444186
 10
379.27964906535186
 20
827.3330199810176
 10
378.2452797832517
 20
826.1099090766361
 10
376.9879713077056
 20
825.1173893068132
 10
375.5581322806587
 20
824.3952532719118
 10
374.0130885254514
 20
823.9724532119965
 10
372.41478471116096
 20
823.8659402391047
 10
370.82730083586364
 20
824.0799847247622
 10
369.31428309921506
 20
824.606005090106
 10
364.1621070669993
 20
826.9993691865259
 10
363.82950083419763
 20
827.1633532365984
 10
363.66562844667607
 20
827.2489240303915
 10
363.3409788623946
 20
827.4281454638274
 10
360.69897843693224
 20
828.9676034292823
 10
360.39244225405025
 20
829.155570702853
 10
360.2417449055008
 20
829.2527044499359
 10
359.94396483412896
 20
829.4542563202901
 10
357.5364447596526
 20
831.1639135320788
 10
357.1859110392866
 20
831.4275871809929
 10
357.0150338059539
 20
831.5636144917272
 10
356.67947849101023
 20
831.8461039833167
 10
354.56238349446244
 20
833.7299491932258
 10
354.2373320708139
 20
834.0358567077446
 10
354.0798140569184
 20
834.1926108789352
 10
353.7723300823709
 20
834.5161714464522
 10
351.8289227833828
 20
836.6789411882202
 10
351.5779904077898
 20
836.9721233642372
 10
351.4564864707942
 20
837.1212192375491
 10
351.2199844975722
 20
837.4261613010899
 10
349.3771062169464
 20
839.9245206282158
 10
349.201879748548
 20
840.171739902644
 10
349.11679146444567
 20
840.2967395395199
 10
348.9510530933185
 20
840.5504174400411
 10
347.22336999548475
 20
843.3074565599326
 10
347.0794569815038
 20
843.5462632823776
 10
347.00970884475225
 20
843.6667009175827
 10
346.87420492969045
 20
843.9103775378833
 10
344.35947066959216
 20
848.6241928541237
 10
344.2514308919348
 20
848.8341122969496
 10
344.19902846877426
 20
848.9397310459358
 10
344.09723006417045
 20
849.1527471271429
 10
341.844579100819
 20
854.0509844537614
 10
341.74471494870807
 20
854.2772845915907
 10
341.6966014424682
 20
854.391043321834
 10
341.6037812545249
 20
854.6203226579476
 10
335.32310483281606
 20
870.8515202442195
 10
335.24284147777183
 20
871.0681918042269
 10
335.2043227270655
 20
871.176970910762
 10
335.1303502163746
 20
871.3958700627497
 10
329.7881430247387
 20
887.9909192377193
 10
329.7220393827164
 20
888.2066471479308
 10
329.6905464080006
 20
888.3148479836584
 10
329.63055274752
 20
888.5323542673261
 10
325.73668850261475
 20
903.4681061914134
 10
325.6818974974797
 20
903.6913608810889
 10
325.65613790882253
 20
903.8032431276922
 10
325.60778407916564
 20
904.0279799023057
 10
322.18389220363304
 20
921.1329165203069
 10
322.1440241372022
 20
921.3472177219315
 10
322.1255705931427
 20
921.4545202943658
 10
322.0915559061598
 20
921.6698281409672
 10
319.5911573306933
 20
939.0280795502164
 10
319.5702016073742
 20
939.1844726391967
 10
319.56050061601326
 20
939.2627268290644
 10
319.5426334929718
 20
939.4195028046946
 10
317.1041351159209
 20
962.8696091387361
 10
317.0867273726018
 20
963.058832343512
 10
317.07915363948604
 20
963.1534671672509
 10
317.06624506695107
 20
963.3430504458074
 10
315.9721824229643
 20
982.8219532967049
 10
315.96322620959273
 20
983.0295173631089
 10
315.96009897490717
 20
983.1332525003724
 10
315.9565356934666
 20
983.3409791439342
 10
315.9003628446018
 20
996.821849580077
 10
315.90225397205705
 20
997.0322869161726
 10
315.90458116429573
 20
997.137383943565
 10
315.91200686614667
 20
997.347698726065
 10
316.5628678725143
 20
1010.771919641568
 10
316.57803886711116
 20
1011.0108512834897
 10
316.58739957536994
 20
1011.130043249537
 10
316.609713387512
 20
1011.3684139322482
 10
317.84851002122923
 20
1022.762056569458
 10
317.8713750308283
 20
1022.9513359299971
 10
317.8839246379918
 20
1023.0457588599279
 10
317.91129372585283
 20
1023.2344395903162
 10
318.49940395660553
 20
1026.974560451971
 10
318.9097413428811
 20
1028.5357319637112
  0
TEXT
  5
A5
330
17
100
AcDbEntity
  8
TEXT
100
AcDbText
 10
350.7630078548856
 20
930.3489538455917
 30
0.0
 40
10.0
  1
РН1
 72
1
 11
350.7630078548856
 21
930.3489538455917
 31
0.0
100
AcDbText
 73
2
  0
ENDSEC
  0
SECTION
  2
OBJECTS
  0
DICTIONARY
  5
A
330
0
100
AcDbDictionary
281
1
  3
ACAD_COLOR
350
B
  3
ACAD_GROUP
350
C
  3
ACAD_LAYOUT
350
D
  3
ACAD_MATERIAL
350
E
  3
ACAD_MLEADERSTYLE
350
F
  3
ACAD_MLINESTYLE
350
10
  3
ACAD_PLOTSETTINGS
350
11
  3
ACAD_PLOTSTYLENAME
350
12
  3
ACAD_SCALELIST
350
14
  3
ACAD_TABLESTYLE
350
15
  3
ACAD_VISUALSTYLE
350
16
  3
EZDXF_META
350
2D
  0
DICTIONARY
  5
B
330
A
100
AcDbDictionary
281
1
  0
DICTIONARY
  5
C
330
A
100
AcDbDictionary
281
1
  0
DICTIONARY
  5
D
330
A
100
AcDbDictionary
281
1
  3
Model
350
1A
  3
Layout1
350
1E
  0
DICTIONARY
  5
E
330
A
100
AcDbDictionary
281
1
  3
ByBlock
350
1F
  3
ByLayer
350
20
  3
Global
350
21
  0
DICTIONARY
  5
F
330
A
100
AcDbDictionary
281
1
  3
Standard
350
2C
  0
DICTIONARY
  5
10
330
A
100
AcDbDictionary
281
1
  3
Standard
350
22
  0
DICTIONARY
  5
11
330
A
100
AcDbDictionary
281
1
  0
ACDBDICTIONARYWDFLT
  5
12
330
A
100
AcDbDictionary
281
1
  3
Normal
350
13
100
AcDbDictionaryWithDefault
340
13
  0
ACDBPLACEHOLDER
  5
13
330
12
  0
DICTIONARY
  5
14
330
A
100
AcDbDictionary
281
1
  0
DICTIONARY
  5
15
330
A
100
AcDbDictionary
281
1
  0
DICTIONARY
  5
16
330
A
100
AcDbDictionary
281
1
  3
2dWireframe
350
5A
  3
Basic
350
5B
  3
Brighten
350
5C
  3
ColorChange
350
5D
  3
Conceptual
350
5E
  3
Dim
350
5F
  3
EdgeColorOff
350
60
  3
Facepattern
350
61
  3
Flat
350
62
  3
FlatWithEdges
350
63
  3
Gouraud
350
64
  3
GouraudWithEdges
350
65
  3
Hidden
350
66
  3
JitterOff
350
67
  3
Linepattern
350
68
  3
Modeling
350
69
  3
OverhangOff
350
6A
  3
Realistic
350
6B
  3
Shaded
350
6C
  3
Shaded with edges
350
6D
  3
Shades of Gray
350
6E
  3
Sketchy
350
6F
  3
Thicken
350
70
  3
Wireframe
350
71
  3
X-Ray
350
72
  0
LAYOUT
  5
1A
330
D
100
AcDbPlotSettings
  1

  4
A3
  6

 40
7.5
 41
20.0
 42
7.5
 43
20.0
 44
420.0
 45
297.0
 46
0.0
 47
0.0
 48
0.0
 49
0.0
140
0.0
141
0.0
142
1.0
143
1.0
 70
1024
 72
1
 73
0
 74
5
  7

 75
16
 76
0
 77
2
 78
300
147
1.0
148
0.0
149
0.0
100
AcDbLayout
  1
Model
 70
1
 71
0
 10
0.0
 20
0.0
 11
420.0
 21
297.0
 12
0.0
 22
0.0
 32
0.0
 14
1e+20
 24
1e+20
 34
1e+20
 15
-1e+20
 25
-1e+20
 35
-1e+20
146
0.0
 13
0.0
 23
0.0
 33
0.0
 16
1.0
 26
0.0
 36
0.0
 17
0.0
 27
1.0
 37
0.0
 76
1
330
17
  0
LAYOUT
  5
1E
330
D
100
AcDbPlotSettings
  1

  4
A3
  6

 40
7.5
 41
20.0
 42
7.5
 43
20.0
 44
420.0
 45
297.0
 46
0.0
 47
0.0
 48
0.0
 49
0.0
140
0.0
141
0.0
142
1.0
143
1.0
 70
0
 72
1
 73
0
 74
5
  7

 75
16
 76
0
 77
2
 78
300
147
1.0
148
0.0
149
0.0
100
AcDbLayout
  1
Layout1
 70
1
 71
1
 10
0.0
 20
0.0
 11
420.0
 21
297.0
 12
0.0
 22
0.0
 32
0.0
 14
1e+20
 24
1e+20
 34
1e+20
 15
-1e+20
 25
-1e+20
 35
-1e+20
146
0.0
 13
0.0
 23
0.0
 33
0.0
 16
1.0
 26
0.0
 36
0.0
 17
0.0
 27
1.0
 37
0.0
 76
1
330
1B
  0
MATERIAL
  5
1F
102
{ACAD_REACTORS
330
E
102
}
330
E
100
AcDbMaterial
  1
ByBlock
  2

 70
0
 40
1.0
 71
1
 41
1.0
 91
-1023410177
 42
1.0
 72
1
  3

 73
1
 74
1
 75
1
 44
0.5
 73
0
 45
1.0
 46
1.0
 77
1
  4

 78
1
 79
1
170
1
 48
1.0
171
1
  6

172
1
173
1
174
1
140
1.0
141
1.0
175
1
  7

176
1
177
1
178
1
143
1.0
179
1
  8

270
1
271
1
272
1
145
1.0
146
1.0
273
1
  9

274
1
275
1
276
1
 42
1.0
 72
1
  3

 73
1
 74
1
 75
1
 94
63
  0
MATERIAL
  5
20
102
{ACAD_REACTORS
330
E
102
}
330
E
100
AcDbMaterial
  1
ByLayer
  2

 70
0
 40
1.0
 71
1
 41
1.0
 91
-1023410177
 42
1.0
 72
1
  3

 73
1
 74
1
 75
1
 44
0.5
 73
0
 45
1.0
 46
1.0
 77
1
  4

 78
1
 79
1
170
1
 48
1.0
171
1
  6

172
1
173
1
174
1
140
1.0
141
1.0
175
1
  7

176
1
177
1
178
1
143
1.0
179
1
  8

270
1
271
1
272
1
145
1.0
146
1.0
273
1
  9

274
1
275
1
276
1
 42
1.0
 72
1
  3

 73
1
 74
1
 75
1
 94
63
  0
MATERIAL
  5
21
102
{ACAD_REACTORS
330
E
102
}
330
E
100
AcDbMaterial
  1
Global
  2

 70
0
 40
1.0
 71
1
 41
1.0
 91
-1023410177
 42
1.0
 72
1
  3

 73
1
 74
1
 75
1
 44
0.5
 73
0
 45
1.0
 46
1.0
 77
1
  4

 78
1
 79
1
170
1
 48
1.0
171
1
  6

172
1
173
1
174
1
140
1.0
141
1.0
175
1
  7

176
1
177
1
178
1
143
1.0
179
1
  8

270
1
271
1
272
1
145
1.0
146
1.0
273
1
  9

274
1
275
1
276
1
 42
1.0
 72
1
  3

 73
1
 74
1
 75
1
 94
63
  0
MLINESTYLE
  5
22
102
{ACAD_REACTORS
330
10
102
}
330
10
100
AcDbMlineStyle
  2
Standard
 70
0
  3

 62
256
 51
90.0
 52
90.0
 71
2
 49
0.5
 62
256
  6
BYLAYER
 49
-0.5
 62
256
  6
BYLAYER
  0
MLEADERSTYLE
  5
2C
102
{ACAD_REACTORS
330
F
102
}
330
F
100
AcDbMLeaderStyle
179
2
170
2
171
1
172
0
 90
2
 40
0.0
 41
0.0
173
1
 91
-1056964608
 92
-2
290
1
 42
2.0
291
1
 43
8.0
  3
Standard
 44
4.0
300

342
29
174
1
175
1
176
0
178
1
 93
-1056964608
 45
4.0
292
0
297
0
 46
4.0
 94
-1056964608
 47
1.0
 49
1.0
140
1.0
294
1
141
0.0
177
0
142
1.0
295
0
296
0
143
3.75
271
0
272
9
273
9
  0
DICTIONARY
  5
2D
330
A
100
AcDbDictionary
280
1
281
1
  3
CREATED_BY_EZDXF
350
2E
  3
WRITTEN_BY_EZDXF
350
A8
  0
DICTIONARYVAR
  5
2E
330
2D
100
DictionaryVariables
280
0
  1
1.4.4 @ 2026-09-30T16:32:40.258944+00:00
  0
VISUALSTYLE
  5
5A
102
{ACAD_REACTORS
330
16
102
}
330
16
100
AcDbVisualStyle
  2
2dWireframe
 70
4
 90
0
 40
0.6
 62
7
290
0
291
0
  0
VISUALSTYLE
  5
5B
102
{ACAD_REACTORS
330
16
102
}
330
16
100
AcDbVisualStyle
  2
Basic
 70
7
 90
1
 40
0.6
 62
7
290
0
291
1
  0
VISUALSTYLE
  5
5C
102
{ACAD_REACTORS
330
16
102
}
330
16
100
AcDbVisualStyle
  2
Brighten
 70
12
 90
2
 40
0.6
 62
7
290
0
291
1
  0
VISUALSTYLE
  5
5D
102
{ACAD_REACTORS
330
16
102
}
330
16
100
AcDbVisualStyle
  2
ColorChange
 70
16
 90
2
 40
0.6
 62
8
290
0
291
1
  0
VISUALSTYLE
  5
5E
102
{ACAD_REACTORS
330
16
102
}
330
16
100
AcDbVisualStyle
  2
Conceptual
 70
9
 90
3
 40
0.6
 62
7
290
0
291
0
  0
VISUALSTYLE
  5
5F
102
{ACAD_REACTORS
330
16
102
}
330
16
100
AcDbVisualStyle
  2
Dim
 70
11
 90
2
 40
0.6
 62
7
290
0
291
1
  0
VISUALSTYLE
  5
60
102
{ACAD_REACTORS
330
16
102
}
330
16
100
AcDbVisualStyle
  2
EdgeColorOff
 70
22
 90
2
 40
0.6
 62
7
290
0
291
1
  0
VISUALSTYLE
  5
61
102
{ACAD_REACTORS
330
16
102
}
330
16
100
AcDbVisualStyle
  2
Facepattern
 70
15
 90
2
 40
0.6
 62
7
290
0
291
1
  0
VISUALSTYLE
  5
62
102
{ACAD_REACTORS
330
16
102
}
330
16
100
AcDbVisualStyle
  2
Flat
 70
0
 90
2
 40
0.6
 62
7
290
0
291
1
  0
VISUALSTYLE
  5
63
102
{ACAD_REACTORS
330
16
102
}
330
16
100
AcDbVisualStyle
  2
FlatWithEdges
 70
1
 90
2
 40
0.6
 62
7
290
0
291
1
  0
VISUALSTYLE
  5
64
102
{ACAD_REACTORS
330
16
102
}
330
16
100
AcDbVisualStyle
  2
Gouraud
 70
2
 90
2
 40
0.6
 62
7
290
0
291
1
  0
VISUALSTYLE
  5
65
102
{ACAD_REACTORS
330
16
102
}
330
16
100
AcDbVisualStyle
  2
GouraudWithEdges
 70
3
 90
2
 40
0.6
 62
7
290
0
291
1
  0
VISUALSTYLE
  5
66
102
{ACAD_REACTORS
330
16
102
}
330
16
100
AcDbVisualStyle
  2
Hidden
 70
6
 90
1
 40
0.6
 62
7
290
0
291
0
  0
VISUALSTYLE
  5
67
102
{ACAD_REACTORS
330
16
102
}
330
16
100
AcDbVisualStyle
  2
JitterOff
 70
20
 90
2
 40
0.6
 62
7
290
0
291
1
  0
VISUALSTYLE
  5
68
102
{ACAD_REACTORS
330
16
102
}
330
16
100
AcDbVisualStyle
  2
Linepattern
 70
14
 90
2
 40
0.6
 62
7
290
0
291
1
  0
VISUALSTYLE
  5
69
102
{ACAD_REACTORS
330
16
102
}
330
16
100
AcDbVisualStyle
  2
Modeling
 70
10
 90
2
 40
0.6
 62
7
290
0
291
0
  0
VISUALSTYLE
  5
6A
102
{ACAD_REACTORS
330
16
102
}
330
16
100
AcDbVisualStyle
  2
OverhangOff
 70
21
 90
2
 40
0.6
 62
7
290
0
291
1
  0
VISUALSTYLE
  5
6B
102
{ACAD_REACTORS
330
16
102
}
330
16
100
AcDbVisualStyle
  2
Realistic
 70
8
 90
2
 40
0.6
 62
7
290
0
291
0
  0
VISUALSTYLE
  5
6C
102
{ACAD_REACTORS
330
16
102
}
330
16
100
AcDbVisualStyle
  2
Shaded
 70
27
 90
2
 40
0.6
 62
7
290
0
291
0
  0
VISUALSTYLE
  5
6D
102
{ACAD_REACTORS
330
16
102
}
330
16
100
AcDbVisualStyle
  2
Shaded with edges
 70
26
 90
2
 40
0.6
 62
7
290
0
291
0
  0
VISUALSTYLE
  5
6E
102
{ACAD_REACTORS
330
16
102
}
330
16
100
AcDbVisualStyle
  2
Shades of Gray
 70
23
 90
2
 40
0.6
 62
7
290
0
291
0
  0
VISUALSTYLE
  5
6F
102
{ACAD_REACTORS
330
16
102
}
330
16
100
AcDbVisualStyle
  2
Sketchy
 70
24
 90
1
 40
0.6
 62
7
290
0
291
0
  0
VISUALSTYLE
  5
70
102
{ACAD_REACTORS
330
16
102
}
330
16
100
AcDbVisualStyle
  2
Thicken
 70
13
 90
2
 40
0.6
 62
7
290
0
291
1
  0
VISUALSTYLE
  5
71
102
{ACAD_REACTORS
330
16
102
}
330
16
100
AcDbVisualStyle
  2
Wireframe
 70
5
 90
0
 40
0.6
 62
7
290
0
291
0
  0
VISUALSTYLE
  5
72
102
{ACAD_REACTORS
330
16
102
}
330
16
100
AcDbVisualStyle
  2
X-Ray
 70
25
 90
2
 40
0.5
 62
7
290
0
291
0
  0
DICTIONARYVAR
  5
A8
330
2D
100
DictionaryVariables
280
0
  1
1.4.4 @ 2026-09-30T16:32:40.278050+00:00
  0
ENDSEC
  0
EOF
