  0
SECTION
  2
HEADER
  9
$ACADVER
  1
AC1024
  9
$ACADMAINTVER
 70
6
  9
$DWGCODEPAGE
  3
ANSI_1252
  9
$LASTSAVEDBY
  1
ezdxf
  9
$INSBASE
 10
0.0
 20
0.0
 30
0.0
  9
$EXTMIN
 10
1e+20
 20
1e+20
 30
1e+20
  9
$EXTMAX
 10
-1e+20
 20
-1e+20
 30
-1e+20
  9
$LIMMIN
 10
0.0
 20
0.0
  9
$LIMMAX
 10
420.0
 20
297.0
  9
$ORTHOMODE
 70
0
  9
$REGENMODE
 70
1
  9
$FILLMODE
 70
1
  9
$QTEXTMODE
 70
0
  9
$MIRRTEXT
 70
1
  9
$LTSCALE
 40
1.0
  9
$ATTMODE
 70
1
  9
$TEXTSIZE
 40
2.5
  9
$TRACEWID
 40
1.0
  9
$TEXTSTYLE
  7
OpenSans
  9
$CLAYER
  8
0
  9
$CELTYPE
  6
ByLayer
  9
$CECOLOR
 62
256
  9
$CELTSCALE
 40
1.0
  9
$DISPSILH
 70
0
  9
$DIMSCALE
 40
1.0
  9
$DIMASZ
 40
0.175
  9
$DIMEXO
 40
0.125
  9
$DIMDLI
 40
3.75
  9
$DIMRND
 40
0.0
  9
$DIMDLE
 40
0.0
  9
$DIMEXE
 40
0.375
  9
$DIMTP
 40
0.0
  9
$DIMTM
 40
0.0
  9
$DIMTXT
 40
0.25
  9
$DIMCEN
 40
2.5
  9
$DIMTSZ
 40
0.0
  9
$DIMTOL
 70
0
  9
$DIMLIM
 70
0
  9
$DIMTIH
 70
0
  9
$DIMTOH
 70
0
  9
$DIMSE1
 70
0
  9
$DIMSE2
 70
0
  9
$DIMTAD
 70
1
  9
$DIMZIN
 70
12
  9
$DIMBLK
  1
ARCHTICK
  9
$DIMASO
 70
1
  9
$DIMSHO
 70
1
  9
$DIMPOST
  1

  9
$DIMAPOST
  1

  9
$DIMALT
 70
0
  9
$DIMALTD
 70
3
  9
$DIMALTF
 40
0.03937007874
  9
$DIMLFAC
 40
100.0
  9
$DIMTOFL
 70
1
  9
$DIMTVP
 40
0.0
  9
$DIMTIX
 70
0
  9
$DIMSOXD
 70
0
  9
$DIMSAH
 70
0
  9
$DIMBLK1
  1

  9
$DIMBLK2
  1

  9
$DIMSTYLE
  2
EZDXF
  9
$DIMCLRD
 70
0
  9
$DIMCLRE
 70
0
  9
$DIMCLRT
 70
0
  9
$DIMTFAC
 40
0.5
  9
$DIMGAP
 40
0.1
  9
$DIMJUST
 70
0
  9
$DIMSD1
 70
0
  9
$DIMSD2
 70
0
  9
$DIMTOLJ
 70
0
  9
$DIMTZIN
 70
8
  9
$DIMALTZ
 70
0
  9
$DIMALTTZ
 70
0
  9
$DIMUPT
 70
1
  9
$DIMDEC
 70
2
  9
$DIMTDEC
 70
2
  9
$DIMALTU
 70
2
  9
$DIMALTTD
 70
3
  9
$DIMTXSTY
  7
OpenSansCondensed-Light
  9
$DIMAUNIT
 70
0
  9
$DIMADEC
 70
2
  9
$DIMALTRND
 40
0.0
  9
$DIMAZIN
 70
3
  9
$DIMDSEP
 70
46
  9
$DIMATFIT
 70
3
  9
$DIMFRAC
 70
0
  9
$DIMLDRBLK
  1

  9
$DIMLUNIT
 70
2
  9
$DIMLWD
 70
-2
  9
$DIMLWE
 70
-2
  9
$DIMTMOVE
 70
2
  9
$DIMFXL
 40
1.0
  9
$DIMFXLON
 70
0
  9
$DIMJOGANG
 40
0.785398163397
  9
$DIMTFILL
 70
0
  9
$DIMTFILLCLR
 70
0
  9
$DIMARCSYM
 70
0
  9
$DIMLTYPE
  6

  9
$DIMLTEX1
  6

  9
$DIMLTEX2
  6

  9
$DIMTXTDIRECTION
 70
0
  9
$LUNITS
 70
2
  9
$LUPREC
 70
4
  9
$SKETCHINC
 40
1.0
  9
$FILLETRAD
 40
10.0
  9
$AUNITS
 70
0
  9
$AUPREC
 70
2
  9
$MENU
  1
.
  9
$ELEVATION
 40
0.0
  9
$PELEVATION
 40
0.0
  9
$THICKNESS
 40
0.0
  9
$LIMCHECK
 70
0
  9
$CHAMFERA
 40
0.0
  9
$CHAMFERB
 40
0.0
  9
$CHAMFERC
 40
0.0
  9
$CHAMFERD
 40
0.0
  9
$SKPOLY
 70
0
  9
$TDCREATE
 40
2461314.633946759
  9
$TDUCREATE
 40
2458532.153996898
  9
$TDUPDATE
 40
2461314.633946759
  9
$TDUUPDATE
 40
2458532.1544311
  9
$TDINDWG
 40
0.0
  9
$TDUSRTIMER
 40
0.0
  9
$USRTIMER
 70
1
  9
$ANGBASE
 50
0.0
  9
$ANGDIR
 70
0
  9
$PDMODE
 70
0
  9
$PDSIZE
 40
0.0
  9
$PLINEWID
 40
0.0
  9
$SPLFRAME
 70
0
  9
$SPLINETYPE
 70
6
  9
$SPLINESEGS
 70
8
  9
$HANDSEED
  5
9E
  9
$SURFTAB1
 70
6
  9
$SURFTAB2
 70
6
  9
$SURFTYPE
 70
6
  9
$SURFU
 70
6
  9
$SURFV
 70
6
  9
$UCSBASE
  2

  9
$UCSNAME
  2

  9
$UCSORG
 10
0.0
 20
0.0
 30
0.0
  9
$UCSXDIR
 10
1.0
 20
0.0
 30
0.0
  9
$UCSYDIR
 10
0.0
 20
1.0
 30
0.0
  9
$UCSORTHOREF
  2

  9
$UCSORTHOVIEW
 70
0
  9
$UCSORGTOP
 10
0.0
 20
0.0
 30
0.0
  9
$UCSORGBOTTOM
 10
0.0
 20
0.0
 30
0.0
  9
$UCSORGLEFT
 10
0.0
 20
0.0
 30
0.0
  9
$UCSORGRIGHT
 10
0.0
 20
0.0
 30
0.0
  9
$UCSORGFRONT
 10
0.0
 20
0.0
 30
0.0
  9
$UCSORGBACK
 10
0.0
 20
0.0
 30
0.0
  9
$PUCSBASE
  2

  9
$PUCSNAME
  2

  9
$PUCSORG
 10
0.0
 20
0.0
 30
0.0
  9
$PUCSXDIR
 10
1.0
 20
0.0
 30
0.0
  9
$PUCSYDIR
 10
0.0
 20
1.0
 30
0.0
  9
$PUCSORTHOREF
  2

  9
$PUCSORTHOVIEW
 70
0
  9
$PUCSORGTOP
 10
0.0
 20
0.0
 30
0.0
  9
$PUCSORGBOTTOM
 10
0.0
 20
0.0
 30
0.0
  9
$PUCSORGLEFT
 10
0.0
 20
0.0
 30
0.0
  9
$PUCSORGRIGHT
 10
0.0
 20
0.0
 30
0.0
  9
$PUCSORGFRONT
 10
0.0
 20
0.0
 30
0.0
  9
$PUCSORGBACK
 10
0.0
 20
0.0
 30
0.0
  9
$USERI1
 70
0
  9
$USERI2
 70
0
  9
$USERI3
 70
0
  9
$USERI4
 70
0
  9
$USERI5
 70
0
  9
$USERR1
 40
0.0
  9
$USERR2
 40
0.0
  9
$USERR3
 40
0.0
  9
$USERR4
 40
0.0
  9
$USERR5
 40
0.0
  9
$WORLDVIEW
 70
1
  9
$SHADEDGE
 70
3
  9
$SHADEDIF
 70
70
  9
$TILEMODE
 70
1
  9
$MAXACTVP
 70
64
  9
$PINSBASE
 10
0.0
 20
0.0
 30
0.0
  9
$PLIMCHECK
 70
0
  9
$PEXTMIN
 10
1e+20
 20
1e+20
 30
1e+20
  9
$PEXTMAX
 10
-1e+20
 20
-1e+20
 30
-1e+20
  9
$PLIMMIN
 10
0.0
 20
0.0
  9
$PLIMMAX
 10
420.0
 20
297.0
  9
$UNITMODE
 70
0
  9
$VISRETAIN
 70
1
  9
$PLINEGEN
 70
0
  9
$PSLTSCALE
 70
1
  9
$TREEDEPTH
 70
3020
  9
$CMLSTYLE
  2
Standard
  9
$CMLJUST
 70
0
  9
$CMLSCALE
 40
20.0
  9
$PROXYGRAPHICS
 70
1
  9
$MEASUREMENT
 70
1
  9
$CELWEIGHT
370
-1
  9
$ENDCAPS
280
0
  9
$JOINSTYLE
280
0
  9
$LWDISPLAY
290
0
  9
$INSUNITS
 70
4
  9
$HYPERLINKBASE
  1

  9
$STYLESHEET
  1

  9
$XEDIT
290
1
  9
$CEPSNTYPE
380
0
  9
$PSTYLEMODE
290
1
  9
$FINGERPRINTGUID
  2
{4C75DD13-7151-42B8-916F-60E84B4D8B09}
  9
$VERSIONGUID
  2
{A7EBF466-B927-4906-92AC-6DC596E61B10}
  9
$EXTNAMES
290
1
  9
$PSVPSCALE
 40
0.0
  9
$OLESTARTUP
290
0
  9
$SORTENTS
280
127
  9
$INDEXCTL
280
0
  9
$HIDETEXT
280
1
  9
$XCLIPFRAME
280
1
  9
$HALOGAP
280
0
  9
$OBSCOLOR
 70
257
  9
$OBSLTYPE
280
0
  9
$INTERSECTIONDISPLAY
280
0
  9
$INTERSECTIONCOLOR
 70
257
  9
$DIMASSOC
280
2
  9
$PROJECTNAME
  1

  9
$CAMERADISPLAY
290
0
  9
$LENSLENGTH
 40
50.0
  9
$CAMERAHEIGHT
 40
0.0
  9
$STEPSPERSEC
 40
24.0
  9
$STEPSIZE
 40
100.0
  9
$3DDWFPREC
 40
2.0
  9
$PSOLWIDTH
 40
0.005
  9
$PSOLHEIGHT
 40
0.08
  9
$LOFTANG1
 40
1.570796326795
  9
$LOFTANG2
 40
1.570796326795
  9
$LOFTMAG1
 40
0.0
  9
$LOFTMAG2
 40
0.0
  9
$LOFTPARAM
 70
7
  9
$LOFTNORMALS
280
1
  9
$LATITUDE
 40
37.795
  9
$LONGITUDE
 40
-122.394
  9
$NORTHDIRECTION
 40
0.0
  9
$TIMEZONE
 70
-8000
  9
$LIGHTGLYPHDISPLAY
280
1
  9
$TILEMODELIGHTSYNCH
280
1
  9
$CMATERIAL
347
20
  9
$SOLIDHIST
280
0
  9
$SHOWHIST
280
1
  9
$DWFFRAME
280
2
  9
$DGNFRAME
280
2
  9
$REALWORLDSCALE
290
1
  9
$INTERFERECOLOR
 62
256
  9
$CSHADOW
280
0
  9
$SHADOWPLANELOCATION
 40
0.0
  0
ENDSEC
  0
SECTION
  2
CLASSES
  0
CLASS
  1
ACDBDICTIONARYWDFLT
  2
AcDbDictionaryWithDefault
  3
ObjectDBX Classes
 90
0
 91
0
280
0
281
0
  0
CLASS
  1
SUN
  2
AcDbSun
  3
SCENEOE
 90
1153
 91
0
280
0
281
0
  0
CLASS
  1
VISUALSTYLE
  2
AcDbVisualStyle
  3
ObjectDBX Classes
 90
4095
 91
0
280
0
281
0
  0
CLASS
  1
MATERIAL
  2
AcDbMaterial
  3
ObjectDBX Classes
 90
1153
 91
0
280
0
281
0
  0
CLASS
  1
SCALE
  2
AcDbScale
  3
ObjectDBX Classes
 90
1153
 91
0
280
0
281
0
  0
CLASS
  1
TABLESTYLE
  2
AcDbTableStyle
  3
ObjectDBX Classes
 90
4095
 91
0
280
0
281
0
  0
CLASS
  1
MLEADERSTYLE
  2
AcDbMLeaderStyle
  3
ACDB_MLEADERSTYLE_CLASS
 90
4095
 91
0
280
0
281
0
  0
CLASS
  1
DICTIONARYVAR
  2
AcDbDictionaryVar
  3
ObjectDBX Classes
 90
0
 91
0
280
0
281
0
  0
CLASS
  1
CELLSTYLEMAP
  2
AcDbCellStyleMap
  3
ObjectDBX Classes
 90
1152
 91
0
280
0
281
0
  0
CLASS
  1
MENTALRAYRENDERSETTINGS
  2
AcDbMentalRayRenderSettings
  3
SCENEOE
 90
1024
 91
0
280
0
281
0
  0
CLASS
  1
ACDBDETAILVIEWSTYLE
  2
AcDbDetailViewStyle
  3
ObjectDBX Classes
 90
1025
 91
0
280
0
281
0
  0
CLASS
  1
ACDBSECTIONVIEWSTYLE
  2
AcDbSectionViewStyle
  3
ObjectDBX Classes
 90
1025
 91
0
280
0
281
0
  0
CLASS
  1
RASTERVARIABLES
  2
AcDbRasterVariables
  3
ISM
 90
0
 91
0
280
0
281
0
  0
CLASS
  1
ACDBPLACEHOLDER
  2
AcDbPlaceHolder
  3
ObjectDBX Classes
 90
0
 91
0
280
0
281
0
  0
CLASS
  1
LAYOUT
  2
AcDbLayout
  3
ObjectDBX Classes
 90
0
 91
0
280
0
281
0
  0
ENDSEC
  0
SECTION
  2
TABLES
  0
TABLE
  2
VPORT
  5
8
330
0
100
AcDbSymbolTable
 70
1
  0
VPORT
  5
23
330
8
100
AcDbSymbolTableRecord
100
AcDbViewportTableRecord
  2
*Active
 70
0
 10
0.0
 20
0.0
 11
1.0
 21
1.0
 12
0.0
 22
0.0
 13
0.0
 23
0.0
 14
0.5
 24
0.5
 15
0.5
 25
0.5
 16
0.0
 26
0.0
 36
1.0
 17
0.0
 27
0.0
 37
0.0
 40
1000.0
 41
1.34
 42
50.0
 43
0.0
 44
0.0
 50
0.0
 51
0.0
 71
0
 72
1000
 73
1
 74
3
 75
0
 76
0
 77
0
 78
0
281
0
 65
0
146
0.0
  0
ENDTAB
  0
TABLE
  2
LTYPE
  5
2
330
0
100
AcDbSymbolTable
 70
21
  0
LTYPE
  5
24
330
2
100
AcDbSymbolTableRecord
100
AcDbLinetypeTableRecord
  2
ByBlock
 70
0
  3

 72
65
 73
0
 40
0.0
  0
LTYPE
  5
25
330
2
100
AcDbSymbolTableRecord
100
AcDbLinetypeTableRecord
  2
ByLayer
 70
0
  3

 72
65
 73
0
 40
0.0
  0
LTYPE
  5
26
330
2
100
AcDbSymbolTableRecord
100
AcDbLinetypeTableRecord
  2
Continuous
 70
0
  3

 72
65
 73
0
 40
0.0
  0
LTYPE
  5
2F
330
2
100
AcDbSymbolTableRecord
100
AcDbLinetypeTableRecord
  2
CENTER
 70
0
  3
Center ____ _ ____ _ ____ _ ____ _ ____ _ ____
 72
65
 73
4
 40
5.08
 49
3.175
 74
0
 49
-0.635
 74
0
 49
0.635
 74
0
 49
-0.635
 74
0
  0
LTYPE
  5
30
330
2
100
AcDbSymbolTableRecord
100
AcDbLinetypeTableRecord
  2
CENTERX2
 70
0
  3
Center (2x) ________  __  ________  __  ________
 72
65
 73
4
 40
8.89
 49
6.35
 74
0
 49
-0.635
 74
0
 49
1.27
 74
0
 49
-0.635
 74
0
  0
LTYPE
  5
31
330
2
100
AcDbSymbolTableRecord
100
AcDbLinetypeTableRecord
  2
CENTER2
 70
0
  3
Center (.5x) ____ _ ____ _ ____ _ ____ _ ____
 72
65
 73
4
 40
2.54
 49
1.587
 74
0
 49
-0.318
 74
0
 49
0.318
 74
0
 49
-0.318
 74
0
  0
LTYPE
  5
32
330
2
100
AcDbSymbolTableRecord
100
AcDbLinetypeTableRecord
  2
DASHED
 70
0
  3
Dashed __ __ __ __ __ __ __ __ __ __ __ __ __ _
 72
65
 73
2
 40
1.524
 49
1.27
 74
0
 49
-0.254
 74
0
  0
LTYPE
  5
33
330
2
100
AcDbSymbolTableRecord
100
AcDbLinetypeTableRecord
  2
DASHEDX2
 70
0
  3
Dashed (2x) ____  ____  ____  ____  ____  ____
 72
65
 73
2
 40
3.048
 49
2.54
 74
0
 49
-0.508
 74
0
  0
LTYPE
  5
34
330
2
100
AcDbSymbolTableRecord
100
AcDbLinetypeTableRecord
  2
DASHED2
 70
0
  3
Dashed (.5x) _ _ _ _ _ _ _ _ _ _ _ _ _ _
 72
65
 73
2
 40
0.762
 49
0.635
 74
0
 49
-0.127
 74
0
  0
LTYPE
  5
35
330
2
100
AcDbSymbolTableRecord
100
AcDbLinetypeTableRecord
  2
PHANTOM
 70
0
  3
Phantom ______  __  __  ______  __  __  ______
 72
65
 73
6
 40
6.35
 49
3.175
 74
0
 49
-0.635
 74
0
 49
0.635
 74
0
 49
-0.635
 74
0
 49
0.635
 74
0
 49
-0.635
 74
0
  0
LTYPE
  5
36
330
2
100
AcDbSymbolTableRecord
100
AcDbLinetypeTableRecord
  2
PHANTOMX2
 70
0
  3
Phantom (2x)____________    ____    ____    ____________
 72
65
 73
6
 40
10.795
 49
6.35
 74
0
 49
-0.635
 74
0
 49
1.27
 74
0
 49
-0.635
 74
0
 49
1.27
 74
0
 49
-0.635
 74
0
  0
LTYPE
  5
37
330
2
100
AcDbSymbolTableRecord
100
AcDbLinetypeTableRecord
  2
PHANTOM2
 70
0
  3
Phantom (.5x) ___ _ _ ___ _ _ ___ _ _ ___ _ _ ___
 72
65
 73
6
 40
3.175
 49
1.587
 74
0
 49
-0.318
 74
0
 49
0.318
 74
0
 49
-0.318
 74
0
 49
0.318
 74
0
 49
-0.318
 74
0
  0
LTYPE
  5
38
330
2
100
AcDbSymbolTableRecord
100
AcDbLinetypeTableRecord
  2
DASHDOT
 70
0
  3
Dash dot __ . __ . __ . __ . __ . __ . __ . __
 72
65
 73
4
 40
3.556
 49
2.54
 74
0
 49
-0.508
 74
0
 49
0.0
 74
0
 49
-0.508
 74
0
  0
LTYPE
  5
39
330
2
100
AcDbSymbolTableRecord
100
AcDbLinetypeTableRecord
  2
DASHDOTX2
 70
0
  3
Dash dot (2x) ____  .  ____  .  ____  .  ____
 72
65
 73
4
 40
6.096
 49
5.08
 74
0
 49
-0.508
 74
0
 49
0.0
 74
0
 49
-0.508
 74
0
  0
LTYPE
  5
3A
330
2
100
AcDbSymbolTableRecord
100
AcDbLinetypeTableRecord
  2
DASHDOT2
 70
0
  3
Dash dot (.5x) _ . _ . _ . _ . _ . _ . _ . _
 72
65
 73
4
 40
1.778
 49
1.27
 74
0
 49
-0.254
 74
0
 49
0.0
 74
0
 49
-0.254
 74
0
  0
LTYPE
  5
3B
330
2
100
AcDbSymbolTableRecord
100
AcDbLinetypeTableRecord
  2
DOT
 70
0
  3
Dot .  .  .  .  .  .  .  .  .  .  .  .  .  .  .  .
 72
65
 73
2
 40
0.508
 49
0.0
 74
0
 49
-0.508
 74
0
  0
LTYPE
  5
3C
330
2
100
AcDbSymbolTableRecord
100
AcDbLinetypeTableRecord
  2
DOTX2
 70
0
  3
Dot (2x) .    .    .    .    .    .    .    . 
 72
65
 73
2
 40
1.016
 49
0.0
 74
0
 49
-1.016
 74
0
  0
LTYPE
  5
3D
330
2
100
AcDbSymbolTableRecord
100
AcDbLinetypeTableRecord
  2
DOT2
 70
0
  3
Dot (.5) . . . . . . . . . . . . . . . . . . . 
 72
65
 73
2
 40
0.254
 49
0.0
 74
0
 49
-0.254
 74
0
  0
LTYPE
  5
3E
330
2
100
AcDbSymbolTableRecord
100
AcDbLinetypeTableRecord
  2
DIVIDE
 70
0
  3
Divide __ . . __ . . __ . . __ . . __ . . __
 72
65
 73
6
 40
4.064
 49
2.54
 74
0
 49
-0.508
 74
0
 49
0.0
 74
0
 49
-0.508
 74
0
 49
0.0
 74
0
 49
-0.508
 74
0
  0
LTYPE
  5
3F
330
2
100
AcDbSymbolTableRecord
100
AcDbLinetypeTableRecord
  2
DIVIDEX2
 70
0
  3
Divide (2x) ____  . .  ____  . .  ____  . .  ____
 72
65
 73
6
 40
6.604
 49
5.08
 74
0
 49
-0.508
 74
0
 49
0.0
 74
0
 49
-0.508
 74
0
 49
0.0
 74
0
 49
-0.508
 74
0
  0
LTYPE
  5
40
330
2
100
AcDbSymbolTableRecord
100
AcDbLinetypeTableRecord
  2
DIVIDE2
 70
0
  3
Divide(.5x) _ . _ . _ . _ . _ . _ . _ . _
 72
65
 73
6
 40
2.032
 49
1.27
 74
0
 49
-0.254
 74
0
 49
0.0
 74
0
 49
-0.254
 74
0
 49
0.0
 74
0
 49
-0.254
 74
0
  0
ENDTAB
  0
TABLE
  2
LAYER
  5
1
330
0
100
AcDbSymbolTable
 70
8
  0
LAYER
  5
27
330
1
100
AcDbSymbolTableRecord
100
AcDbLayerTableRecord
  2
0
 70
0
 62
7
  6
Continuous
370
-3
390
13
347
21
  0
LAYER
  5
28
330
1
100
AcDbSymbolTableRecord
100
AcDbLayerTableRecord
  2
Defpoints
 70
0
 62
7
  6
Continuous
290
0
370
-3
390
13
347
21
  0
LAYER
  5
8A
330
1
100
AcDbSymbolTableRecord
100
AcDbLayerTableRecord
  2
CUT_OUT
 70
0
 62
7
  6
Continuous
370
-3
390
13
347
21
  0
LAYER
  5
8B
330
1
100
AcDbSymbolTableRecord
100
AcDbLayerTableRecord
  2
CUT_IN
 70
0
 62
1
  6
Continuous
370
-3
390
13
347
21
  0
LAYER
  5
8C
330
1
100
AcDbSymbolTableRecord
100
AcDbLayerTableRecord
  2
DRILL
 70
0
 62
3
  6
Continuous
370
-3
390
13
347
21
  0
LAYER
  5
8D
330
1
100
AcDbSymbolTableRecord
100
AcDbLayerTableRecord
  2
MARK
 70
0
 62
5
  6
Continuous
370
-3
390
13
347
21
  0
LAYER
  5
8E
330
1
100
AcDbSymbolTableRecord
100
AcDbLayerTableRecord
  2
TEXT
 70
0
 62
8
  6
Continuous
370
-3
390
13
347
21
  0
LAYER
  5
8F
330
1
100
AcDbSymbolTableRecord
100
AcDbLayerTableRecord
  2
SHEET
 70
0
 62
9
  6
Continuous
370
-3
390
13
347
21
  0
ENDTAB
  0
TABLE
  2
STYLE
  5
5
330
0
100
AcDbSymbolTable
 70
26
  0
STYLE
  5
29
330
5
100
AcDbSymbolTableRecord
100
AcDbTextStyleTableRecord
  2
Standard
 70
0
 40
0.0
 41
1.0
 50
0.0
 71
0
 42
2.5
  3
txt
  4

  0
STYLE
  5
41
330
5
100
AcDbSymbolTableRecord
100
AcDbTextStyleTableRecord
  2
OpenSans-Light
 70
0
 40
0.0
 41
1.0
 50
0.0
 71
0
 42
2.5
  3
OpenSans-Light.ttf
  4

  0
STYLE
  5
42
330
5
100
AcDbSymbolTableRecord
100
AcDbTextStyleTableRecord
  2
OpenSans-Light-Italic
 70
0
 40
0.0
 41
1.0
 50
0.0
 71
0
 42
2.5
  3
OpenSans-LightItalic.ttf
  4

  0
STYLE
  5
43
330
5
100
AcDbSymbolTableRecord
100
AcDbTextStyleTableRecord
  2
OpenSans
 70
0
 40
0.0
 41
1.0
 50
0.0
 71
0
 42
2.5
  3
OpenSans-Regular.ttf
  4

  0
STYLE
  5
44
330
5
100
AcDbSymbolTableRecord
100
AcDbTextStyleTableRecord
  2
OpenSans-Italic
 70
0
 40
0.0
 41
1.0
 50
0.0
 71
0
 42
2.5
  3
OpenSans-Italic.ttf
  4

  0
STYLE
  5
45
330
5
100
AcDbSymbolTableRecord
100
AcDbTextStyleTableRecord
  2
OpenSans-SemiBold
 70
0
 40
0.0
 41
1.0
 50
0.0
 71
0
 42
2.5
  3
OpenSans-SemiBold.ttf
  4

  0
STYLE
  5
46
330
5
100
AcDbSymbolTableRecord
100
AcDbTextStyleTableRecord
  2
OpenSans-SemiBoldItalic
 70
0
 40
0.0
 41
1.0
 50
0.0
 71
0
 42
2.5
  3
OpenSans-SemiBoldItalic.ttf
  4

  0
STYLE
  5
47
330
5
100
AcDbSymbolTableRecord
100
AcDbTextStyleTableRecord
  2
OpenSans-Bold
 70
0
 40
0.0
 41
1.0
 50
0.0
 71
0
 42
2.5
  3
OpenSans-Bold.ttf
  4

  0
STYLE
  5
48
330
5
100
AcDbSymbolTableRecord
100
AcDbTextStyleTableRecord
  2
OpenSans-BoldItalic
 70
0
 40
0.0
 41
1.0
 50
0.0
 71
0
 42
2.5
  3
OpenSans-BoldItalic.ttf
  4

  0
STYLE
  5
49
330
5
100
AcDbSymbolTableRecord
100
AcDbTextStyleTableRecord
  2
OpenSans-ExtraBold
 70
0
 40
0.0
 41
1.0
 50
0.0
 71
0
 42
2.5
  3
OpenSans-ExtraBold.ttf
  4

  0
STYLE
  5
4A
330
5
100
AcDbSymbolTableRecord
100
AcDbTextStyleTableRecord
  2
OpenSans-ExtraBoldItalic
 70
0
 40
0.0
 41
1.0
 50
0.0
 71
0
 42
2.5
  3
OpenSans-ExtraBoldItalic.ttf
  4

  0
STYLE
  5
4B
330
5
100
AcDbSymbolTableRecord
100
AcDbTextStyleTableRecord
  2
OpenSansCondensed-Bold
 70
0
 40
0.0
 41
1.0
 50
0.0
 71
0
 42
2.5
  3
OpenSansCondensed-Bold.ttf
  4

  0
STYLE
  5
4C
330
5
100
AcDbSymbolTableRecord
100
AcDbTextStyleTableRecord
  2
OpenSansCondensed-Light
 70
0
 40
0.0
 41
1.0
 50
0.0
 71
0
 42
2.5
  3
OpenSansCondensed-Light.ttf
  4

  0
STYLE
  5
4D
330
5
100
AcDbSymbolTableRecord
100
AcDbTextStyleTableRecord
  2
OpenSansCondensed-Italic
 70
0
 40
0.0
 41
1.0
 50
0.0
 71
0
 42
2.5
  3
OpenSansCondensed-LightItalic.ttf
  4

  0
STYLE
  5
4E
330
5
100
AcDbSymbolTableRecord
100
AcDbTextStyleTableRecord
  2
LiberationSans
 70
0
 40
0.0
 41
1.0
 50
0.0
 71
0
 42
2.5
  3
LiberationSans-Regular.ttf
  4

  0
STYLE
  5
4F
330
5
100
AcDbSymbolTableRecord
100
AcDbTextStyleTableRecord
  2
LiberationSans-Bold
 70
0
 40
0.0
 41
1.0
 50
0.0
 71
0
 42
2.5
  3
LiberationSans-Bold.ttf
  4

  0
STYLE
  5
50
330
5
100
AcDbSymbolTableRecord
100
AcDbTextStyleTableRecord
  2
LiberationSans-BoldItalic
 70
0
 40
0.0
 41
1.0
 50
0.0
 71
0
 42
2.5
  3
LiberationSans-BoldItalic.ttf
  4

  0
STYLE
  5
51
330
5
100
AcDbSymbolTableRecord
100
AcDbTextStyleTableRecord
  2
LiberationSans-Italic
 70
0
 40
0.0
 41
1.0
 50
0.0
 71
0
 42
2.5
  3
LiberationSans-Italic.ttf
  4

  0
STYLE
  5
52
330
5
100
AcDbSymbolTableRecord
100
AcDbTextStyleTableRecord
  2
LiberationSerif
 70
0
 40
0.0
 41
1.0
 50
0.0
 71
0
 42
2.5
  3
LiberationSerif-Regular.ttf
  4

  0
STYLE
  5
53
330
5
100
AcDbSymbolTableRecord
100
AcDbTextStyleTableRecord
  2
LiberationSerif-Bold
 70
0
 40
0.0
 41
1.0
 50
0.0
 71
0
 42
2.5
  3
LiberationSerif-Bold.ttf
  4

  0
STYLE
  5
54
330
5
100
AcDbSymbolTableRecord
100
AcDbTextStyleTableRecord
  2
LiberationSerif-BoldItalic
 70
0
 40
0.0
 41
1.0
 50
0.0
 71
0
 42
2.5
  3
LiberationSerif-BoldItalic.ttf
  4

  0
STYLE
  5
55
330
5
100
AcDbSymbolTableRecord
100
AcDbTextStyleTableRecord
  2
LiberationSerif-Italic
 70
0
 40
0.0
 41
1.0
 50
0.0
 71
0
 42
2.5
  3
LiberationSerif-Italic.ttf
  4

  0
STYLE
  5
56
330
5
100
AcDbSymbolTableRecord
100
AcDbTextStyleTableRecord
  2
LiberationMono
 70
0
 40
0.0
 41
1.0
 50
0.0
 71
0
 42
2.5
  3
LiberationMono-Regular.ttf
  4

  0
STYLE
  5
57
330
5
100
AcDbSymbolTableRecord
100
AcDbTextStyleTableRecord
  2
LiberationMono-Bold
 70
0
 40
0.0
 41
1.0
 50
0.0
 71
0
 42
2.5
  3
LiberationMono-Bold.ttf
  4

  0
STYLE
  5
58
330
5
100
AcDbSymbolTableRecord
100
AcDbTextStyleTableRecord
  2
LiberationMono-BoldItalic
 70
0
 40
0.0
 41
1.0
 50
0.0
 71
0
 42
2.5
  3
LiberationMono-BoldItalic.ttf
  4

  0
STYLE
  5
59
330
5
100
AcDbSymbolTableRecord
100
AcDbTextStyleTableRecord
  2
LiberationMono-Italic
 70
0
 40
0.0
 41
1.0
 50
0.0
 71
0
 42
2.5
  3
LiberationMono-Italic.ttf
  4

  0
ENDTAB
  0
TABLE
  2
VIEW
  5
7
330
0
100
AcDbSymbolTable
 70
0
  0
ENDTAB
  0
TABLE
  2
UCS
  5
6
330
0
100
AcDbSymbolTable
 70
0
  0
ENDTAB
  0
TABLE
  2
APPID
  5
3
330
0
100
AcDbSymbolTable
 70
3
  0
APPID
  5
2A
330
3
100
AcDbSymbolTableRecord
100
AcDbRegAppTableRecord
  2
ACAD
 70
0
  0
APPID
  5
9B
330
3
100
AcDbSymbolTableRecord
100
AcDbRegAppTableRecord
  2
HATCHBACKGROUNDCOLOR
 70
0
  0
APPID
  5
9C
330
3
100
AcDbSymbolTableRecord
100
AcDbRegAppTableRecord
  2
EZDXF
 70
0
  0
ENDTAB
  0
TABLE
  2
DIMSTYLE
  5
4
330
0
100
AcDbSymbolTable
 70
12
100
AcDbDimStyleTable
  0
DIMSTYLE
105
2B
330
4
100
AcDbSymbolTableRecord
100
AcDbDimStyleTableRecord
  2
Standard
 70
0
 40
1.0
 41
2.5
 42
0.625
 43
3.75
 44
1.25
 45
0.0
 46
0.0
 47
0.0
 48
0.0
 49
2.5
140
2.5
141
2.5
142
0.0
143
0.03937007874
144
1.0
145
0.0
146
1.0
147
0.625
148
0.0
 69
0
 70
0
 71
0
 72
0
 73
0
 74
0
 75
0
 76
0
 77
1
 78
8
 79
3
170
0
171
3
172
1
173
0
174
0
175
0
176
0
177
0
178
0
179
2
271
2
272
2
273
2
274
3
275
0
276
0
277
2
278
44
279
0
280
0
281
0
282
0
283
0
284
8
285
0
286
0
288
0
289
3
290
0
371
-2
372
-2
  0
DIMSTYLE
105
73
330
4
100
AcDbSymbolTableRecord
100
AcDbDimStyleTableRecord
  2
EZDXF
 70
0
 40
1.0
 41
0.175
 42
0.125
 43
3.75
 44
0.375
 45
0.0
 46
0.0
 47
0.0
 48
0.0
 49
2.5
140
0.25
141
2.5
142
0.0
143
0.03937007874
144
100.0
145
0.0
146
0.5
147
0.1
148
0.0
 69
0
 70
0
 71
0
 72
0
 73
0
 74
0
 75
0
 76
0
 77
1
 78
12
 79
3
170
0
171
3
172
1
173
0
174
0
175
0
176
0
177
0
178
0
179
2
271
2
272
2
273
2
274
3
275
0
276
0
277
2
278
46
279
2
280
0
281
0
282
0
283
0
284
8
285
0
286
0
288
1
289
3
290
0
340
4C
342
74
371
-2
372
-2
  0
DIMSTYLE
105
7C
330
4
100
AcDbSymbolTableRecord
100
AcDbDimStyleTableRecord
  2
EZ_M_100_H25_CM
 70
0
 40
1.0
 41
0.25
 42
0.125
 43
3.75
 44
0.375
 45
0.0
 46
0.0
 47
0.0
 48
0.0
 49
2.5
140
0.25
141
2.5
142
0.125
143
0.03937007874
144
100.0
145
0.0
146
0.5
147
0.1
148
0.0
 69
0
 70
0
 71
0
 72
0
 73
0
 74
0
 75
0
 76
0
 77
1
 78
12
 79
3
170
0
171
3
172
1
173
0
174
0
175
0
176
0
177
0
178
0
179
2
271
2
272
2
273
2
274
3
275
0
276
0
277
2
278
46
279
2
280
0
281
0
282
0
283
0
284
8
285
0
286
0
288
1
289
3
290
0
340
4C
371
-2
372
-2
  0
DIMSTYLE
105
7D
330
4
100
AcDbSymbolTableRecord
100
AcDbDimStyleTableRecord
  2
EZ_M_50_H25_CM
 70
0
 40
1.0
 41
0.125
 42
0.0625
 43
3.75
 44
0.1875
 45
0.0
 46
0.0
 47
0.0
 48
0.0
 49
2.5
140
0.125
141
2.5
142
0.0625
143
0.03937007874
144
100.0
145
0.0
146
0.5
147
0.05
148
0.0
 69
0
 70
0
 71
0
 72
0
 73
0
 74
0
 75
0
 76
0
 77
1
 78
12
 79
3
170
0
171
3
172
1
173
0
174
0
175
0
176
0
177
0
178
0
179
2
271
2
272
2
273
2
274
3
275
0
276
0
277
2
278
46
279
2
280
0
281
0
282
0
283
0
284
8
285
0
286
0
288
1
289
3
290
0
340
4C
371
-2
372
-2
  0
DIMSTYLE
105
7E
330
4
100
AcDbSymbolTableRecord
100
AcDbDimStyleTableRecord
  2
EZ_M_25_H25_CM
 70
0
 40
1.0
 41
0.0625
 42
0.03125
 43
3.75
 44
0.09375
 45
0.0
 46
0.0
 47
0.0
 48
0.0
 49
2.5
140
0.0625
141
2.5
142
0.03125
143
0.03937007874
144
100.0
145
0.0
146
0.5
147
0.025
148
0.0
 69
0
 70
0
 71
0
 72
0
 73
0
 74
0
 75
0
 76
0
 77
1
 78
12
 79
3
170
0
171
3
172
1
173
0
174
0
175
0
176
0
177
0
178
0
179
2
271
2
272
2
273
2
274
3
275
0
276
0
277
2
278
46
279
2
280
0
281
0
282
0
283
0
284
8
285
0
286
0
288
1
289
3
290
0
340
4C
371
-2
372
-2
  0
DIMSTYLE
105
7F
330
4
100
AcDbSymbolTableRecord
100
AcDbDimStyleTableRecord
  2
EZ_M_20_H25_CM
 70
0
 40
1.0
 41
0.05
 42
0.025
 43
3.75
 44
0.07500000000000001
 45
0.0
 46
0.0
 47
0.0
 48
0.0
 49
2.5
140
0.05
141
2.5
142
0.025
143
0.03937007874
144
100.0
145
0.0
146
0.5
147
0.020000000000000004
148
0.0
 69
0
 70
0
 71
0
 72
0
 73
0
 74
0
 75
0
 76
0
 77
1
 78
12
 79
3
170
0
171
3
172
1
173
0
174
0
175
0
176
0
177
0
178
0
179
2
271
2
272
2
273
2
274
3
275
0
276
0
277
2
278
46
279
2
280
0
281
0
282
0
283
0
284
8
285
0
286
0
288
1
289
3
290
0
340
4C
371
-2
372
-2
  0
DIMSTYLE
105
80
330
4
100
AcDbSymbolTableRecord
100
AcDbDimStyleTableRecord
  2
EZ_M_10_H25_CM
 70
0
 40
1.0
 41
0.025
 42
0.0125
 43
3.75
 44
0.037500000000000006
 45
0.0
 46
0.0
 47
0.0
 48
0.0
 49
2.5
140
0.025
141
2.5
142
0.0125
143
0.03937007874
144
100.0
145
0.0
146
0.5
147
0.010000000000000002
148
0.0
 69
0
 70
0
 71
0
 72
0
 73
0
 74
0
 75
0
 76
0
 77
1
 78
12
 79
3
170
0
171
3
172
1
173
0
174
0
175
0
176
0
177
0
178
0
179
2
271
2
272
2
273
2
274
3
275
0
276
0
277
2
278
46
279
2
280
0
281
0
282
0
283
0
284
8
285
0
286
0
288
1
289
3
290
0
340
4C
371
-2
372
-2
  0
DIMSTYLE
105
81
330
4
100
AcDbSymbolTableRecord
100
AcDbDimStyleTableRecord
  2
EZ_M_5_H25_CM
 70
0
 40
1.0
 41
0.0125
 42
0.00625
 43
3.75
 44
0.018750000000000003
 45
0.0
 46
0.0
 47
0.0
 48
0.0
 49
2.5
140
0.0125
141
2.5
142
0.00625
143
0.03937007874
144
100.0
145
0.0
146
0.5
147
0.005000000000000001
148
0.0
 69
0
 70
0
 71
0
 72
0
 73
0
 74
0
 75
0
 76
0
 77
1
 78
12
 79
3
170
0
171
3
172
1
173
0
174
0
175
0
176
0
177
0
178
0
179
2
271
2
272
2
273
2
274
3
275
0
276
0
277
2
278
46
279
2
280
0
281
0
282
0
283
0
284
8
285
0
286
0
288
1
289
3
290
0
340
4C
371
-2
372
-2
  0
DIMSTYLE
105
82
330
4
100
AcDbSymbolTableRecord
100
AcDbDimStyleTableRecord
  2
EZ_M_1_H25_CM
 70
0
 40
1.0
 41
0.0025
 42
0.00125
 43
3.75
 44
0.00375
 45
0.0
 46
0.0
 47
0.0
 48
0.0
 49
2.5
140
0.0025
141
2.5
142
0.00125
143
0.03937007874
144
100.0
145
0.0
146
0.5
147
0.001
148
0.0
 69
0
 70
0
 71
0
 72
0
 73
0
 74
0
 75
0
 76
0
 77
1
 78
12
 79
3
170
0
171
3
172
1
173
0
174
0
175
0
176
0
177
0
178
0
179
2
271
2
272
2
273
2
274
3
275
0
276
0
277
2
278
46
279
2
280
0
281
0
282
0
283
0
284
8
285
0
286
0
288
1
289
3
290
0
340
4C
371
-2
372
-2
  0
DIMSTYLE
105
83
330
4
100
AcDbSymbolTableRecord
100
AcDbDimStyleTableRecord
  2
EZ_RADIUS
 70
0
 40
1.0
 41
0.25
 42
0.125
 43
3.75
 44
0.375
 45
0.0
 46
0.0
 47
0.0
 48
0.0
 49
2.5
140
0.25
141
0.0
142
0.0
143
0.03937007874
144
100.0
145
0.0
146
0.5
147
0.1
148
0.0
 69
0
 70
0
 71
0
 72
0
 73
0
 74
0
 75
0
 76
0
 77
1
 78
12
 79
3
170
0
171
3
172
0
173
0
174
0
175
0
176
0
177
0
178
0
179
2
271
2
272
2
273
2
274
3
275
0
276
0
277
2
278
46
279
1
280
0
281
0
282
0
283
0
284
8
285
0
286
0
288
1
289
3
290
0
340
4C
342
84
371
-2
372
-2
  0
DIMSTYLE
105
88
330
4
100
AcDbSymbolTableRecord
100
AcDbDimStyleTableRecord
  2
EZ_RADIUS_INSIDE
 70
0
 40
1.0
 41
0.25
 42
0.125
 43
3.75
 44
0.375
 45
0.0
 46
0.0
 47
0.0
 48
0.0
 49
2.5
140
0.25
141
0.0
142
0.0
143
0.03937007874
144
100.0
145
0.0
146
0.5
147
0.1
148
0.0
 69
0
 70
0
 71
0
 72
0
 73
0
 74
0
 75
0
 76
0
 77
0
 78
12
 79
3
170
0
171
3
172
0
173
0
174
1
175
0
176
0
177
0
178
0
179
2
271
2
272
2
273
2
274
3
275
0
276
0
277
2
278
46
279
0
280
0
281
0
282
0
283
0
284
8
285
0
286
0
288
1
289
0
290
0
340
4C
342
84
371
-2
372
-2
  0
DIMSTYLE
105
89
330
4
100
AcDbSymbolTableRecord
100
AcDbDimStyleTableRecord
  2
EZ_CURVED
 70
0
 40
1.0
 41
0.25
 42
0.125
 43
3.75
 44
0.375
 45
0.0
 46
0.0
 47
0.0
 48
0.0
 49
2.5
140
0.25
141
2.5
142
0.0
143
0.03937007874
144
100.0
145
0.0
146
0.5
147
0.1
148
0.0
 69
0
 70
0
 71
0
 72
0
 73
0
 74
0
 75
0
 76
0
 77
1
 78
12
 79
2
 90
2
170
0
171
3
172
1
173
0
174
0
175
0
176
0
177
0
178
0
179
2
271
2
272
2
273
2
274
3
275
0
276
0
277
2
278
46
279
2
280
0
281
0
282
0
283
0
284
8
285
0
286
0
288
1
289
3
290
0
340
4C
371
-2
372
-2
  0
ENDTAB
  0
TABLE
  2
BLOCK_RECORD
  5
9
330
0
100
AcDbSymbolTable
 70
5
  0
BLOCK_RECORD
  5
17
330
9
100
AcDbSymbolTableRecord
100
AcDbBlockTableRecord
  2
*Model_Space
340
1A
 70
0
280
1
281
0
  0
BLOCK_RECORD
  5
1B
330
9
100
AcDbSymbolTableRecord
100
AcDbBlockTableRecord
  2
*Paper_Space
340
1E
 70
0
280
1
281
0
  0
BLOCK_RECORD
  5
74
330
9
100
AcDbSymbolTableRecord
100
AcDbBlockTableRecord
  2
_ARCHTICK
340
0
 70
0
280
1
281
0
  0
BLOCK_RECORD
  5
78
330
9
100
AcDbSymbolTableRecord
100
AcDbBlockTableRecord
  2
_CLOSEDFILLED
340
0
 70
0
280
1
281
0
  0
BLOCK_RECORD
  5
84
330
9
100
AcDbSymbolTableRecord
100
AcDbBlockTableRecord
  2
_CLOSEDBLANK
340
0
 70
0
280
1
281
0
  0
ENDTAB
  0
ENDSEC
  0
SECTION
  2
BLOCKS
  0
BLOCK
  5
18
330
17
100
AcDbEntity
  8
0
100
AcDbBlockBegin
  2
*Model_Space
 70
0
 10
0.0
 20
0.0
 30
0.0
  3
*Model_Space
  1

  0
ENDBLK
  5
19
330
17
100
AcDbEntity
  8
0
100
AcDbBlockEnd
  0
BLOCK
  5
1C
330
1B
100
AcDbEntity
  8
0
100
AcDbBlockBegin
  2
*Paper_Space
 70
0
 10
0.0
 20
0.0
 30
0.0
  3
*Paper_Space
  1

  0
ENDBLK
  5
1D
330
1B
100
AcDbEntity
  8
0
100
AcDbBlockEnd
  0
BLOCK
  5
75
330
74
100
AcDbEntity
  8
0
100
AcDbBlockBegin
  2
_ARCHTICK
 70
0
 10
0.0
 20
0.0
 30
0.0
  3
_ARCHTICK
  1

  0
LWPOLYLINE
  5
77
330
74
100
AcDbEntity
  8
0
  6
BYBLOCK
 62
0
100
AcDbPolyline
 90
2
 70
0
 43
0.15
 10
-0.5
 20
-0.5
 10
0.5
 20
0.5
  0
ENDBLK
  5
76
330
74
100
AcDbEntity
  8
0
100
AcDbBlockEnd
  0
BLOCK
  5
79
330
78
100
AcDbEntity
  8
0
100
AcDbBlockBegin
  2
_CLOSEDFILLED
 70
0
 10
0.0
 20
0.0
 30
0.0
  3
_CLOSEDFILLED
  1

  0
SOLID
  5
7B
330
78
100
AcDbEntity
  8
0
  6
BYBLOCK
 62
0
100
AcDbTrace
 10
-1.0
 20
0.16439898372402537
 30
0.0
 11
0.0
 21
0.0
 31
0.0
 12
-1.0
 22
-0.16439898372402537
 32
0.0
 13
-1.0
 23
-0.16439898372402537
 33
0.0
  0
ENDBLK
  5
7A
330
78
100
AcDbEntity
  8
0
100
AcDbBlockEnd
  0
BLOCK
  5
85
330
84
100
AcDbEntity
  8
0
100
AcDbBlockBegin
  2
_CLOSEDBLANK
 70
0
 10
0.0
 20
0.0
 30
0.0
  3
_CLOSEDBLANK
  1

  0
LWPOLYLINE
  5
87
330
84
100
AcDbEntity
  8
0
  6
BYBLOCK
 62
0
100
AcDbPolyline
 90
3
 70
1
 10
-1.0
 20
0.16439898372402537
 10
0.0
 20
0.0
 10
-1.0
 20
-0.16439898372402537
  0
ENDBLK
  5
86
330
84
100
AcDbEntity
  8
0
100
AcDbBlockEnd
  0
ENDSEC
  0
SECTION
  2
ENTITIES
  0
LWPOLYLINE
  5
90
330
17
100
AcDbEntity
  8
CUT_OUT
100
AcDbPolyline
 90
212
 70
1
 10
1.6098193559677436
 20
574.9615705608064
 10
2.0
 20
575.0
 10
391.9527499423974
 20
575.0
 10
392.3429305864297
 20
574.9615705608064
 10
392.7181168071276
 20
574.8477590650226
 10
393.06389040843663
 20
574.6629392246051
 10
393.3669635047705
 20
574.4142135623731
 10
393.61568916700253
 20
574.1111404660392
 10
393.80050900742
 20
573.7653668647301
 10
393.9143205032039
 20
573.3901806440323
 10
393.9527499423974
 20
573.0
 10
393.9527499423974
 20
548.3934199068265
 10
393.9831873405614
 20
548.0047972146282
 10
394.0737572506433
 20
547.6256519608193
 10
395.56009887751077
 20
543.027507587262
 10
395.56879139565393
 20
542.9999371769694
 10
397.0906626387246
 20
538.0484551645199
 10
397.11799861466665
 20
537.9507584475587
 10
398.3658215305042
 20
533.0116357243527
 10
398.3717939780269
 20
532.9883877065241
 10
399.6694408329789
 20
528.0198043574696
 10
399.67937929782715
 20
527.980092885064
 10
400.8699223692997
 20
523.0074590363384
 10
400.87353215620084
 20
522.992550190408
 10
402.0916918084172
 20
518.0170582513617
 10
402.0957932406352
 20
517.9999819925887
 10
403.2687868443129
 20
513.020056241274
 10
403.27782742883807
 20
512.9798201372881
 10
404.3407991999972
 20
508.00993403490634
 10
404.34289867366283
 20
507.99999466788006
 10
405.38065122574216
 20
503.02459056131124
 10
405.3902922043977
 20
502.9752764304609
 10
406.29357127542977
 20
498.02553664946083
 10
406.3022276518663
 20
497.9743487710489
 10
407.07265490426204
 20
493.0289974891964
 10
407.08083747563376
 20
492.97087928458825
 10
407.70202461182583
 20
488.03523776179384
 10
407.7096410893083
 20
487.96462136036246
 10
408.15533234646546
 20
483.0083948180077
 10
408.6242119530616
 20
478.02942548371504
 10
408.6288844827045
 20
477.97048801747314
 10
408.9474208614898
 20
473.0259397212363
 10
408.95008839596926
 20
472.9740233863475
 10
409.140185053047
 20
468.0182325080271
 10
409.1408012445062
 20
467.9999971892504
 10
409.28607370845714
 20
463.0291882188328
 10
409.28692726907025
 20
462.97076291285913
 10
409.28692673850713
 20
413.20280953358605
 10
409.31423341832027
 20
412.79903717649466
 10
409.9040579768179
 20
408.45823828284654
 10
410.006687784472
 20
408.01330219817925
 10
410.1886947823314
 20
407.59452487120484
 10
412.67224951012133
 20
403.06598297410466
 10
412.7395841287413
 20
402.9314351243205
 10
414.9645107456493
 20
398.03345038658557
 10
414.99366451406974
 20
397.9660076373708
 10
417.0123670324095
 20
393.05003470343735
 10
417.0552500228728
 20
392.95073846480136
 10
419.2905629301998
 20
388.02095366760295
 10
419.30908104413686
 20
387.9788319091085
 10
421.4270957915531
 20
383.00667082285935
 10
423.53699554962935
 20
378.1029115774948
 10
423.6331100830274
 20
377.9006739949563
 10
426.1793194823332
 20
373.0216597067173
 10
426.2022778384592
 20
372.97852726565736
 10
428.88690329762966
 20
368.032394735664
 10
428.92285985607975
 20
367.9680470431901
 10
431.7719632825756
 20
363.0132549374943
 10
431.7873416982017
 20
362.98682344165127
 10
434.70325584639266
 20
358.0333787876465
 10
434.7225797098319
 20
357.9998128836357
 10
437.5224157382465
 20
353.0256708823629
 10
437.53673792181
 20
352.99978013459906
 10
440.2524791780357
 20
348.0035329264423
 10
442.9419608636101
 20
343.07943263516086
 10
443.03344214652753
 20
342.92332632997915
 10
446.11047276646633
 20
338.0179940835138
 10
446.1333011933758
 20
337.9821675521582
 10
449.3385504291962
 20
333.0296327350962
 10
449.3574655863177
 20
332.9998330865157
 10
452.0724376698518
 20
328.6379669415269
 10
452.23399684394997
 20
328.3174586195888
 10
452.33566722313117
 20
327.97323473145207
 10
452.3741743361519
 20
327.6163816056234
 10
452.34827799451995
 20
327.2583923171567
 10
451.73307748509126
 20
323.4956635581744
 10
451.65389064589056
 20
323.17769686610063
 10
451.5238462563344
 20
322.8769281351529
 10
451.34643514260193
 20
322.6014310035977
 10
448.2975485157469
 20
318.625045675326
 10
448.0163020857817
 20
318.1612484502407
 10
447.8773134376354
 20
317.7515559103234
 10
447.818295816788
 20
317.21236731549345
 10
447.818295816788
 20
258.11519030726754
 10
447.82712974727633
 20
257.88514892877987
 10
448.2025066350914
 20
253.00482552868885
 10
448.2028719582066
 20
252.999999557973
 10
448.5735584281033
 20
248.02318242599966
 10
448.57647269779994
 20
247.97677978376646
 10
448.8298104270205
 20
243.0231969196356
 10
448.8316441124017
 20
242.97678019387382
 10
448.96994429453093
 20
238.015878724113
 10
448.97032389820305
 20
237.99999849250298
 10
449.0694670563791
 20
233.0256915028162
 10
449.06983077042145
 20
232.9742763343978
 10
449.04120579486676
 20
228.02236304487838
 10
449.04044718892794
 20
227.977643891629
 10
448.90108744261477
 20
223.02724529310677
 10
448.90013484866154
 20
223.00000649099837
 10
448.692538837671
 20
218.0331110073893
 10
448.69087639344116
 20
217.99993964841678
 10
448.4005511199861
 20
213.03241967728118
 10
448.39838512138357
 20
212.9999082022965
 10
448.02619602120035
 20
208.02473968764963
 10
448.02418275026287
 20
207.99990767269546
 10
447.58934289421137
 20
203.02167397111143
 10
447.5873258835024
 20
202.9999499229719
 10
447.0988383849635
 20
198.0331812884802
 10
447.0952932432752
 20
197.99998271246912
 10
446.5208398883064
 20
193.01495737583093
 10
446.5190465180984
 20
192.99989710187205
 10
445.9067151685452
 20
188.0186257419539
 10
445.90433528249133
 20
187.99998884706505
 10
445.24589359759904
 20
183.02964728286037
 10
445.24173956974846
 20
182.99999648646212
 10
444.50710445281044
 20
178.02746275174906
 10
444.4982132504335
 20
177.9725701904917
 10
443.628303239127
 20
173.03760879627274
 10
443.62131533105895
 20
173.00006671638073
 10
442.64555127610953
 20
168.02246250257028
 10
442.63620044204833
 20
167.97750231008436
 10
441.5484682855284
 20
163.0329714586713
 10
441.5328516838955
 20
162.9672868072367
 10
440.26875615793404
 20
158.0228187335544
 10
440.25655234764884
 20
157.97732336742027
 10
438.8691583773466
 20
153.038344935908
 10
438.85800630840816
 20
153.00011104422993
 10
437.3527272831805
 20
148.02424646494194
 10
437.33739714182036
 20
147.97580031260205
 10
435.7007235523977
 20
143.0232330560725
 10
435.6929039026673
 20
143.0000478373156
 10
434.0115382204208
 20
138.1137187656955
 10
433.9424928680462
 20
137.8834565517111
 10
432.78313815029634
 20
133.36648069905698
 10
432.6890749670349
 20
132.62164040222785
 10
432.6890749670349
 20
73.09439557880894
 10
432.6801741662648
 20
72.90591751953927
 10
432.22407226735584
 20
68.08761596654267
 10
432.2126357267366
 20
67.9120474865687
 10
432.03902477685443
 20
63.05354747008725
 10
432.03711134120266
 20
62.94641835399334
 10
432.03711134120266
 20
58.57434572927272
 10
432.0024550940164
 20
58.20363838745712
 10
431.89968740792665
 20
57.84577837091324
 10
431.7323698252653
 20
57.51316776483252
 10
429.12651230100096
 20
53.35024483927202
 10
428.87674243696154
 20
53.02919176318997
 10
428.56717991351707
 20
52.76531469574627
 10
422.60531077023734
 20
48.65122114899404
 10
422.23725860042913
 20
48.340770871369884
 10
421.99659379451606
 20
48.04116791446664
 10
421.8179826852616
 20
47.70090396950492
 10
421.70808197377943
 20
47.33266041666781
 10
421.6616046465145
 20
46.853409300208014
 10
421.6616046465145
 20
20.0
 10
421.62317520732097
 20
19.609819355967744
 10
421.50936371153705
 20
19.234633135269817
 10
421.3245438711196
 20
18.888859533960797
 10
421.0758182088876
 20
18.585786437626908
 10
420.7727451125537
 20
18.33706077539491
 10
420.4269715112447
 20
18.152240934977428
 10
420.0517852905468
 20
18.038429439193536
 10
419.6616046465145
 20
18.0
 10
178.56417787401628
 20
18.0
 10
178.56417787401628
 20
0.0
 10
148.56417787401628
 20
0.0
 10
148.56417787401628
 20
18.0
 10
141.87386035969337
 20
18.0
 10
141.4836797156611
 20
18.038429439193543
 10
141.1084934949632
 20
18.152240934977428
 10
140.76271989365415
 20
18.33706077539491
 10
140.45964679732026
 20
18.585786437626908
 10
140.21092113508828
 20
18.888859533960797
 10
140.02610129467078
 20
19.234633135269817
 10
139.91228979888692
 20
19.609819355967744
 10
139.87386035969337
 20
20.0
 10
139.87386035969337
 20
20.974200355855565
 10
139.82808342309417
 20
21.449869003744958
 10
139.7198144010722
 20
21.815586751095033
 10
139.5437872292535
 20
22.15394467790933
 10
139.30646321447958
 20
22.452522915341362
 10
139.01655364412952
 20
22.70036175990777
 10
138.68470002696
 20
22.888363963692512
 10
138.32308348265127
 20
23.009628660693387
 10
137.84935377179045
 20
23.072369011003808
 10
1.9285526471356833
 20
27.93106100588858
 10
1.5486917834409282
 20
27.98136944783562
 10
1.185396776239124
 20
28.10319700153471
 10
0.8520028424243868
 20
28.29207182779168
 10
0.5607476410079026
 20
28.541061029858575
 10
0.32232207388877043
 20
28.841025134447747
 10
0.14547786236127735
 20
29.1809535680147
 10
0.036706303774516114
 20
29.548368814215337
 10
0.0
 20
29.929784417411213
 10
0.0
 20
573.0
 10
0.03842943919353914
 20
573.3901806440323
 10
0.15224093497742652
 20
573.7653668647301
 10
0.3370607753949093
 20
574.1111404660392
 10
0.5857864376269051
 20
574.4142135623731
 10
0.8888595339607961
 20
574.6629392246051
 10
1.2346331352698205
 20
574.8477590650226
 10
1.6098193559677436
 20
574.9615705608064
  0
LWPOLYLINE
  5
91
330
17
100
AcDbEntity
  8
CUT_IN
100
AcDbPolyline
 90
55
 70
1
 10
60.926457135307565
 20
284.2522225211328
 10
61.02867965644036
 20
285.0286796564404
 10
60.92645713530756
 20
285.80513679174794
 10
60.626755867793676
 20
286.5286796564404
 10
60.15
 20
287.15
 10
59.52867965644036
 20
287.6267558677937
 10
58.80513679174792
 20
287.92645713530754
 10
58.02867965644036
 20
288.0286796564404
 10
57.25222252113279
 20
287.92645713530754
 10
56.52867965644036
 20
287.6267558677937
 10
55.907359312880715
 20
287.15
 10
34.092640687119285
 20
287.15
 10
33.47132034355964
 20
287.6267558677937
 10
32.74777747886721
 20
287.92645713530754
 10
31.97132034355964
 20
288.0286796564404
 10
31.194863208252077
 20
287.92645713530754
 10
30.47132034355964
 20
287.6267558677937
 10
29.849999999999998
 20
287.15
 10
29.373244132206324
 20
286.5286796564404
 10
29.073542864692435
 20
285.80513679174794
 10
28.97132034355964
 20
285.0286796564404
 10
29.073542864692435
 20
284.2522225211328
 10
29.373244132206324
 20
283.5286796564404
 10
29.85
 20
282.9073593128807
 10
29.85
 20
273.0926406871193
 10
29.849999999999998
 20
273.0926406871193
 10
29.373244132206324
 20
272.4713203435596
 10
29.073542864692435
 20
271.7477774788672
 10
28.97132034355964
 20
270.9713203435596
 10
29.073542864692435
 20
270.19486320825206
 10
29.373244132206324
 20
269.4713203435596
 10
29.85
 20
268.85
 10
30.47132034355964
 20
268.3732441322063
 10
31.19486320825208
 20
268.07354286469246
 10
31.97132034355964
 20
267.9713203435596
 10
32.74777747886721
 20
268.07354286469246
 10
33.47132034355964
 20
268.3732441322063
 10
34.092640687119285
 20
268.85
 10
55.907359312880715
 20
268.85
 10
56.52867965644036
 20
268.3732441322063
 10
57.25222252113279
 20
268.07354286469246
 10
58.02867965644036
 20
267.9713203435596
 10
58.80513679174792
 20
268.07354286469246
 10
59.52867965644036
 20
268.3732441322063
 10
60.150000000000006
 20
268.85
 10
60.626755867793676
 20
269.4713203435596
 10
60.926457135307565
 20
270.19486320825206
 10
61.02867965644036
 20
270.9713203435596
 10
60.92645713530756
 20
271.7477774788672
 10
60.626755867793676
 20
272.4713203435596
 10
60.15
 20
273.0926406871193
 10
60.15
 20
282.9073593128807
 10
60.150000000000006
 20
282.9073593128807
 10
60.626755867793676
 20
283.5286796564404
 10
60.926457135307565
 20
284.2522225211328
  0
LWPOLYLINE
  5
92
330
17
100
AcDbEntity
  8
CUT_IN
100
AcDbPolyline
 90
53
 70
1
 10
195.92645713530757
 20
284.2522225211328
 10
196.02867965644037
 20
285.0286796564404
 10
195.92645713530757
 20
285.80513679174794
 10
195.62675586779366
 20
286.5286796564404
 10
195.15
 20
287.15
 10
194.52867965644035
 20
287.6267558677937
 10
193.8051367917479
 20
287.92645713530754
 10
193.02867965644035
 20
288.0286796564404
 10
192.2522225211328
 20
287.92645713530754
 10
191.52867965644035
 20
287.6267558677937
 10
190.90735931288071
 20
287.15
 10
169.09264068711929
 20
287.15
 10
168.47132034355963
 20
287.6267558677937
 10
167.7477774788672
 20
287.92645713530754
 10
166.97132034355965
 20
288.0286796564404
 10
166.1948632082521
 20
287.92645713530754
 10
165.47132034355963
 20
287.6267558677937
 10
164.85
 20
287.15
 10
164.37324413220634
 20
286.5286796564404
 10
164.07354286469243
 20
285.80513679174794
 10
163.97132034355963
 20
285.0286796564404
 10
164.07354286469243
 20
284.2522225211328
 10
164.37324413220634
 20
283.5286796564404
 10
164.85
 20
282.9073593128807
 10
164.85
 20
273.0926406871193
 10
164.37324413220634
 20
272.4713203435596
 10
164.07354286469243
 20
271.7477774788672
 10
163.97132034355963
 20
270.9713203435596
 10
164.07354286469243
 20
270.19486320825206
 10
164.37324413220634
 20
269.4713203435596
 10
164.85
 20
268.85
 10
165.47132034355965
 20
268.3732441322063
 10
166.1948632082521
 20
268.07354286469246
 10
166.97132034355965
 20
267.9713203435596
 10
167.7477774788672
 20
268.07354286469246
 10
168.47132034355965
 20
268.3732441322063
 10
169.09264068711929
 20
268.85
 10
190.90735931288071
 20
268.85
 10
191.52867965644035
 20
268.3732441322063
 10
192.2522225211328
 20
268.07354286469246
 10
193.02867965644035
 20
267.9713203435596
 10
193.8051367917479
 20
268.07354286469246
 10
194.52867965644035
 20
268.3732441322063
 10
195.15
 20
268.85
 10
195.62675586779366
 20
269.4713203435596
 10
195.92645713530757
 20
270.19486320825206
 10
196.02867965644037
 20
270.9713203435596
 10
195.92645713530757
 20
271.7477774788672
 10
195.62675586779366
 20
272.4713203435596
 10
195.15
 20
273.0926406871193
 10
195.15
 20
282.9073593128807
 10
195.62675586779366
 20
283.5286796564404
 10
195.92645713530757
 20
284.2522225211328
  0
LWPOLYLINE
  5
93
330
17
100
AcDbEntity
  8
CUT_IN
100
AcDbPolyline
 90
53
 70
1
 10
414.5981479193194
 20
284.2522225211328
 10
414.7003704404522
 20
285.0286796564404
 10
414.5981479193194
 20
285.80513679174794
 10
414.29844665180553
 20
286.5286796564404
 10
413.8216907840118
 20
287.15
 10
413.2003704404522
 20
287.6267558677937
 10
412.4768275757598
 20
287.92645713530754
 10
411.7003704404522
 20
288.0286796564404
 10
410.92391330514465
 20
287.92645713530754
 10
410.2003704404522
 20
287.6267558677937
 10
409.57905009689256
 20
287.15
 10
387.76433147113113
 20
287.15
 10
387.14301112757147
 20
287.6267558677937
 10
386.41946826287904
 20
287.92645713530754
 10
385.64301112757147
 20
288.0286796564404
 10
384.8665539922639
 20
287.92645713530754
 10
384.14301112757147
 20
287.6267558677937
 10
383.52169078401187
 20
287.15
 10
383.04493491621815
 20
286.5286796564404
 10
382.7452336487043
 20
285.80513679174794
 10
382.64301112757147
 20
285.0286796564404
 10
382.7452336487043
 20
284.2522225211328
 10
383.04493491621815
 20
283.5286796564404
 10
383.52169078401187
 20
282.9073593128807
 10
383.52169078401187
 20
273.0926406871193
 10
383.04493491621815
 20
272.4713203435596
 10
382.7452336487043
 20
271.7477774788672
 10
382.64301112757147
 20
270.9713203435596
 10
382.7452336487043
 20
270.19486320825206
 10
383.04493491621815
 20
269.4713203435596
 10
383.52169078401187
 20
268.85
 10
384.14301112757147
 20
268.3732441322063
 10
384.8665539922639
 20
268.07354286469246
 10
385.64301112757147
 20
267.9713203435596
 10
386.41946826287904
 20
268.07354286469246
 10
387.14301112757147
 20
268.3732441322063
 10
387.76433147113113
 20
268.85
 10
409.57905009689256
 20
268.85
 10
410.2003704404522
 20
268.3732441322063
 10
410.92391330514465
 20
268.07354286469246
 10
411.7003704404522
 20
267.9713203435596
 10
412.4768275757598
 20
268.07354286469246
 10
413.2003704404522
 20
268.3732441322063
 10
413.8216907840118
 20
268.85
 10
414.29844665180553
 20
269.4713203435596
 10
414.5981479193194
 20
270.19486320825206
 10
414.7003704404522
 20
270.9713203435596
 10
414.5981479193194
 20
271.7477774788672
 10
414.29844665180553
 20
272.4713203435596
 10
413.8216907840118
 20
273.0926406871193
 10
413.8216907840118
 20
282.9073593128807
 10
414.29844665180553
 20
283.5286796564404
 10
414.5981479193194
 20
284.2522225211328
  0
LWPOLYLINE
  5
94
330
17
100
AcDbEntity
  8
CUT_IN
100
AcDbPolyline
 90
89
 70
1
 10
155.31942295889283
 20
59.24714341230275
 10
157.79084136552075
 20
57.9996083287689
 10
159.28035955326638
 20
57.340590800490276
 10
160.82916044320365
 20
56.836423826628405
 10
162.42119356647805
 20
56.49233216936159
 10
164.0399604317558
 20
56.311881705016404
 10
165.66868550170173
 20
56.29694247032681
 10
167.290490040529
 20
56.44766928294733
 10
168.88856703101052
 20
56.76250013705318
 10
170.37955810267488
 20
57.13597395826676
 10
171.14909171884565
 20
57.28904371163753
 10
174.25496553535936
 20
57.74975657137958
 10
175.0357970963298
 20
57.82666176760512
 10
178.36805499943765
 20
57.990365101004215
 10
178.76053727208946
 20
58.0
 10
208.0
 20
58.0
 10
209.56827424527296
 20
58.077044373244846
 10
211.12144515225805
 20
58.30743551354831
 10
212.6445548360714
 20
58.68895462828466
 10
214.12293491784143
 20
59.21792747981941
 10
215.54234778921597
 20
59.88925977042632
 10
216.88912372831365
 20
60.69648620315928
 10
218.15029254661832
 20
61.63183274619621
 10
219.31370849898477
 20
62.68629150101523
 10
220.3681672538038
 20
63.84970745338167
 10
221.30351379684072
 20
65.11087627168637
 10
222.11074022957368
 20
66.45765221078403
 10
222.78207252018058
 20
67.87706508215857
 10
223.31104537171535
 20
69.35544516392861
 10
223.6925644864517
 20
70.87855484774195
 10
223.92295562675514
 20
72.43172575472703
 10
224.0
 20
74.0
 10
224.0
 20
77.0
 10
223.92295562675514
 20
78.56827424527297
 10
223.6925644864517
 20
80.12144515225805
 10
223.31104537171535
 20
81.64455483607139
 10
222.78207252018058
 20
83.12293491784143
 10
222.11074022957368
 20
84.54234778921597
 10
221.30351379684072
 20
85.88912372831363
 10
220.3681672538038
 20
87.15029254661833
 10
219.31370849898477
 20
88.31370849898477
 10
218.15029254661832
 20
89.36816725380379
 10
216.88912372831365
 20
90.30351379684072
 10
215.54234778921597
 20
91.11074022957368
 10
214.12293491784143
 20
91.78207252018059
 10
212.6445548360714
 20
92.31104537171534
 10
211.12144515225805
 20
92.69256448645169
 10
209.56827424527296
 20
92.92295562675515
 10
208.0
 20
93.0
 10
155.09817600252237
 20
93.0
 10
154.90185356625423
 20
93.00240935971337
 10
154.1167929471969
 20
93.02168151618321
 10
153.92058876822497
 20
93.02890814401502
 10
153.58215236389648
 20
93.04553445840699
 10
152.02804688679674
 20
93.04631535158077
 10
150.4811967916266
 20
92.8963179288776
 10
148.95619591079875
 20
92.59695734827305
 10
147.46743193925124
 20
92.15105794171632
 10
146.02895069304003
 20
91.56282656883299
 10
144.65432359340474
 20
90.83781292710351
 10
143.35651962653526
 20
89.98285719297252
 10
142.14778298704124
 20
89.0060254878717
 10
141.03951755950263
 20
87.916533778005
 10
140.04217932796658
 20
86.72466092586762
 10
139.16517772845748
 20
85.44165171381803
 10
138.41678687519558
 20
84.07961075463236
 10
137.804067498064
 20
82.6513882899466
 10
137.33280032780962
 20
81.17045895402742
 10
137.0074315574577
 20
79.65079464668017
 10
136.8310308944878
 20
78.10673271468089
 10
136.80526259952927
 20
76.5528406853814
 10
136.93036978481342
 20
75.0037788286643
 10
137.20517212051945
 20
73.47416184391416
 10
137.62707697065343
 20
71.97842097692585
 10
138.19210385339866
 20
70.53066786761447
 10
138.89492199516488
 20
69.14456141306277
 10
139.7289006240307
 20
67.83317890199262
 10
140.68617152808375
 20
66.60889263644889
 10
141.75770328844834
 20
65.4832532047144
 10
142.93338648664587
 20
64.4668805067234
 10
144.20212908239495
 20
63.569363560099276
 10
145.5519610620044
 20
62.79917003210183
 10
146.9701473700495
 20
62.1635663510088
 10
148.44330805887122
 20
61.66854915064512
 10
150.85603289725228
 20
60.986277617929815
 10
151.2214835930595
 20
60.873402394245105
 10
151.5811012463041
 20
60.74313278665346
 10
154.619112427645
 20
59.55946091292148
 10
155.31942295889283
 20
59.24714341230275
  0
LWPOLYLINE
  5
95
330
17
100
AcDbEntity
  8
CUT_IN
100
AcDbPolyline
 90
69
 70
1
 10
264.68895462828465
 20
69.35544516392861
 10
265.2179274798194
 20
67.87706508215857
 10
265.8892597704263
 20
66.45765221078403
 10
266.6964862031593
 20
65.11087627168637
 10
267.6318327461962
 20
63.84970745338168
 10
268.68629150101526
 20
62.68629150101523
 10
269.84970745338165
 20
61.63183274619621
 10
271.1108762716864
 20
60.69648620315928
 10
272.45765221078403
 20
59.88925977042632
 10
273.87706508215854
 20
59.21792747981942
 10
275.3554451639286
 20
58.68895462828466
 10
276.87855484774195
 20
58.30743551354831
 10
278.43172575472704
 20
58.077044373244846
 10
280.0
 20
58.0
 10
348.0
 20
58.0
 10
349.56827424527296
 20
58.077044373244846
 10
351.12144515225805
 20
58.30743551354831
 10
352.6445548360714
 20
58.68895462828466
 10
354.12293491784146
 20
59.21792747981941
 10
355.54234778921597
 20
59.88925977042632
 10
356.8891237283136
 20
60.69648620315928
 10
358.15029254661835
 20
61.63183274619621
 10
359.31370849898474
 20
62.68629150101523
 10
360.3681672538038
 20
63.84970745338167
 10
361.3035137968407
 20
65.11087627168637
 10
362.1107402295737
 20
66.45765221078403
 10
362.7820725201806
 20
67.87706508215857
 10
363.31104537171535
 20
69.35544516392861
 10
363.6925644864517
 20
70.87855484774195
 10
363.92295562675514
 20
72.43172575472703
 10
364.0
 20
74.0
 10
364.0
 20
111.06514834283396
 10
363.92295562675514
 20
112.63342258810692
 10
363.6925644864517
 20
114.18659349509201
 10
363.31104537171535
 20
115.70970317890536
 10
362.7820725201806
 20
117.1880832606754
 10
362.1107402295737
 20
118.60749613204993
 10
361.3035137968407
 20
119.95427207114761
 10
360.3681672538038
 20
121.21544088945228
 10
359.31370849898474
 20
122.37885684181873
 10
358.15029254661835
 20
123.43331559663775
 10
356.8891237283136
 20
124.36866213967468
 10
355.54234778921597
 20
125.17588857240764
 10
354.12293491784146
 20
125.84722086301454
 10
352.6445548360714
 20
126.37619371454932
 10
351.12144515225805
 20
126.75771282928565
 10
349.56827424527296
 20
126.9881039695891
 10
348.0
 20
127.06514834283396
 10
280.0
 20
127.06514834283396
 10
278.43172575472704
 20
126.9881039695891
 10
276.87855484774195
 20
126.75771282928565
 10
275.3554451639286
 20
126.37619371454932
 10
273.87706508215854
 20
125.84722086301454
 10
272.45765221078403
 20
125.17588857240764
 10
271.1108762716864
 20
124.36866213967468
 10
269.84970745338165
 20
123.43331559663775
 10
268.68629150101526
 20
122.37885684181873
 10
267.6318327461962
 20
121.21544088945228
 10
266.6964862031593
 20
119.95427207114761
 10
265.8892597704263
 20
118.60749613204993
 10
265.2179274798194
 20
117.1880832606754
 10
264.68895462828465
 20
115.70970317890536
 10
264.3074355135483
 20
114.18659349509201
 10
264.07704437324486
 20
112.63342258810692
 10
264.0
 20
111.06514834283396
 10
264.0
 20
74.0
 10
264.07704437324486
 20
72.43172575472703
 10
264.3074355135483
 20
70.87855484774195
 10
264.68895462828465
 20
69.35544516392861
  0
LWPOLYLINE
  5
96
330
17
100
AcDbEntity
  8
CUT_IN
100
AcDbPolyline
 90
88
 70
1
 10
265.501023891869
 20
206.05539174467384
 10
265.9301897908926
 20
204.34206543540884
 10
266.0162090509628
 20
203.95900427512169
 10
266.32249854996587
 20
202.41918298075993
 10
266.38961827580954
 20
202.0323624693785
 10
266.648782278441
 20
200.28522068044194
 10
266.6968407727599
 20
199.89557270245678
 10
266.85072652421576
 20
198.33314444769982
 10
266.87960800988753
 20
197.94160769922013
 10
266.9710918559849
 20
196.0794112317757
 10
266.97831848381685
 20
195.88320705280125
 10
266.99759064028655
 20
195.09814643374867
 10
267.0
 20
194.9018239974759
 10
267.0
 20
183.06514834283396
 10
267.07704437324486
 20
181.496874097561
 10
267.3074355135483
 20
179.94370319057592
 10
267.68895462828465
 20
178.42059350676257
 10
268.2179274798194
 20
176.94221342499253
 10
268.8892597704263
 20
175.522800553618
 10
269.6964862031593
 20
174.17602461452034
 10
270.6318327461962
 20
172.91485579621565
 10
271.68629150101526
 20
171.7514398438492
 10
272.84970745338165
 20
170.69698108903017
 10
274.1108762716864
 20
169.76163454599325
 10
275.45765221078403
 20
168.95440811326029
 10
276.87706508215854
 20
168.2830758226534
 10
278.3554451639286
 20
167.7541029711186
 10
279.87855484774195
 20
167.37258385638228
 10
281.43172575472704
 20
167.14219271607882
 10
283.0
 20
167.06514834283396
 10
348.0
 20
167.06514834283396
 10
349.56827424527296
 20
167.14219271607882
 10
351.12144515225805
 20
167.37258385638228
 10
352.6445548360714
 20
167.7541029711186
 10
354.12293491784146
 20
168.2830758226534
 10
355.54234778921597
 20
168.95440811326029
 10
356.8891237283136
 20
169.76163454599325
 10
358.15029254661835
 20
170.69698108903017
 10
359.31370849898474
 20
171.7514398438492
 10
360.3681672538038
 20
172.91485579621565
 10
361.3035137968407
 20
174.17602461452032
 10
362.1107402295737
 20
175.522800553618
 10
362.7820725201806
 20
176.94221342499253
 10
363.31104537171535
 20
178.42059350676257
 10
363.6925644864517
 20
179.94370319057592
 10
363.92295562675514
 20
181.496874097561
 10
364.0
 20
183.06514834283396
 10
364.0
 20
223.0
 10
363.92295562675514
 20
224.56827424527296
 10
363.6925644864517
 20
226.12144515225805
 10
363.31104537171535
 20
227.6445548360714
 10
362.7820725201806
 20
229.12293491784146
 10
362.1107402295737
 20
230.54234778921597
 10
361.3035137968407
 20
231.88912372831362
 10
360.3681672538038
 20
233.15029254661835
 10
359.31370849898474
 20
234.31370849898474
 10
358.15029254661835
 20
235.3681672538038
 10
356.8891237283136
 20
236.30351379684072
 10
355.54234778921597
 20
237.1107402295737
 10
354.12293491784146
 20
237.78207252018058
 10
352.6445548360714
 20
238.31104537171535
 10
351.12144515225805
 20
238.69256448645172
 10
349.56827424527296
 20
238.92295562675514
 10
348.0
 20
239.0
 10
280.0
 20
239.0
 10
278.43172575472704
 20
238.92295562675514
 10
276.87855484774195
 20
238.69256448645172
 10
275.3554451639286
 20
238.31104537171535
 10
273.87706508215854
 20
237.78207252018058
 10
272.45765221078403
 20
237.1107402295737
 10
271.1108762716864
 20
236.30351379684072
 10
269.84970745338165
 20
235.3681672538038
 10
268.68629150101526
 20
234.31370849898474
 10
267.6318327461962
 20
233.15029254661835
 10
266.6964862031593
 20
231.88912372831362
 10
265.8892597704263
 20
230.54234778921597
 10
265.2179274798194
 20
229.12293491784146
 10
264.68895462828465
 20
227.6445548360714
 10
264.3074355135483
 20
226.12144515225805
 10
264.07704437324486
 20
224.56827424527296
 10
264.0
 20
223.0
 10
264.0
 20
213.35771997579488
 10
264.0904075227309
 20
211.65923029162744
 10
264.3606084009029
 20
209.97993513805122
 10
264.8075491105115
 20
208.33881212941228
 10
264.9405688142646
 20
207.93615573912612
 10
265.396312325504
 20
206.4337707259793
 10
265.501023891869
 20
206.05539174467384
  0
LWPOLYLINE
  5
97
330
17
100
AcDbEntity
  8
CUT_IN
100
AcDbPolyline
 90
74
 70
1
 10
349.56827424527296
 20
317.07704437324486
 10
351.12144515225805
 20
317.3074355135483
 10
352.6445548360714
 20
317.68895462828465
 10
354.12293491784146
 20
318.2179274798194
 10
355.54234778921597
 20
318.8892597704263
 10
356.8891237283136
 20
319.6964862031593
 10
358.15029254661835
 20
320.6318327461962
 10
359.31370849898474
 20
321.68629150101526
 10
360.3681672538038
 20
322.84970745338165
 10
361.3035137968407
 20
324.1108762716864
 10
362.1107402295737
 20
325.45765221078403
 10
362.7820725201806
 20
326.87706508215854
 10
363.31104537171535
 20
328.3554451639286
 10
363.6925644864517
 20
329.87855484774195
 10
363.92295562675514
 20
331.43172575472704
 10
364.0
 20
333.0
 10
364.0
 20
391.06514834283394
 10
363.92295562675514
 20
392.6334225881069
 10
363.6925644864517
 20
394.186593495092
 10
363.31104537171535
 20
395.70970317890533
 10
362.7820725201806
 20
397.1880832606754
 10
362.1107402295737
 20
398.6074961320499
 10
361.3035137968407
 20
399.95427207114756
 10
360.3681672538038
 20
401.2154408894523
 10
359.31370849898474
 20
402.3788568418187
 10
358.15029254661835
 20
403.4333155966377
 10
356.8891237283136
 20
404.36866213967465
 10
355.54234778921597
 20
405.17588857240764
 10
354.12293491784146
 20
405.8472208630145
 10
352.6445548360714
 20
406.3761937145493
 10
351.12144515225805
 20
406.75771282928565
 10
349.56827424527296
 20
406.9881039695891
 10
348.0
 20
407.06514834283394
 10
283.0
 20
407.06514834283394
 10
281.43172575472704
 20
406.9881039695891
 10
279.87855484774195
 20
406.75771282928565
 10
278.3554451639286
 20
406.3761937145493
 10
276.87706508215854
 20
405.8472208630145
 10
275.45765221078403
 20
405.17588857240764
 10
274.1108762716864
 20
404.36866213967465
 10
272.84970745338165
 20
403.4333155966377
 10
271.68629150101526
 20
402.3788568418187
 10
270.6318327461962
 20
401.2154408894523
 10
269.6964862031593
 20
399.95427207114756
 10
268.8892597704263
 20
398.6074961320499
 10
268.2179274798194
 20
397.1880832606754
 10
267.68895462828465
 20
395.70970317890533
 10
267.3074355135483
 20
394.186593495092
 10
267.07704437324486
 20
392.6334225881069
 10
267.0
 20
391.06514834283394
 10
267.0
 20
335.0981760025241
 10
266.99759064028655
 20
334.9018535662513
 10
266.97831848381685
 20
334.116792947199
 10
266.9710918559849
 20
333.92058876822375
 10
266.9644348741125
 20
333.7850827892399
 10
266.9622345765572
 20
332.2610646616693
 10
267.1050441404541
 20
330.7437507445998
 10
267.3915678835855
 20
329.2469073195566
 10
267.81920623412424
 20
327.7841149434411
 10
268.3840793160223
 20
326.368645234892
 10
269.0810621503388
 20
325.01334046358
 10
269.9038311531356
 20
323.73049703489903
 10
270.8449215080716
 20
322.53175392717344
 10
271.89579489316804
 20
321.42798709356725
 10
273.0469169472729
 20
320.42921078676653
 10
274.2878437733861
 20
319.54448670169495
 10
275.60731669401963
 20
318.78184176059335
 10
276.9933643988956
 20
318.14819528638145
 10
278.43341155821713
 20
317.6492962250443
 10
279.91439291608583
 20
317.2896709866105
 10
281.42287182891954
 20
317.0725823779523
 10
282.9451621733952
 20
317.0
 10
348.0
 20
317.0
 10
349.56827424527296
 20
317.07704437324486
  0
LWPOLYLINE
  5
98
330
17
100
AcDbEntity
  8
CUT_IN
100
AcDbPolyline
 90
94
 70
1
 10
264.0
 20
463.06514834283394
 10
264.07704437324486
 20
461.496874097561
 10
264.3074355135483
 20
459.9437031905759
 10
264.68895462828465
 20
458.42059350676254
 10
265.2179274798194
 20
456.9422134249925
 10
265.8892597704263
 20
455.52280055361797
 10
266.6964862031593
 20
454.1760246145203
 10
267.6318327461962
 20
452.9148557962156
 10
268.68629150101526
 20
451.7514398438492
 10
269.84970745338165
 20
450.69698108903015
 10
271.1108762716864
 20
449.7616345459932
 10
272.45765221078403
 20
448.95440811326023
 10
273.87706508215854
 20
448.28307582265336
 10
275.3554451639286
 20
447.7541029711186
 10
276.87855484774195
 20
447.3725838563823
 10
278.43172575472704
 20
447.1421927160788
 10
280.0
 20
447.06514834283394
 10
348.0
 20
447.06514834283394
 10
349.56827424527296
 20
447.1421927160788
 10
351.12144515225805
 20
447.3725838563822
 10
352.6445548360714
 20
447.7541029711186
 10
354.12293491784146
 20
448.28307582265336
 10
355.54234778921597
 20
448.95440811326023
 10
356.8891237283136
 20
449.7616345459932
 10
358.15029254661835
 20
450.69698108903015
 10
359.31370849898474
 20
451.7514398438492
 10
360.3681672538038
 20
452.9148557962156
 10
361.3035137968407
 20
454.1760246145203
 10
362.1107402295737
 20
455.52280055361797
 10
362.7820725201806
 20
456.9422134249925
 10
363.31104537171535
 20
458.42059350676254
 10
363.6925644864517
 20
459.9437031905759
 10
363.92295562675514
 20
461.496874097561
 10
364.0
 20
463.06514834283394
 10
364.0
 20
503.40926698939245
 10
363.8930802913552
 20
505.2558852099613
 10
363.57375014343285
 20
507.07782344526504
 10
363.21359403997064
 20
508.60675757383046
 10
363.1813877165676
 20
508.7408864441576
 10
361.96095773875567
 20
513.7287737796573
 10
360.9025466200118
 20
518.1479354729963
 10
360.82334176779125
 20
518.4643624729076
 10
359.67359500966404
 20
522.8666484848991
 10
359.63630979709757
 20
523.010471161083
 10
359.150725770722
 20
524.5565268649998
 10
358.51124501363194
 20
526.0455347385841
 10
357.7244273995843
 20
527.462220352441
 10
356.7983442022813
 20
528.7920511679803
 10
355.7424952992335
 20
530.0213856140191
 10
354.5677117208253
 20
531.1376130237287
 10
353.2860445442479
 20
532.1292829964358
 10
351.9106412720391
 20
532.9862228572672
 10
350.45561096335405
 20
533.6996420097245
 10
348.9358795014686
 20
534.2622221107235
 10
347.36703648219736
 20
534.6681921430763
 10
345.76517529386615
 20
534.913387615308
 10
344.1467280293175
 20
534.9952932815323
 10
282.99842479272473
 20
534.989273203245
 10
281.4302561155738
 20
534.9120840922374
 10
279.87720303672774
 20
534.681568814778
 10
278.35422043304186
 20
534.2999470809557
 10
276.8759736225282
 20
533.7708936563739
 10
275.4566971470154
 20
533.099502976582
 10
274.1100577028992
 20
532.2922400910201
 10
272.84902253986957
 20
531.3568784088574
 10
271.6857345948488
 20
530.3024248461887
 10
270.63139556351734
 20
529.1390330953727
 10
269.69615803537283
 20
527.8779058516715
 10
268.8890277309887
 20
526.5311869386833
 10
268.21777678286486
 20
525.1118443713309
 10
267.68886889491773
 20
523.633545482431
 10
267.3073971012747
 20
522.1105253152926
 10
267.07703472371423
 20
520.5574495496392
 10
267.0
 20
518.9892732807849
 10
267.0
 20
495.09817600252416
 10
266.99759064028655
 20
494.90185356625136
 10
266.97831848381685
 20
494.116792947199
 10
266.9710918559849
 20
493.9205887682241
 10
266.87960800988753
 20
492.0583923007796
 10
266.85072652421576
 20
491.66685555230004
 10
266.69684077275986
 20
490.10442729754277
 10
266.64878227844105
 20
489.71477931955883
 10
266.3896182758097
 20
487.9676375306226
 10
266.3224985499655
 20
487.5808170192379
 10
266.0162090509632
 20
486.0409957248804
 10
265.9301897908922
 20
485.6579345645896
 10
265.50102389186895
 20
483.9446082553259
 10
265.3963123255041
 20
483.5662292740209
 10
264.9405688142646
 20
482.063844260874
 10
264.8075491105112
 20
481.6611878705868
 10
264.3606084009028
 20
480.0200648619482
 10
264.0904075227309
 20
478.34076970837225
 10
264.0
 20
476.6422800242051
 10
264.0
 20
463.06514834283394
  0
TEXT
  5
99
330
17
100
AcDbEntity
  8
TEXT
100
AcDbText
 10
289.3358453920059
 20
287.38837793389683
 30
0.0
 40
10.0
  1
БВ
 72
1
 11
289.3358453920059
 21
287.38837793389683
 31
0.0
100
AcDbText
 73
2
  0
TEXT
  5
9A
330
17
100
AcDbEntity
  8
TEXT
100
AcDbText
 10
0.0
 20
-20.0
 30
0.0
 40
8.0
  1
БВ Боковина внутренняя (стенка подлокотника и короба сиденья); Фанера берёзовая ФК 15 мм; 2 шт.
 11
0.0
 21
-20.0
 31
0.0
100
AcDbText
  0
ENDSEC
  0
SECTION
  2
OBJECTS
  0
DICTIONARY
  5
A
330
0
100
AcDbDictionary
281
1
  3
ACAD_COLOR
350
B
  3
ACAD_GROUP
350
C
  3
ACAD_LAYOUT
350
D
  3
ACAD_MATERIAL
350
E
  3
ACAD_MLEADERSTYLE
350
F
  3
ACAD_MLINESTYLE
350
10
  3
ACAD_PLOTSETTINGS
350
11
  3
ACAD_PLOTSTYLENAME
350
12
  3
ACAD_SCALELIST
350
14
  3
ACAD_TABLESTYLE
350
15
  3
ACAD_VISUALSTYLE
350
16
  3
EZDXF_META
350
2D
  0
DICTIONARY
  5
B
330
A
100
AcDbDictionary
281
1
  0
DICTIONARY
  5
C
330
A
100
AcDbDictionary
281
1
  0
DICTIONARY
  5
D
330
A
100
AcDbDictionary
281
1
  3
Model
350
1A
  3
Layout1
350
1E
  0
DICTIONARY
  5
E
330
A
100
AcDbDictionary
281
1
  3
ByBlock
350
1F
  3
ByLayer
350
20
  3
Global
350
21
  0
DICTIONARY
  5
F
330
A
100
AcDbDictionary
281
1
  3
Standard
350
2C
  0
DICTIONARY
  5
10
330
A
100
AcDbDictionary
281
1
  3
Standard
350
22
  0
DICTIONARY
  5
11
330
A
100
AcDbDictionary
281
1
  0
ACDBDICTIONARYWDFLT
  5
12
330
A
100
AcDbDictionary
281
1
  3
Normal
350
13
100
AcDbDictionaryWithDefault
340
13
  0
ACDBPLACEHOLDER
  5
13
330
12
  0
DICTIONARY
  5
14
330
A
100
AcDbDictionary
281
1
  0
DICTIONARY
  5
15
330
A
100
AcDbDictionary
281
1
  0
DICTIONARY
  5
16
330
A
100
AcDbDictionary
281
1
  3
2dWireframe
350
5A
  3
Basic
350
5B
  3
Brighten
350
5C
  3
ColorChange
350
5D
  3
Conceptual
350
5E
  3
Dim
350
5F
  3
EdgeColorOff
350
60
  3
Facepattern
350
61
  3
Flat
350
62
  3
FlatWithEdges
350
63
  3
Gouraud
350
64
  3
GouraudWithEdges
350
65
  3
Hidden
350
66
  3
JitterOff
350
67
  3
Linepattern
350
68
  3
Modeling
350
69
  3
OverhangOff
350
6A
  3
Realistic
350
6B
  3
Shaded
350
6C
  3
Shaded with edges
350
6D
  3
Shades of Gray
350
6E
  3
Sketchy
350
6F
  3
Thicken
350
70
  3
Wireframe
350
71
  3
X-Ray
350
72
  0
LAYOUT
  5
1A
330
D
100
AcDbPlotSettings
  1

  4
A3
  6

 40
7.5
 41
20.0
 42
7.5
 43
20.0
 44
420.0
 45
297.0
 46
0.0
 47
0.0
 48
0.0
 49
0.0
140
0.0
141
0.0
142
1.0
143
1.0
 70
1024
 72
1
 73
0
 74
5
  7

 75
16
 76
0
 77
2
 78
300
147
1.0
148
0.0
149
0.0
100
AcDbLayout
  1
Model
 70
1
 71
0
 10
0.0
 20
0.0
 11
420.0
 21
297.0
 12
0.0
 22
0.0
 32
0.0
 14
1e+20
 24
1e+20
 34
1e+20
 15
-1e+20
 25
-1e+20
 35
-1e+20
146
0.0
 13
0.0
 23
0.0
 33
0.0
 16
1.0
 26
0.0
 36
0.0
 17
0.0
 27
1.0
 37
0.0
 76
1
330
17
  0
LAYOUT
  5
1E
330
D
100
AcDbPlotSettings
  1

  4
A3
  6

 40
7.5
 41
20.0
 42
7.5
 43
20.0
 44
420.0
 45
297.0
 46
0.0
 47
0.0
 48
0.0
 49
0.0
140
0.0
141
0.0
142
1.0
143
1.0
 70
0
 72
1
 73
0
 74
5
  7

 75
16
 76
0
 77
2
 78
300
147
1.0
148
0.0
149
0.0
100
AcDbLayout
  1
Layout1
 70
1
 71
1
 10
0.0
 20
0.0
 11
420.0
 21
297.0
 12
0.0
 22
0.0
 32
0.0
 14
1e+20
 24
1e+20
 34
1e+20
 15
-1e+20
 25
-1e+20
 35
-1e+20
146
0.0
 13
0.0
 23
0.0
 33
0.0
 16
1.0
 26
0.0
 36
0.0
 17
0.0
 27
1.0
 37
0.0
 76
1
330
1B
  0
MATERIAL
  5
1F
102
{ACAD_REACTORS
330
E
102
}
330
E
100
AcDbMaterial
  1
ByBlock
  2

 70
0
 40
1.0
 71
1
 41
1.0
 91
-1023410177
 42
1.0
 72
1
  3

 73
1
 74
1
 75
1
 44
0.5
 73
0
 45
1.0
 46
1.0
 77
1
  4

 78
1
 79
1
170
1
 48
1.0
171
1
  6

172
1
173
1
174
1
140
1.0
141
1.0
175
1
  7

176
1
177
1
178
1
143
1.0
179
1
  8

270
1
271
1
272
1
145
1.0
146
1.0
273
1
  9

274
1
275
1
276
1
 42
1.0
 72
1
  3

 73
1
 74
1
 75
1
 94
63
  0
MATERIAL
  5
20
102
{ACAD_REACTORS
330
E
102
}
330
E
100
AcDbMaterial
  1
ByLayer
  2

 70
0
 40
1.0
 71
1
 41
1.0
 91
-1023410177
 42
1.0
 72
1
  3

 73
1
 74
1
 75
1
 44
0.5
 73
0
 45
1.0
 46
1.0
 77
1
  4

 78
1
 79
1
170
1
 48
1.0
171
1
  6

172
1
173
1
174
1
140
1.0
141
1.0
175
1
  7

176
1
177
1
178
1
143
1.0
179
1
  8

270
1
271
1
272
1
145
1.0
146
1.0
273
1
  9

274
1
275
1
276
1
 42
1.0
 72
1
  3

 73
1
 74
1
 75
1
 94
63
  0
MATERIAL
  5
21
102
{ACAD_REACTORS
330
E
102
}
330
E
100
AcDbMaterial
  1
Global
  2

 70
0
 40
1.0
 71
1
 41
1.0
 91
-1023410177
 42
1.0
 72
1
  3

 73
1
 74
1
 75
1
 44
0.5
 73
0
 45
1.0
 46
1.0
 77
1
  4

 78
1
 79
1
170
1
 48
1.0
171
1
  6

172
1
173
1
174
1
140
1.0
141
1.0
175
1
  7

176
1
177
1
178
1
143
1.0
179
1
  8

270
1
271
1
272
1
145
1.0
146
1.0
273
1
  9

274
1
275
1
276
1
 42
1.0
 72
1
  3

 73
1
 74
1
 75
1
 94
63
  0
MLINESTYLE
  5
22
102
{ACAD_REACTORS
330
10
102
}
330
10
100
AcDbMlineStyle
  2
Standard
 70
0
  3

 62
256
 51
90.0
 52
90.0
 71
2
 49
0.5
 62
256
  6
BYLAYER
 49
-0.5
 62
256
  6
BYLAYER
  0
MLEADERSTYLE
  5
2C
102
{ACAD_REACTORS
330
F
102
}
330
F
100
AcDbMLeaderStyle
179
2
170
2
171
1
172
0
 90
2
 40
0.0
 41
0.0
173
1
 91
-1056964608
 92
-2
290
1
 42
2.0
291
1
 43
8.0
  3
Standard
 44
4.0
300

342
29
174
1
175
1
176
0
178
1
 93
-1056964608
 45
4.0
292
0
297
0
 46
4.0
 94
-1056964608
 47
1.0
 49
1.0
140
1.0
294
1
141
0.0
177
0
142
1.0
295
0
296
0
143
3.75
271
0
272
9
273
9
  0
DICTIONARY
  5
2D
330
A
100
AcDbDictionary
280
1
281
1
  3
CREATED_BY_EZDXF
350
2E
  3
WRITTEN_BY_EZDXF
350
9D
  0
DICTIONARYVAR
  5
2E
330
2D
100
DictionaryVariables
280
0
  1
1.4.4 @ 2026-09-30T15:12:53.375200+00:00
  0
VISUALSTYLE
  5
5A
102
{ACAD_REACTORS
330
16
102
}
330
16
100
AcDbVisualStyle
  2
2dWireframe
 70
4
 90
0
 40
0.6
 62
7
290
0
291
0
  0
VISUALSTYLE
  5
5B
102
{ACAD_REACTORS
330
16
102
}
330
16
100
AcDbVisualStyle
  2
Basic
 70
7
 90
1
 40
0.6
 62
7
290
0
291
1
  0
VISUALSTYLE
  5
5C
102
{ACAD_REACTORS
330
16
102
}
330
16
100
AcDbVisualStyle
  2
Brighten
 70
12
 90
2
 40
0.6
 62
7
290
0
291
1
  0
VISUALSTYLE
  5
5D
102
{ACAD_REACTORS
330
16
102
}
330
16
100
AcDbVisualStyle
  2
ColorChange
 70
16
 90
2
 40
0.6
 62
8
290
0
291
1
  0
VISUALSTYLE
  5
5E
102
{ACAD_REACTORS
330
16
102
}
330
16
100
AcDbVisualStyle
  2
Conceptual
 70
9
 90
3
 40
0.6
 62
7
290
0
291
0
  0
VISUALSTYLE
  5
5F
102
{ACAD_REACTORS
330
16
102
}
330
16
100
AcDbVisualStyle
  2
Dim
 70
11
 90
2
 40
0.6
 62
7
290
0
291
1
  0
VISUALSTYLE
  5
60
102
{ACAD_REACTORS
330
16
102
}
330
16
100
AcDbVisualStyle
  2
EdgeColorOff
 70
22
 90
2
 40
0.6
 62
7
290
0
291
1
  0
VISUALSTYLE
  5
61
102
{ACAD_REACTORS
330
16
102
}
330
16
100
AcDbVisualStyle
  2
Facepattern
 70
15
 90
2
 40
0.6
 62
7
290
0
291
1
  0
VISUALSTYLE
  5
62
102
{ACAD_REACTORS
330
16
102
}
330
16
100
AcDbVisualStyle
  2
Flat
 70
0
 90
2
 40
0.6
 62
7
290
0
291
1
  0
VISUALSTYLE
  5
63
102
{ACAD_REACTORS
330
16
102
}
330
16
100
AcDbVisualStyle
  2
FlatWithEdges
 70
1
 90
2
 40
0.6
 62
7
290
0
291
1
  0
VISUALSTYLE
  5
64
102
{ACAD_REACTORS
330
16
102
}
330
16
100
AcDbVisualStyle
  2
Gouraud
 70
2
 90
2
 40
0.6
 62
7
290
0
291
1
  0
VISUALSTYLE
  5
65
102
{ACAD_REACTORS
330
16
102
}
330
16
100
AcDbVisualStyle
  2
GouraudWithEdges
 70
3
 90
2
 40
0.6
 62
7
290
0
291
1
  0
VISUALSTYLE
  5
66
102
{ACAD_REACTORS
330
16
102
}
330
16
100
AcDbVisualStyle
  2
Hidden
 70
6
 90
1
 40
0.6
 62
7
290
0
291
0
  0
VISUALSTYLE
  5
67
102
{ACAD_REACTORS
330
16
102
}
330
16
100
AcDbVisualStyle
  2
JitterOff
 70
20
 90
2
 40
0.6
 62
7
290
0
291
1
  0
VISUALSTYLE
  5
68
102
{ACAD_REACTORS
330
16
102
}
330
16
100
AcDbVisualStyle
  2
Linepattern
 70
14
 90
2
 40
0.6
 62
7
290
0
291
1
  0
VISUALSTYLE
  5
69
102
{ACAD_REACTORS
330
16
102
}
330
16
100
AcDbVisualStyle
  2
Modeling
 70
10
 90
2
 40
0.6
 62
7
290
0
291
0
  0
VISUALSTYLE
  5
6A
102
{ACAD_REACTORS
330
16
102
}
330
16
100
AcDbVisualStyle
  2
OverhangOff
 70
21
 90
2
 40
0.6
 62
7
290
0
291
1
  0
VISUALSTYLE
  5
6B
102
{ACAD_REACTORS
330
16
102
}
330
16
100
AcDbVisualStyle
  2
Realistic
 70
8
 90
2
 40
0.6
 62
7
290
0
291
0
  0
VISUALSTYLE
  5
6C
102
{ACAD_REACTORS
330
16
102
}
330
16
100
AcDbVisualStyle
  2
Shaded
 70
27
 90
2
 40
0.6
 62
7
290
0
291
0
  0
VISUALSTYLE
  5
6D
102
{ACAD_REACTORS
330
16
102
}
330
16
100
AcDbVisualStyle
  2
Shaded with edges
 70
26
 90
2
 40
0.6
 62
7
290
0
291
0
  0
VISUALSTYLE
  5
6E
102
{ACAD_REACTORS
330
16
102
}
330
16
100
AcDbVisualStyle
  2
Shades of Gray
 70
23
 90
2
 40
0.6
 62
7
290
0
291
0
  0
VISUALSTYLE
  5
6F
102
{ACAD_REACTORS
330
16
102
}
330
16
100
AcDbVisualStyle
  2
Sketchy
 70
24
 90
1
 40
0.6
 62
7
290
0
291
0
  0
VISUALSTYLE
  5
70
102
{ACAD_REACTORS
330
16
102
}
330
16
100
AcDbVisualStyle
  2
Thicken
 70
13
 90
2
 40
0.6
 62
7
290
0
291
1
  0
VISUALSTYLE
  5
71
102
{ACAD_REACTORS
330
16
102
}
330
16
100
AcDbVisualStyle
  2
Wireframe
 70
5
 90
0
 40
0.6
 62
7
290
0
291
0
  0
VISUALSTYLE
  5
72
102
{ACAD_REACTORS
330
16
102
}
330
16
100
AcDbVisualStyle
  2
X-Ray
 70
25
 90
2
 40
0.5
 62
7
290
0
291
0
  0
DICTIONARYVAR
  5
9D
330
2D
100
DictionaryVariables
280
0
  1
1.4.4 @ 2026-09-30T15:12:53.383102+00:00
  0
ENDSEC
  0
EOF
