  0
SECTION
  2
HEADER
  9
$ACADVER
  1
AC1024
  9
$ACADMAINTVER
 70
6
  9
$DWGCODEPAGE
  3
ANSI_1252
  9
$LASTSAVEDBY
  1
ezdxf
  9
$INSBASE
 10
0.0
 20
0.0
 30
0.0
  9
$EXTMIN
 10
1e+20
 20
1e+20
 30
1e+20
  9
$EXTMAX
 10
-1e+20
 20
-1e+20
 30
-1e+20
  9
$LIMMIN
 10
0.0
 20
0.0
  9
$LIMMAX
 10
420.0
 20
297.0
  9
$ORTHOMODE
 70
0
  9
$REGENMODE
 70
1
  9
$FILLMODE
 70
1
  9
$QTEXTMODE
 70
0
  9
$MIRRTEXT
 70
1
  9
$LTSCALE
 40
1.0
  9
$ATTMODE
 70
1
  9
$TEXTSIZE
 40
2.5
  9
$TRACEWID
 40
1.0
  9
$TEXTSTYLE
  7
OpenSans
  9
$CLAYER
  8
0
  9
$CELTYPE
  6
ByLayer
  9
$CECOLOR
 62
256
  9
$CELTSCALE
 40
1.0
  9
$DISPSILH
 70
0
  9
$DIMSCALE
 40
1.0
  9
$DIMASZ
 40
0.175
  9
$DIMEXO
 40
0.125
  9
$DIMDLI
 40
3.75
  9
$DIMRND
 40
0.0
  9
$DIMDLE
 40
0.0
  9
$DIMEXE
 40
0.375
  9
$DIMTP
 40
0.0
  9
$DIMTM
 40
0.0
  9
$DIMTXT
 40
0.25
  9
$DIMCEN
 40
2.5
  9
$DIMTSZ
 40
0.0
  9
$DIMTOL
 70
0
  9
$DIMLIM
 70
0
  9
$DIMTIH
 70
0
  9
$DIMTOH
 70
0
  9
$DIMSE1
 70
0
  9
$DIMSE2
 70
0
  9
$DIMTAD
 70
1
  9
$DIMZIN
 70
12
  9
$DIMBLK
  1
ARCHTICK
  9
$DIMASO
 70
1
  9
$DIMSHO
 70
1
  9
$DIMPOST
  1

  9
$DIMAPOST
  1

  9
$DIMALT
 70
0
  9
$DIMALTD
 70
3
  9
$DIMALTF
 40
0.03937007874
  9
$DIMLFAC
 40
100.0
  9
$DIMTOFL
 70
1
  9
$DIMTVP
 40
0.0
  9
$DIMTIX
 70
0
  9
$DIMSOXD
 70
0
  9
$DIMSAH
 70
0
  9
$DIMBLK1
  1

  9
$DIMBLK2
  1

  9
$DIMSTYLE
  2
EZDXF
  9
$DIMCLRD
 70
0
  9
$DIMCLRE
 70
0
  9
$DIMCLRT
 70
0
  9
$DIMTFAC
 40
0.5
  9
$DIMGAP
 40
0.1
  9
$DIMJUST
 70
0
  9
$DIMSD1
 70
0
  9
$DIMSD2
 70
0
  9
$DIMTOLJ
 70
0
  9
$DIMTZIN
 70
8
  9
$DIMALTZ
 70
0
  9
$DIMALTTZ
 70
0
  9
$DIMUPT
 70
1
  9
$DIMDEC
 70
2
  9
$DIMTDEC
 70
2
  9
$DIMALTU
 70
2
  9
$DIMALTTD
 70
3
  9
$DIMTXSTY
  7
OpenSansCondensed-Light
  9
$DIMAUNIT
 70
0
  9
$DIMADEC
 70
2
  9
$DIMALTRND
 40
0.0
  9
$DIMAZIN
 70
3
  9
$DIMDSEP
 70
46
  9
$DIMATFIT
 70
3
  9
$DIMFRAC
 70
0
  9
$DIMLDRBLK
  1

  9
$DIMLUNIT
 70
2
  9
$DIMLWD
 70
-2
  9
$DIMLWE
 70
-2
  9
$DIMTMOVE
 70
2
  9
$DIMFXL
 40
1.0
  9
$DIMFXLON
 70
0
  9
$DIMJOGANG
 40
0.785398163397
  9
$DIMTFILL
 70
0
  9
$DIMTFILLCLR
 70
0
  9
$DIMARCSYM
 70
0
  9
$DIMLTYPE
  6

  9
$DIMLTEX1
  6

  9
$DIMLTEX2
  6

  9
$DIMTXTDIRECTION
 70
0
  9
$LUNITS
 70
2
  9
$LUPREC
 70
4
  9
$SKETCHINC
 40
1.0
  9
$FILLETRAD
 40
10.0
  9
$AUNITS
 70
0
  9
$AUPREC
 70
2
  9
$MENU
  1
.
  9
$ELEVATION
 40
0.0
  9
$PELEVATION
 40
0.0
  9
$THICKNESS
 40
0.0
  9
$LIMCHECK
 70
0
  9
$CHAMFERA
 40
0.0
  9
$CHAMFERB
 40
0.0
  9
$CHAMFERC
 40
0.0
  9
$CHAMFERD
 40
0.0
  9
$SKPOLY
 70
0
  9
$TDCREATE
 40
2461314.6438078703
  9
$TDUCREATE
 40
2458532.153996898
  9
$TDUPDATE
 40
2461314.6438078703
  9
$TDUUPDATE
 40
2458532.1544311
  9
$TDINDWG
 40
0.0
  9
$TDUSRTIMER
 40
0.0
  9
$USRTIMER
 70
1
  9
$ANGBASE
 50
0.0
  9
$ANGDIR
 70
0
  9
$PDMODE
 70
0
  9
$PDSIZE
 40
0.0
  9
$PLINEWID
 40
0.0
  9
$SPLFRAME
 70
0
  9
$SPLINETYPE
 70
6
  9
$SPLINESEGS
 70
8
  9
$HANDSEED
  5
AB
  9
$SURFTAB1
 70
6
  9
$SURFTAB2
 70
6
  9
$SURFTYPE
 70
6
  9
$SURFU
 70
6
  9
$SURFV
 70
6
  9
$UCSBASE
  2

  9
$UCSNAME
  2

  9
$UCSORG
 10
0.0
 20
0.0
 30
0.0
  9
$UCSXDIR
 10
1.0
 20
0.0
 30
0.0
  9
$UCSYDIR
 10
0.0
 20
1.0
 30
0.0
  9
$UCSORTHOREF
  2

  9
$UCSORTHOVIEW
 70
0
  9
$UCSORGTOP
 10
0.0
 20
0.0
 30
0.0
  9
$UCSORGBOTTOM
 10
0.0
 20
0.0
 30
0.0
  9
$UCSORGLEFT
 10
0.0
 20
0.0
 30
0.0
  9
$UCSORGRIGHT
 10
0.0
 20
0.0
 30
0.0
  9
$UCSORGFRONT
 10
0.0
 20
0.0
 30
0.0
  9
$UCSORGBACK
 10
0.0
 20
0.0
 30
0.0
  9
$PUCSBASE
  2

  9
$PUCSNAME
  2

  9
$PUCSORG
 10
0.0
 20
0.0
 30
0.0
  9
$PUCSXDIR
 10
1.0
 20
0.0
 30
0.0
  9
$PUCSYDIR
 10
0.0
 20
1.0
 30
0.0
  9
$PUCSORTHOREF
  2

  9
$PUCSORTHOVIEW
 70
0
  9
$PUCSORGTOP
 10
0.0
 20
0.0
 30
0.0
  9
$PUCSORGBOTTOM
 10
0.0
 20
0.0
 30
0.0
  9
$PUCSORGLEFT
 10
0.0
 20
0.0
 30
0.0
  9
$PUCSORGRIGHT
 10
0.0
 20
0.0
 30
0.0
  9
$PUCSORGFRONT
 10
0.0
 20
0.0
 30
0.0
  9
$PUCSORGBACK
 10
0.0
 20
0.0
 30
0.0
  9
$USERI1
 70
0
  9
$USERI2
 70
0
  9
$USERI3
 70
0
  9
$USERI4
 70
0
  9
$USERI5
 70
0
  9
$USERR1
 40
0.0
  9
$USERR2
 40
0.0
  9
$USERR3
 40
0.0
  9
$USERR4
 40
0.0
  9
$USERR5
 40
0.0
  9
$WORLDVIEW
 70
1
  9
$SHADEDGE
 70
3
  9
$SHADEDIF
 70
70
  9
$TILEMODE
 70
1
  9
$MAXACTVP
 70
64
  9
$PINSBASE
 10
0.0
 20
0.0
 30
0.0
  9
$PLIMCHECK
 70
0
  9
$PEXTMIN
 10
1e+20
 20
1e+20
 30
1e+20
  9
$PEXTMAX
 10
-1e+20
 20
-1e+20
 30
-1e+20
  9
$PLIMMIN
 10
0.0
 20
0.0
  9
$PLIMMAX
 10
420.0
 20
297.0
  9
$UNITMODE
 70
0
  9
$VISRETAIN
 70
1
  9
$PLINEGEN
 70
0
  9
$PSLTSCALE
 70
1
  9
$TREEDEPTH
 70
3020
  9
$CMLSTYLE
  2
Standard
  9
$CMLJUST
 70
0
  9
$CMLSCALE
 40
20.0
  9
$PROXYGRAPHICS
 70
1
  9
$MEASUREMENT
 70
1
  9
$CELWEIGHT
370
-1
  9
$ENDCAPS
280
0
  9
$JOINSTYLE
280
0
  9
$LWDISPLAY
290
0
  9
$INSUNITS
 70
4
  9
$HYPERLINKBASE
  1

  9
$STYLESHEET
  1

  9
$XEDIT
290
1
  9
$CEPSNTYPE
380
0
  9
$PSTYLEMODE
290
1
  9
$FINGERPRINTGUID
  2
{E505FA2D-43E3-496D-89AD-05D1F73FD058}
  9
$VERSIONGUID
  2
{ACD9C6A4-7745-4991-BB62-53BEA3888805}
  9
$EXTNAMES
290
1
  9
$PSVPSCALE
 40
0.0
  9
$OLESTARTUP
290
0
  9
$SORTENTS
280
127
  9
$INDEXCTL
280
0
  9
$HIDETEXT
280
1
  9
$XCLIPFRAME
280
1
  9
$HALOGAP
280
0
  9
$OBSCOLOR
 70
257
  9
$OBSLTYPE
280
0
  9
$INTERSECTIONDISPLAY
280
0
  9
$INTERSECTIONCOLOR
 70
257
  9
$DIMASSOC
280
2
  9
$PROJECTNAME
  1

  9
$CAMERADISPLAY
290
0
  9
$LENSLENGTH
 40
50.0
  9
$CAMERAHEIGHT
 40
0.0
  9
$STEPSPERSEC
 40
24.0
  9
$STEPSIZE
 40
100.0
  9
$3DDWFPREC
 40
2.0
  9
$PSOLWIDTH
 40
0.005
  9
$PSOLHEIGHT
 40
0.08
  9
$LOFTANG1
 40
1.570796326795
  9
$LOFTANG2
 40
1.570796326795
  9
$LOFTMAG1
 40
0.0
  9
$LOFTMAG2
 40
0.0
  9
$LOFTPARAM
 70
7
  9
$LOFTNORMALS
280
1
  9
$LATITUDE
 40
37.795
  9
$LONGITUDE
 40
-122.394
  9
$NORTHDIRECTION
 40
0.0
  9
$TIMEZONE
 70
-8000
  9
$LIGHTGLYPHDISPLAY
280
1
  9
$TILEMODELIGHTSYNCH
280
1
  9
$CMATERIAL
347
20
  9
$SOLIDHIST
280
0
  9
$SHOWHIST
280
1
  9
$DWFFRAME
280
2
  9
$DGNFRAME
280
2
  9
$REALWORLDSCALE
290
1
  9
$INTERFERECOLOR
 62
256
  9
$CSHADOW
280
0
  9
$SHADOWPLANELOCATION
 40
0.0
  0
ENDSEC
  0
SECTION
  2
CLASSES
  0
CLASS
  1
ACDBDICTIONARYWDFLT
  2
AcDbDictionaryWithDefault
  3
ObjectDBX Classes
 90
0
 91
0
280
0
281
0
  0
CLASS
  1
SUN
  2
AcDbSun
  3
SCENEOE
 90
1153
 91
0
280
0
281
0
  0
CLASS
  1
VISUALSTYLE
  2
AcDbVisualStyle
  3
ObjectDBX Classes
 90
4095
 91
0
280
0
281
0
  0
CLASS
  1
MATERIAL
  2
AcDbMaterial
  3
ObjectDBX Classes
 90
1153
 91
0
280
0
281
0
  0
CLASS
  1
SCALE
  2
AcDbScale
  3
ObjectDBX Classes
 90
1153
 91
0
280
0
281
0
  0
CLASS
  1
TABLESTYLE
  2
AcDbTableStyle
  3
ObjectDBX Classes
 90
4095
 91
0
280
0
281
0
  0
CLASS
  1
MLEADERSTYLE
  2
AcDbMLeaderStyle
  3
ACDB_MLEADERSTYLE_CLASS
 90
4095
 91
0
280
0
281
0
  0
CLASS
  1
DICTIONARYVAR
  2
AcDbDictionaryVar
  3
ObjectDBX Classes
 90
0
 91
0
280
0
281
0
  0
CLASS
  1
CELLSTYLEMAP
  2
AcDbCellStyleMap
  3
ObjectDBX Classes
 90
1152
 91
0
280
0
281
0
  0
CLASS
  1
MENTALRAYRENDERSETTINGS
  2
AcDbMentalRayRenderSettings
  3
SCENEOE
 90
1024
 91
0
280
0
281
0
  0
CLASS
  1
ACDBDETAILVIEWSTYLE
  2
AcDbDetailViewStyle
  3
ObjectDBX Classes
 90
1025
 91
0
280
0
281
0
  0
CLASS
  1
ACDBSECTIONVIEWSTYLE
  2
AcDbSectionViewStyle
  3
ObjectDBX Classes
 90
1025
 91
0
280
0
281
0
  0
CLASS
  1
RASTERVARIABLES
  2
AcDbRasterVariables
  3
ISM
 90
0
 91
0
280
0
281
0
  0
CLASS
  1
ACDBPLACEHOLDER
  2
AcDbPlaceHolder
  3
ObjectDBX Classes
 90
0
 91
0
280
0
281
0
  0
CLASS
  1
LAYOUT
  2
AcDbLayout
  3
ObjectDBX Classes
 90
0
 91
0
280
0
281
0
  0
ENDSEC
  0
SECTION
  2
TABLES
  0
TABLE
  2
VPORT
  5
8
330
0
100
AcDbSymbolTable
 70
1
  0
VPORT
  5
23
330
8
100
AcDbSymbolTableRecord
100
AcDbViewportTableRecord
  2
*Active
 70
0
 10
0.0
 20
0.0
 11
1.0
 21
1.0
 12
0.0
 22
0.0
 13
0.0
 23
0.0
 14
0.5
 24
0.5
 15
0.5
 25
0.5
 16
0.0
 26
0.0
 36
1.0
 17
0.0
 27
0.0
 37
0.0
 40
1000.0
 41
1.34
 42
50.0
 43
0.0
 44
0.0
 50
0.0
 51
0.0
 71
0
 72
1000
 73
1
 74
3
 75
0
 76
0
 77
0
 78
0
281
0
 65
0
146
0.0
  0
ENDTAB
  0
TABLE
  2
LTYPE
  5
2
330
0
100
AcDbSymbolTable
 70
21
  0
LTYPE
  5
24
330
2
100
AcDbSymbolTableRecord
100
AcDbLinetypeTableRecord
  2
ByBlock
 70
0
  3

 72
65
 73
0
 40
0.0
  0
LTYPE
  5
25
330
2
100
AcDbSymbolTableRecord
100
AcDbLinetypeTableRecord
  2
ByLayer
 70
0
  3

 72
65
 73
0
 40
0.0
  0
LTYPE
  5
26
330
2
100
AcDbSymbolTableRecord
100
AcDbLinetypeTableRecord
  2
Continuous
 70
0
  3

 72
65
 73
0
 40
0.0
  0
LTYPE
  5
2F
330
2
100
AcDbSymbolTableRecord
100
AcDbLinetypeTableRecord
  2
CENTER
 70
0
  3
Center ____ _ ____ _ ____ _ ____ _ ____ _ ____
 72
65
 73
4
 40
5.08
 49
3.175
 74
0
 49
-0.635
 74
0
 49
0.635
 74
0
 49
-0.635
 74
0
  0
LTYPE
  5
30
330
2
100
AcDbSymbolTableRecord
100
AcDbLinetypeTableRecord
  2
CENTERX2
 70
0
  3
Center (2x) ________  __  ________  __  ________
 72
65
 73
4
 40
8.89
 49
6.35
 74
0
 49
-0.635
 74
0
 49
1.27
 74
0
 49
-0.635
 74
0
  0
LTYPE
  5
31
330
2
100
AcDbSymbolTableRecord
100
AcDbLinetypeTableRecord
  2
CENTER2
 70
0
  3
Center (.5x) ____ _ ____ _ ____ _ ____ _ ____
 72
65
 73
4
 40
2.54
 49
1.587
 74
0
 49
-0.318
 74
0
 49
0.318
 74
0
 49
-0.318
 74
0
  0
LTYPE
  5
32
330
2
100
AcDbSymbolTableRecord
100
AcDbLinetypeTableRecord
  2
DASHED
 70
0
  3
Dashed __ __ __ __ __ __ __ __ __ __ __ __ __ _
 72
65
 73
2
 40
1.524
 49
1.27
 74
0
 49
-0.254
 74
0
  0
LTYPE
  5
33
330
2
100
AcDbSymbolTableRecord
100
AcDbLinetypeTableRecord
  2
DASHEDX2
 70
0
  3
Dashed (2x) ____  ____  ____  ____  ____  ____
 72
65
 73
2
 40
3.048
 49
2.54
 74
0
 49
-0.508
 74
0
  0
LTYPE
  5
34
330
2
100
AcDbSymbolTableRecord
100
AcDbLinetypeTableRecord
  2
DASHED2
 70
0
  3
Dashed (.5x) _ _ _ _ _ _ _ _ _ _ _ _ _ _
 72
65
 73
2
 40
0.762
 49
0.635
 74
0
 49
-0.127
 74
0
  0
LTYPE
  5
35
330
2
100
AcDbSymbolTableRecord
100
AcDbLinetypeTableRecord
  2
PHANTOM
 70
0
  3
Phantom ______  __  __  ______  __  __  ______
 72
65
 73
6
 40
6.35
 49
3.175
 74
0
 49
-0.635
 74
0
 49
0.635
 74
0
 49
-0.635
 74
0
 49
0.635
 74
0
 49
-0.635
 74
0
  0
LTYPE
  5
36
330
2
100
AcDbSymbolTableRecord
100
AcDbLinetypeTableRecord
  2
PHANTOMX2
 70
0
  3
Phantom (2x)____________    ____    ____    ____________
 72
65
 73
6
 40
10.795
 49
6.35
 74
0
 49
-0.635
 74
0
 49
1.27
 74
0
 49
-0.635
 74
0
 49
1.27
 74
0
 49
-0.635
 74
0
  0
LTYPE
  5
37
330
2
100
AcDbSymbolTableRecord
100
AcDbLinetypeTableRecord
  2
PHANTOM2
 70
0
  3
Phantom (.5x) ___ _ _ ___ _ _ ___ _ _ ___ _ _ ___
 72
65
 73
6
 40
3.175
 49
1.587
 74
0
 49
-0.318
 74
0
 49
0.318
 74
0
 49
-0.318
 74
0
 49
0.318
 74
0
 49
-0.318
 74
0
  0
LTYPE
  5
38
330
2
100
AcDbSymbolTableRecord
100
AcDbLinetypeTableRecord
  2
DASHDOT
 70
0
  3
Dash dot __ . __ . __ . __ . __ . __ . __ . __
 72
65
 73
4
 40
3.556
 49
2.54
 74
0
 49
-0.508
 74
0
 49
0.0
 74
0
 49
-0.508
 74
0
  0
LTYPE
  5
39
330
2
100
AcDbSymbolTableRecord
100
AcDbLinetypeTableRecord
  2
DASHDOTX2
 70
0
  3
Dash dot (2x) ____  .  ____  .  ____  .  ____
 72
65
 73
4
 40
6.096
 49
5.08
 74
0
 49
-0.508
 74
0
 49
0.0
 74
0
 49
-0.508
 74
0
  0
LTYPE
  5
3A
330
2
100
AcDbSymbolTableRecord
100
AcDbLinetypeTableRecord
  2
DASHDOT2
 70
0
  3
Dash dot (.5x) _ . _ . _ . _ . _ . _ . _ . _
 72
65
 73
4
 40
1.778
 49
1.27
 74
0
 49
-0.254
 74
0
 49
0.0
 74
0
 49
-0.254
 74
0
  0
LTYPE
  5
3B
330
2
100
AcDbSymbolTableRecord
100
AcDbLinetypeTableRecord
  2
DOT
 70
0
  3
Dot .  .  .  .  .  .  .  .  .  .  .  .  .  .  .  .
 72
65
 73
2
 40
0.508
 49
0.0
 74
0
 49
-0.508
 74
0
  0
LTYPE
  5
3C
330
2
100
AcDbSymbolTableRecord
100
AcDbLinetypeTableRecord
  2
DOTX2
 70
0
  3
Dot (2x) .    .    .    .    .    .    .    . 
 72
65
 73
2
 40
1.016
 49
0.0
 74
0
 49
-1.016
 74
0
  0
LTYPE
  5
3D
330
2
100
AcDbSymbolTableRecord
100
AcDbLinetypeTableRecord
  2
DOT2
 70
0
  3
Dot (.5) . . . . . . . . . . . . . . . . . . . 
 72
65
 73
2
 40
0.254
 49
0.0
 74
0
 49
-0.254
 74
0
  0
LTYPE
  5
3E
330
2
100
AcDbSymbolTableRecord
100
AcDbLinetypeTableRecord
  2
DIVIDE
 70
0
  3
Divide __ . . __ . . __ . . __ . . __ . . __
 72
65
 73
6
 40
4.064
 49
2.54
 74
0
 49
-0.508
 74
0
 49
0.0
 74
0
 49
-0.508
 74
0
 49
0.0
 74
0
 49
-0.508
 74
0
  0
LTYPE
  5
3F
330
2
100
AcDbSymbolTableRecord
100
AcDbLinetypeTableRecord
  2
DIVIDEX2
 70
0
  3
Divide (2x) ____  . .  ____  . .  ____  . .  ____
 72
65
 73
6
 40
6.604
 49
5.08
 74
0
 49
-0.508
 74
0
 49
0.0
 74
0
 49
-0.508
 74
0
 49
0.0
 74
0
 49
-0.508
 74
0
  0
LTYPE
  5
40
330
2
100
AcDbSymbolTableRecord
100
AcDbLinetypeTableRecord
  2
DIVIDE2
 70
0
  3
Divide(.5x) _ . _ . _ . _ . _ . _ . _ . _
 72
65
 73
6
 40
2.032
 49
1.27
 74
0
 49
-0.254
 74
0
 49
0.0
 74
0
 49
-0.254
 74
0
 49
0.0
 74
0
 49
-0.254
 74
0
  0
ENDTAB
  0
TABLE
  2
LAYER
  5
1
330
0
100
AcDbSymbolTable
 70
8
  0
LAYER
  5
27
330
1
100
AcDbSymbolTableRecord
100
AcDbLayerTableRecord
  2
0
 70
0
 62
7
  6
Continuous
370
-3
390
13
347
21
  0
LAYER
  5
28
330
1
100
AcDbSymbolTableRecord
100
AcDbLayerTableRecord
  2
Defpoints
 70
0
 62
7
  6
Continuous
290
0
370
-3
390
13
347
21
  0
LAYER
  5
8A
330
1
100
AcDbSymbolTableRecord
100
AcDbLayerTableRecord
  2
CUT_OUT
 70
0
 62
7
  6
Continuous
370
-3
390
13
347
21
  0
LAYER
  5
8B
330
1
100
AcDbSymbolTableRecord
100
AcDbLayerTableRecord
  2
CUT_IN
 70
0
 62
1
  6
Continuous
370
-3
390
13
347
21
  0
LAYER
  5
8C
330
1
100
AcDbSymbolTableRecord
100
AcDbLayerTableRecord
  2
DRILL
 70
0
 62
3
  6
Continuous
370
-3
390
13
347
21
  0
LAYER
  5
8D
330
1
100
AcDbSymbolTableRecord
100
AcDbLayerTableRecord
  2
MARK
 70
0
 62
5
  6
Continuous
370
-3
390
13
347
21
  0
LAYER
  5
8E
330
1
100
AcDbSymbolTableRecord
100
AcDbLayerTableRecord
  2
TEXT
 70
0
 62
8
  6
Continuous
370
-3
390
13
347
21
  0
LAYER
  5
8F
330
1
100
AcDbSymbolTableRecord
100
AcDbLayerTableRecord
  2
SHEET
 70
0
 62
9
  6
Continuous
370
-3
390
13
347
21
  0
ENDTAB
  0
TABLE
  2
STYLE
  5
5
330
0
100
AcDbSymbolTable
 70
26
  0
STYLE
  5
29
330
5
100
AcDbSymbolTableRecord
100
AcDbTextStyleTableRecord
  2
Standard
 70
0
 40
0.0
 41
1.0
 50
0.0
 71
0
 42
2.5
  3
txt
  4

  0
STYLE
  5
41
330
5
100
AcDbSymbolTableRecord
100
AcDbTextStyleTableRecord
  2
OpenSans-Light
 70
0
 40
0.0
 41
1.0
 50
0.0
 71
0
 42
2.5
  3
OpenSans-Light.ttf
  4

  0
STYLE
  5
42
330
5
100
AcDbSymbolTableRecord
100
AcDbTextStyleTableRecord
  2
OpenSans-Light-Italic
 70
0
 40
0.0
 41
1.0
 50
0.0
 71
0
 42
2.5
  3
OpenSans-LightItalic.ttf
  4

  0
STYLE
  5
43
330
5
100
AcDbSymbolTableRecord
100
AcDbTextStyleTableRecord
  2
OpenSans
 70
0
 40
0.0
 41
1.0
 50
0.0
 71
0
 42
2.5
  3
OpenSans-Regular.ttf
  4

  0
STYLE
  5
44
330
5
100
AcDbSymbolTableRecord
100
AcDbTextStyleTableRecord
  2
OpenSans-Italic
 70
0
 40
0.0
 41
1.0
 50
0.0
 71
0
 42
2.5
  3
OpenSans-Italic.ttf
  4

  0
STYLE
  5
45
330
5
100
AcDbSymbolTableRecord
100
AcDbTextStyleTableRecord
  2
OpenSans-SemiBold
 70
0
 40
0.0
 41
1.0
 50
0.0
 71
0
 42
2.5
  3
OpenSans-SemiBold.ttf
  4

  0
STYLE
  5
46
330
5
100
AcDbSymbolTableRecord
100
AcDbTextStyleTableRecord
  2
OpenSans-SemiBoldItalic
 70
0
 40
0.0
 41
1.0
 50
0.0
 71
0
 42
2.5
  3
OpenSans-SemiBoldItalic.ttf
  4

  0
STYLE
  5
47
330
5
100
AcDbSymbolTableRecord
100
AcDbTextStyleTableRecord
  2
OpenSans-Bold
 70
0
 40
0.0
 41
1.0
 50
0.0
 71
0
 42
2.5
  3
OpenSans-Bold.ttf
  4

  0
STYLE
  5
48
330
5
100
AcDbSymbolTableRecord
100
AcDbTextStyleTableRecord
  2
OpenSans-BoldItalic
 70
0
 40
0.0
 41
1.0
 50
0.0
 71
0
 42
2.5
  3
OpenSans-BoldItalic.ttf
  4

  0
STYLE
  5
49
330
5
100
AcDbSymbolTableRecord
100
AcDbTextStyleTableRecord
  2
OpenSans-ExtraBold
 70
0
 40
0.0
 41
1.0
 50
0.0
 71
0
 42
2.5
  3
OpenSans-ExtraBold.ttf
  4

  0
STYLE
  5
4A
330
5
100
AcDbSymbolTableRecord
100
AcDbTextStyleTableRecord
  2
OpenSans-ExtraBoldItalic
 70
0
 40
0.0
 41
1.0
 50
0.0
 71
0
 42
2.5
  3
OpenSans-ExtraBoldItalic.ttf
  4

  0
STYLE
  5
4B
330
5
100
AcDbSymbolTableRecord
100
AcDbTextStyleTableRecord
  2
OpenSansCondensed-Bold
 70
0
 40
0.0
 41
1.0
 50
0.0
 71
0
 42
2.5
  3
OpenSansCondensed-Bold.ttf
  4

  0
STYLE
  5
4C
330
5
100
AcDbSymbolTableRecord
100
AcDbTextStyleTableRecord
  2
OpenSansCondensed-Light
 70
0
 40
0.0
 41
1.0
 50
0.0
 71
0
 42
2.5
  3
OpenSansCondensed-Light.ttf
  4

  0
STYLE
  5
4D
330
5
100
AcDbSymbolTableRecord
100
AcDbTextStyleTableRecord
  2
OpenSansCondensed-Italic
 70
0
 40
0.0
 41
1.0
 50
0.0
 71
0
 42
2.5
  3
OpenSansCondensed-LightItalic.ttf
  4

  0
STYLE
  5
4E
330
5
100
AcDbSymbolTableRecord
100
AcDbTextStyleTableRecord
  2
LiberationSans
 70
0
 40
0.0
 41
1.0
 50
0.0
 71
0
 42
2.5
  3
LiberationSans-Regular.ttf
  4

  0
STYLE
  5
4F
330
5
100
AcDbSymbolTableRecord
100
AcDbTextStyleTableRecord
  2
LiberationSans-Bold
 70
0
 40
0.0
 41
1.0
 50
0.0
 71
0
 42
2.5
  3
LiberationSans-Bold.ttf
  4

  0
STYLE
  5
50
330
5
100
AcDbSymbolTableRecord
100
AcDbTextStyleTableRecord
  2
LiberationSans-BoldItalic
 70
0
 40
0.0
 41
1.0
 50
0.0
 71
0
 42
2.5
  3
LiberationSans-BoldItalic.ttf
  4

  0
STYLE
  5
51
330
5
100
AcDbSymbolTableRecord
100
AcDbTextStyleTableRecord
  2
LiberationSans-Italic
 70
0
 40
0.0
 41
1.0
 50
0.0
 71
0
 42
2.5
  3
LiberationSans-Italic.ttf
  4

  0
STYLE
  5
52
330
5
100
AcDbSymbolTableRecord
100
AcDbTextStyleTableRecord
  2
LiberationSerif
 70
0
 40
0.0
 41
1.0
 50
0.0
 71
0
 42
2.5
  3
LiberationSerif-Regular.ttf
  4

  0
STYLE
  5
53
330
5
100
AcDbSymbolTableRecord
100
AcDbTextStyleTableRecord
  2
LiberationSerif-Bold
 70
0
 40
0.0
 41
1.0
 50
0.0
 71
0
 42
2.5
  3
LiberationSerif-Bold.ttf
  4

  0
STYLE
  5
54
330
5
100
AcDbSymbolTableRecord
100
AcDbTextStyleTableRecord
  2
LiberationSerif-BoldItalic
 70
0
 40
0.0
 41
1.0
 50
0.0
 71
0
 42
2.5
  3
LiberationSerif-BoldItalic.ttf
  4

  0
STYLE
  5
55
330
5
100
AcDbSymbolTableRecord
100
AcDbTextStyleTableRecord
  2
LiberationSerif-Italic
 70
0
 40
0.0
 41
1.0
 50
0.0
 71
0
 42
2.5
  3
LiberationSerif-Italic.ttf
  4

  0
STYLE
  5
56
330
5
100
AcDbSymbolTableRecord
100
AcDbTextStyleTableRecord
  2
LiberationMono
 70
0
 40
0.0
 41
1.0
 50
0.0
 71
0
 42
2.5
  3
LiberationMono-Regular.ttf
  4

  0
STYLE
  5
57
330
5
100
AcDbSymbolTableRecord
100
AcDbTextStyleTableRecord
  2
LiberationMono-Bold
 70
0
 40
0.0
 41
1.0
 50
0.0
 71
0
 42
2.5
  3
LiberationMono-Bold.ttf
  4

  0
STYLE
  5
58
330
5
100
AcDbSymbolTableRecord
100
AcDbTextStyleTableRecord
  2
LiberationMono-BoldItalic
 70
0
 40
0.0
 41
1.0
 50
0.0
 71
0
 42
2.5
  3
LiberationMono-BoldItalic.ttf
  4

  0
STYLE
  5
59
330
5
100
AcDbSymbolTableRecord
100
AcDbTextStyleTableRecord
  2
LiberationMono-Italic
 70
0
 40
0.0
 41
1.0
 50
0.0
 71
0
 42
2.5
  3
LiberationMono-Italic.ttf
  4

  0
ENDTAB
  0
TABLE
  2
VIEW
  5
7
330
0
100
AcDbSymbolTable
 70
0
  0
ENDTAB
  0
TABLE
  2
UCS
  5
6
330
0
100
AcDbSymbolTable
 70
0
  0
ENDTAB
  0
TABLE
  2
APPID
  5
3
330
0
100
AcDbSymbolTable
 70
3
  0
APPID
  5
2A
330
3
100
AcDbSymbolTableRecord
100
AcDbRegAppTableRecord
  2
ACAD
 70
0
  0
APPID
  5
A8
330
3
100
AcDbSymbolTableRecord
100
AcDbRegAppTableRecord
  2
HATCHBACKGROUNDCOLOR
 70
0
  0
APPID
  5
A9
330
3
100
AcDbSymbolTableRecord
100
AcDbRegAppTableRecord
  2
EZDXF
 70
0
  0
ENDTAB
  0
TABLE
  2
DIMSTYLE
  5
4
330
0
100
AcDbSymbolTable
 70
12
100
AcDbDimStyleTable
  0
DIMSTYLE
105
2B
330
4
100
AcDbSymbolTableRecord
100
AcDbDimStyleTableRecord
  2
Standard
 70
0
 40
1.0
 41
2.5
 42
0.625
 43
3.75
 44
1.25
 45
0.0
 46
0.0
 47
0.0
 48
0.0
 49
2.5
140
2.5
141
2.5
142
0.0
143
0.03937007874
144
1.0
145
0.0
146
1.0
147
0.625
148
0.0
 69
0
 70
0
 71
0
 72
0
 73
0
 74
0
 75
0
 76
0
 77
1
 78
8
 79
3
170
0
171
3
172
1
173
0
174
0
175
0
176
0
177
0
178
0
179
2
271
2
272
2
273
2
274
3
275
0
276
0
277
2
278
44
279
0
280
0
281
0
282
0
283
0
284
8
285
0
286
0
288
0
289
3
290
0
371
-2
372
-2
  0
DIMSTYLE
105
73
330
4
100
AcDbSymbolTableRecord
100
AcDbDimStyleTableRecord
  2
EZDXF
 70
0
 40
1.0
 41
0.175
 42
0.125
 43
3.75
 44
0.375
 45
0.0
 46
0.0
 47
0.0
 48
0.0
 49
2.5
140
0.25
141
2.5
142
0.0
143
0.03937007874
144
100.0
145
0.0
146
0.5
147
0.1
148
0.0
 69
0
 70
0
 71
0
 72
0
 73
0
 74
0
 75
0
 76
0
 77
1
 78
12
 79
3
170
0
171
3
172
1
173
0
174
0
175
0
176
0
177
0
178
0
179
2
271
2
272
2
273
2
274
3
275
0
276
0
277
2
278
46
279
2
280
0
281
0
282
0
283
0
284
8
285
0
286
0
288
1
289
3
290
0
340
4C
342
74
371
-2
372
-2
  0
DIMSTYLE
105
7C
330
4
100
AcDbSymbolTableRecord
100
AcDbDimStyleTableRecord
  2
EZ_M_100_H25_CM
 70
0
 40
1.0
 41
0.25
 42
0.125
 43
3.75
 44
0.375
 45
0.0
 46
0.0
 47
0.0
 48
0.0
 49
2.5
140
0.25
141
2.5
142
0.125
143
0.03937007874
144
100.0
145
0.0
146
0.5
147
0.1
148
0.0
 69
0
 70
0
 71
0
 72
0
 73
0
 74
0
 75
0
 76
0
 77
1
 78
12
 79
3
170
0
171
3
172
1
173
0
174
0
175
0
176
0
177
0
178
0
179
2
271
2
272
2
273
2
274
3
275
0
276
0
277
2
278
46
279
2
280
0
281
0
282
0
283
0
284
8
285
0
286
0
288
1
289
3
290
0
340
4C
371
-2
372
-2
  0
DIMSTYLE
105
7D
330
4
100
AcDbSymbolTableRecord
100
AcDbDimStyleTableRecord
  2
EZ_M_50_H25_CM
 70
0
 40
1.0
 41
0.125
 42
0.0625
 43
3.75
 44
0.1875
 45
0.0
 46
0.0
 47
0.0
 48
0.0
 49
2.5
140
0.125
141
2.5
142
0.0625
143
0.03937007874
144
100.0
145
0.0
146
0.5
147
0.05
148
0.0
 69
0
 70
0
 71
0
 72
0
 73
0
 74
0
 75
0
 76
0
 77
1
 78
12
 79
3
170
0
171
3
172
1
173
0
174
0
175
0
176
0
177
0
178
0
179
2
271
2
272
2
273
2
274
3
275
0
276
0
277
2
278
46
279
2
280
0
281
0
282
0
283
0
284
8
285
0
286
0
288
1
289
3
290
0
340
4C
371
-2
372
-2
  0
DIMSTYLE
105
7E
330
4
100
AcDbSymbolTableRecord
100
AcDbDimStyleTableRecord
  2
EZ_M_25_H25_CM
 70
0
 40
1.0
 41
0.0625
 42
0.03125
 43
3.75
 44
0.09375
 45
0.0
 46
0.0
 47
0.0
 48
0.0
 49
2.5
140
0.0625
141
2.5
142
0.03125
143
0.03937007874
144
100.0
145
0.0
146
0.5
147
0.025
148
0.0
 69
0
 70
0
 71
0
 72
0
 73
0
 74
0
 75
0
 76
0
 77
1
 78
12
 79
3
170
0
171
3
172
1
173
0
174
0
175
0
176
0
177
0
178
0
179
2
271
2
272
2
273
2
274
3
275
0
276
0
277
2
278
46
279
2
280
0
281
0
282
0
283
0
284
8
285
0
286
0
288
1
289
3
290
0
340
4C
371
-2
372
-2
  0
DIMSTYLE
105
7F
330
4
100
AcDbSymbolTableRecord
100
AcDbDimStyleTableRecord
  2
EZ_M_20_H25_CM
 70
0
 40
1.0
 41
0.05
 42
0.025
 43
3.75
 44
0.07500000000000001
 45
0.0
 46
0.0
 47
0.0
 48
0.0
 49
2.5
140
0.05
141
2.5
142
0.025
143
0.03937007874
144
100.0
145
0.0
146
0.5
147
0.020000000000000004
148
0.0
 69
0
 70
0
 71
0
 72
0
 73
0
 74
0
 75
0
 76
0
 77
1
 78
12
 79
3
170
0
171
3
172
1
173
0
174
0
175
0
176
0
177
0
178
0
179
2
271
2
272
2
273
2
274
3
275
0
276
0
277
2
278
46
279
2
280
0
281
0
282
0
283
0
284
8
285
0
286
0
288
1
289
3
290
0
340
4C
371
-2
372
-2
  0
DIMSTYLE
105
80
330
4
100
AcDbSymbolTableRecord
100
AcDbDimStyleTableRecord
  2
EZ_M_10_H25_CM
 70
0
 40
1.0
 41
0.025
 42
0.0125
 43
3.75
 44
0.037500000000000006
 45
0.0
 46
0.0
 47
0.0
 48
0.0
 49
2.5
140
0.025
141
2.5
142
0.0125
143
0.03937007874
144
100.0
145
0.0
146
0.5
147
0.010000000000000002
148
0.0
 69
0
 70
0
 71
0
 72
0
 73
0
 74
0
 75
0
 76
0
 77
1
 78
12
 79
3
170
0
171
3
172
1
173
0
174
0
175
0
176
0
177
0
178
0
179
2
271
2
272
2
273
2
274
3
275
0
276
0
277
2
278
46
279
2
280
0
281
0
282
0
283
0
284
8
285
0
286
0
288
1
289
3
290
0
340
4C
371
-2
372
-2
  0
DIMSTYLE
105
81
330
4
100
AcDbSymbolTableRecord
100
AcDbDimStyleTableRecord
  2
EZ_M_5_H25_CM
 70
0
 40
1.0
 41
0.0125
 42
0.00625
 43
3.75
 44
0.018750000000000003
 45
0.0
 46
0.0
 47
0.0
 48
0.0
 49
2.5
140
0.0125
141
2.5
142
0.00625
143
0.03937007874
144
100.0
145
0.0
146
0.5
147
0.005000000000000001
148
0.0
 69
0
 70
0
 71
0
 72
0
 73
0
 74
0
 75
0
 76
0
 77
1
 78
12
 79
3
170
0
171
3
172
1
173
0
174
0
175
0
176
0
177
0
178
0
179
2
271
2
272
2
273
2
274
3
275
0
276
0
277
2
278
46
279
2
280
0
281
0
282
0
283
0
284
8
285
0
286
0
288
1
289
3
290
0
340
4C
371
-2
372
-2
  0
DIMSTYLE
105
82
330
4
100
AcDbSymbolTableRecord
100
AcDbDimStyleTableRecord
  2
EZ_M_1_H25_CM
 70
0
 40
1.0
 41
0.0025
 42
0.00125
 43
3.75
 44
0.00375
 45
0.0
 46
0.0
 47
0.0
 48
0.0
 49
2.5
140
0.0025
141
2.5
142
0.00125
143
0.03937007874
144
100.0
145
0.0
146
0.5
147
0.001
148
0.0
 69
0
 70
0
 71
0
 72
0
 73
0
 74
0
 75
0
 76
0
 77
1
 78
12
 79
3
170
0
171
3
172
1
173
0
174
0
175
0
176
0
177
0
178
0
179
2
271
2
272
2
273
2
274
3
275
0
276
0
277
2
278
46
279
2
280
0
281
0
282
0
283
0
284
8
285
0
286
0
288
1
289
3
290
0
340
4C
371
-2
372
-2
  0
DIMSTYLE
105
83
330
4
100
AcDbSymbolTableRecord
100
AcDbDimStyleTableRecord
  2
EZ_RADIUS
 70
0
 40
1.0
 41
0.25
 42
0.125
 43
3.75
 44
0.375
 45
0.0
 46
0.0
 47
0.0
 48
0.0
 49
2.5
140
0.25
141
0.0
142
0.0
143
0.03937007874
144
100.0
145
0.0
146
0.5
147
0.1
148
0.0
 69
0
 70
0
 71
0
 72
0
 73
0
 74
0
 75
0
 76
0
 77
1
 78
12
 79
3
170
0
171
3
172
0
173
0
174
0
175
0
176
0
177
0
178
0
179
2
271
2
272
2
273
2
274
3
275
0
276
0
277
2
278
46
279
1
280
0
281
0
282
0
283
0
284
8
285
0
286
0
288
1
289
3
290
0
340
4C
342
84
371
-2
372
-2
  0
DIMSTYLE
105
88
330
4
100
AcDbSymbolTableRecord
100
AcDbDimStyleTableRecord
  2
EZ_RADIUS_INSIDE
 70
0
 40
1.0
 41
0.25
 42
0.125
 43
3.75
 44
0.375
 45
0.0
 46
0.0
 47
0.0
 48
0.0
 49
2.5
140
0.25
141
0.0
142
0.0
143
0.03937007874
144
100.0
145
0.0
146
0.5
147
0.1
148
0.0
 69
0
 70
0
 71
0
 72
0
 73
0
 74
0
 75
0
 76
0
 77
0
 78
12
 79
3
170
0
171
3
172
0
173
0
174
1
175
0
176
0
177
0
178
0
179
2
271
2
272
2
273
2
274
3
275
0
276
0
277
2
278
46
279
0
280
0
281
0
282
0
283
0
284
8
285
0
286
0
288
1
289
0
290
0
340
4C
342
84
371
-2
372
-2
  0
DIMSTYLE
105
89
330
4
100
AcDbSymbolTableRecord
100
AcDbDimStyleTableRecord
  2
EZ_CURVED
 70
0
 40
1.0
 41
0.25
 42
0.125
 43
3.75
 44
0.375
 45
0.0
 46
0.0
 47
0.0
 48
0.0
 49
2.5
140
0.25
141
2.5
142
0.0
143
0.03937007874
144
100.0
145
0.0
146
0.5
147
0.1
148
0.0
 69
0
 70
0
 71
0
 72
0
 73
0
 74
0
 75
0
 76
0
 77
1
 78
12
 79
2
 90
2
170
0
171
3
172
1
173
0
174
0
175
0
176
0
177
0
178
0
179
2
271
2
272
2
273
2
274
3
275
0
276
0
277
2
278
46
279
2
280
0
281
0
282
0
283
0
284
8
285
0
286
0
288
1
289
3
290
0
340
4C
371
-2
372
-2
  0
ENDTAB
  0
TABLE
  2
BLOCK_RECORD
  5
9
330
0
100
AcDbSymbolTable
 70
5
  0
BLOCK_RECORD
  5
17
330
9
100
AcDbSymbolTableRecord
100
AcDbBlockTableRecord
  2
*Model_Space
340
1A
 70
0
280
1
281
0
  0
BLOCK_RECORD
  5
1B
330
9
100
AcDbSymbolTableRecord
100
AcDbBlockTableRecord
  2
*Paper_Space
340
1E
 70
0
280
1
281
0
  0
BLOCK_RECORD
  5
74
330
9
100
AcDbSymbolTableRecord
100
AcDbBlockTableRecord
  2
_ARCHTICK
340
0
 70
0
280
1
281
0
  0
BLOCK_RECORD
  5
78
330
9
100
AcDbSymbolTableRecord
100
AcDbBlockTableRecord
  2
_CLOSEDFILLED
340
0
 70
0
280
1
281
0
  0
BLOCK_RECORD
  5
84
330
9
100
AcDbSymbolTableRecord
100
AcDbBlockTableRecord
  2
_CLOSEDBLANK
340
0
 70
0
280
1
281
0
  0
ENDTAB
  0
ENDSEC
  0
SECTION
  2
BLOCKS
  0
BLOCK
  5
18
330
17
100
AcDbEntity
  8
0
100
AcDbBlockBegin
  2
*Model_Space
 70
0
 10
0.0
 20
0.0
 30
0.0
  3
*Model_Space
  1

  0
ENDBLK
  5
19
330
17
100
AcDbEntity
  8
0
100
AcDbBlockEnd
  0
BLOCK
  5
1C
330
1B
100
AcDbEntity
  8
0
100
AcDbBlockBegin
  2
*Paper_Space
 70
0
 10
0.0
 20
0.0
 30
0.0
  3
*Paper_Space
  1

  0
ENDBLK
  5
1D
330
1B
100
AcDbEntity
  8
0
100
AcDbBlockEnd
  0
BLOCK
  5
75
330
74
100
AcDbEntity
  8
0
100
AcDbBlockBegin
  2
_ARCHTICK
 70
0
 10
0.0
 20
0.0
 30
0.0
  3
_ARCHTICK
  1

  0
LWPOLYLINE
  5
77
330
74
100
AcDbEntity
  8
0
  6
BYBLOCK
 62
0
100
AcDbPolyline
 90
2
 70
0
 43
0.15
 10
-0.5
 20
-0.5
 10
0.5
 20
0.5
  0
ENDBLK
  5
76
330
74
100
AcDbEntity
  8
0
100
AcDbBlockEnd
  0
BLOCK
  5
79
330
78
100
AcDbEntity
  8
0
100
AcDbBlockBegin
  2
_CLOSEDFILLED
 70
0
 10
0.0
 20
0.0
 30
0.0
  3
_CLOSEDFILLED
  1

  0
SOLID
  5
7B
330
78
100
AcDbEntity
  8
0
  6
BYBLOCK
 62
0
100
AcDbTrace
 10
-1.0
 20
0.16439898372402537
 30
0.0
 11
0.0
 21
0.0
 31
0.0
 12
-1.0
 22
-0.16439898372402537
 32
0.0
 13
-1.0
 23
-0.16439898372402537
 33
0.0
  0
ENDBLK
  5
7A
330
78
100
AcDbEntity
  8
0
100
AcDbBlockEnd
  0
BLOCK
  5
85
330
84
100
AcDbEntity
  8
0
100
AcDbBlockBegin
  2
_CLOSEDBLANK
 70
0
 10
0.0
 20
0.0
 30
0.0
  3
_CLOSEDBLANK
  1

  0
LWPOLYLINE
  5
87
330
84
100
AcDbEntity
  8
0
  6
BYBLOCK
 62
0
100
AcDbPolyline
 90
3
 70
1
 10
-1.0
 20
0.16439898372402537
 10
0.0
 20
0.0
 10
-1.0
 20
-0.16439898372402537
  0
ENDBLK
  5
86
330
84
100
AcDbEntity
  8
0
100
AcDbBlockEnd
  0
ENDSEC
  0
SECTION
  2
ENTITIES
  0
LWPOLYLINE
  5
90
330
17
100
AcDbEntity
  8
CUT_OUT
100
AcDbPolyline
 90
1211
 70
1
 10
0.5803870741754622
 20
248.61293691763174
 10
0.4339284985696281
 20
249.55972661548373
 10
0.02526046805360238
 20
253.45753426258887
 10
0.0
 20
257.3766254737947
 10
0.358389593544473
 20
261.27937718409294
 10
0.41222607050320903
 20
261.65980415177546
 10
0.5108537751102062
 20
262.47790269989827
 10
0.584625314092591
 20
263.2178198570646
 10
0.6086918370821763
 20
263.46880239230234
 10
0.66331795487298
 20
264.1844703677576
 10
0.6930834769748913
 20
264.6993628016225
 10
0.723848620045203
 20
266.17310246787156
 10
0.7155970027579315
 20
266.6887885308681
 10
0.6965223376237191
 20
267.2424846871919
 10
0.705868598188431
 20
270.24562304220916
 10
0.9405016840247526
 20
273.23959609602804
 10
0.9699766062662434
 20
273.493085646953
 10
1.1013068068284042
 20
275.4897664426841
 10
1.1044110895074368
 20
275.68871152651343
 10
1.0354409392595585
 20
277.6885177521237
 10
0.9763314413700073
 20
278.3859418656466
 10
0.9616562979849732
 20
278.51931418243083
 10
0.7364862920662745
 20
281.80646302566487
 10
0.7826171516892941
 20
285.1009919742295
 10
1.0997358775572366
 20
288.38054754821263
 10
1.1452705987733793
 20
288.70939365416746
 10
1.2273943415081021
 20
289.39096018103066
 10
1.366980353912652
 20
291.38482093139635
 10
1.3718817274423714
 20
291.6314207755247
 10
1.3050695390326155
 20
293.70889625348883
 10
1.2002087131087364
 20
294.9517510141341
 10
1.223620779701264
 20
294.95372631222784
 10
1.043039163033086
 20
298.4464085372484
 10
1.2504785147514212
 20
302.53389095617126
 10
1.8745097082326083
 20
306.5787801609837
 10
1.9168169275105242
 20
306.7830248664396
 10
2.070847018909319
 20
307.6148454822914
 10
2.2130333379073477
 20
308.4851462002018
 10
2.2525065604136216
 20
308.7368181199537
 10
2.275654006291745
 20
308.8908009054514
 10
2.364483812015976
 20
309.66288579002423
 10
2.420933224313444
 20
310.2773254799376
 10
2.5047277531757004
 20
312.06809546174554
 10
2.505067276762645
 20
312.2465558091669
 10
2.428087265325871
 20
314.0376316670405
 10
2.373088428639676
 20
314.662366112057
 10
2.2893279935905753
 20
315.41910664515063
 10
2.2744965867051974
 20
315.5215587842453
 10
2.2414704114511323
 20
315.7410959901485
 10
2.07470631093247
 20
316.8093016296571
 10
1.6257950461063615
 20
321.4354629145567
 10
1.716553658558496
 20
326.0824675876614
 10
1.809968232370636
 20
327.2829229666875
 10
1.879455446920133
 20
328.77847784984334
 10
1.894904830034136
 20
329.7948890562419
 10
1.8814239501801922
 20
330.2825585075638
 10
1.9405725296965102
 20
333.8267903811553
 10
2.3132636051626605
 20
337.3518690314138
 10
2.4801316440118626
 20
338.4585289137408
 10
2.498913330091682
 20
338.63792130952606
 10
2.6057197618441705
 20
340.44688954430313
 10
2.608178613193104
 20
340.6272456848911
 10
2.550727164525142
 20
342.4384532984306
 10
2.513500989303793
 20
342.9206327591344
 10
2.394864374836061
 20
345.9415157186103
 10
2.504722731746824
 20
348.96273064684055
 10
2.6297916326636823
 20
350.6464433727564
 10
2.654802883159846
 20
352.99804371006934
 10
2.6196786665759646
 20
353.70287398553216
 10
2.603779139631513
 20
357.33476336410735
 10
2.9173738101682716
 20
360.95312371594844
 10
3.0574509476451226
 20
362.00922614453805
 10
3.2146785596427208
 20
363.830033035099
 10
3.2220265761213795
 20
364.01178216484936
 10
3.2123002817167503
 20
365.83933890921656
 10
3.1796757182200963
 20
366.47783715276154
 10
3.111832609539931
 20
367.39400457484464
 10
3.087810192505742
 20
367.65097754408725
 10
3.0447205470823633
 20
368.1303753675967
 10
2.9572573760235628
 20
368.9268100049499
 10
2.721612017549319
 20
372.77205787096295
 10
2.8569716530046776
 20
376.6221406824278
 10
3.3620806982647764
 20
380.44134540834193
 10
3.4789906785862854
 20
381.08503486235554
 10
3.5983077107355257
 20
381.8194271982102
 10
3.7577001896153774
 20
382.9307068405308
 10
3.7671627144401327
 20
382.9964823790548
 10
3.8890599089944544
 20
384.0354168153374
 10
3.9552362472576306
 20
384.7635487519343
 10
4.035314239163142
 20
386.85234649812435
 10
4.02507882022104
 20
387.5834078232109
 10
3.97860076882381
 20
388.74014112691617
 10
4.040780074328609
 20
393.09296147073405
 10
4.575613705612966
 20
397.41324666947213
 10
4.679346523447123
 20
397.99113420717896
 10
4.808101713236454
 20
398.83247342500715
 10
4.890073584848153
 20
399.46396927661493
 10
5.041960448773466
 20
401.27794362387215
 10
5.048841754719547
 20
401.45899468951643
 10
5.035083588838518
 20
403.2792647971693
 10
5.001282170180787
 20
403.9151609069457
 10
4.897711872814114
 20
405.2774750987329
 10
4.912548301399056
 20
405.27860304214687
 10
4.743411905864718
 20
408.6975910685277
 10
4.936282989440713
 20
412.62915959851966
 10
5.289655337185707
 20
415.0080793404718
 10
5.2658211645322694
 20
415.0115851588897
 10
5.4425305571768945
 20
416.21293721758724
 10
5.6352898938777685
 20
418.227317003612
 10
5.644291613765688
 20
418.42830466412875
 10
5.6323805975991945
 20
420.4518511083505
 10
5.621013472911045
 20
420.6527188736013
 10
5.404554195980211
 20
422.6646899135685
 10
5.286106717902442
 20
423.4089848973663
 10
5.120454622477666
 20
424.3149564871807
 10
5.103880522514771
 20
424.39512165688234
 10
4.501012498784064
 20
428.25178202462797
 10
4.276928262656213
 20
432.1488405693891
 10
4.433761835403459
 20
436.0491844358497
 10
4.557791350338448
 20
437.43906757183214
 10
4.662146636722639
 20
438.7252761905092
 10
4.724711956994611
 20
439.82549272624067
 10
4.759185688947866
 20
440.85465356555767
 10
4.760944947495261
 20
440.9632011617448
 10
4.792956311919681
 20
442.40180379203025
 10
4.79717182739563
 20
442.67538067634916
 10
4.799020592693864
 20
442.89116859857955
 10
4.95611818413596
 20
446.10658437702307
 10
5.371278166024467
 20
449.29895347707065
 10
5.527187157273147
 20
450.2095431397688
 10
5.614893922849433
 20
450.7718449697861
 10
5.666175046163914
 20
451.1305619859959
 10
5.764832656163037
 20
452.07970332824027
 10
5.820695931053706
 20
452.7954998382238
 10
5.853681925342983
 20
454.0393676318647
 10
6.040774106870003
 20
456.9854199464688
 10
6.444626440794821
 20
459.9096516433691
 10
6.4731551444981505
 20
460.0718132715607
 10
6.5883519721196535
 20
460.83108161769644
 10
6.663206998989949
 20
461.4040301730979
 10
6.809336208122261
 20
463.04914085065104
 10
6.817111140032296
 20
463.2134809517238
 10
6.826947393760179
 20
464.8650396504312
 10
6.797165415952065
 20
465.7068575529329
 10
6.841943194812188
 20
469.4828909506092
 10
7.242609813402964
 20
473.23787424359375
 10
7.3342164591566075
 20
473.829880557027
 10
7.382346862184079
 20
474.1497683457395
 10
7.503443696102806
 20
475.12547270556917
 10
7.572177482337906
 20
475.82123186735066
 10
7.668977455938659
 20
477.8176533482434
 10
7.667878035245906
 20
478.5167984947244
 10
7.641293584014363
 20
479.5166107555846
 10
7.6403213889836366
 20
479.5354372717003
 10
7.577910079798812
 20
480.62469341737574
 10
7.544877045537135
 20
484.5240860011463
 10
7.891694306656632
 20
488.4081652345177
 10
8.615065721942813
 20
492.24001694084245
 10
8.890309322104144
 20
493.38787033650794
 10
9.084157223393333
 20
494.28699198459293
 10
9.244145177802523
 20
495.12181541180587
 10
9.363147297569355
 20
495.7662213992002
 10
9.494008957412802
 20
496.5807941996876
 10
9.576683910402267
 20
497.17712044814675
 10
9.73941856855464
 20
498.89026390649826
 10
9.74826626974425
 20
499.06140258963126
 10
9.761600008034065
 20
500.61208915436316
 10
10.002743168518009
 20
504.6671210889985
 10
10.65391992462719
 20
508.6767847715365
 10
11.708414432440918
 20
512.5997269515528
 10
12.01991444617903
 20
513.5609271877391
 10
12.076227885807725
 20
513.7745991678968
 10
12.653739409450566
 20
516.5947431352425
 10
13.479502114526383
 20
519.9028218035801
 10
14.583988061141895
 20
523.1285588224227
 10
14.928682050758198
 20
524.0106611692547
 10
16.258152941737194
 20
527.037532162753
 10
17.833038044395096
 20
529.9442791030056
 10
18.246154051932706
 20
530.6368098706488
 10
18.548411338691437
 20
531.1613896683637
 10
18.827864928989356
 20
531.6638237043601
 10
19.30078175860575
 20
532.567611842615
 10
19.629869017417434
 20
533.2375917174711
 10
20.453383175237832
 20
535.1630085385467
 10
20.886339881208755
 20
536.3426933818535
 10
20.91509352300892
 20
536.3321404938436
 10
21.656132965691313
 20
538.3728486547889
 10
23.347029906082184
 20
541.9066089561186
 10
25.37548769587977
 20
545.2580196031874
 10
27.722050135824134
 20
548.3949351337237
 10
30.364209887267407
 20
551.2872674414177
 10
30.752914958191695
 20
551.6730169389452
 10
31.43467378486423
 20
552.3910363758132
 10
31.81443140498999
 20
552.811834418119
 10
32.95217534072356
 20
554.191973048376
 10
33.59714486915965
 20
555.0498393029173
 10
33.623185510003566
 20
555.0302611696636
 10
34.60649177555814
 20
556.3453956255705
 10
36.842341368563154
 20
558.8628775089162
 10
39.28199168023639
 20
561.1834043439834
 10
39.29686963249986
 20
561.1964080679622
 10
39.69912161982535
 20
561.5837424963577
 10
42.921117661239975
 20
564.3712670160255
 10
46.4213197264792
 20
566.8002867650471
 10
50.1600190043975
 20
568.8432451953472
 10
54.094800999834405
 20
570.4769655162795
 10
54.45963191749698
 20
570.6061262000646
 10
54.78123654791378
 20
570.7274351708618
 10
54.78410139743099
 20
570.7198401112045
 10
55.018363304832036
 20
570.8198858871399
 10
55.405266731881426
 20
570.9630203034837
 10
55.971484263027094
 20
571.1866206277003
 10
57.56063667075853
 20
571.8956091145403
 10
58.28920073999191
 20
572.2594646593875
 10
61.949399511665064
 20
573.8642525994892
 10
65.75146897295673
 20
575.0957830263837
 10
69.65745401642346
 20
575.9417618801785
 10
73.62836217138403
 20
576.3937439657982
 10
77.62455285599117
 20
576.4472172592526
 10
81.60613309923446
 20
576.1016479500421
 10
82.57246759888392
 20
575.9688660183606
 10
82.73124690024645
 20
575.9512046983087
 10
83.9479980478061
 20
575.8408175380464
 10
84.6931081023038
 20
575.7935565528844
 10
86.84154686886538
 20
575.7730058703359
 10
87.59227559184706
 20
575.8062195715122
 10
89.15796113130298
 20
575.917731285071
 10
95.03356998587364
 20
575.9035752437023
 10
96.09511316376617
 20
575.8228268338212
 10
97.10456190202774
 20
575.7716590895727
 10
97.41610220592162
 20
575.7637535823976
 10
98.35980314237287
 20
575.7412743137693
 10
99.22698549757484
 20
575.7394997479319
 10
99.83406143044047
 20
575.7514400730201
 10
101.56623600053763
 20
575.860869690463
 10
102.16998811919004
 20
575.9254230703132
 10
103.03118482754923
 20
576.0364619204963
 10
104.03866135392403
 20
576.1886657747002
 10
104.32055012295132
 20
576.2311961428101
 10
105.67404292117592
 20
576.4672208362904
 10
105.67651181656612
 20
576.4530628595087
 10
109.16954584846272
 20
576.9639251871017
 10
113.18987916105499
 20
577.143235998305
 10
114.61144636036457
 20
577.135056319729
 10
115.24667585442302
 20
577.1464435374929
 10
118.01400245468108
 20
577.3242563856883
 10
118.01480982964708
 20
577.3116910944707
 10
121.60786127065776
 20
577.5033265959253
 10
125.45065808933663
 20
577.2687690958137
 10
125.45210633137813
 20
577.2860317761758
 10
127.50754167518198
 20
577.1135922814951
 10
127.77348366943531
 20
577.1004678756431
 10
127.89159876713384
 20
577.0944637676618
 10
128.35932059205965
 20
577.0699949159991
 10
129.2582832253076
 20
577.0432172005721
 10
129.88711434343205
 20
577.0386330835065
 10
131.683423303977
 20
577.106364039321
 10
131.86175189976225
 20
577.1211393008657
 10
133.6447134362158
 20
577.3499657059151
 10
134.26421536196074
 20
577.457979377489
 10
134.55310591026068
 20
577.5150708672568
 10
137.9644838611318
 20
578.0374789435268
 10
141.4081953587034
 20
578.2638875196342
 10
144.85860539366308
 20
578.1926112087625
 10
145.49844709997174
 20
578.1517292517731
 10
145.59526706737557
 20
578.1486801962852
 10
145.92556551046724
 20
578.140553914012
 10
145.99727354554528
 20
578.1392835332204
 10
146.59611434182668
 20
578.1613059524391
 10
148.02410145117838
 20
578.143630561154
 10
148.22957861332236
 20
578.1517310033348
 10
150.04334152751682
 20
578.3175726329755
 10
150.64485964744438
 20
578.359805522419
 10
151.1269698202459
 20
578.4193922052799
 10
151.47356852539437
 20
578.4665642557381
 10
152.22258146578577
 20
578.5940865836991
 10
152.80131384186308
 20
578.705213112939
 10
154.44069274627108
 20
579.0922641876741
 10
154.83390318822657
 20
579.2027805800772
 10
158.52380844869938
 20
580.0536834845432
 10
162.27764248325684
 20
580.5518467359896
 10
166.0617628762203
 20
580.6928057216961
 10
167.4250007739562
 20
580.6790105285395
 10
167.63894179531218
 20
580.688394958271
 10
169.78424692291372
 20
580.8988600071906
 10
169.99593278191358
 20
580.9312316806088
 10
171.37881127686515
 20
581.2197754119774
 10
175.89487052337967
 20
581.895810108362
 10
180.45855219590223
 20
582.0527292615176
 10
184.29974070189553
 20
581.7453538903444
 10
184.3023419879276
 20
581.7693129964474
 10
185.2125036496869
 20
581.6704950018407
 10
185.6393232932674
 20
581.6271021241848
 10
185.7620325450838
 20
581.6157877285166
 10
186.89551140147404
 20
581.5466127442659
 10
187.71264952420483
 20
581.5207096022507
 10
190.0495938324475
 20
581.5834458382637
 10
191.44735742354078
 20
581.7030596454956
 10
191.44825433839594
 20
581.6925786236318
 10
194.4907224276293
 20
581.9026313336994
 10
198.14455913653512
 20
581.8205160123384
 10
201.77564923950467
 20
581.4052446727699
 10
201.79160302324894
 20
581.402677079476
 10
202.62788634614643
 20
581.2862079311748
 10
203.99601872137572
 20
581.127582682986
 10
205.05225516525562
 20
581.033507259204
 10
205.7926687565527
 20
580.987328414501
 10
207.9135995213477
 20
580.967814338961
 10
208.65473745128827
 20
581.0003618531268
 10
209.7135511692207
 20
581.0750590583997
 10
211.27773370632593
 20
581.2272233420393
 10
211.8857068600071
 20
581.2907772949991
 10
215.73220458275327
 20
581.5063316370758
 10
219.58159842534357
 20
581.35084707158
 10
223.3981804279232
 20
580.8257659130293
 10
224.1793108804038
 20
580.6796694539698
 10
226.12011431727421
 20
580.414327144996
 10
226.31420554401163
 20
580.3974268653108
 10
228.27166168632505
 20
580.3233325171979
 10
228.46647512098497
 20
580.3255118349462
 10
231.40061408046458
 20
580.5023805752555
 10
231.4021845925372
 20
580.476326787285
 10
234.61270743730628
 20
580.6454553531678
 10
239.1297131389776
 20
580.3715607220663
 10
240.3058928099212
 20
580.2331271205146
 10
241.89448816887398
 20
580.1160218327269
 10
242.0580346091596
 20
580.1107063532584
 10
243.70054710339159
 20
580.1248377876263
 10
244.27450406747855
 20
580.1533849910837
 10
245.1598540585343
 20
580.2156772954961
 10
245.58450691457384
 20
580.2511020728984
 10
245.68658695127158
 20
580.2588408233592
 10
247.75855631320766
 20
580.4885637450105
 10
247.76119090976607
 20
580.4648011909266
 10
250.61185243008637
 20
580.7419198576704
 10
254.47180562906132
 20
580.7433528228673
 10
255.81922094542756
 20
580.6787663824136
 10
257.5014622968834
 20
580.6778591252234
 10
257.67578850596794
 20
580.6854135575304
 10
259.42162192952065
 20
580.8379584446166
 10
260.11981162923485
 20
580.9299498461426
 10
260.80677864447586
 20
581.032629411201
 10
261.6576132927848
 20
581.1749494645935
 10
265.7253321572998
 20
581.642883497233
 10
269.8195762532868
 20
581.6925252348127
 10
273.8974448141653
 20
581.3233545157234
 10
273.93647562464247
 20
581.3177949608666
 10
274.2619712529387
 20
581.2841233443035
 10
276.08461169239195
 20
581.1793893448656
 10
276.2663060079358
 20
581.1772600133933
 10
279.0041502118814
 20
581.2702787841208
 10
279.00471664174745
 20
581.2536069154896
 10
281.3033299655818
 20
581.3332857657881
 10
284.8960492577003
 20
581.1342757846062
 10
288.456348406588
 20
580.6132125878623
 10
289.10657300816234
 20
580.4879490397327
 10
289.29568864789115
 20
580.4608629148936
 10
291.2076182149263
 20
580.2802237816205
 10
291.39846036657076
 20
580.2714114888101
 10
293.3189008500441
 20
580.2750877931055
 10
293.50970786432373
 20
580.2846306779236
 10
294.8666188004045
 20
580.4180750088555
 10
298.7241533200547
 20
580.6100736837443
 10
302.58222251593037
 20
580.4291368403783
 10
304.13014965344223
 20
580.2813873601818
 10
304.32178077174524
 20
580.272393007253
 10
306.25031585486624
 20
580.2750137136456
 10
306.4419218204308
 20
580.2845288514358
 10
308.36122799919247
 20
580.472991651724
 10
308.5510251563607
 20
580.5009277040278
 10
310.4432356523732
 20
580.873478202209
 10
310.7013896663649
 20
580.9373811379027
 10
310.97405347342345
 20
581.0038615180629
 10
311.3178935661746
 20
581.086419103958
 10
311.7077572667944
 20
581.196523668842
 10
312.09706859269284
 20
581.3166036883551
 10
312.4464005129759
 20
581.4295830081735
 10
315.8480574456436
 20
582.3661892905736
 10
319.3190153876702
 20
582.9993971399249
 10
322.832269198955
 20
583.3242800008004
 10
326.3604846642846
 20
583.3383101827699
 10
327.932577242329
 20
583.2751712031758
 10
329.4960582698268
 20
583.2124451174691
 10
329.6291986993442
 20
583.2068814441033
 10
330.3612664734959
 20
583.1750681627925
 10
331.33929128601005
 20
583.1353514265377
 10
331.4740813811446
 20
583.1296500196461
 10
332.8072931854165
 20
583.0710047864587
 10
333.1244689990241
 20
583.0557912594641
 10
334.2384042579034
 20
582.9979281452904
 10
334.64030215060393
 20
582.9797185754629
 10
335.85377059034164
 20
582.9365974416974
 10
336.33587846842374
 20
582.9218820361255
 10
339.61105095551346
 20
582.6870773969265
 10
342.85592952886736
 20
582.18443330518
 10
346.04864799006214
 20
581.4173369185862
 10
346.701438397089
 20
581.2318476983359
 10
347.3253688567912
 20
581.0663002439132
 10
348.5519083396604
 20
580.767259047899
 10
349.532977311403
 20
580.551976110717
 10
350.1038847196854
 20
580.4395541198347
 10
350.3309066605876
 20
580.4032000354525
 10
351.02081895165117
 20
580.3037720025686
 10
351.61020398852537
 20
580.2277521983194
 10
352.351985716508
 20
580.143260206224
 10
353.4807667201633
 20
580.046986733834
 10
354.9557000974632
 20
579.9631907330103
 10
355.85065737182157
 20
579.932427372921
 10
356.65054513790886
 20
579.922853253311
 10
356.890067495048
 20
579.9214207723724
 10
357.616247418665
 20
579.9214264030289
 10
358.1464979094079
 20
579.9298733570461
 10
358.3464467167119
 20
579.9373093025063
 10
358.65841018567886
 20
579.9518434380674
 10
358.95209163880173
 20
579.9676907019115
 10
360.37726479097614
 20
580.0551080827704
 10
360.9694434880413
 20
580.1002661162942
 10
361.6790380322735
 20
580.1649886873311
 10
362.26961472335745
 20
580.2277105272522
 10
363.2909280132145
 20
580.3515401881562
 10
363.60521226907923
 20
580.3883849282068
 10
363.7884331311943
 20
580.4091302595546
 10
364.5490479094244
 20
580.5100649598542
 10
365.0562494932544
 20
580.5872998718169
 10
368.83315251525624
 20
580.9801146645746
 10
372.63028531044046
 20
581.0130150407508
 10
376.41342788097563
 20
580.6857045001016
 10
377.4351668845539
 20
580.5481876171202
 10
378.35735411139797
 20
580.4515891664935
 10
379.09807192369135
 20
580.3928729561053
 10
381.1776814711105
 20
580.3366352025942
 10
381.3843832272389
 20
580.3418104813138
 10
384.497074965193
 20
580.5822764590905
 10
384.49856151105513
 20
580.5630339905058
 10
387.76896764109455
 20
580.7991029316382
 10
392.33121982986813
 20
580.6066377645174
 10
393.1481563104093
 20
580.5252719172327
 10
395.36834048145926
 20
580.4283168016103
 10
395.5890052862541
 20
580.4309620605504
 10
397.8062272485717
 20
580.581111378374
 10
398.5775559980837
 20
580.6766584856109
 10
399.677116015196
 20
580.8440332775222
 10
400.39468860744256
 20
580.9737756411364
 10
401.0621333828579
 20
581.106218661738
 10
401.4923637725253
 20
581.1992249974871
 10
405.8878346129061
 20
581.8961370126103
 10
410.3335183915427
 20
582.1004554058779
 10
414.77438351640575
 20
581.8096509901002
 10
415.9351463754823
 20
581.6684516994961
 10
416.9830282329592
 20
581.5702470185743
 10
417.28136280481647
 20
581.5442254165253
 10
418.61795342792107
 20
581.4887106728531
 10
420.296416306728
 20
581.4778231106025
 10
422.39636817997786
 20
581.5377670949647
 10
422.3967087426477
 20
581.5258365363908
 10
425.68822450805175
 20
581.5741897209602
 10
429.7378265129413
 20
581.2210692337746
 10
432.2037818242022
 20
580.8790610858475
 10
432.3738644459629
 20
580.8628734836659
 10
434.087178244626
 20
580.7737601875049
 10
434.68735721554447
 20
580.7683333868692
 10
435.46585495606814
 20
580.7780029214964
 10
435.7543664173462
 20
580.7909842217847
 10
436.2853713851446
 20
580.8207758527851
 10
436.727620762903
 20
580.8505075060336
 10
438.10865152335157
 20
580.9587373030314
 10
438.18586273778794
 20
580.964713061492
 10
438.81063005986147
 20
581.012458531534
 10
439.95519811870133
 20
581.1220267438521
 10
439.9579587252142
 20
581.0931889817784
 10
443.36577163252286
 20
581.3084532471755
 10
447.4821892664553
 20
581.1438976598766
 10
451.55984895880886
 20
580.5568166504618
 10
452.24656344754004
 20
580.421532334069
 10
452.50756762582637
 20
580.3726305973903
 10
452.7689513420008
 20
580.3254521405519
 10
454.78894646938295
 20
579.97468709117
 10
455.89693445285707
 20
579.7898285910032
 10
456.27768724310806
 20
579.7308320041686
 10
456.7663080397617
 20
579.6602604955514
 10
457.17411319448064
 20
579.6056374367076
 10
457.9515462285136
 20
579.5096346659184
 10
459.9753808241611
 20
579.2595605310206
 10
460.7166793955803
 20
579.1819577762396
 10
461.60754775873113
 20
579.1054511338162
 10
462.35122326644773
 20
579.0555262026
 10
464.3529837947308
 20
578.9585739568545
 10
464.58367194907675
 20
578.9467331775746
 10
465.3143820406925
 20
578.9071115021871
 10
465.60506468027
 20
578.8942485019822
 10
465.8930713608706
 20
578.8835825150211
 10
466.1459529246688
 20
578.8760414661369
 10
466.63516508105806
 20
578.8649762096159
 10
466.95907530324234
 20
578.8602449464466
 10
471.2898862156628
 20
578.5613954855602
 10
475.56280672353296
 20
577.7949853519926
 10
477.5964314826799
 20
577.3150318500959
 10
478.55037509549
 20
577.1207248683403
 10
478.6816303533579
 20
577.0991039707621
 10
479.9765082939293
 20
576.8934820169375
 10
480.9626028678667
 20
576.7619497177741
 10
481.6539968077285
 20
576.6871782867709
 10
483.6387738726669
 20
576.5719857288689
 10
484.334175684863
 20
576.5662702614745
 10
485.3288659088489
 20
576.5828417060627
 10
486.4342969936971
 20
576.628782744484
 10
486.43442335990255
 20
576.6257421268505
 10
486.53772034405176
 20
576.6348676796038
 10
487.0040713360182
 20
576.6530392858601
 10
487.90271079362896
 20
576.7035807520806
 10
488.5390846000628
 20
576.7511504934599
 10
488.68249107979483
 20
576.7652477101199
 10
489.7299118201161
 20
576.8743846086352
 10
493.7833750801626
 20
577.0896622936011
 10
497.83778502976315
 20
576.8930183443647
 10
498.55877180476443
 20
576.8212428878576
 10
499.4754580805466
 20
576.741055974795
 10
499.64294582854586
 20
576.7260502077952
 10
499.95106907260913
 20
576.6977914606273
 10
500.88281546991027
 20
576.634237942729
 10
502.0018528175732
 20
576.584127058366
 10
502.9355503754347
 20
576.5641453425942
 10
503.230119714244
 20
576.5647214404178
 10
504.7670217312835
 20
576.5761310707219
 10
505.2391299706487
 20
576.5856361855351
 10
505.8198167815945
 20
576.6043621810343
 10
506.3035601210273
 20
576.6258269130908
 10
507.98219772879906
 20
576.7206855845573
 10
508.03212092772833
 20
576.7234754094131
 10
508.6038372922002
 20
576.7550658200579
 10
509.02692834971424
 20
576.7821677229347
 10
509.847577022758
 20
576.8402546410155
 10
512.8036667113166
 20
576.9398632841514
 10
515.7590352753474
 20
576.8207634129135
 10
516.3204168650761
 20
576.7773055692595
 10
516.4356728761069
 20
576.7691909650405
 10
517.9303380101697
 20
576.677056545979
 10
518.3666920535273
 20
576.6538508974381
 10
519.395862619231
 20
576.6099520819737
 10
519.7330643839588
 20
576.5941431576503
 10
520.0924681096543
 20
576.5757731395447
 10
520.7654457923295
 20
576.5527269310439
 10
521.5731697530673
 20
576.5386747836579
 10
522.2465418250533
 20
576.5382982560444
 10
522.7361136667882
 20
576.5462677823092
 10
523.2002940798326
 20
576.5511300270107
 10
523.595467970275
 20
576.5529762587387
 10
524.0500703986673
 20
576.5585450978953
 10
524.0501917773697
 20
576.5486365601687
 10
528.1366950432833
 20
576.4101150633285
 10
532.388704313279
 20
575.8052477019096
 10
536.5513529423986
 20
574.7479853184273
 10
540.5766522330458
 20
573.2505164614042
 10
544.4181969063693
 20
571.3301045576975
 10
545.5386266472425
 20
570.6926243195396
 10
546.9180420988787
 20
569.954721998785
 10
546.9056126877213
 20
569.9314867800805
 10
549.7486023847897
 20
568.31932356547
 10
553.0561114867222
 20
565.9715355318551
 10
556.1088523585993
 20
563.3008617817833
 10
558.3177447391123
 20
561.1612621868883
 10
559.1355484535386
 20
560.4462881471477
 10
561.87677433201
 20
557.8095417496636
 10
564.3551682196235
 20
554.9243529136795
 10
566.5483211745302
 20
551.8168087067804
 10
567.1055329370004
 20
550.9417395119917
 10
567.679239199927
 20
550.0817718471706
 10
569.6331296824804
 20
546.828585799344
 10
571.2699404830933
 20
543.4048805137528
 10
572.5749393762023
 20
539.8414712798069
 10
572.5789312199925
 20
539.8287293624097
 10
572.6922936104525
 20
539.491482925476
 10
572.9850677105578
 20
538.679022342435
 10
573.2047883167678
 20
538.1082430042158
 10
573.8995430232452
 20
536.5140018576834
 10
573.9755617247583
 20
536.3584166850612
 10
574.8062450365871
 20
534.8305900682896
 10
574.8954981921058
 20
534.6822005027883
 10
575.8558235922351
 20
533.2323508342589
 10
576.2135282617131
 20
532.740228463334
 10
576.7402595483004
 20
532.0477532501396
 10
576.9946819183825
 20
531.7279568546612
 10
577.3200869385046
 20
531.3204919236408
 10
577.3046879633482
 20
531.3081941688179
 10
579.0091236734179
 20
529.083658177676
 10
580.8910952215674
 20
526.1216865806811
 10
582.506214018463
 20
523.0061635232532
 10
583.5400324303298
 20
520.4947459207824
 10
583.5484632715006
 20
520.4981376789024
 10
584.3513448929416
 20
518.5024271388934
 10
584.8330762384669
 20
517.4189127074909
 10
584.933207817015
 20
517.1961364059911
 10
586.2403558111395
 20
513.9057375355685
 10
587.2514246866419
 20
510.51264155490253
 10
587.9584931229284
 20
507.0434320150464
 10
588.0036159326594
 20
506.75799847079986
 10
588.1850634307609
 20
505.7713663659314
 10
588.329159261565
 20
505.08508495829227
 10
588.6058328195047
 20
504.0329049315837
 10
589.4913461840549
 20
499.7069339293854
 10
589.8946402439396
 20
495.3097174311994
 10
589.930774537118
 20
494.3129585842855
 10
589.9972010575744
 20
493.2554707539523
 10
590.033041605604
 20
492.8548726932737
 10
590.0533136521395
 20
492.6205261334593
 10
590.1514083778429
 20
491.44634407090155
 10
590.2016166594278
 20
490.9270846128411
 10
590.2699782772055
 20
490.304904708823
 10
590.3337132954084
 20
489.78713149226155
 10
590.3419854077861
 20
489.72646642550444
 10
590.6633344463764
 20
486.2276326254397
 10
590.6764062717664
 20
482.71409704251755
 10
590.3811000258103
 20
479.2129690262665
 10
590.3300507185719
 20
478.81657880628154
 10
590.2545753116327
 20
478.08200412383695
 10
590.1730377355905
 20
477.08392458059643
 10
590.122445886657
 20
476.2506368339414
 10
590.0645788562065
 20
474.7961700111414
 10
590.0368332168612
 20
473.0759302550964
 10
590.0524867322503
 20
472.29184801302654
 10
590.0897997460612
 20
471.40648973371174
 10
590.1656095817185
 20
470.22870422542866
 10
590.2975576562324
 20
468.88668941994035
 10
590.5098997677832
 20
467.2841240298729
 10
590.8431229390133
 20
465.28864257737496
 10
590.8251161907373
 20
465.28563565102314
 10
591.2311357385051
 20
462.6822990725794
 10
591.4648804744804
 20
459.1331249945684
 10
591.3824150462522
 20
455.5772182619939
 10
591.3135229681013
 20
454.5605988297293
 10
591.3019227089347
 20
454.2925574800778
 10
591.2891974071626
 20
453.9377971712812
 10
591.2807793964095
 20
453.6420790811685
 10
591.2760835860139
 20
453.41916594288654
 10
591.272608945257
 20
453.19405514387677
 10
591.2699599551108
 20
452.92391048432734
 10
591.2690195598382
 20
452.69877483495895
 10
591.269255274035
 20
452.5363839605958
 10
591.2734008262112
 20
452.15719355388114
 10
591.2826884503861
 20
451.70226846011633
 10
591.2833732402235
 20
451.679367686059
 10
591.344524354527
 20
450.6112288149796
 10
591.3895367090258
 20
450.0697775693792
 10
591.4492698165707
 20
449.3494984935469
 10
591.4850014741298
 20
448.9986939461684
 10
591.5218061835853
 20
448.6725691734376
 10
591.7689003791123
 20
444.8331668847941
 10
591.6459912461569
 20
440.98778539259587
 10
591.5910039809467
 20
440.3024474214358
 10
591.5316165251071
 20
439.13512309552215
 10
591.5139707737405
 20
438.31830864568514
 10
591.5266866982164
 20
437.15385427593225
 10
591.552766881336
 20
436.502714766983
 10
591.740654571513
 20
434.4549687973856
 10
591.8431322501244
 20
433.74304493204204
 10
591.9971283310185
 20
432.8388564577658
 10
592.0098259992176
 20
432.77722150553393
 10
592.0406673224279
 20
432.583217132496
 10
592.1023155298064
 20
432.2212494885939
 10
592.0983183784961
 20
432.22056871721264
 10
592.5813442110641
 20
429.18214124218287
 10
592.8236621507538
 20
425.54999075211316
 10
592.7485210630275
 20
422.47370218933486
 10
592.7612077273457
 20
422.4731370230195
 10
592.6773529988491
 20
420.59079413914196
 10
592.6686022631222
 20
419.9782998367631
 10
592.7425907891015
 20
417.9511111676246
 10
592.8044201522634
 20
417.2442633165669
 10
592.9755759078752
 20
415.73111846835525
 10
592.9534421049068
 20
415.7286148562416
 10
593.2777335990925
 20
411.71134676468495
 10
593.1119034342505
 20
407.0672364644753
 10
593.0284106869367
 20
406.17986296666174
 10
592.9602625730577
 20
405.16491167966984
 10
592.9168284517416
 20
404.0182599940117
 10
592.9094946972555
 20
403.2159902927732
 10
593.020251084263
 20
400.9244103880269
 10
593.1049252592235
 20
400.1265410474109
 10
593.1086421646953
 20
400.09906200237907
 10
593.4475382577016
 20
396.06626653257763
 10
593.3772031354059
 20
392.01986778385333
 10
593.2902638336507
 20
390.74312454953514
 10
593.2868883910255
 20
390.53868652484596
 10
593.3588068206817
 20
388.48300622389536
 10
593.3764611425504
 20
388.27930393016374
 10
593.8008755253262
 20
385.22184921251915
 10
593.7736801441704
 20
385.21807414077693
 10
594.1165817860985
 20
382.7595105674336
 10
594.2665902339152
 20
378.69735537574394
 10
594.2601306213087
 20
378.2333967886747
 10
594.3300032112579
 20
376.2623651725677
 10
594.3884300092652
 20
375.5749550951621
 10
594.4945184310237
 20
374.6097213854186
 10
594.6968740632169
 20
373.16612774375096
 10
594.6584521820062
 20
373.1607419593875
 10
595.0097573797459
 20
370.23657943422626
 10
595.0803504458688
 20
366.1466926606579
 10
595.061618729273
 20
365.5942619033958
 10
595.0548331027301
 20
364.93393453937625
 10
595.1245933084124
 20
363.04745832266167
 10
595.1801303439264
 20
362.38943559502536
 10
595.1839825694717
 20
362.35384563392404
 10
595.4133840506694
 20
358.5288827769127
 10
595.2757377553044
 20
354.69951998468946
 10
595.1146439033099
 20
352.78271290716077
 10
595.0347739664386
 20
351.23140316631964
 10
594.9977766024831
 20
349.28792332718166
 10
594.9645711210196
 20
349.288555448626
 10
594.9034785286451
 20
346.36257096416034
 10
594.2793911294299
 20
341.8023193669644
 10
594.1014369041648
 20
340.89452728693215
 10
594.0002560338683
 20
340.3332251291334
 10
593.7560960468304
 20
338.4926992798925
 10
593.734837787944
 20
338.2444655654761
 10
593.6635981033895
 20
336.28183914148514
 10
593.6661109146537
 20
336.08653184000843
 10
593.787820712223
 20
334.126387891729
 10
593.8094882004909
 20
333.93226994772834
 10
594.1229724810545
 20
331.99353191007634
 10
594.3680080037847
 20
330.84081802236307
 10
594.331782892391
 20
330.83311755202004
 10
594.9583339245069
 20
327.3672773907733
 10
595.2602705632887
 20
322.9653548204645
 10
595.2729975709433
 20
322.0087381281569
 10
595.2853460049726
 20
321.8123955816685
 10
595.5784459034066
 20
319.2137715027453
 10
595.657393844307
 20
318.5866706247967
 10
595.8531592697841
 20
317.2691708611023
 10
596.2094105350924
 20
313.88919364243344
 10
596.2774469070321
 20
310.49117480569237
 10
596.0567771986757
 20
307.09964626496503
 10
595.9977483652892
 20
306.55250341846516
 10
595.9195531990628
 20
305.48839785293455
 10
595.8840939389138
 20
304.70749396253416
 10
595.9077295136456
 20
302.47247703152277
 10
595.9442571833495
 20
301.9242157874444
 10
595.9692889180833
 20
301.5172408220074
 10
595.9828952187358
 20
301.2759612947063
 10
596.0214745715466
 20
297.6135042575929
 10
595.724885456515
 20
293.9628721462992
 10
595.6554918545269
 20
293.4188196592859
 10
595.6397362177148
 20
293.19517009613605
 10
595.6085751158028
 20
290.93708573048997
 10
595.6423158203464
 20
290.14801173442055
 10
595.7224984605382
 20
289.0205806063758
 10
595.7446018160051
 20
288.79864587661996
 10
595.8379608019604
 20
288.08532042921223
 10
596.1523684141603
 20
284.2751678878677
 10
596.1015909151304
 20
280.45240237315
 10
596.094424426132
 20
280.3352363332519
 10
596.063861061825
 20
278.5962601902751
 10
596.0683532272108
 20
278.42313559587257
 10
596.147146521486
 20
277.2905456212868
 10
596.233879245105
 20
273.63297308234104
 10
595.9860592534344
 20
269.98277518431894
 10
595.8919218613296
 20
269.1572043101619
 10
595.8052931012788
 20
268.2549541994907
 10
595.7614520659088
 20
267.6693299582436
 10
595.7065267177529
 20
265.99162042680325
 10
595.708076496497
 20
265.82443337731377
 10
595.7940935612307
 20
264.1480303439316
 10
595.8487832868065
 20
263.56331945619826
 10
595.936189015497
 20
262.80167667089455
 10
595.9381792172367
 20
262.7874420275183
 10
596.0611027917196
 20
261.93786342201213
 10
596.4125579945458
 20
260.0068367694469
 10
596.8801652662366
 20
256.6230713309007
 10
597.0573639968962
 20
253.21174816920956
 10
596.9428619066264
 20
249.79774547809146
 10
596.8645320529499
 20
248.7723038150168
 10
596.864089597785
 20
248.77233761259848
 10
596.8451647643903
 20
248.50568211646888
 10
596.785414735449
 20
247.76635811624072
 10
596.7656493806156
 20
247.4995799655159
 10
596.7206994979543
 20
246.83234867141027
 10
596.6945292762387
 20
246.360984043097
 10
596.6570712891353
 20
245.50358632453464
 10
596.6459370614342
 20
245.19362609915254
 10
596.6354611036274
 20
244.82160098164283
 10
596.6291350079343
 20
244.5115053627478
 10
596.6275571691627
 20
244.38671696573985
 10
596.6274328351365
 20
243.89104464029353
 10
596.6346536901428
 20
243.29636160027493
 10
596.6468134757524
 20
242.80083843302313
 10
596.6551913267748
 20
242.57406532665465
 10
596.6807836093647
 20
241.8795735937953
 10
596.7261788208523
 20
241.08151165088154
 10
596.7997563481022
 20
240.1254516405947
 10
596.8801160240769
 20
239.297839852069
 10
596.9139645336302
 20
238.99543460809272
 10
596.9889506404829
 20
238.29168699704337
 10
597.0117368985923
 20
238.0970849774489
 10
597.1397746939124
 20
237.17466403042368
 10
597.4922580136853
 20
233.15488152420153
 10
597.4379475748749
 20
229.120039982792
 10
597.3746334474813
 20
228.13088430723295
 10
597.3495236548573
 20
227.54822810189296
 10
597.3485990590739
 20
226.87042046766703
 10
597.0860570376458
 20
222.3492449199368
 10
596.356726647118
 20
218.1329651971467
 10
596.3605430591617
 20
218.13217054481046
 10
596.3371812359512
 20
218.01997261950788
 10
596.3141320305319
 20
217.8867245076808
 10
596.2951720057711
 20
217.8049845732748
 10
596.0429579312323
 20
216.50389024029562
 10
595.9354375237313
 20
215.84649813378402
 10
595.7064825284283
 20
213.77063054295257
 10
595.6945380727439
 20
213.56341430758957
 10
595.6834528902195
 20
211.474988162555
 10
595.7422860869744
 20
210.2231537535253
 10
595.7243858814785
 20
210.22231248705725
 10
595.8630903135258
 20
206.9376745302239
 10
595.6077012739011
 20
203.3897339128486
 10
595.6179478913759
 20
203.38890767044975
 10
595.3845433084549
 20
200.4943485418779
 10
595.3783778658087
 20
200.30194823613948
 10
595.4101017765677
 20
198.36699594401784
 10
595.422571089344
 20
198.17490115863916
 10
595.750738415089
 20
195.28954910829088
 10
595.7390603183592
 20
195.28822089263235
 10
596.0404050949401
 20
192.63720549891408
 10
596.1032362286026
 20
188.7599560733691
 10
595.7903380193823
 20
184.894842159147
 10
595.5596522063493
 20
183.12025652906362
 10
595.0066033947237
 20
179.90065146535403
 10
594.3332402384858
 20
177.28328532991304
 10
594.343027832781
 20
177.28060535970621
 10
594.0214798035529
 20
176.10627079118143
 10
593.5856508556162
 20
174.12458023706736
 10
593.5523773943335
 20
173.92561680122776
 10
593.3197121404648
 20
171.9099503596338
 10
593.3067824645332
 20
171.70863867217582
 10
593.2796787295961
 20
169.6797696000878
 10
593.2872260909642
 20
169.4781843591516
 10
593.4659632033431
 20
167.4570219785442
 10
593.4939098196585
 20
167.25724070148533
 10
593.7719187050626
 20
165.80985189707522
 10
594.4401766883495
 20
160.2600707132981
 10
594.5409438940819
 20
158.24253854930365
 10
594.5620855614499
 20
154.7333513758644
 10
594.2755767539976
 20
151.235815916204
 10
593.6836226658361
 20
147.77685191728193
 10
592.9709098301798
 20
144.48749303943117
 10
592.9471714480135
 20
144.33798814820904
 10
592.7264363568322
 20
142.23338021148342
 10
592.6610253344198
 20
140.96522634873276
 10
592.6457810794083
 20
140.96601264315294
 10
592.4962535772108
 20
138.07228922816265
 10
591.8297605810803
 20
133.8822552883428
 10
590.7232145837543
 20
129.78638501616197
 10
589.1890646408112
 20
125.83075848130039
 10
588.3500055854606
 20
123.96710253417893
 10
588.2715284360253
 20
123.76360621187342
 10
587.595141472751
 20
121.67437862357858
 10
587.3990813766322
 20
120.93178883545818
 10
587.1478339806081
 20
119.86185982757286
 10
587.1183516389615
 20
119.71874508825283
 10
586.9816554318547
 20
119.03606200433211
 10
586.6882273994429
 20
117.05239721100239
 10
586.610828117043
 20
116.25265477535737
 10
586.5560455313118
 20
115.4693839883154
 10
586.5467926951683
 20
114.99860243143985
 10
586.2828302837174
 20
111.13047424658825
 10
586.260659811689
 20
110.9412245408279
 10
586.2593067209382
 20
110.92826394138683
 10
585.4706353801414
 20
106.17206200273273
 10
584.1154758125836
 20
101.54529186455775
 10
583.8095076598408
 20
100.69450322535863
 10
583.4699112827323
 20
99.66308021387894
 10
583.0963936560711
 20
98.41556951980604
 10
582.8132883328747
 20
97.36723250150683
 10
582.6685515058427
 20
96.76696576659708
 10
582.6254973495506
 20
96.53806273406573
 10
582.4889498702912
 20
95.96762631036339
 10
582.3435550596289
 20
95.28548592511231
 10
582.0256818261018
 20
93.3170358720464
 10
581.9489758837456
 20
92.62380333201733
 10
581.9252139804236
 20
92.3457505050776
 10
581.4037906662795
 20
88.47906293560942
 10
580.6223725646385
 20
85.16593873385804
 10
580.6339250414248
 20
85.16292016165602
 10
580.3328431766245
 20
84.01063987113218
 10
579.9270501809758
 20
82.0678270252557
 10
579.8963384272845
 20
81.87286002475687
 10
579.6852259730042
 20
79.89938054904195
 10
579.636663735906
 20
79.04683431563956
 10
579.6096791081682
 20
78.37339472047611
 10
579.6042325722756
 20
78.1386413622536
 10
579.6059618606323
 20
77.93082008045843
 10
579.4290710872709
 20
73.82568882650315
 10
578.8319766744771
 20
69.76036335120463
 10
578.6026521985343
 20
68.6126731186886
 10
578.4908693909199
 20
67.92659380772554
 10
578.416489729379
 20
67.43104128294064
 10
578.2723088460039
 20
66.38098015298576
 10
578.2020253360661
 20
65.80782465357353
 10
578.12464246242
 20
65.09128915512082
 10
578.0936215124166
 20
64.75772263927726
 10
577.5676453188248
 20
61.02258276470744
 10
576.6921765589373
 20
57.35359444511752
 10
575.4750002953863
 20
53.78338397761354
 10
575.3462084958239
 20
53.45689578703366
 10
575.200369374485
 20
53.06415671525514
 10
575.176763432062
 20
52.99884122754162
 10
573.7676697399831
 20
49.59829398034108
 10
572.051944127637
 20
46.34167729478554
 10
570.0441158598716
 20
43.25656915070661
 10
567.7611878120085
 20
40.36909514358905
 10
565.2224924845351
 20
37.70370724540908
 10
562.4495282898529
 20
35.282976738204724
 10
560.5433826599815
 20
33.90590552616254
 10
560.5518621392074
 20
33.89422551622522
 10
559.6135927673065
 20
33.213058660207764
 10
558.1066579137747
 20
32.003641210704956
 10
557.2385428658264
 20
31.235062025773686
 10
557.2154834576911
 20
31.26110777303242
 10
555.1523616453328
 20
29.4530367490799
 10
551.6592419545958
 20
26.997015305715536
 10
547.9242125064045
 20
24.92735796083346
 10
547.638088468185
 20
24.788225785891797
 10
546.9435522236411
 20
24.426084787673176
 10
545.0187993968094
 20
23.280957752748094
 10
544.3691461637856
 20
22.843376475271413
 10
543.4573689427118
 20
22.191358542038614
 10
542.767612138662
 20
21.668280009985693
 10
542.0438719411123
 20
21.120118664916106
 10
541.1811998673584
 20
20.441554535732564
 10
541.1700863244363
 20
20.455683403892635
 10
538.6695699743311
 20
18.597455571062085
 10
535.5489687326335
 20
16.69413755679335
 10
532.2676513430999
 20
15.08363211989797
 10
528.8530183882932
 20
13.779387757413303
 10
527.226713648543
 20
13.241981470921928
 10
525.2724089410931
 20
12.65106609248977
 10
523.46518716548
 20
12.154593288091178
 10
519.675304509525
 20
11.117498403918262
 10
518.2132489890136
 20
10.746899725816604
 10
511.5033055138281
 20
9.18009635367764
 10
511.27517209082373
 20
9.126838015118892
 10
510.02292169378336
 20
8.855570449707443
 10
505.7524644117018
 20
8.001854220130895
 10
505.21446013463935
 20
7.8981274862587725
 10
502.7991391837493
 20
7.449590787073987
 10
501.39692730448763
 20
7.214891305360197
 10
494.66593774023283
 20
6.210896850195979
 10
493.3782021377557
 20
6.016662193886589
 10
491.8541178248
 20
5.816647629224519
 10
489.24022808543543
 20
5.524581716287912
 10
489.1950241748666
 20
5.519556825402503
 10
483.24720227297837
 20
4.8618168393533665
 10
481.68052117307
 20
4.719687582874599
 10
477.63573011903725
 20
4.432808035347932
 10
472.07312882688024
 20
4.0272524009836275
 10
470.5538782689649
 20
3.945499437263834
 10
461.0775609031084
 20
3.6161570845657707
 10
461.0077049212227
 20
3.613790397052014
 10
459.4058330754842
 20
3.5609208613078067
 10
458.5562081283627
 20
3.5419118340384443
 10
457.6024756239379
 20
3.5307082693026928
 10
448.8390376235935
 20
3.404181839967464
 10
448.4321771196454
 20
3.4003771821096507
 10
445.76601139431375
 20
3.3890059546647535
 10
445.4885644827872
 20
3.3887848596214667
 10
434.2865973853904
 20
3.4187076619120944
 10
431.3122461272416
 20
3.4170880265990604
 10
427.04482510393933
 20
3.398295200010523
 10
426.96520864286
 20
3.3980238222747516
 10
416.6645570819564
 20
3.373164817648899
 10
416.33793000204764
 20
3.3705440162777336
 10
408.370689604029
 20
3.2350233892111646
 10
401.58974405106665
 20
3.1044384761873403
 10
401.35957581024616
 20
3.0990868188690115
 10
393.1748983087091
 20
2.8564653249413254
 10
393.1150995341521
 20
2.8547374428658827
 10
386.7477800395633
 20
2.6755194544343794
 10
380.7660207904139
 20
2.4686134961000903
 10
371.7753763200865
 20
2.13860895321028
 10
362.1336343304868
 20
1.7535767566782852
 10
362.0454327774231
 20
1.7501519943389212
 10
356.9912293010471
 20
1.5594879592248958
 10
356.9469288535049
 20
1.5578413585852786
 10
352.06830730964924
 20
1.3792152802161581
 10
342.3355224000171
 20
0.9925314226007913
 10
342.1369034394162
 20
0.9851344770583523
 10
332.68990836199396
 20
0.6568116374059514
 10
332.56407005332136
 20
0.6526365050818868
 10
327.9000717655432
 20
0.5052399289439222
 10
327.5441291423507
 20
0.4955767038947556
 10
322.7835291332346
 20
0.387536992894411
 10
313.46652093515934
 20
0.15475913380402062
 10
312.89359748847653
 20
0.1445507076340391
 10
303.8537472563859
 20
0.04824095984190535
 10
299.1121002174807
 20
0.001102324191151638
 10
298.45023266192055
 20
0.0
 10
293.76700968476456
 20
0.030947077137966517
 10
293.69746208485475
 20
0.031467118281739204
 10
284.680378914167
 20
0.10673189109752457
 10
284.1186775066172
 20
0.11536528664106527
 10
274.9492689208976
 20
0.32071205649748435
 10
269.99130135354966
 20
0.4162297482962458
 10
269.6516131410505
 20
0.4242174256892213
 10
264.9864439112274
 20
0.5537450098912018
 10
264.8358202526627
 20
0.558211000946585
 10
255.3685831918613
 20
0.8567639659445945
 10
255.2071493013897
 20
0.8621811360301876
 10
245.62156929946906
 20
1.2032174687146266
 10
240.50485963730986
 20
1.3685870379258063
 10
235.3830693631821
 20
1.5359410333763321
 10
235.31018628744258
 20
1.5383890263940998
 10
225.8264264677287
 20
1.8655840293081383
 10
216.68019403241328
 20
2.149470405938189
 10
210.98575356187052
 20
2.320453819564193
 10
204.1966342068681
 20
2.48748468710653
 10
196.17591261172862
 20
2.687374908566653
 10
189.03372838594828
 20
2.8065242439569147
 10
181.1884868067765
 20
2.930082170454966
 10
180.92849165741023
 20
2.9330115611068095
 10
170.38581217609124
 20
2.9757187474265265
 10
166.23348354850935
 20
2.9962090208891254
 10
163.29884504049033
 20
3.006356576311873
 10
152.01594609588523
 20
3.023749176199715
 10
151.6791138300368
 20
3.025686651769945
 10
149.0812679455061
 20
3.051568471289272
 10
148.65421153852242
 20
3.058103510631213
 10
140.08196505399798
 20
3.235061363322643
 10
138.992920558827
 20
3.255298771949242
 10
138.14057258360177
 20
3.2802282665235794
 10
136.55979852730218
 20
3.3433327381523554
 10
136.48359065968143
 20
3.346447729540273
 10
127.04586986992047
 20
3.741227175767108
 10
125.52733155176793
 20
3.8337042500609186
 10
120.13417633347882
 20
4.265220068427823
 10
115.89344888461781
 20
4.590452986920809
 10
114.37375749849491
 20
4.736221685429541
 10
108.45604315436574
 20
5.418047015550485
 10
108.36101270669462
 20
5.429111375469404
 10
105.75070974328287
 20
5.736192419134284
 10
104.28314979451338
 20
5.9364510403296435
 10
103.08357919667617
 20
6.12282487905577
 10
96.18422423569689
 20
7.172908529053188
 10
94.82628256381759
 20
7.4035758806980425
 10
92.29908840298964
 20
7.877764064114842
 10
91.77451177290939
 20
7.97982486984364
 10
87.49202332272978
 20
8.842748998849288
 10
86.29570340618062
 20
9.102920678537942
 10
86.10349580281024
 20
9.14781257698661
 10
79.39341307232235
 20
10.716260837996458
 10
77.91874716834255
 20
11.090671997797813
 10
74.1400186813905
 20
12.126956748094301
 10
72.32957952026794
 20
12.62499046274678
 10
70.37062693531709
 20
13.218205849970843
 10
68.41301584277389
 20
13.866138591019705
 10
65.04803075522159
 20
15.15070294909475
 10
61.81224026280924
 20
16.732755450973343
 10
58.73188102493219
 20
18.599468389566653
 10
55.831929422579464
 20
20.735705954421718
 10
55.633916047299664
 20
20.89581134398415
 10
55.08153371296498
 20
21.326665692934
 10
54.300864947934855
 20
21.913882876816984
 10
53.55400593132401
 20
22.473213505706553
 10
52.65686546339941
 20
23.10718964770274
 10
52.01682296367389
 20
23.533570393417392
 10
50.12249363086664
 20
24.650167420742065
 10
48.950611629135864
 20
25.25665794319167
 10
48.9669765410396
 20
25.28827879299891
 10
46.02042667575091
 20
26.913024724046466
 10
42.49412066549621
 20
29.386320564727924
 10
40.36043842071251
 20
31.25539080651768
 10
40.338915581437504
 20
31.23109229829913
 10
39.470919748655035
 20
31.999935168500514
 10
37.96415779281784
 20
33.209795736151904
 10
37.246414866228065
 20
33.731117837760166
 10
33.99350943415192
 20
36.36442394879626
 10
31.033553209906586
 20
39.323199704915965
 10
28.39894974969053
 20
42.57505447287042
 10
26.118540872374183
 20
46.084389192829036
 10
24.217290919188713
 20
49.8127860922971
 10
22.716013461362365
 20
53.719429257352374
 10
21.804817719912762
 20
57.11445768270269
 10
21.785676595219797
 20
57.10982238879916
 10
21.404158643459084
 20
58.6852743103461
 10
21.167151856367354
 20
59.56146801738436
 10
20.555483224956276
 20
62.165214390999864
 10
20.055251594563174
 20
64.66767059722429
 10
19.863962401290905
 20
65.4101034895063
 10
19.617212122253875
 20
66.26948737333484
 10
19.51712180807567
 20
66.57439137191469
 10
19.328335519374775
 20
67.11893248479353
 10
19.164688841043244
 20
67.57136481165719
 10
18.383491112329466
 20
69.4471333309516
 10
18.408337001198163
 20
69.45748085078279
 10
17.358227038156713
 20
72.08306143064283
 10
16.27537480696668
 20
75.7967070458597
 10
15.556303318171729
 20
79.59758443193977
 10
15.207737567745426
 20
83.45014651808998
 10
15.232937458638503
 20
87.31836286099426
 10
15.271294870435725
 20
88.01650292825022
 10
15.301276267940523
 20
89.04650948118092
 10
15.305895689909562
 20
90.43573592784634
 10
15.278207178255286
 20
91.55625211829707
 10
15.23611389829756
 20
92.35369921126258
 10
15.219549700579307
 20
92.64239267317444
 10
15.218291534151433
 20
92.66217626772695
 10
15.14995105545421
 20
93.4604193486349
 10
15.088801545335912
 20
94.03481869040661
 10
14.846367028248437
 20
95.66801723737285
 10
14.738026925482586
 20
96.23541153461753
 10
14.574181701050634
 20
97.00667500366296
 10
14.563856131693399
 20
97.05040885359324
 10
14.473315975046717
 20
97.42093939564413
 10
14.292159419499683
 20
98.14361983984705
 10
13.98431639698191
 20
99.23863177396083
 10
13.57796859253051
 20
100.54068491259287
 10
13.42631476260641
 20
100.98206875320213
 10
12.502050322619823
 20
104.07233864251813
 10
11.829782099698946
 20
107.22703168309874
 10
11.662520716604035
 20
108.20359069458166
 10
11.552901577700197
 20
108.78793693484567
 10
11.447078523563675
 20
109.3131275361946
 10
11.400351371016654
 20
109.5299874481693
 10
11.325967946877938
 20
109.8829199142121
 10
11.276098613983947
 20
110.12494082305926
 10
11.000006640606273
 20
111.28783879396354
 10
10.627428839258869
 20
112.67170806789943
 10
10.282349494954417
 20
113.81603263489652
 10
10.15555409264573
 20
114.19512193181146
 10
9.116319527793053
 20
117.87977431491484
 10
8.434099213184709
 20
121.64690148391642
 10
8.334810050491456
 20
122.39884881657036
 10
8.298548221441536
 20
122.61958257206467
 10
8.122176528717205
 20
123.65582466509005
 10
7.945359421731212
 20
124.56645417673525
 10
7.807000984302022
 20
125.2000966145836
 10
7.327908973905551
 20
126.99115304502592
 10
7.131437793697785
 20
127.60925082984392
 10
6.819430940151847
 20
128.51730759227584
 10
6.27199117311244
 20
130.01266787844835
 10
4.967716182987431
 20
134.30809465033028
 10
4.1529579366358575
 20
138.72261539469966
 10
3.837978224752021
 20
143.20062970726804
 10
3.8305909903515385
 20
143.72523722083662
 10
3.8012421686003677
 20
144.6030345434569
 10
3.74861543677207
 20
145.74596671887645
 10
3.7087285919536157
 20
146.33316911244572
 10
3.520312183260444
 20
148.0305637003725
 10
3.4943445093899754
 20
148.19864957831186
 10
3.1617395829057386
 20
149.87376840784646
 10
3.0204529167381224
 20
150.45429656325126
 10
2.9625252204394315
 20
150.67196571474796
 10
2.017740915362822
 20
155.31187595990644
 10
1.6278770183964753
 20
160.03092147866215
 10
1.5992694984194031
 20
161.26356215031498
 10
1.5355880996135625
 20
162.17120541164786
 10
1.5011747379533062
 20
162.5966239885859
 10
1.4658103646193013
 20
162.98251606798522
 10
1.3212067913576675
 20
164.16897609131075
 10
1.092011929653495
 20
165.67352759747425
 10
1.065783034983781
 20
165.81574999017306
 10
0.5720608812801515
 20
169.3903746129983
 10
0.40250074315076745
 20
172.99494839067626
 10
0.5584825966697053
 20
176.6001352680155
 10
0.6839279171194335
 20
178.01612482808127
 10
0.7132031892401187
 20
178.50543851794046
 10
0.754908556485077
 20
179.640147442059
 10
0.7595554351843248
 20
180.09508453751334
 10
0.9910717992286777
 20
184.00320464191375
 10
1.6035254580025935
 20
187.86997371868748
 10
1.819991544390632
 20
188.9056628308877
 10
1.9460988445106295
 20
189.5949047271911
 10
2.207460529466573
 20
191.58132918370984
 10
2.2235164252379604
 20
191.7799010595711
 10
2.284695536300717
 20
193.78251164782603
 10
2.280790883585098
 20
193.9816933120401
 10
2.1411726861576312
 20
195.98036757533782
 10
2.0547508828686887
 20
196.69779378381685
 10
1.7923736884989694
 20
200.07563108712594
 10
1.8167848253575585
 20
203.46355533895763
 10
1.9043374670110325
 20
205.22842104660847
 10
1.9049867801872438
 20
205.41146306718747
 10
1.826893073218912
 20
207.2490081631227
 10
1.770030940170443
 20
207.88988293111535
 10
1.6676358233864903
 20
208.80437929229277
 10
1.5906698571544666
 20
209.37309887695983
 10
1.5118388943868695
 20
209.9565200433974
 10
1.3922448537564946
 20
210.72786802800562
 10
1.2962640163095216
 20
211.27603205521186
 10
0.8481992684382931
 20
214.6984846495336
 10
0.7456327191784453
 20
217.03545309211825
 10
0.745142457175632
 20
217.0354288319744
 10
0.5944615234029698
 20
220.08046998834874
 10
0.5696020349494688
 20
223.44354219219343
 10
0.8273445286999959
 20
226.79681543625725
 10
0.901987878852367
 20
227.42235879721582
 10
0.9918701912969823
 20
228.36458090453675
 10
1.0347878520192353
 20
228.823263801144
 10
1.0989583579106466
 20
229.73514018762023
 10
1.1292825755188005
 20
230.37525866735717
 10
1.1320305242256836
 20
232.20714623552993
 10
1.1036268762205168
 20
232.84735281082646
 10
1.042030084458645
 20
233.7618273564687
 10
1.0108776418378511
 20
234.10635823195173
 10
0.9336331336354533
 20
234.96690832350674
 10
0.8832850569161224
 20
235.39895513706693
 10
0.626869364665481
 20
239.03098884307258
 10
0.7017859453655433
 20
242.67129176381002
 10
0.8262495853072096
 20
244.55133692264337
 10
0.8297762698906013
 20
244.73971737297938
 10
0.7754943441779005
 20
246.6326506955892
 10
0.7251608003833212
 20
247.29317560151975
 10
0.6337818427999196
 20
248.2062249971752
 10
0.5803870741754622
 20
248.61293691763174
  0
LWPOLYLINE
  5
91
330
17
100
AcDbEntity
  8
CUT_IN
100
AcDbPolyline
 90
53
 70
1
 10
185.71778886878514
 20
34.16291663723095
 10
185.82001138991797
 20
34.93937377253852
 10
185.71778886878514
 20
35.715830907846055
 10
185.41808760127128
 20
36.43937377253852
 10
184.9413317334776
 20
37.06069411609815
 10
184.9413317334776
 20
46.87541274185958
 10
185.41808760127128
 20
47.49673308541921
 10
185.71778886878514
 20
48.22027595011167
 10
185.82001138991797
 20
48.99673308541921
 10
185.71778886878514
 20
49.773190220726775
 10
185.41808760127128
 20
50.49673308541924
 10
184.9413317334776
 20
51.11805342897887
 10
184.32001138991797
 20
51.59480929677255
 10
183.5964685252255
 20
51.894510564286435
 10
182.82001138991797
 20
51.99673308541921
 10
182.0435542546104
 20
51.894510564286435
 10
181.32001138991797
 20
51.594809296772524
 10
180.6986910463583
 20
51.11805342897887
 10
158.88397242059688
 20
51.11805342897887
 10
158.26265207703722
 20
51.59480929677255
 10
157.53910921234478
 20
51.894510564286435
 10
156.76265207703725
 20
51.99673308541921
 10
155.98619494172968
 20
51.894510564286435
 10
155.26265207703722
 20
51.594809296772524
 10
154.64133173347759
 20
51.11805342897887
 10
154.16457586568393
 20
50.49673308541921
 10
153.86487459817002
 20
49.773190220726775
 10
153.76265207703722
 20
48.99673308541921
 10
153.86487459817002
 20
48.22027595011167
 10
154.16457586568393
 20
47.49673308541921
 10
154.64133173347759
 20
46.87541274185958
 10
154.64133173347759
 20
37.06069411609815
 10
154.16457586568393
 20
36.43937377253852
 10
153.86487459817002
 20
35.715830907846055
 10
153.76265207703722
 20
34.93937377253852
 10
153.86487459817002
 20
34.16291663723095
 10
154.16457586568393
 20
33.43937377253849
 10
154.64133173347759
 20
32.81805342897886
 10
155.26265207703725
 20
32.3412975611852
 10
155.98619494172968
 20
32.04159629367129
 10
156.76265207703725
 20
31.939373772538517
 10
157.53910921234478
 20
32.04159629367129
 10
158.26265207703725
 20
32.3412975611852
 10
158.88397242059688
 20
32.81805342897886
 10
180.6986910463583
 20
32.81805342897886
 10
181.32001138991797
 20
32.3412975611852
 10
182.0435542546104
 20
32.04159629367129
 10
182.82001138991797
 20
31.939373772538517
 10
183.59646852522553
 20
32.04159629367129
 10
184.32001138991797
 20
32.3412975611852
 10
184.9413317334776
 20
32.81805342897886
 10
185.41808760127128
 20
33.43937377253852
 10
185.71778886878514
 20
34.16291663723095
  0
LWPOLYLINE
  5
92
330
17
100
AcDbEntity
  8
CUT_IN
100
AcDbPolyline
 90
53
 70
1
 10
39.59646852522553
 20
88.89451056428643
 10
38.820011389917966
 20
88.99673308541924
 10
38.0435542546104
 20
88.89451056428643
 10
37.320011389917966
 20
88.59480929677252
 10
36.698691046358306
 20
88.11805342897887
 10
26.883972420596876
 20
88.11805342897887
 10
26.262652077037217
 20
88.59480929677252
 10
25.539109212344783
 20
88.89451056428643
 10
24.762652077037217
 20
88.99673308541924
 10
23.98619494172965
 20
88.89451056428643
 10
23.262652077037217
 20
88.59480929677252
 10
22.641331733477614
 20
88.11805342897887
 10
22.1645758656839
 20
87.49673308541921
 10
21.864874598170047
 20
86.77319022072678
 10
21.762652077037217
 20
85.99673308541921
 10
21.864874598170047
 20
85.22027595011167
 10
22.1645758656839
 20
84.49673308541921
 10
22.641331733477614
 20
83.87541274185958
 10
22.641331733477614
 20
62.06069411609815
 10
22.1645758656839
 20
61.43937377253849
 10
21.864874598170047
 20
60.715830907846055
 10
21.762652077037217
 20
59.93937377253852
 10
21.864874598170047
 20
59.16291663723095
 10
22.1645758656839
 20
58.43937377253849
 10
22.641331733477614
 20
57.81805342897886
 10
23.262652077037217
 20
57.3412975611852
 10
23.98619494172965
 20
57.04159629367129
 10
24.762652077037217
 20
56.93937377253849
 10
25.539109212344783
 20
57.04159629367129
 10
26.262652077037217
 20
57.3412975611852
 10
26.883972420596876
 20
57.81805342897886
 10
36.698691046358306
 20
57.81805342897886
 10
37.320011389917966
 20
57.3412975611852
 10
38.0435542546104
 20
57.04159629367129
 10
38.820011389917966
 20
56.93937377253849
 10
39.59646852522553
 20
57.04159629367129
 10
40.320011389917966
 20
57.3412975611852
 10
40.94133173347757
 20
57.81805342897886
 10
41.41808760127128
 20
58.43937377253852
 10
41.717788868785135
 20
59.16291663723095
 10
41.820011389917966
 20
59.93937377253852
 10
41.717788868785135
 20
60.715830907846055
 10
41.41808760127128
 20
61.43937377253852
 10
40.94133173347757
 20
62.06069411609815
 10
40.94133173347757
 20
83.87541274185958
 10
41.41808760127128
 20
84.49673308541921
 10
41.717788868785135
 20
85.22027595011167
 10
41.820011389917966
 20
85.99673308541921
 10
41.717788868785135
 20
86.77319022072678
 10
41.41808760127128
 20
87.49673308541921
 10
40.94133173347757
 20
88.11805342897887
 10
40.320011389917966
 20
88.59480929677252
 10
39.59646852522553
 20
88.89451056428643
  0
LWPOLYLINE
  5
93
330
17
100
AcDbEntity
  8
CUT_IN
100
AcDbPolyline
 90
56
 70
1
 10
39.59646852522553
 20
269.7303559562923
 10
38.820011389917966
 20
269.83257847742516
 10
38.0435542546104
 20
269.7303559562923
 10
37.320011389917966
 20
269.4306546887785
 10
36.698691046358306
 20
268.95389882098476
 10
26.883972420596876
 20
268.95389882098476
 10
26.883972420596876
 20
268.95389882098476
 10
26.262652077037217
 20
269.4306546887785
 10
25.539109212344783
 20
269.7303559562923
 10
24.762652077037217
 20
269.83257847742516
 10
23.98619494172965
 20
269.7303559562923
 10
23.262652077037217
 20
269.4306546887785
 10
22.641331733477614
 20
268.95389882098476
 10
22.1645758656839
 20
268.33257847742516
 10
21.864874598170047
 20
267.6090356127327
 10
21.762652077037217
 20
266.83257847742516
 10
21.864874598170047
 20
266.0561213421176
 10
22.1645758656839
 20
265.33257847742516
 10
22.641331733477614
 20
264.7112581338655
 10
22.641331733477614
 20
242.89653950810407
 10
22.1645758656839
 20
242.2752191645444
 10
21.864874598170047
 20
241.55167629985198
 10
21.762652077037217
 20
240.7752191645444
 10
21.864874598170047
 20
239.99876202923684
 10
22.1645758656839
 20
239.2752191645444
 10
22.641331733477614
 20
238.65389882098478
 10
23.262652077037217
 20
238.1771429531911
 10
23.98619494172965
 20
237.8774416856772
 10
24.762652077037217
 20
237.7752191645444
 10
25.539109212344783
 20
237.8774416856772
 10
26.262652077037217
 20
238.1771429531911
 10
26.883972420596876
 20
238.65389882098478
 10
36.698691046358306
 20
238.65389882098478
 10
36.698691046358306
 20
238.65389882098478
 10
37.320011389917966
 20
238.1771429531911
 10
38.0435542546104
 20
237.8774416856772
 10
38.820011389917966
 20
237.7752191645444
 10
39.59646852522553
 20
237.8774416856772
 10
40.320011389917966
 20
238.1771429531911
 10
40.94133173347757
 20
238.65389882098478
 10
41.41808760127128
 20
239.2752191645444
 10
41.717788868785135
 20
239.99876202923687
 10
41.820011389917966
 20
240.7752191645444
 10
41.717788868785135
 20
241.55167629985198
 10
41.41808760127128
 20
242.2752191645444
 10
40.94133173347757
 20
242.89653950810407
 10
40.94133173347757
 20
264.7112581338655
 10
40.94133173347757
 20
264.7112581338655
 10
41.41808760127128
 20
265.33257847742516
 10
41.717788868785135
 20
266.0561213421176
 10
41.820011389917966
 20
266.83257847742516
 10
41.717788868785135
 20
267.6090356127327
 10
41.41808760127128
 20
268.33257847742516
 10
40.94133173347757
 20
268.95389882098476
 10
40.320011389917966
 20
269.4306546887785
 10
39.59646852522553
 20
269.7303559562923
  0
LWPOLYLINE
  5
94
330
17
100
AcDbEntity
  8
CUT_IN
100
AcDbPolyline
 90
53
 70
1
 10
39.59646852522553
 20
450.56620134829825
 10
38.820011389917966
 20
450.6684238694311
 10
38.0435542546104
 20
450.56620134829825
 10
37.320011389917966
 20
450.26650008078434
 10
36.698691046358306
 20
449.78974421299074
 10
26.883972420596876
 20
449.78974421299074
 10
26.262652077037217
 20
450.26650008078434
 10
25.539109212344783
 20
450.56620134829825
 10
24.762652077037217
 20
450.6684238694311
 10
23.98619494172965
 20
450.56620134829825
 10
23.262652077037217
 20
450.26650008078434
 10
22.641331733477614
 20
449.78974421299074
 10
22.1645758656839
 20
449.1684238694311
 10
21.864874598170047
 20
448.4448810047386
 10
21.762652077037217
 20
447.6684238694311
 10
21.864874598170047
 20
446.8919667341235
 10
22.1645758656839
 20
446.1684238694311
 10
22.641331733477614
 20
445.5471035258714
 10
22.641331733477614
 20
423.73238490011
 10
22.1645758656839
 20
423.11106455655033
 10
21.864874598170047
 20
422.3875216918579
 10
21.762652077037217
 20
421.61106455655033
 10
21.864874598170047
 20
420.8346074212428
 10
22.1645758656839
 20
420.11106455655033
 10
22.641331733477614
 20
419.4897442129907
 10
23.262652077037217
 20
419.0129883451971
 10
23.98619494172965
 20
418.71328707768316
 10
24.762652077037217
 20
418.61106455655033
 10
25.539109212344783
 20
418.71328707768316
 10
26.262652077037217
 20
419.0129883451971
 10
26.883972420596876
 20
419.4897442129907
 10
36.698691046358306
 20
419.4897442129907
 10
37.320011389917966
 20
419.0129883451971
 10
38.0435542546104
 20
418.71328707768316
 10
38.820011389917966
 20
418.61106455655033
 10
39.59646852522553
 20
418.71328707768316
 10
40.320011389917966
 20
419.0129883451971
 10
40.94133173347757
 20
419.4897442129907
 10
41.41808760127128
 20
420.11106455655033
 10
41.717788868785135
 20
420.8346074212428
 10
41.820011389917966
 20
421.61106455655033
 10
41.717788868785135
 20
422.3875216918579
 10
41.41808760127128
 20
423.11106455655033
 10
40.94133173347757
 20
423.73238490011
 10
40.94133173347757
 20
445.5471035258714
 10
41.41808760127128
 20
446.1684238694311
 10
41.717788868785135
 20
446.8919667341235
 10
41.820011389917966
 20
447.6684238694311
 10
41.717788868785135
 20
448.4448810047386
 10
41.41808760127128
 20
449.1684238694311
 10
40.94133173347757
 20
449.78974421299074
 10
40.320011389917966
 20
450.26650008078434
 10
39.59646852522553
 20
450.56620134829825
  0
LWPOLYLINE
  5
95
330
17
100
AcDbEntity
  8
CUT_IN
100
AcDbPolyline
 90
53
 70
1
 10
185.71778886878514
 20
457.8346074212428
 10
185.82001138991797
 20
458.61106455655033
 10
185.71778886878514
 20
459.3875216918579
 10
185.41808760127128
 20
460.11106455655033
 10
184.9413317334776
 20
460.73238490011
 10
184.9413317334776
 20
470.5471035258714
 10
185.41808760127128
 20
471.1684238694311
 10
185.71778886878514
 20
471.8919667341235
 10
185.82001138991797
 20
472.6684238694311
 10
185.71778886878514
 20
473.4448810047386
 10
185.41808760127128
 20
474.1684238694311
 10
184.9413317334776
 20
474.78974421299074
 10
184.32001138991797
 20
475.2665000807844
 10
183.5964685252255
 20
475.56620134829825
 10
182.82001138991797
 20
475.6684238694311
 10
182.0435542546104
 20
475.56620134829825
 10
181.32001138991797
 20
475.26650008078434
 10
180.6986910463583
 20
474.78974421299074
 10
158.88397242059688
 20
474.78974421299074
 10
158.26265207703722
 20
475.2665000807844
 10
157.53910921234478
 20
475.56620134829825
 10
156.76265207703725
 20
475.6684238694311
 10
155.98619494172968
 20
475.56620134829825
 10
155.26265207703722
 20
475.26650008078434
 10
154.64133173347759
 20
474.78974421299074
 10
154.16457586568393
 20
474.1684238694311
 10
153.86487459817002
 20
473.4448810047386
 10
153.76265207703722
 20
472.6684238694311
 10
153.86487459817002
 20
471.8919667341235
 10
154.16457586568393
 20
471.1684238694311
 10
154.64133173347759
 20
470.5471035258714
 10
154.64133173347759
 20
460.73238490011
 10
154.16457586568393
 20
460.11106455655033
 10
153.86487459817002
 20
459.3875216918579
 10
153.76265207703722
 20
458.61106455655033
 10
153.86487459817002
 20
457.8346074212428
 10
154.16457586568393
 20
457.11106455655033
 10
154.64133173347759
 20
456.4897442129907
 10
155.26265207703725
 20
456.0129883451971
 10
155.98619494172968
 20
455.71328707768316
 10
156.76265207703725
 20
455.61106455655033
 10
157.53910921234478
 20
455.71328707768316
 10
158.26265207703725
 20
456.0129883451971
 10
158.88397242059688
 20
456.4897442129907
 10
180.6986910463583
 20
456.4897442129907
 10
181.32001138991797
 20
456.0129883451971
 10
182.0435542546104
 20
455.71328707768316
 10
182.82001138991797
 20
455.61106455655033
 10
183.59646852522553
 20
455.71328707768316
 10
184.32001138991797
 20
456.0129883451971
 10
184.9413317334776
 20
456.4897442129907
 10
185.41808760127128
 20
457.11106455655033
 10
185.71778886878514
 20
457.8346074212428
  0
LWPOLYLINE
  5
96
330
17
100
AcDbEntity
  8
CUT_IN
100
AcDbPolyline
 90
53
 70
1
 10
59.38347787350662
 20
471.05501867855946
 10
59.61189627084843
 20
471.8041249210595
 10
59.638648537676204
 20
472.58682501880855
 10
59.46191155121588
 20
473.34977925361807
 10
59.093729645023046
 20
474.04099355522715
 10
60.21350574005211
 20
480.7630833675773
 10
60.78587499609188
 20
481.29761920504495
 10
61.200393187648075
 20
481.96208123982626
 10
61.42881158498986
 20
482.71118748232635
 10
61.45556385181766
 20
483.49388758007535
 10
61.27882686535733
 20
484.25684181488487
 10
60.9106449591645
 20
484.94805611649394
 10
60.37610912169683
 20
485.52042537253374
 10
59.71164708691549
 20
485.93494356408996
 10
58.9625408444154
 20
486.16336196143175
 10
58.17984074666637
 20
486.1901142282595
 10
57.416886511856916
 20
486.01337724179916
 10
56.72567221024781
 20
485.64519533560633
 10
44.35667633405086
 20
487.7056417575259
 10
43.82214049658316
 20
488.2780110135656
 10
43.15767846180185
 20
488.6925292051218
 10
42.40857221930179
 20
488.92094760246357
 10
41.62587212155273
 20
488.9476998692914
 10
40.862917886743276
 20
488.7709628828311
 10
40.17170358513414
 20
488.40278097663827
 10
39.599334329094404
 20
487.86824513917054
 10
39.18481613753818
 20
487.20378310438923
 10
38.956397740196394
 20
486.4546768618892
 10
38.92964547336862
 20
485.67197676414014
 10
39.10638245982892
 20
484.9090225293306
 10
39.47456436602175
 20
484.21780822772155
 10
38.354788270992685
 20
477.4957184153714
 10
37.78241901495295
 20
476.96118257790374
 10
37.36790082339678
 20
476.29672054312243
 10
37.13948242605494
 20
475.54761430062234
 10
37.11273015922717
 20
474.76491420287334
 10
37.289467145687524
 20
474.00195996806383
 10
37.657649051880355
 20
473.31074566645475
 10
38.19218488934803
 20
472.73837641041496
 10
38.856646924129336
 20
472.32385821885873
 10
39.60575316662943
 20
472.09543982151695
 10
40.38845326437843
 20
472.0686875546892
 10
41.15140749918794
 20
472.24542454114953
 10
41.84262180079702
 20
472.61360644734236
 10
54.21161767699397
 20
470.5531600254228
 10
54.74615351446167
 20
469.9807907693831
 10
55.410615549242976
 20
469.5662725778269
 10
56.15972179174307
 20
469.3378541804851
 10
56.942421889492095
 20
469.3111019136573
 10
57.70537612430155
 20
469.4878389001176
 10
58.39659042591069
 20
469.8560208063104
 10
58.96895968195042
 20
470.39055664377815
 10
59.38347787350662
 20
471.05501867855946
  0
LWPOLYLINE
  5
97
330
17
100
AcDbEntity
  8
CUT_IN
100
AcDbPolyline
 90
53
 70
1
 10
68.01722096643746
 20
508.6070338417816
 10
68.76360957939829
 20
508.8441818235127
 10
69.42318720292559
 20
509.2664287718011
 10
69.95100471197955
 20
509.84499925491684
 10
70.31109221557779
 20
510.5404646505687
 10
76.48095263884008
 20
513.4341149932607
 10
77.24591812962518
 20
513.2662968634156
 10
78.0282525815118
 20
513.3021846355401
 10
78.77464119447262
 20
513.5393326172714
 10
79.43421881799992
 20
513.9615795655598
 10
79.96203632705388
 20
514.5401500486755
 10
80.32212383065212
 20
515.2356154443273
 10
80.48994196049713
 20
516.0005809351125
 10
80.45405418837262
 20
516.7829153869991
 10
80.21690620664145
 20
517.5293039999599
 10
79.79465925835308
 20
518.1888816234872
 10
79.2160887752373
 20
518.7166991325412
 10
78.52062337958546
 20
519.0767866361393
 10
69.69130100266406
 20
537.9027262784919
 10
69.85911913250911
 20
538.667691769277
 10
69.82323136038457
 20
539.4500262211636
 10
69.5860833786534
 20
540.1964148341244
 10
69.16383643036505
 20
540.8559924576517
 10
68.58526594724924
 20
541.3838099667057
 10
67.8898005515974
 20
541.7438974703039
 10
67.1248350608123
 20
541.9117156001489
 10
66.34250060892569
 20
541.8758278280244
 10
65.59611199596486
 20
541.6386798462933
 10
64.93653437243756
 20
541.2164328980049
 10
64.4087168633836
 20
540.637862414889
 10
64.04862935978537
 20
539.9423970192372
 10
57.87876893652307
 20
537.0487466765453
 10
57.11380344573797
 20
537.2165648063904
 10
56.33146899385136
 20
537.1806770342657
 10
55.58508038089053
 20
536.9435290525346
 10
54.92550275736323
 20
536.5212821042462
 10
54.39768524830927
 20
535.9427116211305
 10
54.037597744711036
 20
535.2472462254786
 10
53.86977961486602
 20
534.4822807346935
 10
53.90566738699053
 20
533.6999462828069
 10
54.1428153687217
 20
532.9535576698461
 10
54.565062317010074
 20
532.2939800463188
 10
55.14363280012586
 20
531.7661625372648
 10
55.839098195777694
 20
531.4060750336666
 10
64.66842057269909
 20
512.5801353913141
 10
64.50060244285407
 20
511.815169900529
 10
64.53649021497858
 20
511.03283544864234
 10
64.77363819670975
 20
510.28644683568155
 10
65.1958851449981
 20
509.62686921215425
 10
65.77445562811391
 20
509.09905170310026
 10
66.46992102376575
 20
508.73896419950205
 10
67.23488651455085
 20
508.57114606965706
 10
68.01722096643746
 20
508.6070338417816
  0
LWPOLYLINE
  5
98
330
17
100
AcDbEntity
  8
CUT_IN
100
AcDbPolyline
 90
53
 70
1
 10
167.4075093548928
 20
532.8676250620555
 10
168.19046774893224
 20
532.8499819330833
 10
168.95131386043798
 20
533.0355845230529
 10
169.6381972842685
 20
533.4117843221804
 10
170.2043080502183
 20
533.952943935855
 10
176.97904991301652
 20
534.6900074614405
 10
177.64829020787488
 20
534.2832488665287
 10
178.4000035637942
 20
534.0635623686976
 10
179.18296195783367
 20
534.0459192397254
 10
179.9438080693394
 20
534.231521829695
 10
180.63069149316993
 20
534.6077216288226
 10
181.1968022591197
 20
535.1488812424973
 10
181.60356085403157
 20
535.8181215373556
 10
181.82324735186262
 20
536.5698348932749
 10
181.8408904808348
 20
537.3527932873144
 10
181.65528789086528
 20
538.11363939882
 10
181.2790880917377
 20
538.8005228226506
 10
180.73792847806303
 20
539.3666335886004
 10
180.05538297993854
 20
545.6402713401571
 10
180.4621415748504
 20
546.3095116350155
 10
180.68182807268147
 20
547.0612249909348
 10
180.69947120165364
 20
547.8441833849743
 10
180.51386861168407
 20
548.60502949648
 10
180.1376688125565
 20
549.2919129203106
 10
179.59650919888185
 20
549.8580236862604
 10
178.9272689040235
 20
550.2647822811722
 10
178.17555554810417
 20
550.4844687790032
 10
177.39259715406473
 20
550.5021119079754
 10
176.63175104255902
 20
550.316509318006
 10
175.9448676187285
 20
549.9403095188783
 10
175.37875685277868
 20
549.3991499052037
 10
168.6040149899804
 20
548.6620863796181
 10
167.93477469512206
 20
549.0688449745301
 10
167.18306133920274
 20
549.2885314723611
 10
166.4001029451633
 20
549.3061746013333
 10
165.63925683365758
 20
549.1205720113637
 10
164.95237340982706
 20
548.7443722122362
 10
164.38626264387725
 20
548.2032125985615
 10
163.9795040489654
 20
547.5339723037032
 10
163.75981755113432
 20
546.7822589477838
 10
163.74217442216215
 20
545.9993005537444
 10
163.92777701213168
 20
545.2384544422387
 10
164.30397681125928
 20
544.5515710184081
 10
164.84513642493394
 20
543.9854602524583
 10
165.52768192305842
 20
537.7118225009016
 10
165.12092332814657
 20
537.0425822060432
 10
164.9012368303155
 20
536.2908688501238
 10
164.88359370134333
 20
535.5079104560843
 10
165.06919629131286
 20
534.7470643445787
 10
165.44539609044045
 20
534.0601809207482
 10
165.98655570411512
 20
533.4940701547985
 10
166.65579599897347
 20
533.0873115598865
 10
167.4075093548928
 20
532.8676250620555
  0
LWPOLYLINE
  5
99
330
17
100
AcDbEntity
  8
CUT_IN
100
AcDbPolyline
 90
53
 70
1
 10
443.7177888687852
 20
34.16291663723095
 10
443.82001138991797
 20
34.93937377253852
 10
443.7177888687852
 20
35.715830907846055
 10
443.4180876012713
 20
36.43937377253852
 10
442.94133173347757
 20
37.06069411609815
 10
442.94133173347757
 20
46.87541274185958
 10
443.4180876012713
 20
47.49673308541921
 10
443.7177888687852
 20
48.22027595011167
 10
443.82001138991797
 20
48.99673308541921
 10
443.7177888687852
 20
49.773190220726775
 10
443.4180876012713
 20
50.49673308541924
 10
442.94133173347757
 20
51.11805342897887
 10
442.3200113899179
 20
51.59480929677255
 10
441.59646852522553
 20
51.894510564286435
 10
440.8200113899179
 20
51.99673308541921
 10
440.0435542546104
 20
51.894510564286435
 10
439.3200113899179
 20
51.594809296772524
 10
438.6986910463583
 20
51.11805342897887
 10
416.8839724205969
 20
51.11805342897887
 10
416.2626520770372
 20
51.59480929677255
 10
415.5391092123448
 20
51.894510564286435
 10
414.7626520770372
 20
51.99673308541921
 10
413.98619494172965
 20
51.894510564286435
 10
413.2626520770372
 20
51.594809296772524
 10
412.6413317334776
 20
51.11805342897887
 10
412.1645758656839
 20
50.49673308541921
 10
411.86487459817005
 20
49.773190220726775
 10
411.7626520770372
 20
48.99673308541921
 10
411.86487459817005
 20
48.22027595011167
 10
412.1645758656839
 20
47.49673308541921
 10
412.6413317334776
 20
46.87541274185958
 10
412.6413317334776
 20
37.06069411609815
 10
412.1645758656839
 20
36.43937377253852
 10
411.86487459817005
 20
35.715830907846055
 10
411.7626520770372
 20
34.93937377253852
 10
411.86487459817005
 20
34.16291663723095
 10
412.1645758656839
 20
33.43937377253849
 10
412.6413317334776
 20
32.81805342897886
 10
413.2626520770372
 20
32.3412975611852
 10
413.98619494172965
 20
32.04159629367129
 10
414.7626520770372
 20
31.939373772538517
 10
415.5391092123448
 20
32.04159629367129
 10
416.2626520770372
 20
32.3412975611852
 10
416.8839724205969
 20
32.81805342897886
 10
438.6986910463583
 20
32.81805342897886
 10
439.3200113899179
 20
32.3412975611852
 10
440.0435542546104
 20
32.04159629367129
 10
440.8200113899179
 20
31.939373772538517
 10
441.59646852522553
 20
32.04159629367129
 10
442.3200113899179
 20
32.3412975611852
 10
442.94133173347757
 20
32.81805342897886
 10
443.4180876012713
 20
33.43937377253852
 10
443.7177888687852
 20
34.16291663723095
  0
LWPOLYLINE
  5
9A
330
17
100
AcDbEntity
  8
CUT_IN
100
AcDbPolyline
 90
53
 70
1
 10
573.5964685252255
 20
88.89451056428643
 10
572.8200113899179
 20
88.99673308541924
 10
572.0435542546104
 20
88.89451056428643
 10
571.3200113899179
 20
88.59480929677252
 10
570.6986910463584
 20
88.11805342897887
 10
560.8839724205968
 20
88.11805342897887
 10
560.2626520770373
 20
88.59480929677252
 10
559.5391092123448
 20
88.89451056428643
 10
558.7626520770373
 20
88.99673308541924
 10
557.9861949417297
 20
88.89451056428643
 10
557.2626520770373
 20
88.59480929677252
 10
556.6413317334776
 20
88.11805342897887
 10
556.1645758656839
 20
87.49673308541921
 10
555.86487459817
 20
86.77319022072678
 10
555.7626520770373
 20
85.99673308541921
 10
555.86487459817
 20
85.22027595011167
 10
556.1645758656839
 20
84.49673308541921
 10
556.6413317334776
 20
83.87541274185958
 10
556.6413317334776
 20
62.06069411609815
 10
556.1645758656839
 20
61.43937377253849
 10
555.86487459817
 20
60.715830907846055
 10
555.7626520770373
 20
59.93937377253852
 10
555.86487459817
 20
59.16291663723095
 10
556.1645758656839
 20
58.43937377253849
 10
556.6413317334776
 20
57.81805342897886
 10
557.2626520770373
 20
57.3412975611852
 10
557.9861949417297
 20
57.04159629367129
 10
558.7626520770373
 20
56.93937377253849
 10
559.5391092123448
 20
57.04159629367129
 10
560.2626520770373
 20
57.3412975611852
 10
560.8839724205968
 20
57.81805342897886
 10
570.6986910463584
 20
57.81805342897886
 10
571.3200113899179
 20
57.3412975611852
 10
572.0435542546104
 20
57.04159629367129
 10
572.8200113899179
 20
56.93937377253849
 10
573.5964685252255
 20
57.04159629367129
 10
574.3200113899179
 20
57.3412975611852
 10
574.9413317334776
 20
57.81805342897886
 10
575.4180876012713
 20
58.43937377253852
 10
575.7177888687852
 20
59.16291663723095
 10
575.8200113899179
 20
59.93937377253852
 10
575.7177888687852
 20
60.715830907846055
 10
575.4180876012713
 20
61.43937377253852
 10
574.9413317334776
 20
62.06069411609815
 10
574.9413317334776
 20
83.87541274185958
 10
575.4180876012713
 20
84.49673308541921
 10
575.7177888687852
 20
85.22027595011167
 10
575.8200113899179
 20
85.99673308541921
 10
575.7177888687852
 20
86.77319022072678
 10
575.4180876012713
 20
87.49673308541921
 10
574.9413317334776
 20
88.11805342897887
 10
574.3200113899179
 20
88.59480929677252
 10
573.5964685252255
 20
88.89451056428643
  0
LWPOLYLINE
  5
9B
330
17
100
AcDbEntity
  8
CUT_IN
100
AcDbPolyline
 90
56
 70
1
 10
573.5964685252255
 20
269.7303559562923
 10
572.8200113899179
 20
269.83257847742516
 10
572.0435542546104
 20
269.7303559562923
 10
571.3200113899179
 20
269.4306546887785
 10
570.6986910463584
 20
268.95389882098476
 10
560.8839724205968
 20
268.95389882098476
 10
560.8839724205968
 20
268.95389882098476
 10
560.2626520770373
 20
269.4306546887785
 10
559.5391092123448
 20
269.7303559562923
 10
558.7626520770373
 20
269.83257847742516
 10
557.9861949417297
 20
269.7303559562923
 10
557.2626520770373
 20
269.4306546887785
 10
556.6413317334776
 20
268.95389882098476
 10
556.1645758656839
 20
268.33257847742516
 10
555.86487459817
 20
267.6090356127327
 10
555.7626520770373
 20
266.83257847742516
 10
555.86487459817
 20
266.0561213421176
 10
556.1645758656839
 20
265.33257847742516
 10
556.6413317334776
 20
264.7112581338655
 10
556.6413317334776
 20
242.89653950810407
 10
556.1645758656839
 20
242.2752191645444
 10
555.86487459817
 20
241.55167629985198
 10
555.7626520770373
 20
240.7752191645444
 10
555.86487459817
 20
239.99876202923684
 10
556.1645758656839
 20
239.2752191645444
 10
556.6413317334776
 20
238.65389882098478
 10
557.2626520770373
 20
238.1771429531911
 10
557.9861949417297
 20
237.8774416856772
 10
558.7626520770373
 20
237.7752191645444
 10
559.5391092123448
 20
237.8774416856772
 10
560.2626520770373
 20
238.1771429531911
 10
560.8839724205968
 20
238.65389882098478
 10
570.6986910463584
 20
238.65389882098478
 10
570.6986910463584
 20
238.65389882098478
 10
571.3200113899179
 20
238.1771429531911
 10
572.0435542546104
 20
237.8774416856772
 10
572.8200113899179
 20
237.7752191645444
 10
573.5964685252255
 20
237.8774416856772
 10
574.3200113899179
 20
238.1771429531911
 10
574.9413317334776
 20
238.65389882098478
 10
575.4180876012713
 20
239.2752191645444
 10
575.7177888687852
 20
239.99876202923687
 10
575.8200113899179
 20
240.7752191645444
 10
575.7177888687852
 20
241.55167629985198
 10
575.4180876012713
 20
242.2752191645444
 10
574.9413317334776
 20
242.89653950810407
 10
574.9413317334776
 20
264.7112581338655
 10
574.9413317334776
 20
264.7112581338655
 10
575.4180876012713
 20
265.33257847742516
 10
575.7177888687852
 20
266.0561213421176
 10
575.8200113899179
 20
266.83257847742516
 10
575.7177888687852
 20
267.6090356127327
 10
575.4180876012713
 20
268.33257847742516
 10
574.9413317334776
 20
268.95389882098476
 10
574.3200113899179
 20
269.4306546887785
 10
573.5964685252255
 20
269.7303559562923
  0
LWPOLYLINE
  5
9C
330
17
100
AcDbEntity
  8
CUT_IN
100
AcDbPolyline
 90
53
 70
1
 10
573.5964685252255
 20
450.56620134829825
 10
572.8200113899179
 20
450.6684238694311
 10
572.0435542546104
 20
450.56620134829825
 10
571.3200113899179
 20
450.26650008078434
 10
570.6986910463584
 20
449.78974421299074
 10
560.8839724205968
 20
449.78974421299074
 10
560.2626520770373
 20
450.26650008078434
 10
559.5391092123448
 20
450.56620134829825
 10
558.7626520770373
 20
450.6684238694311
 10
557.9861949417297
 20
450.56620134829825
 10
557.2626520770373
 20
450.26650008078434
 10
556.6413317334776
 20
449.78974421299074
 10
556.1645758656839
 20
449.1684238694311
 10
555.86487459817
 20
448.4448810047386
 10
555.7626520770373
 20
447.6684238694311
 10
555.86487459817
 20
446.8919667341235
 10
556.1645758656839
 20
446.1684238694311
 10
556.6413317334776
 20
445.5471035258714
 10
556.6413317334776
 20
423.73238490011
 10
556.1645758656839
 20
423.11106455655033
 10
555.86487459817
 20
422.3875216918579
 10
555.7626520770373
 20
421.61106455655033
 10
555.86487459817
 20
420.8346074212428
 10
556.1645758656839
 20
420.11106455655033
 10
556.6413317334776
 20
419.4897442129907
 10
557.2626520770373
 20
419.0129883451971
 10
557.9861949417297
 20
418.71328707768316
 10
558.7626520770373
 20
418.61106455655033
 10
559.5391092123448
 20
418.71328707768316
 10
560.2626520770373
 20
419.0129883451971
 10
560.8839724205968
 20
419.4897442129907
 10
570.6986910463584
 20
419.4897442129907
 10
571.3200113899179
 20
419.0129883451971
 10
572.0435542546104
 20
418.71328707768316
 10
572.8200113899179
 20
418.61106455655033
 10
573.5964685252255
 20
418.71328707768316
 10
574.3200113899179
 20
419.0129883451971
 10
574.9413317334776
 20
419.4897442129907
 10
575.4180876012713
 20
420.11106455655033
 10
575.7177888687852
 20
420.8346074212428
 10
575.8200113899179
 20
421.61106455655033
 10
575.7177888687852
 20
422.3875216918579
 10
575.4180876012713
 20
423.11106455655033
 10
574.9413317334776
 20
423.73238490011
 10
574.9413317334776
 20
445.5471035258714
 10
575.4180876012713
 20
446.1684238694311
 10
575.7177888687852
 20
446.8919667341235
 10
575.8200113899179
 20
447.6684238694311
 10
575.7177888687852
 20
448.4448810047386
 10
575.4180876012713
 20
449.1684238694311
 10
574.9413317334776
 20
449.78974421299074
 10
574.3200113899179
 20
450.26650008078434
 10
573.5964685252255
 20
450.56620134829825
  0
LWPOLYLINE
  5
9D
330
17
100
AcDbEntity
  8
CUT_IN
100
AcDbPolyline
 90
53
 70
1
 10
443.7177888687852
 20
457.8346074212428
 10
443.82001138991797
 20
458.61106455655033
 10
443.7177888687852
 20
459.3875216918579
 10
443.4180876012713
 20
460.11106455655033
 10
442.94133173347757
 20
460.73238490011
 10
442.94133173347757
 20
470.5471035258714
 10
443.4180876012713
 20
471.1684238694311
 10
443.7177888687852
 20
471.8919667341235
 10
443.82001138991797
 20
472.6684238694311
 10
443.7177888687852
 20
473.4448810047386
 10
443.4180876012713
 20
474.1684238694311
 10
442.94133173347757
 20
474.78974421299074
 10
442.3200113899179
 20
475.2665000807844
 10
441.59646852522553
 20
475.56620134829825
 10
440.8200113899179
 20
475.6684238694311
 10
440.0435542546104
 20
475.56620134829825
 10
439.3200113899179
 20
475.26650008078434
 10
438.6986910463583
 20
474.78974421299074
 10
416.8839724205969
 20
474.78974421299074
 10
416.2626520770372
 20
475.2665000807844
 10
415.5391092123448
 20
475.56620134829825
 10
414.7626520770372
 20
475.6684238694311
 10
413.98619494172965
 20
475.56620134829825
 10
413.2626520770372
 20
475.26650008078434
 10
412.6413317334776
 20
474.78974421299074
 10
412.1645758656839
 20
474.1684238694311
 10
411.86487459817005
 20
473.4448810047386
 10
411.7626520770372
 20
472.6684238694311
 10
411.86487459817005
 20
471.8919667341235
 10
412.1645758656839
 20
471.1684238694311
 10
412.6413317334776
 20
470.5471035258714
 10
412.6413317334776
 20
460.73238490011
 10
412.1645758656839
 20
460.11106455655033
 10
411.86487459817005
 20
459.3875216918579
 10
411.7626520770372
 20
458.61106455655033
 10
411.86487459817005
 20
457.8346074212428
 10
412.1645758656839
 20
457.11106455655033
 10
412.6413317334776
 20
456.4897442129907
 10
413.2626520770372
 20
456.0129883451971
 10
413.98619494172965
 20
455.71328707768316
 10
414.7626520770372
 20
455.61106455655033
 10
415.5391092123448
 20
455.71328707768316
 10
416.2626520770372
 20
456.0129883451971
 10
416.8839724205969
 20
456.4897442129907
 10
438.6986910463583
 20
456.4897442129907
 10
439.3200113899179
 20
456.0129883451971
 10
440.0435542546104
 20
455.71328707768316
 10
440.8200113899179
 20
455.61106455655033
 10
441.59646852522553
 20
455.71328707768316
 10
442.3200113899179
 20
456.0129883451971
 10
442.94133173347757
 20
456.4897442129907
 10
443.4180876012713
 20
457.11106455655033
 10
443.7177888687852
 20
457.8346074212428
  0
LWPOLYLINE
  5
9E
330
17
100
AcDbEntity
  8
CUT_IN
100
AcDbPolyline
 90
53
 70
1
 10
536.1270996151375
 20
483.49388758007535
 10
536.1538518819654
 20
482.71118748232635
 10
536.3822702793071
 20
481.96208123982626
 10
536.7967884708632
 20
481.29761920504495
 10
537.369157726903
 20
480.7630833675773
 10
538.4889338219322
 20
474.04099355522715
 10
538.1207519157393
 20
473.34977925361807
 10
537.944014929279
 20
472.58682501880855
 10
537.9707671961067
 20
471.8041249210595
 10
538.1991855934485
 20
471.05501867855946
 10
538.6137037850048
 20
470.39055664377815
 10
539.1860730410444
 20
469.8560208063104
 10
539.8772873426536
 20
469.4878389001176
 10
540.640241577463
 20
469.3111019136573
 10
541.4229416752121
 20
469.3378541804851
 10
542.1720479177122
 20
469.5662725778269
 10
542.8365099524935
 20
469.9807907693831
 10
543.3710457899613
 20
470.5531600254228
 10
555.7400416661582
 20
472.61360644734236
 10
556.4312559677672
 20
472.24542454114953
 10
557.1942102025768
 20
472.0686875546892
 10
557.9769103003257
 20
472.09543982151695
 10
558.7260165428258
 20
472.3238582188588
 10
559.3904785776072
 20
472.73837641041496
 10
559.9250144150749
 20
473.31074566645475
 10
560.2931963212677
 20
474.00195996806383
 10
560.4699333077281
 20
474.76491420287334
 10
560.4431810409003
 20
475.54761430062234
 10
560.2147626435584
 20
476.29672054312243
 10
559.8002444520023
 20
476.96118257790374
 10
559.2278751959625
 20
477.4957184153714
 10
558.1080991009335
 20
484.21780822772155
 10
558.4762810071263
 20
484.9090225293306
 10
558.6530179935866
 20
485.67197676414014
 10
558.6262657267588
 20
486.4546768618892
 10
558.397847329417
 20
487.20378310438923
 10
557.9833291378608
 20
487.86824513917054
 10
557.4109598818211
 20
488.40278097663827
 10
556.7197455802119
 20
488.7709628828311
 10
555.9567913454025
 20
488.9476998692914
 10
555.1740912476535
 20
488.92094760246357
 10
554.4249850051533
 20
488.6925292051218
 10
553.760522970372
 20
488.2780110135656
 10
553.2259871329043
 20
487.7056417575259
 10
540.8569912567074
 20
485.64519533560633
 10
540.1657769550983
 20
486.01337724179916
 10
539.4028227202888
 20
486.1901142282595
 10
538.6201226225398
 20
486.16336196143175
 10
537.8710163800397
 20
485.93494356408996
 10
537.2065543452584
 20
485.52042537253374
 10
536.6720185077907
 20
484.94805611649394
 10
536.3038366015978
 20
484.25684181488487
 10
536.1270996151375
 20
483.49388758007535
  0
LWPOLYLINE
  5
9F
330
17
100
AcDbEntity
  8
CUT_IN
100
AcDbPolyline
 90
53
 70
1
 10
518.1484446489553
 20
513.9615795655598
 10
518.8080222724825
 20
513.5393326172714
 10
519.5544108854434
 20
513.3021846355401
 10
520.3367453373301
 20
513.2662968634156
 10
521.1017108281151
 20
513.4341149932607
 10
527.2715712513774
 20
510.5404646505687
 10
527.6316587549757
 20
509.84499925491684
 10
528.1594762640295
 20
509.2664287718011
 10
528.819053887557
 20
508.8441818235127
 10
529.5654425005177
 20
508.6070338417816
 10
530.3477769524043
 20
508.57114606965706
 10
531.1127424431894
 20
508.73896419950205
 10
531.8082078388413
 20
509.09905170310026
 10
532.3867783219571
 20
509.62686921215425
 10
532.8090252702455
 20
510.28644683568155
 10
533.0461732519766
 20
511.0328354486424
 10
533.0820610241011
 20
511.815169900529
 10
532.9142428942561
 20
512.5801353913141
 10
541.7435652711774
 20
531.4060750336666
 10
542.4390306668294
 20
531.7661625372648
 10
543.0176011499451
 20
532.2939800463188
 10
543.4398480982335
 20
532.9535576698461
 10
543.6769960799646
 20
533.6999462828069
 10
543.7128838520891
 20
534.4822807346935
 10
543.5450657222441
 20
535.2472462254786
 10
543.1849782186459
 20
535.9427116211305
 10
542.657160709592
 20
536.5212821042462
 10
541.9975830860647
 20
536.9435290525346
 10
541.2511944731039
 20
537.1806770342657
 10
540.4688600212172
 20
537.2165648063904
 10
539.7038945304321
 20
537.0487466765453
 10
533.5340341071699
 20
539.9423970192372
 10
533.1739466035716
 20
540.637862414889
 10
532.6461290945176
 20
541.2164328980049
 10
531.9865514709903
 20
541.6386798462933
 10
531.2401628580294
 20
541.8758278280244
 10
530.4578284061429
 20
541.9117156001489
 10
529.6928629153578
 20
541.7438974703039
 10
528.9973975197059
 20
541.3838099667057
 10
528.4188270365901
 20
540.8559924576517
 10
527.9965800883017
 20
540.1964148341244
 10
527.7594321065706
 20
539.4500262211636
 10
527.723544334446
 20
538.667691769277
 10
527.8913624642911
 20
537.9027262784919
 10
519.0620400873697
 20
519.0767866361393
 10
518.3665746917179
 20
518.7166991325412
 10
517.7880042086022
 20
518.1888816234872
 10
517.3657572603138
 20
517.5293039999599
 10
517.1286092785825
 20
516.7829153869991
 10
517.092721506458
 20
516.0005809351125
 10
517.2605396363031
 20
515.2356154443273
 10
517.6206271399013
 20
514.5401500486755
 10
518.1484446489553
 20
513.9615795655598
  0
LWPOLYLINE
  5
A0
330
17
100
AcDbEntity
  8
CUT_IN
100
AcDbPolyline
 90
53
 70
1
 10
417.63885539761577
 20
534.231521829695
 10
418.39970150912154
 20
534.0459192397254
 10
419.182659903161
 20
534.0635623686976
 10
419.9343732590803
 20
534.2832488665287
 10
420.60361355393866
 20
534.6900074614405
 10
427.3783554167369
 20
533.952943935855
 10
427.9444661826867
 20
533.4117843221804
 10
428.63134960651723
 20
533.0355845230529
 10
429.39219571802295
 20
532.8499819330833
 10
430.1751541120624
 20
532.8676250620555
 10
430.9268674679817
 20
533.0873115598865
 10
431.59610776284006
 20
533.4940701547985
 10
432.1372673765147
 20
534.0601809207482
 10
432.5134671756423
 20
534.7470643445787
 10
432.69906976561185
 20
535.5079104560843
 10
432.6814266366397
 20
536.2908688501238
 10
432.46174013880864
 20
537.0425822060432
 10
432.05498154389676
 20
537.7118225009016
 10
432.73752704202127
 20
543.9854602524583
 10
433.2786866556959
 20
544.5515710184081
 10
433.6548864548235
 20
545.2384544422387
 10
433.840489044793
 20
545.9993005537444
 10
433.82284591582084
 20
546.7822589477838
 10
433.6031594179898
 20
547.5339723037032
 10
433.1964008230779
 20
548.2032125985615
 10
432.63029005712815
 20
548.7443722122362
 10
431.9434066332976
 20
549.1205720113637
 10
431.18256052179186
 20
549.3061746013333
 10
430.3996021277525
 20
549.2885314723611
 10
429.6478887718331
 20
549.0688449745301
 10
428.97864847697474
 20
548.6620863796181
 10
422.2039066141765
 20
549.3991499052037
 10
421.6377958482267
 20
549.9403095188783
 10
420.95091242439617
 20
550.316509318006
 10
420.19006631289045
 20
550.5021119079754
 10
419.407107918851
 20
550.4844687790032
 10
418.6553945629317
 20
550.2647822811722
 10
417.98615426807334
 20
549.8580236862604
 10
417.44499465439867
 20
549.2919129203106
 10
417.0687948552711
 20
548.60502949648
 10
416.88319226530155
 20
547.8441833849743
 10
416.9008353942737
 20
547.0612249909348
 10
417.12052189210476
 20
546.3095116350155
 10
417.52728048701664
 20
545.6402713401571
 10
416.8447349888921
 20
539.3666335886004
 10
416.3035753752175
 20
538.8005228226506
 10
415.9273755760899
 20
538.11363939882
 10
415.7417729861204
 20
537.3527932873144
 10
415.75941611509256
 20
536.5698348932749
 10
415.9791026129236
 20
535.8181215373556
 10
416.3858612078355
 20
535.1488812424973
 10
416.95197197378525
 20
534.6077216288226
 10
417.63885539761577
 20
534.231521829695
  0
CIRCLE
  5
A1
330
17
100
AcDbEntity
  8
DRILL
100
AcDbCircle
 10
213.7913317334776
 20
190.6397442129907
 30
0.0
 40
3.5
  0
CIRCLE
  5
A2
330
17
100
AcDbEntity
  8
DRILL
100
AcDbCircle
 10
213.7913317334776
 20
360.6397442129907
 30
0.0
 40
3.5
  0
CIRCLE
  5
A3
330
17
100
AcDbEntity
  8
DRILL
100
AcDbCircle
 10
383.7913317334776
 20
190.6397442129907
 30
0.0
 40
3.5
  0
CIRCLE
  5
A4
330
17
100
AcDbEntity
  8
DRILL
100
AcDbCircle
 10
383.7913317334776
 20
360.6397442129907
 30
0.0
 40
3.5
  0
LWPOLYLINE
  5
A5
330
17
100
AcDbEntity
  8
MARK
100
AcDbPolyline
 90
5
 70
0
 10
201.2913317334776
 20
178.1397442129907
 10
396.2913317334776
 20
178.1397442129907
 10
396.2913317334776
 20
373.1397442129907
 10
201.2913317334776
 20
373.1397442129907
 10
201.2913317334776
 20
178.1397442129907
  0
TEXT
  5
A6
330
17
100
AcDbEntity
  8
TEXT
100
AcDbText
 10
298.4878414643411
 20
292.4132954358304
 30
0.0
 40
10.0
  1
П1
 72
1
 11
298.4878414643411
 21
292.4132954358304
 31
0.0
100
AcDbText
 73
2
  0
TEXT
  5
A7
330
17
100
AcDbEntity
  8
TEXT
100
AcDbText
 10
0.0
 20
-20.0
 30
0.0
 40
8.0
  1
П1 Дно корпуса; Фанера берёзовая ФК 18 мм; 1 шт.
 11
0.0
 21
-20.0
 31
0.0
100
AcDbText
  0
ENDSEC
  0
SECTION
  2
OBJECTS
  0
DICTIONARY
  5
A
330
0
100
AcDbDictionary
281
1
  3
ACAD_COLOR
350
B
  3
ACAD_GROUP
350
C
  3
ACAD_LAYOUT
350
D
  3
ACAD_MATERIAL
350
E
  3
ACAD_MLEADERSTYLE
350
F
  3
ACAD_MLINESTYLE
350
10
  3
ACAD_PLOTSETTINGS
350
11
  3
ACAD_PLOTSTYLENAME
350
12
  3
ACAD_SCALELIST
350
14
  3
ACAD_TABLESTYLE
350
15
  3
ACAD_VISUALSTYLE
350
16
  3
EZDXF_META
350
2D
  0
DICTIONARY
  5
B
330
A
100
AcDbDictionary
281
1
  0
DICTIONARY
  5
C
330
A
100
AcDbDictionary
281
1
  0
DICTIONARY
  5
D
330
A
100
AcDbDictionary
281
1
  3
Model
350
1A
  3
Layout1
350
1E
  0
DICTIONARY
  5
E
330
A
100
AcDbDictionary
281
1
  3
ByBlock
350
1F
  3
ByLayer
350
20
  3
Global
350
21
  0
DICTIONARY
  5
F
330
A
100
AcDbDictionary
281
1
  3
Standard
350
2C
  0
DICTIONARY
  5
10
330
A
100
AcDbDictionary
281
1
  3
Standard
350
22
  0
DICTIONARY
  5
11
330
A
100
AcDbDictionary
281
1
  0
ACDBDICTIONARYWDFLT
  5
12
330
A
100
AcDbDictionary
281
1
  3
Normal
350
13
100
AcDbDictionaryWithDefault
340
13
  0
ACDBPLACEHOLDER
  5
13
330
12
  0
DICTIONARY
  5
14
330
A
100
AcDbDictionary
281
1
  0
DICTIONARY
  5
15
330
A
100
AcDbDictionary
281
1
  0
DICTIONARY
  5
16
330
A
100
AcDbDictionary
281
1
  3
2dWireframe
350
5A
  3
Basic
350
5B
  3
Brighten
350
5C
  3
ColorChange
350
5D
  3
Conceptual
350
5E
  3
Dim
350
5F
  3
EdgeColorOff
350
60
  3
Facepattern
350
61
  3
Flat
350
62
  3
FlatWithEdges
350
63
  3
Gouraud
350
64
  3
GouraudWithEdges
350
65
  3
Hidden
350
66
  3
JitterOff
350
67
  3
Linepattern
350
68
  3
Modeling
350
69
  3
OverhangOff
350
6A
  3
Realistic
350
6B
  3
Shaded
350
6C
  3
Shaded with edges
350
6D
  3
Shades of Gray
350
6E
  3
Sketchy
350
6F
  3
Thicken
350
70
  3
Wireframe
350
71
  3
X-Ray
350
72
  0
LAYOUT
  5
1A
330
D
100
AcDbPlotSettings
  1

  4
A3
  6

 40
7.5
 41
20.0
 42
7.5
 43
20.0
 44
420.0
 45
297.0
 46
0.0
 47
0.0
 48
0.0
 49
0.0
140
0.0
141
0.0
142
1.0
143
1.0
 70
1024
 72
1
 73
0
 74
5
  7

 75
16
 76
0
 77
2
 78
300
147
1.0
148
0.0
149
0.0
100
AcDbLayout
  1
Model
 70
1
 71
0
 10
0.0
 20
0.0
 11
420.0
 21
297.0
 12
0.0
 22
0.0
 32
0.0
 14
1e+20
 24
1e+20
 34
1e+20
 15
-1e+20
 25
-1e+20
 35
-1e+20
146
0.0
 13
0.0
 23
0.0
 33
0.0
 16
1.0
 26
0.0
 36
0.0
 17
0.0
 27
1.0
 37
0.0
 76
1
330
17
  0
LAYOUT
  5
1E
330
D
100
AcDbPlotSettings
  1

  4
A3
  6

 40
7.5
 41
20.0
 42
7.5
 43
20.0
 44
420.0
 45
297.0
 46
0.0
 47
0.0
 48
0.0
 49
0.0
140
0.0
141
0.0
142
1.0
143
1.0
 70
0
 72
1
 73
0
 74
5
  7

 75
16
 76
0
 77
2
 78
300
147
1.0
148
0.0
149
0.0
100
AcDbLayout
  1
Layout1
 70
1
 71
1
 10
0.0
 20
0.0
 11
420.0
 21
297.0
 12
0.0
 22
0.0
 32
0.0
 14
1e+20
 24
1e+20
 34
1e+20
 15
-1e+20
 25
-1e+20
 35
-1e+20
146
0.0
 13
0.0
 23
0.0
 33
0.0
 16
1.0
 26
0.0
 36
0.0
 17
0.0
 27
1.0
 37
0.0
 76
1
330
1B
  0
MATERIAL
  5
1F
102
{ACAD_REACTORS
330
E
102
}
330
E
100
AcDbMaterial
  1
ByBlock
  2

 70
0
 40
1.0
 71
1
 41
1.0
 91
-1023410177
 42
1.0
 72
1
  3

 73
1
 74
1
 75
1
 44
0.5
 73
0
 45
1.0
 46
1.0
 77
1
  4

 78
1
 79
1
170
1
 48
1.0
171
1
  6

172
1
173
1
174
1
140
1.0
141
1.0
175
1
  7

176
1
177
1
178
1
143
1.0
179
1
  8

270
1
271
1
272
1
145
1.0
146
1.0
273
1
  9

274
1
275
1
276
1
 42
1.0
 72
1
  3

 73
1
 74
1
 75
1
 94
63
  0
MATERIAL
  5
20
102
{ACAD_REACTORS
330
E
102
}
330
E
100
AcDbMaterial
  1
ByLayer
  2

 70
0
 40
1.0
 71
1
 41
1.0
 91
-1023410177
 42
1.0
 72
1
  3

 73
1
 74
1
 75
1
 44
0.5
 73
0
 45
1.0
 46
1.0
 77
1
  4

 78
1
 79
1
170
1
 48
1.0
171
1
  6

172
1
173
1
174
1
140
1.0
141
1.0
175
1
  7

176
1
177
1
178
1
143
1.0
179
1
  8

270
1
271
1
272
1
145
1.0
146
1.0
273
1
  9

274
1
275
1
276
1
 42
1.0
 72
1
  3

 73
1
 74
1
 75
1
 94
63
  0
MATERIAL
  5
21
102
{ACAD_REACTORS
330
E
102
}
330
E
100
AcDbMaterial
  1
Global
  2

 70
0
 40
1.0
 71
1
 41
1.0
 91
-1023410177
 42
1.0
 72
1
  3

 73
1
 74
1
 75
1
 44
0.5
 73
0
 45
1.0
 46
1.0
 77
1
  4

 78
1
 79
1
170
1
 48
1.0
171
1
  6

172
1
173
1
174
1
140
1.0
141
1.0
175
1
  7

176
1
177
1
178
1
143
1.0
179
1
  8

270
1
271
1
272
1
145
1.0
146
1.0
273
1
  9

274
1
275
1
276
1
 42
1.0
 72
1
  3

 73
1
 74
1
 75
1
 94
63
  0
MLINESTYLE
  5
22
102
{ACAD_REACTORS
330
10
102
}
330
10
100
AcDbMlineStyle
  2
Standard
 70
0
  3

 62
256
 51
90.0
 52
90.0
 71
2
 49
0.5
 62
256
  6
BYLAYER
 49
-0.5
 62
256
  6
BYLAYER
  0
MLEADERSTYLE
  5
2C
102
{ACAD_REACTORS
330
F
102
}
330
F
100
AcDbMLeaderStyle
179
2
170
2
171
1
172
0
 90
2
 40
0.0
 41
0.0
173
1
 91
-1056964608
 92
-2
290
1
 42
2.0
291
1
 43
8.0
  3
Standard
 44
4.0
300

342
29
174
1
175
1
176
0
178
1
 93
-1056964608
 45
4.0
292
0
297
0
 46
4.0
 94
-1056964608
 47
1.0
 49
1.0
140
1.0
294
1
141
0.0
177
0
142
1.0
295
0
296
0
143
3.75
271
0
272
9
273
9
  0
DICTIONARY
  5
2D
330
A
100
AcDbDictionary
280
1
281
1
  3
CREATED_BY_EZDXF
350
2E
  3
WRITTEN_BY_EZDXF
350
AA
  0
DICTIONARYVAR
  5
2E
330
2D
100
DictionaryVariables
280
0
  1
1.4.4 @ 2026-09-30T15:27:05.864219+00:00
  0
VISUALSTYLE
  5
5A
102
{ACAD_REACTORS
330
16
102
}
330
16
100
AcDbVisualStyle
  2
2dWireframe
 70
4
 90
0
 40
0.6
 62
7
290
0
291
0
  0
VISUALSTYLE
  5
5B
102
{ACAD_REACTORS
330
16
102
}
330
16
100
AcDbVisualStyle
  2
Basic
 70
7
 90
1
 40
0.6
 62
7
290
0
291
1
  0
VISUALSTYLE
  5
5C
102
{ACAD_REACTORS
330
16
102
}
330
16
100
AcDbVisualStyle
  2
Brighten
 70
12
 90
2
 40
0.6
 62
7
290
0
291
1
  0
VISUALSTYLE
  5
5D
102
{ACAD_REACTORS
330
16
102
}
330
16
100
AcDbVisualStyle
  2
ColorChange
 70
16
 90
2
 40
0.6
 62
8
290
0
291
1
  0
VISUALSTYLE
  5
5E
102
{ACAD_REACTORS
330
16
102
}
330
16
100
AcDbVisualStyle
  2
Conceptual
 70
9
 90
3
 40
0.6
 62
7
290
0
291
0
  0
VISUALSTYLE
  5
5F
102
{ACAD_REACTORS
330
16
102
}
330
16
100
AcDbVisualStyle
  2
Dim
 70
11
 90
2
 40
0.6
 62
7
290
0
291
1
  0
VISUALSTYLE
  5
60
102
{ACAD_REACTORS
330
16
102
}
330
16
100
AcDbVisualStyle
  2
EdgeColorOff
 70
22
 90
2
 40
0.6
 62
7
290
0
291
1
  0
VISUALSTYLE
  5
61
102
{ACAD_REACTORS
330
16
102
}
330
16
100
AcDbVisualStyle
  2
Facepattern
 70
15
 90
2
 40
0.6
 62
7
290
0
291
1
  0
VISUALSTYLE
  5
62
102
{ACAD_REACTORS
330
16
102
}
330
16
100
AcDbVisualStyle
  2
Flat
 70
0
 90
2
 40
0.6
 62
7
290
0
291
1
  0
VISUALSTYLE
  5
63
102
{ACAD_REACTORS
330
16
102
}
330
16
100
AcDbVisualStyle
  2
FlatWithEdges
 70
1
 90
2
 40
0.6
 62
7
290
0
291
1
  0
VISUALSTYLE
  5
64
102
{ACAD_REACTORS
330
16
102
}
330
16
100
AcDbVisualStyle
  2
Gouraud
 70
2
 90
2
 40
0.6
 62
7
290
0
291
1
  0
VISUALSTYLE
  5
65
102
{ACAD_REACTORS
330
16
102
}
330
16
100
AcDbVisualStyle
  2
GouraudWithEdges
 70
3
 90
2
 40
0.6
 62
7
290
0
291
1
  0
VISUALSTYLE
  5
66
102
{ACAD_REACTORS
330
16
102
}
330
16
100
AcDbVisualStyle
  2
Hidden
 70
6
 90
1
 40
0.6
 62
7
290
0
291
0
  0
VISUALSTYLE
  5
67
102
{ACAD_REACTORS
330
16
102
}
330
16
100
AcDbVisualStyle
  2
JitterOff
 70
20
 90
2
 40
0.6
 62
7
290
0
291
1
  0
VISUALSTYLE
  5
68
102
{ACAD_REACTORS
330
16
102
}
330
16
100
AcDbVisualStyle
  2
Linepattern
 70
14
 90
2
 40
0.6
 62
7
290
0
291
1
  0
VISUALSTYLE
  5
69
102
{ACAD_REACTORS
330
16
102
}
330
16
100
AcDbVisualStyle
  2
Modeling
 70
10
 90
2
 40
0.6
 62
7
290
0
291
0
  0
VISUALSTYLE
  5
6A
102
{ACAD_REACTORS
330
16
102
}
330
16
100
AcDbVisualStyle
  2
OverhangOff
 70
21
 90
2
 40
0.6
 62
7
290
0
291
1
  0
VISUALSTYLE
  5
6B
102
{ACAD_REACTORS
330
16
102
}
330
16
100
AcDbVisualStyle
  2
Realistic
 70
8
 90
2
 40
0.6
 62
7
290
0
291
0
  0
VISUALSTYLE
  5
6C
102
{ACAD_REACTORS
330
16
102
}
330
16
100
AcDbVisualStyle
  2
Shaded
 70
27
 90
2
 40
0.6
 62
7
290
0
291
0
  0
VISUALSTYLE
  5
6D
102
{ACAD_REACTORS
330
16
102
}
330
16
100
AcDbVisualStyle
  2
Shaded with edges
 70
26
 90
2
 40
0.6
 62
7
290
0
291
0
  0
VISUALSTYLE
  5
6E
102
{ACAD_REACTORS
330
16
102
}
330
16
100
AcDbVisualStyle
  2
Shades of Gray
 70
23
 90
2
 40
0.6
 62
7
290
0
291
0
  0
VISUALSTYLE
  5
6F
102
{ACAD_REACTORS
330
16
102
}
330
16
100
AcDbVisualStyle
  2
Sketchy
 70
24
 90
1
 40
0.6
 62
7
290
0
291
0
  0
VISUALSTYLE
  5
70
102
{ACAD_REACTORS
330
16
102
}
330
16
100
AcDbVisualStyle
  2
Thicken
 70
13
 90
2
 40
0.6
 62
7
290
0
291
1
  0
VISUALSTYLE
  5
71
102
{ACAD_REACTORS
330
16
102
}
330
16
100
AcDbVisualStyle
  2
Wireframe
 70
5
 90
0
 40
0.6
 62
7
290
0
291
0
  0
VISUALSTYLE
  5
72
102
{ACAD_REACTORS
330
16
102
}
330
16
100
AcDbVisualStyle
  2
X-Ray
 70
25
 90
2
 40
0.5
 62
7
290
0
291
0
  0
DICTIONARYVAR
  5
AA
330
2D
100
DictionaryVariables
280
0
  1
1.4.4 @ 2026-09-30T15:27:05.880515+00:00
  0
ENDSEC
  0
EOF
