  0
SECTION
  2
HEADER
  9
$ACADVER
  1
AC1024
  9
$ACADMAINTVER
 70
6
  9
$DWGCODEPAGE
  3
ANSI_1252
  9
$LASTSAVEDBY
  1
ezdxf
  9
$INSBASE
 10
0.0
 20
0.0
 30
0.0
  9
$EXTMIN
 10
1e+20
 20
1e+20
 30
1e+20
  9
$EXTMAX
 10
-1e+20
 20
-1e+20
 30
-1e+20
  9
$LIMMIN
 10
0.0
 20
0.0
  9
$LIMMAX
 10
420.0
 20
297.0
  9
$ORTHOMODE
 70
0
  9
$REGENMODE
 70
1
  9
$FILLMODE
 70
1
  9
$QTEXTMODE
 70
0
  9
$MIRRTEXT
 70
1
  9
$LTSCALE
 40
1.0
  9
$ATTMODE
 70
1
  9
$TEXTSIZE
 40
2.5
  9
$TRACEWID
 40
1.0
  9
$TEXTSTYLE
  7
OpenSans
  9
$CLAYER
  8
0
  9
$CELTYPE
  6
ByLayer
  9
$CECOLOR
 62
256
  9
$CELTSCALE
 40
1.0
  9
$DISPSILH
 70
0
  9
$DIMSCALE
 40
1.0
  9
$DIMASZ
 40
0.175
  9
$DIMEXO
 40
0.125
  9
$DIMDLI
 40
3.75
  9
$DIMRND
 40
0.0
  9
$DIMDLE
 40
0.0
  9
$DIMEXE
 40
0.375
  9
$DIMTP
 40
0.0
  9
$DIMTM
 40
0.0
  9
$DIMTXT
 40
0.25
  9
$DIMCEN
 40
2.5
  9
$DIMTSZ
 40
0.0
  9
$DIMTOL
 70
0
  9
$DIMLIM
 70
0
  9
$DIMTIH
 70
0
  9
$DIMTOH
 70
0
  9
$DIMSE1
 70
0
  9
$DIMSE2
 70
0
  9
$DIMTAD
 70
1
  9
$DIMZIN
 70
12
  9
$DIMBLK
  1
ARCHTICK
  9
$DIMASO
 70
1
  9
$DIMSHO
 70
1
  9
$DIMPOST
  1

  9
$DIMAPOST
  1

  9
$DIMALT
 70
0
  9
$DIMALTD
 70
3
  9
$DIMALTF
 40
0.03937007874
  9
$DIMLFAC
 40
100.0
  9
$DIMTOFL
 70
1
  9
$DIMTVP
 40
0.0
  9
$DIMTIX
 70
0
  9
$DIMSOXD
 70
0
  9
$DIMSAH
 70
0
  9
$DIMBLK1
  1

  9
$DIMBLK2
  1

  9
$DIMSTYLE
  2
EZDXF
  9
$DIMCLRD
 70
0
  9
$DIMCLRE
 70
0
  9
$DIMCLRT
 70
0
  9
$DIMTFAC
 40
0.5
  9
$DIMGAP
 40
0.1
  9
$DIMJUST
 70
0
  9
$DIMSD1
 70
0
  9
$DIMSD2
 70
0
  9
$DIMTOLJ
 70
0
  9
$DIMTZIN
 70
8
  9
$DIMALTZ
 70
0
  9
$DIMALTTZ
 70
0
  9
$DIMUPT
 70
1
  9
$DIMDEC
 70
2
  9
$DIMTDEC
 70
2
  9
$DIMALTU
 70
2
  9
$DIMALTTD
 70
3
  9
$DIMTXSTY
  7
OpenSansCondensed-Light
  9
$DIMAUNIT
 70
0
  9
$DIMADEC
 70
2
  9
$DIMALTRND
 40
0.0
  9
$DIMAZIN
 70
3
  9
$DIMDSEP
 70
46
  9
$DIMATFIT
 70
3
  9
$DIMFRAC
 70
0
  9
$DIMLDRBLK
  1

  9
$DIMLUNIT
 70
2
  9
$DIMLWD
 70
-2
  9
$DIMLWE
 70
-2
  9
$DIMTMOVE
 70
2
  9
$DIMFXL
 40
1.0
  9
$DIMFXLON
 70
0
  9
$DIMJOGANG
 40
0.785398163397
  9
$DIMTFILL
 70
0
  9
$DIMTFILLCLR
 70
0
  9
$DIMARCSYM
 70
0
  9
$DIMLTYPE
  6

  9
$DIMLTEX1
  6

  9
$DIMLTEX2
  6

  9
$DIMTXTDIRECTION
 70
0
  9
$LUNITS
 70
2
  9
$LUPREC
 70
4
  9
$SKETCHINC
 40
1.0
  9
$FILLETRAD
 40
10.0
  9
$AUNITS
 70
0
  9
$AUPREC
 70
2
  9
$MENU
  1
.
  9
$ELEVATION
 40
0.0
  9
$PELEVATION
 40
0.0
  9
$THICKNESS
 40
0.0
  9
$LIMCHECK
 70
0
  9
$CHAMFERA
 40
0.0
  9
$CHAMFERB
 40
0.0
  9
$CHAMFERC
 40
0.0
  9
$CHAMFERD
 40
0.0
  9
$SKPOLY
 70
0
  9
$TDCREATE
 40
2461314.6828935184
  9
$TDUCREATE
 40
2458532.153996898
  9
$TDUPDATE
 40
2461314.6828935184
  9
$TDUUPDATE
 40
2458532.1544311
  9
$TDINDWG
 40
0.0
  9
$TDUSRTIMER
 40
0.0
  9
$USRTIMER
 70
1
  9
$ANGBASE
 50
0.0
  9
$ANGDIR
 70
0
  9
$PDMODE
 70
0
  9
$PDSIZE
 40
0.0
  9
$PLINEWID
 40
0.0
  9
$SPLFRAME
 70
0
  9
$SPLINETYPE
 70
6
  9
$SPLINESEGS
 70
8
  9
$HANDSEED
  5
9F
  9
$SURFTAB1
 70
6
  9
$SURFTAB2
 70
6
  9
$SURFTYPE
 70
6
  9
$SURFU
 70
6
  9
$SURFV
 70
6
  9
$UCSBASE
  2

  9
$UCSNAME
  2

  9
$UCSORG
 10
0.0
 20
0.0
 30
0.0
  9
$UCSXDIR
 10
1.0
 20
0.0
 30
0.0
  9
$UCSYDIR
 10
0.0
 20
1.0
 30
0.0
  9
$UCSORTHOREF
  2

  9
$UCSORTHOVIEW
 70
0
  9
$UCSORGTOP
 10
0.0
 20
0.0
 30
0.0
  9
$UCSORGBOTTOM
 10
0.0
 20
0.0
 30
0.0
  9
$UCSORGLEFT
 10
0.0
 20
0.0
 30
0.0
  9
$UCSORGRIGHT
 10
0.0
 20
0.0
 30
0.0
  9
$UCSORGFRONT
 10
0.0
 20
0.0
 30
0.0
  9
$UCSORGBACK
 10
0.0
 20
0.0
 30
0.0
  9
$PUCSBASE
  2

  9
$PUCSNAME
  2

  9
$PUCSORG
 10
0.0
 20
0.0
 30
0.0
  9
$PUCSXDIR
 10
1.0
 20
0.0
 30
0.0
  9
$PUCSYDIR
 10
0.0
 20
1.0
 30
0.0
  9
$PUCSORTHOREF
  2

  9
$PUCSORTHOVIEW
 70
0
  9
$PUCSORGTOP
 10
0.0
 20
0.0
 30
0.0
  9
$PUCSORGBOTTOM
 10
0.0
 20
0.0
 30
0.0
  9
$PUCSORGLEFT
 10
0.0
 20
0.0
 30
0.0
  9
$PUCSORGRIGHT
 10
0.0
 20
0.0
 30
0.0
  9
$PUCSORGFRONT
 10
0.0
 20
0.0
 30
0.0
  9
$PUCSORGBACK
 10
0.0
 20
0.0
 30
0.0
  9
$USERI1
 70
0
  9
$USERI2
 70
0
  9
$USERI3
 70
0
  9
$USERI4
 70
0
  9
$USERI5
 70
0
  9
$USERR1
 40
0.0
  9
$USERR2
 40
0.0
  9
$USERR3
 40
0.0
  9
$USERR4
 40
0.0
  9
$USERR5
 40
0.0
  9
$WORLDVIEW
 70
1
  9
$SHADEDGE
 70
3
  9
$SHADEDIF
 70
70
  9
$TILEMODE
 70
1
  9
$MAXACTVP
 70
64
  9
$PINSBASE
 10
0.0
 20
0.0
 30
0.0
  9
$PLIMCHECK
 70
0
  9
$PEXTMIN
 10
1e+20
 20
1e+20
 30
1e+20
  9
$PEXTMAX
 10
-1e+20
 20
-1e+20
 30
-1e+20
  9
$PLIMMIN
 10
0.0
 20
0.0
  9
$PLIMMAX
 10
420.0
 20
297.0
  9
$UNITMODE
 70
0
  9
$VISRETAIN
 70
1
  9
$PLINEGEN
 70
0
  9
$PSLTSCALE
 70
1
  9
$TREEDEPTH
 70
3020
  9
$CMLSTYLE
  2
Standard
  9
$CMLJUST
 70
0
  9
$CMLSCALE
 40
20.0
  9
$PROXYGRAPHICS
 70
1
  9
$MEASUREMENT
 70
1
  9
$CELWEIGHT
370
-1
  9
$ENDCAPS
280
0
  9
$JOINSTYLE
280
0
  9
$LWDISPLAY
290
0
  9
$INSUNITS
 70
4
  9
$HYPERLINKBASE
  1

  9
$STYLESHEET
  1

  9
$XEDIT
290
1
  9
$CEPSNTYPE
380
0
  9
$PSTYLEMODE
290
1
  9
$FINGERPRINTGUID
  2
{7B98162C-8981-4303-8D09-54B00FF7B5AE}
  9
$VERSIONGUID
  2
{DD9EDC9D-637F-4E94-887A-04684B0DB34C}
  9
$EXTNAMES
290
1
  9
$PSVPSCALE
 40
0.0
  9
$OLESTARTUP
290
0
  9
$SORTENTS
280
127
  9
$INDEXCTL
280
0
  9
$HIDETEXT
280
1
  9
$XCLIPFRAME
280
1
  9
$HALOGAP
280
0
  9
$OBSCOLOR
 70
257
  9
$OBSLTYPE
280
0
  9
$INTERSECTIONDISPLAY
280
0
  9
$INTERSECTIONCOLOR
 70
257
  9
$DIMASSOC
280
2
  9
$PROJECTNAME
  1

  9
$CAMERADISPLAY
290
0
  9
$LENSLENGTH
 40
50.0
  9
$CAMERAHEIGHT
 40
0.0
  9
$STEPSPERSEC
 40
24.0
  9
$STEPSIZE
 40
100.0
  9
$3DDWFPREC
 40
2.0
  9
$PSOLWIDTH
 40
0.005
  9
$PSOLHEIGHT
 40
0.08
  9
$LOFTANG1
 40
1.570796326795
  9
$LOFTANG2
 40
1.570796326795
  9
$LOFTMAG1
 40
0.0
  9
$LOFTMAG2
 40
0.0
  9
$LOFTPARAM
 70
7
  9
$LOFTNORMALS
280
1
  9
$LATITUDE
 40
37.795
  9
$LONGITUDE
 40
-122.394
  9
$NORTHDIRECTION
 40
0.0
  9
$TIMEZONE
 70
-8000
  9
$LIGHTGLYPHDISPLAY
280
1
  9
$TILEMODELIGHTSYNCH
280
1
  9
$CMATERIAL
347
20
  9
$SOLIDHIST
280
0
  9
$SHOWHIST
280
1
  9
$DWFFRAME
280
2
  9
$DGNFRAME
280
2
  9
$REALWORLDSCALE
290
1
  9
$INTERFERECOLOR
 62
256
  9
$CSHADOW
280
0
  9
$SHADOWPLANELOCATION
 40
0.0
  0
ENDSEC
  0
SECTION
  2
CLASSES
  0
CLASS
  1
ACDBDICTIONARYWDFLT
  2
AcDbDictionaryWithDefault
  3
ObjectDBX Classes
 90
0
 91
0
280
0
281
0
  0
CLASS
  1
SUN
  2
AcDbSun
  3
SCENEOE
 90
1153
 91
0
280
0
281
0
  0
CLASS
  1
VISUALSTYLE
  2
AcDbVisualStyle
  3
ObjectDBX Classes
 90
4095
 91
0
280
0
281
0
  0
CLASS
  1
MATERIAL
  2
AcDbMaterial
  3
ObjectDBX Classes
 90
1153
 91
0
280
0
281
0
  0
CLASS
  1
SCALE
  2
AcDbScale
  3
ObjectDBX Classes
 90
1153
 91
0
280
0
281
0
  0
CLASS
  1
TABLESTYLE
  2
AcDbTableStyle
  3
ObjectDBX Classes
 90
4095
 91
0
280
0
281
0
  0
CLASS
  1
MLEADERSTYLE
  2
AcDbMLeaderStyle
  3
ACDB_MLEADERSTYLE_CLASS
 90
4095
 91
0
280
0
281
0
  0
CLASS
  1
DICTIONARYVAR
  2
AcDbDictionaryVar
  3
ObjectDBX Classes
 90
0
 91
0
280
0
281
0
  0
CLASS
  1
CELLSTYLEMAP
  2
AcDbCellStyleMap
  3
ObjectDBX Classes
 90
1152
 91
0
280
0
281
0
  0
CLASS
  1
MENTALRAYRENDERSETTINGS
  2
AcDbMentalRayRenderSettings
  3
SCENEOE
 90
1024
 91
0
280
0
281
0
  0
CLASS
  1
ACDBDETAILVIEWSTYLE
  2
AcDbDetailViewStyle
  3
ObjectDBX Classes
 90
1025
 91
0
280
0
281
0
  0
CLASS
  1
ACDBSECTIONVIEWSTYLE
  2
AcDbSectionViewStyle
  3
ObjectDBX Classes
 90
1025
 91
0
280
0
281
0
  0
CLASS
  1
RASTERVARIABLES
  2
AcDbRasterVariables
  3
ISM
 90
0
 91
0
280
0
281
0
  0
CLASS
  1
ACDBPLACEHOLDER
  2
AcDbPlaceHolder
  3
ObjectDBX Classes
 90
0
 91
0
280
0
281
0
  0
CLASS
  1
LAYOUT
  2
AcDbLayout
  3
ObjectDBX Classes
 90
0
 91
0
280
0
281
0
  0
ENDSEC
  0
SECTION
  2
TABLES
  0
TABLE
  2
VPORT
  5
8
330
0
100
AcDbSymbolTable
 70
1
  0
VPORT
  5
23
330
8
100
AcDbSymbolTableRecord
100
AcDbViewportTableRecord
  2
*Active
 70
0
 10
0.0
 20
0.0
 11
1.0
 21
1.0
 12
0.0
 22
0.0
 13
0.0
 23
0.0
 14
0.5
 24
0.5
 15
0.5
 25
0.5
 16
0.0
 26
0.0
 36
1.0
 17
0.0
 27
0.0
 37
0.0
 40
1000.0
 41
1.34
 42
50.0
 43
0.0
 44
0.0
 50
0.0
 51
0.0
 71
0
 72
1000
 73
1
 74
3
 75
0
 76
0
 77
0
 78
0
281
0
 65
0
146
0.0
  0
ENDTAB
  0
TABLE
  2
LTYPE
  5
2
330
0
100
AcDbSymbolTable
 70
21
  0
LTYPE
  5
24
330
2
100
AcDbSymbolTableRecord
100
AcDbLinetypeTableRecord
  2
ByBlock
 70
0
  3

 72
65
 73
0
 40
0.0
  0
LTYPE
  5
25
330
2
100
AcDbSymbolTableRecord
100
AcDbLinetypeTableRecord
  2
ByLayer
 70
0
  3

 72
65
 73
0
 40
0.0
  0
LTYPE
  5
26
330
2
100
AcDbSymbolTableRecord
100
AcDbLinetypeTableRecord
  2
Continuous
 70
0
  3

 72
65
 73
0
 40
0.0
  0
LTYPE
  5
2F
330
2
100
AcDbSymbolTableRecord
100
AcDbLinetypeTableRecord
  2
CENTER
 70
0
  3
Center ____ _ ____ _ ____ _ ____ _ ____ _ ____
 72
65
 73
4
 40
5.08
 49
3.175
 74
0
 49
-0.635
 74
0
 49
0.635
 74
0
 49
-0.635
 74
0
  0
LTYPE
  5
30
330
2
100
AcDbSymbolTableRecord
100
AcDbLinetypeTableRecord
  2
CENTERX2
 70
0
  3
Center (2x) ________  __  ________  __  ________
 72
65
 73
4
 40
8.89
 49
6.35
 74
0
 49
-0.635
 74
0
 49
1.27
 74
0
 49
-0.635
 74
0
  0
LTYPE
  5
31
330
2
100
AcDbSymbolTableRecord
100
AcDbLinetypeTableRecord
  2
CENTER2
 70
0
  3
Center (.5x) ____ _ ____ _ ____ _ ____ _ ____
 72
65
 73
4
 40
2.54
 49
1.587
 74
0
 49
-0.318
 74
0
 49
0.318
 74
0
 49
-0.318
 74
0
  0
LTYPE
  5
32
330
2
100
AcDbSymbolTableRecord
100
AcDbLinetypeTableRecord
  2
DASHED
 70
0
  3
Dashed __ __ __ __ __ __ __ __ __ __ __ __ __ _
 72
65
 73
2
 40
1.524
 49
1.27
 74
0
 49
-0.254
 74
0
  0
LTYPE
  5
33
330
2
100
AcDbSymbolTableRecord
100
AcDbLinetypeTableRecord
  2
DASHEDX2
 70
0
  3
Dashed (2x) ____  ____  ____  ____  ____  ____
 72
65
 73
2
 40
3.048
 49
2.54
 74
0
 49
-0.508
 74
0
  0
LTYPE
  5
34
330
2
100
AcDbSymbolTableRecord
100
AcDbLinetypeTableRecord
  2
DASHED2
 70
0
  3
Dashed (.5x) _ _ _ _ _ _ _ _ _ _ _ _ _ _
 72
65
 73
2
 40
0.762
 49
0.635
 74
0
 49
-0.127
 74
0
  0
LTYPE
  5
35
330
2
100
AcDbSymbolTableRecord
100
AcDbLinetypeTableRecord
  2
PHANTOM
 70
0
  3
Phantom ______  __  __  ______  __  __  ______
 72
65
 73
6
 40
6.35
 49
3.175
 74
0
 49
-0.635
 74
0
 49
0.635
 74
0
 49
-0.635
 74
0
 49
0.635
 74
0
 49
-0.635
 74
0
  0
LTYPE
  5
36
330
2
100
AcDbSymbolTableRecord
100
AcDbLinetypeTableRecord
  2
PHANTOMX2
 70
0
  3
Phantom (2x)____________    ____    ____    ____________
 72
65
 73
6
 40
10.795
 49
6.35
 74
0
 49
-0.635
 74
0
 49
1.27
 74
0
 49
-0.635
 74
0
 49
1.27
 74
0
 49
-0.635
 74
0
  0
LTYPE
  5
37
330
2
100
AcDbSymbolTableRecord
100
AcDbLinetypeTableRecord
  2
PHANTOM2
 70
0
  3
Phantom (.5x) ___ _ _ ___ _ _ ___ _ _ ___ _ _ ___
 72
65
 73
6
 40
3.175
 49
1.587
 74
0
 49
-0.318
 74
0
 49
0.318
 74
0
 49
-0.318
 74
0
 49
0.318
 74
0
 49
-0.318
 74
0
  0
LTYPE
  5
38
330
2
100
AcDbSymbolTableRecord
100
AcDbLinetypeTableRecord
  2
DASHDOT
 70
0
  3
Dash dot __ . __ . __ . __ . __ . __ . __ . __
 72
65
 73
4
 40
3.556
 49
2.54
 74
0
 49
-0.508
 74
0
 49
0.0
 74
0
 49
-0.508
 74
0
  0
LTYPE
  5
39
330
2
100
AcDbSymbolTableRecord
100
AcDbLinetypeTableRecord
  2
DASHDOTX2
 70
0
  3
Dash dot (2x) ____  .  ____  .  ____  .  ____
 72
65
 73
4
 40
6.096
 49
5.08
 74
0
 49
-0.508
 74
0
 49
0.0
 74
0
 49
-0.508
 74
0
  0
LTYPE
  5
3A
330
2
100
AcDbSymbolTableRecord
100
AcDbLinetypeTableRecord
  2
DASHDOT2
 70
0
  3
Dash dot (.5x) _ . _ . _ . _ . _ . _ . _ . _
 72
65
 73
4
 40
1.778
 49
1.27
 74
0
 49
-0.254
 74
0
 49
0.0
 74
0
 49
-0.254
 74
0
  0
LTYPE
  5
3B
330
2
100
AcDbSymbolTableRecord
100
AcDbLinetypeTableRecord
  2
DOT
 70
0
  3
Dot .  .  .  .  .  .  .  .  .  .  .  .  .  .  .  .
 72
65
 73
2
 40
0.508
 49
0.0
 74
0
 49
-0.508
 74
0
  0
LTYPE
  5
3C
330
2
100
AcDbSymbolTableRecord
100
AcDbLinetypeTableRecord
  2
DOTX2
 70
0
  3
Dot (2x) .    .    .    .    .    .    .    . 
 72
65
 73
2
 40
1.016
 49
0.0
 74
0
 49
-1.016
 74
0
  0
LTYPE
  5
3D
330
2
100
AcDbSymbolTableRecord
100
AcDbLinetypeTableRecord
  2
DOT2
 70
0
  3
Dot (.5) . . . . . . . . . . . . . . . . . . . 
 72
65
 73
2
 40
0.254
 49
0.0
 74
0
 49
-0.254
 74
0
  0
LTYPE
  5
3E
330
2
100
AcDbSymbolTableRecord
100
AcDbLinetypeTableRecord
  2
DIVIDE
 70
0
  3
Divide __ . . __ . . __ . . __ . . __ . . __
 72
65
 73
6
 40
4.064
 49
2.54
 74
0
 49
-0.508
 74
0
 49
0.0
 74
0
 49
-0.508
 74
0
 49
0.0
 74
0
 49
-0.508
 74
0
  0
LTYPE
  5
3F
330
2
100
AcDbSymbolTableRecord
100
AcDbLinetypeTableRecord
  2
DIVIDEX2
 70
0
  3
Divide (2x) ____  . .  ____  . .  ____  . .  ____
 72
65
 73
6
 40
6.604
 49
5.08
 74
0
 49
-0.508
 74
0
 49
0.0
 74
0
 49
-0.508
 74
0
 49
0.0
 74
0
 49
-0.508
 74
0
  0
LTYPE
  5
40
330
2
100
AcDbSymbolTableRecord
100
AcDbLinetypeTableRecord
  2
DIVIDE2
 70
0
  3
Divide(.5x) _ . _ . _ . _ . _ . _ . _ . _
 72
65
 73
6
 40
2.032
 49
1.27
 74
0
 49
-0.254
 74
0
 49
0.0
 74
0
 49
-0.254
 74
0
 49
0.0
 74
0
 49
-0.254
 74
0
  0
ENDTAB
  0
TABLE
  2
LAYER
  5
1
330
0
100
AcDbSymbolTable
 70
8
  0
LAYER
  5
27
330
1
100
AcDbSymbolTableRecord
100
AcDbLayerTableRecord
  2
0
 70
0
 62
7
  6
Continuous
370
-3
390
13
347
21
  0
LAYER
  5
28
330
1
100
AcDbSymbolTableRecord
100
AcDbLayerTableRecord
  2
Defpoints
 70
0
 62
7
  6
Continuous
290
0
370
-3
390
13
347
21
  0
LAYER
  5
8A
330
1
100
AcDbSymbolTableRecord
100
AcDbLayerTableRecord
  2
CUT_OUT
 70
0
 62
7
  6
Continuous
370
-3
390
13
347
21
  0
LAYER
  5
8B
330
1
100
AcDbSymbolTableRecord
100
AcDbLayerTableRecord
  2
CUT_IN
 70
0
 62
1
  6
Continuous
370
-3
390
13
347
21
  0
LAYER
  5
8C
330
1
100
AcDbSymbolTableRecord
100
AcDbLayerTableRecord
  2
DRILL
 70
0
 62
3
  6
Continuous
370
-3
390
13
347
21
  0
LAYER
  5
8D
330
1
100
AcDbSymbolTableRecord
100
AcDbLayerTableRecord
  2
MARK
 70
0
 62
5
  6
Continuous
370
-3
390
13
347
21
  0
LAYER
  5
8E
330
1
100
AcDbSymbolTableRecord
100
AcDbLayerTableRecord
  2
TEXT
 70
0
 62
8
  6
Continuous
370
-3
390
13
347
21
  0
LAYER
  5
8F
330
1
100
AcDbSymbolTableRecord
100
AcDbLayerTableRecord
  2
SHEET
 70
0
 62
9
  6
Continuous
370
-3
390
13
347
21
  0
ENDTAB
  0
TABLE
  2
STYLE
  5
5
330
0
100
AcDbSymbolTable
 70
26
  0
STYLE
  5
29
330
5
100
AcDbSymbolTableRecord
100
AcDbTextStyleTableRecord
  2
Standard
 70
0
 40
0.0
 41
1.0
 50
0.0
 71
0
 42
2.5
  3
txt
  4

  0
STYLE
  5
41
330
5
100
AcDbSymbolTableRecord
100
AcDbTextStyleTableRecord
  2
OpenSans-Light
 70
0
 40
0.0
 41
1.0
 50
0.0
 71
0
 42
2.5
  3
OpenSans-Light.ttf
  4

  0
STYLE
  5
42
330
5
100
AcDbSymbolTableRecord
100
AcDbTextStyleTableRecord
  2
OpenSans-Light-Italic
 70
0
 40
0.0
 41
1.0
 50
0.0
 71
0
 42
2.5
  3
OpenSans-LightItalic.ttf
  4

  0
STYLE
  5
43
330
5
100
AcDbSymbolTableRecord
100
AcDbTextStyleTableRecord
  2
OpenSans
 70
0
 40
0.0
 41
1.0
 50
0.0
 71
0
 42
2.5
  3
OpenSans-Regular.ttf
  4

  0
STYLE
  5
44
330
5
100
AcDbSymbolTableRecord
100
AcDbTextStyleTableRecord
  2
OpenSans-Italic
 70
0
 40
0.0
 41
1.0
 50
0.0
 71
0
 42
2.5
  3
OpenSans-Italic.ttf
  4

  0
STYLE
  5
45
330
5
100
AcDbSymbolTableRecord
100
AcDbTextStyleTableRecord
  2
OpenSans-SemiBold
 70
0
 40
0.0
 41
1.0
 50
0.0
 71
0
 42
2.5
  3
OpenSans-SemiBold.ttf
  4

  0
STYLE
  5
46
330
5
100
AcDbSymbolTableRecord
100
AcDbTextStyleTableRecord
  2
OpenSans-SemiBoldItalic
 70
0
 40
0.0
 41
1.0
 50
0.0
 71
0
 42
2.5
  3
OpenSans-SemiBoldItalic.ttf
  4

  0
STYLE
  5
47
330
5
100
AcDbSymbolTableRecord
100
AcDbTextStyleTableRecord
  2
OpenSans-Bold
 70
0
 40
0.0
 41
1.0
 50
0.0
 71
0
 42
2.5
  3
OpenSans-Bold.ttf
  4

  0
STYLE
  5
48
330
5
100
AcDbSymbolTableRecord
100
AcDbTextStyleTableRecord
  2
OpenSans-BoldItalic
 70
0
 40
0.0
 41
1.0
 50
0.0
 71
0
 42
2.5
  3
OpenSans-BoldItalic.ttf
  4

  0
STYLE
  5
49
330
5
100
AcDbSymbolTableRecord
100
AcDbTextStyleTableRecord
  2
OpenSans-ExtraBold
 70
0
 40
0.0
 41
1.0
 50
0.0
 71
0
 42
2.5
  3
OpenSans-ExtraBold.ttf
  4

  0
STYLE
  5
4A
330
5
100
AcDbSymbolTableRecord
100
AcDbTextStyleTableRecord
  2
OpenSans-ExtraBoldItalic
 70
0
 40
0.0
 41
1.0
 50
0.0
 71
0
 42
2.5
  3
OpenSans-ExtraBoldItalic.ttf
  4

  0
STYLE
  5
4B
330
5
100
AcDbSymbolTableRecord
100
AcDbTextStyleTableRecord
  2
OpenSansCondensed-Bold
 70
0
 40
0.0
 41
1.0
 50
0.0
 71
0
 42
2.5
  3
OpenSansCondensed-Bold.ttf
  4

  0
STYLE
  5
4C
330
5
100
AcDbSymbolTableRecord
100
AcDbTextStyleTableRecord
  2
OpenSansCondensed-Light
 70
0
 40
0.0
 41
1.0
 50
0.0
 71
0
 42
2.5
  3
OpenSansCondensed-Light.ttf
  4

  0
STYLE
  5
4D
330
5
100
AcDbSymbolTableRecord
100
AcDbTextStyleTableRecord
  2
OpenSansCondensed-Italic
 70
0
 40
0.0
 41
1.0
 50
0.0
 71
0
 42
2.5
  3
OpenSansCondensed-LightItalic.ttf
  4

  0
STYLE
  5
4E
330
5
100
AcDbSymbolTableRecord
100
AcDbTextStyleTableRecord
  2
LiberationSans
 70
0
 40
0.0
 41
1.0
 50
0.0
 71
0
 42
2.5
  3
LiberationSans-Regular.ttf
  4

  0
STYLE
  5
4F
330
5
100
AcDbSymbolTableRecord
100
AcDbTextStyleTableRecord
  2
LiberationSans-Bold
 70
0
 40
0.0
 41
1.0
 50
0.0
 71
0
 42
2.5
  3
LiberationSans-Bold.ttf
  4

  0
STYLE
  5
50
330
5
100
AcDbSymbolTableRecord
100
AcDbTextStyleTableRecord
  2
LiberationSans-BoldItalic
 70
0
 40
0.0
 41
1.0
 50
0.0
 71
0
 42
2.5
  3
LiberationSans-BoldItalic.ttf
  4

  0
STYLE
  5
51
330
5
100
AcDbSymbolTableRecord
100
AcDbTextStyleTableRecord
  2
LiberationSans-Italic
 70
0
 40
0.0
 41
1.0
 50
0.0
 71
0
 42
2.5
  3
LiberationSans-Italic.ttf
  4

  0
STYLE
  5
52
330
5
100
AcDbSymbolTableRecord
100
AcDbTextStyleTableRecord
  2
LiberationSerif
 70
0
 40
0.0
 41
1.0
 50
0.0
 71
0
 42
2.5
  3
LiberationSerif-Regular.ttf
  4

  0
STYLE
  5
53
330
5
100
AcDbSymbolTableRecord
100
AcDbTextStyleTableRecord
  2
LiberationSerif-Bold
 70
0
 40
0.0
 41
1.0
 50
0.0
 71
0
 42
2.5
  3
LiberationSerif-Bold.ttf
  4

  0
STYLE
  5
54
330
5
100
AcDbSymbolTableRecord
100
AcDbTextStyleTableRecord
  2
LiberationSerif-BoldItalic
 70
0
 40
0.0
 41
1.0
 50
0.0
 71
0
 42
2.5
  3
LiberationSerif-BoldItalic.ttf
  4

  0
STYLE
  5
55
330
5
100
AcDbSymbolTableRecord
100
AcDbTextStyleTableRecord
  2
LiberationSerif-Italic
 70
0
 40
0.0
 41
1.0
 50
0.0
 71
0
 42
2.5
  3
LiberationSerif-Italic.ttf
  4

  0
STYLE
  5
56
330
5
100
AcDbSymbolTableRecord
100
AcDbTextStyleTableRecord
  2
LiberationMono
 70
0
 40
0.0
 41
1.0
 50
0.0
 71
0
 42
2.5
  3
LiberationMono-Regular.ttf
  4

  0
STYLE
  5
57
330
5
100
AcDbSymbolTableRecord
100
AcDbTextStyleTableRecord
  2
LiberationMono-Bold
 70
0
 40
0.0
 41
1.0
 50
0.0
 71
0
 42
2.5
  3
LiberationMono-Bold.ttf
  4

  0
STYLE
  5
58
330
5
100
AcDbSymbolTableRecord
100
AcDbTextStyleTableRecord
  2
LiberationMono-BoldItalic
 70
0
 40
0.0
 41
1.0
 50
0.0
 71
0
 42
2.5
  3
LiberationMono-BoldItalic.ttf
  4

  0
STYLE
  5
59
330
5
100
AcDbSymbolTableRecord
100
AcDbTextStyleTableRecord
  2
LiberationMono-Italic
 70
0
 40
0.0
 41
1.0
 50
0.0
 71
0
 42
2.5
  3
LiberationMono-Italic.ttf
  4

  0
ENDTAB
  0
TABLE
  2
VIEW
  5
7
330
0
100
AcDbSymbolTable
 70
0
  0
ENDTAB
  0
TABLE
  2
UCS
  5
6
330
0
100
AcDbSymbolTable
 70
0
  0
ENDTAB
  0
TABLE
  2
APPID
  5
3
330
0
100
AcDbSymbolTable
 70
3
  0
APPID
  5
2A
330
3
100
AcDbSymbolTableRecord
100
AcDbRegAppTableRecord
  2
ACAD
 70
0
  0
APPID
  5
9C
330
3
100
AcDbSymbolTableRecord
100
AcDbRegAppTableRecord
  2
HATCHBACKGROUNDCOLOR
 70
0
  0
APPID
  5
9D
330
3
100
AcDbSymbolTableRecord
100
AcDbRegAppTableRecord
  2
EZDXF
 70
0
  0
ENDTAB
  0
TABLE
  2
DIMSTYLE
  5
4
330
0
100
AcDbSymbolTable
 70
12
100
AcDbDimStyleTable
  0
DIMSTYLE
105
2B
330
4
100
AcDbSymbolTableRecord
100
AcDbDimStyleTableRecord
  2
Standard
 70
0
 40
1.0
 41
2.5
 42
0.625
 43
3.75
 44
1.25
 45
0.0
 46
0.0
 47
0.0
 48
0.0
 49
2.5
140
2.5
141
2.5
142
0.0
143
0.03937007874
144
1.0
145
0.0
146
1.0
147
0.625
148
0.0
 69
0
 70
0
 71
0
 72
0
 73
0
 74
0
 75
0
 76
0
 77
1
 78
8
 79
3
170
0
171
3
172
1
173
0
174
0
175
0
176
0
177
0
178
0
179
2
271
2
272
2
273
2
274
3
275
0
276
0
277
2
278
44
279
0
280
0
281
0
282
0
283
0
284
8
285
0
286
0
288
0
289
3
290
0
371
-2
372
-2
  0
DIMSTYLE
105
73
330
4
100
AcDbSymbolTableRecord
100
AcDbDimStyleTableRecord
  2
EZDXF
 70
0
 40
1.0
 41
0.175
 42
0.125
 43
3.75
 44
0.375
 45
0.0
 46
0.0
 47
0.0
 48
0.0
 49
2.5
140
0.25
141
2.5
142
0.0
143
0.03937007874
144
100.0
145
0.0
146
0.5
147
0.1
148
0.0
 69
0
 70
0
 71
0
 72
0
 73
0
 74
0
 75
0
 76
0
 77
1
 78
12
 79
3
170
0
171
3
172
1
173
0
174
0
175
0
176
0
177
0
178
0
179
2
271
2
272
2
273
2
274
3
275
0
276
0
277
2
278
46
279
2
280
0
281
0
282
0
283
0
284
8
285
0
286
0
288
1
289
3
290
0
340
4C
342
74
371
-2
372
-2
  0
DIMSTYLE
105
7C
330
4
100
AcDbSymbolTableRecord
100
AcDbDimStyleTableRecord
  2
EZ_M_100_H25_CM
 70
0
 40
1.0
 41
0.25
 42
0.125
 43
3.75
 44
0.375
 45
0.0
 46
0.0
 47
0.0
 48
0.0
 49
2.5
140
0.25
141
2.5
142
0.125
143
0.03937007874
144
100.0
145
0.0
146
0.5
147
0.1
148
0.0
 69
0
 70
0
 71
0
 72
0
 73
0
 74
0
 75
0
 76
0
 77
1
 78
12
 79
3
170
0
171
3
172
1
173
0
174
0
175
0
176
0
177
0
178
0
179
2
271
2
272
2
273
2
274
3
275
0
276
0
277
2
278
46
279
2
280
0
281
0
282
0
283
0
284
8
285
0
286
0
288
1
289
3
290
0
340
4C
371
-2
372
-2
  0
DIMSTYLE
105
7D
330
4
100
AcDbSymbolTableRecord
100
AcDbDimStyleTableRecord
  2
EZ_M_50_H25_CM
 70
0
 40
1.0
 41
0.125
 42
0.0625
 43
3.75
 44
0.1875
 45
0.0
 46
0.0
 47
0.0
 48
0.0
 49
2.5
140
0.125
141
2.5
142
0.0625
143
0.03937007874
144
100.0
145
0.0
146
0.5
147
0.05
148
0.0
 69
0
 70
0
 71
0
 72
0
 73
0
 74
0
 75
0
 76
0
 77
1
 78
12
 79
3
170
0
171
3
172
1
173
0
174
0
175
0
176
0
177
0
178
0
179
2
271
2
272
2
273
2
274
3
275
0
276
0
277
2
278
46
279
2
280
0
281
0
282
0
283
0
284
8
285
0
286
0
288
1
289
3
290
0
340
4C
371
-2
372
-2
  0
DIMSTYLE
105
7E
330
4
100
AcDbSymbolTableRecord
100
AcDbDimStyleTableRecord
  2
EZ_M_25_H25_CM
 70
0
 40
1.0
 41
0.0625
 42
0.03125
 43
3.75
 44
0.09375
 45
0.0
 46
0.0
 47
0.0
 48
0.0
 49
2.5
140
0.0625
141
2.5
142
0.03125
143
0.03937007874
144
100.0
145
0.0
146
0.5
147
0.025
148
0.0
 69
0
 70
0
 71
0
 72
0
 73
0
 74
0
 75
0
 76
0
 77
1
 78
12
 79
3
170
0
171
3
172
1
173
0
174
0
175
0
176
0
177
0
178
0
179
2
271
2
272
2
273
2
274
3
275
0
276
0
277
2
278
46
279
2
280
0
281
0
282
0
283
0
284
8
285
0
286
0
288
1
289
3
290
0
340
4C
371
-2
372
-2
  0
DIMSTYLE
105
7F
330
4
100
AcDbSymbolTableRecord
100
AcDbDimStyleTableRecord
  2
EZ_M_20_H25_CM
 70
0
 40
1.0
 41
0.05
 42
0.025
 43
3.75
 44
0.07500000000000001
 45
0.0
 46
0.0
 47
0.0
 48
0.0
 49
2.5
140
0.05
141
2.5
142
0.025
143
0.03937007874
144
100.0
145
0.0
146
0.5
147
0.020000000000000004
148
0.0
 69
0
 70
0
 71
0
 72
0
 73
0
 74
0
 75
0
 76
0
 77
1
 78
12
 79
3
170
0
171
3
172
1
173
0
174
0
175
0
176
0
177
0
178
0
179
2
271
2
272
2
273
2
274
3
275
0
276
0
277
2
278
46
279
2
280
0
281
0
282
0
283
0
284
8
285
0
286
0
288
1
289
3
290
0
340
4C
371
-2
372
-2
  0
DIMSTYLE
105
80
330
4
100
AcDbSymbolTableRecord
100
AcDbDimStyleTableRecord
  2
EZ_M_10_H25_CM
 70
0
 40
1.0
 41
0.025
 42
0.0125
 43
3.75
 44
0.037500000000000006
 45
0.0
 46
0.0
 47
0.0
 48
0.0
 49
2.5
140
0.025
141
2.5
142
0.0125
143
0.03937007874
144
100.0
145
0.0
146
0.5
147
0.010000000000000002
148
0.0
 69
0
 70
0
 71
0
 72
0
 73
0
 74
0
 75
0
 76
0
 77
1
 78
12
 79
3
170
0
171
3
172
1
173
0
174
0
175
0
176
0
177
0
178
0
179
2
271
2
272
2
273
2
274
3
275
0
276
0
277
2
278
46
279
2
280
0
281
0
282
0
283
0
284
8
285
0
286
0
288
1
289
3
290
0
340
4C
371
-2
372
-2
  0
DIMSTYLE
105
81
330
4
100
AcDbSymbolTableRecord
100
AcDbDimStyleTableRecord
  2
EZ_M_5_H25_CM
 70
0
 40
1.0
 41
0.0125
 42
0.00625
 43
3.75
 44
0.018750000000000003
 45
0.0
 46
0.0
 47
0.0
 48
0.0
 49
2.5
140
0.0125
141
2.5
142
0.00625
143
0.03937007874
144
100.0
145
0.0
146
0.5
147
0.005000000000000001
148
0.0
 69
0
 70
0
 71
0
 72
0
 73
0
 74
0
 75
0
 76
0
 77
1
 78
12
 79
3
170
0
171
3
172
1
173
0
174
0
175
0
176
0
177
0
178
0
179
2
271
2
272
2
273
2
274
3
275
0
276
0
277
2
278
46
279
2
280
0
281
0
282
0
283
0
284
8
285
0
286
0
288
1
289
3
290
0
340
4C
371
-2
372
-2
  0
DIMSTYLE
105
82
330
4
100
AcDbSymbolTableRecord
100
AcDbDimStyleTableRecord
  2
EZ_M_1_H25_CM
 70
0
 40
1.0
 41
0.0025
 42
0.00125
 43
3.75
 44
0.00375
 45
0.0
 46
0.0
 47
0.0
 48
0.0
 49
2.5
140
0.0025
141
2.5
142
0.00125
143
0.03937007874
144
100.0
145
0.0
146
0.5
147
0.001
148
0.0
 69
0
 70
0
 71
0
 72
0
 73
0
 74
0
 75
0
 76
0
 77
1
 78
12
 79
3
170
0
171
3
172
1
173
0
174
0
175
0
176
0
177
0
178
0
179
2
271
2
272
2
273
2
274
3
275
0
276
0
277
2
278
46
279
2
280
0
281
0
282
0
283
0
284
8
285
0
286
0
288
1
289
3
290
0
340
4C
371
-2
372
-2
  0
DIMSTYLE
105
83
330
4
100
AcDbSymbolTableRecord
100
AcDbDimStyleTableRecord
  2
EZ_RADIUS
 70
0
 40
1.0
 41
0.25
 42
0.125
 43
3.75
 44
0.375
 45
0.0
 46
0.0
 47
0.0
 48
0.0
 49
2.5
140
0.25
141
0.0
142
0.0
143
0.03937007874
144
100.0
145
0.0
146
0.5
147
0.1
148
0.0
 69
0
 70
0
 71
0
 72
0
 73
0
 74
0
 75
0
 76
0
 77
1
 78
12
 79
3
170
0
171
3
172
0
173
0
174
0
175
0
176
0
177
0
178
0
179
2
271
2
272
2
273
2
274
3
275
0
276
0
277
2
278
46
279
1
280
0
281
0
282
0
283
0
284
8
285
0
286
0
288
1
289
3
290
0
340
4C
342
84
371
-2
372
-2
  0
DIMSTYLE
105
88
330
4
100
AcDbSymbolTableRecord
100
AcDbDimStyleTableRecord
  2
EZ_RADIUS_INSIDE
 70
0
 40
1.0
 41
0.25
 42
0.125
 43
3.75
 44
0.375
 45
0.0
 46
0.0
 47
0.0
 48
0.0
 49
2.5
140
0.25
141
0.0
142
0.0
143
0.03937007874
144
100.0
145
0.0
146
0.5
147
0.1
148
0.0
 69
0
 70
0
 71
0
 72
0
 73
0
 74
0
 75
0
 76
0
 77
0
 78
12
 79
3
170
0
171
3
172
0
173
0
174
1
175
0
176
0
177
0
178
0
179
2
271
2
272
2
273
2
274
3
275
0
276
0
277
2
278
46
279
0
280
0
281
0
282
0
283
0
284
8
285
0
286
0
288
1
289
0
290
0
340
4C
342
84
371
-2
372
-2
  0
DIMSTYLE
105
89
330
4
100
AcDbSymbolTableRecord
100
AcDbDimStyleTableRecord
  2
EZ_CURVED
 70
0
 40
1.0
 41
0.25
 42
0.125
 43
3.75
 44
0.375
 45
0.0
 46
0.0
 47
0.0
 48
0.0
 49
2.5
140
0.25
141
2.5
142
0.0
143
0.03937007874
144
100.0
145
0.0
146
0.5
147
0.1
148
0.0
 69
0
 70
0
 71
0
 72
0
 73
0
 74
0
 75
0
 76
0
 77
1
 78
12
 79
2
 90
2
170
0
171
3
172
1
173
0
174
0
175
0
176
0
177
0
178
0
179
2
271
2
272
2
273
2
274
3
275
0
276
0
277
2
278
46
279
2
280
0
281
0
282
0
283
0
284
8
285
0
286
0
288
1
289
3
290
0
340
4C
371
-2
372
-2
  0
ENDTAB
  0
TABLE
  2
BLOCK_RECORD
  5
9
330
0
100
AcDbSymbolTable
 70
5
  0
BLOCK_RECORD
  5
17
330
9
100
AcDbSymbolTableRecord
100
AcDbBlockTableRecord
  2
*Model_Space
340
1A
 70
0
280
1
281
0
  0
BLOCK_RECORD
  5
1B
330
9
100
AcDbSymbolTableRecord
100
AcDbBlockTableRecord
  2
*Paper_Space
340
1E
 70
0
280
1
281
0
  0
BLOCK_RECORD
  5
74
330
9
100
AcDbSymbolTableRecord
100
AcDbBlockTableRecord
  2
_ARCHTICK
340
0
 70
0
280
1
281
0
  0
BLOCK_RECORD
  5
78
330
9
100
AcDbSymbolTableRecord
100
AcDbBlockTableRecord
  2
_CLOSEDFILLED
340
0
 70
0
280
1
281
0
  0
BLOCK_RECORD
  5
84
330
9
100
AcDbSymbolTableRecord
100
AcDbBlockTableRecord
  2
_CLOSEDBLANK
340
0
 70
0
280
1
281
0
  0
ENDTAB
  0
ENDSEC
  0
SECTION
  2
BLOCKS
  0
BLOCK
  5
18
330
17
100
AcDbEntity
  8
0
100
AcDbBlockBegin
  2
*Model_Space
 70
0
 10
0.0
 20
0.0
 30
0.0
  3
*Model_Space
  1

  0
ENDBLK
  5
19
330
17
100
AcDbEntity
  8
0
100
AcDbBlockEnd
  0
BLOCK
  5
1C
330
1B
100
AcDbEntity
  8
0
100
AcDbBlockBegin
  2
*Paper_Space
 70
0
 10
0.0
 20
0.0
 30
0.0
  3
*Paper_Space
  1

  0
ENDBLK
  5
1D
330
1B
100
AcDbEntity
  8
0
100
AcDbBlockEnd
  0
BLOCK
  5
75
330
74
100
AcDbEntity
  8
0
100
AcDbBlockBegin
  2
_ARCHTICK
 70
0
 10
0.0
 20
0.0
 30
0.0
  3
_ARCHTICK
  1

  0
LWPOLYLINE
  5
77
330
74
100
AcDbEntity
  8
0
  6
BYBLOCK
 62
0
100
AcDbPolyline
 90
2
 70
0
 43
0.15
 10
-0.5
 20
-0.5
 10
0.5
 20
0.5
  0
ENDBLK
  5
76
330
74
100
AcDbEntity
  8
0
100
AcDbBlockEnd
  0
BLOCK
  5
79
330
78
100
AcDbEntity
  8
0
100
AcDbBlockBegin
  2
_CLOSEDFILLED
 70
0
 10
0.0
 20
0.0
 30
0.0
  3
_CLOSEDFILLED
  1

  0
SOLID
  5
7B
330
78
100
AcDbEntity
  8
0
  6
BYBLOCK
 62
0
100
AcDbTrace
 10
-1.0
 20
0.16439898372402537
 30
0.0
 11
0.0
 21
0.0
 31
0.0
 12
-1.0
 22
-0.16439898372402537
 32
0.0
 13
-1.0
 23
-0.16439898372402537
 33
0.0
  0
ENDBLK
  5
7A
330
78
100
AcDbEntity
  8
0
100
AcDbBlockEnd
  0
BLOCK
  5
85
330
84
100
AcDbEntity
  8
0
100
AcDbBlockBegin
  2
_CLOSEDBLANK
 70
0
 10
0.0
 20
0.0
 30
0.0
  3
_CLOSEDBLANK
  1

  0
LWPOLYLINE
  5
87
330
84
100
AcDbEntity
  8
0
  6
BYBLOCK
 62
0
100
AcDbPolyline
 90
3
 70
1
 10
-1.0
 20
0.16439898372402537
 10
0.0
 20
0.0
 10
-1.0
 20
-0.16439898372402537
  0
ENDBLK
  5
86
330
84
100
AcDbEntity
  8
0
100
AcDbBlockEnd
  0
ENDSEC
  0
SECTION
  2
ENTITIES
  0
LWPOLYLINE
  5
90
330
17
100
AcDbEntity
  8
CUT_OUT
100
AcDbPolyline
 90
342
 70
1
 10
1.0135320862628987
 20
305.68039375424013
 10
1.852396760460465
 20
334.1847527061483
 10
1.9512188439372267
 20
359.53421855551517
 10
2.06903483376567
 20
364.64563745942166
 10
3.372604723832808
 20
394.850999051341
 10
3.4233424082739816
 20
395.91997882339103
 10
4.229465550358611
 20
425.8603396450138
 10
5.545234090464817
 20
456.40639593768583
 10
5.864885890328537
 20
462.28895474624824
 10
6.993032565421515
 20
481.8220008408806
 10
8.084977409570627
 20
494.4042562712075
 10
8.790605736703867
 20
499.4919360617473
 10
9.261509752759423
 20
502.51830869559467
 10
10.17897086033463
 20
507.3721991269705
 10
11.619846016371014
 20
513.1584164715983
 10
14.872365289875859
 20
522.4592176334562
 10
14.978231503116888
 20
522.6973788610809
 10
19.14308865894992
 20
531.3801747719194
 10
21.678420080032026
 20
536.1218755125094
 10
26.982339981120447
 20
545.3979189690008
 10
30.329119187353967
 20
550.3190217444653
 10
30.66351404579808
 20
550.7486073828409
 10
33.20356663019993
 20
553.9149929830023
 10
37.561775491572064
 20
558.5638409048788
 10
41.12716036916538
 20
561.6894500026917
 10
63.92394764762855
 20
513.2821621582718
 10
63.75734490166775
 20
512.5169310481913
 10
63.79447539180731
 20
511.73465459226367
 10
64.03280873650527
 20
510.98864363818734
 10
64.45610291218497
 20
510.3297375996413
 10
65.03551112030047
 20
509.80283983425875
 10
65.73154764898607
 20
509.4438575540107
 10
66.49677875906661
 20
509.2772548080499
 10
67.27905521499429
 20
509.3143852981895
 10
68.02506616907061
 20
509.55271864288744
 10
68.68397220761665
 20
509.97601281856714
 10
69.2108699729992
 20
510.55542102668267
 10
69.56985225324723
 20
511.25145755536823
 10
75.73510823578121
 20
514.1549052676801
 10
76.50033934586173
 20
513.9883025217192
 10
77.28261580178943
 20
514.0254330118588
 10
78.02862675586573
 20
514.2637663565567
 10
78.68753279441177
 20
514.6870605322365
 10
79.21443055979435
 20
515.2664687403519
 10
79.57341284004235
 20
515.9625052690376
 10
79.74001558600315
 20
516.7277363791181
 10
79.70288509586359
 20
517.5100128350458
 10
79.46455175116563
 20
518.2560237891221
 10
79.04125757548593
 20
518.9149298276682
 10
78.46184936737043
 20
519.4418275930507
 10
77.76581283868484
 20
519.8008098732987
 10
54.19152266043892
 20
569.8590674885866
 10
58.17688296975476
 20
571.5579313120475
 10
63.25844536459658
 20
573.1532366642194
 10
65.02468175476429
 20
573.5863634810953
 10
69.57544015287175
 20
574.5545053740207
 10
69.67627445035782
 20
574.5713429882605
 10
74.77270285976184
 20
575.2163839956834
 10
75.90113914600232
 20
575.3317638007095
 10
80.27912304812972
 20
575.573780919874
 10
99.0728566589107
 20
576.0975789501401
 10
103.38112862285209
 20
576.1936910004846
 10
127.33064473074239
 20
577.4046952527726
 10
129.68067200788326
 20
577.5713187625172
 10
141.35351699073215
 20
578.3732309558254
 10
142.5399325088907
 20
578.483076314542
 10
143.26314436162642
 20
578.5343540585767
 10
160.2331545381352
 20
580.1121343926427
 10
166.22626570258905
 20
525.2782503427593
 10
165.81983781407328
 20
524.6088091592089
 10
165.6005227479106
 20
523.8569873528273
 10
165.58326646342468
 20
523.0740203372752
 10
165.7692449478859
 20
522.3132660207484
 10
166.1457840749222
 20
521.626568552712
 10
166.6872233252864
 20
521.0607252307917
 10
167.35666450883681
 20
520.6542973422759
 10
168.10848631521839
 20
520.4349822761133
 10
168.89145333077045
 20
520.4177259916273
 10
169.65220764729733
 20
520.6037044760885
 10
170.33890511533366
 20
520.9802436031248
 10
170.904748437254
 20
521.521682853489
 10
177.67912530645268
 20
522.2620935384239
 10
178.3485664900031
 20
521.8556656499081
 10
179.10038829638466
 20
521.6363505837455
 10
179.88335531193673
 20
521.6190942992596
 10
180.64410962846358
 20
521.8050727837208
 10
181.33080709649994
 20
522.181611910757
 10
181.89665041842025
 20
522.7230511611212
 10
182.30307830693602
 20
523.3924923446717
 10
182.5223933730987
 20
524.1443141510533
 10
182.53964965758462
 20
524.9272811666053
 10
182.3536711731234
 20
525.6880354831322
 10
181.9771320460871
 20
526.3747329511685
 10
181.4356927957229
 20
526.9405762730889
 10
175.52295325792682
 20
581.0391012855509
 10
178.0854387592176
 20
581.1553426022281
 10
189.05670013045204
 20
580.9620916507115
 10
205.0207437018445
 20
580.5795028011798
 10
226.41911936345696
 20
580.3039792583965
 10
235.07266053224436
 20
580.1515532967618
 10
245.05591564381575
 20
580.3601650639625
 10
255.1586053988013
 20
580.8018255402461
 10
262.9265414723263
 20
581.0359003828689
 10
290.11333127895335
 20
580.8674986910958
 10
289.98497015622013
 20
526.0594634964159
 10
289.5067604596917
 20
525.4392614221346
 10
289.2053654720691
 20
524.7164224440538
 10
289.1013247636801
 20
523.9402068439821
 10
289.201728536866
 20
523.1635124323074
 10
289.49973444040927
 20
522.439269649637
 10
289.97503386446147
 20
521.8168344447422
 10
290.59523593874286
 20
521.3386247482138
 10
291.3180749168236
 20
521.0372297605911
 10
292.0942905168953
 20
520.9331890522021
 10
292.87098492857007
 20
521.033592825388
 10
293.59522771124045
 20
521.3315987289313
 10
294.2176629161352
 20
521.8068981529835
 10
301.0323628525253
 20
521.7909380381606
 10
301.6525649268067
 20
521.3127283416322
 10
302.3754039048874
 20
521.0113333540096
 10
303.1516195049591
 20
520.9072926456206
 10
303.92831391663384
 20
521.0076964188065
 10
304.6525566993042
 20
521.3057023223498
 10
305.27499190419906
 20
521.7810017464019
 10
305.7532016007275
 20
522.4012038206833
 10
306.0545965883501
 20
523.1240427987641
 10
306.1586372967391
 20
523.9002583988357
 10
306.05823352355316
 20
524.6769528105106
 10
305.76022762000986
 20
525.4011955931809
 10
305.2849281959577
 20
526.0236307980757
 10
305.41336919766627
 20
580.865772968458
 10
332.8787598789091
 20
581.0359003828689
 10
340.646695952434
 20
580.8018255402461
 10
350.7493857074196
 20
580.3601650639625
 10
360.732640818991
 20
580.1515532967618
 10
369.3861819877784
 20
580.3039792583965
 10
390.7845576493909
 20
580.5795028011798
 10
406.7486012207833
 20
580.9620916507115
 10
417.71986259201776
 20
581.1553426022281
 10
420.28234809330854
 20
581.0391012855509
 10
414.36960855551246
 20
526.9405762730889
 10
413.82816930514826
 20
526.3747329511685
 10
413.45163017811194
 20
525.6880354831322
 10
413.26565169365074
 20
524.9272811666053
 10
413.2829079781367
 20
524.1443141510533
 10
413.50222304429934
 20
523.3924923446717
 10
413.9086509328151
 20
522.7230511611212
 10
414.4744942547354
 20
522.181611910757
 10
415.1611917227717
 20
521.8050727837208
 10
415.92194603929863
 20
521.6190942992596
 10
416.7049130548507
 20
521.6363505837455
 10
417.45673486123223
 20
521.8556656499081
 10
418.1261760447827
 20
522.2620935384239
 10
424.90055291398136
 20
521.521682853489
 10
425.4663962359017
 20
520.9802436031248
 10
426.153093703938
 20
520.6037044760885
 10
426.9138480204649
 20
520.4177259916273
 10
427.696815036017
 20
520.4349822761133
 10
428.4486368423985
 20
520.6542973422759
 10
429.11807802594893
 20
521.0607252307917
 10
429.6595172763131
 20
521.626568552712
 10
430.03605640334945
 20
522.3132660207484
 10
430.22203488781065
 20
523.0740203372752
 10
430.20477860332477
 20
523.8569873528273
 10
429.9854635371621
 20
524.6088091592089
 10
429.5790356486463
 20
525.2782503427593
 10
435.5721468131002
 20
580.1121343926427
 10
452.54215698960894
 20
578.5343540585767
 10
453.2653688423446
 20
578.483076314542
 10
454.4517843605032
 20
578.3732309558254
 10
466.1246293433521
 20
577.5713187625172
 10
468.47465662049296
 20
577.4046952527726
 10
492.42417272838327
 20
576.1936910004846
 10
496.73244469232463
 20
576.0975789501401
 10
515.5261783031057
 20
575.573780919874
 10
519.904162205233
 20
575.3317638007095
 10
521.0325984914735
 20
575.2163839956834
 10
526.1290269008775
 20
574.5713429882605
 10
526.2298611983636
 20
574.5545053740207
 10
530.7806195964711
 20
573.5863634810953
 10
532.5468559866388
 20
573.1532366642194
 10
537.6284183814806
 20
571.5579313120475
 10
541.6137786907964
 20
569.8590674885866
 10
518.0394885125505
 20
519.8008098732987
 10
517.343451983865
 20
519.4418275930507
 10
516.7640437757494
 20
518.9149298276682
 10
516.3407496000698
 20
518.2560237891221
 10
516.1024162553717
 20
517.5100128350458
 10
516.0652857652321
 20
516.7277363791181
 10
516.231888511193
 20
515.9625052690376
 10
516.5908707914409
 20
515.2664687403519
 10
517.1177685568235
 20
514.6870605322365
 10
517.7766745953696
 20
514.2637663565567
 10
518.5226855494459
 20
514.0254330118588
 10
519.3049620053736
 20
513.9883025217193
 10
520.0701931154541
 20
514.1549052676801
 10
526.2354490979881
 20
511.25145755536823
 10
526.5944313782361
 20
510.55542102668267
 10
527.1213291436187
 20
509.97601281856714
 10
527.7802351821647
 20
509.5527186428875
 10
528.5262461362411
 20
509.3143852981895
 10
529.3085225921687
 20
509.2772548080499
 10
530.0737537022493
 20
509.4438575540107
 10
530.7697902309349
 20
509.80283983425875
 10
531.3491984390504
 20
510.3297375996413
 10
531.77249261473
 20
510.98864363818734
 10
532.0108259594281
 20
511.73465459226367
 10
532.0479564495676
 20
512.5169310481913
 10
531.8813537036068
 20
513.2821621582718
 10
554.67814098207
 20
561.6894500026917
 10
558.2435258596634
 20
558.5638409048788
 10
562.6017347210354
 20
553.9149929830023
 10
565.1417873054372
 20
550.7486073828409
 10
565.4761821638814
 20
550.3190217444653
 10
568.8229613701149
 20
545.3979189690008
 10
574.1268812712033
 20
536.1218755125094
 10
576.6622126922855
 20
531.3801747719194
 10
580.8270698481185
 20
522.6973788610809
 10
580.9329360613594
 20
522.4592176334562
 10
584.1854553348644
 20
513.1584164715983
 10
585.6263304909007
 20
507.3721991269705
 10
586.543791598476
 20
502.51830869559467
 10
587.0146956145315
 20
499.4919360617473
 10
587.7203239416647
 20
494.4042562712075
 10
588.8122687858138
 20
481.8220008408806
 10
589.9404154609068
 20
462.28895474624824
 10
590.2600672607705
 20
456.40639593768583
 10
591.5758358008768
 20
425.8603396450138
 10
592.3819589429613
 20
395.91997882339103
 10
592.4326966274025
 20
394.850999051341
 10
593.7362665174696
 20
364.64563745942166
 10
593.8540825072981
 20
359.53421855551517
 10
593.9529045907749
 20
334.1847527061483
 10
594.7917692649725
 20
305.68039375424013
 10
594.9528809052301
 20
300.1481356489094
 10
595.8053013512354
 20
248.2412579857853
 10
595.7973626323492
 20
247.10369124608573
 10
595.5077338760377
 20
221.77770427505385
 10
594.7765581119087
 20
198.76526884712052
 10
594.4491937074059
 20
188.86750086812947
 10
594.0164314074661
 20
178.1182229165843
 10
593.1867228310806
 20
158.52953281150155
 10
592.7997444149938
 20
152.73183790772777
 10
592.6134586339804
 20
150.21662099770865
 10
592.1575890892304
 20
146.36969978611938
 10
590.4564284527659
 20
135.20048602230648
 10
590.3860936048504
 20
134.78474110560265
 10
588.3041098173053
 20
125.04478128958107
 10
582.4403297537576
 20
97.72135629154033
 10
582.3192233515942
 20
97.04621855907482
 10
582.0442824148965
 20
95.75998679721641
 10
577.6990179593113
 20
71.51178128098164
 10
576.6001722058518
 20
66.86900577411691
 10
575.229382624055
 20
61.55655900409866
 10
573.9911040557156
 20
58.0242118638314
 10
572.5337342646876
 20
54.21306448981241
 10
569.5449878758664
 20
48.10849433524501
 10
569.4831560288501
 20
47.98708721305701
 10
569.4466787977078
 20
47.92994493094875
 10
565.5833142968218
 20
42.089457427229746
 10
564.229468473897
 20
40.36937426308654
 10
561.2484841765884
 20
36.93741962402305
 10
558.3929845802465
 20
34.040579338149286
 10
555.0132281708185
 20
30.992650266134774
 10
553.3629713417286
 20
29.621205993044356
 10
549.8281333031368
 20
27.008299809395737
 10
546.9478600312079
 20
24.962739449204378
 10
539.2499221760349
 20
20.139966704845648
 10
530.9971159197199
 20
15.931767372076536
 10
528.5853130712633
 20
14.896876404939576
 10
525.7475487138881
 20
13.754967747983358
 10
522.9140052711975
 20
12.759883373736386
 10
520.453336272059
 20
11.952216691462752
 10
510.630032192244
 20
9.370025819224452
 10
508.3940715875061
 20
8.878769983435404
 10
499.3424071501824
 20
7.272631769136694
 10
491.8268145730286
 20
6.07919333489059
 10
480.27146130228476
 20
4.856058497055017
 10
474.5640310725583
 20
4.314961550074088
 10
472.5665161056604
 20
4.198359454174749
 10
453.924556663245
 20
3.4416057292011715
 10
399.90567993986963
 20
2.9165977020989544
 10
398.721865799861
 20
2.87607305225157
 10
397.89329624556956
 20
2.867588383796715
 10
352.04866169797026
 20
1.2783431472265079
 10
329.3115207559402
 20
0.4999991115664102
 10
320.2538129501043
 20
0.336775957700695
 10
297.9026506756177
 20
0.0
 10
275.55148840113105
 20
0.336775957700695
 10
266.49378059529516
 20
0.4999991115664102
 10
243.75663965326507
 20
1.2783431472265079
 10
197.9120051056658
 20
2.867588383796715
 10
197.08343555137432
 20
2.87607305225157
 10
195.89962141136573
 20
2.9165977020989544
 10
141.88074468799033
 20
3.4416057292011715
 10
123.23878524557497
 20
4.198359454174749
 10
121.24127027867706
 20
4.314961550074088
 10
115.5338400489506
 20
4.856058497055017
 10
103.97848677820676
 20
6.07919333489059
 10
96.46289420105296
 20
7.272631769136694
 10
87.41122976372927
 20
8.878769983435404
 10
85.17526915899134
 20
9.370025819224452
 10
75.35196507917638
 20
11.952216691462752
 10
72.89129608003785
 20
12.759883373736386
 10
70.05775263734716
 20
13.754967747983358
 10
67.21998827997206
 20
14.896876404939576
 10
64.80818543151543
 20
15.931767372076536
 10
56.555379175200386
 20
20.139966704845648
 10
48.857441320027476
 20
24.962739449204378
 10
45.97716804809855
 20
27.008299809395737
 10
42.44233000950675
 20
29.621205993044356
 10
40.79207318041688
 20
30.992650266134774
 10
37.412316770988866
 20
34.040579338149286
 10
34.556817174646994
 20
36.93741962402305
 10
31.575832877338428
 20
40.36937426308654
 10
30.22198705441366
 20
42.089457427229746
 10
26.358622553527482
 20
47.92994493094875
 10
26.322145322385268
 20
47.98708721305701
 10
26.26031347536906
 20
48.10849433524501
 10
23.271567086547748
 20
54.21306448981241
 10
21.81419729551982
 20
58.0242118638314
 10
20.575918727180294
 20
61.55655900409866
 10
19.205129145383523
 20
66.86900577411691
 10
18.10628339192408
 20
71.51178128098164
 10
13.761018936338871
 20
95.75998679721641
 10
13.486077999641168
 20
97.04621855907482
 10
13.364971597477677
 20
97.72135629154033
 10
7.501191533930012
 20
125.04478128958107
 10
5.419207746384927
 20
134.78474110560265
 10
5.348872898469494
 20
135.20048602230648
 10
3.647712262004859
 20
146.36969978611938
 10
3.1918427172550423
 20
150.21662099770865
 10
3.0055569362415326
 20
152.73183790772777
 10
2.618578520154756
 20
158.52953281150155
 10
1.788869943769214
 20
178.1182229165843
 10
1.3561076438294322
 20
188.86750086812947
 10
1.0287432393266727
 20
198.76526884712052
 10
0.29756747519758164
 20
221.77770427505385
 10
0.00793871888618014
 20
247.10369124608573
 10
0.0
 20
248.2412579857853
 10
0.852420446005226
 20
300.1481356489094
 10
1.0135320862628987
 20
305.68039375424013
  0
LWPOLYLINE
  5
91
330
17
100
AcDbEntity
  8
CUT_IN
100
AcDbPolyline
 90
53
 70
1
 10
168.43133033205805
 20
35.40936930004236
 10
168.32910781092525
 20
36.185826435349895
 10
168.02940654341134
 20
36.90936930004236
 10
167.55265067561768
 20
37.53068964360199
 10
167.55265067561768
 20
47.34540826936342
 10
168.02940654341134
 20
47.96672861292305
 10
168.32910781092525
 20
48.69027147761551
 10
168.43133033205805
 20
49.46672861292305
 10
168.32910781092525
 20
50.243185748230616
 10
168.02940654341134
 20
50.96672861292308
 10
167.55265067561768
 20
51.58804895648271
 10
166.93133033205802
 20
52.06480482427639
 10
166.2077874673656
 20
52.364506091790275
 10
165.43133033205802
 20
52.46672861292305
 10
164.6548731967505
 20
52.364506091790275
 10
163.93133033205802
 20
52.064804824276365
 10
163.3100099884984
 20
51.58804895648271
 10
141.49529136273696
 20
51.58804895648271
 10
140.8739710191773
 20
52.06480482427639
 10
140.15042815448487
 20
52.364506091790275
 10
139.37397101917733
 20
52.46672861292305
 10
138.59751388386977
 20
52.364506091790275
 10
137.8739710191773
 20
52.064804824276365
 10
137.25265067561767
 20
51.58804895648271
 10
136.77589480782402
 20
50.96672861292305
 10
136.4761935403101
 20
50.243185748230616
 10
136.3739710191773
 20
49.46672861292305
 10
136.4761935403101
 20
48.69027147761551
 10
136.77589480782402
 20
47.96672861292305
 10
137.25265067561767
 20
47.34540826936342
 10
137.25265067561767
 20
37.53068964360199
 10
136.77589480782402
 20
36.90936930004236
 10
136.4761935403101
 20
36.185826435349895
 10
136.3739710191773
 20
35.40936930004236
 10
136.4761935403101
 20
34.63291216473479
 10
136.77589480782402
 20
33.90936930004233
 10
137.25265067561767
 20
33.2880489564827
 10
137.87397101917733
 20
32.81129308868904
 10
138.59751388386977
 20
32.51159182117513
 10
139.37397101917733
 20
32.40936930004236
 10
140.15042815448487
 20
32.51159182117513
 10
140.87397101917733
 20
32.81129308868904
 10
141.49529136273696
 20
33.2880489564827
 10
163.3100099884984
 20
33.2880489564827
 10
163.93133033205802
 20
32.81129308868904
 10
164.6548731967505
 20
32.51159182117513
 10
165.43133033205802
 20
32.40936930004236
 10
166.2077874673656
 20
32.51159182117513
 10
166.93133033205802
 20
32.81129308868904
 10
167.55265067561768
 20
33.2880489564827
 10
168.02940654341134
 20
33.90936930004236
 10
168.32910781092525
 20
34.63291216473479
 10
168.43133033205805
 20
35.40936930004236
  0
LWPOLYLINE
  5
92
330
17
100
AcDbEntity
  8
CUT_IN
100
AcDbPolyline
 90
53
 70
1
 10
459.43133033205805
 20
35.40936930004236
 10
459.3291078109253
 20
36.185826435349895
 10
459.02940654341137
 20
36.90936930004236
 10
458.55265067561766
 20
37.53068964360199
 10
458.55265067561766
 20
47.34540826936342
 10
459.02940654341137
 20
47.96672861292305
 10
459.3291078109253
 20
48.69027147761551
 10
459.43133033205805
 20
49.46672861292305
 10
459.3291078109253
 20
50.243185748230616
 10
459.02940654341137
 20
50.96672861292308
 10
458.55265067561766
 20
51.58804895648271
 10
457.931330332058
 20
52.06480482427639
 10
457.2077874673656
 20
52.364506091790275
 10
456.431330332058
 20
52.46672861292305
 10
455.6548731967505
 20
52.364506091790275
 10
454.931330332058
 20
52.064804824276365
 10
454.3100099884984
 20
51.58804895648271
 10
432.49529136273696
 20
51.58804895648271
 10
431.8739710191773
 20
52.06480482427639
 10
431.15042815448487
 20
52.364506091790275
 10
430.37397101917736
 20
52.46672861292305
 10
429.59751388386974
 20
52.364506091790275
 10
428.8739710191773
 20
52.064804824276365
 10
428.2526506756177
 20
51.58804895648271
 10
427.775894807824
 20
50.96672861292305
 10
427.4761935403101
 20
50.243185748230616
 10
427.3739710191773
 20
49.46672861292305
 10
427.4761935403101
 20
48.69027147761551
 10
427.775894807824
 20
47.96672861292305
 10
428.2526506756177
 20
47.34540826936342
 10
428.2526506756177
 20
37.53068964360199
 10
427.775894807824
 20
36.90936930004236
 10
427.4761935403101
 20
36.185826435349895
 10
427.3739710191773
 20
35.40936930004236
 10
427.4761935403101
 20
34.63291216473479
 10
427.775894807824
 20
33.90936930004233
 10
428.2526506756177
 20
33.2880489564827
 10
428.87397101917736
 20
32.81129308868904
 10
429.59751388386974
 20
32.51159182117513
 10
430.37397101917736
 20
32.40936930004236
 10
431.15042815448487
 20
32.51159182117513
 10
431.87397101917736
 20
32.81129308868904
 10
432.49529136273696
 20
33.2880489564827
 10
454.3100099884984
 20
33.2880489564827
 10
454.931330332058
 20
32.81129308868904
 10
455.6548731967505
 20
32.51159182117513
 10
456.431330332058
 20
32.40936930004236
 10
457.2077874673656
 20
32.51159182117513
 10
457.931330332058
 20
32.81129308868904
 10
458.55265067561766
 20
33.2880489564827
 10
459.02940654341137
 20
33.90936930004236
 10
459.3291078109253
 20
34.63291216473479
 10
459.43133033205805
 20
35.40936930004236
  0
LWPOLYLINE
  5
93
330
17
100
AcDbEntity
  8
CUT_IN
100
AcDbPolyline
 90
53
 70
1
 10
168.43133033205805
 20
458.4898658686367
 10
168.32910781092525
 20
459.2663230039442
 10
168.02940654341134
 20
459.9898658686367
 10
167.55265067561768
 20
460.6111862121963
 10
167.55265067561768
 20
470.4259048379577
 10
168.02940654341134
 20
471.0472251815173
 10
168.32910781092525
 20
471.7707680462098
 10
168.43133033205805
 20
472.5472251815173
 10
168.32910781092525
 20
473.32368231682494
 10
168.02940654341134
 20
474.0472251815174
 10
167.55265067561768
 20
474.668545525077
 10
166.93133033205802
 20
475.1453013928707
 10
166.2077874673656
 20
475.4450026603846
 10
165.43133033205802
 20
475.5472251815173
 10
164.6548731967505
 20
475.4450026603846
 10
163.93133033205802
 20
475.1453013928707
 10
163.3100099884984
 20
474.668545525077
 10
141.49529136273696
 20
474.668545525077
 10
140.8739710191773
 20
475.1453013928707
 10
140.15042815448487
 20
475.4450026603846
 10
139.37397101917733
 20
475.5472251815173
 10
138.59751388386977
 20
475.4450026603846
 10
137.8739710191773
 20
475.1453013928707
 10
137.25265067561767
 20
474.668545525077
 10
136.77589480782402
 20
474.0472251815173
 10
136.4761935403101
 20
473.32368231682494
 10
136.3739710191773
 20
472.5472251815173
 10
136.4761935403101
 20
471.7707680462098
 10
136.77589480782402
 20
471.0472251815173
 10
137.25265067561767
 20
470.4259048379577
 10
137.25265067561767
 20
460.6111862121963
 10
136.77589480782402
 20
459.9898658686367
 10
136.4761935403101
 20
459.2663230039442
 10
136.3739710191773
 20
458.4898658686367
 10
136.4761935403101
 20
457.71340873332906
 10
136.77589480782402
 20
456.9898658686366
 10
137.25265067561767
 20
456.368545525077
 10
137.87397101917733
 20
455.8917896572833
 10
138.59751388386977
 20
455.5920883897694
 10
139.37397101917733
 20
455.4898658686367
 10
140.15042815448487
 20
455.5920883897694
 10
140.87397101917733
 20
455.8917896572833
 10
141.49529136273696
 20
456.368545525077
 10
163.3100099884984
 20
456.368545525077
 10
163.93133033205802
 20
455.8917896572833
 10
164.6548731967505
 20
455.5920883897694
 10
165.43133033205802
 20
455.4898658686367
 10
166.2077874673656
 20
455.5920883897694
 10
166.93133033205802
 20
455.8917896572833
 10
167.55265067561768
 20
456.368545525077
 10
168.02940654341134
 20
456.9898658686367
 10
168.32910781092525
 20
457.71340873332906
 10
168.43133033205805
 20
458.4898658686367
  0
LWPOLYLINE
  5
94
330
17
100
AcDbEntity
  8
CUT_IN
100
AcDbPolyline
 90
53
 70
1
 10
459.43133033205805
 20
458.4898658686367
 10
459.3291078109253
 20
459.2663230039442
 10
459.02940654341137
 20
459.9898658686367
 10
458.55265067561766
 20
460.6111862121963
 10
458.55265067561766
 20
470.4259048379577
 10
459.02940654341137
 20
471.0472251815173
 10
459.3291078109253
 20
471.7707680462098
 10
459.43133033205805
 20
472.5472251815173
 10
459.3291078109253
 20
473.32368231682494
 10
459.02940654341137
 20
474.0472251815174
 10
458.55265067561766
 20
474.668545525077
 10
457.931330332058
 20
475.1453013928707
 10
457.2077874673656
 20
475.4450026603846
 10
456.431330332058
 20
475.5472251815173
 10
455.6548731967505
 20
475.4450026603846
 10
454.931330332058
 20
475.1453013928707
 10
454.3100099884984
 20
474.668545525077
 10
432.49529136273696
 20
474.668545525077
 10
431.8739710191773
 20
475.1453013928707
 10
431.15042815448487
 20
475.4450026603846
 10
430.37397101917736
 20
475.5472251815173
 10
429.59751388386974
 20
475.4450026603846
 10
428.8739710191773
 20
475.1453013928707
 10
428.2526506756177
 20
474.668545525077
 10
427.775894807824
 20
474.0472251815173
 10
427.4761935403101
 20
473.32368231682494
 10
427.3739710191773
 20
472.5472251815173
 10
427.4761935403101
 20
471.7707680462098
 10
427.775894807824
 20
471.0472251815173
 10
428.2526506756177
 20
470.4259048379577
 10
428.2526506756177
 20
460.6111862121963
 10
427.775894807824
 20
459.9898658686367
 10
427.4761935403101
 20
459.2663230039442
 10
427.3739710191773
 20
458.4898658686367
 10
427.4761935403101
 20
457.71340873332906
 10
427.775894807824
 20
456.9898658686366
 10
428.2526506756177
 20
456.368545525077
 10
428.87397101917736
 20
455.8917896572833
 10
429.59751388386974
 20
455.5920883897694
 10
430.37397101917736
 20
455.4898658686367
 10
431.15042815448487
 20
455.5920883897694
 10
431.87397101917736
 20
455.8917896572833
 10
432.49529136273696
 20
456.368545525077
 10
454.3100099884984
 20
456.368545525077
 10
454.931330332058
 20
455.8917896572833
 10
455.6548731967505
 20
455.5920883897694
 10
456.431330332058
 20
455.4898658686367
 10
457.2077874673656
 20
455.5920883897694
 10
457.931330332058
 20
455.8917896572833
 10
458.55265067561766
 20
456.368545525077
 10
459.02940654341137
 20
456.9898658686367
 10
459.3291078109253
 20
457.71340873332906
 10
459.43133033205805
 20
458.4898658686367
  0
CIRCLE
  5
95
330
17
100
AcDbEntity
  8
DRILL
100
AcDbCircle
 10
212.90265067561768
 20
190.518545525077
 30
0.0
 40
3.5
  0
CIRCLE
  5
96
330
17
100
AcDbEntity
  8
DRILL
100
AcDbCircle
 10
212.90265067561768
 20
360.518545525077
 30
0.0
 40
3.5
  0
CIRCLE
  5
97
330
17
100
AcDbEntity
  8
DRILL
100
AcDbCircle
 10
382.9026506756177
 20
190.518545525077
 30
0.0
 40
3.5
  0
CIRCLE
  5
98
330
17
100
AcDbEntity
  8
DRILL
100
AcDbCircle
 10
382.9026506756177
 20
360.518545525077
 30
0.0
 40
3.5
  0
LWPOLYLINE
  5
99
330
17
100
AcDbEntity
  8
MARK
100
AcDbPolyline
 90
5
 70
0
 10
200.40265067561768
 20
178.018545525077
 10
395.4026506756177
 20
178.018545525077
 10
395.4026506756177
 20
373.018545525077
 10
200.40265067561768
 20
373.018545525077
 10
200.40265067561768
 20
178.018545525077
  0
TEXT
  5
9A
330
17
100
AcDbEntity
  8
TEXT
100
AcDbText
 10
297.9026506756177
 20
274.19469681734734
 30
0.0
 40
10.0
  1
П1
 72
1
 11
297.9026506756177
 21
274.19469681734734
 31
0.0
100
AcDbText
 73
2
  0
TEXT
  5
9B
330
17
100
AcDbEntity
  8
TEXT
100
AcDbText
 10
0.0
 20
-20.0
 30
0.0
 40
8.0
  1
П1 Дно корпуса; Фанера берёзовая ФК 18 мм; 1 шт.
 11
0.0
 21
-20.0
 31
0.0
100
AcDbText
  0
ENDSEC
  0
SECTION
  2
OBJECTS
  0
DICTIONARY
  5
A
330
0
100
AcDbDictionary
281
1
  3
ACAD_COLOR
350
B
  3
ACAD_GROUP
350
C
  3
ACAD_LAYOUT
350
D
  3
ACAD_MATERIAL
350
E
  3
ACAD_MLEADERSTYLE
350
F
  3
ACAD_MLINESTYLE
350
10
  3
ACAD_PLOTSETTINGS
350
11
  3
ACAD_PLOTSTYLENAME
350
12
  3
ACAD_SCALELIST
350
14
  3
ACAD_TABLESTYLE
350
15
  3
ACAD_VISUALSTYLE
350
16
  3
EZDXF_META
350
2D
  0
DICTIONARY
  5
B
330
A
100
AcDbDictionary
281
1
  0
DICTIONARY
  5
C
330
A
100
AcDbDictionary
281
1
  0
DICTIONARY
  5
D
330
A
100
AcDbDictionary
281
1
  3
Model
350
1A
  3
Layout1
350
1E
  0
DICTIONARY
  5
E
330
A
100
AcDbDictionary
281
1
  3
ByBlock
350
1F
  3
ByLayer
350
20
  3
Global
350
21
  0
DICTIONARY
  5
F
330
A
100
AcDbDictionary
281
1
  3
Standard
350
2C
  0
DICTIONARY
  5
10
330
A
100
AcDbDictionary
281
1
  3
Standard
350
22
  0
DICTIONARY
  5
11
330
A
100
AcDbDictionary
281
1
  0
ACDBDICTIONARYWDFLT
  5
12
330
A
100
AcDbDictionary
281
1
  3
Normal
350
13
100
AcDbDictionaryWithDefault
340
13
  0
ACDBPLACEHOLDER
  5
13
330
12
  0
DICTIONARY
  5
14
330
A
100
AcDbDictionary
281
1
  0
DICTIONARY
  5
15
330
A
100
AcDbDictionary
281
1
  0
DICTIONARY
  5
16
330
A
100
AcDbDictionary
281
1
  3
2dWireframe
350
5A
  3
Basic
350
5B
  3
Brighten
350
5C
  3
ColorChange
350
5D
  3
Conceptual
350
5E
  3
Dim
350
5F
  3
EdgeColorOff
350
60
  3
Facepattern
350
61
  3
Flat
350
62
  3
FlatWithEdges
350
63
  3
Gouraud
350
64
  3
GouraudWithEdges
350
65
  3
Hidden
350
66
  3
JitterOff
350
67
  3
Linepattern
350
68
  3
Modeling
350
69
  3
OverhangOff
350
6A
  3
Realistic
350
6B
  3
Shaded
350
6C
  3
Shaded with edges
350
6D
  3
Shades of Gray
350
6E
  3
Sketchy
350
6F
  3
Thicken
350
70
  3
Wireframe
350
71
  3
X-Ray
350
72
  0
LAYOUT
  5
1A
330
D
100
AcDbPlotSettings
  1

  4
A3
  6

 40
7.5
 41
20.0
 42
7.5
 43
20.0
 44
420.0
 45
297.0
 46
0.0
 47
0.0
 48
0.0
 49
0.0
140
0.0
141
0.0
142
1.0
143
1.0
 70
1024
 72
1
 73
0
 74
5
  7

 75
16
 76
0
 77
2
 78
300
147
1.0
148
0.0
149
0.0
100
AcDbLayout
  1
Model
 70
1
 71
0
 10
0.0
 20
0.0
 11
420.0
 21
297.0
 12
0.0
 22
0.0
 32
0.0
 14
1e+20
 24
1e+20
 34
1e+20
 15
-1e+20
 25
-1e+20
 35
-1e+20
146
0.0
 13
0.0
 23
0.0
 33
0.0
 16
1.0
 26
0.0
 36
0.0
 17
0.0
 27
1.0
 37
0.0
 76
1
330
17
  0
LAYOUT
  5
1E
330
D
100
AcDbPlotSettings
  1

  4
A3
  6

 40
7.5
 41
20.0
 42
7.5
 43
20.0
 44
420.0
 45
297.0
 46
0.0
 47
0.0
 48
0.0
 49
0.0
140
0.0
141
0.0
142
1.0
143
1.0
 70
0
 72
1
 73
0
 74
5
  7

 75
16
 76
0
 77
2
 78
300
147
1.0
148
0.0
149
0.0
100
AcDbLayout
  1
Layout1
 70
1
 71
1
 10
0.0
 20
0.0
 11
420.0
 21
297.0
 12
0.0
 22
0.0
 32
0.0
 14
1e+20
 24
1e+20
 34
1e+20
 15
-1e+20
 25
-1e+20
 35
-1e+20
146
0.0
 13
0.0
 23
0.0
 33
0.0
 16
1.0
 26
0.0
 36
0.0
 17
0.0
 27
1.0
 37
0.0
 76
1
330
1B
  0
MATERIAL
  5
1F
102
{ACAD_REACTORS
330
E
102
}
330
E
100
AcDbMaterial
  1
ByBlock
  2

 70
0
 40
1.0
 71
1
 41
1.0
 91
-1023410177
 42
1.0
 72
1
  3

 73
1
 74
1
 75
1
 44
0.5
 73
0
 45
1.0
 46
1.0
 77
1
  4

 78
1
 79
1
170
1
 48
1.0
171
1
  6

172
1
173
1
174
1
140
1.0
141
1.0
175
1
  7

176
1
177
1
178
1
143
1.0
179
1
  8

270
1
271
1
272
1
145
1.0
146
1.0
273
1
  9

274
1
275
1
276
1
 42
1.0
 72
1
  3

 73
1
 74
1
 75
1
 94
63
  0
MATERIAL
  5
20
102
{ACAD_REACTORS
330
E
102
}
330
E
100
AcDbMaterial
  1
ByLayer
  2

 70
0
 40
1.0
 71
1
 41
1.0
 91
-1023410177
 42
1.0
 72
1
  3

 73
1
 74
1
 75
1
 44
0.5
 73
0
 45
1.0
 46
1.0
 77
1
  4

 78
1
 79
1
170
1
 48
1.0
171
1
  6

172
1
173
1
174
1
140
1.0
141
1.0
175
1
  7

176
1
177
1
178
1
143
1.0
179
1
  8

270
1
271
1
272
1
145
1.0
146
1.0
273
1
  9

274
1
275
1
276
1
 42
1.0
 72
1
  3

 73
1
 74
1
 75
1
 94
63
  0
MATERIAL
  5
21
102
{ACAD_REACTORS
330
E
102
}
330
E
100
AcDbMaterial
  1
Global
  2

 70
0
 40
1.0
 71
1
 41
1.0
 91
-1023410177
 42
1.0
 72
1
  3

 73
1
 74
1
 75
1
 44
0.5
 73
0
 45
1.0
 46
1.0
 77
1
  4

 78
1
 79
1
170
1
 48
1.0
171
1
  6

172
1
173
1
174
1
140
1.0
141
1.0
175
1
  7

176
1
177
1
178
1
143
1.0
179
1
  8

270
1
271
1
272
1
145
1.0
146
1.0
273
1
  9

274
1
275
1
276
1
 42
1.0
 72
1
  3

 73
1
 74
1
 75
1
 94
63
  0
MLINESTYLE
  5
22
102
{ACAD_REACTORS
330
10
102
}
330
10
100
AcDbMlineStyle
  2
Standard
 70
0
  3

 62
256
 51
90.0
 52
90.0
 71
2
 49
0.5
 62
256
  6
BYLAYER
 49
-0.5
 62
256
  6
BYLAYER
  0
MLEADERSTYLE
  5
2C
102
{ACAD_REACTORS
330
F
102
}
330
F
100
AcDbMLeaderStyle
179
2
170
2
171
1
172
0
 90
2
 40
0.0
 41
0.0
173
1
 91
-1056964608
 92
-2
290
1
 42
2.0
291
1
 43
8.0
  3
Standard
 44
4.0
300

342
29
174
1
175
1
176
0
178
1
 93
-1056964608
 45
4.0
292
0
297
0
 46
4.0
 94
-1056964608
 47
1.0
 49
1.0
140
1.0
294
1
141
0.0
177
0
142
1.0
295
0
296
0
143
3.75
271
0
272
9
273
9
  0
DICTIONARY
  5
2D
330
A
100
AcDbDictionary
280
1
281
1
  3
CREATED_BY_EZDXF
350
2E
  3
WRITTEN_BY_EZDXF
350
9E
  0
DICTIONARYVAR
  5
2E
330
2D
100
DictionaryVariables
280
0
  1
1.4.4 @ 2026-09-30T16:23:22.427272+00:00
  0
VISUALSTYLE
  5
5A
102
{ACAD_REACTORS
330
16
102
}
330
16
100
AcDbVisualStyle
  2
2dWireframe
 70
4
 90
0
 40
0.6
 62
7
290
0
291
0
  0
VISUALSTYLE
  5
5B
102
{ACAD_REACTORS
330
16
102
}
330
16
100
AcDbVisualStyle
  2
Basic
 70
7
 90
1
 40
0.6
 62
7
290
0
291
1
  0
VISUALSTYLE
  5
5C
102
{ACAD_REACTORS
330
16
102
}
330
16
100
AcDbVisualStyle
  2
Brighten
 70
12
 90
2
 40
0.6
 62
7
290
0
291
1
  0
VISUALSTYLE
  5
5D
102
{ACAD_REACTORS
330
16
102
}
330
16
100
AcDbVisualStyle
  2
ColorChange
 70
16
 90
2
 40
0.6
 62
8
290
0
291
1
  0
VISUALSTYLE
  5
5E
102
{ACAD_REACTORS
330
16
102
}
330
16
100
AcDbVisualStyle
  2
Conceptual
 70
9
 90
3
 40
0.6
 62
7
290
0
291
0
  0
VISUALSTYLE
  5
5F
102
{ACAD_REACTORS
330
16
102
}
330
16
100
AcDbVisualStyle
  2
Dim
 70
11
 90
2
 40
0.6
 62
7
290
0
291
1
  0
VISUALSTYLE
  5
60
102
{ACAD_REACTORS
330
16
102
}
330
16
100
AcDbVisualStyle
  2
EdgeColorOff
 70
22
 90
2
 40
0.6
 62
7
290
0
291
1
  0
VISUALSTYLE
  5
61
102
{ACAD_REACTORS
330
16
102
}
330
16
100
AcDbVisualStyle
  2
Facepattern
 70
15
 90
2
 40
0.6
 62
7
290
0
291
1
  0
VISUALSTYLE
  5
62
102
{ACAD_REACTORS
330
16
102
}
330
16
100
AcDbVisualStyle
  2
Flat
 70
0
 90
2
 40
0.6
 62
7
290
0
291
1
  0
VISUALSTYLE
  5
63
102
{ACAD_REACTORS
330
16
102
}
330
16
100
AcDbVisualStyle
  2
FlatWithEdges
 70
1
 90
2
 40
0.6
 62
7
290
0
291
1
  0
VISUALSTYLE
  5
64
102
{ACAD_REACTORS
330
16
102
}
330
16
100
AcDbVisualStyle
  2
Gouraud
 70
2
 90
2
 40
0.6
 62
7
290
0
291
1
  0
VISUALSTYLE
  5
65
102
{ACAD_REACTORS
330
16
102
}
330
16
100
AcDbVisualStyle
  2
GouraudWithEdges
 70
3
 90
2
 40
0.6
 62
7
290
0
291
1
  0
VISUALSTYLE
  5
66
102
{ACAD_REACTORS
330
16
102
}
330
16
100
AcDbVisualStyle
  2
Hidden
 70
6
 90
1
 40
0.6
 62
7
290
0
291
0
  0
VISUALSTYLE
  5
67
102
{ACAD_REACTORS
330
16
102
}
330
16
100
AcDbVisualStyle
  2
JitterOff
 70
20
 90
2
 40
0.6
 62
7
290
0
291
1
  0
VISUALSTYLE
  5
68
102
{ACAD_REACTORS
330
16
102
}
330
16
100
AcDbVisualStyle
  2
Linepattern
 70
14
 90
2
 40
0.6
 62
7
290
0
291
1
  0
VISUALSTYLE
  5
69
102
{ACAD_REACTORS
330
16
102
}
330
16
100
AcDbVisualStyle
  2
Modeling
 70
10
 90
2
 40
0.6
 62
7
290
0
291
0
  0
VISUALSTYLE
  5
6A
102
{ACAD_REACTORS
330
16
102
}
330
16
100
AcDbVisualStyle
  2
OverhangOff
 70
21
 90
2
 40
0.6
 62
7
290
0
291
1
  0
VISUALSTYLE
  5
6B
102
{ACAD_REACTORS
330
16
102
}
330
16
100
AcDbVisualStyle
  2
Realistic
 70
8
 90
2
 40
0.6
 62
7
290
0
291
0
  0
VISUALSTYLE
  5
6C
102
{ACAD_REACTORS
330
16
102
}
330
16
100
AcDbVisualStyle
  2
Shaded
 70
27
 90
2
 40
0.6
 62
7
290
0
291
0
  0
VISUALSTYLE
  5
6D
102
{ACAD_REACTORS
330
16
102
}
330
16
100
AcDbVisualStyle
  2
Shaded with edges
 70
26
 90
2
 40
0.6
 62
7
290
0
291
0
  0
VISUALSTYLE
  5
6E
102
{ACAD_REACTORS
330
16
102
}
330
16
100
AcDbVisualStyle
  2
Shades of Gray
 70
23
 90
2
 40
0.6
 62
7
290
0
291
0
  0
VISUALSTYLE
  5
6F
102
{ACAD_REACTORS
330
16
102
}
330
16
100
AcDbVisualStyle
  2
Sketchy
 70
24
 90
1
 40
0.6
 62
7
290
0
291
0
  0
VISUALSTYLE
  5
70
102
{ACAD_REACTORS
330
16
102
}
330
16
100
AcDbVisualStyle
  2
Thicken
 70
13
 90
2
 40
0.6
 62
7
290
0
291
1
  0
VISUALSTYLE
  5
71
102
{ACAD_REACTORS
330
16
102
}
330
16
100
AcDbVisualStyle
  2
Wireframe
 70
5
 90
0
 40
0.6
 62
7
290
0
291
0
  0
VISUALSTYLE
  5
72
102
{ACAD_REACTORS
330
16
102
}
330
16
100
AcDbVisualStyle
  2
X-Ray
 70
25
 90
2
 40
0.5
 62
7
290
0
291
0
  0
DICTIONARYVAR
  5
9E
330
2D
100
DictionaryVariables
280
0
  1
1.4.4 @ 2026-09-30T16:23:22.434637+00:00
  0
ENDSEC
  0
EOF
