  0
SECTION
  2
HEADER
  9
$ACADVER
  1
AC1024
  9
$ACADMAINTVER
 70
6
  9
$DWGCODEPAGE
  3
ANSI_1252
  9
$LASTSAVEDBY
  1
ezdxf
  9
$INSBASE
 10
0.0
 20
0.0
 30
0.0
  9
$EXTMIN
 10
1e+20
 20
1e+20
 30
1e+20
  9
$EXTMAX
 10
-1e+20
 20
-1e+20
 30
-1e+20
  9
$LIMMIN
 10
0.0
 20
0.0
  9
$LIMMAX
 10
420.0
 20
297.0
  9
$ORTHOMODE
 70
0
  9
$REGENMODE
 70
1
  9
$FILLMODE
 70
1
  9
$QTEXTMODE
 70
0
  9
$MIRRTEXT
 70
1
  9
$LTSCALE
 40
1.0
  9
$ATTMODE
 70
1
  9
$TEXTSIZE
 40
2.5
  9
$TRACEWID
 40
1.0
  9
$TEXTSTYLE
  7
OpenSans
  9
$CLAYER
  8
0
  9
$CELTYPE
  6
ByLayer
  9
$CECOLOR
 62
256
  9
$CELTSCALE
 40
1.0
  9
$DISPSILH
 70
0
  9
$DIMSCALE
 40
1.0
  9
$DIMASZ
 40
0.175
  9
$DIMEXO
 40
0.125
  9
$DIMDLI
 40
3.75
  9
$DIMRND
 40
0.0
  9
$DIMDLE
 40
0.0
  9
$DIMEXE
 40
0.375
  9
$DIMTP
 40
0.0
  9
$DIMTM
 40
0.0
  9
$DIMTXT
 40
0.25
  9
$DIMCEN
 40
2.5
  9
$DIMTSZ
 40
0.0
  9
$DIMTOL
 70
0
  9
$DIMLIM
 70
0
  9
$DIMTIH
 70
0
  9
$DIMTOH
 70
0
  9
$DIMSE1
 70
0
  9
$DIMSE2
 70
0
  9
$DIMTAD
 70
1
  9
$DIMZIN
 70
12
  9
$DIMBLK
  1
ARCHTICK
  9
$DIMASO
 70
1
  9
$DIMSHO
 70
1
  9
$DIMPOST
  1

  9
$DIMAPOST
  1

  9
$DIMALT
 70
0
  9
$DIMALTD
 70
3
  9
$DIMALTF
 40
0.03937007874
  9
$DIMLFAC
 40
100.0
  9
$DIMTOFL
 70
1
  9
$DIMTVP
 40
0.0
  9
$DIMTIX
 70
0
  9
$DIMSOXD
 70
0
  9
$DIMSAH
 70
0
  9
$DIMBLK1
  1

  9
$DIMBLK2
  1

  9
$DIMSTYLE
  2
EZDXF
  9
$DIMCLRD
 70
0
  9
$DIMCLRE
 70
0
  9
$DIMCLRT
 70
0
  9
$DIMTFAC
 40
0.5
  9
$DIMGAP
 40
0.1
  9
$DIMJUST
 70
0
  9
$DIMSD1
 70
0
  9
$DIMSD2
 70
0
  9
$DIMTOLJ
 70
0
  9
$DIMTZIN
 70
8
  9
$DIMALTZ
 70
0
  9
$DIMALTTZ
 70
0
  9
$DIMUPT
 70
1
  9
$DIMDEC
 70
2
  9
$DIMTDEC
 70
2
  9
$DIMALTU
 70
2
  9
$DIMALTTD
 70
3
  9
$DIMTXSTY
  7
OpenSansCondensed-Light
  9
$DIMAUNIT
 70
0
  9
$DIMADEC
 70
2
  9
$DIMALTRND
 40
0.0
  9
$DIMAZIN
 70
3
  9
$DIMDSEP
 70
46
  9
$DIMATFIT
 70
3
  9
$DIMFRAC
 70
0
  9
$DIMLDRBLK
  1

  9
$DIMLUNIT
 70
2
  9
$DIMLWD
 70
-2
  9
$DIMLWE
 70
-2
  9
$DIMTMOVE
 70
2
  9
$DIMFXL
 40
1.0
  9
$DIMFXLON
 70
0
  9
$DIMJOGANG
 40
0.785398163397
  9
$DIMTFILL
 70
0
  9
$DIMTFILLCLR
 70
0
  9
$DIMARCSYM
 70
0
  9
$DIMLTYPE
  6

  9
$DIMLTEX1
  6

  9
$DIMLTEX2
  6

  9
$DIMTXTDIRECTION
 70
0
  9
$LUNITS
 70
2
  9
$LUPREC
 70
4
  9
$SKETCHINC
 40
1.0
  9
$FILLETRAD
 40
10.0
  9
$AUNITS
 70
0
  9
$AUPREC
 70
2
  9
$MENU
  1
.
  9
$ELEVATION
 40
0.0
  9
$PELEVATION
 40
0.0
  9
$THICKNESS
 40
0.0
  9
$LIMCHECK
 70
0
  9
$CHAMFERA
 40
0.0
  9
$CHAMFERB
 40
0.0
  9
$CHAMFERC
 40
0.0
  9
$CHAMFERD
 40
0.0
  9
$SKPOLY
 70
0
  9
$TDCREATE
 40
2461314.633946759
  9
$TDUCREATE
 40
2458532.153996898
  9
$TDUPDATE
 40
2461314.633946759
  9
$TDUUPDATE
 40
2458532.1544311
  9
$TDINDWG
 40
0.0
  9
$TDUSRTIMER
 40
0.0
  9
$USRTIMER
 70
1
  9
$ANGBASE
 50
0.0
  9
$ANGDIR
 70
0
  9
$PDMODE
 70
0
  9
$PDSIZE
 40
0.0
  9
$PLINEWID
 40
0.0
  9
$SPLFRAME
 70
0
  9
$SPLINETYPE
 70
6
  9
$SPLINESEGS
 70
8
  9
$HANDSEED
  5
AA
  9
$SURFTAB1
 70
6
  9
$SURFTAB2
 70
6
  9
$SURFTYPE
 70
6
  9
$SURFU
 70
6
  9
$SURFV
 70
6
  9
$UCSBASE
  2

  9
$UCSNAME
  2

  9
$UCSORG
 10
0.0
 20
0.0
 30
0.0
  9
$UCSXDIR
 10
1.0
 20
0.0
 30
0.0
  9
$UCSYDIR
 10
0.0
 20
1.0
 30
0.0
  9
$UCSORTHOREF
  2

  9
$UCSORTHOVIEW
 70
0
  9
$UCSORGTOP
 10
0.0
 20
0.0
 30
0.0
  9
$UCSORGBOTTOM
 10
0.0
 20
0.0
 30
0.0
  9
$UCSORGLEFT
 10
0.0
 20
0.0
 30
0.0
  9
$UCSORGRIGHT
 10
0.0
 20
0.0
 30
0.0
  9
$UCSORGFRONT
 10
0.0
 20
0.0
 30
0.0
  9
$UCSORGBACK
 10
0.0
 20
0.0
 30
0.0
  9
$PUCSBASE
  2

  9
$PUCSNAME
  2

  9
$PUCSORG
 10
0.0
 20
0.0
 30
0.0
  9
$PUCSXDIR
 10
1.0
 20
0.0
 30
0.0
  9
$PUCSYDIR
 10
0.0
 20
1.0
 30
0.0
  9
$PUCSORTHOREF
  2

  9
$PUCSORTHOVIEW
 70
0
  9
$PUCSORGTOP
 10
0.0
 20
0.0
 30
0.0
  9
$PUCSORGBOTTOM
 10
0.0
 20
0.0
 30
0.0
  9
$PUCSORGLEFT
 10
0.0
 20
0.0
 30
0.0
  9
$PUCSORGRIGHT
 10
0.0
 20
0.0
 30
0.0
  9
$PUCSORGFRONT
 10
0.0
 20
0.0
 30
0.0
  9
$PUCSORGBACK
 10
0.0
 20
0.0
 30
0.0
  9
$USERI1
 70
0
  9
$USERI2
 70
0
  9
$USERI3
 70
0
  9
$USERI4
 70
0
  9
$USERI5
 70
0
  9
$USERR1
 40
0.0
  9
$USERR2
 40
0.0
  9
$USERR3
 40
0.0
  9
$USERR4
 40
0.0
  9
$USERR5
 40
0.0
  9
$WORLDVIEW
 70
1
  9
$SHADEDGE
 70
3
  9
$SHADEDIF
 70
70
  9
$TILEMODE
 70
1
  9
$MAXACTVP
 70
64
  9
$PINSBASE
 10
0.0
 20
0.0
 30
0.0
  9
$PLIMCHECK
 70
0
  9
$PEXTMIN
 10
1e+20
 20
1e+20
 30
1e+20
  9
$PEXTMAX
 10
-1e+20
 20
-1e+20
 30
-1e+20
  9
$PLIMMIN
 10
0.0
 20
0.0
  9
$PLIMMAX
 10
420.0
 20
297.0
  9
$UNITMODE
 70
0
  9
$VISRETAIN
 70
1
  9
$PLINEGEN
 70
0
  9
$PSLTSCALE
 70
1
  9
$TREEDEPTH
 70
3020
  9
$CMLSTYLE
  2
Standard
  9
$CMLJUST
 70
0
  9
$CMLSCALE
 40
20.0
  9
$PROXYGRAPHICS
 70
1
  9
$MEASUREMENT
 70
1
  9
$CELWEIGHT
370
-1
  9
$ENDCAPS
280
0
  9
$JOINSTYLE
280
0
  9
$LWDISPLAY
290
0
  9
$INSUNITS
 70
4
  9
$HYPERLINKBASE
  1

  9
$STYLESHEET
  1

  9
$XEDIT
290
1
  9
$CEPSNTYPE
380
0
  9
$PSTYLEMODE
290
1
  9
$FINGERPRINTGUID
  2
{B837485C-FD7E-47FA-B86D-7174D5E1C405}
  9
$VERSIONGUID
  2
{23913618-4754-416A-BBAB-8F120365CE31}
  9
$EXTNAMES
290
1
  9
$PSVPSCALE
 40
0.0
  9
$OLESTARTUP
290
0
  9
$SORTENTS
280
127
  9
$INDEXCTL
280
0
  9
$HIDETEXT
280
1
  9
$XCLIPFRAME
280
1
  9
$HALOGAP
280
0
  9
$OBSCOLOR
 70
257
  9
$OBSLTYPE
280
0
  9
$INTERSECTIONDISPLAY
280
0
  9
$INTERSECTIONCOLOR
 70
257
  9
$DIMASSOC
280
2
  9
$PROJECTNAME
  1

  9
$CAMERADISPLAY
290
0
  9
$LENSLENGTH
 40
50.0
  9
$CAMERAHEIGHT
 40
0.0
  9
$STEPSPERSEC
 40
24.0
  9
$STEPSIZE
 40
100.0
  9
$3DDWFPREC
 40
2.0
  9
$PSOLWIDTH
 40
0.005
  9
$PSOLHEIGHT
 40
0.08
  9
$LOFTANG1
 40
1.570796326795
  9
$LOFTANG2
 40
1.570796326795
  9
$LOFTMAG1
 40
0.0
  9
$LOFTMAG2
 40
0.0
  9
$LOFTPARAM
 70
7
  9
$LOFTNORMALS
280
1
  9
$LATITUDE
 40
37.795
  9
$LONGITUDE
 40
-122.394
  9
$NORTHDIRECTION
 40
0.0
  9
$TIMEZONE
 70
-8000
  9
$LIGHTGLYPHDISPLAY
280
1
  9
$TILEMODELIGHTSYNCH
280
1
  9
$CMATERIAL
347
20
  9
$SOLIDHIST
280
0
  9
$SHOWHIST
280
1
  9
$DWFFRAME
280
2
  9
$DGNFRAME
280
2
  9
$REALWORLDSCALE
290
1
  9
$INTERFERECOLOR
 62
256
  9
$CSHADOW
280
0
  9
$SHADOWPLANELOCATION
 40
0.0
  0
ENDSEC
  0
SECTION
  2
CLASSES
  0
CLASS
  1
ACDBDICTIONARYWDFLT
  2
AcDbDictionaryWithDefault
  3
ObjectDBX Classes
 90
0
 91
0
280
0
281
0
  0
CLASS
  1
SUN
  2
AcDbSun
  3
SCENEOE
 90
1153
 91
0
280
0
281
0
  0
CLASS
  1
VISUALSTYLE
  2
AcDbVisualStyle
  3
ObjectDBX Classes
 90
4095
 91
0
280
0
281
0
  0
CLASS
  1
MATERIAL
  2
AcDbMaterial
  3
ObjectDBX Classes
 90
1153
 91
0
280
0
281
0
  0
CLASS
  1
SCALE
  2
AcDbScale
  3
ObjectDBX Classes
 90
1153
 91
0
280
0
281
0
  0
CLASS
  1
TABLESTYLE
  2
AcDbTableStyle
  3
ObjectDBX Classes
 90
4095
 91
0
280
0
281
0
  0
CLASS
  1
MLEADERSTYLE
  2
AcDbMLeaderStyle
  3
ACDB_MLEADERSTYLE_CLASS
 90
4095
 91
0
280
0
281
0
  0
CLASS
  1
DICTIONARYVAR
  2
AcDbDictionaryVar
  3
ObjectDBX Classes
 90
0
 91
0
280
0
281
0
  0
CLASS
  1
CELLSTYLEMAP
  2
AcDbCellStyleMap
  3
ObjectDBX Classes
 90
1152
 91
0
280
0
281
0
  0
CLASS
  1
MENTALRAYRENDERSETTINGS
  2
AcDbMentalRayRenderSettings
  3
SCENEOE
 90
1024
 91
0
280
0
281
0
  0
CLASS
  1
ACDBDETAILVIEWSTYLE
  2
AcDbDetailViewStyle
  3
ObjectDBX Classes
 90
1025
 91
0
280
0
281
0
  0
CLASS
  1
ACDBSECTIONVIEWSTYLE
  2
AcDbSectionViewStyle
  3
ObjectDBX Classes
 90
1025
 91
0
280
0
281
0
  0
CLASS
  1
RASTERVARIABLES
  2
AcDbRasterVariables
  3
ISM
 90
0
 91
0
280
0
281
0
  0
CLASS
  1
ACDBPLACEHOLDER
  2
AcDbPlaceHolder
  3
ObjectDBX Classes
 90
0
 91
0
280
0
281
0
  0
CLASS
  1
LAYOUT
  2
AcDbLayout
  3
ObjectDBX Classes
 90
0
 91
0
280
0
281
0
  0
ENDSEC
  0
SECTION
  2
TABLES
  0
TABLE
  2
VPORT
  5
8
330
0
100
AcDbSymbolTable
 70
1
  0
VPORT
  5
23
330
8
100
AcDbSymbolTableRecord
100
AcDbViewportTableRecord
  2
*Active
 70
0
 10
0.0
 20
0.0
 11
1.0
 21
1.0
 12
0.0
 22
0.0
 13
0.0
 23
0.0
 14
0.5
 24
0.5
 15
0.5
 25
0.5
 16
0.0
 26
0.0
 36
1.0
 17
0.0
 27
0.0
 37
0.0
 40
1000.0
 41
1.34
 42
50.0
 43
0.0
 44
0.0
 50
0.0
 51
0.0
 71
0
 72
1000
 73
1
 74
3
 75
0
 76
0
 77
0
 78
0
281
0
 65
0
146
0.0
  0
ENDTAB
  0
TABLE
  2
LTYPE
  5
2
330
0
100
AcDbSymbolTable
 70
21
  0
LTYPE
  5
24
330
2
100
AcDbSymbolTableRecord
100
AcDbLinetypeTableRecord
  2
ByBlock
 70
0
  3

 72
65
 73
0
 40
0.0
  0
LTYPE
  5
25
330
2
100
AcDbSymbolTableRecord
100
AcDbLinetypeTableRecord
  2
ByLayer
 70
0
  3

 72
65
 73
0
 40
0.0
  0
LTYPE
  5
26
330
2
100
AcDbSymbolTableRecord
100
AcDbLinetypeTableRecord
  2
Continuous
 70
0
  3

 72
65
 73
0
 40
0.0
  0
LTYPE
  5
2F
330
2
100
AcDbSymbolTableRecord
100
AcDbLinetypeTableRecord
  2
CENTER
 70
0
  3
Center ____ _ ____ _ ____ _ ____ _ ____ _ ____
 72
65
 73
4
 40
5.08
 49
3.175
 74
0
 49
-0.635
 74
0
 49
0.635
 74
0
 49
-0.635
 74
0
  0
LTYPE
  5
30
330
2
100
AcDbSymbolTableRecord
100
AcDbLinetypeTableRecord
  2
CENTERX2
 70
0
  3
Center (2x) ________  __  ________  __  ________
 72
65
 73
4
 40
8.89
 49
6.35
 74
0
 49
-0.635
 74
0
 49
1.27
 74
0
 49
-0.635
 74
0
  0
LTYPE
  5
31
330
2
100
AcDbSymbolTableRecord
100
AcDbLinetypeTableRecord
  2
CENTER2
 70
0
  3
Center (.5x) ____ _ ____ _ ____ _ ____ _ ____
 72
65
 73
4
 40
2.54
 49
1.587
 74
0
 49
-0.318
 74
0
 49
0.318
 74
0
 49
-0.318
 74
0
  0
LTYPE
  5
32
330
2
100
AcDbSymbolTableRecord
100
AcDbLinetypeTableRecord
  2
DASHED
 70
0
  3
Dashed __ __ __ __ __ __ __ __ __ __ __ __ __ _
 72
65
 73
2
 40
1.524
 49
1.27
 74
0
 49
-0.254
 74
0
  0
LTYPE
  5
33
330
2
100
AcDbSymbolTableRecord
100
AcDbLinetypeTableRecord
  2
DASHEDX2
 70
0
  3
Dashed (2x) ____  ____  ____  ____  ____  ____
 72
65
 73
2
 40
3.048
 49
2.54
 74
0
 49
-0.508
 74
0
  0
LTYPE
  5
34
330
2
100
AcDbSymbolTableRecord
100
AcDbLinetypeTableRecord
  2
DASHED2
 70
0
  3
Dashed (.5x) _ _ _ _ _ _ _ _ _ _ _ _ _ _
 72
65
 73
2
 40
0.762
 49
0.635
 74
0
 49
-0.127
 74
0
  0
LTYPE
  5
35
330
2
100
AcDbSymbolTableRecord
100
AcDbLinetypeTableRecord
  2
PHANTOM
 70
0
  3
Phantom ______  __  __  ______  __  __  ______
 72
65
 73
6
 40
6.35
 49
3.175
 74
0
 49
-0.635
 74
0
 49
0.635
 74
0
 49
-0.635
 74
0
 49
0.635
 74
0
 49
-0.635
 74
0
  0
LTYPE
  5
36
330
2
100
AcDbSymbolTableRecord
100
AcDbLinetypeTableRecord
  2
PHANTOMX2
 70
0
  3
Phantom (2x)____________    ____    ____    ____________
 72
65
 73
6
 40
10.795
 49
6.35
 74
0
 49
-0.635
 74
0
 49
1.27
 74
0
 49
-0.635
 74
0
 49
1.27
 74
0
 49
-0.635
 74
0
  0
LTYPE
  5
37
330
2
100
AcDbSymbolTableRecord
100
AcDbLinetypeTableRecord
  2
PHANTOM2
 70
0
  3
Phantom (.5x) ___ _ _ ___ _ _ ___ _ _ ___ _ _ ___
 72
65
 73
6
 40
3.175
 49
1.587
 74
0
 49
-0.318
 74
0
 49
0.318
 74
0
 49
-0.318
 74
0
 49
0.318
 74
0
 49
-0.318
 74
0
  0
LTYPE
  5
38
330
2
100
AcDbSymbolTableRecord
100
AcDbLinetypeTableRecord
  2
DASHDOT
 70
0
  3
Dash dot __ . __ . __ . __ . __ . __ . __ . __
 72
65
 73
4
 40
3.556
 49
2.54
 74
0
 49
-0.508
 74
0
 49
0.0
 74
0
 49
-0.508
 74
0
  0
LTYPE
  5
39
330
2
100
AcDbSymbolTableRecord
100
AcDbLinetypeTableRecord
  2
DASHDOTX2
 70
0
  3
Dash dot (2x) ____  .  ____  .  ____  .  ____
 72
65
 73
4
 40
6.096
 49
5.08
 74
0
 49
-0.508
 74
0
 49
0.0
 74
0
 49
-0.508
 74
0
  0
LTYPE
  5
3A
330
2
100
AcDbSymbolTableRecord
100
AcDbLinetypeTableRecord
  2
DASHDOT2
 70
0
  3
Dash dot (.5x) _ . _ . _ . _ . _ . _ . _ . _
 72
65
 73
4
 40
1.778
 49
1.27
 74
0
 49
-0.254
 74
0
 49
0.0
 74
0
 49
-0.254
 74
0
  0
LTYPE
  5
3B
330
2
100
AcDbSymbolTableRecord
100
AcDbLinetypeTableRecord
  2
DOT
 70
0
  3
Dot .  .  .  .  .  .  .  .  .  .  .  .  .  .  .  .
 72
65
 73
2
 40
0.508
 49
0.0
 74
0
 49
-0.508
 74
0
  0
LTYPE
  5
3C
330
2
100
AcDbSymbolTableRecord
100
AcDbLinetypeTableRecord
  2
DOTX2
 70
0
  3
Dot (2x) .    .    .    .    .    .    .    . 
 72
65
 73
2
 40
1.016
 49
0.0
 74
0
 49
-1.016
 74
0
  0
LTYPE
  5
3D
330
2
100
AcDbSymbolTableRecord
100
AcDbLinetypeTableRecord
  2
DOT2
 70
0
  3
Dot (.5) . . . . . . . . . . . . . . . . . . . 
 72
65
 73
2
 40
0.254
 49
0.0
 74
0
 49
-0.254
 74
0
  0
LTYPE
  5
3E
330
2
100
AcDbSymbolTableRecord
100
AcDbLinetypeTableRecord
  2
DIVIDE
 70
0
  3
Divide __ . . __ . . __ . . __ . . __ . . __
 72
65
 73
6
 40
4.064
 49
2.54
 74
0
 49
-0.508
 74
0
 49
0.0
 74
0
 49
-0.508
 74
0
 49
0.0
 74
0
 49
-0.508
 74
0
  0
LTYPE
  5
3F
330
2
100
AcDbSymbolTableRecord
100
AcDbLinetypeTableRecord
  2
DIVIDEX2
 70
0
  3
Divide (2x) ____  . .  ____  . .  ____  . .  ____
 72
65
 73
6
 40
6.604
 49
5.08
 74
0
 49
-0.508
 74
0
 49
0.0
 74
0
 49
-0.508
 74
0
 49
0.0
 74
0
 49
-0.508
 74
0
  0
LTYPE
  5
40
330
2
100
AcDbSymbolTableRecord
100
AcDbLinetypeTableRecord
  2
DIVIDE2
 70
0
  3
Divide(.5x) _ . _ . _ . _ . _ . _ . _ . _
 72
65
 73
6
 40
2.032
 49
1.27
 74
0
 49
-0.254
 74
0
 49
0.0
 74
0
 49
-0.254
 74
0
 49
0.0
 74
0
 49
-0.254
 74
0
  0
ENDTAB
  0
TABLE
  2
LAYER
  5
1
330
0
100
AcDbSymbolTable
 70
8
  0
LAYER
  5
27
330
1
100
AcDbSymbolTableRecord
100
AcDbLayerTableRecord
  2
0
 70
0
 62
7
  6
Continuous
370
-3
390
13
347
21
  0
LAYER
  5
28
330
1
100
AcDbSymbolTableRecord
100
AcDbLayerTableRecord
  2
Defpoints
 70
0
 62
7
  6
Continuous
290
0
370
-3
390
13
347
21
  0
LAYER
  5
8A
330
1
100
AcDbSymbolTableRecord
100
AcDbLayerTableRecord
  2
CUT_OUT
 70
0
 62
7
  6
Continuous
370
-3
390
13
347
21
  0
LAYER
  5
8B
330
1
100
AcDbSymbolTableRecord
100
AcDbLayerTableRecord
  2
CUT_IN
 70
0
 62
1
  6
Continuous
370
-3
390
13
347
21
  0
LAYER
  5
8C
330
1
100
AcDbSymbolTableRecord
100
AcDbLayerTableRecord
  2
DRILL
 70
0
 62
3
  6
Continuous
370
-3
390
13
347
21
  0
LAYER
  5
8D
330
1
100
AcDbSymbolTableRecord
100
AcDbLayerTableRecord
  2
MARK
 70
0
 62
5
  6
Continuous
370
-3
390
13
347
21
  0
LAYER
  5
8E
330
1
100
AcDbSymbolTableRecord
100
AcDbLayerTableRecord
  2
TEXT
 70
0
 62
8
  6
Continuous
370
-3
390
13
347
21
  0
LAYER
  5
8F
330
1
100
AcDbSymbolTableRecord
100
AcDbLayerTableRecord
  2
SHEET
 70
0
 62
9
  6
Continuous
370
-3
390
13
347
21
  0
ENDTAB
  0
TABLE
  2
STYLE
  5
5
330
0
100
AcDbSymbolTable
 70
26
  0
STYLE
  5
29
330
5
100
AcDbSymbolTableRecord
100
AcDbTextStyleTableRecord
  2
Standard
 70
0
 40
0.0
 41
1.0
 50
0.0
 71
0
 42
2.5
  3
txt
  4

  0
STYLE
  5
41
330
5
100
AcDbSymbolTableRecord
100
AcDbTextStyleTableRecord
  2
OpenSans-Light
 70
0
 40
0.0
 41
1.0
 50
0.0
 71
0
 42
2.5
  3
OpenSans-Light.ttf
  4

  0
STYLE
  5
42
330
5
100
AcDbSymbolTableRecord
100
AcDbTextStyleTableRecord
  2
OpenSans-Light-Italic
 70
0
 40
0.0
 41
1.0
 50
0.0
 71
0
 42
2.5
  3
OpenSans-LightItalic.ttf
  4

  0
STYLE
  5
43
330
5
100
AcDbSymbolTableRecord
100
AcDbTextStyleTableRecord
  2
OpenSans
 70
0
 40
0.0
 41
1.0
 50
0.0
 71
0
 42
2.5
  3
OpenSans-Regular.ttf
  4

  0
STYLE
  5
44
330
5
100
AcDbSymbolTableRecord
100
AcDbTextStyleTableRecord
  2
OpenSans-Italic
 70
0
 40
0.0
 41
1.0
 50
0.0
 71
0
 42
2.5
  3
OpenSans-Italic.ttf
  4

  0
STYLE
  5
45
330
5
100
AcDbSymbolTableRecord
100
AcDbTextStyleTableRecord
  2
OpenSans-SemiBold
 70
0
 40
0.0
 41
1.0
 50
0.0
 71
0
 42
2.5
  3
OpenSans-SemiBold.ttf
  4

  0
STYLE
  5
46
330
5
100
AcDbSymbolTableRecord
100
AcDbTextStyleTableRecord
  2
OpenSans-SemiBoldItalic
 70
0
 40
0.0
 41
1.0
 50
0.0
 71
0
 42
2.5
  3
OpenSans-SemiBoldItalic.ttf
  4

  0
STYLE
  5
47
330
5
100
AcDbSymbolTableRecord
100
AcDbTextStyleTableRecord
  2
OpenSans-Bold
 70
0
 40
0.0
 41
1.0
 50
0.0
 71
0
 42
2.5
  3
OpenSans-Bold.ttf
  4

  0
STYLE
  5
48
330
5
100
AcDbSymbolTableRecord
100
AcDbTextStyleTableRecord
  2
OpenSans-BoldItalic
 70
0
 40
0.0
 41
1.0
 50
0.0
 71
0
 42
2.5
  3
OpenSans-BoldItalic.ttf
  4

  0
STYLE
  5
49
330
5
100
AcDbSymbolTableRecord
100
AcDbTextStyleTableRecord
  2
OpenSans-ExtraBold
 70
0
 40
0.0
 41
1.0
 50
0.0
 71
0
 42
2.5
  3
OpenSans-ExtraBold.ttf
  4

  0
STYLE
  5
4A
330
5
100
AcDbSymbolTableRecord
100
AcDbTextStyleTableRecord
  2
OpenSans-ExtraBoldItalic
 70
0
 40
0.0
 41
1.0
 50
0.0
 71
0
 42
2.5
  3
OpenSans-ExtraBoldItalic.ttf
  4

  0
STYLE
  5
4B
330
5
100
AcDbSymbolTableRecord
100
AcDbTextStyleTableRecord
  2
OpenSansCondensed-Bold
 70
0
 40
0.0
 41
1.0
 50
0.0
 71
0
 42
2.5
  3
OpenSansCondensed-Bold.ttf
  4

  0
STYLE
  5
4C
330
5
100
AcDbSymbolTableRecord
100
AcDbTextStyleTableRecord
  2
OpenSansCondensed-Light
 70
0
 40
0.0
 41
1.0
 50
0.0
 71
0
 42
2.5
  3
OpenSansCondensed-Light.ttf
  4

  0
STYLE
  5
4D
330
5
100
AcDbSymbolTableRecord
100
AcDbTextStyleTableRecord
  2
OpenSansCondensed-Italic
 70
0
 40
0.0
 41
1.0
 50
0.0
 71
0
 42
2.5
  3
OpenSansCondensed-LightItalic.ttf
  4

  0
STYLE
  5
4E
330
5
100
AcDbSymbolTableRecord
100
AcDbTextStyleTableRecord
  2
LiberationSans
 70
0
 40
0.0
 41
1.0
 50
0.0
 71
0
 42
2.5
  3
LiberationSans-Regular.ttf
  4

  0
STYLE
  5
4F
330
5
100
AcDbSymbolTableRecord
100
AcDbTextStyleTableRecord
  2
LiberationSans-Bold
 70
0
 40
0.0
 41
1.0
 50
0.0
 71
0
 42
2.5
  3
LiberationSans-Bold.ttf
  4

  0
STYLE
  5
50
330
5
100
AcDbSymbolTableRecord
100
AcDbTextStyleTableRecord
  2
LiberationSans-BoldItalic
 70
0
 40
0.0
 41
1.0
 50
0.0
 71
0
 42
2.5
  3
LiberationSans-BoldItalic.ttf
  4

  0
STYLE
  5
51
330
5
100
AcDbSymbolTableRecord
100
AcDbTextStyleTableRecord
  2
LiberationSans-Italic
 70
0
 40
0.0
 41
1.0
 50
0.0
 71
0
 42
2.5
  3
LiberationSans-Italic.ttf
  4

  0
STYLE
  5
52
330
5
100
AcDbSymbolTableRecord
100
AcDbTextStyleTableRecord
  2
LiberationSerif
 70
0
 40
0.0
 41
1.0
 50
0.0
 71
0
 42
2.5
  3
LiberationSerif-Regular.ttf
  4

  0
STYLE
  5
53
330
5
100
AcDbSymbolTableRecord
100
AcDbTextStyleTableRecord
  2
LiberationSerif-Bold
 70
0
 40
0.0
 41
1.0
 50
0.0
 71
0
 42
2.5
  3
LiberationSerif-Bold.ttf
  4

  0
STYLE
  5
54
330
5
100
AcDbSymbolTableRecord
100
AcDbTextStyleTableRecord
  2
LiberationSerif-BoldItalic
 70
0
 40
0.0
 41
1.0
 50
0.0
 71
0
 42
2.5
  3
LiberationSerif-BoldItalic.ttf
  4

  0
STYLE
  5
55
330
5
100
AcDbSymbolTableRecord
100
AcDbTextStyleTableRecord
  2
LiberationSerif-Italic
 70
0
 40
0.0
 41
1.0
 50
0.0
 71
0
 42
2.5
  3
LiberationSerif-Italic.ttf
  4

  0
STYLE
  5
56
330
5
100
AcDbSymbolTableRecord
100
AcDbTextStyleTableRecord
  2
LiberationMono
 70
0
 40
0.0
 41
1.0
 50
0.0
 71
0
 42
2.5
  3
LiberationMono-Regular.ttf
  4

  0
STYLE
  5
57
330
5
100
AcDbSymbolTableRecord
100
AcDbTextStyleTableRecord
  2
LiberationMono-Bold
 70
0
 40
0.0
 41
1.0
 50
0.0
 71
0
 42
2.5
  3
LiberationMono-Bold.ttf
  4

  0
STYLE
  5
58
330
5
100
AcDbSymbolTableRecord
100
AcDbTextStyleTableRecord
  2
LiberationMono-BoldItalic
 70
0
 40
0.0
 41
1.0
 50
0.0
 71
0
 42
2.5
  3
LiberationMono-BoldItalic.ttf
  4

  0
STYLE
  5
59
330
5
100
AcDbSymbolTableRecord
100
AcDbTextStyleTableRecord
  2
LiberationMono-Italic
 70
0
 40
0.0
 41
1.0
 50
0.0
 71
0
 42
2.5
  3
LiberationMono-Italic.ttf
  4

  0
ENDTAB
  0
TABLE
  2
VIEW
  5
7
330
0
100
AcDbSymbolTable
 70
0
  0
ENDTAB
  0
TABLE
  2
UCS
  5
6
330
0
100
AcDbSymbolTable
 70
0
  0
ENDTAB
  0
TABLE
  2
APPID
  5
3
330
0
100
AcDbSymbolTable
 70
3
  0
APPID
  5
2A
330
3
100
AcDbSymbolTableRecord
100
AcDbRegAppTableRecord
  2
ACAD
 70
0
  0
APPID
  5
A7
330
3
100
AcDbSymbolTableRecord
100
AcDbRegAppTableRecord
  2
HATCHBACKGROUNDCOLOR
 70
0
  0
APPID
  5
A8
330
3
100
AcDbSymbolTableRecord
100
AcDbRegAppTableRecord
  2
EZDXF
 70
0
  0
ENDTAB
  0
TABLE
  2
DIMSTYLE
  5
4
330
0
100
AcDbSymbolTable
 70
12
100
AcDbDimStyleTable
  0
DIMSTYLE
105
2B
330
4
100
AcDbSymbolTableRecord
100
AcDbDimStyleTableRecord
  2
Standard
 70
0
 40
1.0
 41
2.5
 42
0.625
 43
3.75
 44
1.25
 45
0.0
 46
0.0
 47
0.0
 48
0.0
 49
2.5
140
2.5
141
2.5
142
0.0
143
0.03937007874
144
1.0
145
0.0
146
1.0
147
0.625
148
0.0
 69
0
 70
0
 71
0
 72
0
 73
0
 74
0
 75
0
 76
0
 77
1
 78
8
 79
3
170
0
171
3
172
1
173
0
174
0
175
0
176
0
177
0
178
0
179
2
271
2
272
2
273
2
274
3
275
0
276
0
277
2
278
44
279
0
280
0
281
0
282
0
283
0
284
8
285
0
286
0
288
0
289
3
290
0
371
-2
372
-2
  0
DIMSTYLE
105
73
330
4
100
AcDbSymbolTableRecord
100
AcDbDimStyleTableRecord
  2
EZDXF
 70
0
 40
1.0
 41
0.175
 42
0.125
 43
3.75
 44
0.375
 45
0.0
 46
0.0
 47
0.0
 48
0.0
 49
2.5
140
0.25
141
2.5
142
0.0
143
0.03937007874
144
100.0
145
0.0
146
0.5
147
0.1
148
0.0
 69
0
 70
0
 71
0
 72
0
 73
0
 74
0
 75
0
 76
0
 77
1
 78
12
 79
3
170
0
171
3
172
1
173
0
174
0
175
0
176
0
177
0
178
0
179
2
271
2
272
2
273
2
274
3
275
0
276
0
277
2
278
46
279
2
280
0
281
0
282
0
283
0
284
8
285
0
286
0
288
1
289
3
290
0
340
4C
342
74
371
-2
372
-2
  0
DIMSTYLE
105
7C
330
4
100
AcDbSymbolTableRecord
100
AcDbDimStyleTableRecord
  2
EZ_M_100_H25_CM
 70
0
 40
1.0
 41
0.25
 42
0.125
 43
3.75
 44
0.375
 45
0.0
 46
0.0
 47
0.0
 48
0.0
 49
2.5
140
0.25
141
2.5
142
0.125
143
0.03937007874
144
100.0
145
0.0
146
0.5
147
0.1
148
0.0
 69
0
 70
0
 71
0
 72
0
 73
0
 74
0
 75
0
 76
0
 77
1
 78
12
 79
3
170
0
171
3
172
1
173
0
174
0
175
0
176
0
177
0
178
0
179
2
271
2
272
2
273
2
274
3
275
0
276
0
277
2
278
46
279
2
280
0
281
0
282
0
283
0
284
8
285
0
286
0
288
1
289
3
290
0
340
4C
371
-2
372
-2
  0
DIMSTYLE
105
7D
330
4
100
AcDbSymbolTableRecord
100
AcDbDimStyleTableRecord
  2
EZ_M_50_H25_CM
 70
0
 40
1.0
 41
0.125
 42
0.0625
 43
3.75
 44
0.1875
 45
0.0
 46
0.0
 47
0.0
 48
0.0
 49
2.5
140
0.125
141
2.5
142
0.0625
143
0.03937007874
144
100.0
145
0.0
146
0.5
147
0.05
148
0.0
 69
0
 70
0
 71
0
 72
0
 73
0
 74
0
 75
0
 76
0
 77
1
 78
12
 79
3
170
0
171
3
172
1
173
0
174
0
175
0
176
0
177
0
178
0
179
2
271
2
272
2
273
2
274
3
275
0
276
0
277
2
278
46
279
2
280
0
281
0
282
0
283
0
284
8
285
0
286
0
288
1
289
3
290
0
340
4C
371
-2
372
-2
  0
DIMSTYLE
105
7E
330
4
100
AcDbSymbolTableRecord
100
AcDbDimStyleTableRecord
  2
EZ_M_25_H25_CM
 70
0
 40
1.0
 41
0.0625
 42
0.03125
 43
3.75
 44
0.09375
 45
0.0
 46
0.0
 47
0.0
 48
0.0
 49
2.5
140
0.0625
141
2.5
142
0.03125
143
0.03937007874
144
100.0
145
0.0
146
0.5
147
0.025
148
0.0
 69
0
 70
0
 71
0
 72
0
 73
0
 74
0
 75
0
 76
0
 77
1
 78
12
 79
3
170
0
171
3
172
1
173
0
174
0
175
0
176
0
177
0
178
0
179
2
271
2
272
2
273
2
274
3
275
0
276
0
277
2
278
46
279
2
280
0
281
0
282
0
283
0
284
8
285
0
286
0
288
1
289
3
290
0
340
4C
371
-2
372
-2
  0
DIMSTYLE
105
7F
330
4
100
AcDbSymbolTableRecord
100
AcDbDimStyleTableRecord
  2
EZ_M_20_H25_CM
 70
0
 40
1.0
 41
0.05
 42
0.025
 43
3.75
 44
0.07500000000000001
 45
0.0
 46
0.0
 47
0.0
 48
0.0
 49
2.5
140
0.05
141
2.5
142
0.025
143
0.03937007874
144
100.0
145
0.0
146
0.5
147
0.020000000000000004
148
0.0
 69
0
 70
0
 71
0
 72
0
 73
0
 74
0
 75
0
 76
0
 77
1
 78
12
 79
3
170
0
171
3
172
1
173
0
174
0
175
0
176
0
177
0
178
0
179
2
271
2
272
2
273
2
274
3
275
0
276
0
277
2
278
46
279
2
280
0
281
0
282
0
283
0
284
8
285
0
286
0
288
1
289
3
290
0
340
4C
371
-2
372
-2
  0
DIMSTYLE
105
80
330
4
100
AcDbSymbolTableRecord
100
AcDbDimStyleTableRecord
  2
EZ_M_10_H25_CM
 70
0
 40
1.0
 41
0.025
 42
0.0125
 43
3.75
 44
0.037500000000000006
 45
0.0
 46
0.0
 47
0.0
 48
0.0
 49
2.5
140
0.025
141
2.5
142
0.0125
143
0.03937007874
144
100.0
145
0.0
146
0.5
147
0.010000000000000002
148
0.0
 69
0
 70
0
 71
0
 72
0
 73
0
 74
0
 75
0
 76
0
 77
1
 78
12
 79
3
170
0
171
3
172
1
173
0
174
0
175
0
176
0
177
0
178
0
179
2
271
2
272
2
273
2
274
3
275
0
276
0
277
2
278
46
279
2
280
0
281
0
282
0
283
0
284
8
285
0
286
0
288
1
289
3
290
0
340
4C
371
-2
372
-2
  0
DIMSTYLE
105
81
330
4
100
AcDbSymbolTableRecord
100
AcDbDimStyleTableRecord
  2
EZ_M_5_H25_CM
 70
0
 40
1.0
 41
0.0125
 42
0.00625
 43
3.75
 44
0.018750000000000003
 45
0.0
 46
0.0
 47
0.0
 48
0.0
 49
2.5
140
0.0125
141
2.5
142
0.00625
143
0.03937007874
144
100.0
145
0.0
146
0.5
147
0.005000000000000001
148
0.0
 69
0
 70
0
 71
0
 72
0
 73
0
 74
0
 75
0
 76
0
 77
1
 78
12
 79
3
170
0
171
3
172
1
173
0
174
0
175
0
176
0
177
0
178
0
179
2
271
2
272
2
273
2
274
3
275
0
276
0
277
2
278
46
279
2
280
0
281
0
282
0
283
0
284
8
285
0
286
0
288
1
289
3
290
0
340
4C
371
-2
372
-2
  0
DIMSTYLE
105
82
330
4
100
AcDbSymbolTableRecord
100
AcDbDimStyleTableRecord
  2
EZ_M_1_H25_CM
 70
0
 40
1.0
 41
0.0025
 42
0.00125
 43
3.75
 44
0.00375
 45
0.0
 46
0.0
 47
0.0
 48
0.0
 49
2.5
140
0.0025
141
2.5
142
0.00125
143
0.03937007874
144
100.0
145
0.0
146
0.5
147
0.001
148
0.0
 69
0
 70
0
 71
0
 72
0
 73
0
 74
0
 75
0
 76
0
 77
1
 78
12
 79
3
170
0
171
3
172
1
173
0
174
0
175
0
176
0
177
0
178
0
179
2
271
2
272
2
273
2
274
3
275
0
276
0
277
2
278
46
279
2
280
0
281
0
282
0
283
0
284
8
285
0
286
0
288
1
289
3
290
0
340
4C
371
-2
372
-2
  0
DIMSTYLE
105
83
330
4
100
AcDbSymbolTableRecord
100
AcDbDimStyleTableRecord
  2
EZ_RADIUS
 70
0
 40
1.0
 41
0.25
 42
0.125
 43
3.75
 44
0.375
 45
0.0
 46
0.0
 47
0.0
 48
0.0
 49
2.5
140
0.25
141
0.0
142
0.0
143
0.03937007874
144
100.0
145
0.0
146
0.5
147
0.1
148
0.0
 69
0
 70
0
 71
0
 72
0
 73
0
 74
0
 75
0
 76
0
 77
1
 78
12
 79
3
170
0
171
3
172
0
173
0
174
0
175
0
176
0
177
0
178
0
179
2
271
2
272
2
273
2
274
3
275
0
276
0
277
2
278
46
279
1
280
0
281
0
282
0
283
0
284
8
285
0
286
0
288
1
289
3
290
0
340
4C
342
84
371
-2
372
-2
  0
DIMSTYLE
105
88
330
4
100
AcDbSymbolTableRecord
100
AcDbDimStyleTableRecord
  2
EZ_RADIUS_INSIDE
 70
0
 40
1.0
 41
0.25
 42
0.125
 43
3.75
 44
0.375
 45
0.0
 46
0.0
 47
0.0
 48
0.0
 49
2.5
140
0.25
141
0.0
142
0.0
143
0.03937007874
144
100.0
145
0.0
146
0.5
147
0.1
148
0.0
 69
0
 70
0
 71
0
 72
0
 73
0
 74
0
 75
0
 76
0
 77
0
 78
12
 79
3
170
0
171
3
172
0
173
0
174
1
175
0
176
0
177
0
178
0
179
2
271
2
272
2
273
2
274
3
275
0
276
0
277
2
278
46
279
0
280
0
281
0
282
0
283
0
284
8
285
0
286
0
288
1
289
0
290
0
340
4C
342
84
371
-2
372
-2
  0
DIMSTYLE
105
89
330
4
100
AcDbSymbolTableRecord
100
AcDbDimStyleTableRecord
  2
EZ_CURVED
 70
0
 40
1.0
 41
0.25
 42
0.125
 43
3.75
 44
0.375
 45
0.0
 46
0.0
 47
0.0
 48
0.0
 49
2.5
140
0.25
141
2.5
142
0.0
143
0.03937007874
144
100.0
145
0.0
146
0.5
147
0.1
148
0.0
 69
0
 70
0
 71
0
 72
0
 73
0
 74
0
 75
0
 76
0
 77
1
 78
12
 79
2
 90
2
170
0
171
3
172
1
173
0
174
0
175
0
176
0
177
0
178
0
179
2
271
2
272
2
273
2
274
3
275
0
276
0
277
2
278
46
279
2
280
0
281
0
282
0
283
0
284
8
285
0
286
0
288
1
289
3
290
0
340
4C
371
-2
372
-2
  0
ENDTAB
  0
TABLE
  2
BLOCK_RECORD
  5
9
330
0
100
AcDbSymbolTable
 70
5
  0
BLOCK_RECORD
  5
17
330
9
100
AcDbSymbolTableRecord
100
AcDbBlockTableRecord
  2
*Model_Space
340
1A
 70
0
280
1
281
0
  0
BLOCK_RECORD
  5
1B
330
9
100
AcDbSymbolTableRecord
100
AcDbBlockTableRecord
  2
*Paper_Space
340
1E
 70
0
280
1
281
0
  0
BLOCK_RECORD
  5
74
330
9
100
AcDbSymbolTableRecord
100
AcDbBlockTableRecord
  2
_ARCHTICK
340
0
 70
0
280
1
281
0
  0
BLOCK_RECORD
  5
78
330
9
100
AcDbSymbolTableRecord
100
AcDbBlockTableRecord
  2
_CLOSEDFILLED
340
0
 70
0
280
1
281
0
  0
BLOCK_RECORD
  5
84
330
9
100
AcDbSymbolTableRecord
100
AcDbBlockTableRecord
  2
_CLOSEDBLANK
340
0
 70
0
280
1
281
0
  0
ENDTAB
  0
ENDSEC
  0
SECTION
  2
BLOCKS
  0
BLOCK
  5
18
330
17
100
AcDbEntity
  8
0
100
AcDbBlockBegin
  2
*Model_Space
 70
0
 10
0.0
 20
0.0
 30
0.0
  3
*Model_Space
  1

  0
ENDBLK
  5
19
330
17
100
AcDbEntity
  8
0
100
AcDbBlockEnd
  0
BLOCK
  5
1C
330
1B
100
AcDbEntity
  8
0
100
AcDbBlockBegin
  2
*Paper_Space
 70
0
 10
0.0
 20
0.0
 30
0.0
  3
*Paper_Space
  1

  0
ENDBLK
  5
1D
330
1B
100
AcDbEntity
  8
0
100
AcDbBlockEnd
  0
BLOCK
  5
75
330
74
100
AcDbEntity
  8
0
100
AcDbBlockBegin
  2
_ARCHTICK
 70
0
 10
0.0
 20
0.0
 30
0.0
  3
_ARCHTICK
  1

  0
LWPOLYLINE
  5
77
330
74
100
AcDbEntity
  8
0
  6
BYBLOCK
 62
0
100
AcDbPolyline
 90
2
 70
0
 43
0.15
 10
-0.5
 20
-0.5
 10
0.5
 20
0.5
  0
ENDBLK
  5
76
330
74
100
AcDbEntity
  8
0
100
AcDbBlockEnd
  0
BLOCK
  5
79
330
78
100
AcDbEntity
  8
0
100
AcDbBlockBegin
  2
_CLOSEDFILLED
 70
0
 10
0.0
 20
0.0
 30
0.0
  3
_CLOSEDFILLED
  1

  0
SOLID
  5
7B
330
78
100
AcDbEntity
  8
0
  6
BYBLOCK
 62
0
100
AcDbTrace
 10
-1.0
 20
0.16439898372402537
 30
0.0
 11
0.0
 21
0.0
 31
0.0
 12
-1.0
 22
-0.16439898372402537
 32
0.0
 13
-1.0
 23
-0.16439898372402537
 33
0.0
  0
ENDBLK
  5
7A
330
78
100
AcDbEntity
  8
0
100
AcDbBlockEnd
  0
BLOCK
  5
85
330
84
100
AcDbEntity
  8
0
100
AcDbBlockBegin
  2
_CLOSEDBLANK
 70
0
 10
0.0
 20
0.0
 30
0.0
  3
_CLOSEDBLANK
  1

  0
LWPOLYLINE
  5
87
330
84
100
AcDbEntity
  8
0
  6
BYBLOCK
 62
0
100
AcDbPolyline
 90
3
 70
1
 10
-1.0
 20
0.16439898372402537
 10
0.0
 20
0.0
 10
-1.0
 20
-0.16439898372402537
  0
ENDBLK
  5
86
330
84
100
AcDbEntity
  8
0
100
AcDbBlockEnd
  0
ENDSEC
  0
SECTION
  2
ENTITIES
  0
LWPOLYLINE
  5
90
330
17
100
AcDbEntity
  8
CUT_OUT
100
AcDbPolyline
 90
561
 70
1
 10
3.5808404011210655
 20
495.05415882483385
 10
5.63315748622955
 20
510.76028185390044
 10
5.780043329767409
 20
511.90628476863515
 10
6.058452010536882
 20
513.8306177792982
 10
6.12720123876511
 20
514.256939715731
 10
6.1582327589559895
 20
514.4474201941817
 10
8.491940762413208
 20
528.6286470129021
 10
8.952316182125003
 20
531.1015054226443
 10
11.54231195419976
 20
543.5564695642026
 10
12.3235472133332
 20
546.8455532032685
 10
14.874003630018308
 20
556.3800726512803
 10
15.89974805111251
 20
559.8029242493388
 10
18.422514226631847
 20
567.3917109863158
 10
19.72844443192986
 20
570.9420731168198
 10
22.14707278606221
 20
576.9279201901913
 10
23.751887794218987
 20
580.5504718291033
 10
25.79878694447109
 20
584.7873692949302
 10
27.703328063970616
 20
588.4088661861583
 10
29.70937717912534
 20
591.9267173557757
 10
31.545531494324678
 20
594.9374337922163
 10
33.45037337038815
 20
597.8637089019578
 10
35.146410203973744
 20
600.3321930789018
 10
36.932421343091505
 20
602.7974606741041
 10
38.388185600831946
 20
604.7240574301245
 10
38.51274913040953
 20
604.8821889086939
 10
44.084776375427964
 20
611.0288682577013
 10
44.50298792143758
 20
611.4305216932321
 10
46.02144510321983
 20
613.0360303270005
 10
49.359063433485346
 20
616.3006400567881
 10
52.94041337681858
 20
619.2958538037076
 10
53.94068055648228
 20
620.0683135336012
 10
55.675811126451094
 20
621.3590338034583
 10
58.48337799366749
 20
623.3699466464217
 10
60.6849977192831
 20
624.8739789457825
 10
64.09124302239667
 20
627.0915764290355
 10
66.81480922836187
 20
628.7631770137094
 10
70.50388545971975
 20
630.894244187183
 10
73.86171492290504
 20
632.6942691597483
 10
78.59716921050932
 20
635.0423891963301
 10
81.3775197091245
 20
636.3336392865561
 10
87.96845089140703
 20
639.1922433839839
 10
90.39380686793874
 20
640.181836503854
 10
98.06280112642642
 20
643.1173398314065
 10
100.28908394839465
 20
643.9195390889577
 10
108.50749415304182
 20
646.6990361233035
 10
110.62637420113225
 20
647.3721677062197
 10
119.60509880481297
 20
650.0424574420518
 10
121.62951379438766
 20
650.6061294923297
 10
131.02766697097303
 20
653.0464181433854
 10
132.77586295089947
 20
653.4724724126845
 10
143.11001843099564
 20
655.8274360028936
 10
144.5644116287114
 20
656.1399516019097
 10
155.85782446246967
 20
658.4205599391872
 10
156.99898379631364
 20
658.6395285985485
 10
169.07622123804123
 20
660.8359084678823
 10
170.40487888089118
 20
661.0621536872181
 10
173.4487071852504
 20
661.5453468152872
 10
182.76624234199787
 20
663.0364493868537
 10
183.89772546462075
 20
663.2064742423878
 10
194.64702082444632
 20
664.7170788429539
 10
197.87593298291793
 20
665.1718803788824
 10
199.06286220565212
 20
665.3270043607351
 10
201.4945605264631
 20
665.6201715365639
 10
201.5984881396305
 20
665.6326091609831
 10
213.5229629385497
 20
667.0491317863872
 10
214.96894386579822
 20
667.2031561579108
 10
227.24409119779938
 20
668.3604367849327
 10
227.48488204512694
 20
668.3826487077339
 10
229.7963071937284
 20
668.591171217065
 10
230.74538080407842
 20
668.6692031769138
 10
233.96817082427236
 20
668.9084462214255
 10
246.0749770264777
 20
669.8184522181955
 10
246.93051215393785
 20
669.8766133903691
 10
258.0095246781493
 20
670.5502902098704
 10
261.4809541833625
 20
670.761668482006
 10
262.2942489269276
 20
670.8056522554108
 10
277.16917136938656
 20
671.5088806577661
 10
277.5150024236334
 20
671.5242304650219
 10
278.2809986548748
 20
671.5560156237185
 10
278.59515673533576
 20
671.5682272603972
 10
293.81355727915127
 20
672.1198536756823
 10
294.33779249494023
 20
672.136561783645
 10
308.6339019899217
 20
672.5296573085656
 10
309.0815950034534
 20
672.5402955626716
 10
319.36582685886793
 20
672.7462759274797
 10
319.49176305524645
 20
672.7486660325916
 10
321.8794166058497
 20
672.79147351754
 10
322.44193277502177
 20
672.7989209355583
 10
325.4775585449735
 20
672.8248781036514
 10
331.5005150536903
 20
672.8822137922157
 10
332.4000347149159
 20
672.8840336626868
 10
335.57063089995404
 20
672.8666810466962
 10
335.68239770476157
 20
672.8659652446626
 10
336.47766617135574
 20
672.8601312525792
 10
337.8364859426425
 20
672.8347707502663
 10
338.1624965761108
 20
672.8249916824694
 10
339.4639798597468
 20
672.7670631222252
 10
341.79439140202464
 20
672.783462935952
 10
342.5295866264159
 20
672.7841323459284
 10
343.7556574637262
 20
672.7777369210269
 10
344.634113449719
 20
672.8024706266795
 10
347.5869378590407
 20
672.9457694444335
 10
347.58890484159014
 20
672.9052376788841
 10
348.93523507530824
 20
672.9985457794331
 10
354.0571108866189
 20
672.9155287953081
 10
355.78799281791163
 20
672.8134482832319
 10
356.65214332000966
 20
672.7814699488115
 10
357.32651915065446
 20
672.7814240630217
 10
357.7473069475399
 20
672.7895503005584
 10
359.42639091782826
 20
672.7984773016611
 10
361.41437932868615
 20
672.7812281253832
 10
363.0653785560244
 20
672.8459549245433
 10
364.0420962797467
 20
672.8616469673008
 10
364.65864795659047
 20
672.8683839601844
 10
367.29564410927844
 20
672.88364758135
 10
368.2479324248971
 20
672.881602404285
 10
373.7436509639914
 20
672.826184563145
 10
376.6792447996588
 20
672.7996045477112
 10
377.26696687667624
 20
672.7914039265917
 10
379.91325862121425
 20
672.7415140825706
 10
380.0363076015648
 20
672.7390680247056
 10
388.77923084630254
 20
672.5562992180767
 10
389.0716235368477
 20
672.5494738262253
 10
389.6671755765534
 20
672.5341193151327
 10
389.85922327988123
 20
672.5288602596245
 10
403.58653286214815
 20
672.1309552375676
 10
404.1132286768414
 20
672.1133729466143
 10
418.68647355017737
 20
671.562804400237
 10
419.31789140717433
 20
671.5391708546338
 10
419.9351617181443
 20
671.5128836676508
 10
420.5261179043066
 20
671.4846682858057
 10
434.9313311332369
 20
670.7856228877479
 10
435.33674109397555
 20
670.7645739887535
 10
436.0781162446086
 20
670.7235665009716
 10
436.43686526917674
 20
670.7026453113368
 10
436.7864130263425
 20
670.6812101897106
 10
437.095544433313
 20
670.6614523903227
 10
440.2082987170872
 20
670.4544347743341
 10
452.5468948155933
 20
669.663274361259
 10
453.3937830972501
 20
669.6029517322688
 10
464.2363501524964
 20
668.7535070980111
 10
464.3556073012188
 20
668.7440444452518
 10
468.1824144185983
 20
668.4365608042458
 10
469.21323990917676
 20
668.3447800876795
 10
473.24618275186873
 20
667.9506175968011
 10
483.4551607293182
 20
666.9664898091577
 10
484.7629545808031
 20
666.8259365823245
 10
494.38247680890316
 20
665.6853024393292
 10
498.4451959902086
 20
665.2007186608646
 10
499.62274369902434
 20
665.0484298777819
 10
503.62181286444354
 20
664.4909574130847
 10
513.0318680048152
 20
663.1763914367368
 10
514.2085804882028
 20
663.0000943830285
 10
523.0808090839823
 20
661.5807576565289
 10
526.3729182180987
 20
661.0588150351927
 10
527.7074156504268
 20
660.8317781254798
 10
539.5197104610743
 20
658.6847835009125
 10
540.6560403578458
 20
658.4669062088253
 10
552.1865829971478
 20
656.1405838516075
 10
553.6543059308267
 20
655.8253077633017
 10
563.6574941888878
 20
653.5452828692321
 10
565.3606770819396
 20
653.1308148713999
 10
575.148687621007
 20
650.596910617764
 10
577.177041110031
 20
650.0336675430747
 10
585.7309101187665
 20
647.4959440490225
 10
587.8631111458014
 20
646.8198814868197
 10
596.4492665425951
 20
643.9202311812612
 10
598.7014788770314
 20
643.109230329527
 10
606.348016364999
 20
640.1821885020852
 10
608.7718975225912
 20
639.1931912789971
 10
615.3657472141191
 20
636.3334090094736
 10
618.1445079974817
 20
635.0429854074152
 10
622.8838124900558
 20
632.6931984618134
 10
626.2397792005611
 20
630.894429819736
 10
629.9340236216026
 20
628.7607629200874
 10
632.6561234634801
 20
627.0904152568769
 10
636.0662270379554
 20
624.8708402731938
 10
638.2665684013778
 20
623.3680842164739
 10
641.0787675774434
 20
621.3544476883408
 10
642.8129947713101
 20
620.0648063388543
 10
643.2698716111747
 20
619.712100135671
 10
648.5693835361014
 20
614.9802849265986
 10
648.5933849891348
 20
615.0059310594509
 10
651.6472735263262
 20
612.1478875985938
 10
654.8379965014138
 20
608.9271971624144
 10
657.7764292270849
 20
605.4747816158506
 10
658.3713074469086
 20
604.7198229542116
 10
659.8276924720548
 20
602.7929789673486
 10
661.6131928791627
 20
600.3291350950324
 10
663.3101593348077
 20
597.859983633198
 10
665.2151903232348
 20
594.9341900485583
 10
667.0525282714282
 20
591.9222567555112
 10
669.0573313264513
 20
588.4073507004418
 10
670.9631910454921
 20
584.7839994391779
 10
673.0175478585069
 20
580.5322670114022
 10
674.6153208508779
 20
576.9277183871623
 10
677.0073978326803
 20
571.014010813164
 10
678.3216055972966
 20
567.4432867140183
 10
680.86155417091
 20
559.8030982534616
 10
681.8874671819989
 20
556.3797707671227
 10
684.4378183561224
 20
546.8457501320421
 10
685.2190731343288
 20
543.5566184257862
 10
687.809072111928
 20
531.1017578529052
 10
688.2694565516955
 20
528.6288741224766
 10
690.6031956103315
 20
514.4475879677468
 10
690.6342282249573
 20
514.2571024745724
 10
690.7029588007842
 20
513.8308999359313
 10
690.9840619850676
 20
511.88553622550353
 10
691.0901017351379
 20
511.05589864010074
 10
693.180803806668
 20
495.05285294525834
 10
693.369034749342
 20
493.44308227077624
 10
694.8794397176647
 20
478.8158523833264
 10
694.897575699779
 20
478.6376137521693
 10
695.173644562653
 20
475.8836148309258
 10
695.2965500997616
 20
474.49522664292465
 10
695.5432530156513
 20
471.2841602407907
 10
696.7446839526563
 20
456.1895006807688
 10
696.761549859174
 20
455.9473308251694
 10
620.3854824867466
 20
455.9473308251694
 10
620.3854824867466
 20
425.9473308251694
 10
635.3854824867466
 20
425.9473308251694
 10
635.3854824867466
 20
395.9473308251694
 10
620.3854824867466
 20
395.9473308251694
 10
620.3854824867466
 20
290.9473308251694
 10
635.3854824867466
 20
290.9473308251694
 10
635.3854824867466
 20
260.9473308251694
 10
620.3854824867466
 20
260.9473308251694
 10
620.3854824867466
 20
72.27564004115754
 10
635.3854824867466
 20
72.27564004115754
 10
635.3854824867466
 20
42.275640041157544
 10
620.3854824867466
 20
42.275640041157544
 10
620.3854824867466
 20
6.5322590578983295
 10
619.8270177026669
 20
6.334949149674685
 10
619.4564505061558
 20
6.200605006377316
 10
618.7236102548507
 20
5.929015764128906
 10
618.152284053637
 20
5.715666290346462
 10
612.0036927417793
 20
3.7889226894064336
 10
605.6839414071268
 20
2.5326348672204517
 10
599.2659134878195
 20
1.9612911431742077
 10
592.8236258107969
 20
2.0814806206617504
 10
586.431374982132
 20
2.8918171973058406
 10
582.72628865435
 20
3.565329152622212
 10
581.161634288545
 20
3.7651626357085775
 10
579.4357338569948
 20
3.8021976405118494
 10
578.7937036488021
 20
3.7892697978803653
 10
576.3880659905396
 20
3.7677769772084275
 10
574.6271322141542
 20
3.6652339407992827
 10
573.0187339140414
 20
3.593211076515729
 10
572.5528258097572
 20
3.578608372021847
 10
571.4061513833853
 20
3.4819225633043516
 10
569.4580753373309
 20
3.3518197133188323
 10
567.8473028691319
 20
3.173230322472989
 10
564.0695607432322
 20
2.8747882132249742
 10
562.1575539884523
 20
2.784375013280737
 10
560.3538314677089
 20
2.6444590194985835
 10
559.1612565344833
 20
2.515665227774491
 10
558.539454177024
 20
2.451787735876451
 10
557.9622265362405
 20
2.395526286929396
 10
551.2781828765371
 20
2.1187526420195013
 10
544.6048740127231
 20
2.587785800205779
 10
542.1911876349499
 20
2.8933989559419615
 10
542.1922054728225
 20
2.901437685171004
 10
541.9249182993597
 20
2.9231851121965065
 10
540.7572639121347
 20
3.0763299761643452
 10
540.6063475563865
 20
3.0880101574869627
 10
539.0848762413076
 20
3.1970664648349043
 10
537.8673178124038
 20
3.2588972978934976
 10
535.1316287764977
 20
3.341682279666202
 10
534.5178274890186
 20
3.3476760541212798
 10
533.2566082108339
 20
3.3082834062481083
 10
530.1867315920131
 20
3.1293335623669236
 10
528.3404190564661
 20
2.97763618154562
 10
522.8260745348842
 20
2.7791479157625645
 10
521.7468906263939
 20
2.7899611456258526
 10
518.9107020764725
 20
2.7581587724566816
 10
518.1048821216065
 20
2.73200502362954
 10
517.2402247150752
 20
2.672027440183456
 10
514.3439588343374
 20
2.4092638995157927
 10
508.80743483778645
 20
2.1639582274058284
 10
504.9841509487211
 20
2.171304881375022
 10
504.4335236646483
 20
2.1597408300275447
 10
502.5098197942184
 20
2.042261132994213
 10
496.64194233157144
 20
1.971422267321941
 10
494.99525164245017
 20
2.0321308377763216
 10
494.72813740119216
 20
2.030678013141028
 10
493.300862306082
 20
1.999080989333379
 10
491.891130642274
 20
1.9844393814643126
 10
489.8816502094521
 20
1.9871781955724828
 10
489.3217000102138
 20
1.9862214634187012
 10
488.81660960572407
 20
1.982240871299723
 10
487.9933897993423
 20
1.9702122148195258
 10
485.4731401354652
 20
1.9863253352673382
 10
484.5027190579761
 20
2.012919032099944
 10
482.9589605543158
 20
1.984909734315238
 10
478.9808034390126
 20
1.7915058508740458
 10
476.2951622180937
 20
1.5802013628524492
 10
476.2928836526946
 20
1.6091615104464267
 10
473.30400897711
 20
1.3516346332871763
 10
467.8148643316915
 20
1.3822070339063544
 10
464.4602273145467
 20
1.554548924205676
 10
463.5808755439744
 20
1.5786077258724163
 10
462.7904606080442
 20
1.5665637721260168
 10
460.0948165384753
 20
1.4642854860938996
 10
458.239678267668
 20
1.3554979383686145
 10
458.2379993102903
 20
1.3841289549839644
 10
453.3529639731995
 20
1.1987189615833813
 10
448.39248772269383
 20
1.4964184751761422
 10
448.39059716704105
 20
1.4735152395403475
 10
444.0672547918534
 20
1.8303870587182018
 10
443.1142126674257
 20
1.8836559366625352
 10
442.0742607658731
 20
1.892086489491362
 10
439.40379584028307
 20
1.8417500226620405
 10
437.2781863187195
 20
1.8393422487180828
 10
436.40951070919175
 20
1.8537476055057596
 10
435.624527982791
 20
1.8603580866870288
 10
435.2469480145772
 20
1.861161526653234
 10
433.2673235886429
 20
1.8529158409197635
 10
431.3640525670626
 20
1.8376079462915982
 10
429.2599054717331
 20
1.8129857524502881
 10
429.13846989707383
 20
1.8116876550385541
 10
428.78882752013754
 20
1.80830400096238
 10
428.09514045645085
 20
1.8056011274694015
 10
427.2756800782746
 20
1.807145348284223
 10
426.75366703365074
 20
1.8035871165511708
 10
425.9493431846047
 20
1.7911054586481896
 10
423.58761308165674
 20
1.8009434718961188
 10
420.32120810581716
 20
1.8788557874391358
 10
419.54624998521604
 20
1.865803338362639
 10
416.9450725553743
 20
1.8783859627221773
 10
416.26530367870174
 20
1.896414717193693
 10
415.19513723442253
 20
1.9080133206619507
 10
414.61523388889907
 20
1.9115407904000676
 10
411.88537706818295
 20
1.9099912349867054
 10
410.936351876515
 20
1.9169583499598275
 10
409.0860823862011
 20
1.945177230969307
 10
407.8961383510065
 20
1.975133913056311
 10
407.20493026487844
 20
1.9993977104828673
 10
406.730477627943
 20
2.0142060903174865
 10
404.75581233787557
 20
2.0651278762135803
 10
401.1149564040333
 20
2.1447432650833207
 10
398.0774019222767
 20
2.200173419676844
 10
397.74723760768427
 20
2.2071073075263143
 10
396.2964772092915
 20
2.24156966180675
 10
394.5913354674965
 20
2.278292419142531
 10
391.4333285072776
 20
2.3318889192203756
 10
391.3534940798201
 20
2.3332969759088655
 10
388.65921669202766
 20
2.3826098415783576
 10
387.22891457754633
 20
2.40936269232202
 10
386.002432743755
 20
2.429673082612851
 10
385.5805117068839
 20
2.438144323270535
 10
383.6349548679274
 20
2.4840520559191646
 10
383.1320705393742
 20
2.498027864558992
 10
380.9376265343013
 20
2.5682223861135185
 10
380.0282015268711
 20
2.5906825702073206
 10
378.543830441963
 20
2.6132676274316395
 10
377.6907778904872
 20
2.6212880370406424
 10
376.54454070709374
 20
2.643018221599789
 10
375.12859995534274
 20
2.6833967981038427
 10
374.3497503333997
 20
2.7006410525781916
 10
371.3854313375259
 20
2.7400294751473098
 10
370.40946606340253
 20
2.745186171302066
 10
369.85983278008825
 20
2.743843655627188
 10
369.00571954300506
 20
2.7525304721434622
 10
367.3020036000489
 20
2.6837442410351287
 10
363.38417411530537
 20
2.6535882257537082
 10
360.7726433409487
 20
2.718781337060875
 10
360.3545317722477
 20
2.709502745027521
 10
356.34109447262546
 20
2.7547186350647053
 10
354.6018406753127
 20
2.832548774961708
 10
353.94118548939406
 20
2.8508746428274208
 10
353.77153645229805
 20
2.8533232704519946
 10
350.329961891189
 20
2.896383966221549
 10
347.54688485263443
 20
2.995839063398762
 10
347.3924194450321
 20
3.004952208391842
 10
347.225750520144
 20
3.0048612531313665
 10
346.7583015645044
 20
3.002178196619525
 10
346.7582979727393
 20
3.0028039631005754
 10
346.4629308814865
 20
3.0010221941270174
 10
343.74572732002133
 20
2.997949279265697
 10
342.3402682152736
 20
2.954028179392594
 10
341.64932610192375
 20
2.9364188602921217
 10
339.6056214989034
 20
2.8961103780676467
 10
338.9802148834818
 20
2.860406358635771
 10
337.5975559984305
 20
2.797461569394102
 10
335.7150946398801
 20
2.7335110523966932
 10
335.71497224370756
 20
2.7371139328111553
 10
334.6581678346487
 20
2.702436450721791
 10
333.1135575746511
 20
2.673226376758919
 10
327.5690777563227
 20
2.3948323735565396
 10
326.9688530000612
 20
2.403281417779567
 10
326.2317018119177
 20
2.408869116823155
 10
325.8899769516417
 20
2.409513091115059
 10
325.2764109750787
 20
2.407174766465346
 10
324.3909575006856
 20
2.410333963689652
 10
324.00669000389485
 20
2.414540617294847
 10
323.46326276605504
 20
2.4229513046224156
 10
322.8192067405034
 20
2.435837364615793
 10
322.78953818603816
 20
2.436276363355944
 10
320.0962592369384
 20
2.4366997006578686
 10
314.3285501392607
 20
2.275640041157544
 10
313.2771835700938
 20
2.301131909202752
 10
312.6439019763636
 20
2.307903562074898
 10
311.09996827061445
 20
2.3065740174310463
 10
310.6925248123586
 20
2.301515415807785
 10
310.6419234070661
 20
2.3008871756292706
 10
307.8674046852887
 20
2.3306021449481023
 10
305.31058570831857
 20
2.417142381233532
 10
298.90687517026265
 20
2.377242359062791
 10
298.61838996398814
 20
2.376138429805451
 10
296.36860694101716
 20
2.3729379789900804
 10
295.44114334725987
 20
2.3332969211957675
 10
293.98710975329385
 20
2.2888005914888936
 10
291.9739612602315
 20
2.251614451744331
 10
291.0453798156341
 20
2.241649618805866
 10
289.9164772698279
 20
2.238271786235771
 10
288.32779265697104
 20
2.2218642779156994
 10
287.84801329007865
 20
2.2144301258734345
 10
286.8751117849205
 20
2.194135059404573
 10
283.8306538610905
 20
2.2313751356546163
 10
281.81100430999373
 20
2.2329878928176754
 10
280.77338621056805
 20
2.1411849032619443
 10
273.39827613958926
 20
1.944038449737718
 10
272.4916780584245
 20
1.9755963068134292
 10
271.84505499879145
 20
1.9892900741111248
 10
270.27802817010473
 20
2.0040944093116764
 10
269.6227464752231
 20
2.0026003995935184
 10
269.3885382304659
 20
1.998942479891241
 10
269.082967128379
 20
1.9926842515963585
 10
267.4763428000372
 20
1.950400063194138
 10
266.75005207368264
 20
1.9265822202198137
 10
265.9703838781304
 20
1.8955347503734288
 10
260.95617622833845
 20
1.9055479195756106
 10
258.8755810013698
 20
1.9967243723854722
 10
256.97446196726463
 20
1.9187614947416023
 10
256.7001010550184
 20
1.894024192674351
 10
253.90264725093
 20
1.7075663578049216
 10
253.77551743953305
 20
1.7020724227790538
 10
250.85976934275175
 20
1.6732304505516709
 10
250.85979120140243
 20
1.6710760441599746
 10
248.35954705629803
 20
1.6457085166649108
 10
248.05961781536917
 20
1.6273997767984838
 10
246.22997481643216
 20
1.47869772867449
 10
243.3441789445772
 20
1.3140121823008712
 10
242.05683985193
 20
1.2716227555507658
 10
241.7262252415712
 20
1.2589108339748236
 10
240.9389953593124
 20
1.224293873182603
 10
240.71037431310316
 20
1.214677446005851
 10
240.59979719454918
 20
1.2102374812261587
 10
239.68351073130157
 20
1.1804556902604304
 10
238.0801425376887
 20
1.1406014733827874
 10
237.82513530734093
 20
1.1311418911622013
 10
237.61862194393447
 20
1.1234812058627313
 10
234.31758024194653
 20
1.1173918170503043
 10
234.3175554977962
 20
1.110952721887429
 10
233.9157299790151
 20
1.1124968567072528
 10
233.29862156315588
 20
1.1068158468431193
 10
233.2770750385169
 20
1.106375966964606
 10
232.94925454400908
 20
1.0967879896559793
 10
230.0687214871361
 20
1.081716233604368
 10
229.41377863408076
 20
1.0940141286775429
 10
228.04547476712958
 20
1.099292410390035
 10
227.43078925265814
 20
1.0986693002528796
 10
226.57695019107493
 20
1.0925723421663065
 10
226.40074578040492
 20
1.0915728779596066
 10
224.06987311022976
 20
1.0817744584981597
 10
223.4930519487043
 20
1.0738030294031091
 10
222.58474890479383
 20
1.0525142497952515
 10
220.69100886322076
 20
1.0380242127884571
 10
220.15717636794514
 20
1.0423648409561679
 10
219.67612190400897
 20
1.0424192478889722
 10
218.83357459849358
 20
1.0357590340015577
 10
217.9555236966602
 20
1.0292562644388568
 10
217.85705508503042
 20
1.0279394064271514
 10
213.81157075087944
 20
1.1102891885224722
 10
210.81843205219369
 20
1.2723128498105893
 10
210.07941112011596
 20
1.298011562262161
 10
209.15849542934478
 20
1.29935668720384
 10
207.7601884504434
 20
1.2729211489367458
 10
203.2458523728823
 20
1.357492745086688
 10
202.4590883622587
 20
1.4018871147619052
 10
201.75924249551332
 20
1.4323496903854789
 10
201.00168818496337
 20
1.445145953026156
 10
199.62780042376352
 20
1.4494688521777448
 10
197.4061342922739
 20
1.4976104492436093
 10
192.07723439058847
 20
1.711867845700226
 10
190.2341682142067
 20
1.7646479951616811
 10
186.52590389630532
 20
1.8320292041062771
 10
185.37390043629924
 20
1.7991043272852494
 10
185.37139842859563
 20
1.8866466906838468
 10
178.6305310426756
 20
1.9514277322351177
 10
175.50547150723108
 20
2.2016515292070267
 10
173.70098680585383
 20
2.1161855763319863
 10
170.15932293243566
 20
2.0531200167149564
 10
170.15315489780744
 20
2.0531922967710443
 10
165.35359753771604
 20
2.3019292546906627
 10
164.54541057931354
 20
2.37636200995712
 10
161.38614829819318
 20
2.4842371854500698
 10
159.90190505677492
 20
2.493711832470524
 10
157.31079049883382
 20
2.565722288454026
 10
153.5067150285447
 20
2.792509426179322
 10
152.6965058494901
 20
2.866694824625597
 10
152.178030378684
 20
2.90963816077641
 10
151.55198185780563
 20
2.95602936424325
 10
151.14678884510582
 20
2.9832985012098447
 10
150.24386084458598
 20
3.037928212349982
 10
149.83833582085194
 20
3.0597098215347387
 10
148.75389642090713
 20
3.1105985881270044
 10
147.7710495785427
 20
3.1489647133944345
 10
145.97852416564405
 20
3.200546799739584
 10
145.87691178459738
 20
3.203556972335491
 10
145.11211097053567
 20
3.2268619669557097
 10
144.60154297410955
 20
3.23807113262518
 10
143.2661616331592
 20
3.2560184096237776
 10
142.95516071922287
 20
3.2596034606433477
 10
141.03999166964093
 20
3.31227125002232
 10
140.77200815066078
 20
3.323925114085398
 10
139.1663789784751
 20
3.365057901727198
 10
139.16647623713646
 20
3.3688544191259098
 10
137.3983101852166
 20
3.418384308352188
 10
134.34672983681307
 20
3.5657212641766023
 10
132.91036724794287
 20
3.5122974744838302
 10
132.07380401310303
 20
3.451788665510776
 10
128.0053724477916
 20
3.296015628220175
 10
127.23202788748705
 20
3.292663480503961
 10
126.06353475343082
 20
3.2419124674561317
 10
124.90256906793334
 20
3.1001008079770713
 10
119.75586654984303
 20
2.266261642153381
 10
117.60480966552151
 20
1.8309158449358733
 10
117.52042524072948
 20
1.8094349705384047
 10
111.32813503216266
 20
0.5759387899174726
 10
105.04050707203439
 20
0.0
 10
98.72716980284568
 20
0.0879964782894831
 10
92.4580363689214
 20
0.8389537622752528
 10
86.30253040658408
 20
2.2445558405137263
 10
80.3288172550811
 20
4.289237243148136
 10
78.30851373856888
 20
5.101849629517403
 10
77.98084417119736
 20
5.223974877375042
 10
77.29940719092838
 20
5.468627965694452
 10
76.38548248674658
 20
5.784352427256181
 10
76.38548248674658
 20
42.275640041157544
 10
61.38548248674658
 20
42.275640041157544
 10
61.38548248674658
 20
72.27564004115754
 10
76.38548248674658
 20
72.27564004115754
 10
76.38548248674658
 20
260.9473308251694
 10
61.38548248674658
 20
260.9473308251694
 10
61.38548248674658
 20
290.9473308251694
 10
76.38548248674658
 20
290.9473308251694
 10
76.38548248674658
 20
395.9473308251694
 10
61.38548248674658
 20
395.9473308251694
 10
61.38548248674658
 20
425.9473308251694
 10
76.38548248674658
 20
425.9473308251694
 10
76.38548248674658
 20
455.9473308251694
 10
0.0
 20
455.9473308251694
 10
0.01703519545276322
 20
456.1919228025792
 10
1.1947490080393663
 20
470.983765364467
 10
1.4654556340886984
 20
474.50194231392163
 10
1.587821374964733
 20
475.88333584128696
 10
1.8638956265650677
 20
478.6374282717626
 10
1.8820308835752257
 20
478.81566237938307
 10
3.392402505430482
 20
493.44278532639373
 10
3.5808404011210655
 20
495.05415882483385
  0
LWPOLYLINE
  5
91
330
17
100
AcDbEntity
  8
CUT_IN
100
AcDbPolyline
 90
69
 70
1
 10
573.5757960876288
 20
98.24384151624818
 10
575.3295708558229
 20
100.60853305056946
 10
576.8431204171973
 20
103.1337379363776
 10
578.1018684620851
 20
105.79513707020485
 10
579.0936925587129
 20
108.56709972352368
 10
579.8090408988435
 20
111.4229303806737
 10
580.2410242869125
 20
114.33512583127072
 10
580.3854824867466
 20
117.27564004115754
 10
580.3854824867466
 20
487.9473308251694
 10
580.2410242869125
 20
490.8878450350562
 10
579.8090408988435
 20
493.8000404856532
 10
579.0936925587129
 20
496.6558711428032
 10
578.1018684620851
 20
499.42783379612206
 10
576.8431204171973
 20
502.0892329299493
 10
575.3295708558229
 20
504.61443781575747
 10
573.5757960876288
 20
506.9791293500788
 10
571.5986859223431
 20
509.1605342607658
 10
569.417281011656
 20
511.1376444260515
 10
567.0525894773347
 20
512.8914191942457
 10
564.5273845915265
 20
514.4049687556201
 10
561.8659854576993
 20
515.6637168005079
 10
559.0940228043804
 20
516.6555408971357
 10
556.2381921472304
 20
517.3708892372663
 10
553.3259966966334
 20
517.8028726253353
 10
550.3854824867466
 20
517.9473308251694
 10
146.38548248674658
 20
517.9473308251694
 10
143.44496827685975
 20
517.8028726253353
 10
140.53277282626274
 20
517.3708892372663
 10
137.67694216911272
 20
516.6555408971357
 10
134.90497951579388
 20
515.6637168005079
 10
132.24358038196664
 20
514.4049687556201
 10
129.71837549615853
 20
512.8914191942457
 10
127.35368396183722
 20
511.1376444260515
 10
125.17227905115016
 20
509.1605342607658
 10
123.19516888586446
 20
506.9791293500788
 10
121.44139411767023
 20
504.61443781575747
 10
119.92784455629592
 20
502.08923292994933
 10
118.66909651140799
 20
499.42783379612206
 10
117.6772724147803
 20
496.6558711428032
 10
116.96192407464966
 20
493.80004048565326
 10
116.52994068658069
 20
490.8878450350562
 10
116.38548248674658
 20
487.9473308251694
 10
116.38548248674658
 20
117.27564004115754
 10
116.52994068658069
 20
114.33512583127072
 10
116.96192407464966
 20
111.42293038067368
 10
117.6772724147803
 20
108.56709972352368
 10
118.66909651140799
 20
105.79513707020485
 10
119.92784455629592
 20
103.1337379363776
 10
121.44139411767023
 20
100.60853305056946
 10
123.19516888586446
 20
98.24384151624818
 10
125.17227905115016
 20
96.06243660556112
 10
127.35368396183722
 20
94.08532644027542
 10
129.71837549615853
 20
92.33155167208119
 10
132.24358038196664
 20
90.81800211070689
 10
134.90497951579388
 20
89.55925406581895
 10
137.67694216911272
 20
88.56742996919127
 10
140.53277282626274
 20
87.85208162906062
 10
143.44496827685975
 20
87.42009824099165
 10
146.38548248674658
 20
87.27564004115754
 10
550.3854824867466
 20
87.27564004115754
 10
553.3259966966334
 20
87.42009824099165
 10
556.2381921472304
 20
87.85208162906062
 10
559.0940228043804
 20
88.56742996919127
 10
561.8659854576993
 20
89.55925406581895
 10
564.5273845915265
 20
90.81800211070689
 10
567.0525894773347
 20
92.33155167208119
 10
569.417281011656
 20
94.08532644027542
 10
571.5986859223431
 20
96.06243660556112
 10
573.5757960876288
 20
98.24384151624818
  0
LWPOLYLINE
  5
92
330
17
100
AcDbEntity
  8
CUT_IN
100
AcDbPolyline
 90
54
 70
1
 10
219.24724647297384
 20
52.57197785904677
 10
218.47254543466306
 20
52.68675341409636
 10
217.69453559454664
 20
52.59711070396986
 10
216.96623703750652
 20
52.30915873122086
 10
216.3372821066347
 20
51.84252094692903
 10
209.52345603531595
 20
51.95281246118495
 10
208.90993303332542
 20
52.43956152674673
 10
208.1913353923271
 20
52.75093358257132
 10
207.41663435401628
 20
52.86570913762091
 10
206.63862451389988
 20
52.77606642749441
 10
205.91032595685977
 20
52.488114454745414
 10
205.28137102598794
 20
52.02147667045358
 10
204.79462196042613
 20
51.40795366846302
 10
204.48324990460156
 20
50.689356027464726
 10
204.36847434955197
 20
49.91465498915392
 10
204.45811705967847
 20
49.13664514903752
 10
204.74606903242747
 20
48.40834659199737
 10
205.2127068167193
 20
47.779391661125544
 10
204.85965066247007
 20
25.967530207478603
 10
204.37290159690826
 20
25.354007205488074
 10
204.0615295410837
 20
24.63540956448975
 10
203.9467539860341
 20
23.86070852617894
 10
204.0363966961606
 20
23.082698686062542
 10
204.3243486689096
 20
22.35440012902245
 10
204.7909864532014
 20
21.725445198150624
 10
205.40450945519197
 20
21.238696132588814
 10
206.1231070961903
 20
20.927324076764194
 10
206.89780813450108
 20
20.812548521714632
 10
207.6758179746175
 20
20.90219123184113
 10
208.40411653165762
 20
21.19014320459013
 10
209.03307146252945
 20
21.656780988881962
 10
215.8468975338482
 20
21.54648947462607
 10
215.8468975338482
 20
21.546489474626014
 10
216.46042053583872
 20
21.05974040906426
 10
217.17901817683705
 20
20.748368353239698
 10
217.95371921514786
 20
20.63359279819008
 10
218.73172905526425
 20
20.723235508316577
 10
219.46002761230437
 20
21.011187481065576
 10
220.0889825431762
 20
21.47782526535741
 10
220.575731608738
 20
22.09134826734794
 10
220.88710366456257
 20
22.809945908346265
 10
221.00187921961214
 20
23.584646946657074
 10
220.91223650948567
 20
24.36265678677347
 10
220.62428453673667
 20
25.09095534381362
 10
220.15764675244483
 20
25.719910274685446
 10
220.51070290669406
 20
47.53177172833239
 10
220.99745197225587
 20
48.14529473032292
 10
221.30882402808044
 20
48.86389237132124
 10
221.42359958313003
 20
49.63859340963205
 10
221.33395687300356
 20
50.41660324974845
 10
221.04600490025453
 20
51.14490180678857
 10
220.57936711596273
 20
51.773856737660395
 10
219.96584411397217
 20
52.26060580322218
 10
219.24724647297384
 20
52.57197785904677
  0
LWPOLYLINE
  5
93
330
17
100
AcDbEntity
  8
CUT_IN
100
AcDbPolyline
 90
53
 70
1
 10
228.31193962205413
 20
64.47050324940963
 10
228.41416214318696
 20
65.2469603847172
 10
228.31193962205413
 20
66.02341752002474
 10
228.01223835454027
 20
66.7469603847172
 10
227.5354824867466
 20
67.36828072827683
 10
227.5354824867466
 20
77.18299935403826
 10
228.01223835454027
 20
77.80431969759789
 10
228.31193962205413
 20
78.52786256229035
 10
228.41416214318696
 20
79.30431969759789
 10
228.31193962205413
 20
80.08077683290546
 10
228.01223835454027
 20
80.80431969759792
 10
227.5354824867466
 20
81.42564004115755
 10
226.91416214318696
 20
81.90239590895123
 10
226.1906192784945
 20
82.20209717646512
 10
225.41416214318696
 20
82.30431969759789
 10
224.6377050078794
 20
82.20209717646512
 10
223.91416214318696
 20
81.9023959089512
 10
223.2928417996273
 20
81.42564004115755
 10
201.47812317386587
 20
81.42564004115755
 10
200.8568028303062
 20
81.90239590895123
 10
200.13325996561377
 20
82.20209717646512
 10
199.35680283030624
 20
82.30431969759789
 10
198.58034569499867
 20
82.20209717646512
 10
197.8568028303062
 20
81.9023959089512
 10
197.23548248674658
 20
81.42564004115755
 10
196.75872661895292
 20
80.80431969759789
 10
196.459025351439
 20
80.08077683290546
 10
196.3568028303062
 20
79.30431969759789
 10
196.459025351439
 20
78.52786256229035
 10
196.75872661895292
 20
77.80431969759789
 10
197.23548248674658
 20
77.18299935403826
 10
197.23548248674658
 20
67.36828072827683
 10
196.75872661895292
 20
66.7469603847172
 10
196.459025351439
 20
66.02341752002474
 10
196.3568028303062
 20
65.2469603847172
 10
196.459025351439
 20
64.47050324940963
 10
196.75872661895292
 20
63.74696038471717
 10
197.23548248674658
 20
63.12564004115754
 10
197.85680283030624
 20
62.64888417336388
 10
198.58034569499867
 20
62.34918290584997
 10
199.35680283030624
 20
62.2469603847172
 10
200.13325996561377
 20
62.34918290584997
 10
200.85680283030624
 20
62.64888417336388
 10
201.47812317386587
 20
63.12564004115754
 10
223.2928417996273
 20
63.12564004115754
 10
223.91416214318696
 20
62.64888417336388
 10
224.6377050078794
 20
62.34918290584997
 10
225.41416214318696
 20
62.2469603847172
 10
226.19061927849452
 20
62.34918290584997
 10
226.91416214318696
 20
62.64888417336388
 10
227.5354824867466
 20
63.12564004115754
 10
228.01223835454027
 20
63.7469603847172
 10
228.31193962205413
 20
64.47050324940963
  0
LWPOLYLINE
  5
94
330
17
100
AcDbEntity
  8
CUT_IN
100
AcDbPolyline
 90
53
 70
1
 10
95.30782206788064
 20
503.63974276370067
 10
95.53624046522245
 20
504.38884900620076
 10
95.56299273205022
 20
505.1715491039498
 10
95.38625574558989
 20
505.9345033387592
 10
95.01807383939706
 20
506.62571764036835
 10
96.13784993442613
 20
513.3478074527185
 10
96.71021919046589
 20
513.8823432901861
 10
97.12473738202209
 20
514.5468053249675
 10
97.35315577936387
 20
515.2959115674676
 10
97.37990804619167
 20
516.0786116652166
 10
97.20317105973135
 20
516.8415659000261
 10
96.83498915353852
 20
517.5327802016352
 10
96.30045331607084
 20
518.105149457675
 10
95.6359912812895
 20
518.5196676492311
 10
94.88688503878942
 20
518.7480860465729
 10
94.10418494104039
 20
518.7748383134007
 10
93.34123070623093
 20
518.5981013269404
 10
92.6500164046218
 20
518.2299194207476
 10
71.13181354307216
 20
521.8144548621038
 10
70.59727770560448
 20
522.3868241181436
 10
69.93281567082317
 20
522.8013423096999
 10
69.18370942832308
 20
523.0297607070416
 10
68.40100933057403
 20
523.0565129738694
 10
67.63805509576457
 20
522.8797759874091
 10
66.94684079415549
 20
522.5115940812162
 10
66.3744715381157
 20
521.9770582437486
 10
65.95995334655953
 20
521.3125962089673
 10
65.73153494921775
 20
520.5634899664672
 10
65.70478268238992
 20
519.7807898687181
 10
65.88151966885027
 20
519.0178356339087
 10
66.2497015750431
 20
518.3266213322995
 10
65.12992548001404
 20
511.60453151994943
 10
64.5575562239743
 20
511.06999568248176
 10
64.14303803241808
 20
510.4055336477004
 10
63.91461963507629
 20
509.65642740520036
 10
63.88786736824852
 20
508.8737273074513
 10
64.06460435470882
 20
508.11077307264185
 10
64.43278626090165
 20
507.4195587710327
 10
64.96732209836932
 20
506.847189514993
 10
65.63178413315069
 20
506.4326713234368
 10
66.38089037565072
 20
506.204252926095
 10
67.16359047339978
 20
506.17750065926725
 10
67.92654470820924
 20
506.3542376457275
 10
68.61775900981837
 20
506.7224195519204
 10
90.13596187136801
 20
503.1378841105641
 10
90.67049770883568
 20
502.5655148545243
 10
91.33495974361699
 20
502.15099666296805
 10
92.08406598611708
 20
501.92257826562627
 10
92.86676608386611
 20
501.8958259987985
 10
93.62972031867557
 20
502.07256298525886
 10
94.3209346202847
 20
502.4407448914517
 10
94.89330387632444
 20
502.9752807289193
 10
95.30782206788064
 20
503.63974276370067
  0
LWPOLYLINE
  5
95
330
17
100
AcDbEntity
  8
CUT_IN
100
AcDbPolyline
 90
55
 70
1
 10
54.075981653042845
 20
514.4431058276954
 10
54.31644101373348
 20
515.1884342268947
 10
54.35580173582895
 20
515.970601638868
 10
54.191381451165114
 20
516.7363046470819
 10
53.834385130424494
 20
517.4333618569108
 10
55.062331299834796
 20
524.136535594278
 10
55.64323941437033
 20
524.6617792418014
 10
56.06841050560291
 20
525.3194757295347
 10
56.30886986629349
 20
526.0648041287341
 10
56.34823058838896
 20
526.8469715407073
 10
56.18381030372518
 20
527.6126745489212
 10
55.826813982984504
 20
528.3097317587501
 10
55.301570335461236
 20
528.8906398732856
 10
54.64387384772783
 20
529.3158109645182
 10
53.898545448528466
 20
529.5562703252087
 10
53.11637803655526
 20
529.5956310473043
 10
52.35067502834136
 20
529.4312107626404
 10
51.65361781851249
 20
529.0742144418998
 10
30.19596754554584
 20
533.0050150580844
 10
30.19596754554584
 20
533.0050150580844
 10
29.670723898022516
 20
533.5859231726199
 10
29.013027410289112
 20
534.0110942638524
 10
28.267699011089803
 20
534.251553624543
 10
27.48553159911654
 20
534.2909143466386
 10
26.719828590902637
 20
534.1264940619747
 10
26.022771381073767
 20
533.7694977412341
 10
25.44186326653829
 20
533.2442540937108
 10
25.016692175305707
 20
532.5865576059774
 10
24.77623281461507
 20
531.841229206778
 10
24.736872092519604
 20
531.0590617948048
 10
24.901292377183438
 20
530.2933587865909
 10
25.25828869792406
 20
529.596301576762
 10
24.030342528513756
 20
522.8931278393948
 10
23.449434413978224
 20
522.3678841918714
 10
23.02426332274564
 20
521.7101877041381
 10
22.78380396205506
 20
520.9648593049387
 10
22.744443239959594
 20
520.1826918929655
 10
22.90886352462337
 20
519.4169888847516
 10
23.265859845364048
 20
518.7199316749227
 10
23.791103492887316
 20
518.1390235603872
 10
24.44879998062072
 20
517.7138524691546
 10
25.194128379820086
 20
517.473393108464
 10
25.97629579179329
 20
517.4340323863685
 10
26.741998800007195
 20
517.5984526710324
 10
27.439056009836065
 20
517.955448991773
 10
48.89670628280271
 20
514.0246483755884
 10
48.89670628280271
 20
514.0246483755884
 10
49.421949930326036
 20
513.4437402610529
 10
50.07964641805944
 20
513.0185691698204
 10
50.82497481725875
 20
512.7781098091298
 10
51.60714222923201
 20
512.7387490870342
 10
52.372845237445915
 20
512.9031693716981
 10
53.069902447274785
 20
513.2601656924387
 10
53.65081056181026
 20
513.785409339962
 10
54.075981653042845
 20
514.4431058276954
  0
LWPOLYLINE
  5
96
330
17
100
AcDbEntity
  8
CUT_IN
100
AcDbPolyline
 90
56
 70
1
 10
112.71500641626469
 20
549.3546829790806
 10
113.46139502922551
 20
549.5918309608118
 10
114.12097265275284
 20
550.0140779091001
 10
114.64879016180677
 20
550.592648392216
 10
115.00887766540501
 20
551.2881137878678
 10
121.1787380886673
 20
554.1817641305597
 10
121.1787380886673
 20
554.1817641305597
 10
121.9437035794524
 20
554.0139460007147
 10
122.72603803133902
 20
554.0498337728393
 10
123.47242664429984
 20
554.2869817545704
 10
124.13200426782717
 20
554.7092287028588
 10
124.6598217768811
 20
555.2877991859746
 10
125.01990928047934
 20
555.9832645816264
 10
125.18772741032438
 20
556.7482300724115
 10
125.15183963819985
 20
557.5305645242981
 10
124.9146916564687
 20
558.2769531372589
 10
124.49244470818033
 20
558.9365307607862
 10
123.91387422506452
 20
559.4643482698402
 10
123.21840882941268
 20
559.8244357734384
 10
113.95549256042142
 20
579.5748871838442
 10
113.95549256042145
 20
579.5748871838442
 10
114.12331069026646
 20
580.3398526746294
 10
114.08742291814195
 20
581.1221871265159
 10
113.85027493641078
 20
581.8685757394768
 10
113.42802798812241
 20
582.5281533630041
 10
112.8494575050066
 20
583.055970872058
 10
112.15399210935479
 20
583.4160583756562
 10
111.38902661856969
 20
583.5838765055013
 10
110.60669216668308
 20
583.5479887333768
 10
109.86030355372225
 20
583.3108407516456
 10
109.20072593019492
 20
582.8885938033573
 10
108.67290842114099
 20
582.3100233202415
 10
108.31282091754275
 20
581.6145579245896
 10
102.14296049428046
 20
578.7209075818976
 10
101.37799500349536
 20
578.8887257117426
 10
100.59566055160874
 20
578.8528379396182
 10
99.84927193864792
 20
578.6156899578871
 10
99.18969431512059
 20
578.1934430095987
 10
98.66187680606666
 20
577.6148725264828
 10
98.30178930246842
 20
576.9194071308309
 10
98.13397117262338
 20
576.1544416400459
 10
98.16985894474792
 20
575.3721071881594
 10
98.40700692647906
 20
574.6257185751984
 10
98.82925387476743
 20
573.9661409516712
 10
99.40782435788324
 20
573.4383234426172
 10
100.10328975353508
 20
573.0782359390189
 10
109.36620602252634
 20
553.3277845286132
 10
109.36620602252631
 20
553.3277845286132
 10
109.1983878926813
 20
552.562819037828
 10
109.2342756648058
 20
551.7804845859414
 10
109.47142364653698
 20
551.0340959729806
 10
109.89367059482535
 20
550.3745183494533
 10
110.47224107794113
 20
549.8467008403993
 10
111.16770647359297
 20
549.4866133368012
 10
111.93267196437807
 20
549.3187952069561
 10
112.71500641626469
 20
549.3546829790806
  0
LWPOLYLINE
  5
97
330
17
100
AcDbEntity
  8
CUT_IN
100
AcDbPolyline
 90
54
 70
1
 10
215.75446904358452
 20
574.6388063615277
 10
216.537427437624
 20
574.6211632325555
 10
217.2982735491297
 20
574.8067658225251
 10
217.98515697296023
 20
575.1829656216527
 10
218.55126773891
 20
575.7241252353274
 10
225.32600960170828
 20
576.4611887609128
 10
225.99524989656663
 20
576.0544301660009
 10
226.74696325248595
 20
575.83474366817
 10
227.5299216465254
 20
575.8171005391978
 10
228.2907677580311
 20
576.0027031291672
 10
228.97765118186163
 20
576.3789029282948
 10
229.54376194781145
 20
576.9200625419695
 10
229.95052054272332
 20
577.5893028368279
 10
230.17020704055437
 20
578.3410161927472
 10
230.18785016952654
 20
579.1239745867866
 10
230.002247579557
 20
579.8848206982923
 10
229.62604778042942
 20
580.5717041221228
 10
229.08488816675475
 20
581.1378148880726
 10
226.72546082969984
 20
602.824563177346
 10
226.72546082969984
 20
602.824563177346
 10
227.13221942461172
 20
603.4938034722044
 10
227.35190592244277
 20
604.2455168281238
 10
227.36954905141494
 20
605.0284752221631
 10
227.18394646144543
 20
605.7893213336688
 10
226.8077466623178
 20
606.4762047574993
 10
226.26658704864317
 20
607.0423155234491
 10
225.59734675378482
 20
607.4490741183611
 10
224.8456333978655
 20
607.6687606161921
 10
224.06267500382603
 20
607.6864037451643
 10
223.30182889232032
 20
607.5008011551947
 10
222.6149454684898
 20
607.1246013560672
 10
222.04883470254
 20
606.5834417423926
 10
215.27409283974174
 20
605.846378216807
 10
214.60485254488339
 20
606.2531368117188
 10
213.85313918896406
 20
606.47282330955
 10
213.07018079492462
 20
606.4904664385222
 10
212.30933468341888
 20
606.3048638485526
 10
211.6224512595884
 20
605.9286640494249
 10
211.05634049363857
 20
605.3875044357503
 10
210.64958189872672
 20
604.718264140892
 10
210.42989540089565
 20
603.9665507849727
 10
210.41225227192348
 20
603.1835923909332
 10
210.597854861893
 20
602.4227462794274
 10
210.9740546610206
 20
601.7358628555969
 10
211.51521427469527
 20
601.1697520896472
 10
213.87464161175018
 20
579.4830038003738
 10
213.4678830168383
 20
578.8137635055155
 10
213.24819651900725
 20
578.0620501495962
 10
213.23055339003508
 20
577.2790917555567
 10
213.4161559800046
 20
576.5182456440509
 10
213.79235577913218
 20
575.8313622202204
 10
214.33351539280685
 20
575.2652514542706
 10
215.0027556876652
 20
574.8584928593588
 10
215.75446904358452
 20
574.6388063615277
  0
LWPOLYLINE
  5
98
330
17
100
AcDbEntity
  8
CUT_IN
100
AcDbPolyline
 90
56
 70
1
 10
341.54959614268137
 20
580.938738916135
 10
342.3254372071841
 20
580.8319411192103
 10
343.10248343230205
 20
580.929584812436
 10
343.82778040192295
 20
581.2250157394824
 10
344.45190032617705
 20
581.6981007708941
 10
351.2665005501126
 20
581.6579294348712
 10
351.2665005501126
 20
581.6579294348712
 10
351.8849997228088
 20
581.1775192974148
 10
352.6067633402886
 20
580.8735581037085
 10
353.3826044047914
 20
580.7667603067839
 10
354.15965062990927
 20
580.8644040000095
 10
354.88494759953016
 20
581.159834927056
 10
355.5090675237843
 20
581.6329199584677
 10
355.98947766124064
 20
582.2514191311639
 10
356.2934388549469
 20
582.9731827486437
 10
356.4002366518715
 20
583.7490238131464
 10
356.3025929586459
 20
584.5260700382644
 10
356.0071620315995
 20
585.2513670078853
 10
355.5340770001878
 20
585.8754869321394
 10
355.6626701880049
 20
607.6898265396817
 10
355.6626701880049
 20
607.6898265396817
 10
356.1430803254612
 20
608.308325712378
 10
356.44704151916744
 20
609.0300893298577
 10
356.5538393160921
 20
609.8059303943605
 10
356.45619562286646
 20
610.5829766194784
 10
356.16076469582003
 20
611.3082735890994
 10
355.68767966440834
 20
611.9323935133534
 10
355.0691804917121
 20
612.4128036508098
 10
354.34741687423235
 20
612.7167648445161
 10
353.57157580972955
 20
612.8235626414407
 10
352.7945295846116
 20
612.725918948215
 10
352.0692326149907
 20
612.4304880211687
 10
351.4451126907366
 20
611.9574029897569
 10
344.63051246680106
 20
611.9975743257799
 10
344.63051246680106
 20
611.9975743257799
 10
344.01201329410486
 20
612.4779844632362
 10
343.2902496766251
 20
612.7819456569425
 10
342.51440861212234
 20
612.8887434538672
 10
341.7373623870044
 20
612.7910997606416
 10
341.0120654173835
 20
612.4956688335951
 10
340.3879454931294
 20
612.0225838021834
 10
339.907535355673
 20
611.4040846294872
 10
339.6035741619668
 20
610.6823210120074
 10
339.49677636504214
 20
609.9064799475046
 10
339.59442005826776
 20
609.1294337223867
 10
339.8898509853142
 20
608.4041367527658
 10
340.3629360167259
 20
607.7800168285116
 10
340.2343428289088
 20
585.9656772209694
 10
339.75393269145246
 20
585.3471780482731
 10
339.4499714977462
 20
584.6254144307934
 10
339.3431737008216
 20
583.8495733662905
 10
339.4408173940472
 20
583.0725271411727
 10
339.7362483210936
 20
582.3472301715517
 10
340.2093333525053
 20
581.7231102472977
 10
340.8278325252016
 20
581.2427001098413
 10
341.54959614268137
 20
580.938738916135
  0
LWPOLYLINE
  5
99
330
17
100
AcDbEntity
  8
CUT_IN
100
AcDbPolyline
 90
53
 70
1
 10
94.667316413473
 20
591.7436759243992
 10
95.45011793526388
 20
591.7672747438323
 10
96.20013831810886
 20
591.9926733953675
 10
96.86626491238428
 20
592.4045113333914
 10
97.40310229151657
 20
592.9747224830221
 10
97.77406587528358
 20
593.6644478967307
 10
103.9886028683498
 20
596.4608598674731
 10
104.75083889901725
 20
596.2810506342588
 10
105.53364042080813
 20
596.304649453692
 10
106.2836608036531
 20
596.5300481052271
 10
106.94978739792856
 20
596.9418860432511
 10
107.48662477706083
 20
597.5120971928817
 10
107.85758836082783
 20
598.2018226065903
 10
108.03739759404212
 20
598.9640586372577
 10
108.01379877460894
 20
599.7468601590487
 10
107.78840012307379
 20
600.4968805418937
 10
107.37656218504989
 20
601.1630071361691
 10
106.8063510354192
 20
601.6998445153014
 10
106.1166256217106
 20
602.0708080990684
 10
97.16498085785372
 20
621.9642744823525
 10
97.344790091068
 20
622.72651051302
 10
97.32119127163483
 20
623.5093120348108
 10
97.09579262009967
 20
624.2593324176557
 10
96.68395468207578
 20
624.9254590119313
 10
96.11374353244508
 20
625.4622963910635
 10
95.42401811873648
 20
625.8332599748305
 10
94.66178208806903
 20
626.0130692080448
 10
93.87898056627816
 20
625.9894703886116
 10
93.12896018343318
 20
625.7640717370765
 10
92.46283358915775
 20
625.3522337990526
 10
91.92599621002546
 20
624.7820226494218
 10
91.55503262625848
 20
624.0922972357133
 10
85.34049563319223
 20
621.2958852649709
 10
84.57825960252478
 20
621.4756944981852
 10
83.79545808073391
 20
621.4520956787521
 10
83.04543769788893
 20
621.2266970272169
 10
82.37931110361347
 20
620.8148590891931
 10
81.84247372448118
 20
620.2446479395624
 10
81.4715101407142
 20
619.5549225258537
 10
81.29170090749994
 20
618.7926864951862
 10
81.31529972693312
 20
618.0098849733954
 10
81.54069837846828
 20
617.2598645905505
 10
81.95253631649217
 20
616.593737996275
 10
82.52274746612284
 20
616.0569006171427
 10
83.21247287983147
 20
615.6859370333757
 10
92.16411764368831
 20
595.7924706500916
 10
91.98430841047406
 20
595.0302346194242
 10
92.00790722990723
 20
594.2474330976331
 10
92.23330588144233
 20
593.4974127147882
 10
92.64514381946626
 20
592.8312861205128
 10
93.21535496909692
 20
592.2944487413805
 10
93.90508038280555
 20
591.9234851576135
 10
94.667316413473
 20
591.7436759243992
  0
LWPOLYLINE
  5
9A
330
17
100
AcDbEntity
  8
CUT_IN
100
AcDbPolyline
 90
54
 70
1
 10
211.62568844547235
 20
618.6845087663063
 10
212.376657121919
 20
618.4622900141886
 10
213.1595516064599
 20
618.4420081781723
 10
213.92101893376793
 20
618.6250454318645
 10
214.60916636387125
 20
618.9989280889092
 10
215.17709778662575
 20
619.5381766640996
 10
221.9542852999794
 20
620.2524030687803
 10
222.6221508940664
 20
619.8433912412843
 10
223.37311957051304
 20
619.6211724891666
 10
224.15601405505396
 20
619.6008906531503
 10
224.91748138236198
 20
619.7839279068423
 10
225.60562881246528
 20
620.1578105638873
 10
226.1735602352198
 20
620.6970591390776
 10
226.58257206271583
 20
621.3649247331646
 10
226.8047908148335
 20
622.1158934096113
 10
226.82507265084985
 20
622.8987878941522
 10
226.6420353971577
 20
623.6602552214601
 10
226.2681527401128
 20
624.3484026515634
 10
225.72890416492248
 20
624.916334074318
 10
223.4425811472268
 20
646.6109111796661
 10
223.85159297472282
 20
647.2787767737532
 10
224.0738117268405
 20
648.0297454501998
 10
224.09409356285684
 20
648.8126399347407
 10
223.9110563091647
 20
649.5741072620488
 10
223.5371736521198
 20
650.262254692152
 10
222.99792507692945
 20
650.8301861149066
 10
222.3300594828425
 20
651.2391979424026
 10
221.57909080639584
 20
651.4614166945203
 10
220.79619632185495
 20
651.4816985305366
 10
220.03472899454692
 20
651.2986612768445
 10
219.3465815644436
 20
650.9247786197996
 10
218.7786501416891
 20
650.3855300446093
 10
212.00146262833542
 20
649.6713036399285
 10
212.00146262833542
 20
649.6713036399286
 10
211.33359703424847
 20
650.0803154674246
 10
210.5826283578018
 20
650.3025342195423
 10
209.7997338732609
 20
650.3228160555586
 10
209.0382665459529
 20
650.1397788018664
 10
208.35011911584957
 20
649.7658961448217
 10
207.78218769309504
 20
649.2266475696313
 10
207.37317586559902
 20
648.5587819755443
 10
207.15095711348135
 20
647.8078132990977
 10
207.130675277465
 20
647.0249188145567
 10
207.31371253115714
 20
646.2634514872487
 10
207.68759518820204
 20
645.5753040571453
 10
208.22684376339237
 20
645.0073726343909
 10
210.51316678108805
 20
623.3127955290427
 10
210.10415495359203
 20
622.6449299349557
 10
209.88193620147436
 20
621.8939612585091
 10
209.861654365458
 20
621.1110667739681
 10
210.04469161915014
 20
620.3495994466601
 10
210.41857427619505
 20
619.6614520165568
 10
210.95782285138537
 20
619.0935205938023
 10
211.62568844547235
 20
618.6845087663063
  0
LWPOLYLINE
  5
9B
330
17
100
AcDbEntity
  8
CUT_IN
100
AcDbPolyline
 90
57
 70
1
 10
341.80511801855783
 20
624.2850550946769
 10
342.58095908306063
 20
624.1782572977522
 10
343.3580053081786
 20
624.2759009909779
 10
344.0833022777995
 20
624.5713319180243
 10
344.7074222020536
 20
625.044416949436
 10
351.52202242598906
 20
625.0042456134131
 10
351.52202242598906
 20
625.0042456134131
 10
352.1405215986853
 20
624.5238354759567
 10
352.8622852161651
 20
624.2198742822504
 10
353.63812628066785
 20
624.1130764853258
 10
354.4151725057858
 20
624.2107201785514
 10
355.1404694754067
 20
624.5061511055978
 10
355.7645893996608
 20
624.9792361370096
 10
356.24499953711717
 20
625.5977353097057
 10
356.5489607308234
 20
626.3194989271856
 10
356.65575852774805
 20
627.0953399916883
 10
356.5581148345224
 20
627.8723862168063
 10
356.26268390747595
 20
628.5976831864272
 10
355.78959887606425
 20
629.2218031106813
 10
355.91819206388135
 20
651.0361427182236
 10
355.91819206388135
 20
651.0361427182236
 10
356.3986022013377
 20
651.6546418909198
 10
356.70256339504397
 20
652.3764055083996
 10
356.8093611919686
 20
653.1522465729024
 10
356.711717498743
 20
653.9292927980202
 10
356.41628657169656
 20
654.6545897676413
 10
355.94320154028486
 20
655.2787096918953
 10
355.3247023675886
 20
655.7591198293517
 10
354.6029387501088
 20
656.063081023058
 10
353.8270976856061
 20
656.1698788199826
 10
353.05005146048813
 20
656.0722351267569
 10
352.32475449086724
 20
655.7768041997106
 10
351.70063456661313
 20
655.3037191682988
 10
344.8860343426776
 20
655.3438905043217
 10
344.8860343426776
 20
655.3438905043217
 10
344.2675351699814
 20
655.8243006417781
 10
343.5457715525016
 20
656.1282618354844
 10
342.7699304879988
 20
656.235059632409
 10
341.9928842628809
 20
656.1374159391835
 10
341.26758729326
 20
655.841985012137
 10
340.64346736900586
 20
655.3688999807252
 10
340.16305723154954
 20
654.7504008080291
 10
339.8590960378433
 20
654.0286371905493
 10
339.75229824091866
 20
653.2527961260465
 10
339.8499419341443
 20
652.4757499009286
 10
340.1453728611907
 20
651.7504529313077
 10
340.6184578926024
 20
651.1263330070535
 10
340.4898647047853
 20
629.3119933995113
 10
340.4898647047853
 20
629.3119933995113
 10
340.009454567329
 20
628.693494226815
 10
339.70549337362274
 20
627.9717306093353
 10
339.5986955766981
 20
627.1958895448324
 10
339.6963392699237
 20
626.4188433197146
 10
339.99177019697015
 20
625.6935463500936
 10
340.46485522838185
 20
625.0694264258395
 10
341.0833544010781
 20
624.5890162883832
 10
341.80511801855783
 20
624.2850550946769
  0
LWPOLYLINE
  5
9C
330
17
100
AcDbEntity
  8
CUT_IN
100
AcDbPolyline
 90
53
 70
1
 10
490.13234045959325
 20
52.77606642749441
 10
489.35433061947685
 20
52.86570913762091
 10
488.57962958116605
 20
52.75093358257132
 10
487.8610319401678
 20
52.43956152674673
 10
487.24750893817725
 20
51.95281246118495
 10
480.4336828668585
 20
51.84252094692903
 10
479.80472793598665
 20
52.30915873122086
 10
479.0764293789465
 20
52.59711070396986
 10
478.2984195388301
 20
52.68675341409636
 10
477.5237185005193
 20
52.57197785904677
 10
476.805120859521
 20
52.26060580322218
 10
476.19159785753044
 20
51.773856737660395
 10
475.72496007323866
 20
51.14490180678857
 10
475.4370081004896
 20
50.41660324974845
 10
475.34736539036317
 20
49.63859340963205
 10
475.4621409454127
 20
48.86389237132124
 10
475.7735130012373
 20
48.14529473032292
 10
476.2602620667991
 20
47.53177172833239
 10
476.6133182210483
 20
25.719910274685446
 10
476.14668043675647
 20
25.09095534381362
 10
475.8587284640075
 20
24.36265678677347
 10
475.76908575388103
 20
23.584646946657074
 10
475.8838613089306
 20
22.809945908346265
 10
476.19523336475515
 20
22.09134826734794
 10
476.68198243031696
 20
21.47782526535741
 10
477.3109373611888
 20
21.011187481065576
 10
478.0392359182289
 20
20.723235508316577
 10
478.8172457583453
 20
20.63359279819008
 10
479.5919467966561
 20
20.748368353239698
 10
480.31054443765447
 20
21.05974040906426
 10
480.924067439645
 20
21.54648947462607
 10
487.7378935109637
 20
21.656780988881962
 10
488.36684844183554
 20
21.19014320459013
 10
489.09514699887563
 20
20.90219123184113
 10
489.8731568389921
 20
20.812548521714632
 10
490.64785787730284
 20
20.927324076764194
 10
491.3664555183012
 20
21.238696132588814
 10
491.97997852029175
 20
21.725445198150624
 10
492.4466163045836
 20
22.35440012902245
 10
492.7345682773325
 20
23.082698686062542
 10
492.8242109874591
 20
23.86070852617894
 10
492.70943543240946
 20
24.63540956448975
 10
492.3980633765849
 20
25.354007205488074
 10
491.9113143110231
 20
25.967530207478603
 10
491.55825815677383
 20
47.779391661125544
 10
492.02489594106567
 20
48.40834659199737
 10
492.3128479138147
 20
49.13664514903752
 10
492.40249062394116
 20
49.91465498915392
 10
492.2877150688916
 20
50.689356027464726
 10
491.97634301306704
 20
51.40795366846305
 10
491.4895939475052
 20
52.02147667045358
 10
490.8606390166334
 20
52.488114454745414
 10
490.13234045959325
 20
52.77606642749441
  0
LWPOLYLINE
  5
9D
330
17
100
AcDbEntity
  8
CUT_IN
100
AcDbPolyline
 90
56
 70
1
 10
355.7318840524822
 20
52.72802841312631
 10
354.9578357441678
 20
52.84712645338075
 10
354.1793376513194
 20
52.76182788230179
 10
353.44944313243553
 20
52.4779456565459
 10
352.8178932927706
 20
52.014825880660794
 10
346.0047890039085
 20
52.16314950450112
 10
345.3939925252791
 20
52.65331558705958
 10
344.67714411453517
 20
52.9686939040229
 10
343.9030958062208
 20
53.08779194427734
 10
343.12459771337234
 20
53.00249337319838
 10
342.3947031944885
 20
52.71861114744249
 10
341.7631533548235
 20
52.25549137155738
 10
341.272987272265
 20
51.64469489292799
 10
340.95760895530174
 20
50.92784648218404
 10
340.83851091504727
 20
50.15379817386969
 10
340.92380948612623
 20
49.37530008102124
 10
341.20769171188215
 20
48.6454055621374
 10
341.67081148776725
 20
48.013855722472385
 10
341.1960100620123
 20
26.204304779657377
 10
341.1960100620123
 20
26.204304779657377
 10
340.70584397945385
 20
25.59350830102801
 10
340.39046566249056
 20
24.87665989028403
 10
340.2713676222361
 20
24.102611581969654
 10
340.35666619331505
 20
23.324113489121203
 10
340.64054841907097
 20
22.59421897023742
 10
341.1036681949561
 20
21.962669130572408
 10
341.71446467358544
 20
21.472503048013948
 10
342.4313130843294
 20
21.1571247310506
 10
343.2053613926438
 20
21.03802669079613
 10
343.9838594854922
 20
21.123325261875095
 10
344.713754004376
 20
21.407207487631013
 10
345.34530384404104
 20
21.870327263516117
 10
352.1584081329031
 20
21.72200363967579
 10
352.1584081329031
 20
21.72200363967579
 10
352.7692046115325
 20
21.23183755711733
 10
353.48605302227645
 20
20.916459240153984
 10
354.2601013305908
 20
20.79736119989957
 10
355.0385994234393
 20
20.882659770978535
 10
355.76849394232306
 20
21.166541996734395
 10
356.4000437819881
 20
21.6296617726195
 10
356.89020986454653
 20
22.240458251248924
 10
357.2055881815099
 20
22.957306661992902
 10
357.3246862217643
 20
23.731354970307223
 10
357.2393876506854
 20
24.509853063155674
 10
356.95550542492947
 20
25.239747582039513
 10
356.49238564904437
 20
25.871297421704526
 10
356.96718707479926
 20
47.680848364519534
 10
356.96718707479926
 20
47.680848364519534
 10
357.4573531573577
 20
48.2916448431489
 10
357.77273147432106
 20
49.00849325389288
 10
357.8918295145755
 20
49.78254156220726
 10
357.80653094349657
 20
50.56103965505568
 10
357.52264871774065
 20
51.29093417393952
 10
357.05952894185555
 20
51.9224840136045
 10
356.4487324632262
 20
52.41265009616299
 10
355.7318840524822
 20
52.72802841312631
  0
LWPOLYLINE
  5
9E
330
17
100
AcDbEntity
  8
CUT_IN
100
AcDbPolyline
 90
53
 70
1
 10
500.0122383545403
 20
63.7469603847172
 10
500.3119396220542
 20
64.47050324940963
 10
500.41416214318696
 20
65.2469603847172
 10
500.3119396220542
 20
66.02341752002474
 10
500.0122383545403
 20
66.7469603847172
 10
499.53548248674656
 20
67.36828072827683
 10
499.53548248674656
 20
77.18299935403826
 10
500.0122383545403
 20
77.80431969759789
 10
500.3119396220542
 20
78.52786256229035
 10
500.41416214318696
 20
79.30431969759789
 10
500.3119396220542
 20
80.08077683290546
 10
500.0122383545403
 20
80.80431969759792
 10
499.53548248674656
 20
81.42564004115755
 10
498.9141621431869
 20
81.90239590895123
 10
498.1906192784945
 20
82.20209717646512
 10
497.4141621431869
 20
82.30431969759789
 10
496.6377050078794
 20
82.20209717646512
 10
495.9141621431869
 20
81.9023959089512
 10
495.2928417996273
 20
81.42564004115755
 10
473.47812317386587
 20
81.42564004115755
 10
472.8568028303062
 20
81.90239590895123
 10
472.1332599656138
 20
82.20209717646512
 10
471.3568028303062
 20
82.30431969759789
 10
470.58034569499864
 20
82.20209717646512
 10
469.8568028303062
 20
81.9023959089512
 10
469.2354824867466
 20
81.42564004115755
 10
468.7587266189529
 20
80.80431969759789
 10
468.45902535143904
 20
80.08077683290546
 10
468.3568028303062
 20
79.30431969759789
 10
468.45902535143904
 20
78.52786256229035
 10
468.7587266189529
 20
77.80431969759789
 10
469.2354824867466
 20
77.18299935403826
 10
469.2354824867466
 20
67.36828072827683
 10
468.7587266189529
 20
66.7469603847172
 10
468.45902535143904
 20
66.02341752002474
 10
468.3568028303062
 20
65.2469603847172
 10
468.45902535143904
 20
64.47050324940963
 10
468.7587266189529
 20
63.74696038471717
 10
469.2354824867466
 20
63.12564004115754
 10
469.8568028303062
 20
62.64888417336388
 10
470.58034569499864
 20
62.34918290584997
 10
471.3568028303062
 20
62.2469603847172
 10
472.1332599656138
 20
62.34918290584997
 10
472.8568028303062
 20
62.64888417336388
 10
473.47812317386587
 20
63.12564004115754
 10
495.2928417996273
 20
63.12564004115754
 10
495.9141621431869
 20
62.64888417336388
 10
496.6377050078794
 20
62.34918290584997
 10
497.4141621431869
 20
62.2469603847172
 10
498.1906192784945
 20
62.34918290584997
 10
498.9141621431869
 20
62.64888417336388
 10
499.53548248674656
 20
63.12564004115754
 10
500.0122383545403
 20
63.7469603847172
  0
LWPOLYLINE
  5
9F
330
17
100
AcDbEntity
  8
CUT_IN
100
AcDbPolyline
 90
53
 70
1
 10
599.5677939137618
 20
516.841565900026
 10
599.3910569273015
 20
516.0786116652166
 10
599.4178091941293
 20
515.2959115674676
 10
599.6462275914711
 20
514.5468053249674
 10
600.0607457830273
 20
513.8823432901861
 10
600.633115039067
 20
513.3478074527185
 10
601.7528911340961
 20
506.62571764036835
 10
601.3847092279033
 20
505.9345033387592
 10
601.2079722414429
 20
505.17154910394976
 10
601.2347245082708
 20
504.38884900620076
 10
601.4631429056126
 20
503.63974276370067
 10
601.8776610971687
 20
502.9752807289193
 10
602.4500303532085
 20
502.4407448914517
 10
603.1412446548176
 20
502.07256298525886
 10
603.9041988896271
 20
501.8958259987985
 10
604.686898987376
 20
501.92257826562627
 10
605.4360052298762
 20
502.15099666296805
 10
606.1004672646575
 20
502.5655148545243
 10
606.6350031021252
 20
503.1378841105641
 10
628.1532059636747
 20
506.7224195519204
 10
628.8444202652839
 20
506.3542376457275
 10
629.6073745000933
 20
506.17750065926725
 10
630.3900745978424
 20
506.204252926095
 10
631.1391808403425
 20
506.4326713234368
 10
631.8036428751238
 20
506.84718951499303
 10
632.3381787125916
 20
507.4195587710327
 10
632.7063606187844
 20
508.1107730726419
 10
632.8830976052446
 20
508.8737273074513
 10
632.8563453384169
 20
509.65642740520036
 10
632.6279269410751
 20
510.40553364770045
 10
632.2134087495189
 20
511.06999568248176
 10
631.6410394934792
 20
511.60453151994943
 10
630.5212633984501
 20
518.3266213322995
 10
630.8894453046429
 20
519.0178356339087
 10
631.0661822911032
 20
519.7807898687181
 10
631.0394300242754
 20
520.5634899664672
 10
630.8110116269336
 20
521.3125962089673
 10
630.3964934353775
 20
521.9770582437486
 10
629.8241241793377
 20
522.5115940812162
 10
629.1329098777286
 20
522.8797759874091
 10
628.3699556429191
 20
523.0565129738694
 10
627.5872555451701
 20
523.0297607070416
 10
626.83814930267
 20
522.8013423096999
 10
626.1736872678887
 20
522.3868241181436
 10
625.639151430421
 20
521.8144548621038
 10
604.1209485688713
 20
518.2299194207476
 10
603.4297342672622
 20
518.5981013269404
 10
602.6667800324528
 20
518.7748383134007
 10
601.8840799347038
 20
518.7480860465729
 10
601.1349736922036
 20
518.5196676492311
 10
600.4705116574223
 20
518.1051494576749
 10
599.9359758199546
 20
517.5327802016352
 10
599.5677939137618
 20
516.841565900026
  0
LWPOLYLINE
  5
A0
330
17
100
AcDbEntity
  8
CUT_IN
100
AcDbPolyline
 90
53
 70
1
 10
640.4227343851041
 20
526.8469715407073
 10
640.4620951071997
 20
526.0648041287341
 10
640.7025544678902
 20
525.3194757295347
 10
641.1277255591228
 20
524.6617792418014
 10
641.7086336736584
 20
524.136535594278
 10
642.9365798430687
 20
517.4333618569108
 10
642.579583522328
 20
516.7363046470819
 10
642.4151632376643
 20
515.970601638868
 10
642.4545239597596
 20
515.1884342268947
 10
642.6949833204503
 20
514.4431058276954
 10
643.120154411683
 20
513.785409339962
 10
643.7010625262184
 20
513.2601656924387
 10
644.3981197360472
 20
512.9031693716981
 10
645.1638227442611
 20
512.7387490870342
 10
645.9459901562344
 20
512.7781098091298
 10
646.6913185554338
 20
513.0185691698204
 10
647.3490150431671
 20
513.4437402610529
 10
647.8742586906905
 20
514.0246483755884
 10
669.331908963657
 20
517.955448991773
 10
670.028966173486
 20
517.5984526710324
 10
670.7946691816999
 20
517.4340323863685
 10
671.5768365936731
 20
517.473393108464
 10
672.3221649928724
 20
517.7138524691546
 10
672.9798614806059
 20
518.1390235603872
 10
673.5051051281291
 20
518.7199316749227
 10
673.8621014488698
 20
519.4169888847516
 10
674.0265217335336
 20
520.1826918929655
 10
673.987161011438
 20
520.9648593049387
 10
673.7467016507476
 20
521.7101877041381
 10
673.3215305595149
 20
522.3678841918714
 10
672.7406224449794
 20
522.8931278393948
 10
671.5126762755691
 20
529.596301576762
 10
671.8696725963098
 20
530.2933587865909
 10
672.0340928809735
 20
531.0590617948048
 10
671.9947321588782
 20
531.841229206778
 10
671.7542727981875
 20
532.5865576059774
 10
671.3291017069548
 20
533.2442540937108
 10
670.7481935924194
 20
533.7694977412341
 10
670.0511363825906
 20
534.1264940619747
 10
669.2854333743767
 20
534.2909143466386
 10
668.5032659624034
 20
534.251553624543
 10
667.757937563204
 20
534.0110942638524
 10
667.1002410754706
 20
533.5859231726199
 10
666.5749974279473
 20
533.0050150580844
 10
645.1173471549807
 20
529.0742144418998
 10
644.4202899451518
 20
529.4312107626404
 10
643.6545869369379
 20
529.5956310473043
 10
642.8724195249647
 20
529.5562703252087
 10
642.1270911257653
 20
529.3158109645182
 10
641.4693946380319
 20
528.8906398732856
 10
640.9441509905087
 20
528.3097317587501
 10
640.587154669768
 20
527.6126745489212
 10
640.4227343851041
 20
526.8469715407073
  0
LWPOLYLINE
  5
A1
330
17
100
AcDbEntity
  8
CUT_IN
100
AcDbPolyline
 90
53
 70
1
 10
572.638960705666
 20
554.7092287028588
 10
573.2985383291933
 20
554.2869817545704
 10
574.0449269421541
 20
554.0498337728393
 10
574.8272613940408
 20
554.0139460007147
 10
575.5922268848259
 20
554.1817641305597
 10
581.7620873080882
 20
551.2881137878678
 10
582.1221748116864
 20
550.592648392216
 10
582.6499923207404
 20
550.0140779091001
 10
583.3095699442677
 20
549.5918309608118
 10
584.0559585572285
 20
549.3546829790806
 10
584.8382930091151
 20
549.3187952069561
 10
585.6032584999002
 20
549.4866133368012
 10
586.298723895552
 20
549.8467008403993
 10
586.8772943786678
 20
550.3745183494533
 10
587.2995413269562
 20
551.0340959729806
 10
587.5366893086873
 20
551.7804845859415
 10
587.5725770808119
 20
552.562819037828
 10
587.4047589509669
 20
553.3277845286132
 10
596.667675219958
 20
573.0782359390189
 10
597.36314061561
 20
573.4383234426172
 10
597.9417110987257
 20
573.9661409516712
 10
598.3639580470141
 20
574.6257185751984
 10
598.6011060287452
 20
575.3721071881594
 10
598.6369938008697
 20
576.1544416400459
 10
598.4691756710247
 20
576.9194071308309
 10
598.1090881674265
 20
577.6148725264828
 10
597.5812706583725
 20
578.1934430095987
 10
596.9216930348452
 20
578.6156899578871
 10
596.1753044218844
 20
578.8528379396182
 10
595.3929699699978
 20
578.8887257117426
 10
594.6280044792127
 20
578.7209075818976
 10
588.4581440559505
 20
581.6145579245896
 10
588.0980565523522
 20
582.3100233202415
 10
587.5702390432982
 20
582.8885938033573
 10
586.9106614197709
 20
583.3108407516456
 10
586.1642728068101
 20
583.5479887333768
 10
585.3819383549235
 20
583.5838765055013
 10
584.6169728641383
 20
583.4160583756562
 10
583.9215074684865
 20
583.055970872058
 10
583.3429369853708
 20
582.5281533630041
 10
582.9206900370824
 20
581.8685757394768
 10
582.6835420553512
 20
581.1221871265159
 10
582.6476542832268
 20
580.3398526746294
 10
582.8154724130717
 20
579.5748871838442
 10
573.5525561440804
 20
559.8244357734384
 10
572.8570907484286
 20
559.4643482698402
 10
572.2785202653129
 20
558.9365307607862
 10
571.8562733170245
 20
558.2769531372589
 10
571.6191253352933
 20
557.5305645242981
 10
571.5832375631687
 20
556.7482300724115
 10
571.7510556930138
 20
555.9832645816264
 10
572.111143196612
 20
555.2877991859746
 10
572.638960705666
 20
554.7092287028588
  0
LWPOLYLINE
  5
A2
330
17
100
AcDbEntity
  8
CUT_IN
100
AcDbPolyline
 90
53
 70
1
 10
468.48019721546206
 20
576.0027031291672
 10
469.24104332696777
 20
575.8171005391978
 10
470.0240017210072
 20
575.83474366817
 10
470.77571507692653
 20
576.0544301660009
 10
471.4449553717849
 20
576.4611887609128
 10
478.2196972345831
 20
575.7241252353274
 10
478.78580800053294
 20
575.1829656216527
 10
479.47269142436346
 20
574.8067658225251
 10
480.2335375358692
 20
574.6211632325555
 10
481.0164959299086
 20
574.6388063615277
 10
481.768209285828
 20
574.8584928593589
 10
482.43744958068635
 20
575.2652514542706
 10
482.97860919436096
 20
575.8313622202204
 10
483.3548089934886
 20
576.5182456440509
 10
483.5404115834581
 20
577.2790917555567
 10
483.5227684544859
 20
578.0620501495962
 10
483.30308195665486
 20
578.8137635055155
 10
482.896323361743
 20
579.4830038003738
 10
485.2557506987979
 20
601.1697520896472
 10
485.79691031247256
 20
601.7358628555969
 10
486.1731101116002
 20
602.4227462794274
 10
486.3587127015697
 20
603.1835923909332
 10
486.3410695725975
 20
603.9665507849727
 10
486.1213830747664
 20
604.718264140892
 10
485.7146244798546
 20
605.3875044357503
 10
485.1485137139048
 20
605.9286640494249
 10
484.46163029007425
 20
606.3048638485526
 10
483.70078417856854
 20
606.4904664385222
 10
482.9178257845291
 20
606.47282330955
 10
482.1661124286098
 20
606.2531368117188
 10
481.4968721337514
 20
605.846378216807
 10
474.72213027095313
 20
606.5834417423926
 10
474.15601950500337
 20
607.1246013560672
 10
473.46913608117285
 20
607.5008011551947
 10
472.70828996966713
 20
607.6864037451643
 10
471.92533157562764
 20
607.6687606161921
 10
471.1736182197084
 20
607.4490741183611
 10
470.50437792485
 20
607.0423155234491
 10
469.9632183111753
 20
606.4762047574993
 10
469.58701851204773
 20
605.7893213336688
 10
469.40141592207823
 20
605.0284752221631
 10
469.4190590510504
 20
604.2455168281238
 10
469.63874554888145
 20
603.4938034722044
 10
470.0455041437933
 20
602.824563177346
 10
467.6860768067384
 20
581.1378148880726
 10
467.14491719306375
 20
580.5717041221228
 10
466.7687173939362
 20
579.8848206982923
 10
466.5831148039666
 20
579.1239745867866
 10
466.6007579329388
 20
578.3410161927471
 10
466.82044443076984
 20
577.5893028368278
 10
467.2272030256817
 20
576.9200625419695
 10
467.79331379163153
 20
576.3789029282948
 10
468.48019721546206
 20
576.0027031291672
  0
LWPOLYLINE
  5
A3
330
17
100
AcDbEntity
  8
CUT_IN
100
AcDbPolyline
 90
53
 70
1
 10
589.2843401964324
 20
597.5120971928817
 10
589.8211775755647
 20
596.9418860432511
 10
590.4873041698401
 20
596.5300481052271
 10
591.2373245526851
 20
596.304649453692
 10
592.0201260744759
 20
596.2810506342588
 10
592.7823621051434
 20
596.4608598674731
 10
598.9968990982096
 20
593.6644478967307
 10
599.3678626819766
 20
592.9747224830221
 10
599.9047000611089
 20
592.4045113333914
 10
600.5708266553843
 20
591.9926733953675
 10
601.3208470382293
 20
591.7672747438323
 10
602.1036485600201
 20
591.7436759243992
 10
602.8658845906876
 20
591.9234851576135
 10
603.5556100043963
 20
592.2944487413805
 10
604.1258211540269
 20
592.8312861205128
 10
604.5376590920508
 20
593.4974127147882
 10
604.7630577435859
 20
594.2474330976332
 10
604.786656563019
 20
595.0302346194242
 10
604.6068473298049
 20
595.7924706500916
 10
613.5584920936617
 20
615.6859370333757
 10
614.2482175073703
 20
616.0569006171427
 10
614.818428657001
 20
616.593737996275
 10
615.2302665950249
 20
617.2598645905505
 10
615.4556652465601
 20
618.0098849733954
 10
615.4792640659932
 20
618.7926864951862
 10
615.299454832779
 20
619.5549225258537
 10
614.928491249012
 20
620.2446479395624
 10
614.3916538698797
 20
620.8148590891931
 10
613.7255272756042
 20
621.2266970272169
 10
612.9755068927593
 20
621.4520956787521
 10
612.1927053709684
 20
621.4756944981852
 10
611.430469340301
 20
621.2958852649709
 10
605.2159323472347
 20
624.0922972357133
 10
604.8449687634677
 20
624.7820226494218
 10
604.3081313843354
 20
625.3522337990526
 10
603.64200479006
 20
625.7640717370765
 10
602.891984407215
 20
625.9894703886116
 10
602.1091828854242
 20
626.0130692080448
 10
601.3469468547567
 20
625.8332599748305
 10
600.657221441048
 20
625.4622963910635
 10
600.0870102914174
 20
624.9254590119313
 10
599.6751723533935
 20
624.2593324176557
 10
599.4497737018584
 20
623.5093120348108
 10
599.4261748824251
 20
622.72651051302
 10
599.6059841156394
 20
621.9642744823525
 10
590.6543393517826
 20
602.0708080990684
 10
589.964613938074
 20
601.6998445153014
 10
589.3944027884432
 20
601.1630071361691
 10
588.9825648504194
 20
600.4968805418937
 10
588.7571661988842
 20
599.7468601590487
 10
588.7335673794511
 20
598.9640586372577
 10
588.9133766126654
 20
598.2018226065903
 10
589.2843401964324
 20
597.5120971928817
  0
LWPOLYLINE
  5
A4
330
17
100
AcDbEntity
  8
CUT_IN
100
AcDbPolyline
 90
53
 70
1
 10
471.1653361610279
 20
620.1578105638873
 10
471.8534835911312
 20
619.7839279068423
 10
472.6149509184392
 20
619.6008906531503
 10
473.3978454029801
 20
619.6211724891666
 10
474.14881407942676
 20
619.8433912412843
 10
474.8166796735137
 20
620.2524030687803
 10
481.5938671868674
 20
619.5381766640996
 10
482.1617986096219
 20
618.9989280889092
 10
482.84994603972524
 20
618.6250454318645
 10
483.61141336703326
 20
618.4420081781723
 10
484.3943078515741
 20
618.4622900141886
 10
485.1452765280208
 20
618.6845087663063
 10
485.8131421221078
 20
619.0935205938023
 10
486.3523906972981
 20
619.6614520165568
 10
486.726273354343
 20
620.3495994466601
 10
486.9093106080352
 20
621.1110667739681
 10
486.88902877201883
 20
621.8939612585091
 10
486.66681001990116
 20
622.6449299349557
 10
486.2577981924051
 20
623.3127955290427
 10
488.5441212101008
 20
645.0073726343909
 10
489.0833697852911
 20
645.5753040571453
 10
489.457252442336
 20
646.2634514872487
 10
489.64028969602816
 20
647.0249188145567
 10
489.6200078600118
 20
647.8078132990977
 10
489.39778910789414
 20
648.5587819755443
 10
488.98877728039815
 20
649.2266475696313
 10
488.4208458576436
 20
649.7658961448217
 10
487.7326984275403
 20
650.1397788018664
 10
486.9712311002323
 20
650.3228160555586
 10
486.18833661569136
 20
650.3025342195423
 10
485.4373679392447
 20
650.0803154674246
 10
484.7695023451578
 20
649.6713036399285
 10
477.9923148318041
 20
650.3855300446093
 10
477.4243834090496
 20
650.9247786197996
 10
476.73623597894624
 20
651.2986612768445
 10
475.9747686516382
 20
651.4816985305366
 10
475.19187416709735
 20
651.4614166945203
 10
474.44090549065066
 20
651.2391979424026
 10
473.7730398965637
 20
650.8301861149066
 10
473.23379132137336
 20
650.262254692152
 10
472.8599086643285
 20
649.5741072620488
 10
472.6768714106363
 20
648.8126399347407
 10
472.6971532466527
 20
648.0297454501998
 10
472.9193719987704
 20
647.2787767737532
 10
473.32838382626636
 20
646.6109111796662
 10
471.0420608085707
 20
624.916334074318
 10
470.5028122333803
 20
624.3484026515634
 10
470.12892957633545
 20
623.6602552214601
 10
469.9458923226433
 20
622.8987878941522
 10
469.96617415865967
 20
622.1158934096113
 10
470.18839291077734
 20
621.3649247331646
 10
470.5974047382733
 20
620.6970591390776
 10
471.1653361610279
 20
620.1578105638873
  0
TEXT
  5
A5
330
17
100
AcDbEntity
  8
TEXT
100
AcDbText
 10
96.38548248674658
 20
343.4473308251694
 30
0.0
 40
10.0
  1
П3
 72
1
 11
96.38548248674658
 21
343.4473308251694
 31
0.0
100
AcDbText
 73
2
  0
TEXT
  5
A6
330
17
100
AcDbEntity
  8
TEXT
100
AcDbText
 10
0.0
 20
-20.0
 30
0.0
 40
8.0
  1
П3 Плита уровня сиденья; Фанера берёзовая ФК 18 мм; 1 шт.
 11
0.0
 21
-20.0
 31
0.0
100
AcDbText
  0
ENDSEC
  0
SECTION
  2
OBJECTS
  0
DICTIONARY
  5
A
330
0
100
AcDbDictionary
281
1
  3
ACAD_COLOR
350
B
  3
ACAD_GROUP
350
C
  3
ACAD_LAYOUT
350
D
  3
ACAD_MATERIAL
350
E
  3
ACAD_MLEADERSTYLE
350
F
  3
ACAD_MLINESTYLE
350
10
  3
ACAD_PLOTSETTINGS
350
11
  3
ACAD_PLOTSTYLENAME
350
12
  3
ACAD_SCALELIST
350
14
  3
ACAD_TABLESTYLE
350
15
  3
ACAD_VISUALSTYLE
350
16
  3
EZDXF_META
350
2D
  0
DICTIONARY
  5
B
330
A
100
AcDbDictionary
281
1
  0
DICTIONARY
  5
C
330
A
100
AcDbDictionary
281
1
  0
DICTIONARY
  5
D
330
A
100
AcDbDictionary
281
1
  3
Model
350
1A
  3
Layout1
350
1E
  0
DICTIONARY
  5
E
330
A
100
AcDbDictionary
281
1
  3
ByBlock
350
1F
  3
ByLayer
350
20
  3
Global
350
21
  0
DICTIONARY
  5
F
330
A
100
AcDbDictionary
281
1
  3
Standard
350
2C
  0
DICTIONARY
  5
10
330
A
100
AcDbDictionary
281
1
  3
Standard
350
22
  0
DICTIONARY
  5
11
330
A
100
AcDbDictionary
281
1
  0
ACDBDICTIONARYWDFLT
  5
12
330
A
100
AcDbDictionary
281
1
  3
Normal
350
13
100
AcDbDictionaryWithDefault
340
13
  0
ACDBPLACEHOLDER
  5
13
330
12
  0
DICTIONARY
  5
14
330
A
100
AcDbDictionary
281
1
  0
DICTIONARY
  5
15
330
A
100
AcDbDictionary
281
1
  0
DICTIONARY
  5
16
330
A
100
AcDbDictionary
281
1
  3
2dWireframe
350
5A
  3
Basic
350
5B
  3
Brighten
350
5C
  3
ColorChange
350
5D
  3
Conceptual
350
5E
  3
Dim
350
5F
  3
EdgeColorOff
350
60
  3
Facepattern
350
61
  3
Flat
350
62
  3
FlatWithEdges
350
63
  3
Gouraud
350
64
  3
GouraudWithEdges
350
65
  3
Hidden
350
66
  3
JitterOff
350
67
  3
Linepattern
350
68
  3
Modeling
350
69
  3
OverhangOff
350
6A
  3
Realistic
350
6B
  3
Shaded
350
6C
  3
Shaded with edges
350
6D
  3
Shades of Gray
350
6E
  3
Sketchy
350
6F
  3
Thicken
350
70
  3
Wireframe
350
71
  3
X-Ray
350
72
  0
LAYOUT
  5
1A
330
D
100
AcDbPlotSettings
  1

  4
A3
  6

 40
7.5
 41
20.0
 42
7.5
 43
20.0
 44
420.0
 45
297.0
 46
0.0
 47
0.0
 48
0.0
 49
0.0
140
0.0
141
0.0
142
1.0
143
1.0
 70
1024
 72
1
 73
0
 74
5
  7

 75
16
 76
0
 77
2
 78
300
147
1.0
148
0.0
149
0.0
100
AcDbLayout
  1
Model
 70
1
 71
0
 10
0.0
 20
0.0
 11
420.0
 21
297.0
 12
0.0
 22
0.0
 32
0.0
 14
1e+20
 24
1e+20
 34
1e+20
 15
-1e+20
 25
-1e+20
 35
-1e+20
146
0.0
 13
0.0
 23
0.0
 33
0.0
 16
1.0
 26
0.0
 36
0.0
 17
0.0
 27
1.0
 37
0.0
 76
1
330
17
  0
LAYOUT
  5
1E
330
D
100
AcDbPlotSettings
  1

  4
A3
  6

 40
7.5
 41
20.0
 42
7.5
 43
20.0
 44
420.0
 45
297.0
 46
0.0
 47
0.0
 48
0.0
 49
0.0
140
0.0
141
0.0
142
1.0
143
1.0
 70
0
 72
1
 73
0
 74
5
  7

 75
16
 76
0
 77
2
 78
300
147
1.0
148
0.0
149
0.0
100
AcDbLayout
  1
Layout1
 70
1
 71
1
 10
0.0
 20
0.0
 11
420.0
 21
297.0
 12
0.0
 22
0.0
 32
0.0
 14
1e+20
 24
1e+20
 34
1e+20
 15
-1e+20
 25
-1e+20
 35
-1e+20
146
0.0
 13
0.0
 23
0.0
 33
0.0
 16
1.0
 26
0.0
 36
0.0
 17
0.0
 27
1.0
 37
0.0
 76
1
330
1B
  0
MATERIAL
  5
1F
102
{ACAD_REACTORS
330
E
102
}
330
E
100
AcDbMaterial
  1
ByBlock
  2

 70
0
 40
1.0
 71
1
 41
1.0
 91
-1023410177
 42
1.0
 72
1
  3

 73
1
 74
1
 75
1
 44
0.5
 73
0
 45
1.0
 46
1.0
 77
1
  4

 78
1
 79
1
170
1
 48
1.0
171
1
  6

172
1
173
1
174
1
140
1.0
141
1.0
175
1
  7

176
1
177
1
178
1
143
1.0
179
1
  8

270
1
271
1
272
1
145
1.0
146
1.0
273
1
  9

274
1
275
1
276
1
 42
1.0
 72
1
  3

 73
1
 74
1
 75
1
 94
63
  0
MATERIAL
  5
20
102
{ACAD_REACTORS
330
E
102
}
330
E
100
AcDbMaterial
  1
ByLayer
  2

 70
0
 40
1.0
 71
1
 41
1.0
 91
-1023410177
 42
1.0
 72
1
  3

 73
1
 74
1
 75
1
 44
0.5
 73
0
 45
1.0
 46
1.0
 77
1
  4

 78
1
 79
1
170
1
 48
1.0
171
1
  6

172
1
173
1
174
1
140
1.0
141
1.0
175
1
  7

176
1
177
1
178
1
143
1.0
179
1
  8

270
1
271
1
272
1
145
1.0
146
1.0
273
1
  9

274
1
275
1
276
1
 42
1.0
 72
1
  3

 73
1
 74
1
 75
1
 94
63
  0
MATERIAL
  5
21
102
{ACAD_REACTORS
330
E
102
}
330
E
100
AcDbMaterial
  1
Global
  2

 70
0
 40
1.0
 71
1
 41
1.0
 91
-1023410177
 42
1.0
 72
1
  3

 73
1
 74
1
 75
1
 44
0.5
 73
0
 45
1.0
 46
1.0
 77
1
  4

 78
1
 79
1
170
1
 48
1.0
171
1
  6

172
1
173
1
174
1
140
1.0
141
1.0
175
1
  7

176
1
177
1
178
1
143
1.0
179
1
  8

270
1
271
1
272
1
145
1.0
146
1.0
273
1
  9

274
1
275
1
276
1
 42
1.0
 72
1
  3

 73
1
 74
1
 75
1
 94
63
  0
MLINESTYLE
  5
22
102
{ACAD_REACTORS
330
10
102
}
330
10
100
AcDbMlineStyle
  2
Standard
 70
0
  3

 62
256
 51
90.0
 52
90.0
 71
2
 49
0.5
 62
256
  6
BYLAYER
 49
-0.5
 62
256
  6
BYLAYER
  0
MLEADERSTYLE
  5
2C
102
{ACAD_REACTORS
330
F
102
}
330
F
100
AcDbMLeaderStyle
179
2
170
2
171
1
172
0
 90
2
 40
0.0
 41
0.0
173
1
 91
-1056964608
 92
-2
290
1
 42
2.0
291
1
 43
8.0
  3
Standard
 44
4.0
300

342
29
174
1
175
1
176
0
178
1
 93
-1056964608
 45
4.0
292
0
297
0
 46
4.0
 94
-1056964608
 47
1.0
 49
1.0
140
1.0
294
1
141
0.0
177
0
142
1.0
295
0
296
0
143
3.75
271
0
272
9
273
9
  0
DICTIONARY
  5
2D
330
A
100
AcDbDictionary
280
1
281
1
  3
CREATED_BY_EZDXF
350
2E
  3
WRITTEN_BY_EZDXF
350
A9
  0
DICTIONARYVAR
  5
2E
330
2D
100
DictionaryVariables
280
0
  1
1.4.4 @ 2026-09-30T15:12:53.280986+00:00
  0
VISUALSTYLE
  5
5A
102
{ACAD_REACTORS
330
16
102
}
330
16
100
AcDbVisualStyle
  2
2dWireframe
 70
4
 90
0
 40
0.6
 62
7
290
0
291
0
  0
VISUALSTYLE
  5
5B
102
{ACAD_REACTORS
330
16
102
}
330
16
100
AcDbVisualStyle
  2
Basic
 70
7
 90
1
 40
0.6
 62
7
290
0
291
1
  0
VISUALSTYLE
  5
5C
102
{ACAD_REACTORS
330
16
102
}
330
16
100
AcDbVisualStyle
  2
Brighten
 70
12
 90
2
 40
0.6
 62
7
290
0
291
1
  0
VISUALSTYLE
  5
5D
102
{ACAD_REACTORS
330
16
102
}
330
16
100
AcDbVisualStyle
  2
ColorChange
 70
16
 90
2
 40
0.6
 62
8
290
0
291
1
  0
VISUALSTYLE
  5
5E
102
{ACAD_REACTORS
330
16
102
}
330
16
100
AcDbVisualStyle
  2
Conceptual
 70
9
 90
3
 40
0.6
 62
7
290
0
291
0
  0
VISUALSTYLE
  5
5F
102
{ACAD_REACTORS
330
16
102
}
330
16
100
AcDbVisualStyle
  2
Dim
 70
11
 90
2
 40
0.6
 62
7
290
0
291
1
  0
VISUALSTYLE
  5
60
102
{ACAD_REACTORS
330
16
102
}
330
16
100
AcDbVisualStyle
  2
EdgeColorOff
 70
22
 90
2
 40
0.6
 62
7
290
0
291
1
  0
VISUALSTYLE
  5
61
102
{ACAD_REACTORS
330
16
102
}
330
16
100
AcDbVisualStyle
  2
Facepattern
 70
15
 90
2
 40
0.6
 62
7
290
0
291
1
  0
VISUALSTYLE
  5
62
102
{ACAD_REACTORS
330
16
102
}
330
16
100
AcDbVisualStyle
  2
Flat
 70
0
 90
2
 40
0.6
 62
7
290
0
291
1
  0
VISUALSTYLE
  5
63
102
{ACAD_REACTORS
330
16
102
}
330
16
100
AcDbVisualStyle
  2
FlatWithEdges
 70
1
 90
2
 40
0.6
 62
7
290
0
291
1
  0
VISUALSTYLE
  5
64
102
{ACAD_REACTORS
330
16
102
}
330
16
100
AcDbVisualStyle
  2
Gouraud
 70
2
 90
2
 40
0.6
 62
7
290
0
291
1
  0
VISUALSTYLE
  5
65
102
{ACAD_REACTORS
330
16
102
}
330
16
100
AcDbVisualStyle
  2
GouraudWithEdges
 70
3
 90
2
 40
0.6
 62
7
290
0
291
1
  0
VISUALSTYLE
  5
66
102
{ACAD_REACTORS
330
16
102
}
330
16
100
AcDbVisualStyle
  2
Hidden
 70
6
 90
1
 40
0.6
 62
7
290
0
291
0
  0
VISUALSTYLE
  5
67
102
{ACAD_REACTORS
330
16
102
}
330
16
100
AcDbVisualStyle
  2
JitterOff
 70
20
 90
2
 40
0.6
 62
7
290
0
291
1
  0
VISUALSTYLE
  5
68
102
{ACAD_REACTORS
330
16
102
}
330
16
100
AcDbVisualStyle
  2
Linepattern
 70
14
 90
2
 40
0.6
 62
7
290
0
291
1
  0
VISUALSTYLE
  5
69
102
{ACAD_REACTORS
330
16
102
}
330
16
100
AcDbVisualStyle
  2
Modeling
 70
10
 90
2
 40
0.6
 62
7
290
0
291
0
  0
VISUALSTYLE
  5
6A
102
{ACAD_REACTORS
330
16
102
}
330
16
100
AcDbVisualStyle
  2
OverhangOff
 70
21
 90
2
 40
0.6
 62
7
290
0
291
1
  0
VISUALSTYLE
  5
6B
102
{ACAD_REACTORS
330
16
102
}
330
16
100
AcDbVisualStyle
  2
Realistic
 70
8
 90
2
 40
0.6
 62
7
290
0
291
0
  0
VISUALSTYLE
  5
6C
102
{ACAD_REACTORS
330
16
102
}
330
16
100
AcDbVisualStyle
  2
Shaded
 70
27
 90
2
 40
0.6
 62
7
290
0
291
0
  0
VISUALSTYLE
  5
6D
102
{ACAD_REACTORS
330
16
102
}
330
16
100
AcDbVisualStyle
  2
Shaded with edges
 70
26
 90
2
 40
0.6
 62
7
290
0
291
0
  0
VISUALSTYLE
  5
6E
102
{ACAD_REACTORS
330
16
102
}
330
16
100
AcDbVisualStyle
  2
Shades of Gray
 70
23
 90
2
 40
0.6
 62
7
290
0
291
0
  0
VISUALSTYLE
  5
6F
102
{ACAD_REACTORS
330
16
102
}
330
16
100
AcDbVisualStyle
  2
Sketchy
 70
24
 90
1
 40
0.6
 62
7
290
0
291
0
  0
VISUALSTYLE
  5
70
102
{ACAD_REACTORS
330
16
102
}
330
16
100
AcDbVisualStyle
  2
Thicken
 70
13
 90
2
 40
0.6
 62
7
290
0
291
1
  0
VISUALSTYLE
  5
71
102
{ACAD_REACTORS
330
16
102
}
330
16
100
AcDbVisualStyle
  2
Wireframe
 70
5
 90
0
 40
0.6
 62
7
290
0
291
0
  0
VISUALSTYLE
  5
72
102
{ACAD_REACTORS
330
16
102
}
330
16
100
AcDbVisualStyle
  2
X-Ray
 70
25
 90
2
 40
0.5
 62
7
290
0
291
0
  0
DICTIONARYVAR
  5
A9
330
2D
100
DictionaryVariables
280
0
  1
1.4.4 @ 2026-09-30T15:12:53.297775+00:00
  0
ENDSEC
  0
EOF
