  0
SECTION
  2
HEADER
  9
$ACADVER
  1
AC1024
  9
$ACADMAINTVER
 70
6
  9
$DWGCODEPAGE
  3
ANSI_1252
  9
$LASTSAVEDBY
  1
ezdxf
  9
$INSBASE
 10
0.0
 20
0.0
 30
0.0
  9
$EXTMIN
 10
1e+20
 20
1e+20
 30
1e+20
  9
$EXTMAX
 10
-1e+20
 20
-1e+20
 30
-1e+20
  9
$LIMMIN
 10
0.0
 20
0.0
  9
$LIMMAX
 10
420.0
 20
297.0
  9
$ORTHOMODE
 70
0
  9
$REGENMODE
 70
1
  9
$FILLMODE
 70
1
  9
$QTEXTMODE
 70
0
  9
$MIRRTEXT
 70
1
  9
$LTSCALE
 40
1.0
  9
$ATTMODE
 70
1
  9
$TEXTSIZE
 40
2.5
  9
$TRACEWID
 40
1.0
  9
$TEXTSTYLE
  7
OpenSans
  9
$CLAYER
  8
0
  9
$CELTYPE
  6
ByLayer
  9
$CECOLOR
 62
256
  9
$CELTSCALE
 40
1.0
  9
$DISPSILH
 70
0
  9
$DIMSCALE
 40
1.0
  9
$DIMASZ
 40
0.175
  9
$DIMEXO
 40
0.125
  9
$DIMDLI
 40
3.75
  9
$DIMRND
 40
0.0
  9
$DIMDLE
 40
0.0
  9
$DIMEXE
 40
0.375
  9
$DIMTP
 40
0.0
  9
$DIMTM
 40
0.0
  9
$DIMTXT
 40
0.25
  9
$DIMCEN
 40
2.5
  9
$DIMTSZ
 40
0.0
  9
$DIMTOL
 70
0
  9
$DIMLIM
 70
0
  9
$DIMTIH
 70
0
  9
$DIMTOH
 70
0
  9
$DIMSE1
 70
0
  9
$DIMSE2
 70
0
  9
$DIMTAD
 70
1
  9
$DIMZIN
 70
12
  9
$DIMBLK
  1
ARCHTICK
  9
$DIMASO
 70
1
  9
$DIMSHO
 70
1
  9
$DIMPOST
  1

  9
$DIMAPOST
  1

  9
$DIMALT
 70
0
  9
$DIMALTD
 70
3
  9
$DIMALTF
 40
0.03937007874
  9
$DIMLFAC
 40
100.0
  9
$DIMTOFL
 70
1
  9
$DIMTVP
 40
0.0
  9
$DIMTIX
 70
0
  9
$DIMSOXD
 70
0
  9
$DIMSAH
 70
0
  9
$DIMBLK1
  1

  9
$DIMBLK2
  1

  9
$DIMSTYLE
  2
EZDXF
  9
$DIMCLRD
 70
0
  9
$DIMCLRE
 70
0
  9
$DIMCLRT
 70
0
  9
$DIMTFAC
 40
0.5
  9
$DIMGAP
 40
0.1
  9
$DIMJUST
 70
0
  9
$DIMSD1
 70
0
  9
$DIMSD2
 70
0
  9
$DIMTOLJ
 70
0
  9
$DIMTZIN
 70
8
  9
$DIMALTZ
 70
0
  9
$DIMALTTZ
 70
0
  9
$DIMUPT
 70
1
  9
$DIMDEC
 70
2
  9
$DIMTDEC
 70
2
  9
$DIMALTU
 70
2
  9
$DIMALTTD
 70
3
  9
$DIMTXSTY
  7
OpenSansCondensed-Light
  9
$DIMAUNIT
 70
0
  9
$DIMADEC
 70
2
  9
$DIMALTRND
 40
0.0
  9
$DIMAZIN
 70
3
  9
$DIMDSEP
 70
46
  9
$DIMATFIT
 70
3
  9
$DIMFRAC
 70
0
  9
$DIMLDRBLK
  1

  9
$DIMLUNIT
 70
2
  9
$DIMLWD
 70
-2
  9
$DIMLWE
 70
-2
  9
$DIMTMOVE
 70
2
  9
$DIMFXL
 40
1.0
  9
$DIMFXLON
 70
0
  9
$DIMJOGANG
 40
0.785398163397
  9
$DIMTFILL
 70
0
  9
$DIMTFILLCLR
 70
0
  9
$DIMARCSYM
 70
0
  9
$DIMLTYPE
  6

  9
$DIMLTEX1
  6

  9
$DIMLTEX2
  6

  9
$DIMTXTDIRECTION
 70
0
  9
$LUNITS
 70
2
  9
$LUPREC
 70
4
  9
$SKETCHINC
 40
1.0
  9
$FILLETRAD
 40
10.0
  9
$AUNITS
 70
0
  9
$AUPREC
 70
2
  9
$MENU
  1
.
  9
$ELEVATION
 40
0.0
  9
$PELEVATION
 40
0.0
  9
$THICKNESS
 40
0.0
  9
$LIMCHECK
 70
0
  9
$CHAMFERA
 40
0.0
  9
$CHAMFERB
 40
0.0
  9
$CHAMFERC
 40
0.0
  9
$CHAMFERD
 40
0.0
  9
$SKPOLY
 70
0
  9
$TDCREATE
 40
2461314.607037037
  9
$TDUCREATE
 40
2458532.153996898
  9
$TDUPDATE
 40
2461314.607037037
  9
$TDUUPDATE
 40
2458532.1544311
  9
$TDINDWG
 40
0.0
  9
$TDUSRTIMER
 40
0.0
  9
$USRTIMER
 70
1
  9
$ANGBASE
 50
0.0
  9
$ANGDIR
 70
0
  9
$PDMODE
 70
0
  9
$PDSIZE
 40
0.0
  9
$PLINEWID
 40
0.0
  9
$SPLFRAME
 70
0
  9
$SPLINETYPE
 70
6
  9
$SPLINESEGS
 70
8
  9
$HANDSEED
  5
B8
  9
$SURFTAB1
 70
6
  9
$SURFTAB2
 70
6
  9
$SURFTYPE
 70
6
  9
$SURFU
 70
6
  9
$SURFV
 70
6
  9
$UCSBASE
  2

  9
$UCSNAME
  2

  9
$UCSORG
 10
0.0
 20
0.0
 30
0.0
  9
$UCSXDIR
 10
1.0
 20
0.0
 30
0.0
  9
$UCSYDIR
 10
0.0
 20
1.0
 30
0.0
  9
$UCSORTHOREF
  2

  9
$UCSORTHOVIEW
 70
0
  9
$UCSORGTOP
 10
0.0
 20
0.0
 30
0.0
  9
$UCSORGBOTTOM
 10
0.0
 20
0.0
 30
0.0
  9
$UCSORGLEFT
 10
0.0
 20
0.0
 30
0.0
  9
$UCSORGRIGHT
 10
0.0
 20
0.0
 30
0.0
  9
$UCSORGFRONT
 10
0.0
 20
0.0
 30
0.0
  9
$UCSORGBACK
 10
0.0
 20
0.0
 30
0.0
  9
$PUCSBASE
  2

  9
$PUCSNAME
  2

  9
$PUCSORG
 10
0.0
 20
0.0
 30
0.0
  9
$PUCSXDIR
 10
1.0
 20
0.0
 30
0.0
  9
$PUCSYDIR
 10
0.0
 20
1.0
 30
0.0
  9
$PUCSORTHOREF
  2

  9
$PUCSORTHOVIEW
 70
0
  9
$PUCSORGTOP
 10
0.0
 20
0.0
 30
0.0
  9
$PUCSORGBOTTOM
 10
0.0
 20
0.0
 30
0.0
  9
$PUCSORGLEFT
 10
0.0
 20
0.0
 30
0.0
  9
$PUCSORGRIGHT
 10
0.0
 20
0.0
 30
0.0
  9
$PUCSORGFRONT
 10
0.0
 20
0.0
 30
0.0
  9
$PUCSORGBACK
 10
0.0
 20
0.0
 30
0.0
  9
$USERI1
 70
0
  9
$USERI2
 70
0
  9
$USERI3
 70
0
  9
$USERI4
 70
0
  9
$USERI5
 70
0
  9
$USERR1
 40
0.0
  9
$USERR2
 40
0.0
  9
$USERR3
 40
0.0
  9
$USERR4
 40
0.0
  9
$USERR5
 40
0.0
  9
$WORLDVIEW
 70
1
  9
$SHADEDGE
 70
3
  9
$SHADEDIF
 70
70
  9
$TILEMODE
 70
1
  9
$MAXACTVP
 70
64
  9
$PINSBASE
 10
0.0
 20
0.0
 30
0.0
  9
$PLIMCHECK
 70
0
  9
$PEXTMIN
 10
1e+20
 20
1e+20
 30
1e+20
  9
$PEXTMAX
 10
-1e+20
 20
-1e+20
 30
-1e+20
  9
$PLIMMIN
 10
0.0
 20
0.0
  9
$PLIMMAX
 10
420.0
 20
297.0
  9
$UNITMODE
 70
0
  9
$VISRETAIN
 70
1
  9
$PLINEGEN
 70
0
  9
$PSLTSCALE
 70
1
  9
$TREEDEPTH
 70
3020
  9
$CMLSTYLE
  2
Standard
  9
$CMLJUST
 70
0
  9
$CMLSCALE
 40
20.0
  9
$PROXYGRAPHICS
 70
1
  9
$MEASUREMENT
 70
1
  9
$CELWEIGHT
370
-1
  9
$ENDCAPS
280
0
  9
$JOINSTYLE
280
0
  9
$LWDISPLAY
290
0
  9
$INSUNITS
 70
4
  9
$HYPERLINKBASE
  1

  9
$STYLESHEET
  1

  9
$XEDIT
290
1
  9
$CEPSNTYPE
380
0
  9
$PSTYLEMODE
290
1
  9
$FINGERPRINTGUID
  2
{DEC6A778-DDC4-453A-B12D-D788973D11D5}
  9
$VERSIONGUID
  2
{8A27409E-3EFA-42DE-854C-4727420938DD}
  9
$EXTNAMES
290
1
  9
$PSVPSCALE
 40
0.0
  9
$OLESTARTUP
290
0
  9
$SORTENTS
280
127
  9
$INDEXCTL
280
0
  9
$HIDETEXT
280
1
  9
$XCLIPFRAME
280
1
  9
$HALOGAP
280
0
  9
$OBSCOLOR
 70
257
  9
$OBSLTYPE
280
0
  9
$INTERSECTIONDISPLAY
280
0
  9
$INTERSECTIONCOLOR
 70
257
  9
$DIMASSOC
280
2
  9
$PROJECTNAME
  1

  9
$CAMERADISPLAY
290
0
  9
$LENSLENGTH
 40
50.0
  9
$CAMERAHEIGHT
 40
0.0
  9
$STEPSPERSEC
 40
24.0
  9
$STEPSIZE
 40
100.0
  9
$3DDWFPREC
 40
2.0
  9
$PSOLWIDTH
 40
0.005
  9
$PSOLHEIGHT
 40
0.08
  9
$LOFTANG1
 40
1.570796326795
  9
$LOFTANG2
 40
1.570796326795
  9
$LOFTMAG1
 40
0.0
  9
$LOFTMAG2
 40
0.0
  9
$LOFTPARAM
 70
7
  9
$LOFTNORMALS
280
1
  9
$LATITUDE
 40
37.795
  9
$LONGITUDE
 40
-122.394
  9
$NORTHDIRECTION
 40
0.0
  9
$TIMEZONE
 70
-8000
  9
$LIGHTGLYPHDISPLAY
280
1
  9
$TILEMODELIGHTSYNCH
280
1
  9
$CMATERIAL
347
20
  9
$SOLIDHIST
280
0
  9
$SHOWHIST
280
1
  9
$DWFFRAME
280
2
  9
$DGNFRAME
280
2
  9
$REALWORLDSCALE
290
1
  9
$INTERFERECOLOR
 62
256
  9
$CSHADOW
280
0
  9
$SHADOWPLANELOCATION
 40
0.0
  0
ENDSEC
  0
SECTION
  2
CLASSES
  0
CLASS
  1
ACDBDICTIONARYWDFLT
  2
AcDbDictionaryWithDefault
  3
ObjectDBX Classes
 90
0
 91
0
280
0
281
0
  0
CLASS
  1
SUN
  2
AcDbSun
  3
SCENEOE
 90
1153
 91
0
280
0
281
0
  0
CLASS
  1
VISUALSTYLE
  2
AcDbVisualStyle
  3
ObjectDBX Classes
 90
4095
 91
0
280
0
281
0
  0
CLASS
  1
MATERIAL
  2
AcDbMaterial
  3
ObjectDBX Classes
 90
1153
 91
0
280
0
281
0
  0
CLASS
  1
SCALE
  2
AcDbScale
  3
ObjectDBX Classes
 90
1153
 91
0
280
0
281
0
  0
CLASS
  1
TABLESTYLE
  2
AcDbTableStyle
  3
ObjectDBX Classes
 90
4095
 91
0
280
0
281
0
  0
CLASS
  1
MLEADERSTYLE
  2
AcDbMLeaderStyle
  3
ACDB_MLEADERSTYLE_CLASS
 90
4095
 91
0
280
0
281
0
  0
CLASS
  1
DICTIONARYVAR
  2
AcDbDictionaryVar
  3
ObjectDBX Classes
 90
0
 91
0
280
0
281
0
  0
CLASS
  1
CELLSTYLEMAP
  2
AcDbCellStyleMap
  3
ObjectDBX Classes
 90
1152
 91
0
280
0
281
0
  0
CLASS
  1
MENTALRAYRENDERSETTINGS
  2
AcDbMentalRayRenderSettings
  3
SCENEOE
 90
1024
 91
0
280
0
281
0
  0
CLASS
  1
ACDBDETAILVIEWSTYLE
  2
AcDbDetailViewStyle
  3
ObjectDBX Classes
 90
1025
 91
0
280
0
281
0
  0
CLASS
  1
ACDBSECTIONVIEWSTYLE
  2
AcDbSectionViewStyle
  3
ObjectDBX Classes
 90
1025
 91
0
280
0
281
0
  0
CLASS
  1
RASTERVARIABLES
  2
AcDbRasterVariables
  3
ISM
 90
0
 91
0
280
0
281
0
  0
CLASS
  1
ACDBPLACEHOLDER
  2
AcDbPlaceHolder
  3
ObjectDBX Classes
 90
0
 91
0
280
0
281
0
  0
CLASS
  1
LAYOUT
  2
AcDbLayout
  3
ObjectDBX Classes
 90
0
 91
0
280
0
281
0
  0
ENDSEC
  0
SECTION
  2
TABLES
  0
TABLE
  2
VPORT
  5
8
330
0
100
AcDbSymbolTable
 70
1
  0
VPORT
  5
23
330
8
100
AcDbSymbolTableRecord
100
AcDbViewportTableRecord
  2
*Active
 70
0
 10
0.0
 20
0.0
 11
1.0
 21
1.0
 12
0.0
 22
0.0
 13
0.0
 23
0.0
 14
0.5
 24
0.5
 15
0.5
 25
0.5
 16
0.0
 26
0.0
 36
1.0
 17
0.0
 27
0.0
 37
0.0
 40
1000.0
 41
1.34
 42
50.0
 43
0.0
 44
0.0
 50
0.0
 51
0.0
 71
0
 72
1000
 73
1
 74
3
 75
0
 76
0
 77
0
 78
0
281
0
 65
0
146
0.0
  0
ENDTAB
  0
TABLE
  2
LTYPE
  5
2
330
0
100
AcDbSymbolTable
 70
21
  0
LTYPE
  5
24
330
2
100
AcDbSymbolTableRecord
100
AcDbLinetypeTableRecord
  2
ByBlock
 70
0
  3

 72
65
 73
0
 40
0.0
  0
LTYPE
  5
25
330
2
100
AcDbSymbolTableRecord
100
AcDbLinetypeTableRecord
  2
ByLayer
 70
0
  3

 72
65
 73
0
 40
0.0
  0
LTYPE
  5
26
330
2
100
AcDbSymbolTableRecord
100
AcDbLinetypeTableRecord
  2
Continuous
 70
0
  3

 72
65
 73
0
 40
0.0
  0
LTYPE
  5
2F
330
2
100
AcDbSymbolTableRecord
100
AcDbLinetypeTableRecord
  2
CENTER
 70
0
  3
Center ____ _ ____ _ ____ _ ____ _ ____ _ ____
 72
65
 73
4
 40
5.08
 49
3.175
 74
0
 49
-0.635
 74
0
 49
0.635
 74
0
 49
-0.635
 74
0
  0
LTYPE
  5
30
330
2
100
AcDbSymbolTableRecord
100
AcDbLinetypeTableRecord
  2
CENTERX2
 70
0
  3
Center (2x) ________  __  ________  __  ________
 72
65
 73
4
 40
8.89
 49
6.35
 74
0
 49
-0.635
 74
0
 49
1.27
 74
0
 49
-0.635
 74
0
  0
LTYPE
  5
31
330
2
100
AcDbSymbolTableRecord
100
AcDbLinetypeTableRecord
  2
CENTER2
 70
0
  3
Center (.5x) ____ _ ____ _ ____ _ ____ _ ____
 72
65
 73
4
 40
2.54
 49
1.587
 74
0
 49
-0.318
 74
0
 49
0.318
 74
0
 49
-0.318
 74
0
  0
LTYPE
  5
32
330
2
100
AcDbSymbolTableRecord
100
AcDbLinetypeTableRecord
  2
DASHED
 70
0
  3
Dashed __ __ __ __ __ __ __ __ __ __ __ __ __ _
 72
65
 73
2
 40
1.524
 49
1.27
 74
0
 49
-0.254
 74
0
  0
LTYPE
  5
33
330
2
100
AcDbSymbolTableRecord
100
AcDbLinetypeTableRecord
  2
DASHEDX2
 70
0
  3
Dashed (2x) ____  ____  ____  ____  ____  ____
 72
65
 73
2
 40
3.048
 49
2.54
 74
0
 49
-0.508
 74
0
  0
LTYPE
  5
34
330
2
100
AcDbSymbolTableRecord
100
AcDbLinetypeTableRecord
  2
DASHED2
 70
0
  3
Dashed (.5x) _ _ _ _ _ _ _ _ _ _ _ _ _ _
 72
65
 73
2
 40
0.762
 49
0.635
 74
0
 49
-0.127
 74
0
  0
LTYPE
  5
35
330
2
100
AcDbSymbolTableRecord
100
AcDbLinetypeTableRecord
  2
PHANTOM
 70
0
  3
Phantom ______  __  __  ______  __  __  ______
 72
65
 73
6
 40
6.35
 49
3.175
 74
0
 49
-0.635
 74
0
 49
0.635
 74
0
 49
-0.635
 74
0
 49
0.635
 74
0
 49
-0.635
 74
0
  0
LTYPE
  5
36
330
2
100
AcDbSymbolTableRecord
100
AcDbLinetypeTableRecord
  2
PHANTOMX2
 70
0
  3
Phantom (2x)____________    ____    ____    ____________
 72
65
 73
6
 40
10.795
 49
6.35
 74
0
 49
-0.635
 74
0
 49
1.27
 74
0
 49
-0.635
 74
0
 49
1.27
 74
0
 49
-0.635
 74
0
  0
LTYPE
  5
37
330
2
100
AcDbSymbolTableRecord
100
AcDbLinetypeTableRecord
  2
PHANTOM2
 70
0
  3
Phantom (.5x) ___ _ _ ___ _ _ ___ _ _ ___ _ _ ___
 72
65
 73
6
 40
3.175
 49
1.587
 74
0
 49
-0.318
 74
0
 49
0.318
 74
0
 49
-0.318
 74
0
 49
0.318
 74
0
 49
-0.318
 74
0
  0
LTYPE
  5
38
330
2
100
AcDbSymbolTableRecord
100
AcDbLinetypeTableRecord
  2
DASHDOT
 70
0
  3
Dash dot __ . __ . __ . __ . __ . __ . __ . __
 72
65
 73
4
 40
3.556
 49
2.54
 74
0
 49
-0.508
 74
0
 49
0.0
 74
0
 49
-0.508
 74
0
  0
LTYPE
  5
39
330
2
100
AcDbSymbolTableRecord
100
AcDbLinetypeTableRecord
  2
DASHDOTX2
 70
0
  3
Dash dot (2x) ____  .  ____  .  ____  .  ____
 72
65
 73
4
 40
6.096
 49
5.08
 74
0
 49
-0.508
 74
0
 49
0.0
 74
0
 49
-0.508
 74
0
  0
LTYPE
  5
3A
330
2
100
AcDbSymbolTableRecord
100
AcDbLinetypeTableRecord
  2
DASHDOT2
 70
0
  3
Dash dot (.5x) _ . _ . _ . _ . _ . _ . _ . _
 72
65
 73
4
 40
1.778
 49
1.27
 74
0
 49
-0.254
 74
0
 49
0.0
 74
0
 49
-0.254
 74
0
  0
LTYPE
  5
3B
330
2
100
AcDbSymbolTableRecord
100
AcDbLinetypeTableRecord
  2
DOT
 70
0
  3
Dot .  .  .  .  .  .  .  .  .  .  .  .  .  .  .  .
 72
65
 73
2
 40
0.508
 49
0.0
 74
0
 49
-0.508
 74
0
  0
LTYPE
  5
3C
330
2
100
AcDbSymbolTableRecord
100
AcDbLinetypeTableRecord
  2
DOTX2
 70
0
  3
Dot (2x) .    .    .    .    .    .    .    . 
 72
65
 73
2
 40
1.016
 49
0.0
 74
0
 49
-1.016
 74
0
  0
LTYPE
  5
3D
330
2
100
AcDbSymbolTableRecord
100
AcDbLinetypeTableRecord
  2
DOT2
 70
0
  3
Dot (.5) . . . . . . . . . . . . . . . . . . . 
 72
65
 73
2
 40
0.254
 49
0.0
 74
0
 49
-0.254
 74
0
  0
LTYPE
  5
3E
330
2
100
AcDbSymbolTableRecord
100
AcDbLinetypeTableRecord
  2
DIVIDE
 70
0
  3
Divide __ . . __ . . __ . . __ . . __ . . __
 72
65
 73
6
 40
4.064
 49
2.54
 74
0
 49
-0.508
 74
0
 49
0.0
 74
0
 49
-0.508
 74
0
 49
0.0
 74
0
 49
-0.508
 74
0
  0
LTYPE
  5
3F
330
2
100
AcDbSymbolTableRecord
100
AcDbLinetypeTableRecord
  2
DIVIDEX2
 70
0
  3
Divide (2x) ____  . .  ____  . .  ____  . .  ____
 72
65
 73
6
 40
6.604
 49
5.08
 74
0
 49
-0.508
 74
0
 49
0.0
 74
0
 49
-0.508
 74
0
 49
0.0
 74
0
 49
-0.508
 74
0
  0
LTYPE
  5
40
330
2
100
AcDbSymbolTableRecord
100
AcDbLinetypeTableRecord
  2
DIVIDE2
 70
0
  3
Divide(.5x) _ . _ . _ . _ . _ . _ . _ . _
 72
65
 73
6
 40
2.032
 49
1.27
 74
0
 49
-0.254
 74
0
 49
0.0
 74
0
 49
-0.254
 74
0
 49
0.0
 74
0
 49
-0.254
 74
0
  0
ENDTAB
  0
TABLE
  2
LAYER
  5
1
330
0
100
AcDbSymbolTable
 70
8
  0
LAYER
  5
27
330
1
100
AcDbSymbolTableRecord
100
AcDbLayerTableRecord
  2
0
 70
0
 62
7
  6
Continuous
370
-3
390
13
347
21
  0
LAYER
  5
28
330
1
100
AcDbSymbolTableRecord
100
AcDbLayerTableRecord
  2
Defpoints
 70
0
 62
7
  6
Continuous
290
0
370
-3
390
13
347
21
  0
LAYER
  5
8A
330
1
100
AcDbSymbolTableRecord
100
AcDbLayerTableRecord
  2
CUT_OUT
 70
0
 62
7
  6
Continuous
370
-3
390
13
347
21
  0
LAYER
  5
8B
330
1
100
AcDbSymbolTableRecord
100
AcDbLayerTableRecord
  2
CUT_IN
 70
0
 62
1
  6
Continuous
370
-3
390
13
347
21
  0
LAYER
  5
8C
330
1
100
AcDbSymbolTableRecord
100
AcDbLayerTableRecord
  2
DRILL
 70
0
 62
3
  6
Continuous
370
-3
390
13
347
21
  0
LAYER
  5
8D
330
1
100
AcDbSymbolTableRecord
100
AcDbLayerTableRecord
  2
MARK
 70
0
 62
5
  6
Continuous
370
-3
390
13
347
21
  0
LAYER
  5
8E
330
1
100
AcDbSymbolTableRecord
100
AcDbLayerTableRecord
  2
TEXT
 70
0
 62
8
  6
Continuous
370
-3
390
13
347
21
  0
LAYER
  5
8F
330
1
100
AcDbSymbolTableRecord
100
AcDbLayerTableRecord
  2
SHEET
 70
0
 62
9
  6
Continuous
370
-3
390
13
347
21
  0
ENDTAB
  0
TABLE
  2
STYLE
  5
5
330
0
100
AcDbSymbolTable
 70
26
  0
STYLE
  5
29
330
5
100
AcDbSymbolTableRecord
100
AcDbTextStyleTableRecord
  2
Standard
 70
0
 40
0.0
 41
1.0
 50
0.0
 71
0
 42
2.5
  3
txt
  4

  0
STYLE
  5
41
330
5
100
AcDbSymbolTableRecord
100
AcDbTextStyleTableRecord
  2
OpenSans-Light
 70
0
 40
0.0
 41
1.0
 50
0.0
 71
0
 42
2.5
  3
OpenSans-Light.ttf
  4

  0
STYLE
  5
42
330
5
100
AcDbSymbolTableRecord
100
AcDbTextStyleTableRecord
  2
OpenSans-Light-Italic
 70
0
 40
0.0
 41
1.0
 50
0.0
 71
0
 42
2.5
  3
OpenSans-LightItalic.ttf
  4

  0
STYLE
  5
43
330
5
100
AcDbSymbolTableRecord
100
AcDbTextStyleTableRecord
  2
OpenSans
 70
0
 40
0.0
 41
1.0
 50
0.0
 71
0
 42
2.5
  3
OpenSans-Regular.ttf
  4

  0
STYLE
  5
44
330
5
100
AcDbSymbolTableRecord
100
AcDbTextStyleTableRecord
  2
OpenSans-Italic
 70
0
 40
0.0
 41
1.0
 50
0.0
 71
0
 42
2.5
  3
OpenSans-Italic.ttf
  4

  0
STYLE
  5
45
330
5
100
AcDbSymbolTableRecord
100
AcDbTextStyleTableRecord
  2
OpenSans-SemiBold
 70
0
 40
0.0
 41
1.0
 50
0.0
 71
0
 42
2.5
  3
OpenSans-SemiBold.ttf
  4

  0
STYLE
  5
46
330
5
100
AcDbSymbolTableRecord
100
AcDbTextStyleTableRecord
  2
OpenSans-SemiBoldItalic
 70
0
 40
0.0
 41
1.0
 50
0.0
 71
0
 42
2.5
  3
OpenSans-SemiBoldItalic.ttf
  4

  0
STYLE
  5
47
330
5
100
AcDbSymbolTableRecord
100
AcDbTextStyleTableRecord
  2
OpenSans-Bold
 70
0
 40
0.0
 41
1.0
 50
0.0
 71
0
 42
2.5
  3
OpenSans-Bold.ttf
  4

  0
STYLE
  5
48
330
5
100
AcDbSymbolTableRecord
100
AcDbTextStyleTableRecord
  2
OpenSans-BoldItalic
 70
0
 40
0.0
 41
1.0
 50
0.0
 71
0
 42
2.5
  3
OpenSans-BoldItalic.ttf
  4

  0
STYLE
  5
49
330
5
100
AcDbSymbolTableRecord
100
AcDbTextStyleTableRecord
  2
OpenSans-ExtraBold
 70
0
 40
0.0
 41
1.0
 50
0.0
 71
0
 42
2.5
  3
OpenSans-ExtraBold.ttf
  4

  0
STYLE
  5
4A
330
5
100
AcDbSymbolTableRecord
100
AcDbTextStyleTableRecord
  2
OpenSans-ExtraBoldItalic
 70
0
 40
0.0
 41
1.0
 50
0.0
 71
0
 42
2.5
  3
OpenSans-ExtraBoldItalic.ttf
  4

  0
STYLE
  5
4B
330
5
100
AcDbSymbolTableRecord
100
AcDbTextStyleTableRecord
  2
OpenSansCondensed-Bold
 70
0
 40
0.0
 41
1.0
 50
0.0
 71
0
 42
2.5
  3
OpenSansCondensed-Bold.ttf
  4

  0
STYLE
  5
4C
330
5
100
AcDbSymbolTableRecord
100
AcDbTextStyleTableRecord
  2
OpenSansCondensed-Light
 70
0
 40
0.0
 41
1.0
 50
0.0
 71
0
 42
2.5
  3
OpenSansCondensed-Light.ttf
  4

  0
STYLE
  5
4D
330
5
100
AcDbSymbolTableRecord
100
AcDbTextStyleTableRecord
  2
OpenSansCondensed-Italic
 70
0
 40
0.0
 41
1.0
 50
0.0
 71
0
 42
2.5
  3
OpenSansCondensed-LightItalic.ttf
  4

  0
STYLE
  5
4E
330
5
100
AcDbSymbolTableRecord
100
AcDbTextStyleTableRecord
  2
LiberationSans
 70
0
 40
0.0
 41
1.0
 50
0.0
 71
0
 42
2.5
  3
LiberationSans-Regular.ttf
  4

  0
STYLE
  5
4F
330
5
100
AcDbSymbolTableRecord
100
AcDbTextStyleTableRecord
  2
LiberationSans-Bold
 70
0
 40
0.0
 41
1.0
 50
0.0
 71
0
 42
2.5
  3
LiberationSans-Bold.ttf
  4

  0
STYLE
  5
50
330
5
100
AcDbSymbolTableRecord
100
AcDbTextStyleTableRecord
  2
LiberationSans-BoldItalic
 70
0
 40
0.0
 41
1.0
 50
0.0
 71
0
 42
2.5
  3
LiberationSans-BoldItalic.ttf
  4

  0
STYLE
  5
51
330
5
100
AcDbSymbolTableRecord
100
AcDbTextStyleTableRecord
  2
LiberationSans-Italic
 70
0
 40
0.0
 41
1.0
 50
0.0
 71
0
 42
2.5
  3
LiberationSans-Italic.ttf
  4

  0
STYLE
  5
52
330
5
100
AcDbSymbolTableRecord
100
AcDbTextStyleTableRecord
  2
LiberationSerif
 70
0
 40
0.0
 41
1.0
 50
0.0
 71
0
 42
2.5
  3
LiberationSerif-Regular.ttf
  4

  0
STYLE
  5
53
330
5
100
AcDbSymbolTableRecord
100
AcDbTextStyleTableRecord
  2
LiberationSerif-Bold
 70
0
 40
0.0
 41
1.0
 50
0.0
 71
0
 42
2.5
  3
LiberationSerif-Bold.ttf
  4

  0
STYLE
  5
54
330
5
100
AcDbSymbolTableRecord
100
AcDbTextStyleTableRecord
  2
LiberationSerif-BoldItalic
 70
0
 40
0.0
 41
1.0
 50
0.0
 71
0
 42
2.5
  3
LiberationSerif-BoldItalic.ttf
  4

  0
STYLE
  5
55
330
5
100
AcDbSymbolTableRecord
100
AcDbTextStyleTableRecord
  2
LiberationSerif-Italic
 70
0
 40
0.0
 41
1.0
 50
0.0
 71
0
 42
2.5
  3
LiberationSerif-Italic.ttf
  4

  0
STYLE
  5
56
330
5
100
AcDbSymbolTableRecord
100
AcDbTextStyleTableRecord
  2
LiberationMono
 70
0
 40
0.0
 41
1.0
 50
0.0
 71
0
 42
2.5
  3
LiberationMono-Regular.ttf
  4

  0
STYLE
  5
57
330
5
100
AcDbSymbolTableRecord
100
AcDbTextStyleTableRecord
  2
LiberationMono-Bold
 70
0
 40
0.0
 41
1.0
 50
0.0
 71
0
 42
2.5
  3
LiberationMono-Bold.ttf
  4

  0
STYLE
  5
58
330
5
100
AcDbSymbolTableRecord
100
AcDbTextStyleTableRecord
  2
LiberationMono-BoldItalic
 70
0
 40
0.0
 41
1.0
 50
0.0
 71
0
 42
2.5
  3
LiberationMono-BoldItalic.ttf
  4

  0
STYLE
  5
59
330
5
100
AcDbSymbolTableRecord
100
AcDbTextStyleTableRecord
  2
LiberationMono-Italic
 70
0
 40
0.0
 41
1.0
 50
0.0
 71
0
 42
2.5
  3
LiberationMono-Italic.ttf
  4

  0
ENDTAB
  0
TABLE
  2
VIEW
  5
7
330
0
100
AcDbSymbolTable
 70
0
  0
ENDTAB
  0
TABLE
  2
UCS
  5
6
330
0
100
AcDbSymbolTable
 70
0
  0
ENDTAB
  0
TABLE
  2
APPID
  5
3
330
0
100
AcDbSymbolTable
 70
3
  0
APPID
  5
2A
330
3
100
AcDbSymbolTableRecord
100
AcDbRegAppTableRecord
  2
ACAD
 70
0
  0
APPID
  5
B5
330
3
100
AcDbSymbolTableRecord
100
AcDbRegAppTableRecord
  2
HATCHBACKGROUNDCOLOR
 70
0
  0
APPID
  5
B6
330
3
100
AcDbSymbolTableRecord
100
AcDbRegAppTableRecord
  2
EZDXF
 70
0
  0
ENDTAB
  0
TABLE
  2
DIMSTYLE
  5
4
330
0
100
AcDbSymbolTable
 70
12
100
AcDbDimStyleTable
  0
DIMSTYLE
105
2B
330
4
100
AcDbSymbolTableRecord
100
AcDbDimStyleTableRecord
  2
Standard
 70
0
 40
1.0
 41
2.5
 42
0.625
 43
3.75
 44
1.25
 45
0.0
 46
0.0
 47
0.0
 48
0.0
 49
2.5
140
2.5
141
2.5
142
0.0
143
0.03937007874
144
1.0
145
0.0
146
1.0
147
0.625
148
0.0
 69
0
 70
0
 71
0
 72
0
 73
0
 74
0
 75
0
 76
0
 77
1
 78
8
 79
3
170
0
171
3
172
1
173
0
174
0
175
0
176
0
177
0
178
0
179
2
271
2
272
2
273
2
274
3
275
0
276
0
277
2
278
44
279
0
280
0
281
0
282
0
283
0
284
8
285
0
286
0
288
0
289
3
290
0
371
-2
372
-2
  0
DIMSTYLE
105
73
330
4
100
AcDbSymbolTableRecord
100
AcDbDimStyleTableRecord
  2
EZDXF
 70
0
 40
1.0
 41
0.175
 42
0.125
 43
3.75
 44
0.375
 45
0.0
 46
0.0
 47
0.0
 48
0.0
 49
2.5
140
0.25
141
2.5
142
0.0
143
0.03937007874
144
100.0
145
0.0
146
0.5
147
0.1
148
0.0
 69
0
 70
0
 71
0
 72
0
 73
0
 74
0
 75
0
 76
0
 77
1
 78
12
 79
3
170
0
171
3
172
1
173
0
174
0
175
0
176
0
177
0
178
0
179
2
271
2
272
2
273
2
274
3
275
0
276
0
277
2
278
46
279
2
280
0
281
0
282
0
283
0
284
8
285
0
286
0
288
1
289
3
290
0
340
4C
342
74
371
-2
372
-2
  0
DIMSTYLE
105
7C
330
4
100
AcDbSymbolTableRecord
100
AcDbDimStyleTableRecord
  2
EZ_M_100_H25_CM
 70
0
 40
1.0
 41
0.25
 42
0.125
 43
3.75
 44
0.375
 45
0.0
 46
0.0
 47
0.0
 48
0.0
 49
2.5
140
0.25
141
2.5
142
0.125
143
0.03937007874
144
100.0
145
0.0
146
0.5
147
0.1
148
0.0
 69
0
 70
0
 71
0
 72
0
 73
0
 74
0
 75
0
 76
0
 77
1
 78
12
 79
3
170
0
171
3
172
1
173
0
174
0
175
0
176
0
177
0
178
0
179
2
271
2
272
2
273
2
274
3
275
0
276
0
277
2
278
46
279
2
280
0
281
0
282
0
283
0
284
8
285
0
286
0
288
1
289
3
290
0
340
4C
371
-2
372
-2
  0
DIMSTYLE
105
7D
330
4
100
AcDbSymbolTableRecord
100
AcDbDimStyleTableRecord
  2
EZ_M_50_H25_CM
 70
0
 40
1.0
 41
0.125
 42
0.0625
 43
3.75
 44
0.1875
 45
0.0
 46
0.0
 47
0.0
 48
0.0
 49
2.5
140
0.125
141
2.5
142
0.0625
143
0.03937007874
144
100.0
145
0.0
146
0.5
147
0.05
148
0.0
 69
0
 70
0
 71
0
 72
0
 73
0
 74
0
 75
0
 76
0
 77
1
 78
12
 79
3
170
0
171
3
172
1
173
0
174
0
175
0
176
0
177
0
178
0
179
2
271
2
272
2
273
2
274
3
275
0
276
0
277
2
278
46
279
2
280
0
281
0
282
0
283
0
284
8
285
0
286
0
288
1
289
3
290
0
340
4C
371
-2
372
-2
  0
DIMSTYLE
105
7E
330
4
100
AcDbSymbolTableRecord
100
AcDbDimStyleTableRecord
  2
EZ_M_25_H25_CM
 70
0
 40
1.0
 41
0.0625
 42
0.03125
 43
3.75
 44
0.09375
 45
0.0
 46
0.0
 47
0.0
 48
0.0
 49
2.5
140
0.0625
141
2.5
142
0.03125
143
0.03937007874
144
100.0
145
0.0
146
0.5
147
0.025
148
0.0
 69
0
 70
0
 71
0
 72
0
 73
0
 74
0
 75
0
 76
0
 77
1
 78
12
 79
3
170
0
171
3
172
1
173
0
174
0
175
0
176
0
177
0
178
0
179
2
271
2
272
2
273
2
274
3
275
0
276
0
277
2
278
46
279
2
280
0
281
0
282
0
283
0
284
8
285
0
286
0
288
1
289
3
290
0
340
4C
371
-2
372
-2
  0
DIMSTYLE
105
7F
330
4
100
AcDbSymbolTableRecord
100
AcDbDimStyleTableRecord
  2
EZ_M_20_H25_CM
 70
0
 40
1.0
 41
0.05
 42
0.025
 43
3.75
 44
0.07500000000000001
 45
0.0
 46
0.0
 47
0.0
 48
0.0
 49
2.5
140
0.05
141
2.5
142
0.025
143
0.03937007874
144
100.0
145
0.0
146
0.5
147
0.020000000000000004
148
0.0
 69
0
 70
0
 71
0
 72
0
 73
0
 74
0
 75
0
 76
0
 77
1
 78
12
 79
3
170
0
171
3
172
1
173
0
174
0
175
0
176
0
177
0
178
0
179
2
271
2
272
2
273
2
274
3
275
0
276
0
277
2
278
46
279
2
280
0
281
0
282
0
283
0
284
8
285
0
286
0
288
1
289
3
290
0
340
4C
371
-2
372
-2
  0
DIMSTYLE
105
80
330
4
100
AcDbSymbolTableRecord
100
AcDbDimStyleTableRecord
  2
EZ_M_10_H25_CM
 70
0
 40
1.0
 41
0.025
 42
0.0125
 43
3.75
 44
0.037500000000000006
 45
0.0
 46
0.0
 47
0.0
 48
0.0
 49
2.5
140
0.025
141
2.5
142
0.0125
143
0.03937007874
144
100.0
145
0.0
146
0.5
147
0.010000000000000002
148
0.0
 69
0
 70
0
 71
0
 72
0
 73
0
 74
0
 75
0
 76
0
 77
1
 78
12
 79
3
170
0
171
3
172
1
173
0
174
0
175
0
176
0
177
0
178
0
179
2
271
2
272
2
273
2
274
3
275
0
276
0
277
2
278
46
279
2
280
0
281
0
282
0
283
0
284
8
285
0
286
0
288
1
289
3
290
0
340
4C
371
-2
372
-2
  0
DIMSTYLE
105
81
330
4
100
AcDbSymbolTableRecord
100
AcDbDimStyleTableRecord
  2
EZ_M_5_H25_CM
 70
0
 40
1.0
 41
0.0125
 42
0.00625
 43
3.75
 44
0.018750000000000003
 45
0.0
 46
0.0
 47
0.0
 48
0.0
 49
2.5
140
0.0125
141
2.5
142
0.00625
143
0.03937007874
144
100.0
145
0.0
146
0.5
147
0.005000000000000001
148
0.0
 69
0
 70
0
 71
0
 72
0
 73
0
 74
0
 75
0
 76
0
 77
1
 78
12
 79
3
170
0
171
3
172
1
173
0
174
0
175
0
176
0
177
0
178
0
179
2
271
2
272
2
273
2
274
3
275
0
276
0
277
2
278
46
279
2
280
0
281
0
282
0
283
0
284
8
285
0
286
0
288
1
289
3
290
0
340
4C
371
-2
372
-2
  0
DIMSTYLE
105
82
330
4
100
AcDbSymbolTableRecord
100
AcDbDimStyleTableRecord
  2
EZ_M_1_H25_CM
 70
0
 40
1.0
 41
0.0025
 42
0.00125
 43
3.75
 44
0.00375
 45
0.0
 46
0.0
 47
0.0
 48
0.0
 49
2.5
140
0.0025
141
2.5
142
0.00125
143
0.03937007874
144
100.0
145
0.0
146
0.5
147
0.001
148
0.0
 69
0
 70
0
 71
0
 72
0
 73
0
 74
0
 75
0
 76
0
 77
1
 78
12
 79
3
170
0
171
3
172
1
173
0
174
0
175
0
176
0
177
0
178
0
179
2
271
2
272
2
273
2
274
3
275
0
276
0
277
2
278
46
279
2
280
0
281
0
282
0
283
0
284
8
285
0
286
0
288
1
289
3
290
0
340
4C
371
-2
372
-2
  0
DIMSTYLE
105
83
330
4
100
AcDbSymbolTableRecord
100
AcDbDimStyleTableRecord
  2
EZ_RADIUS
 70
0
 40
1.0
 41
0.25
 42
0.125
 43
3.75
 44
0.375
 45
0.0
 46
0.0
 47
0.0
 48
0.0
 49
2.5
140
0.25
141
0.0
142
0.0
143
0.03937007874
144
100.0
145
0.0
146
0.5
147
0.1
148
0.0
 69
0
 70
0
 71
0
 72
0
 73
0
 74
0
 75
0
 76
0
 77
1
 78
12
 79
3
170
0
171
3
172
0
173
0
174
0
175
0
176
0
177
0
178
0
179
2
271
2
272
2
273
2
274
3
275
0
276
0
277
2
278
46
279
1
280
0
281
0
282
0
283
0
284
8
285
0
286
0
288
1
289
3
290
0
340
4C
342
84
371
-2
372
-2
  0
DIMSTYLE
105
88
330
4
100
AcDbSymbolTableRecord
100
AcDbDimStyleTableRecord
  2
EZ_RADIUS_INSIDE
 70
0
 40
1.0
 41
0.25
 42
0.125
 43
3.75
 44
0.375
 45
0.0
 46
0.0
 47
0.0
 48
0.0
 49
2.5
140
0.25
141
0.0
142
0.0
143
0.03937007874
144
100.0
145
0.0
146
0.5
147
0.1
148
0.0
 69
0
 70
0
 71
0
 72
0
 73
0
 74
0
 75
0
 76
0
 77
0
 78
12
 79
3
170
0
171
3
172
0
173
0
174
1
175
0
176
0
177
0
178
0
179
2
271
2
272
2
273
2
274
3
275
0
276
0
277
2
278
46
279
0
280
0
281
0
282
0
283
0
284
8
285
0
286
0
288
1
289
0
290
0
340
4C
342
84
371
-2
372
-2
  0
DIMSTYLE
105
89
330
4
100
AcDbSymbolTableRecord
100
AcDbDimStyleTableRecord
  2
EZ_CURVED
 70
0
 40
1.0
 41
0.25
 42
0.125
 43
3.75
 44
0.375
 45
0.0
 46
0.0
 47
0.0
 48
0.0
 49
2.5
140
0.25
141
2.5
142
0.0
143
0.03937007874
144
100.0
145
0.0
146
0.5
147
0.1
148
0.0
 69
0
 70
0
 71
0
 72
0
 73
0
 74
0
 75
0
 76
0
 77
1
 78
12
 79
2
 90
2
170
0
171
3
172
1
173
0
174
0
175
0
176
0
177
0
178
0
179
2
271
2
272
2
273
2
274
3
275
0
276
0
277
2
278
46
279
2
280
0
281
0
282
0
283
0
284
8
285
0
286
0
288
1
289
3
290
0
340
4C
371
-2
372
-2
  0
ENDTAB
  0
TABLE
  2
BLOCK_RECORD
  5
9
330
0
100
AcDbSymbolTable
 70
5
  0
BLOCK_RECORD
  5
17
330
9
100
AcDbSymbolTableRecord
100
AcDbBlockTableRecord
  2
*Model_Space
340
1A
 70
0
280
1
281
0
  0
BLOCK_RECORD
  5
1B
330
9
100
AcDbSymbolTableRecord
100
AcDbBlockTableRecord
  2
*Paper_Space
340
1E
 70
0
280
1
281
0
  0
BLOCK_RECORD
  5
74
330
9
100
AcDbSymbolTableRecord
100
AcDbBlockTableRecord
  2
_ARCHTICK
340
0
 70
0
280
1
281
0
  0
BLOCK_RECORD
  5
78
330
9
100
AcDbSymbolTableRecord
100
AcDbBlockTableRecord
  2
_CLOSEDFILLED
340
0
 70
0
280
1
281
0
  0
BLOCK_RECORD
  5
84
330
9
100
AcDbSymbolTableRecord
100
AcDbBlockTableRecord
  2
_CLOSEDBLANK
340
0
 70
0
280
1
281
0
  0
ENDTAB
  0
ENDSEC
  0
SECTION
  2
BLOCKS
  0
BLOCK
  5
18
330
17
100
AcDbEntity
  8
0
100
AcDbBlockBegin
  2
*Model_Space
 70
0
 10
0.0
 20
0.0
 30
0.0
  3
*Model_Space
  1

  0
ENDBLK
  5
19
330
17
100
AcDbEntity
  8
0
100
AcDbBlockEnd
  0
BLOCK
  5
1C
330
1B
100
AcDbEntity
  8
0
100
AcDbBlockBegin
  2
*Paper_Space
 70
0
 10
0.0
 20
0.0
 30
0.0
  3
*Paper_Space
  1

  0
ENDBLK
  5
1D
330
1B
100
AcDbEntity
  8
0
100
AcDbBlockEnd
  0
BLOCK
  5
75
330
74
100
AcDbEntity
  8
0
100
AcDbBlockBegin
  2
_ARCHTICK
 70
0
 10
0.0
 20
0.0
 30
0.0
  3
_ARCHTICK
  1

  0
LWPOLYLINE
  5
77
330
74
100
AcDbEntity
  8
0
  6
BYBLOCK
 62
0
100
AcDbPolyline
 90
2
 70
0
 43
0.15
 10
-0.5
 20
-0.5
 10
0.5
 20
0.5
  0
ENDBLK
  5
76
330
74
100
AcDbEntity
  8
0
100
AcDbBlockEnd
  0
BLOCK
  5
79
330
78
100
AcDbEntity
  8
0
100
AcDbBlockBegin
  2
_CLOSEDFILLED
 70
0
 10
0.0
 20
0.0
 30
0.0
  3
_CLOSEDFILLED
  1

  0
SOLID
  5
7B
330
78
100
AcDbEntity
  8
0
  6
BYBLOCK
 62
0
100
AcDbTrace
 10
-1.0
 20
0.16439898372402537
 30
0.0
 11
0.0
 21
0.0
 31
0.0
 12
-1.0
 22
-0.16439898372402537
 32
0.0
 13
-1.0
 23
-0.16439898372402537
 33
0.0
  0
ENDBLK
  5
7A
330
78
100
AcDbEntity
  8
0
100
AcDbBlockEnd
  0
BLOCK
  5
85
330
84
100
AcDbEntity
  8
0
100
AcDbBlockBegin
  2
_CLOSEDBLANK
 70
0
 10
0.0
 20
0.0
 30
0.0
  3
_CLOSEDBLANK
  1

  0
LWPOLYLINE
  5
87
330
84
100
AcDbEntity
  8
0
  6
BYBLOCK
 62
0
100
AcDbPolyline
 90
3
 70
1
 10
-1.0
 20
0.16439898372402537
 10
0.0
 20
0.0
 10
-1.0
 20
-0.16439898372402537
  0
ENDBLK
  5
86
330
84
100
AcDbEntity
  8
0
100
AcDbBlockEnd
  0
ENDSEC
  0
SECTION
  2
ENTITIES
  0
LWPOLYLINE
  5
90
330
17
100
AcDbEntity
  8
CUT_OUT
100
AcDbPolyline
 90
754
 70
1
 10
8.226637760867618
 20
122.3273300559452
 10
7.259003032478461
 20
130.16187313100016
 10
7.214638514874764
 20
130.53044357932365
 10
7.086332128386971
 20
131.62491001229768
 10
6.962615045125062
 20
132.77618774705127
 10
6.59205538076327
 20
136.568643434089
 10
6.038847360035334
 20
142.10862401614918
 10
5.950038724481431
 20
143.07734257275618
 10
5.447780010469899
 20
149.09187176323607
 10
5.441494718188039
 20
149.16771791945516
 10
5.147312105441074
 20
152.74525774644732
 10
5.096276897887833
 20
153.41126196590568
 10
4.864712943514803
 20
156.67124469053184
 10
4.358788783343641
 20
163.75675390490235
 10
4.325836429824221
 20
164.24643836746768
 10
3.844046244419985
 20
171.8714288134367
 10
3.7124601136679303
 20
173.93101520781678
 10
3.7037680909171513
 20
174.06958217194975
 10
3.6708925619174124
 20
174.60356626485273
 10
3.640646404772042
 20
175.1329748220668
 10
3.082983027542298
 20
185.71488360205325
 10
3.0579306865158173
 20
186.23284437928976
 10
2.56910512653144
 20
197.33327642139352
 10
2.5488821882190678
 20
197.84151156980064
 10
2.1543872239483335
 20
208.9397158352565
 10
2.139259303844483
 20
209.4193178936489
 10
1.8931689685346669
 20
218.35490635039508
 10
1.8183668424649682
 20
221.08746664760122
 10
1.8094650045028402
 20
221.45348108862441
 10
1.5524817958132076
 20
233.53635341869312
 10
1.5480458205434502
 20
233.76551306505462
 10
1.3157105444436183
 20
247.0822167022609
 10
1.313493374079087
 20
247.21812374953043
 10
1.111419092859478
 20
260.5292259322123
 10
1.0956611813028303
 20
261.4437764746171
 10
1.0829321354439685
 20
262.215012007043
 10
1.081404746234739
 20
262.31248118049194
 10
0.8696088275802367
 20
276.56719875493326
 10
0.6700204435550177
 20
290.79592738870264
 10
0.6425315355477892
 20
292.6155749647225
 10
0.6410396921860411
 20
292.7203909336212
 10
0.61549858725391
 20
294.6322566790456
 10
0.4274923842990006
 20
309.24298743832526
 10
0.42634238143932635
 20
309.3382397153533
 10
0.2684324324297904
 20
323.3382211364737
 10
0.23501954921169954
 20
326.3167685154214
 10
0.23349238689934282
 20
326.4704547994878
 10
0.20541639177031357
 20
329.7139894204754
 10
0.07643932511939511
 20
343.6205405643455
 10
0.07449716185629995
 20
343.90025442266136
 10
0.01365206623006543
 20
357.09215485063356
 10
0.013362932568327324
 20
357.1642277496966
 10
0.0
 20
361.08175523864395
 10
0.0001679326147154825
 20
361.53549319177944
 10
0.018308410897759586
 20
365.90533237800935
 10
0.05253316450091461
 20
379.09144050123643
 10
0.05654024570679894
 20
379.64640271522944
 10
0.2039857065602746
 20
392.09356548050033
 10
0.20559681899675297
 20
392.2185769514735
 10
0.27757302607642487
 20
397.38566111481833
 10
0.29103627344409233
 20
398.07102671277914
 10
0.4405599068239212
 20
403.9672289554426
 10
0.7292705562134074
 20
416.44975911697054
 10
0.7540010200152665
 20
417.27395650863036
 10
1.1766766594520277
 20
428.7333382524412
 10
1.1827816367619448
 20
428.89307629067144
 10
1.4480270561311386
 20
435.5991828287845
 10
1.4960571615647495
 20
436.601284123122
 10
1.9227486465917991
 20
444.1784671515862
 10
2.290373244871205
 20
451.0130019818068
 10
2.310362651653122
 20
451.36530743187564
 10
2.527604668084223
 20
455.00484690955284
 10
2.610281418438376
 20
456.1919228025792
 10
3.787995231024979
 20
470.983765364467
 10
4.058701857074311
 20
474.50194231392163
 10
4.181067597950346
 20
475.88333584128696
 10
4.4571418495506805
 20
478.6374282717626
 10
4.4752771065608385
 20
478.81566237938307
 10
5.985648728416095
 20
493.44278532639373
 10
6.174086624106678
 20
495.05415882483385
 10
8.226403709215163
 20
510.76028185390044
 10
8.373289552753022
 20
511.90628476863515
 10
8.651698233522495
 20
513.8306177792982
 10
8.720447461750723
 20
514.256939715731
 10
8.751478981941602
 20
514.4474201941817
 10
11.08518698539882
 20
528.6286470129021
 10
11.545562405110616
 20
531.1015054226443
 10
14.135558177185374
 20
543.5564695642026
 10
14.916793436318812
 20
546.8455532032685
 10
17.46724985300392
 20
556.3800726512803
 10
18.492994274098123
 20
559.8029242493388
 10
21.01576044961746
 20
567.3917109863158
 10
22.32169065491547
 20
570.9420731168198
 10
24.740319009047823
 20
576.9279201901913
 10
26.3451340172046
 20
580.5504718291033
 10
28.392033167456702
 20
584.7873692949302
 10
30.29657428695623
 20
588.4088661861583
 10
32.30262340211095
 20
591.9267173557757
 10
34.13877771731029
 20
594.9374337922163
 10
36.04361959337376
 20
597.8637089019578
 10
37.73965642695936
 20
600.3321930789018
 10
39.52566756607712
 20
602.7974606741041
 10
40.98143182381756
 20
604.7240574301245
 10
41.105995353395144
 20
604.8821889086939
 10
46.67802259841358
 20
611.0288682577013
 10
47.09623414442319
 20
611.4305216932321
 10
48.614691326205445
 20
613.0360303270005
 10
51.95230965647096
 20
616.3006400567881
 10
55.533659599804196
 20
619.2958538037076
 10
56.53392677946789
 20
620.0683135336012
 10
58.26905734943671
 20
621.3590338034583
 10
61.0766242166531
 20
623.3699466464217
 10
63.278243942268716
 20
624.8739789457825
 10
66.68448924538228
 20
627.0915764290355
 10
69.40805545134748
 20
628.7631770137094
 10
73.09713168270537
 20
630.894244187183
 10
76.45496114589065
 20
632.6942691597483
 10
81.19041543349493
 20
635.0423891963301
 10
83.97076593211011
 20
636.3336392865561
 10
90.56169711439264
 20
639.1922433839839
 10
92.98705309092435
 20
640.181836503854
 10
100.65604734941203
 20
643.1173398314065
 10
102.88233017138026
 20
643.9195390889577
 10
111.10074037602743
 20
646.6990361233035
 10
113.21962042411786
 20
647.3721677062197
 10
122.19834502779858
 20
650.0424574420518
 10
124.22276001737328
 20
650.6061294923297
 10
133.62091319395864
 20
653.0464181433854
 10
135.36910917388508
 20
653.4724724126845
 10
145.70326465398125
 20
655.8274360028936
 10
147.15765785169702
 20
656.1399516019097
 10
158.45107068545528
 20
658.4205599391872
 10
159.59223001929925
 20
658.6395285985485
 10
171.66946746102684
 20
660.8359084678823
 10
172.9981251038768
 20
661.0621536872181
 10
176.04195340823603
 20
661.5453468152872
 10
185.35948856498348
 20
663.0364493868537
 10
186.49097168760636
 20
663.2064742423878
 10
197.24026704743193
 20
664.7170788429539
 10
200.46917920590354
 20
665.1718803788824
 10
201.65610842863774
 20
665.3270043607351
 10
204.0878067494487
 20
665.6201715365639
 10
204.1917343626161
 20
665.6326091609831
 10
216.11620916153532
 20
667.0491317863872
 10
217.56219008878384
 20
667.2031561579108
 10
229.837337420785
 20
668.3604367849327
 10
230.07812826811255
 20
668.3826487077339
 10
232.38955341671402
 20
668.591171217065
 10
233.33862702706404
 20
668.6692031769138
 10
236.56141704725798
 20
668.9084462214255
 10
248.66822324946332
 20
669.8184522181955
 10
249.52375837692347
 20
669.8766133903691
 10
260.60277090113493
 20
670.5502902098704
 10
264.0742004063481
 20
670.761668482006
 10
264.8874951499132
 20
670.8056522554108
 10
279.7624175923722
 20
671.5088806577661
 10
280.108248646619
 20
671.5242304650219
 10
280.8742448778604
 20
671.5560156237185
 10
281.1884029583214
 20
671.5682272603972
 10
296.4068035021369
 20
672.1198536756823
 10
296.93103871792584
 20
672.136561783645
 10
311.2271482129073
 20
672.5296573085656
 10
311.674841226439
 20
672.5402955626716
 10
321.95907308185355
 20
672.7462759274797
 10
322.08500927823206
 20
672.7486660325916
 10
324.4726628288353
 20
672.79147351754
 10
325.0351789980074
 20
672.7989209355583
 10
328.0708047679591
 20
672.8248781036514
 10
334.09376127667593
 20
672.8822137922157
 10
334.9932809379015
 20
672.8840336626868
 10
338.16387712293965
 20
672.8666810466962
 10
338.2756439277472
 20
672.8659652446626
 10
339.07091239434135
 20
672.8601312525792
 10
340.42973216562814
 20
672.8347707502663
 10
340.7557427990964
 20
672.8249916824694
 10
342.0572260827324
 20
672.7670631222252
 10
344.38763762501026
 20
672.783462935952
 10
345.1228328494015
 20
672.7841323459284
 10
346.3489036867118
 20
672.7777369210269
 10
347.2273596727046
 20
672.8024706266795
 10
350.1801840820263
 20
672.9457694444335
 10
350.18215106457575
 20
672.9052376788841
 10
351.52848129829385
 20
672.9985457794331
 10
356.6503571096045
 20
672.9155287953081
 10
358.38123904089724
 20
672.8134482832319
 10
359.24538954299527
 20
672.7814699488115
 10
359.9197653736401
 20
672.7814240630217
 10
360.34055317052554
 20
672.7895503005584
 10
362.01963714081387
 20
672.7984773016611
 10
364.00762555167177
 20
672.7812281253832
 10
365.65862477901004
 20
672.8459549245433
 10
366.6353425027323
 20
672.8616469673008
 10
367.2518941795761
 20
672.8683839601844
 10
369.88889033226405
 20
672.88364758135
 10
370.8411786478827
 20
672.881602404285
 10
376.336897186977
 20
672.826184563145
 10
379.27249102264443
 20
672.7996045477112
 10
379.86021309966185
 20
672.7914039265917
 10
382.50650484419987
 20
672.7415140825706
 10
382.6295538245504
 20
672.7390680247056
 10
391.37247706928815
 20
672.5562992180767
 10
391.6648697598333
 20
672.5494738262253
 10
392.260421799539
 20
672.5341193151327
 10
392.45246950286685
 20
672.5288602596245
 10
406.17977908513376
 20
672.1309552375676
 10
406.706474899827
 20
672.1133729466143
 10
421.279719773163
 20
671.562804400237
 10
421.91113763015994
 20
671.5391708546338
 10
422.5284079411299
 20
671.5128836676508
 10
423.1193641272922
 20
671.4846682858057
 10
437.5245773562225
 20
670.7856228877479
 10
437.92998731696116
 20
670.7645739887535
 10
438.67136246759424
 20
670.7235665009716
 10
439.03011149216235
 20
670.7026453113368
 10
439.3796592493281
 20
670.6812101897106
 10
439.68879065629864
 20
670.6614523903227
 10
442.8015449400728
 20
670.4544347743341
 10
455.1401410385789
 20
669.663274361259
 10
455.9870293202357
 20
669.6029517322688
 10
466.829596375482
 20
668.7535070980111
 10
466.9488535242044
 20
668.7440444452518
 10
470.7756606415839
 20
668.4365608042458
 10
471.8064861321624
 20
668.3447800876795
 10
475.83942897485434
 20
667.9506175968011
 10
486.0484069523038
 20
666.9664898091577
 10
487.35620080378874
 20
666.8259365823245
 10
496.9757230318888
 20
665.6853024393292
 10
501.03844221319423
 20
665.2007186608646
 10
502.21598992200995
 20
665.0484298777819
 10
506.21505908742915
 20
664.4909574130847
 10
515.6251142278009
 20
663.1763914367368
 10
516.8018267111884
 20
663.0000943830285
 10
525.674055306968
 20
661.5807576565289
 10
528.9661644410843
 20
661.0588150351927
 10
530.3006618734124
 20
660.8317781254798
 10
542.11295668406
 20
658.6847835009125
 10
543.2492865808313
 20
658.4669062088253
 10
554.7798292201334
 20
656.1405838516075
 10
556.2475521538123
 20
655.8253077633017
 10
566.2507404118734
 20
653.5452828692321
 10
567.9539233049252
 20
653.1308148713999
 10
577.7419338439925
 20
650.596910617764
 10
579.7702873330165
 20
650.0336675430747
 10
588.3241563417521
 20
647.4959440490225
 10
590.456357368787
 20
646.8198814868197
 10
599.0425127655806
 20
643.9202311812612
 10
601.2947251000171
 20
643.109230329527
 10
608.9412625879847
 20
640.1821885020852
 10
611.3651437455767
 20
639.1931912789971
 10
617.9589934371047
 20
636.3334090094736
 10
620.7377542204674
 20
635.0429854074152
 10
625.4770587130415
 20
632.6931984618134
 10
628.8330254235467
 20
630.894429819736
 10
632.5272698445882
 20
628.7607629200874
 10
635.2493696864656
 20
627.0904152568769
 10
638.659473260941
 20
624.8708402731938
 10
640.8598146243633
 20
623.3680842164739
 10
643.6720138004291
 20
621.3544476883408
 10
645.4062409942957
 20
620.0648063388543
 10
645.8631178341602
 20
619.712100135671
 10
651.162629759087
 20
614.9802849265986
 10
651.1866312121206
 20
615.0059310594509
 10
654.2405197493118
 20
612.1478875985938
 10
657.4312427243995
 20
608.9271971624144
 10
660.3696754500705
 20
605.4747816158506
 10
660.9645536698943
 20
604.7198229542116
 10
662.4209386950404
 20
602.7929789673486
 10
664.2064391021484
 20
600.3291350950324
 10
665.9034055577933
 20
597.859983633198
 10
667.8084365462205
 20
594.9341900485583
 10
669.6457744944138
 20
591.9222567555112
 10
671.6505775494369
 20
588.4073507004418
 10
673.5564372684776
 20
584.7839994391779
 10
675.6107940814925
 20
580.5322670114022
 10
677.2085670738634
 20
576.9277183871623
 10
679.600644055666
 20
571.014010813164
 10
680.9148518202824
 20
567.4432867140183
 10
683.4548003938957
 20
559.8030982534616
 10
684.4807134049845
 20
556.3797707671227
 10
687.031064579108
 20
546.8457501320421
 10
687.8123193573144
 20
543.5566184257862
 10
690.4023183349136
 20
531.1017578529052
 10
690.8627027746811
 20
528.6288741224766
 10
693.1964418333171
 20
514.4475879677468
 10
693.2274744479429
 20
514.2571024745724
 10
693.29620502377
 20
513.8308999359313
 10
693.5773082080532
 20
511.88553622550353
 10
693.6833479581235
 20
511.05589864010074
 10
695.7740500296536
 20
495.05285294525834
 10
695.9622809723276
 20
493.44308227077624
 10
697.4726859406503
 20
478.8158523833264
 10
697.4908219227646
 20
478.6376137521693
 10
697.7668907856387
 20
475.8836148309258
 10
697.8897963227472
 20
474.49522664292465
 10
698.1364992386368
 20
471.2841602407907
 10
699.3379301756419
 20
456.1895006807688
 10
699.4204087562226
 20
455.005228378041
 10
699.6383902790415
 20
451.35458737808483
 10
699.6585137692957
 20
450.999927062782
 10
700.0101214724124
 20
444.4609284930782
 10
700.4527773844101
 20
436.5980197440805
 10
700.5005679876319
 20
435.60156519531847
 10
700.7666454991024
 20
428.88772976272446
 10
700.7727254596269
 20
428.72900707233214
 10
701.1961782713224
 20
417.27815249583875
 10
701.2209039456939
 20
416.45753783649656
 10
701.5048206160782
 20
404.2639818806143
 10
701.6620798545255
 20
398.08920813157624
 10
701.6755042312518
 20
397.4118781358327
 10
701.7493571992233
 20
392.20081823050407
 10
701.7509608568422
 20
392.0789254762518
 10
701.9013166079976
 20
379.6940547309685
 10
701.9054744795269
 20
379.1434202861906
 10
701.9436384361595
 20
366.25956670411733
 10
701.9642551662517
 20
361.61939854901175
 10
701.9645699851975
 20
361.17036332175985
 10
701.9523096447627
 20
357.1385218449779
 10
701.9520689391925
 20
357.0716282486993
 10
701.8977852809761
 20
344.00946437365377
 10
701.8960031291638
 20
343.7334277359681
 10
701.77627515756
 20
330.06070685537134
 10
701.7477434622652
 20
326.5974590268491
 10
701.7463061735049
 20
326.44615644155795
 10
701.7126480548206
 20
323.31821645816916
 10
701.5643334115235
 20
309.4517069349746
 10
701.563177189093
 20
309.35144131832226
 10
701.3841294931012
 20
294.8739514727461
 10
701.3575081110841
 20
292.81962304795127
 10
701.3558526087878
 20
292.7009736705557
 10
701.3291241553648
 20
290.9121531607057
 10
701.1334833261658
 20
276.69837649370214
 10
701.1323949891047
 20
276.6227682753776
 10
700.918701333914
 20
262.39994318492444
 10
700.9171896804885
 20
262.3043971453043
 10
700.9048382857447
 20
261.56113111358513
 10
700.9031730714462
 20
261.46551111049814
 10
700.8911821163338
 20
260.80710598433893
 10
700.6743652666709
 20
247.29275421073748
 10
700.671686298393
 20
247.1381870316772
 10
700.432360131829
 20
234.28551635024348
 10
700.4271543879779
 20
234.03422634052828
 10
700.1418073256691
 20
221.52537216262016
 10
700.1325254274648
 20
221.16576367102934
 10
700.0552299390923
 20
218.48292646380804
 10
699.7989800342006
 20
209.6363605649418
 10
699.784331788787
 20
209.18845928198118
 10
699.3716747217522
 20
197.86515474531095
 10
699.3520719531799
 20
197.38098306476803
 10
698.8714742947998
 20
186.5889441553618
 10
698.848022192208
 20
186.10609128781846
 10
698.2707260331023
 20
175.1326976598599
 10
698.2412718564512
 20
174.61540794830077
 10
697.7801082633454
 20
167.0889411418875
 10
697.7746706210664
 20
167.0012474480494
 10
697.6008639248217
 20
164.2310776787377
 10
697.5699632502588
 20
163.76732403647435
 10
697.0605537085123
 20
156.54402066956902
 10
696.8426015001269
 20
153.44669062616018
 10
696.7910098596519
 20
152.76844723737005
 10
696.5195165778446
 20
149.44825148660487
 10
696.5137795719077
 20
149.37859098518405
 10
695.998340762243
 20
143.1642249491343
 10
695.9047444635103
 20
142.14201231355028
 10
695.3430854099494
 20
136.53637068015155
 10
695.2290868949137
 20
135.37303340904893
 10
695.2061840631641
 20
135.1438466382097
 10
694.922242036723
 20
132.35654359118786
 10
694.7677686720647
 20
130.99463900812674
 10
693.6668816158659
 20
122.1881906106643
 10
693.6106101770981
 20
121.75109970400473
 10
693.587243029687
 20
121.57471186929737
 10
693.4172988353655
 20
120.38372104564206
 10
692.231121139163
 20
112.62769094430678
 10
691.9111025779891
 20
110.73773317850797
 10
690.3951458927337
 20
102.57884270330567
 10
689.9695884460596
 20
100.49486625123714
 10
688.3472767967262
 20
93.21138546904746
 10
687.8168416973948
 20
91.02412013790897
 10
685.7686082412208
 20
83.22024013418121
 10
685.1728709549807
 20
81.10848591666067
 10
682.5903907636405
 20
72.55584112699887
 10
681.9868284749231
 20
70.66999632969512
 10
678.9705562463823
 20
61.75504596703564
 10
678.5015075973876
 20
60.42073095244845
 10
674.8733606909545
 20
50.47587381716721
 10
674.2484421139281
 20
48.837699917179975
 10
673.5585761945706
 20
47.10569801582835
 10
671.1413773210443
 20
41.80204882010821
 10
668.2209851940304
 20
36.757957721613366
 10
664.8249582116127
 20
32.02102348941935
 10
660.9853431193703
 20
27.63594639444551
 10
656.73837259997
 20
23.6441063935456
 10
652.1241233619954
 20
20.083172645876118
 10
647.1861379544702
 20
16.986748046356922
 10
646.1591757629183
 20
16.410295945424934
 10
645.8336879086422
 20
16.22491210267782
 10
644.771789177388
 20
15.61128883003039
 10
643.5054043503594
 20
14.867449165342123
 10
638.0848847715849
 20
12.044562202673376
 10
632.4053221483225
 20
9.787729972240129
 10
631.8295285245774
 20
9.59225640108724
 10
631.4015859626654
 20
9.444358327443297
 10
630.7398739182045
 20
9.211395709061321
 10
629.979890015517
 20
8.949543926054673
 10
627.7300162473009
 20
8.191173550823464
 10
626.5291127486389
 20
7.7760703895385745
 10
626.2389486448683
 20
7.673388944073565
 10
626.0286907479942
 20
7.597594958911145
 10
625.2605035053352
 20
7.3265561220159725
 10
623.7937785217333
 20
6.820222432113042
 10
622.4202639256525
 20
6.334949149674685
 10
622.0496967291413
 20
6.200605006377316
 10
621.3168564778364
 20
5.929015764128906
 10
620.7455302766226
 20
5.715666290346462
 10
614.596938964765
 20
3.7889226894064336
 10
608.2771876301124
 20
2.5326348672204517
 10
601.859159710805
 20
1.9612911431742077
 10
595.4168720337825
 20
2.0814806206617504
 10
589.0246212051175
 20
2.8918171973058406
 10
585.3195348773356
 20
3.565329152622212
 10
583.7548805115307
 20
3.7651626357085775
 10
582.0289800799804
 20
3.8021976405118494
 10
581.3869498717877
 20
3.7892697978803653
 10
578.9813122135253
 20
3.7677769772084275
 10
577.2203784371399
 20
3.6652339407992827
 10
575.6119801370271
 20
3.593211076515729
 10
575.1460720327428
 20
3.578608372021847
 10
573.999397606371
 20
3.4819225633043516
 10
572.0513215603164
 20
3.3518197133188323
 10
570.4405490921174
 20
3.173230322472989
 10
566.6628069662177
 20
2.8747882132249742
 10
564.7508002114379
 20
2.784375013280737
 10
562.9470776906945
 20
2.6444590194985835
 10
561.7545027574689
 20
2.515665227774491
 10
561.1327004000096
 20
2.451787735876451
 10
560.5554727592261
 20
2.395526286929396
 10
553.8714290995229
 20
2.1187526420195013
 10
547.1981202357088
 20
2.587785800205779
 10
544.7844338579355
 20
2.8933989559419615
 10
544.785451695808
 20
2.901437685171004
 10
544.5181645223453
 20
2.9231851121965065
 10
543.3505101351204
 20
3.0763299761643452
 10
543.199593779372
 20
3.0880101574869627
 10
541.6781224642932
 20
3.1970664648349043
 10
540.4605640353893
 20
3.2588972978934976
 10
537.7248749994833
 20
3.341682279666202
 10
537.1110737120042
 20
3.3476760541212798
 10
535.8498544338195
 20
3.3082834062481083
 10
532.7799778149987
 20
3.1293335623669236
 10
530.9336652794517
 20
2.97763618154562
 10
525.4193207578699
 20
2.7791479157625645
 10
524.3401368493795
 20
2.7899611456258526
 10
521.5039482994581
 20
2.7581587724566816
 10
520.6981283445921
 20
2.73200502362954
 10
519.8334709380608
 20
2.672027440183456
 10
516.9372050573231
 20
2.4092638995157927
 10
511.40068106077206
 20
2.1639582274058284
 10
507.5773971717067
 20
2.171304881375022
 10
507.0267698876339
 20
2.1597408300275447
 10
505.103066017204
 20
2.042261132994213
 10
499.23518855455706
 20
1.971422267321941
 10
497.5884978654358
 20
2.0321308377763216
 10
497.32138362417777
 20
2.030678013141028
 10
495.89410852906764
 20
1.999080989333379
 10
494.4843768652596
 20
1.9844393814643126
 10
492.47489643243773
 20
1.9871781955724828
 10
491.91494623319943
 20
1.9862214634187012
 10
491.4098558287097
 20
1.982240871299723
 10
490.5866360223279
 20
1.9702122148195258
 10
488.0663863584508
 20
1.9863253352673382
 10
487.0959652809617
 20
2.012919032099944
 10
485.5522067773014
 20
1.984909734315238
 10
481.57404966199823
 20
1.7915058508740458
 10
478.8884084410793
 20
1.5802013628524492
 10
478.88612987568024
 20
1.6091615104464267
 10
475.89725520009563
 20
1.3516346332871763
 10
470.40811055467714
 20
1.3822070339063544
 10
467.05347353753234
 20
1.554548924205676
 10
466.17412176696
 20
1.5786077258724163
 10
465.3837068310298
 20
1.5665637721260168
 10
462.6880627614609
 20
1.4642854860938996
 10
460.8329244906536
 20
1.3554979383686145
 10
460.83124553327593
 20
1.3841289549839644
 10
455.9462101961851
 20
1.1987189615833813
 10
450.98573394567944
 20
1.4964184751761422
 10
450.98384339002666
 20
1.4735152395403475
 10
446.660501014839
 20
1.8303870587182018
 10
445.7074588904113
 20
1.8836559366625352
 10
444.6675069888587
 20
1.892086489491362
 10
441.9970420632687
 20
1.8417500226620405
 10
439.87143254170513
 20
1.8393422487180828
 10
439.00275693217736
 20
1.8537476055057596
 10
438.2177742057766
 20
1.8603580866870288
 10
437.8401942375628
 20
1.861161526653234
 10
435.8605698116285
 20
1.8529158409197635
 10
433.9572987900482
 20
1.8376079462915982
 10
431.8531516947187
 20
1.8129857524502881
 10
431.73171612005945
 20
1.8116876550385541
 10
431.38207374312316
 20
1.80830400096238
 10
430.68838667943646
 20
1.8056011274694015
 10
429.8689263012602
 20
1.807145348284223
 10
429.34691325663636
 20
1.8035871165511708
 10
428.5425894075903
 20
1.7911054586481896
 10
426.18085930464235
 20
1.8009434718961188
 10
422.9144543288028
 20
1.8788557874391358
 10
422.13949620820165
 20
1.865803338362639
 10
419.5383187783599
 20
1.8783859627221773
 10
418.85854990168735
 20
1.896414717193693
 10
417.78838345740814
 20
1.9080133206619507
 10
417.2084801118847
 20
1.9115407904000676
 10
414.47862329116856
 20
1.9099912349867054
 10
413.5295980995006
 20
1.9169583499598275
 10
411.6793286091867
 20
1.945177230969307
 10
410.48938457399214
 20
1.975133913056311
 10
409.79817648786405
 20
1.9993977104828673
 10
409.3237238509286
 20
2.0142060903174865
 10
407.3490585608612
 20
2.0651278762135803
 10
403.7082026270189
 20
2.1447432650833207
 10
400.6706481452623
 20
2.200173419676844
 10
400.3404838306699
 20
2.2071073075263143
 10
398.8897234322771
 20
2.24156966180675
 10
397.1845816904821
 20
2.278292419142531
 10
394.02657473026323
 20
2.3318889192203756
 10
393.9467403028057
 20
2.3332969759088655
 10
391.25246291501327
 20
2.3826098415783576
 10
389.82216080053195
 20
2.40936269232202
 10
388.5956789667406
 20
2.429673082612851
 10
388.1737579298695
 20
2.438144323270535
 10
386.228201090913
 20
2.4840520559191646
 10
385.7253167623598
 20
2.498027864558992
 10
383.5308727572869
 20
2.5682223861135185
 10
382.6214477498567
 20
2.5906825702073206
 10
381.1370766649486
 20
2.6132676274316395
 10
380.2840241134728
 20
2.6212880370406424
 10
379.13778693007936
 20
2.643018221599789
 10
377.72184617832835
 20
2.6833967981038427
 10
376.9429965563853
 20
2.7006410525781916
 10
373.9786775605115
 20
2.7400294751473098
 10
373.00271228638815
 20
2.745186171302066
 10
372.45307900307387
 20
2.743843655627188
 10
371.59896576599067
 20
2.7525304721434622
 10
369.89524982303453
 20
2.6837442410351287
 10
365.977420338291
 20
2.6535882257537082
 10
363.36588956393433
 20
2.718781337060875
 10
362.9477779952333
 20
2.709502745027521
 10
358.93434069561107
 20
2.7547186350647053
 10
357.1950868982983
 20
2.832548774961708
 10
356.53443171237967
 20
2.8508746428274208
 10
356.36478267528366
 20
2.8533232704519946
 10
352.9232081141746
 20
2.896383966221549
 10
350.14013107562005
 20
2.995839063398762
 10
349.9856656680177
 20
3.004952208391842
 10
349.8189967431296
 20
3.0048612531313665
 10
349.35154778749
 20
3.002178196619525
 10
349.3515441957249
 20
3.0028039631005754
 10
349.0561771044721
 20
3.0010221941270174
 10
346.33897354300694
 20
2.997949279265697
 10
344.93351443825924
 20
2.954028179392594
 10
344.24257232490936
 20
2.9364188602921217
 10
342.19886772188903
 20
2.8961103780676467
 10
341.5734611064674
 20
2.860406358635771
 10
340.1908022214161
 20
2.797461569394102
 10
338.3083408628657
 20
2.7335110523966932
 10
338.3082184666932
 20
2.7371139328111553
 10
337.2514140576343
 20
2.702436450721791
 10
335.7068037976367
 20
2.673226376758919
 10
330.1623239793083
 20
2.3948323735565396
 10
329.5620992230468
 20
2.403281417779567
 10
328.8249480349033
 20
2.408869116823155
 10
328.4832231746273
 20
2.409513091115059
 10
327.8696571980643
 20
2.407174766465346
 10
326.9842037236712
 20
2.410333963689652
 10
326.59993622688046
 20
2.414540617294847
 10
326.05650898904065
 20
2.4229513046224156
 10
325.412452963489
 20
2.435837364615793
 10
325.38278440902377
 20
2.436276363355944
 10
322.689505459924
 20
2.4366997006578686
 10
316.9217963622463
 20
2.275640041157544
 10
315.87042979307944
 20
2.301131909202752
 10
315.23714819934924
 20
2.307903562074898
 10
313.69321449360007
 20
2.3065740174310463
 10
313.2857710353442
 20
2.301515415807785
 10
313.2351696300517
 20
2.3008871756292706
 10
310.4606509082743
 20
2.3306021449481023
 10
307.9038319313042
 20
2.417142381233532
 10
301.50012139324826
 20
2.377242359062791
 10
301.21163618697375
 20
2.376138429805451
 10
298.9618531640028
 20
2.3729379789900804
 10
298.0343895702455
 20
2.3332969211957675
 10
296.58035597627946
 20
2.2888005914888936
 10
294.5672074832171
 20
2.251614451744331
 10
293.6386260386197
 20
2.241649618805866
 10
292.5097234928135
 20
2.238271786235771
 10
290.92103887995665
 20
2.2218642779156994
 10
290.44125951306427
 20
2.2144301258734345
 10
289.4683580079061
 20
2.194135059404573
 10
286.42390008407614
 20
2.2313751356546163
 10
284.40425053297935
 20
2.2329878928176754
 10
283.36663243355366
 20
2.1411849032619443
 10
275.99152236257487
 20
1.944038449737718
 10
275.0849242814101
 20
1.9755963068134292
 10
274.43830122177707
 20
1.9892900741111248
 10
272.87127439309035
 20
2.0040944093116764
 10
272.2159926982087
 20
2.0026003995935184
 10
271.9817844534515
 20
1.998942479891241
 10
271.6762133513646
 20
1.9926842515963585
 10
270.0695890230228
 20
1.950400063194138
 10
269.34329829666825
 20
1.9265822202198137
 10
268.563630101116
 20
1.8955347503734288
 10
263.54942245132406
 20
1.9055479195756106
 10
261.46882722435544
 20
1.9967243723854722
 10
259.56770819025024
 20
1.9187614947416023
 10
259.29334727800403
 20
1.894024192674351
 10
256.4958934739156
 20
1.7075663578049216
 10
256.36876366251863
 20
1.7020724227790538
 10
253.45301556573736
 20
1.6732304505516709
 10
253.45303742438804
 20
1.6710760441599746
 10
250.95279327928364
 20
1.6457085166649108
 10
250.65286403835478
 20
1.6273997767984838
 10
248.82322103941777
 20
1.47869772867449
 10
245.93742516756282
 20
1.3140121823008712
 10
244.6500860749156
 20
1.2716227555507658
 10
244.3194714645568
 20
1.2589108339748236
 10
243.532241582298
 20
1.224293873182603
 10
243.30362053608877
 20
1.214677446005851
 10
243.1930434175348
 20
1.2102374812261587
 10
242.27675695428718
 20
1.1804556902604304
 10
240.6733887606743
 20
1.1406014733827874
 10
240.41838153032654
 20
1.1311418911622013
 10
240.21186816692008
 20
1.1234812058627313
 10
236.91082646493214
 20
1.1173918170503043
 10
236.91080172078182
 20
1.110952721887429
 10
236.50897620200072
 20
1.1124968567072528
 10
235.8918677861415
 20
1.1068158468431193
 10
235.8703212615025
 20
1.106375966964606
 10
235.5425007669947
 20
1.0967879896559793
 10
232.6619677101217
 20
1.081716233604368
 10
232.00702485706637
 20
1.0940141286775429
 10
230.6387209901152
 20
1.099292410390035
 10
230.02403547564376
 20
1.0986693002528796
 10
229.17019641406054
 20
1.0925723421663065
 10
228.99399200339053
 20
1.0915728779596066
 10
226.66311933321538
 20
1.0817744584981597
 10
226.08629817168992
 20
1.0738030294031091
 10
225.17799512777944
 20
1.0525142497952515
 10
223.28425508620637
 20
1.0380242127884571
 10
222.75042259093075
 20
1.0423648409561679
 10
222.26936812699458
 20
1.0424192478889722
 10
221.4268208214792
 20
1.0357590340015577
 10
220.54876991964582
 20
1.0292562644388568
 10
220.45030130801604
 20
1.0279394064271514
 10
216.40481697386505
 20
1.1102891885224722
 10
213.4116782751793
 20
1.2723128498105893
 10
212.67265734310158
 20
1.298011562262161
 10
211.7517416523304
 20
1.29935668720384
 10
210.353434673429
 20
1.2729211489367458
 10
205.8390985958679
 20
1.357492745086688
 10
205.05233458524432
 20
1.4018871147619052
 10
204.35248871849893
 20
1.4323496903854789
 10
203.59493440794898
 20
1.445145953026156
 10
202.22104664674913
 20
1.4494688521777448
 10
199.9993805152595
 20
1.4976104492436093
 10
194.67048061357409
 20
1.711867845700226
 10
192.82741443719232
 20
1.7646479951616811
 10
189.11915011929094
 20
1.8320292041062771
 10
187.96714665928485
 20
1.7991043272852494
 10
187.96464465158124
 20
1.8866466906838468
 10
181.22377726566123
 20
1.9514277322351177
 10
178.0987177302167
 20
2.2016515292070267
 10
176.29423302883944
 20
2.1161855763319863
 10
172.75256915542127
 20
2.0531200167149564
 10
172.74640112079305
 20
2.0531922967710443
 10
167.94684376070165
 20
2.3019292546906627
 10
167.13865680229915
 20
2.37636200995712
 10
163.9793945211788
 20
2.4842371854500698
 10
162.49515127976053
 20
2.493711832470524
 10
159.90403672181944
 20
2.565722288454026
 10
156.09996125153032
 20
2.792509426179322
 10
155.28975207247572
 20
2.866694824625597
 10
154.77127660166963
 20
2.90963816077641
 10
154.14522808079124
 20
2.95602936424325
 10
153.74003506809143
 20
2.9832985012098447
 10
152.8371070675716
 20
3.037928212349982
 10
152.43158204383755
 20
3.0597098215347387
 10
151.34714264389274
 20
3.1105985881270044
 10
150.3642958015283
 20
3.1489647133944345
 10
148.57177038862966
 20
3.200546799739584
 10
148.470158007583
 20
3.203556972335491
 10
147.70535719352128
 20
3.2268619669557097
 10
147.19478919709516
 20
3.23807113262518
 10
145.8594078561448
 20
3.2560184096237776
 10
145.5484069422085
 20
3.2596034606433477
 10
143.63323789262654
 20
3.31227125002232
 10
143.3652543736464
 20
3.323925114085398
 10
141.75962520146072
 20
3.365057901727198
 10
141.75972246012208
 20
3.3688544191259098
 10
139.9915564082022
 20
3.418384308352188
 10
136.93997605979868
 20
3.5657212641766023
 10
135.50361347092849
 20
3.5122974744838302
 10
134.66705023608864
 20
3.451788665510776
 10
130.5986186707772
 20
3.296015628220175
 10
129.82527411047266
 20
3.292663480503961
 10
128.65678097641643
 20
3.2419124674561317
 10
127.49581529091896
 20
3.1001008079770713
 10
122.34911277282865
 20
2.266261642153381
 10
120.19805588850713
 20
1.8309158449358733
 10
120.1136714637151
 20
1.8094349705384047
 10
113.92138125514828
 20
0.5759387899174726
 10
107.63375329502
 20
0.0
 10
101.32041602583129
 20
0.0879964782894831
 10
95.05128259190701
 20
0.8389537622752528
 10
88.8957766295697
 20
2.2445558405137263
 10
82.92206347806672
 20
4.289237243148136
 10
80.90175996155449
 20
5.101849629517403
 10
80.57409039418297
 20
5.223974877375042
 10
79.89265341391399
 20
5.468627965694452
 10
78.29599362743312
 20
6.020210113630014
 10
77.60885083610913
 20
6.248346643003856
 10
77.02612818153784
 20
6.43403835343895
 10
76.05477666044743
 20
6.739157584137843
 10
75.54181443237235
 20
6.894434244918671
 10
74.2749424306923
 20
7.264920728209802
 10
73.52922001152922
 20
7.475389290014107
 10
67.26232612610147
 20
9.624171334212235
 10
61.27053634881156
 20
12.450773271069238
 10
55.62690261931226
 20
15.92073315152004
 10
55.1210448511531
 20
16.27165794289533
 10
54.37439710711499
 20
16.77252820137852
 10
53.007288311821696
 20
17.623918280225553
 10
53.026010784986
 20
17.6539816534883
 10
49.22090806416713
 20
20.174076094955524
 10
44.89920583226922
 20
23.65063263397849
 10
40.917003657342775
 20
27.511412527759717
 10
37.30833117767122
 20
31.723423743874378
 10
34.10402605889101
 20
36.250672826482116
 10
31.33147047281352
 20
41.0544724759601
 10
29.014357104935584
 20
46.09377214859478
 10
27.64155402075619
 20
49.484049954588784
 10
26.93063520808738
 20
51.32631466419468
 10
23.64014289793721
 20
60.28967870228155
 10
23.102681067740377
 20
61.81713871542189
 10
19.621348563191475
 20
72.15449043942846
 10
19.066253931614938
 20
73.88940516313846
 10
16.5391329813707
 20
82.221477994167
 10
15.932327045176464
 20
84.36459691356401
 10
13.796104137904194
 20
92.48114715465832
 10
13.258151403801321
 20
94.6950385981331
 10
11.750066965517988
 20
101.45861464711675
 10
11.307399659850034
 20
103.63236289619027
 10
9.89654325286483
 20
111.28100792779145
 10
9.571457830576435
 20
113.22116756507154
 10
8.4705520023644
 20
120.52420457352525
 10
8.227993782090039
 20
122.31603498351566
 10
8.226637760867618
 20
122.3273300559452
  0
LWPOLYLINE
  5
91
330
17
100
AcDbEntity
  8
CUT_IN
100
AcDbPolyline
 90
69
 70
1
 10
581.831438370216
 20
87.85208162906062
 10
584.687269027366
 20
88.56742996919127
 10
587.4592316806849
 20
89.55925406581895
 10
590.1206308145122
 20
90.81800211070689
 10
592.6458357003203
 20
92.33155167208119
 10
595.0105272346416
 20
94.08532644027542
 10
597.1919321453286
 20
96.06243660556112
 10
599.1690423106143
 20
98.24384151624818
 10
600.9228170788085
 20
100.60853305056946
 10
602.4363666401829
 20
103.1337379363776
 10
603.6951146850708
 20
105.79513707020485
 10
604.6869387816985
 20
108.56709972352368
 10
605.4022871218291
 20
111.4229303806737
 10
605.834270509898
 20
114.33512583127072
 10
605.9787287097322
 20
117.27564004115754
 10
605.9787287097322
 20
487.9473308251694
 10
605.834270509898
 20
490.8878450350562
 10
605.4022871218291
 20
493.8000404856532
 10
604.6869387816985
 20
496.6558711428032
 10
603.6951146850708
 20
499.42783379612206
 10
602.4363666401829
 20
502.0892329299493
 10
600.9228170788085
 20
504.61443781575747
 10
599.1690423106143
 20
506.9791293500788
 10
597.1919321453286
 20
509.1605342607658
 10
595.0105272346416
 20
511.1376444260515
 10
592.6458357003203
 20
512.8914191942457
 10
590.1206308145122
 20
514.4049687556201
 10
587.4592316806849
 20
515.6637168005079
 10
584.687269027366
 20
516.6555408971357
 10
581.831438370216
 20
517.3708892372663
 10
578.919242919619
 20
517.8028726253353
 10
575.9787287097322
 20
517.9473308251694
 10
125.9787287097322
 20
517.9473308251694
 10
123.03821449984537
 20
517.8028726253353
 10
120.12601904924836
 20
517.3708892372663
 10
117.27018839209833
 20
516.6555408971357
 10
114.4982257387795
 20
515.6637168005079
 10
111.83682660495225
 20
514.4049687556201
 10
109.31162171914414
 20
512.8914191942457
 10
106.94693018482283
 20
511.1376444260515
 10
104.76552527413577
 20
509.1605342607658
 10
102.78841510885007
 20
506.9791293500788
 10
101.03464034065584
 20
504.61443781575747
 10
99.52109077928154
 20
502.08923292994933
 10
98.2623427343936
 20
499.42783379612206
 10
97.27051863776592
 20
496.6558711428032
 10
96.55517029763527
 20
493.80004048565326
 10
96.1231869095663
 20
490.8878450350562
 10
95.9787287097322
 20
487.9473308251694
 10
95.9787287097322
 20
117.27564004115754
 10
96.1231869095663
 20
114.33512583127072
 10
96.55517029763527
 20
111.42293038067368
 10
97.27051863776592
 20
108.56709972352368
 10
98.2623427343936
 20
105.79513707020485
 10
99.52109077928154
 20
103.1337379363776
 10
101.03464034065584
 20
100.60853305056946
 10
102.78841510885007
 20
98.24384151624818
 10
104.76552527413577
 20
96.06243660556112
 10
106.94693018482283
 20
94.08532644027542
 10
109.31162171914414
 20
92.33155167208119
 10
111.83682660495225
 20
90.81800211070689
 10
114.4982257387795
 20
89.55925406581895
 10
117.27018839209833
 20
88.56742996919127
 10
120.12601904924836
 20
87.85208162906062
 10
123.03821449984537
 20
87.42009824099165
 10
125.9787287097322
 20
87.27564004115754
 10
575.9787287097322
 20
87.27564004115754
 10
578.919242919619
 20
87.42009824099165
 10
581.831438370216
 20
87.85208162906062
  0
LWPOLYLINE
  5
92
330
17
100
AcDbEntity
  8
CUT_IN
100
AcDbPolyline
 90
53
 70
1
 10
101.34486936977353
 20
50.91712288149179
 10
100.75832122997593
 20
51.43606064895215
 10
100.05744825594189
 20
51.78550621132982
 10
99.29001378260449
 20
51.941645431034885
 10
98.50831720107621
 20
51.89383767827667
 10
97.76562984157357
 20
51.64534097239962
 10
91.32219487591834
 20
53.86401981163522
 10
90.88994385676779
 20
54.51708503291104
 10
90.30339571697016
 20
55.0360228003714
 10
89.60252274293612
 20
55.385468362749094
 10
88.83508826959871
 20
55.541607582454134
 10
88.05339168807046
 20
55.49379982969592
 10
87.3107043285678
 20
55.24530312381887
 10
86.65763910729197
 20
54.81305210466829
 10
86.13870133983164
 20
54.22650396487069
 10
85.78925577745395
 20
53.525630990836646
 10
85.6331165577489
 20
52.75819651749924
 10
85.68092431050707
 20
51.97649993597096
 10
85.92942101638414
 20
51.233812576468324
 10
78.82716819322411
 20
30.607616767326533
 10
78.17410297194829
 20
30.17536574817592
 10
77.6551652044879
 20
29.58881760837835
 10
77.30571964211026
 20
28.887944634344308
 10
77.14958042240517
 20
28.120510161006905
 10
77.19738817516338
 20
27.338813579478597
 10
77.44588488104046
 20
26.596126219975986
 10
77.87813590019101
 20
25.94306099870016
 10
78.46468403998864
 20
25.424123231239776
 10
79.16555701402268
 20
25.07467766886208
 10
79.93299148736008
 20
24.91853844915704
 10
80.71468806888834
 20
24.966346201915258
 10
81.457375428391
 20
25.214842907792274
 10
87.90081039404623
 20
22.99616406855671
 10
88.33306141319679
 20
22.343098847280885
 10
88.91960955299442
 20
21.8241610798205
 10
89.62048252702846
 20
21.47471551744286
 10
90.38791700036586
 20
21.318576297737764
 10
91.16961358189411
 20
21.36638405049598
 10
91.91230094139678
 20
21.614880756373054
 10
92.5653661626726
 20
22.04713177552361
 10
93.08430393013293
 20
22.63367991532124
 10
93.43374949251063
 20
23.33455288935528
 10
93.58988871221567
 20
24.101987362692682
 10
93.54208095945751
 20
24.883683944220934
 10
93.29358425358043
 20
25.6263713037236
 10
100.39583707674046
 20
46.25256711286539
 10
101.04890229801629
 20
46.684818132016005
 10
101.56784006547664
 20
47.27136627181358
 10
101.91728562785434
 20
47.97223924584762
 10
102.07342484755938
 20
48.73967371918502
 10
102.02561709480119
 20
49.52137030071333
 10
101.77712038892412
 20
50.26405766021597
 10
101.34486936977353
 20
50.91712288149179
  0
LWPOLYLINE
  5
93
330
17
100
AcDbEntity
  8
CUT_IN
100
AcDbPolyline
 90
53
 70
1
 10
36.481487231661276
 20
100.79828650787684
 10
36.18178596414742
 20
100.0747436431844
 10
36.07956344301459
 20
99.29828650787684
 10
36.18178596414742
 20
98.5218293725693
 10
36.481487231661276
 20
97.79828650787684
 10
36.95824309945499
 20
97.17696616431721
 10
36.95824309945499
 20
90.36224753855578
 10
36.481487231661276
 20
89.74092719499615
 10
36.18178596414742
 20
89.01738433030368
 10
36.07956344301459
 20
88.24092719499615
 10
36.18178596414742
 20
87.46447005968858
 10
36.481487231661276
 20
86.74092719499612
 10
36.95824309945499
 20
86.11960685143649
 10
37.57956344301459
 20
85.6428509836428
 10
38.303106307707026
 20
85.34314971612892
 10
39.07956344301459
 20
85.24092719499615
 10
39.85602057832216
 20
85.34314971612892
 10
40.57956344301459
 20
85.64285098364283
 10
41.20088378657425
 20
86.11960685143649
 10
63.01560241233568
 20
86.11960685143649
 10
63.63692275589534
 20
85.6428509836428
 10
64.36046562058777
 20
85.34314971612892
 10
65.13692275589534
 20
85.24092719499615
 10
65.91337989120291
 20
85.34314971612892
 10
66.63692275589534
 20
85.64285098364283
 10
67.25824309945494
 20
86.11960685143649
 10
67.73499896724866
 20
86.74092719499615
 10
68.03470023476251
 20
87.46447005968858
 10
68.13692275589534
 20
88.24092719499615
 10
68.03470023476251
 20
89.01738433030368
 10
67.73499896724866
 20
89.74092719499615
 10
67.25824309945494
 20
90.36224753855578
 10
67.25824309945494
 20
97.17696616431721
 10
67.73499896724866
 20
97.79828650787684
 10
68.03470023476251
 20
98.5218293725693
 10
68.13692275589534
 20
99.29828650787684
 10
68.03470023476251
 20
100.0747436431844
 10
67.73499896724866
 20
100.79828650787684
 10
67.25824309945494
 20
101.4196068514365
 10
66.63692275589534
 20
101.89636271923015
 10
65.91337989120291
 20
102.19606398674406
 10
65.13692275589534
 20
102.29828650787684
 10
64.36046562058777
 20
102.19606398674406
 10
63.63692275589534
 20
101.89636271923015
 10
63.01560241233568
 20
101.4196068514365
 10
41.20088378657425
 20
101.4196068514365
 10
40.57956344301459
 20
101.89636271923015
 10
39.85602057832216
 20
102.19606398674406
 10
39.07956344301459
 20
102.29828650787684
 10
38.303106307707026
 20
102.19606398674406
 10
37.57956344301459
 20
101.89636271923015
 10
36.95824309945499
 20
101.4196068514365
 10
36.481487231661276
 20
100.79828650787684
  0
LWPOLYLINE
  5
94
330
17
100
AcDbEntity
  8
CUT_IN
100
AcDbPolyline
 90
53
 70
1
 10
92.50740836617257
 20
118.9023959089512
 10
91.78386550148014
 20
119.20209717646512
 10
91.00740836617257
 20
119.30431969759792
 10
90.230951230865
 20
119.20209717646512
 10
89.50740836617257
 20
118.9023959089512
 10
88.88608802261291
 20
118.42564004115755
 10
79.07136939685148
 20
118.42564004115755
 10
78.45004905329182
 20
118.9023959089512
 10
77.72650618859939
 20
119.20209717646512
 10
76.95004905329182
 20
119.30431969759792
 10
76.17359191798425
 20
119.20209717646512
 10
75.45004905329182
 20
118.9023959089512
 10
74.82872870973222
 20
118.42564004115755
 10
74.3519728419385
 20
117.80431969759789
 10
74.05227157442465
 20
117.08077683290546
 10
73.95004905329182
 20
116.30431969759789
 10
74.05227157442465
 20
115.52786256229035
 10
74.3519728419385
 20
114.80431969759789
 10
74.82872870973222
 20
114.18299935403826
 10
74.82872870973222
 20
92.36828072827683
 10
74.3519728419385
 20
91.74696038471717
 10
74.05227157442465
 20
91.02341752002474
 10
73.95004905329182
 20
90.2469603847172
 10
74.05227157442465
 20
89.47050324940963
 10
74.3519728419385
 20
88.74696038471717
 10
74.82872870973222
 20
88.12564004115754
 10
75.45004905329182
 20
87.64888417336388
 10
76.17359191798425
 20
87.34918290584997
 10
76.95004905329182
 20
87.24696038471717
 10
77.72650618859939
 20
87.34918290584997
 10
78.45004905329182
 20
87.64888417336388
 10
79.07136939685148
 20
88.12564004115754
 10
88.88608802261291
 20
88.12564004115754
 10
89.50740836617257
 20
87.64888417336388
 10
90.230951230865
 20
87.34918290584997
 10
91.00740836617257
 20
87.24696038471717
 10
91.78386550148014
 20
87.34918290584997
 10
92.50740836617257
 20
87.64888417336388
 10
93.12872870973217
 20
88.12564004115754
 10
93.60548457752589
 20
88.7469603847172
 10
93.90518584503974
 20
89.47050324940963
 10
94.00740836617257
 20
90.2469603847172
 10
93.90518584503974
 20
91.02341752002474
 10
93.60548457752589
 20
91.7469603847172
 10
93.12872870973217
 20
92.36828072827683
 10
93.12872870973217
 20
114.18299935403826
 10
93.60548457752589
 20
114.80431969759789
 10
93.90518584503974
 20
115.52786256229035
 10
94.00740836617257
 20
116.30431969759789
 10
93.90518584503974
 20
117.08077683290546
 10
93.60548457752589
 20
117.80431969759789
 10
93.12872870973217
 20
118.42564004115755
 10
92.50740836617257
 20
118.9023959089512
  0
LWPOLYLINE
  5
95
330
17
100
AcDbEntity
  8
CUT_IN
100
AcDbPolyline
 90
82
 70
1
 10
63.86159623049008
 20
116.63780971134693
 10
64.23740272099332
 20
117.32490840039563
 10
64.4225696892666
 20
118.08586064637251
 10
64.40447831242511
 20
118.86880881124725
 10
64.18436148790312
 20
119.62039627146672
 10
63.77721981353153
 20
120.2894035836739
 10
63.2107993215854
 20
120.83023900512876
 10
62.16546031133987
 20
127.56430585228426
 10
62.54126680184305
 20
128.25140454133296
 10
62.72643377011633
 20
129.0123567873098
 10
62.70834239327485
 20
129.79530495218458
 10
62.48822556875285
 20
130.54689241240402
 10
62.081083894381266
 20
131.21589972461123
 10
61.51466340243513
 20
131.7567351460661
 10
60.82756471338644
 20
132.13254163656927
 10
60.066612467409584
 20
132.3177086048426
 10
59.28366430253482
 20
132.2996172280011
 10
58.53207684231535
 20
132.0795004034791
 10
57.86306953010819
 20
131.67235872910754
 10
57.32223410865333
 20
131.10593823716138
 10
54.47573350629136
 20
130.66407180044888
 10
53.99356610929925
 20
134.4247217390277
 10
54.387435930048866
 20
135.10162770819878
 10
54.592688805541684
 20
135.85740967669147
 10
54.59533709150929
 20
136.64056235234176
 10
54.39520031163954
 20
137.39771517452508
 10
54.005917456738814
 20
138.07726942966377
 10
53.454017510048345
 20
138.63291461828672
 10
52.777111540877286
 20
139.0267844390363
 10
52.02132957238456
 20
139.23203731452912
 10
51.238176896734274
 20
139.23468560049676
 10
50.48102407455099
 20
139.03454882062698
 10
49.80146981941226
 20
138.6452659657263
 10
49.24582463078934
 20
138.0933660190358
 10
27.608229002510882
 20
135.31912663710648
 10
27.608229002510882
 20
135.3191266371065
 10
26.931323033339766
 20
135.7129964578561
 10
26.175541064847096
 20
135.9182493333489
 10
25.39238838919681
 20
135.92089761931652
 10
24.635235567013467
 20
135.72076083944677
 10
23.955681311874798
 20
135.33147798454607
 10
23.400036123251823
 20
134.7795780378556
 10
23.006166302502265
 20
134.1026720686845
 10
22.800913427009448
 20
133.3468901001918
 10
22.79826514104178
 20
132.56373742454153
 10
22.998401920911533
 20
131.8065846023582
 10
23.38768477581226
 20
131.12703034721952
 10
23.93958472250273
 20
130.57138515859657
 10
24.806231737882
 20
123.81199813764312
 10
24.412361917132387
 20
123.13509216847203
 10
24.20710904163957
 20
122.37931019997933
 10
24.20446075567196
 20
121.59615752432904
 10
24.40459753554171
 20
120.83900470214573
 10
24.79388039044244
 20
120.15945044700703
 10
25.345780337132908
 20
119.60380525838409
 10
26.022686306303967
 20
119.2099354376345
 10
26.778468274796694
 20
119.00468256214168
 10
27.56162095044698
 20
119.00203427617404
 10
28.318773772630266
 20
119.20217105604382
 10
28.99832802776899
 20
119.5914539109445
 10
29.55397321639191
 20
120.14335385763499
 10
32.594026394698346
 20
120.53313077163716
 10
33.26939797047487
 20
116.18239163976503
 10
32.89359147997169
 20
115.49529295071633
 10
32.70842451169841
 20
114.73434070473948
 10
32.72651588853989
 20
113.95139253986471
 10
32.94663271306189
 20
113.19980507964527
 10
33.353774387433475
 20
112.53079776743806
 10
33.92019487937961
 20
111.9899623459832
 10
34.607293568428304
 20
111.61415585548002
 10
35.36824581440516
 20
111.42898888720669
 10
36.151193979279924
 20
111.4470802640482
 10
36.90278143949939
 20
111.66719708857019
 10
37.57178875170655
 20
112.07433876294175
 10
38.11262417316141
 20
112.64075925488791
 10
59.66916693670828
 20
115.98701280244222
 10
60.356265625756976
 20
115.61120631193904
 10
61.11721787173383
 20
115.42603934366574
 10
61.900166036608596
 20
115.44413072050725
 10
62.65175349682801
 20
115.66424754502924
 10
63.32076080903522
 20
116.0713892194008
 10
63.86159623049008
 20
116.63780971134693
  0
LWPOLYLINE
  5
96
330
17
100
AcDbEntity
  8
CUT_IN
100
AcDbPolyline
 90
82
 70
1
 10
61.68840110869127
 20
246.09785959758733
 10
61.97644429429914
 20
246.8261220846218
 10
62.066184444886176
 20
247.60412069141324
 10
61.95150591749234
 20
248.37883609861225
 10
61.64022386424443
 20
249.09747273149603
 10
61.15355164265327
 20
249.7110566911367
 10
61.04411352096332
 20
256.52489652237875
 10
61.04411352096332
 20
256.52489652237875
 10
61.51083007450683
 20
257.15379300467555
 10
61.7988732601147
 20
257.88205549171
 10
61.88861341070174
 20
258.6600540985014
 10
61.7739348833079
 20
259.43476950570044
 10
61.462652830059994
 20
260.1534061385842
 10
60.97598060846883
 20
260.7669900982249
 10
60.347084126172035
 20
261.2337066517684
 10
59.61882163913759
 20
261.52174983737626
 10
58.84082303234618
 20
261.61148998796324
 10
58.06610762514714
 20
261.49681146056946
 10
57.34747099226337
 20
261.1855294073215
 10
56.733887032622704
 20
260.6988571857304
 10
48.58254167586375
 20
260.56793718361945
 10
48.527526507835034
 20
264.00829588366355
 10
48.99428709601392
 20
264.6371596845932
 10
49.28238127437362
 20
265.3654020008534
 10
49.3721759007571
 20
266.14339432206833
 10
49.25755161976889
 20
266.91811775724034
 10
48.94631988673285
 20
267.63677618455347
 10
48.459690629920544
 20
268.25039421982547
 10
47.830826828990894
 20
268.71715480800435
 10
47.10258451273069
 20
269.00524898636405
 10
46.32459219151576
 20
269.0950436127475
 10
45.549868756343756
 20
268.9804193317593
 10
44.831210329030625
 20
268.6691875987232
 10
44.21759229375863
 20
268.1825583419109
 10
22.405662316483927
 20
267.8337612840009
 10
21.776798515554276
 20
268.3005218721798
 10
21.04855619929407
 20
268.5886160505395
 10
20.270563878079145
 20
268.6784106769229
 10
19.495840442907138
 20
268.56378639593476
 10
18.777182015594008
 20
268.25255466289866
 10
18.16356398032201
 20
267.76592540608635
 10
17.696803392143124
 20
267.13706160515676
 10
17.408709213783425
 20
266.40881928889655
 10
17.318914587399945
 20
265.63082696768157
 10
17.433538868388155
 20
264.85610353250956
 10
17.74477060142425
 20
264.1374451051965
 10
18.231399858236557
 20
263.5238270699245
 10
18.34036086974112
 20
256.70997959245096
 10
17.873600281562233
 20
256.08111579152137
 10
17.585506103202533
 20
255.35287347526116
 10
17.495711476819054
 20
254.5748811540462
 10
17.610335757807263
 20
253.8001577188742
 10
17.9215674908433
 20
253.0814992915611
 10
18.40819674765561
 20
252.4678812562891
 10
19.03706054858526
 20
252.00112066811022
 10
19.765302864845467
 20
251.71302648975052
 10
20.54329518606039
 20
251.62323186336704
 10
21.318018621232397
 20
251.73785614435525
 10
22.036677048545528
 20
252.04908787739132
 10
22.650295083817525
 20
252.5357171342036
 10
30.802182792652104
 20
252.6660748995282
 10
30.85745899017553
 20
249.2244665222235
 10
30.390742436632024
 20
248.5955700399267
 10
30.10269925102415
 20
247.86730755289224
 10
30.012959100437115
 20
247.08930894610083
 10
30.12763762783095
 20
246.3145935389018
 10
30.438919681078858
 20
245.59595690601805
 10
30.92559190267002
 20
244.98237294637738
 10
31.554488384966817
 20
244.51565639283388
 10
32.28275087200126
 20
244.227613207226
 10
33.06074947879267
 20
244.137873056639
 10
33.83546488599171
 20
244.2525515840328
 10
34.554101518875484
 20
244.56383363728074
 10
35.16768547851615
 20
245.05050585887187
 10
56.97959097930163
 20
245.40083020279607
 10
57.60848746159843
 20
244.93411364925257
 10
58.33674994863287
 20
244.6460704636447
 10
59.11474855542434
 20
244.55633031305769
 10
59.889463962623324
 20
244.6710088404515
 10
60.608100595507096
 20
244.98229089369943
 10
61.22168455514776
 20
245.46896311529056
 10
61.68840110869127
 20
246.09785959758733
  0
LWPOLYLINE
  5
97
330
17
100
AcDbEntity
  8
CUT_IN
100
AcDbPolyline
 90
56
 70
1
 10
92.50740836617257
 20
299.73824130095716
 10
91.78386550148014
 20
300.037942568471
 10
91.00740836617257
 20
300.14016508960384
 10
90.230951230865
 20
300.037942568471
 10
89.50740836617257
 20
299.73824130095716
 10
88.88608802261291
 20
299.26148543316344
 10
79.07136939685148
 20
299.26148543316344
 10
79.07136939685148
 20
299.26148543316344
 10
78.45004905329182
 20
299.73824130095716
 10
77.72650618859939
 20
300.037942568471
 10
76.95004905329182
 20
300.14016508960384
 10
76.17359191798425
 20
300.037942568471
 10
75.45004905329182
 20
299.73824130095716
 10
74.82872870973222
 20
299.26148543316344
 10
74.3519728419385
 20
298.64016508960384
 10
74.05227157442465
 20
297.9166222249114
 10
73.95004905329182
 20
297.14016508960384
 10
74.05227157442465
 20
296.3637079542963
 10
74.3519728419385
 20
295.64016508960384
 10
74.82872870973222
 20
295.0188447460442
 10
74.82872870973222
 20
273.20412612028275
 10
74.3519728419385
 20
272.5828057767231
 10
74.05227157442465
 20
271.85926291203066
 10
73.95004905329182
 20
271.0828057767231
 10
74.05227157442465
 20
270.3063486414155
 10
74.3519728419385
 20
269.5828057767231
 10
74.82872870973222
 20
268.9614854331635
 10
75.45004905329182
 20
268.4847295653698
 10
76.17359191798425
 20
268.1850282978559
 10
76.95004905329182
 20
268.0828057767231
 10
77.72650618859939
 20
268.1850282978559
 10
78.45004905329182
 20
268.4847295653698
 10
79.07136939685148
 20
268.9614854331635
 10
88.88608802261291
 20
268.9614854331635
 10
88.88608802261291
 20
268.9614854331635
 10
89.50740836617257
 20
268.4847295653698
 10
90.230951230865
 20
268.1850282978559
 10
91.00740836617257
 20
268.0828057767231
 10
91.78386550148014
 20
268.1850282978559
 10
92.50740836617257
 20
268.4847295653698
 10
93.12872870973217
 20
268.9614854331635
 10
93.60548457752589
 20
269.5828057767231
 10
93.90518584503974
 20
270.3063486414155
 10
94.00740836617257
 20
271.0828057767231
 10
93.90518584503974
 20
271.85926291203066
 10
93.60548457752589
 20
272.5828057767231
 10
93.12872870973217
 20
273.20412612028275
 10
93.12872870973217
 20
295.0188447460442
 10
93.12872870973217
 20
295.0188447460442
 10
93.60548457752589
 20
295.64016508960384
 10
93.90518584503974
 20
296.3637079542963
 10
94.00740836617257
 20
297.14016508960384
 10
93.90518584503974
 20
297.9166222249114
 10
93.60548457752589
 20
298.64016508960384
 10
93.12872870973217
 20
299.26148543316344
 10
92.50740836617257
 20
299.73824130095716
  0
LWPOLYLINE
  5
98
330
17
100
AcDbEntity
  8
CUT_IN
100
AcDbPolyline
 90
81
 70
1
 10
60.79554236013894
 20
380.11049923536837
 10
61.279977525268976
 20
380.72585092146517
 10
61.58864122663289
 20
381.44561605416965
 10
61.70049854307365
 20
382.2207438291561
 10
61.60792658332866
 20
382.99841056951846
 10
61.31723397347224
 20
383.72561957205596
 10
60.848230934473804
 20
384.35281274501546
 10
60.93286167164058
 20
391.1670058437342
 10
61.41729683677062
 20
391.7823575298311
 10
61.72596053813453
 20
392.50212266253556
 10
61.83781785457529
 20
393.277250437522
 10
61.745245894830305
 20
394.0549171778843
 10
61.45455328497388
 20
394.78212618042187
 10
60.985550245975446
 20
395.40931935338136
 10
60.370198559878645
 20
395.8937545185114
 10
59.650433427174164
 20
396.2024182198753
 10
58.875305652187706
 20
396.314275536316
 10
58.09763891182541
 20
396.22170357657103
 10
57.37042990928785
 20
395.93101096671467
 10
56.743236736328356
 20
395.46200792771623
 10
47.85356396462606
 20
395.57241565302445
 10
47.88129789954894
 20
397.3226988081526
 10
48.36783776051101
 20
397.93638772812085
 10
48.67896479747719
 20
398.6550914874441
 10
48.793476217039995
 20
399.4298316126387
 10
48.70356825519525
 20
400.2078108444911
 10
48.41536799096275
 20
400.93601118402216
 10
47.94851579607649
 20
401.5648069815007
 10
47.33482687610825
 20
402.05134684246275
 10
46.61612311678499
 20
402.36247387942893
 10
45.84138299159042
 20
402.47698529899174
 10
45.06340375973798
 20
402.387077337147
 10
44.335203420206994
 20
402.0988770729145
 10
43.70640762272842
 20
401.63202487802823
 10
21.894427064821514
 20
401.9776444125357
 10
21.280738144853274
 20
402.46418427349784
 10
20.562034385530012
 20
402.77531131046396
 10
19.787294260335443
 20
402.8898227300268
 10
19.009315028483
 20
402.799914768182
 10
18.281114688952016
 20
402.5117145039495
 10
17.652318891473442
 20
402.0448623090633
 10
17.165779030511374
 20
401.4311733890951
 10
16.85465199354519
 20
400.7124696297718
 10
16.740140573982387
 20
399.93772950457725
 10
16.83004853582713
 20
399.1597502727248
 10
17.118248800059632
 20
398.43154993319376
 10
17.58510099494589
 20
397.80275413571525
 10
17.47713261269712
 20
390.9888908573148
 10
16.99059275173505
 20
390.37520193734656
 10
16.679465714768867
 20
389.6564981780233
 10
16.564954295206064
 20
388.88175805282873
 10
16.65486225705081
 20
388.1037788209763
 10
16.94306252128331
 20
387.37557848144525
 10
17.409914716169567
 20
386.7467826839667
 10
18.023603636137807
 20
386.26024282300466
 10
18.74230739546107
 20
385.9491157860385
 10
19.517047520655638
 20
385.8346043664757
 10
20.29502675250808
 20
385.9245123283204
 10
21.023227092039065
 20
386.2127125925529
 10
21.65202288951764
 20
386.6795647874392
 10
30.573036237209067
 20
386.53820777162946
 10
30.55056756350689
 20
384.7291028718682
 10
30.06613239837685
 20
384.1137511857713
 10
29.75746869701294
 20
383.39398605306684
 10
29.645611380572177
 20
382.6188582780804
 10
29.738183340317164
 20
381.8411915377181
 10
30.028875950173585
 20
381.1139825351805
 10
30.497878989172023
 20
380.48678936222103
 10
31.113230675268824
 20
380.002354197091
 10
31.832995807973305
 20
379.6936904957271
 10
32.60812358295976
 20
379.5818331792864
 10
33.385790323322055
 20
379.67440513903136
 10
34.11299932585962
 20
379.96509774888773
 10
34.74019249881911
 20
380.43410078788617
 10
56.55322885049185
 20
380.16318780970323
 10
57.16858053658865
 20
379.67875264457314
 10
57.88834566929313
 20
379.3700889432093
 10
58.66347344427959
 20
379.2582316267685
 10
59.44114018464188
 20
379.3508035865135
 10
60.168349187179444
 20
379.6414961963699
 10
60.79554236013894
 20
380.11049923536837
  0
LWPOLYLINE
  5
99
330
17
100
AcDbEntity
  8
CUT_IN
100
AcDbPolyline
 90
53
 70
1
 10
92.50740836617257
 20
480.5740866929631
 10
91.78386550148014
 20
480.873787960477
 10
91.00740836617257
 20
480.97601048160976
 10
90.230951230865
 20
480.873787960477
 10
89.50740836617257
 20
480.5740866929631
 10
88.88608802261291
 20
480.09733082516937
 10
79.07136939685148
 20
480.09733082516937
 10
78.45004905329182
 20
480.5740866929631
 10
77.72650618859939
 20
480.873787960477
 10
76.95004905329182
 20
480.97601048160976
 10
76.17359191798425
 20
480.873787960477
 10
75.45004905329182
 20
480.5740866929631
 10
74.82872870973222
 20
480.09733082516937
 10
74.3519728419385
 20
479.4760104816097
 10
74.05227157442465
 20
478.75246761691733
 10
73.95004905329182
 20
477.9760104816097
 10
74.05227157442465
 20
477.1995533463022
 10
74.3519728419385
 20
476.4760104816097
 10
74.82872870973222
 20
475.8546901380501
 10
74.82872870973222
 20
454.0399715122887
 10
74.3519728419385
 20
453.418651168729
 10
74.05227157442465
 20
452.6951083040366
 10
73.95004905329182
 20
451.91865116872907
 10
74.05227157442465
 20
451.14219403342145
 10
74.3519728419385
 20
450.418651168729
 10
74.82872870973222
 20
449.7973308251694
 10
75.45004905329182
 20
449.3205749573757
 10
76.17359191798425
 20
449.0208736898618
 10
76.95004905329182
 20
448.918651168729
 10
77.72650618859939
 20
449.0208736898618
 10
78.45004905329182
 20
449.3205749573757
 10
79.07136939685148
 20
449.7973308251694
 10
88.88608802261291
 20
449.7973308251694
 10
89.50740836617257
 20
449.3205749573757
 10
90.230951230865
 20
449.0208736898618
 10
91.00740836617257
 20
448.918651168729
 10
91.78386550148014
 20
449.0208736898618
 10
92.50740836617257
 20
449.3205749573757
 10
93.12872870973217
 20
449.7973308251694
 10
93.60548457752589
 20
450.41865116872907
 10
93.90518584503974
 20
451.14219403342145
 10
94.00740836617257
 20
451.91865116872907
 10
93.90518584503974
 20
452.6951083040366
 10
93.60548457752589
 20
453.41865116872907
 10
93.12872870973217
 20
454.0399715122887
 10
93.12872870973217
 20
475.8546901380501
 10
93.60548457752589
 20
476.4760104816097
 10
93.90518584503974
 20
477.1995533463022
 10
94.00740836617257
 20
477.9760104816097
 10
93.90518584503974
 20
478.75246761691733
 10
93.60548457752589
 20
479.4760104816097
 10
93.12872870973217
 20
480.09733082516937
 10
92.50740836617257
 20
480.5740866929631
  0
LWPOLYLINE
  5
9A
330
17
100
AcDbEntity
  8
CUT_IN
100
AcDbPolyline
 90
81
 70
1
 10
80.6689731835308
 20
505.77677864583256
 10
81.08349137508696
 20
506.4412406806139
 10
81.31190977242875
 20
507.1903469231139
 10
81.33866203925658
 20
507.97304702086296
 10
81.16192505279622
 20
508.7360012556725
 10
80.79374314660339
 20
509.42721555728156
 10
81.91351924163246
 20
516.1493053696317
 10
82.48588849767225
 20
516.6838412070994
 10
82.90040668922842
 20
517.3483032418807
 10
83.1288250865702
 20
518.0974094843807
 10
83.15557735339797
 20
518.8801095821298
 10
82.97884036693767
 20
519.6430638169393
 10
82.61065846074484
 20
520.3342781185484
 10
82.07612262327717
 20
520.9066473745881
 10
81.4116605884958
 20
521.3211655661444
 10
80.66255434599577
 20
521.5495839634862
 10
79.87985424824672
 20
521.5763362303139
 10
79.11690001343726
 20
521.3995992438536
 10
78.42568571182812
 20
521.0314173376607
 10
57.986929986850726
 20
524.4361368091143
 10
58.23648563735594
 20
524.6617792418014
 10
58.661656728588525
 20
525.3194757295347
 10
58.902116089279104
 20
526.0648041287341
 10
58.94147681137457
 20
526.8469715407073
 10
58.777056526710794
 20
527.6126745489212
 10
58.42006020597012
 20
528.3097317587501
 10
57.89481655844685
 20
528.8906398732856
 10
57.237120070713445
 20
529.3158109645182
 10
56.49179167151408
 20
529.5562703252087
 10
55.709624259540874
 20
529.5956310473043
 10
54.94392125132697
 20
529.4312107626404
 10
54.2468640414981
 20
529.0742144418998
 10
32.789213768531454
 20
533.0050150580844
 10
32.789213768531454
 20
533.0050150580844
 10
32.26397012100813
 20
533.5859231726199
 10
31.606273633274725
 20
534.0110942638524
 10
30.860945234075416
 20
534.251553624543
 10
30.078777822102154
 20
534.2909143466386
 10
29.31307481388825
 20
534.1264940619747
 10
28.61601760405938
 20
533.7694977412341
 10
28.035109489523904
 20
533.2442540937108
 10
27.60993839829132
 20
532.5865576059774
 10
27.369479037600684
 20
531.841229206778
 10
27.330118315505217
 20
531.0590617948048
 10
27.49453860016905
 20
530.2933587865909
 10
27.85153492090967
 20
529.596301576762
 10
26.62358875149937
 20
522.8931278393948
 10
26.042680636963837
 20
522.3678841918714
 10
25.617509545731252
 20
521.7101877041381
 10
25.377050185040673
 20
520.9648593049387
 10
25.337689462945207
 20
520.1826918929655
 10
25.502109747608984
 20
519.4169888847516
 10
25.85910606834966
 20
518.7199316749227
 10
26.38434971587293
 20
518.1390235603872
 10
27.042046203606333
 20
517.7138524691546
 10
27.7873746028057
 20
517.473393108464
 10
28.569542014778904
 20
517.4340323863685
 10
29.335245022992808
 20
517.5984526710324
 10
30.032302232821678
 20
517.955448991773
 10
50.66001608874342
 20
514.1766834091552
 10
50.333225531180574
 20
513.871493599395
 10
49.918707339624405
 20
513.2070315646137
 10
49.69028894228262
 20
512.4579253221136
 10
49.66353667545485
 20
511.67522522436457
 10
49.84027366191515
 20
510.91227098955505
 10
50.20845556810798
 20
510.221056687946
 10
50.74299140557565
 20
509.6486874319062
 10
51.40745344035702
 20
509.23416924034996
 10
52.15655968285705
 20
509.0057508430082
 10
52.93925978060611
 20
508.9789985761804
 10
53.702214015415564
 20
509.15573556264076
 10
54.3934283170247
 20
509.5239174688336
 10
75.91163117857434
 20
505.9393820274772
 10
75.91163117857434
 20
505.9393820274772
 10
76.44616701604201
 20
505.3670127714375
 10
77.11062905082332
 20
504.9524945798813
 10
77.85973529332341
 20
504.72407618253953
 10
78.64243539107247
 20
504.6973239157117
 10
79.40538962588192
 20
504.874060902172
 10
80.096603927491
 20
505.24224280836484
 10
80.6689731835308
 20
505.77677864583256
  0
LWPOLYLINE
  5
9B
330
17
100
AcDbEntity
  8
CUT_IN
100
AcDbPolyline
 90
53
 70
1
 10
96.49832660579116
 20
591.9234851576135
 10
97.26056263645862
 20
591.7436759243992
 10
98.04336415824949
 20
591.7672747438323
 10
98.79338454109447
 20
591.9926733953675
 10
99.4595111353699
 20
592.4045113333914
 10
99.99634851450219
 20
592.9747224830221
 10
100.3673120982692
 20
593.6644478967307
 10
106.58184909133541
 20
596.4608598674731
 10
107.34408512200287
 20
596.2810506342588
 10
108.12688664379374
 20
596.304649453692
 10
108.87690702663872
 20
596.5300481052271
 10
109.54303362091417
 20
596.9418860432511
 10
110.07987100004644
 20
597.5120971928817
 10
110.45083458381345
 20
598.2018226065903
 10
110.63064381702773
 20
598.9640586372577
 10
110.60704499759456
 20
599.7468601590487
 10
110.3816463460594
 20
600.4968805418937
 10
109.9698084080355
 20
601.1630071361691
 10
109.39959725840481
 20
601.6998445153014
 10
108.70987184469621
 20
602.0708080990684
 10
99.75822708083933
 20
621.9642744823525
 10
99.93803631405362
 20
622.72651051302
 10
99.91443749462044
 20
623.5093120348108
 10
99.68903884308529
 20
624.2593324176557
 10
99.27720090506139
 20
624.9254590119313
 10
98.7069897554307
 20
625.4622963910635
 10
98.0172643417221
 20
625.8332599748305
 10
97.25502831105464
 20
626.0130692080448
 10
96.47222678926377
 20
625.9894703886116
 10
95.72220640641879
 20
625.7640717370765
 10
95.05607981214337
 20
625.3522337990526
 10
94.51924243301107
 20
624.7820226494218
 10
94.1482788492441
 20
624.0922972357133
 10
87.93374185617785
 20
621.2958852649709
 10
87.1715058255104
 20
621.4756944981852
 10
86.38870430371952
 20
621.4520956787521
 10
85.63868392087454
 20
621.2266970272169
 10
84.97255732659909
 20
620.8148590891931
 10
84.4357199474668
 20
620.2446479395624
 10
84.06475636369981
 20
619.5549225258537
 10
83.88494713048556
 20
618.7926864951862
 10
83.90854594991873
 20
618.0098849733954
 10
84.13394460145389
 20
617.2598645905505
 10
84.54578253947778
 20
616.593737996275
 10
85.11599368910845
 20
616.0569006171427
 10
85.80571910281708
 20
615.6859370333757
 10
94.75736386667393
 20
595.7924706500916
 10
94.57755463345967
 20
595.0302346194242
 10
94.60115345289285
 20
594.2474330976331
 10
94.82655210442795
 20
593.4974127147882
 10
95.23839004245187
 20
592.8312861205128
 10
95.80860119208253
 20
592.2944487413805
 10
96.49832660579116
 20
591.9234851576135
  0
LWPOLYLINE
  5
9C
330
17
100
AcDbEntity
  8
CUT_IN
100
AcDbPolyline
 90
54
 70
1
 10
223.17261333894834
 20
51.773856737660395
 10
222.55909033695778
 20
52.26060580322218
 10
221.84049269595945
 20
52.57197785904677
 10
221.06579165764867
 20
52.68675341409636
 10
220.28778181753225
 20
52.59711070396986
 10
219.55948326049213
 20
52.30915873122086
 10
218.9305283296203
 20
51.84252094692903
 10
212.11670225830156
 20
51.95281246118495
 10
211.50317925631103
 20
52.43956152674673
 10
210.7845816153127
 20
52.75093358257132
 10
210.0098805770019
 20
52.86570913762091
 10
209.2318707368855
 20
52.77606642749441
 10
208.50357217984538
 20
52.488114454745414
 10
207.87461724897355
 20
52.02147667045358
 10
207.38786818341174
 20
51.40795366846302
 10
207.07649612758718
 20
50.689356027464726
 10
206.9617205725376
 20
49.91465498915392
 10
207.05136328266408
 20
49.13664514903752
 10
207.33931525541308
 20
48.40834659199737
 10
207.80595303970492
 20
47.779391661125544
 10
207.4528968854557
 20
25.967530207478603
 10
206.96614781989388
 20
25.354007205488074
 10
206.6547757640693
 20
24.63540956448975
 10
206.54000020901972
 20
23.86070852617894
 10
206.62964291914622
 20
23.082698686062542
 10
206.91759489189522
 20
22.35440012902245
 10
207.38423267618703
 20
21.725445198150624
 10
207.99775567817758
 20
21.238696132588814
 10
208.7163533191759
 20
20.927324076764194
 10
209.4910543574867
 20
20.812548521714632
 10
210.26906419760311
 20
20.90219123184113
 10
210.99736275464323
 20
21.19014320459013
 10
211.62631768551506
 20
21.656780988881962
 10
218.4401437568338
 20
21.54648947462607
 10
218.4401437568338
 20
21.546489474626014
 10
219.05366675882433
 20
21.05974040906426
 10
219.77226439982266
 20
20.748368353239698
 10
220.54696543813347
 20
20.63359279819008
 10
221.32497527824987
 20
20.723235508316577
 10
222.05327383528999
 20
21.011187481065576
 10
222.6822287661618
 20
21.47782526535741
 10
223.16897783172362
 20
22.09134826734794
 10
223.4803498875482
 20
22.809945908346265
 10
223.59512544259775
 20
23.584646946657074
 10
223.50548273247128
 20
24.36265678677347
 10
223.21753075972228
 20
25.09095534381362
 10
222.75089297543045
 20
25.719910274685446
 10
223.10394912967968
 20
47.53177172833239
 10
223.5906981952415
 20
48.14529473032292
 10
223.90207025106605
 20
48.86389237132124
 10
224.01684580611564
 20
49.63859340963205
 10
223.92720309598917
 20
50.41660324974845
 10
223.63925112324014
 20
51.14490180678857
 10
223.17261333894834
 20
51.773856737660395
  0
LWPOLYLINE
  5
9D
330
17
100
AcDbEntity
  8
CUT_IN
100
AcDbPolyline
 90
53
 70
1
 10
493.453885239619
 20
52.488114454745414
 10
492.72558668257886
 20
52.77606642749441
 10
491.94757684246247
 20
52.86570913762091
 10
491.17287580415166
 20
52.75093358257132
 10
490.4542781631534
 20
52.43956152674673
 10
489.84075516116286
 20
51.95281246118495
 10
483.0269290898441
 20
51.84252094692903
 10
482.39797415897226
 20
52.30915873122086
 10
481.6696756019321
 20
52.59711070396986
 10
480.8916657618157
 20
52.68675341409636
 10
480.1169647235049
 20
52.57197785904677
 10
479.39836708250664
 20
52.26060580322218
 10
478.78484408051605
 20
51.773856737660395
 10
478.3182062962243
 20
51.14490180678857
 10
478.0302543234752
 20
50.41660324974845
 10
477.9406116133488
 20
49.63859340963205
 10
478.05538716839834
 20
48.86389237132124
 10
478.3667592242229
 20
48.14529473032292
 10
478.8535082897847
 20
47.53177172833239
 10
479.2065644440339
 20
25.719910274685446
 10
478.7399266597421
 20
25.09095534381362
 10
478.45197468699314
 20
24.36265678677347
 10
478.36233197686664
 20
23.584646946657074
 10
478.4771075319162
 20
22.809945908346265
 10
478.78847958774077
 20
22.09134826734794
 10
479.2752286533026
 20
21.47782526535741
 10
479.9041835841744
 20
21.011187481065576
 10
480.6324821412145
 20
20.723235508316577
 10
481.4104919813309
 20
20.63359279819008
 10
482.1851930196417
 20
20.748368353239698
 10
482.9037906606401
 20
21.05974040906426
 10
483.5173136626306
 20
21.54648947462607
 10
490.3311397339493
 20
21.656780988881962
 10
490.96009466482116
 20
21.19014320459013
 10
491.68839322186125
 20
20.90219123184113
 10
492.4664030619777
 20
20.812548521714632
 10
493.24110410028845
 20
20.927324076764194
 10
493.95970174128684
 20
21.238696132588814
 10
494.57322474327736
 20
21.725445198150624
 10
495.0398625275692
 20
22.35440012902245
 10
495.32781450031814
 20
23.082698686062542
 10
495.4174572104447
 20
23.86070852617894
 10
495.3026816553951
 20
24.63540956448975
 10
494.9913095995705
 20
25.354007205488074
 10
494.5045605340087
 20
25.967530207478603
 10
494.15150437975944
 20
47.779391661125544
 10
494.6181421640513
 20
48.40834659199737
 10
494.90609413680033
 20
49.13664514903752
 10
494.9957368469268
 20
49.91465498915392
 10
494.8809612918772
 20
50.689356027464726
 10
494.56958923605265
 20
51.40795366846305
 10
494.08284017049084
 20
52.02147667045358
 10
493.453885239619
 20
52.488114454745414
  0
LWPOLYLINE
  5
9E
330
17
100
AcDbEntity
  8
CUT_IN
100
AcDbPolyline
 90
56
 70
1
 10
359.0419786862118
 20
52.41265009616299
 10
358.3251302754678
 20
52.72802841312631
 10
357.55108196715344
 20
52.84712645338075
 10
356.772583874305
 20
52.76182788230179
 10
356.04268935542115
 20
52.4779456565459
 10
355.4111395157562
 20
52.014825880660794
 10
348.5980352268941
 20
52.16314950450112
 10
347.9872387482647
 20
52.65331558705958
 10
347.2703903375208
 20
52.9686939040229
 10
346.4963420292064
 20
53.08779194427734
 10
345.71784393635795
 20
53.00249337319838
 10
344.9879494174741
 20
52.71861114744249
 10
344.3563995778091
 20
52.25549137155738
 10
343.86623349525064
 20
51.64469489292799
 10
343.55085517828735
 20
50.92784648218404
 10
343.4317571380329
 20
50.15379817386969
 10
343.51705570911184
 20
49.37530008102124
 10
343.80093793486776
 20
48.6454055621374
 10
344.26405771075287
 20
48.013855722472385
 10
343.7892562849979
 20
26.204304779657377
 10
343.7892562849979
 20
26.204304779657377
 10
343.29909020243946
 20
25.59350830102801
 10
342.98371188547617
 20
24.87665989028403
 10
342.8646138452217
 20
24.102611581969654
 10
342.94991241630066
 20
23.324113489121203
 10
343.2337946420566
 20
22.59421897023742
 10
343.6969144179417
 20
21.962669130572408
 10
344.30771089657105
 20
21.472503048013948
 10
345.02455930731503
 20
21.1571247310506
 10
345.7986076156294
 20
21.03802669079613
 10
346.5771057084778
 20
21.123325261875095
 10
347.30700022736164
 20
21.407207487631013
 10
347.93855006702665
 20
21.870327263516117
 10
354.7516543558887
 20
21.72200363967579
 10
354.7516543558887
 20
21.72200363967579
 10
355.3624508345181
 20
21.23183755711733
 10
356.07929924526206
 20
20.916459240153984
 10
356.85334755357644
 20
20.79736119989957
 10
357.6318456464249
 20
20.882659770978535
 10
358.3617401653087
 20
21.166541996734395
 10
358.9932900049737
 20
21.6296617726195
 10
359.48345608753215
 20
22.240458251248924
 10
359.7988344044955
 20
22.957306661992902
 10
359.9179324447499
 20
23.731354970307223
 10
359.832633873671
 20
24.509853063155674
 10
359.5487516479151
 20
25.239747582039513
 10
359.08563187203
 20
25.871297421704526
 10
359.56043329778487
 20
47.680848364519534
 10
359.56043329778487
 20
47.680848364519534
 10
360.05059938034333
 20
48.2916448431489
 10
360.3659776973067
 20
49.00849325389288
 10
360.4850757375611
 20
49.78254156220726
 10
360.3997771664822
 20
50.56103965505568
 10
360.11589494072626
 20
51.29093417393952
 10
359.65277516484116
 20
51.9224840136045
 10
359.0419786862118
 20
52.41265009616299
  0
LWPOLYLINE
  5
9F
330
17
100
AcDbEntity
  8
CUT_IN
100
AcDbPolyline
 90
53
 70
1
 10
237.60548457752589
 20
63.7469603847172
 10
237.90518584503974
 20
64.47050324940963
 10
238.00740836617257
 20
65.2469603847172
 10
237.90518584503974
 20
66.02341752002474
 10
237.60548457752589
 20
66.7469603847172
 10
237.1287287097322
 20
67.36828072827683
 10
237.1287287097322
 20
77.18299935403826
 10
237.60548457752589
 20
77.80431969759789
 10
237.90518584503974
 20
78.52786256229035
 10
238.00740836617257
 20
79.30431969759789
 10
237.90518584503974
 20
80.08077683290546
 10
237.60548457752589
 20
80.80431969759792
 10
237.1287287097322
 20
81.42564004115755
 10
236.50740836617257
 20
81.90239590895123
 10
235.7838655014801
 20
82.20209717646512
 10
235.00740836617257
 20
82.30431969759789
 10
234.230951230865
 20
82.20209717646512
 10
233.50740836617257
 20
81.9023959089512
 10
232.8860880226129
 20
81.42564004115755
 10
211.07136939685148
 20
81.42564004115755
 10
210.45004905329182
 20
81.90239590895123
 10
209.7265061885994
 20
82.20209717646512
 10
208.95004905329185
 20
82.30431969759789
 10
208.17359191798428
 20
82.20209717646512
 10
207.45004905329182
 20
81.9023959089512
 10
206.8287287097322
 20
81.42564004115755
 10
206.35197284193853
 20
80.80431969759789
 10
206.05227157442462
 20
80.08077683290546
 10
205.95004905329182
 20
79.30431969759789
 10
206.05227157442462
 20
78.52786256229035
 10
206.35197284193853
 20
77.80431969759789
 10
206.8287287097322
 20
77.18299935403826
 10
206.8287287097322
 20
67.36828072827683
 10
206.35197284193853
 20
66.7469603847172
 10
206.05227157442462
 20
66.02341752002474
 10
205.95004905329182
 20
65.2469603847172
 10
206.05227157442462
 20
64.47050324940963
 10
206.35197284193853
 20
63.74696038471717
 10
206.8287287097322
 20
63.12564004115754
 10
207.45004905329185
 20
62.64888417336388
 10
208.17359191798428
 20
62.34918290584997
 10
208.95004905329185
 20
62.2469603847172
 10
209.7265061885994
 20
62.34918290584997
 10
210.45004905329185
 20
62.64888417336388
 10
211.07136939685148
 20
63.12564004115754
 10
232.8860880226129
 20
63.12564004115754
 10
233.50740836617257
 20
62.64888417336388
 10
234.230951230865
 20
62.34918290584997
 10
235.00740836617257
 20
62.2469603847172
 10
235.78386550148014
 20
62.34918290584997
 10
236.50740836617257
 20
62.64888417336388
 10
237.1287287097322
 20
63.12564004115754
 10
237.60548457752589
 20
63.7469603847172
  0
LWPOLYLINE
  5
A0
330
17
100
AcDbEntity
  8
CUT_IN
100
AcDbPolyline
 90
53
 70
1
 10
495.1287287097322
 20
63.12564004115754
 10
495.6054845775259
 20
63.7469603847172
 10
495.9051858450398
 20
64.47050324940963
 10
496.00740836617257
 20
65.2469603847172
 10
495.9051858450398
 20
66.02341752002474
 10
495.6054845775259
 20
66.7469603847172
 10
495.1287287097322
 20
67.36828072827683
 10
495.1287287097322
 20
77.18299935403826
 10
495.6054845775259
 20
77.80431969759789
 10
495.9051858450398
 20
78.52786256229035
 10
496.00740836617257
 20
79.30431969759789
 10
495.9051858450398
 20
80.08077683290546
 10
495.6054845775259
 20
80.80431969759792
 10
495.1287287097322
 20
81.42564004115755
 10
494.5074083661725
 20
81.90239590895123
 10
493.78386550148014
 20
82.20209717646512
 10
493.0074083661725
 20
82.30431969759789
 10
492.230951230865
 20
82.20209717646512
 10
491.5074083661725
 20
81.9023959089512
 10
490.8860880226129
 20
81.42564004115755
 10
469.0713693968515
 20
81.42564004115755
 10
468.4500490532918
 20
81.90239590895123
 10
467.7265061885994
 20
82.20209717646512
 10
466.9500490532918
 20
82.30431969759789
 10
466.17359191798425
 20
82.20209717646512
 10
465.4500490532918
 20
81.9023959089512
 10
464.8287287097322
 20
81.42564004115755
 10
464.3519728419385
 20
80.80431969759789
 10
464.05227157442465
 20
80.08077683290546
 10
463.9500490532918
 20
79.30431969759789
 10
464.05227157442465
 20
78.52786256229035
 10
464.3519728419385
 20
77.80431969759789
 10
464.8287287097322
 20
77.18299935403826
 10
464.8287287097322
 20
67.36828072827683
 10
464.3519728419385
 20
66.7469603847172
 10
464.05227157442465
 20
66.02341752002474
 10
463.9500490532918
 20
65.2469603847172
 10
464.05227157442465
 20
64.47050324940963
 10
464.3519728419385
 20
63.74696038471717
 10
464.8287287097322
 20
63.12564004115754
 10
465.4500490532918
 20
62.64888417336388
 10
466.17359191798425
 20
62.34918290584997
 10
466.9500490532918
 20
62.2469603847172
 10
467.7265061885994
 20
62.34918290584997
 10
468.4500490532918
 20
62.64888417336388
 10
469.0713693968515
 20
63.12564004115754
 10
490.8860880226129
 20
63.12564004115754
 10
491.5074083661725
 20
62.64888417336388
 10
492.230951230865
 20
62.34918290584997
 10
493.0074083661725
 20
62.2469603847172
 10
493.78386550148014
 20
62.34918290584997
 10
494.5074083661725
 20
62.64888417336388
 10
495.1287287097322
 20
63.12564004115754
  0
LWPOLYLINE
  5
A1
330
17
100
AcDbEntity
  8
CUT_IN
100
AcDbPolyline
 90
56
 70
1
 10
113.76095269657858
 20
549.4866133368012
 10
114.52591818736369
 20
549.3187952069561
 10
115.3082526392503
 20
549.3546829790806
 10
116.05464125221113
 20
549.5918309608118
 10
116.71421887573845
 20
550.0140779091001
 10
117.24203638479239
 20
550.592648392216
 10
117.60212388839062
 20
551.2881137878678
 10
123.77198431165291
 20
554.1817641305597
 10
123.77198431165291
 20
554.1817641305597
 10
124.53694980243802
 20
554.0139460007147
 10
125.31928425432463
 20
554.0498337728393
 10
126.06567286728546
 20
554.2869817545704
 10
126.72525049081278
 20
554.7092287028588
 10
127.25306799986672
 20
555.2877991859746
 10
127.61315550346495
 20
555.9832645816264
 10
127.78097363331
 20
556.7482300724115
 10
127.74508586118546
 20
557.5305645242981
 10
127.50793787945432
 20
558.2769531372589
 10
127.08569093116594
 20
558.9365307607862
 10
126.50712044805013
 20
559.4643482698402
 10
125.8116550523983
 20
559.8244357734384
 10
116.54873878340703
 20
579.5748871838442
 10
116.54873878340706
 20
579.5748871838442
 10
116.71655691325208
 20
580.3398526746294
 10
116.68066914112757
 20
581.1221871265159
 10
116.4435211593964
 20
581.8685757394768
 10
116.02127421110802
 20
582.5281533630041
 10
115.44270372799221
 20
583.055970872058
 10
114.7472383323404
 20
583.4160583756562
 10
113.9822728415553
 20
583.5838765055013
 10
113.19993838966869
 20
583.5479887333768
 10
112.45354977670786
 20
583.3108407516456
 10
111.79397215318053
 20
582.8885938033573
 10
111.2661546441266
 20
582.3100233202415
 10
110.90606714052836
 20
581.6145579245896
 10
104.73620671726607
 20
578.7209075818976
 10
103.97124122648097
 20
578.8887257117426
 10
103.18890677459436
 20
578.8528379396182
 10
102.44251816163353
 20
578.6156899578871
 10
101.7829405381062
 20
578.1934430095987
 10
101.25512302905227
 20
577.6148725264828
 10
100.89503552545403
 20
576.9194071308309
 10
100.72721739560899
 20
576.1544416400459
 10
100.76310516773353
 20
575.3721071881594
 10
101.00025314946467
 20
574.6257185751984
 10
101.42250009775304
 20
573.9661409516712
 10
102.00107058086886
 20
573.4383234426172
 10
102.69653597652069
 20
573.0782359390189
 10
111.95945224551195
 20
553.3277845286132
 10
111.95945224551193
 20
553.3277845286132
 10
111.79163411566691
 20
552.562819037828
 10
111.82752188779142
 20
551.7804845859414
 10
112.06466986952259
 20
551.0340959729806
 10
112.48691681781096
 20
550.3745183494533
 10
113.06548730092675
 20
549.8467008403993
 10
113.76095269657858
 20
549.4866133368012
  0
LWPOLYLINE
  5
A2
330
17
100
AcDbEntity
  8
CUT_IN
100
AcDbPolyline
 90
53
 70
1
 10
574.7043894195976
 20
555.2877991859746
 10
575.2322069286516
 20
554.7092287028588
 10
575.8917845521789
 20
554.2869817545704
 10
576.6381731651397
 20
554.0498337728393
 10
577.4205076170264
 20
554.0139460007147
 10
578.1854731078115
 20
554.1817641305597
 10
584.3553335310737
 20
551.2881137878678
 10
584.715421034672
 20
550.592648392216
 10
585.243238543726
 20
550.0140779091001
 10
585.9028161672533
 20
549.5918309608118
 10
586.6492047802141
 20
549.3546829790806
 10
587.4315392321007
 20
549.3187952069561
 10
588.1965047228858
 20
549.4866133368012
 10
588.8919701185376
 20
549.8467008403993
 10
589.4705406016534
 20
550.3745183494533
 10
589.8927875499418
 20
551.0340959729806
 10
590.129935531673
 20
551.7804845859415
 10
590.1658233037974
 20
552.562819037828
 10
589.9980051739525
 20
553.3277845286132
 10
599.2609214429438
 20
573.0782359390189
 10
599.9563868385956
 20
573.4383234426172
 10
600.5349573217113
 20
573.9661409516712
 10
600.9572042699997
 20
574.6257185751984
 10
601.1943522517308
 20
575.3721071881594
 10
601.2302400238555
 20
576.1544416400459
 10
601.0624218940104
 20
576.9194071308309
 10
600.7023343904121
 20
577.6148725264828
 10
600.1745168813582
 20
578.1934430095987
 10
599.5149392578309
 20
578.6156899578871
 10
598.7685506448701
 20
578.8528379396182
 10
597.9862161929834
 20
578.8887257117426
 10
597.2212507021983
 20
578.7209075818976
 10
591.051390278936
 20
581.6145579245896
 10
590.6913027753378
 20
582.3100233202415
 10
590.1634852662838
 20
582.8885938033573
 10
589.5039076427565
 20
583.3108407516456
 10
588.7575190297957
 20
583.5479887333768
 10
587.9751845779091
 20
583.5838765055013
 10
587.210219087124
 20
583.4160583756562
 10
586.5147536914722
 20
583.055970872058
 10
585.9361832083564
 20
582.5281533630041
 10
585.513936260068
 20
581.8685757394768
 10
585.2767882783369
 20
581.1221871265159
 10
585.2409005062123
 20
580.3398526746294
 10
585.4087186360573
 20
579.5748871838442
 10
576.1458023670662
 20
559.8244357734384
 10
575.4503369714142
 20
559.4643482698402
 10
574.8717664882985
 20
558.9365307607862
 10
574.4495195400101
 20
558.2769531372589
 10
574.212371558279
 20
557.5305645242981
 10
574.1764837861544
 20
556.7482300724115
 10
574.3443019159995
 20
555.9832645816264
 10
574.7043894195976
 20
555.2877991859746
  0
LWPOLYLINE
  5
A3
330
17
100
AcDbEntity
  8
CUT_IN
100
AcDbPolyline
 90
54
 70
1
 10
217.5960019106508
 20
574.8584928593588
 10
218.34771526657013
 20
574.6388063615277
 10
219.1306736606096
 20
574.6211632325555
 10
219.89151977211532
 20
574.8067658225251
 10
220.57840319594584
 20
575.1829656216527
 10
221.14451396189563
 20
575.7241252353274
 10
227.9192558246939
 20
576.4611887609128
 10
228.58849611955225
 20
576.0544301660009
 10
229.34020947547157
 20
575.83474366817
 10
230.123167869511
 20
575.8171005391978
 10
230.88401398101672
 20
576.0027031291672
 10
231.57089740484724
 20
576.3789029282948
 10
232.13700817079706
 20
576.9200625419695
 10
232.54376676570894
 20
577.5893028368279
 10
232.76345326354
 20
578.3410161927472
 10
232.78109639251215
 20
579.1239745867866
 10
232.59549380254262
 20
579.8848206982923
 10
232.21929400341503
 20
580.5717041221228
 10
231.67813438974036
 20
581.1378148880726
 10
229.31870705268545
 20
602.824563177346
 10
229.31870705268545
 20
602.824563177346
 10
229.72546564759733
 20
603.4938034722044
 10
229.94515214542838
 20
604.2455168281238
 10
229.96279527440055
 20
605.0284752221631
 10
229.77719268443104
 20
605.7893213336688
 10
229.40099288530342
 20
606.4762047574993
 10
228.8598332716288
 20
607.0423155234491
 10
228.19059297677043
 20
607.4490741183611
 10
227.4388796208511
 20
607.6687606161921
 10
226.65592122681164
 20
607.6864037451643
 10
225.89507511530593
 20
607.5008011551947
 10
225.2081916914754
 20
607.1246013560672
 10
224.64208092552562
 20
606.5834417423926
 10
217.86733906272735
 20
605.846378216807
 10
217.198098767869
 20
606.2531368117188
 10
216.44638541194968
 20
606.47282330955
 10
215.66342701791024
 20
606.4904664385222
 10
214.9025809064045
 20
606.3048638485526
 10
214.215697482574
 20
605.9286640494249
 10
213.64958671662419
 20
605.3875044357503
 10
213.24282812171234
 20
604.718264140892
 10
213.02314162388126
 20
603.9665507849727
 10
213.0054984949091
 20
603.1835923909332
 10
213.19110108487862
 20
602.4227462794274
 10
213.56730088400622
 20
601.7358628555969
 10
214.10846049768088
 20
601.1697520896472
 10
216.4678878347358
 20
579.4830038003738
 10
216.0611292398239
 20
578.8137635055155
 10
215.84144274199286
 20
578.0620501495962
 10
215.8237996130207
 20
577.2790917555567
 10
216.0094022029902
 20
576.5182456440509
 10
216.3856020021178
 20
575.8313622202204
 10
216.92676161579246
 20
575.2652514542706
 10
217.5960019106508
 20
574.8584928593588
  0
LWPOLYLINE
  5
A4
330
17
100
AcDbEntity
  8
CUT_IN
100
AcDbPolyline
 90
53
 70
1
 10
470.38656001461715
 20
576.3789029282948
 10
471.07344343844767
 20
576.0027031291672
 10
471.8342895499534
 20
575.8171005391978
 10
472.6172479439928
 20
575.83474366817
 10
473.36896129991214
 20
576.0544301660009
 10
474.0382015947705
 20
576.4611887609128
 10
480.81294345756874
 20
575.7241252353274
 10
481.37905422351855
 20
575.1829656216527
 10
482.0659376473491
 20
574.8067658225251
 10
482.8267837588548
 20
574.6211632325555
 10
483.6097421528942
 20
574.6388063615277
 10
484.3614555088136
 20
574.8584928593589
 10
485.03069580367196
 20
575.2652514542706
 10
485.57185541734657
 20
575.8313622202204
 10
485.9480552164742
 20
576.5182456440509
 10
486.1336578064437
 20
577.2790917555567
 10
486.1160146774715
 20
578.0620501495962
 10
485.8963281796405
 20
578.8137635055155
 10
485.4895695847286
 20
579.4830038003738
 10
487.8489969217835
 20
601.1697520896472
 10
488.3901565354582
 20
601.7358628555969
 10
488.7663563345858
 20
602.4227462794274
 10
488.9519589245553
 20
603.1835923909332
 10
488.93431579558313
 20
603.9665507849727
 10
488.714629297752
 20
604.718264140892
 10
488.3078707028402
 20
605.3875044357503
 10
487.7417599368904
 20
605.9286640494249
 10
487.05487651305987
 20
606.3048638485526
 10
486.29403040155415
 20
606.4904664385222
 10
485.5110720075147
 20
606.47282330955
 10
484.7593586515954
 20
606.2531368117188
 10
484.09011835673704
 20
605.846378216807
 10
477.31537649393874
 20
606.5834417423926
 10
476.749265727989
 20
607.1246013560672
 10
476.06238230415846
 20
607.5008011551947
 10
475.30153619265275
 20
607.6864037451643
 10
474.51857779861325
 20
607.6687606161921
 10
473.766864442694
 20
607.4490741183611
 10
473.09762414783563
 20
607.0423155234491
 10
472.5564645341609
 20
606.4762047574993
 10
472.18026473503335
 20
605.7893213336688
 10
471.99466214506384
 20
605.0284752221631
 10
472.012305274036
 20
604.2455168281238
 10
472.23199177186706
 20
603.4938034722044
 10
472.63875036677894
 20
602.824563177346
 10
470.279323029724
 20
581.1378148880726
 10
469.73816341604936
 20
580.5717041221228
 10
469.3619636169218
 20
579.8848206982923
 10
469.17636102695224
 20
579.1239745867866
 10
469.1940041559244
 20
578.3410161927471
 10
469.41369065375545
 20
577.5893028368278
 10
469.82044924866733
 20
576.9200625419695
 10
470.38656001461715
 20
576.3789029282948
  0
LWPOLYLINE
  5
A5
330
17
100
AcDbEntity
  8
CUT_IN
100
AcDbPolyline
 90
56
 70
1
 10
342.80257957549094
 20
581.7231102472977
 10
343.4210787481872
 20
581.2427001098413
 10
344.142842365667
 20
580.938738916135
 10
344.9186834301697
 20
580.8319411192103
 10
345.69572965528766
 20
580.929584812436
 10
346.42102662490856
 20
581.2250157394824
 10
347.04514654916267
 20
581.6981007708941
 10
353.8597467730982
 20
581.6579294348712
 10
353.8597467730982
 20
581.6579294348712
 10
354.4782459457944
 20
581.1775192974148
 10
355.2000095632742
 20
580.8735581037085
 10
355.975850627777
 20
580.7667603067839
 10
356.7528968528949
 20
580.8644040000095
 10
357.4781938225158
 20
581.159834927056
 10
358.10231374676994
 20
581.6329199584677
 10
358.58272388422625
 20
582.2514191311639
 10
358.8866850779325
 20
582.9731827486437
 10
358.99348287485714
 20
583.7490238131464
 10
358.8958391816315
 20
584.5260700382644
 10
358.6004082545851
 20
585.2513670078853
 10
358.1273232231734
 20
585.8754869321394
 10
358.2559164109905
 20
607.6898265396817
 10
358.2559164109905
 20
607.6898265396817
 10
358.7363265484468
 20
608.308325712378
 10
359.04028774215305
 20
609.0300893298577
 10
359.1470855390777
 20
609.8059303943605
 10
359.0494418458521
 20
610.5829766194784
 10
358.75401091880565
 20
611.3082735890994
 10
358.28092588739395
 20
611.9323935133534
 10
357.6624267146977
 20
612.4128036508098
 10
356.94066309721796
 20
612.7167648445161
 10
356.16482203271516
 20
612.8235626414407
 10
355.3877758075972
 20
612.725918948215
 10
354.6624788379763
 20
612.4304880211687
 10
354.0383589137222
 20
611.9574029897569
 10
347.2237586897867
 20
611.9975743257799
 10
347.2237586897867
 20
611.9975743257799
 10
346.6052595170905
 20
612.4779844632362
 10
345.8834958996107
 20
612.7819456569425
 10
345.10765483510795
 20
612.8887434538672
 10
344.33060860999
 20
612.7910997606416
 10
343.6053116403691
 20
612.4956688335951
 10
342.981191716115
 20
612.0225838021834
 10
342.50078157865863
 20
611.4040846294872
 10
342.1968203849524
 20
610.6823210120074
 10
342.09002258802775
 20
609.9064799475046
 10
342.18766628125337
 20
609.1294337223867
 10
342.4830972082998
 20
608.4041367527658
 10
342.9561822397115
 20
607.7800168285116
 10
342.8275890518944
 20
585.9656772209694
 10
342.3471789144381
 20
585.3471780482731
 10
342.04321772073183
 20
584.6254144307934
 10
341.9364199238072
 20
583.8495733662905
 10
342.0340636170328
 20
583.0725271411727
 10
342.32949454407924
 20
582.3472301715517
 10
342.80257957549094
 20
581.7231102472977
  0
LWPOLYLINE
  5
A6
330
17
100
AcDbEntity
  8
CUT_IN
100
AcDbPolyline
 90
53
 70
1
 10
591.5066228356509
 20
598.2018226065903
 10
591.877586419418
 20
597.5120971928817
 10
592.4144237985502
 20
596.9418860432511
 10
593.0805503928257
 20
596.5300481052271
 10
593.8305707756706
 20
596.304649453692
 10
594.6133722974615
 20
596.2810506342588
 10
595.3756083281289
 20
596.4608598674731
 10
601.5901453211952
 20
593.6644478967307
 10
601.9611089049622
 20
592.9747224830221
 10
602.4979462840945
 20
592.4045113333914
 10
603.1640728783699
 20
591.9926733953675
 10
603.9140932612149
 20
591.7672747438323
 10
604.6968947830057
 20
591.7436759243992
 10
605.4591308136733
 20
591.9234851576135
 10
606.1488562273819
 20
592.2944487413805
 10
606.7190673770125
 20
592.8312861205128
 10
607.1309053150364
 20
593.4974127147882
 10
607.3563039665715
 20
594.2474330976332
 10
607.3799027860048
 20
595.0302346194242
 10
607.2000935527905
 20
595.7924706500916
 10
616.1517383166473
 20
615.6859370333757
 10
616.8414637303559
 20
616.0569006171427
 10
617.4116748799865
 20
616.593737996275
 10
617.8235128180105
 20
617.2598645905505
 10
618.0489114695456
 20
618.0098849733954
 10
618.0725102889788
 20
618.7926864951862
 10
617.8927010557645
 20
619.5549225258537
 10
617.5217374719975
 20
620.2446479395624
 10
616.9849000928652
 20
620.8148590891931
 10
616.3187734985898
 20
621.2266970272169
 10
615.5687531157448
 20
621.4520956787521
 10
614.785951593954
 20
621.4756944981852
 10
614.0237155632865
 20
621.2958852649709
 10
607.8091785702203
 20
624.0922972357133
 10
607.4382149864533
 20
624.7820226494218
 10
606.901377607321
 20
625.3522337990526
 10
606.2352510130456
 20
625.7640717370765
 10
605.4852306302006
 20
625.9894703886116
 10
604.7024291084098
 20
626.0130692080448
 10
603.9401930777423
 20
625.8332599748305
 10
603.2504676640337
 20
625.4622963910635
 10
602.680256514403
 20
624.9254590119313
 10
602.2684185763791
 20
624.2593324176557
 10
602.043019924844
 20
623.5093120348108
 10
602.0194211054107
 20
622.72651051302
 10
602.1992303386251
 20
621.9642744823525
 10
593.2475855747682
 20
602.0708080990684
 10
592.5578601610596
 20
601.6998445153014
 10
591.9876490114289
 20
601.1630071361691
 10
591.575811073405
 20
600.4968805418937
 10
591.3504124218698
 20
599.7468601590487
 10
591.3268136024367
 20
598.9640586372577
 10
591.5066228356509
 20
598.2018226065903
  0
LWPOLYLINE
  5
A7
330
17
100
AcDbEntity
  8
CUT_IN
100
AcDbPolyline
 90
54
 70
1
 10
214.21893466845796
 20
618.6845087663063
 10
214.96990334490462
 20
618.4622900141886
 10
215.7527978294455
 20
618.4420081781723
 10
216.51426515675354
 20
618.6250454318645
 10
217.20241258685687
 20
618.9989280889092
 10
217.77034400961136
 20
619.5381766640996
 10
224.54753152296502
 20
620.2524030687803
 10
225.21539711705202
 20
619.8433912412843
 10
225.96636579349865
 20
619.6211724891666
 10
226.74926027803957
 20
619.6008906531503
 10
227.5107276053476
 20
619.7839279068423
 10
228.1988750354509
 20
620.1578105638873
 10
228.76680645820542
 20
620.6970591390776
 10
229.17581828570144
 20
621.3649247331646
 10
229.3980370378191
 20
622.1158934096113
 10
229.41831887383546
 20
622.8987878941522
 10
229.23528162014333
 20
623.6602552214601
 10
228.86139896309842
 20
624.3484026515634
 10
228.3221503879081
 20
624.916334074318
 10
226.03582737021242
 20
646.6109111796661
 10
226.44483919770843
 20
647.2787767737532
 10
226.6670579498261
 20
648.0297454501998
 10
226.68733978584245
 20
648.8126399347407
 10
226.50430253215032
 20
649.5741072620488
 10
226.13041987510542
 20
650.262254692152
 10
225.59117129991506
 20
650.8301861149066
 10
224.9233057058281
 20
651.2391979424026
 10
224.17233702938145
 20
651.4614166945203
 10
223.38944254484056
 20
651.4816985305366
 10
222.62797521753254
 20
651.2986612768445
 10
221.9398277874292
 20
650.9247786197996
 10
221.3718963646747
 20
650.3855300446093
 10
214.59470885132103
 20
649.6713036399285
 10
214.59470885132103
 20
649.6713036399286
 10
213.92684325723408
 20
650.0803154674246
 10
213.17587458078742
 20
650.3025342195423
 10
212.3929800962465
 20
650.3228160555586
 10
211.6315127689385
 20
650.1397788018664
 10
210.94336533883518
 20
649.7658961448217
 10
210.37543391608065
 20
649.2266475696313
 10
209.96642208858464
 20
648.5587819755443
 10
209.74420333646697
 20
647.8078132990977
 10
209.72392150045061
 20
647.0249188145567
 10
209.90695875414275
 20
646.2634514872487
 10
210.28084141118765
 20
645.5753040571453
 10
210.82008998637798
 20
645.0073726343909
 10
213.10641300407366
 20
623.3127955290427
 10
212.69740117657764
 20
622.6449299349557
 10
212.47518242445997
 20
621.8939612585091
 10
212.45490058844362
 20
621.1110667739681
 10
212.63793784213576
 20
620.3495994466601
 10
213.01182049918066
 20
619.6614520165568
 10
213.551069074371
 20
619.0935205938023
 10
214.21893466845796
 20
618.6845087663063
  0
LWPOLYLINE
  5
A8
330
17
100
AcDbEntity
  8
CUT_IN
100
AcDbPolyline
 90
53
 70
1
 10
473.7585823840135
 20
620.1578105638873
 10
474.4467298141168
 20
619.7839279068423
 10
475.2081971414248
 20
619.6008906531503
 10
475.99109162596574
 20
619.6211724891666
 10
476.74206030241237
 20
619.8433912412843
 10
477.4099258964993
 20
620.2524030687803
 10
484.187113409853
 20
619.5381766640996
 10
484.7550448326075
 20
618.9989280889092
 10
485.44319226271085
 20
618.6250454318645
 10
486.2046595900189
 20
618.4420081781723
 10
486.98755407455974
 20
618.4622900141886
 10
487.7385227510064
 20
618.6845087663063
 10
488.40638834509343
 20
619.0935205938023
 10
488.94563692028373
 20
619.6614520165568
 10
489.3195195773286
 20
620.3495994466601
 10
489.5025568310208
 20
621.1110667739681
 10
489.48227499500445
 20
621.8939612585091
 10
489.2600562428868
 20
622.6449299349557
 10
488.85104441539073
 20
623.3127955290427
 10
491.1373674330864
 20
645.0073726343909
 10
491.6766160082767
 20
645.5753040571453
 10
492.05049866532164
 20
646.2634514872487
 10
492.2335359190138
 20
647.0249188145567
 10
492.2132540829974
 20
647.8078132990977
 10
491.99103533087975
 20
648.5587819755443
 10
491.58202350338377
 20
649.2266475696313
 10
491.0140920806292
 20
649.7658961448217
 10
490.3259446505259
 20
650.1397788018664
 10
489.5644773232179
 20
650.3228160555586
 10
488.78158283867697
 20
650.3025342195423
 10
488.03061416223034
 20
650.0803154674246
 10
487.3627485681434
 20
649.6713036399285
 10
480.5855610547897
 20
650.3855300446093
 10
480.0176296320352
 20
650.9247786197996
 10
479.32948220193185
 20
651.2986612768445
 10
478.5680148746238
 20
651.4816985305366
 10
477.78512039008297
 20
651.4614166945203
 10
477.0341517136363
 20
651.2391979424026
 10
476.36628611954933
 20
650.8301861149066
 10
475.827037544359
 20
650.262254692152
 10
475.4531548873141
 20
649.5741072620488
 10
475.2701176336219
 20
648.8126399347407
 10
475.2903994696383
 20
648.0297454501998
 10
475.512618221756
 20
647.2787767737532
 10
475.921630049252
 20
646.6109111796662
 10
473.6353070315563
 20
624.916334074318
 10
473.09605845636594
 20
624.3484026515634
 10
472.72217579932106
 20
623.6602552214601
 10
472.53913854562893
 20
622.8987878941522
 10
472.5594203816453
 20
622.1158934096113
 10
472.78163913376295
 20
621.3649247331646
 10
473.19065096125894
 20
620.6970591390776
 10
473.7585823840135
 20
620.1578105638873
  0
LWPOLYLINE
  5
A9
330
17
100
AcDbEntity
  8
CUT_IN
100
AcDbPolyline
 90
57
 70
1
 10
343.6766006240637
 20
624.5890162883832
 10
344.39836424154345
 20
624.2850550946769
 10
345.17420530604625
 20
624.1782572977522
 10
345.9512515311642
 20
624.2759009909779
 10
346.6765485007851
 20
624.5713319180243
 10
347.3006684250392
 20
625.044416949436
 10
354.1152686489747
 20
625.0042456134131
 10
354.1152686489747
 20
625.0042456134131
 10
354.73376782167094
 20
624.5238354759567
 10
355.4555314391507
 20
624.2198742822504
 10
356.23137250365346
 20
624.1130764853258
 10
357.0084187287714
 20
624.2107201785514
 10
357.7337156983923
 20
624.5061511055978
 10
358.3578356226464
 20
624.9792361370096
 10
358.8382457601028
 20
625.5977353097057
 10
359.142206953809
 20
626.3194989271856
 10
359.24900475073366
 20
627.0953399916883
 10
359.15136105750804
 20
627.8723862168063
 10
358.85593013046156
 20
628.5976831864272
 10
358.38284509904986
 20
629.2218031106813
 10
358.51143828686696
 20
651.0361427182236
 10
358.51143828686696
 20
651.0361427182236
 10
358.99184842432334
 20
651.6546418909198
 10
359.2958096180296
 20
652.3764055083996
 10
359.4026074149542
 20
653.1522465729024
 10
359.3049637217286
 20
653.9292927980202
 10
359.0095327946822
 20
654.6545897676413
 10
358.5364477632705
 20
655.2787096918953
 10
357.9179485905742
 20
655.7591198293517
 10
357.19618497309443
 20
656.063081023058
 10
356.4203439085917
 20
656.1698788199826
 10
355.64329768347375
 20
656.0722351267569
 10
354.91800071385285
 20
655.7768041997106
 10
354.29388078959875
 20
655.3037191682988
 10
347.4792805656632
 20
655.3438905043217
 10
347.4792805656632
 20
655.3438905043217
 10
346.860781392967
 20
655.8243006417781
 10
346.1390177754872
 20
656.1282618354844
 10
345.3631767109844
 20
656.235059632409
 10
344.58613048586653
 20
656.1374159391835
 10
343.86083351624563
 20
655.841985012137
 10
343.2367135919915
 20
655.3688999807252
 10
342.75630345453516
 20
654.7504008080291
 10
342.4523422608289
 20
654.0286371905493
 10
342.3455444639043
 20
653.2527961260465
 10
342.4431881571299
 20
652.4757499009286
 10
342.7386190841763
 20
651.7504529313077
 10
343.211704115588
 20
651.1263330070535
 10
343.0831109277709
 20
629.3119933995113
 10
343.0831109277709
 20
629.3119933995113
 10
342.6027007903146
 20
628.693494226815
 10
342.29873959660836
 20
627.9717306093353
 10
342.1919417996837
 20
627.1958895448324
 10
342.28958549290934
 20
626.4188433197146
 10
342.58501641995576
 20
625.6935463500936
 10
343.05810145136746
 20
625.0694264258395
 10
343.6766006240637
 20
624.5890162883832
  0
LWPOLYLINE
  5
AA
330
17
100
AcDbEntity
  8
CUT_IN
100
AcDbPolyline
 90
53
 70
1
 10
614.6467530908966
 20
55.24530312381887
 10
613.904065731394
 20
55.49379982969592
 10
613.1223691498657
 20
55.541607582454134
 10
612.3549346765283
 20
55.385468362749094
 10
611.6540617024942
 20
55.0360228003714
 10
611.0675135626966
 20
54.51708503291104
 10
610.6352625435461
 20
53.86401981163522
 10
604.1918275778908
 20
51.64534097239962
 10
603.4491402183882
 20
51.89383767827667
 10
602.6674436368598
 20
51.941645431034885
 10
601.9000091635226
 20
51.78550621132982
 10
601.1991361894884
 20
51.43606064895215
 10
600.6125880496909
 20
50.91712288149179
 10
600.1803370305403
 20
50.26405766021594
 10
599.9318403246632
 20
49.52137030071327
 10
599.884032571905
 20
48.73967371918502
 10
600.0401717916101
 20
47.97223924584762
 10
600.3896173539878
 20
47.27136627181358
 10
600.9085551214481
 20
46.684818132016005
 10
601.5616203427239
 20
46.25256711286539
 10
608.663873165884
 20
25.6263713037236
 10
608.4153764600069
 20
24.883683944220934
 10
608.3675687072487
 20
24.101987362692682
 10
608.5237079269538
 20
23.33455288935528
 10
608.8731534893315
 20
22.63367991532124
 10
609.3920912567918
 20
22.04713177552361
 10
610.0451564780676
 20
21.614880756373054
 10
610.7878438375703
 20
21.36638405049598
 10
611.5695404190985
 20
21.318576297737764
 10
612.3369748924359
 20
21.47471551744286
 10
613.03784786647
 20
21.8241610798205
 10
613.6243960062676
 20
22.343098847280885
 10
614.0566470254182
 20
22.99616406855671
 10
620.5000819910733
 20
25.214842907792274
 10
621.242769350576
 20
24.966346201915258
 10
622.0244659321042
 20
24.91853844915704
 10
622.7919004054418
 20
25.07467766886208
 10
623.4927733794757
 20
25.424123231239776
 10
624.0793215192734
 20
25.94306099870016
 10
624.5115725384239
 20
26.596126219975986
 10
624.760069244301
 20
27.338813579478654
 10
624.8078769970592
 20
28.120510161006905
 10
624.6517377773541
 20
28.887944634344308
 10
624.3022922149764
 20
29.58881760837835
 10
623.7833544475161
 20
30.17536574817592
 10
623.1302892262403
 20
30.607616767326533
 10
616.0280364030803
 20
51.233812576468324
 10
616.2765331089573
 20
51.97649993597096
 10
616.3243408617154
 20
52.75819651749924
 10
616.1682016420104
 20
53.525630990836646
 10
615.8187560796327
 20
54.22650396487069
 10
615.2998183121724
 20
54.81305210466829
 10
614.6467530908966
 20
55.24530312381887
  0
LWPOLYLINE
  5
AB
330
17
100
AcDbEntity
  8
CUT_IN
100
AcDbPolyline
 90
53
 70
1
 10
664.9992143200094
 20
86.11960685143649
 10
665.4759701878031
 20
86.74092719499615
 10
665.775671455317
 20
87.46447005968858
 10
665.8778939764497
 20
88.24092719499615
 10
665.775671455317
 20
89.01738433030368
 10
665.4759701878031
 20
89.74092719499615
 10
664.9992143200094
 20
90.36224753855578
 10
664.9992143200094
 20
97.17696616431721
 10
665.4759701878031
 20
97.79828650787684
 10
665.775671455317
 20
98.5218293725693
 10
665.8778939764497
 20
99.29828650787684
 10
665.775671455317
 20
100.0747436431844
 10
665.4759701878031
 20
100.79828650787687
 10
664.9992143200094
 20
101.4196068514365
 10
664.3778939764497
 20
101.89636271923018
 10
663.6543511117574
 20
102.19606398674406
 10
662.8778939764497
 20
102.29828650787684
 10
662.1014368411422
 20
102.19606398674406
 10
661.3778939764497
 20
101.89636271923015
 10
660.7565736328902
 20
101.4196068514365
 10
638.9418550071287
 20
101.4196068514365
 10
638.3205346635691
 20
101.89636271923018
 10
637.5969917988766
 20
102.19606398674406
 10
636.8205346635691
 20
102.29828650787684
 10
636.0440775282615
 20
102.19606398674406
 10
635.3205346635691
 20
101.89636271923015
 10
634.6992143200094
 20
101.4196068514365
 10
634.2224584522157
 20
100.79828650787684
 10
633.9227571847018
 20
100.0747436431844
 10
633.8205346635691
 20
99.29828650787684
 10
633.9227571847018
 20
98.5218293725693
 10
634.2224584522157
 20
97.79828650787684
 10
634.6992143200094
 20
97.17696616431721
 10
634.6992143200094
 20
90.36224753855578
 10
634.2224584522157
 20
89.74092719499615
 10
633.9227571847018
 20
89.01738433030368
 10
633.8205346635691
 20
88.24092719499615
 10
633.9227571847018
 20
87.46447005968858
 10
634.2224584522157
 20
86.74092719499615
 10
634.6992143200094
 20
86.11960685143649
 10
635.3205346635691
 20
85.64285098364283
 10
636.0440775282615
 20
85.34314971612892
 10
636.8205346635691
 20
85.24092719499615
 10
637.5969917988766
 20
85.34314971612892
 10
638.3205346635691
 20
85.64285098364283
 10
638.9418550071287
 20
86.11960685143649
 10
660.7565736328902
 20
86.11960685143649
 10
661.3778939764497
 20
85.64285098364283
 10
662.1014368411422
 20
85.34314971612892
 10
662.8778939764497
 20
85.24092719499615
 10
663.6543511117574
 20
85.34314971612892
 10
664.3778939764497
 20
85.64285098364283
 10
664.9992143200094
 20
86.11960685143649
  0
LWPOLYLINE
  5
AC
330
17
100
AcDbEntity
  8
CUT_IN
100
AcDbPolyline
 90
53
 70
1
 10
626.5074083661725
 20
118.9023959089512
 10
625.7838655014801
 20
119.20209717646512
 10
625.0074083661725
 20
119.30431969759792
 10
624.230951230865
 20
119.20209717646512
 10
623.5074083661725
 20
118.9023959089512
 10
622.886088022613
 20
118.42564004115755
 10
613.0713693968514
 20
118.42564004115755
 10
612.4500490532919
 20
118.9023959089512
 10
611.7265061885994
 20
119.20209717646512
 10
610.9500490532919
 20
119.30431969759792
 10
610.1735919179843
 20
119.20209717646512
 10
609.4500490532919
 20
118.9023959089512
 10
608.8287287097322
 20
118.42564004115755
 10
608.3519728419385
 20
117.80431969759789
 10
608.0522715744246
 20
117.08077683290546
 10
607.9500490532919
 20
116.30431969759789
 10
608.0522715744246
 20
115.52786256229035
 10
608.3519728419385
 20
114.80431969759789
 10
608.8287287097322
 20
114.18299935403826
 10
608.8287287097322
 20
92.36828072827683
 10
608.3519728419385
 20
91.74696038471717
 10
608.0522715744246
 20
91.02341752002474
 10
607.9500490532919
 20
90.2469603847172
 10
608.0522715744246
 20
89.47050324940963
 10
608.3519728419385
 20
88.74696038471717
 10
608.8287287097322
 20
88.12564004115754
 10
609.4500490532919
 20
87.64888417336388
 10
610.1735919179843
 20
87.34918290584997
 10
610.9500490532919
 20
87.24696038471717
 10
611.7265061885994
 20
87.34918290584997
 10
612.4500490532919
 20
87.64888417336388
 10
613.0713693968514
 20
88.12564004115754
 10
622.886088022613
 20
88.12564004115754
 10
623.5074083661725
 20
87.64888417336388
 10
624.230951230865
 20
87.34918290584997
 10
625.0074083661725
 20
87.24696038471717
 10
625.7838655014801
 20
87.34918290584997
 10
626.5074083661725
 20
87.64888417336388
 10
627.1287287097322
 20
88.12564004115754
 10
627.6054845775259
 20
88.7469603847172
 10
627.9051858450398
 20
89.47050324940963
 10
628.0074083661725
 20
90.2469603847172
 10
627.9051858450398
 20
91.02341752002474
 10
627.6054845775259
 20
91.7469603847172
 10
627.1287287097322
 20
92.36828072827683
 10
627.1287287097322
 20
114.18299935403826
 10
627.6054845775259
 20
114.80431969759789
 10
627.9051858450398
 20
115.52786256229035
 10
628.0074083661725
 20
116.30431969759789
 10
627.9051858450398
 20
117.08077683290546
 10
627.6054845775259
 20
117.80431969759789
 10
627.1287287097322
 20
118.42564004115755
 10
626.5074083661725
 20
118.9023959089512
  0
LWPOLYLINE
  5
AD
330
17
100
AcDbEntity
  8
CUT_IN
100
AcDbPolyline
 90
81
 70
1
 10
639.8763735250832
 20
131.21589972461123
 10
639.4692318507116
 20
130.54689241240402
 10
639.2491150261895
 20
129.79530495218458
 10
639.2310236493481
 20
129.0123567873098
 10
639.4161906176214
 20
128.25140454133296
 10
639.7919971081245
 20
127.56430585228426
 10
638.7466580978789
 20
120.83023900512876
 10
638.1802376059329
 20
120.2894035836739
 10
637.7730959315613
 20
119.62039627146669
 10
637.5529791070393
 20
118.86880881124725
 10
637.5348877301979
 20
118.08586064637248
 10
637.7200546984711
 20
117.32490840039563
 10
638.0958611889744
 20
116.63780971134693
 10
638.6366966104292
 20
116.0713892194008
 10
639.3057039226364
 20
115.66424754502924
 10
640.0572913828557
 20
115.44413072050725
 10
640.8402395477306
 20
115.42603934366574
 10
641.6011917937074
 20
115.61120631193904
 10
642.2882904827561
 20
115.98701280244222
 10
663.844833246303
 20
112.64075925488791
 10
664.3856686677578
 20
112.07433876294175
 10
665.0546759799649
 20
111.66719708857019
 10
665.8062634401845
 20
111.4470802640482
 10
666.5892116050593
 20
111.42898888720669
 10
667.3501638510361
 20
111.61415585548002
 10
668.0372625400848
 20
111.9899623459832
 10
668.6036830320309
 20
112.53079776743806
 10
669.0108247064024
 20
113.19980507964527
 10
669.2309415309245
 20
113.95139253986471
 10
669.2490329077659
 20
114.73434070473948
 10
669.0638659394926
 20
115.49529295071633
 10
668.6880594489895
 20
116.18239163976503
 10
669.363431024766
 20
120.53313077163716
 10
672.4034842030725
 20
120.14335385763499
 10
672.9591293916953
 20
119.5914539109445
 10
673.6386836468341
 20
119.20217105604382
 10
674.3958364690175
 20
119.00203427617404
 10
675.1789891446676
 20
119.00468256214168
 10
675.9347711131604
 20
119.2099354376345
 10
676.6116770823314
 20
119.60380525838409
 10
677.163577029022
 20
120.15945044700703
 10
677.5528598839227
 20
120.83900470214576
 10
677.7529966637924
 20
121.59615752432904
 10
677.7503483778248
 20
122.37931019997933
 10
677.5450955023321
 20
123.13509216847203
 10
677.1512256815824
 20
123.81199813764312
 10
678.0178726969616
 20
130.57138515859657
 10
678.5697726436522
 20
131.12703034721952
 10
678.9590554985529
 20
131.80658460235824
 10
679.1591922784226
 20
132.56373742454153
 10
679.156543992455
 20
133.3468901001918
 10
678.9512911169621
 20
134.1026720686845
 10
678.5574212962126
 20
134.7795780378556
 10
678.0017761075896
 20
135.33147798454607
 10
677.3222218524509
 20
135.72076083944677
 10
676.5650690302675
 20
135.92089761931655
 10
675.7819163546174
 20
135.9182493333489
 10
675.0261343861246
 20
135.7129964578561
 10
674.3492284169536
 20
135.3191266371065
 10
652.711632788675
 20
138.0933660190358
 10
652.1559876000522
 20
138.6452659657263
 10
651.4764333449134
 20
139.03454882062698
 10
650.7192805227301
 20
139.23468560049676
 10
649.9361278470799
 20
139.23203731452912
 10
649.1803458785871
 20
139.0267844390363
 10
648.5034399094161
 20
138.63291461828672
 10
647.9515399627255
 20
138.07726942966377
 10
647.5622571078248
 20
137.39771517452505
 10
647.3621203279552
 20
136.64056235234176
 10
647.3647686139227
 20
135.85740967669147
 10
647.5700214894155
 20
135.10162770819878
 10
647.9638913101651
 20
134.4247217390277
 10
647.481723913173
 20
130.66407180044888
 10
644.635223310811
 20
131.10593823716138
 10
644.0943878893562
 20
131.67235872910754
 10
643.4253805771491
 20
132.0795004034791
 10
642.6737931169296
 20
132.2996172280011
 10
641.8908449520547
 20
132.3177086048426
 10
641.129892706078
 20
132.13254163656927
 10
640.4427940170292
 20
131.7567351460661
 10
639.8763735250832
 20
131.21589972461123
  0
LWPOLYLINE
  5
AE
330
17
100
AcDbEntity
  8
CUT_IN
100
AcDbPolyline
 90
84
 70
1
 10
640.9814768109956
 20
260.7669900982249
 10
640.4948045894043
 20
260.1534061385842
 10
640.1835225361565
 20
259.43476950570044
 10
640.0688440087627
 20
258.6600540985014
 10
640.1585841593496
 20
257.88205549171
 10
640.4466273449575
 20
257.15379300467555
 10
640.9133438985011
 20
256.52489652237875
 10
640.8039057768111
 20
249.7110566911367
 10
640.8039057768111
 20
249.7110566911367
 10
640.3172335552199
 20
249.09747273149603
 10
640.005951501972
 20
248.37883609861225
 10
639.8912729745782
 20
247.60412069141324
 10
639.9810131251652
 20
246.8261220846218
 10
640.2690563107731
 20
246.09785959758733
 10
640.7357728643167
 20
245.46896311529056
 10
641.3493568239574
 20
244.98229089369943
 10
642.0679934568411
 20
244.6710088404515
 10
642.8427088640401
 20
244.55633031305769
 10
643.6207074708316
 20
244.6460704636447
 10
644.348969957866
 20
244.93411364925257
 10
644.9778664401628
 20
245.40083020279604
 10
666.7897719409482
 20
245.05050585887187
 10
666.7897719409482
 20
245.05050585887187
 10
667.4033559005888
 20
244.56383363728074
 10
668.1219925334726
 20
244.2525515840328
 10
668.8967079406717
 20
244.137873056639
 10
669.6747065474631
 20
244.227613207226
 10
670.4029690344976
 20
244.51565639283388
 10
671.0318655167944
 20
244.98237294637738
 10
671.5185377383855
 20
245.59595690601805
 10
671.8298197916334
 20
246.31459353890182
 10
671.9444983190273
 20
247.08930894610083
 10
671.8547581684402
 20
247.86730755289227
 10
671.5667149828323
 20
248.5955700399267
 10
671.0999984292889
 20
249.2244665222235
 10
671.1552746268123
 20
252.6660748995282
 10
679.3071623356468
 20
252.53571713420362
 10
679.9207803709189
 20
252.04908787739132
 10
680.639438798232
 20
251.73785614435525
 10
681.414162233404
 20
251.62323186336707
 10
682.1921545546189
 20
251.71302648975052
 10
682.9203968708791
 20
252.00112066811022
 10
683.5492606718087
 20
252.4678812562891
 10
684.0358899286211
 20
253.0814992915611
 10
684.3471216616572
 20
253.8001577188742
 10
684.4617459426454
 20
254.5748811540462
 10
684.3719513162619
 20
255.35287347526116
 10
684.0838571379022
 20
256.08111579152137
 10
683.6170965497233
 20
256.709979592451
 10
683.7260575612279
 20
263.5238270699245
 10
684.2126868180401
 20
264.1374451051965
 10
684.5239185510762
 20
264.85610353250956
 10
684.6385428320643
 20
265.63082696768157
 10
684.548748205681
 20
266.40881928889655
 10
684.2606540273213
 20
267.13706160515676
 10
683.7938934391424
 20
267.76592540608635
 10
683.1802754038704
 20
268.25255466289866
 10
682.4616169765573
 20
268.56378639593476
 10
681.6868935413852
 20
268.6784106769229
 10
680.9089012201703
 20
268.5886160505395
 10
680.1806589039102
 20
268.3005218721798
 10
679.5517951029805
 20
267.8337612840009
 10
657.7398651257058
 20
268.1825583419109
 10
657.1262470904337
 20
268.6691875987232
 10
656.4075886631206
 20
268.9804193317593
 10
655.6328652279486
 20
269.0950436127475
 10
654.8548729067337
 20
269.005248986364
 10
654.1266305904735
 20
268.71715480800435
 10
653.4977667895439
 20
268.25039421982547
 10
653.0111375327315
 20
267.6367761845534
 10
652.6999057996954
 20
266.91811775724034
 10
652.5852815187072
 20
266.14339432206833
 10
652.6750761450908
 20
265.36540200085335
 10
652.9631703234504
 20
264.6371596845932
 10
653.4299309116293
 20
264.00829588366355
 10
653.3749157436007
 20
260.56793718361945
 10
645.2235703868416
 20
260.6988571857304
 10
645.2235703868416
 20
260.6988571857304
 10
644.609986427201
 20
261.1855294073215
 10
643.8913497943172
 20
261.49681146056946
 10
643.1166343871182
 20
261.61148998796324
 10
642.3386357803267
 20
261.52174983737626
 10
641.6103732932924
 20
261.2337066517684
 10
640.9814768109956
 20
260.7669900982249
  0
LWPOLYLINE
  5
AF
330
17
100
AcDbEntity
  8
CUT_IN
100
AcDbPolyline
 90
56
 70
1
 10
626.5074083661725
 20
299.73824130095716
 10
625.7838655014801
 20
300.037942568471
 10
625.0074083661725
 20
300.14016508960384
 10
624.230951230865
 20
300.037942568471
 10
623.5074083661725
 20
299.73824130095716
 10
622.886088022613
 20
299.26148543316344
 10
613.0713693968514
 20
299.26148543316344
 10
613.0713693968514
 20
299.26148543316344
 10
612.4500490532919
 20
299.73824130095716
 10
611.7265061885994
 20
300.037942568471
 10
610.9500490532919
 20
300.14016508960384
 10
610.1735919179843
 20
300.037942568471
 10
609.4500490532919
 20
299.73824130095716
 10
608.8287287097322
 20
299.26148543316344
 10
608.3519728419385
 20
298.64016508960384
 10
608.0522715744246
 20
297.9166222249114
 10
607.9500490532919
 20
297.14016508960384
 10
608.0522715744246
 20
296.3637079542963
 10
608.3519728419385
 20
295.64016508960384
 10
608.8287287097322
 20
295.0188447460442
 10
608.8287287097322
 20
273.20412612028275
 10
608.3519728419385
 20
272.5828057767231
 10
608.0522715744246
 20
271.85926291203066
 10
607.9500490532919
 20
271.0828057767231
 10
608.0522715744246
 20
270.3063486414155
 10
608.3519728419385
 20
269.5828057767231
 10
608.8287287097322
 20
268.9614854331635
 10
609.4500490532919
 20
268.4847295653698
 10
610.1735919179843
 20
268.1850282978559
 10
610.9500490532919
 20
268.0828057767231
 10
611.7265061885994
 20
268.1850282978559
 10
612.4500490532919
 20
268.4847295653698
 10
613.0713693968514
 20
268.9614854331635
 10
622.886088022613
 20
268.9614854331635
 10
622.886088022613
 20
268.9614854331635
 10
623.5074083661725
 20
268.4847295653698
 10
624.230951230865
 20
268.1850282978559
 10
625.0074083661725
 20
268.0828057767231
 10
625.7838655014801
 20
268.1850282978559
 10
626.5074083661725
 20
268.4847295653698
 10
627.1287287097322
 20
268.9614854331635
 10
627.6054845775259
 20
269.5828057767231
 10
627.9051858450398
 20
270.3063486414155
 10
628.0074083661725
 20
271.0828057767231
 10
627.9051858450398
 20
271.85926291203066
 10
627.6054845775259
 20
272.5828057767231
 10
627.1287287097322
 20
273.20412612028275
 10
627.1287287097322
 20
295.0188447460442
 10
627.1287287097322
 20
295.0188447460442
 10
627.6054845775259
 20
295.64016508960384
 10
627.9051858450398
 20
296.3637079542963
 10
628.0074083661725
 20
297.14016508960384
 10
627.9051858450398
 20
297.9166222249114
 10
627.6054845775259
 20
298.64016508960384
 10
627.1287287097322
 20
299.26148543316344
 10
626.5074083661725
 20
299.73824130095716
  0
LWPOLYLINE
  5
B0
330
17
100
AcDbEntity
  8
CUT_IN
100
AcDbPolyline
 90
81
 70
1
 10
640.971907173489
 20
395.40931935338136
 10
640.5029041344906
 20
394.78212618042187
 10
640.2122115246341
 20
394.0549171778843
 10
640.1196395648891
 20
393.27725043752196
 10
640.2314968813298
 20
392.5021226625355
 10
640.5401605826937
 20
391.7823575298311
 10
641.0245957478238
 20
391.1670058437342
 10
641.1092264849906
 20
384.35281274501546
 10
640.6402234459922
 20
383.72561957205596
 10
640.3495308361357
 20
382.9984105695184
 10
640.2569588763909
 20
382.2207438291561
 10
640.3688161928314
 20
381.44561605416965
 10
640.6774798941954
 20
380.72585092146517
 10
641.1619150593255
 20
380.11049923536837
 10
641.7891082322849
 20
379.6414961963699
 10
642.5163172348225
 20
379.3508035865135
 10
643.2939839751848
 20
379.2582316267685
 10
644.0691117501713
 20
379.3700889432092
 10
644.7888768828757
 20
379.67875264457314
 10
645.4042285689725
 20
380.16318780970323
 10
667.2172649206452
 20
380.43410078788617
 10
667.8444580936048
 20
379.96509774888773
 10
668.5716670961424
 20
379.67440513903136
 10
669.3493338365047
 20
379.5818331792864
 10
670.1244616114911
 20
379.6936904957271
 10
670.8442267441956
 20
380.002354197091
 10
671.4595784302924
 20
380.48678936222103
 10
671.9285814692907
 20
381.1139825351805
 10
672.2192740791472
 20
381.8411915377181
 10
672.3118460388922
 20
382.61885827808044
 10
672.1999887224515
 20
383.3939860530669
 10
671.8913250210876
 20
384.1137511857713
 10
671.4068898559575
 20
384.7291028718682
 10
671.3844211822553
 20
386.53820777162946
 10
680.3054345299468
 20
386.6795647874392
 10
680.9342303274253
 20
386.2127125925529
 10
681.6624306669563
 20
385.9245123283204
 10
682.4404098988088
 20
385.8346043664757
 10
683.2151500240034
 20
385.9491157860385
 10
683.9338537833266
 20
386.26024282300466
 10
684.5475427032948
 20
386.7467826839667
 10
685.0143948981811
 20
387.37557848144525
 10
685.3025951624136
 20
388.1037788209763
 10
685.3925031242584
 20
388.88175805282873
 10
685.2779917046955
 20
389.6564981780233
 10
684.9668646677294
 20
390.37520193734656
 10
684.4803248067673
 20
390.9888908573148
 10
684.3723564245186
 20
397.80275413571525
 10
684.8392086194048
 20
398.43154993319376
 10
685.1274088836373
 20
399.1597502727248
 10
685.217316845482
 20
399.93772950457725
 10
685.1028054259192
 20
400.7124696297718
 10
684.791678388953
 20
401.4311733890951
 10
684.305138527991
 20
402.0448623090633
 10
683.6763427305124
 20
402.5117145039496
 10
682.9481423909814
 20
402.799914768182
 10
682.170163159129
 20
402.8898227300268
 10
681.3954230339343
 20
402.77531131046396
 10
680.6767192746111
 20
402.46418427349784
 10
680.0630303546429
 20
401.9776444125357
 10
658.251049796736
 20
401.63202487802823
 10
657.6222539992574
 20
402.0988770729145
 10
656.8940536597264
 20
402.387077337147
 10
656.116074427874
 20
402.47698529899174
 10
655.3413343026793
 20
402.36247387942893
 10
654.6226305433561
 20
402.05134684246275
 10
654.008941623388
 20
401.5648069815007
 10
653.5420894285016
 20
400.93601118402216
 10
653.2538891642691
 20
400.2078108444911
 10
653.1639812024243
 20
399.4298316126387
 10
653.2784926219872
 20
398.6550914874441
 10
653.5896196589533
 20
397.93638772812085
 10
654.0761595199154
 20
397.3226988081526
 10
654.1038934548383
 20
395.57241565302445
 10
645.2142206831361
 20
395.46200792771623
 10
644.5870275101765
 20
395.93101096671467
 10
643.8598185076389
 20
396.22170357657103
 10
643.0821517672766
 20
396.314275536316
 10
642.3070239922902
 20
396.2024182198753
 10
641.5872588595857
 20
395.8937545185114
 10
640.971907173489
 20
395.40931935338136
  0
LWPOLYLINE
  5
B1
330
17
100
AcDbEntity
  8
CUT_IN
100
AcDbPolyline
 90
53
 70
1
 10
626.5074083661725
 20
480.5740866929631
 10
625.7838655014801
 20
480.873787960477
 10
625.0074083661725
 20
480.97601048160976
 10
624.230951230865
 20
480.873787960477
 10
623.5074083661725
 20
480.5740866929631
 10
622.886088022613
 20
480.09733082516937
 10
613.0713693968514
 20
480.09733082516937
 10
612.4500490532919
 20
480.5740866929631
 10
611.7265061885994
 20
480.873787960477
 10
610.9500490532919
 20
480.97601048160976
 10
610.1735919179843
 20
480.873787960477
 10
609.4500490532919
 20
480.5740866929631
 10
608.8287287097322
 20
480.09733082516937
 10
608.3519728419385
 20
479.4760104816097
 10
608.0522715744246
 20
478.75246761691733
 10
607.9500490532919
 20
477.9760104816097
 10
608.0522715744246
 20
477.1995533463022
 10
608.3519728419385
 20
476.4760104816097
 10
608.8287287097322
 20
475.8546901380501
 10
608.8287287097322
 20
454.0399715122887
 10
608.3519728419385
 20
453.418651168729
 10
608.0522715744246
 20
452.6951083040366
 10
607.9500490532919
 20
451.91865116872907
 10
608.0522715744246
 20
451.14219403342145
 10
608.3519728419385
 20
450.418651168729
 10
608.8287287097322
 20
449.7973308251694
 10
609.4500490532919
 20
449.3205749573757
 10
610.1735919179843
 20
449.0208736898618
 10
610.9500490532919
 20
448.918651168729
 10
611.7265061885994
 20
449.0208736898618
 10
612.4500490532919
 20
449.3205749573757
 10
613.0713693968514
 20
449.7973308251694
 10
622.886088022613
 20
449.7973308251694
 10
623.5074083661725
 20
449.3205749573757
 10
624.230951230865
 20
449.0208736898618
 10
625.0074083661725
 20
448.918651168729
 10
625.7838655014801
 20
449.0208736898618
 10
626.5074083661725
 20
449.3205749573757
 10
627.1287287097322
 20
449.7973308251694
 10
627.6054845775259
 20
450.41865116872907
 10
627.9051858450398
 20
451.14219403342145
 10
628.0074083661725
 20
451.91865116872907
 10
627.9051858450398
 20
452.6951083040366
 10
627.6054845775259
 20
453.41865116872907
 10
627.1287287097322
 20
454.0399715122887
 10
627.1287287097322
 20
475.8546901380501
 10
627.6054845775259
 20
476.4760104816097
 10
627.9051858450398
 20
477.1995533463022
 10
628.0074083661725
 20
477.9760104816097
 10
627.9051858450398
 20
478.75246761691733
 10
627.6054845775259
 20
479.4760104816097
 10
627.1287287097322
 20
480.09733082516937
 10
626.5074083661725
 20
480.5740866929631
  0
LWPOLYLINE
  5
B2
330
17
100
AcDbEntity
  8
CUT_IN
100
AcDbPolyline
 90
79
 70
1
 10
619.3467989587195
 20
520.3342781185484
 10
618.9786170525267
 20
519.6430638169393
 10
618.8018800660664
 20
518.8801095821298
 10
618.8286323328941
 20
518.0974094843807
 10
619.0570507302359
 20
517.3483032418807
 10
619.4715689217921
 20
516.6838412070994
 10
620.0439381778319
 20
516.1493053696317
 10
621.163714272861
 20
509.42721555728156
 10
620.7955323666681
 20
508.7360012556725
 10
620.6187953802078
 20
507.97304702086296
 10
620.6455476470356
 20
507.1903469231139
 10
620.8739660443774
 20
506.4412406806139
 10
621.2884842359335
 20
505.77677864583256
 10
621.8608534919733
 20
505.24224280836484
 10
622.5520677935824
 20
504.874060902172
 10
623.3150220283919
 20
504.6973239157117
 10
624.097722126141
 20
504.72407618253953
 10
624.8468283686411
 20
504.9524945798813
 10
625.5112904034224
 20
505.3670127714375
 10
626.04582624089
 20
505.9393820274772
 10
647.5640291024397
 20
509.5239174688336
 10
648.2552434040488
 20
509.15573556264076
 10
649.0181976388583
 20
508.9789985761804
 10
649.8008977366073
 20
509.0057508430082
 10
650.5500039791074
 20
509.23416924035
 10
651.2144660138888
 20
509.6486874319062
 10
651.7490018513564
 20
510.221056687946
 10
652.1171837575492
 20
510.91227098955505
 10
652.2939207440095
 20
511.67522522436457
 10
652.2671684771817
 20
512.4579253221136
 10
652.0387500798399
 20
513.2070315646137
 10
651.6242318882838
 20
513.871493599395
 10
651.297441330721
 20
514.1766834091552
 10
671.9251551866428
 20
517.955448991773
 10
672.6222123964716
 20
517.5984526710324
 10
673.3879154046855
 20
517.4340323863685
 10
674.1700828166587
 20
517.473393108464
 10
674.9154112158581
 20
517.7138524691546
 10
675.5731077035914
 20
518.1390235603872
 10
676.0983513511147
 20
518.7199316749227
 10
676.4553476718554
 20
519.4169888847516
 10
676.6197679565191
 20
520.1826918929655
 10
676.5804072344238
 20
520.9648593049387
 10
676.3399478737331
 20
521.7101877041381
 10
675.9147767825006
 20
522.3678841918714
 10
675.333868667965
 20
522.8931278393948
 10
674.1059224985547
 20
529.596301576762
 10
674.4629188192953
 20
530.2933587865909
 10
674.6273391039592
 20
531.0590617948048
 10
674.5879783818636
 20
531.841229206778
 10
674.3475190211731
 20
532.5865576059774
 10
673.9223479299405
 20
533.2442540937108
 10
673.341439815405
 20
533.7694977412341
 10
672.6443826055761
 20
534.1264940619747
 10
671.8786795973622
 20
534.2909143466386
 10
671.096512185389
 20
534.251553624543
 10
670.3511837861897
 20
534.0110942638524
 10
669.6934872984563
 20
533.5859231726199
 10
669.1682436509329
 20
533.0050150580844
 10
647.7105933779662
 20
529.0742144418998
 10
647.0135361681374
 20
529.4312107626404
 10
646.2478331599235
 20
529.5956310473043
 10
645.4656657479503
 20
529.5562703252087
 10
644.720337348751
 20
529.3158109645182
 10
644.0626408610176
 20
528.8906398732856
 10
643.5373972134943
 20
528.3097317587501
 10
643.1804008927536
 20
527.6126745489212
 10
643.0159806080899
 20
526.8469715407073
 10
643.0553413301852
 20
526.0648041287341
 10
643.2958006908759
 20
525.3194757295347
 10
643.7209717821084
 20
524.6617792418014
 10
643.9705274326136
 20
524.4361368091143
 10
623.5317717076363
 20
521.0314173376607
 10
622.8405574060271
 20
521.3995992438536
 10
622.0776031712177
 20
521.5763362303139
 10
621.2949030734686
 20
521.5495839634862
 10
620.5457968309686
 20
521.3211655661444
 10
619.8813347961873
 20
520.9066473745881
 10
619.3467989587195
 20
520.3342781185484
  0
TEXT
  5
B3
330
17
100
AcDbEntity
  8
TEXT
100
AcDbText
 10
653.9071867966561
 20
336.8406237098584
 30
0.0
 40
10.0
  1
П3
 72
1
 11
653.9071867966561
 21
336.8406237098584
 31
0.0
100
AcDbText
 73
2
  0
TEXT
  5
B4
330
17
100
AcDbEntity
  8
TEXT
100
AcDbText
 10
0.0
 20
-20.0
 30
0.0
 40
8.0
  1
П3 Плита уровня сиденья; Фанера берёзовая ФК 18 мм; 1 шт.
 11
0.0
 21
-20.0
 31
0.0
100
AcDbText
  0
ENDSEC
  0
SECTION
  2
OBJECTS
  0
DICTIONARY
  5
A
330
0
100
AcDbDictionary
281
1
  3
ACAD_COLOR
350
B
  3
ACAD_GROUP
350
C
  3
ACAD_LAYOUT
350
D
  3
ACAD_MATERIAL
350
E
  3
ACAD_MLEADERSTYLE
350
F
  3
ACAD_MLINESTYLE
350
10
  3
ACAD_PLOTSETTINGS
350
11
  3
ACAD_PLOTSTYLENAME
350
12
  3
ACAD_SCALELIST
350
14
  3
ACAD_TABLESTYLE
350
15
  3
ACAD_VISUALSTYLE
350
16
  3
EZDXF_META
350
2D
  0
DICTIONARY
  5
B
330
A
100
AcDbDictionary
281
1
  0
DICTIONARY
  5
C
330
A
100
AcDbDictionary
281
1
  0
DICTIONARY
  5
D
330
A
100
AcDbDictionary
281
1
  3
Model
350
1A
  3
Layout1
350
1E
  0
DICTIONARY
  5
E
330
A
100
AcDbDictionary
281
1
  3
ByBlock
350
1F
  3
ByLayer
350
20
  3
Global
350
21
  0
DICTIONARY
  5
F
330
A
100
AcDbDictionary
281
1
  3
Standard
350
2C
  0
DICTIONARY
  5
10
330
A
100
AcDbDictionary
281
1
  3
Standard
350
22
  0
DICTIONARY
  5
11
330
A
100
AcDbDictionary
281
1
  0
ACDBDICTIONARYWDFLT
  5
12
330
A
100
AcDbDictionary
281
1
  3
Normal
350
13
100
AcDbDictionaryWithDefault
340
13
  0
ACDBPLACEHOLDER
  5
13
330
12
  0
DICTIONARY
  5
14
330
A
100
AcDbDictionary
281
1
  0
DICTIONARY
  5
15
330
A
100
AcDbDictionary
281
1
  0
DICTIONARY
  5
16
330
A
100
AcDbDictionary
281
1
  3
2dWireframe
350
5A
  3
Basic
350
5B
  3
Brighten
350
5C
  3
ColorChange
350
5D
  3
Conceptual
350
5E
  3
Dim
350
5F
  3
EdgeColorOff
350
60
  3
Facepattern
350
61
  3
Flat
350
62
  3
FlatWithEdges
350
63
  3
Gouraud
350
64
  3
GouraudWithEdges
350
65
  3
Hidden
350
66
  3
JitterOff
350
67
  3
Linepattern
350
68
  3
Modeling
350
69
  3
OverhangOff
350
6A
  3
Realistic
350
6B
  3
Shaded
350
6C
  3
Shaded with edges
350
6D
  3
Shades of Gray
350
6E
  3
Sketchy
350
6F
  3
Thicken
350
70
  3
Wireframe
350
71
  3
X-Ray
350
72
  0
LAYOUT
  5
1A
330
D
100
AcDbPlotSettings
  1

  4
A3
  6

 40
7.5
 41
20.0
 42
7.5
 43
20.0
 44
420.0
 45
297.0
 46
0.0
 47
0.0
 48
0.0
 49
0.0
140
0.0
141
0.0
142
1.0
143
1.0
 70
1024
 72
1
 73
0
 74
5
  7

 75
16
 76
0
 77
2
 78
300
147
1.0
148
0.0
149
0.0
100
AcDbLayout
  1
Model
 70
1
 71
0
 10
0.0
 20
0.0
 11
420.0
 21
297.0
 12
0.0
 22
0.0
 32
0.0
 14
1e+20
 24
1e+20
 34
1e+20
 15
-1e+20
 25
-1e+20
 35
-1e+20
146
0.0
 13
0.0
 23
0.0
 33
0.0
 16
1.0
 26
0.0
 36
0.0
 17
0.0
 27
1.0
 37
0.0
 76
1
330
17
  0
LAYOUT
  5
1E
330
D
100
AcDbPlotSettings
  1

  4
A3
  6

 40
7.5
 41
20.0
 42
7.5
 43
20.0
 44
420.0
 45
297.0
 46
0.0
 47
0.0
 48
0.0
 49
0.0
140
0.0
141
0.0
142
1.0
143
1.0
 70
0
 72
1
 73
0
 74
5
  7

 75
16
 76
0
 77
2
 78
300
147
1.0
148
0.0
149
0.0
100
AcDbLayout
  1
Layout1
 70
1
 71
1
 10
0.0
 20
0.0
 11
420.0
 21
297.0
 12
0.0
 22
0.0
 32
0.0
 14
1e+20
 24
1e+20
 34
1e+20
 15
-1e+20
 25
-1e+20
 35
-1e+20
146
0.0
 13
0.0
 23
0.0
 33
0.0
 16
1.0
 26
0.0
 36
0.0
 17
0.0
 27
1.0
 37
0.0
 76
1
330
1B
  0
MATERIAL
  5
1F
102
{ACAD_REACTORS
330
E
102
}
330
E
100
AcDbMaterial
  1
ByBlock
  2

 70
0
 40
1.0
 71
1
 41
1.0
 91
-1023410177
 42
1.0
 72
1
  3

 73
1
 74
1
 75
1
 44
0.5
 73
0
 45
1.0
 46
1.0
 77
1
  4

 78
1
 79
1
170
1
 48
1.0
171
1
  6

172
1
173
1
174
1
140
1.0
141
1.0
175
1
  7

176
1
177
1
178
1
143
1.0
179
1
  8

270
1
271
1
272
1
145
1.0
146
1.0
273
1
  9

274
1
275
1
276
1
 42
1.0
 72
1
  3

 73
1
 74
1
 75
1
 94
63
  0
MATERIAL
  5
20
102
{ACAD_REACTORS
330
E
102
}
330
E
100
AcDbMaterial
  1
ByLayer
  2

 70
0
 40
1.0
 71
1
 41
1.0
 91
-1023410177
 42
1.0
 72
1
  3

 73
1
 74
1
 75
1
 44
0.5
 73
0
 45
1.0
 46
1.0
 77
1
  4

 78
1
 79
1
170
1
 48
1.0
171
1
  6

172
1
173
1
174
1
140
1.0
141
1.0
175
1
  7

176
1
177
1
178
1
143
1.0
179
1
  8

270
1
271
1
272
1
145
1.0
146
1.0
273
1
  9

274
1
275
1
276
1
 42
1.0
 72
1
  3

 73
1
 74
1
 75
1
 94
63
  0
MATERIAL
  5
21
102
{ACAD_REACTORS
330
E
102
}
330
E
100
AcDbMaterial
  1
Global
  2

 70
0
 40
1.0
 71
1
 41
1.0
 91
-1023410177
 42
1.0
 72
1
  3

 73
1
 74
1
 75
1
 44
0.5
 73
0
 45
1.0
 46
1.0
 77
1
  4

 78
1
 79
1
170
1
 48
1.0
171
1
  6

172
1
173
1
174
1
140
1.0
141
1.0
175
1
  7

176
1
177
1
178
1
143
1.0
179
1
  8

270
1
271
1
272
1
145
1.0
146
1.0
273
1
  9

274
1
275
1
276
1
 42
1.0
 72
1
  3

 73
1
 74
1
 75
1
 94
63
  0
MLINESTYLE
  5
22
102
{ACAD_REACTORS
330
10
102
}
330
10
100
AcDbMlineStyle
  2
Standard
 70
0
  3

 62
256
 51
90.0
 52
90.0
 71
2
 49
0.5
 62
256
  6
BYLAYER
 49
-0.5
 62
256
  6
BYLAYER
  0
MLEADERSTYLE
  5
2C
102
{ACAD_REACTORS
330
F
102
}
330
F
100
AcDbMLeaderStyle
179
2
170
2
171
1
172
0
 90
2
 40
0.0
 41
0.0
173
1
 91
-1056964608
 92
-2
290
1
 42
2.0
291
1
 43
8.0
  3
Standard
 44
4.0
300

342
29
174
1
175
1
176
0
178
1
 93
-1056964608
 45
4.0
292
0
297
0
 46
4.0
 94
-1056964608
 47
1.0
 49
1.0
140
1.0
294
1
141
0.0
177
0
142
1.0
295
0
296
0
143
3.75
271
0
272
9
273
9
  0
DICTIONARY
  5
2D
330
A
100
AcDbDictionary
280
1
281
1
  3
CREATED_BY_EZDXF
350
2E
  3
WRITTEN_BY_EZDXF
350
B7
  0
DICTIONARYVAR
  5
2E
330
2D
100
DictionaryVariables
280
0
  1
1.4.4 @ 2026-09-30T14:34:08.657408+00:00
  0
VISUALSTYLE
  5
5A
102
{ACAD_REACTORS
330
16
102
}
330
16
100
AcDbVisualStyle
  2
2dWireframe
 70
4
 90
0
 40
0.6
 62
7
290
0
291
0
  0
VISUALSTYLE
  5
5B
102
{ACAD_REACTORS
330
16
102
}
330
16
100
AcDbVisualStyle
  2
Basic
 70
7
 90
1
 40
0.6
 62
7
290
0
291
1
  0
VISUALSTYLE
  5
5C
102
{ACAD_REACTORS
330
16
102
}
330
16
100
AcDbVisualStyle
  2
Brighten
 70
12
 90
2
 40
0.6
 62
7
290
0
291
1
  0
VISUALSTYLE
  5
5D
102
{ACAD_REACTORS
330
16
102
}
330
16
100
AcDbVisualStyle
  2
ColorChange
 70
16
 90
2
 40
0.6
 62
8
290
0
291
1
  0
VISUALSTYLE
  5
5E
102
{ACAD_REACTORS
330
16
102
}
330
16
100
AcDbVisualStyle
  2
Conceptual
 70
9
 90
3
 40
0.6
 62
7
290
0
291
0
  0
VISUALSTYLE
  5
5F
102
{ACAD_REACTORS
330
16
102
}
330
16
100
AcDbVisualStyle
  2
Dim
 70
11
 90
2
 40
0.6
 62
7
290
0
291
1
  0
VISUALSTYLE
  5
60
102
{ACAD_REACTORS
330
16
102
}
330
16
100
AcDbVisualStyle
  2
EdgeColorOff
 70
22
 90
2
 40
0.6
 62
7
290
0
291
1
  0
VISUALSTYLE
  5
61
102
{ACAD_REACTORS
330
16
102
}
330
16
100
AcDbVisualStyle
  2
Facepattern
 70
15
 90
2
 40
0.6
 62
7
290
0
291
1
  0
VISUALSTYLE
  5
62
102
{ACAD_REACTORS
330
16
102
}
330
16
100
AcDbVisualStyle
  2
Flat
 70
0
 90
2
 40
0.6
 62
7
290
0
291
1
  0
VISUALSTYLE
  5
63
102
{ACAD_REACTORS
330
16
102
}
330
16
100
AcDbVisualStyle
  2
FlatWithEdges
 70
1
 90
2
 40
0.6
 62
7
290
0
291
1
  0
VISUALSTYLE
  5
64
102
{ACAD_REACTORS
330
16
102
}
330
16
100
AcDbVisualStyle
  2
Gouraud
 70
2
 90
2
 40
0.6
 62
7
290
0
291
1
  0
VISUALSTYLE
  5
65
102
{ACAD_REACTORS
330
16
102
}
330
16
100
AcDbVisualStyle
  2
GouraudWithEdges
 70
3
 90
2
 40
0.6
 62
7
290
0
291
1
  0
VISUALSTYLE
  5
66
102
{ACAD_REACTORS
330
16
102
}
330
16
100
AcDbVisualStyle
  2
Hidden
 70
6
 90
1
 40
0.6
 62
7
290
0
291
0
  0
VISUALSTYLE
  5
67
102
{ACAD_REACTORS
330
16
102
}
330
16
100
AcDbVisualStyle
  2
JitterOff
 70
20
 90
2
 40
0.6
 62
7
290
0
291
1
  0
VISUALSTYLE
  5
68
102
{ACAD_REACTORS
330
16
102
}
330
16
100
AcDbVisualStyle
  2
Linepattern
 70
14
 90
2
 40
0.6
 62
7
290
0
291
1
  0
VISUALSTYLE
  5
69
102
{ACAD_REACTORS
330
16
102
}
330
16
100
AcDbVisualStyle
  2
Modeling
 70
10
 90
2
 40
0.6
 62
7
290
0
291
0
  0
VISUALSTYLE
  5
6A
102
{ACAD_REACTORS
330
16
102
}
330
16
100
AcDbVisualStyle
  2
OverhangOff
 70
21
 90
2
 40
0.6
 62
7
290
0
291
1
  0
VISUALSTYLE
  5
6B
102
{ACAD_REACTORS
330
16
102
}
330
16
100
AcDbVisualStyle
  2
Realistic
 70
8
 90
2
 40
0.6
 62
7
290
0
291
0
  0
VISUALSTYLE
  5
6C
102
{ACAD_REACTORS
330
16
102
}
330
16
100
AcDbVisualStyle
  2
Shaded
 70
27
 90
2
 40
0.6
 62
7
290
0
291
0
  0
VISUALSTYLE
  5
6D
102
{ACAD_REACTORS
330
16
102
}
330
16
100
AcDbVisualStyle
  2
Shaded with edges
 70
26
 90
2
 40
0.6
 62
7
290
0
291
0
  0
VISUALSTYLE
  5
6E
102
{ACAD_REACTORS
330
16
102
}
330
16
100
AcDbVisualStyle
  2
Shades of Gray
 70
23
 90
2
 40
0.6
 62
7
290
0
291
0
  0
VISUALSTYLE
  5
6F
102
{ACAD_REACTORS
330
16
102
}
330
16
100
AcDbVisualStyle
  2
Sketchy
 70
24
 90
1
 40
0.6
 62
7
290
0
291
0
  0
VISUALSTYLE
  5
70
102
{ACAD_REACTORS
330
16
102
}
330
16
100
AcDbVisualStyle
  2
Thicken
 70
13
 90
2
 40
0.6
 62
7
290
0
291
1
  0
VISUALSTYLE
  5
71
102
{ACAD_REACTORS
330
16
102
}
330
16
100
AcDbVisualStyle
  2
Wireframe
 70
5
 90
0
 40
0.6
 62
7
290
0
291
0
  0
VISUALSTYLE
  5
72
102
{ACAD_REACTORS
330
16
102
}
330
16
100
AcDbVisualStyle
  2
X-Ray
 70
25
 90
2
 40
0.5
 62
7
290
0
291
0
  0
DICTIONARYVAR
  5
B7
330
2D
100
DictionaryVariables
280
0
  1
1.4.4 @ 2026-09-30T14:34:08.683104+00:00
  0
ENDSEC
  0
EOF
