  0
SECTION
  2
HEADER
  9
$ACADVER
  1
AC1024
  9
$ACADMAINTVER
 70
6
  9
$DWGCODEPAGE
  3
ANSI_1252
  9
$LASTSAVEDBY
  1
ezdxf
  9
$INSBASE
 10
0.0
 20
0.0
 30
0.0
  9
$EXTMIN
 10
1e+20
 20
1e+20
 30
1e+20
  9
$EXTMAX
 10
-1e+20
 20
-1e+20
 30
-1e+20
  9
$LIMMIN
 10
0.0
 20
0.0
  9
$LIMMAX
 10
420.0
 20
297.0
  9
$ORTHOMODE
 70
0
  9
$REGENMODE
 70
1
  9
$FILLMODE
 70
1
  9
$QTEXTMODE
 70
0
  9
$MIRRTEXT
 70
1
  9
$LTSCALE
 40
1.0
  9
$ATTMODE
 70
1
  9
$TEXTSIZE
 40
2.5
  9
$TRACEWID
 40
1.0
  9
$TEXTSTYLE
  7
OpenSans
  9
$CLAYER
  8
0
  9
$CELTYPE
  6
ByLayer
  9
$CECOLOR
 62
256
  9
$CELTSCALE
 40
1.0
  9
$DISPSILH
 70
0
  9
$DIMSCALE
 40
1.0
  9
$DIMASZ
 40
0.175
  9
$DIMEXO
 40
0.125
  9
$DIMDLI
 40
3.75
  9
$DIMRND
 40
0.0
  9
$DIMDLE
 40
0.0
  9
$DIMEXE
 40
0.375
  9
$DIMTP
 40
0.0
  9
$DIMTM
 40
0.0
  9
$DIMTXT
 40
0.25
  9
$DIMCEN
 40
2.5
  9
$DIMTSZ
 40
0.0
  9
$DIMTOL
 70
0
  9
$DIMLIM
 70
0
  9
$DIMTIH
 70
0
  9
$DIMTOH
 70
0
  9
$DIMSE1
 70
0
  9
$DIMSE2
 70
0
  9
$DIMTAD
 70
1
  9
$DIMZIN
 70
12
  9
$DIMBLK
  1
ARCHTICK
  9
$DIMASO
 70
1
  9
$DIMSHO
 70
1
  9
$DIMPOST
  1

  9
$DIMAPOST
  1

  9
$DIMALT
 70
0
  9
$DIMALTD
 70
3
  9
$DIMALTF
 40
0.03937007874
  9
$DIMLFAC
 40
100.0
  9
$DIMTOFL
 70
1
  9
$DIMTVP
 40
0.0
  9
$DIMTIX
 70
0
  9
$DIMSOXD
 70
0
  9
$DIMSAH
 70
0
  9
$DIMBLK1
  1

  9
$DIMBLK2
  1

  9
$DIMSTYLE
  2
EZDXF
  9
$DIMCLRD
 70
0
  9
$DIMCLRE
 70
0
  9
$DIMCLRT
 70
0
  9
$DIMTFAC
 40
0.5
  9
$DIMGAP
 40
0.1
  9
$DIMJUST
 70
0
  9
$DIMSD1
 70
0
  9
$DIMSD2
 70
0
  9
$DIMTOLJ
 70
0
  9
$DIMTZIN
 70
8
  9
$DIMALTZ
 70
0
  9
$DIMALTTZ
 70
0
  9
$DIMUPT
 70
1
  9
$DIMDEC
 70
2
  9
$DIMTDEC
 70
2
  9
$DIMALTU
 70
2
  9
$DIMALTTD
 70
3
  9
$DIMTXSTY
  7
OpenSansCondensed-Light
  9
$DIMAUNIT
 70
0
  9
$DIMADEC
 70
2
  9
$DIMALTRND
 40
0.0
  9
$DIMAZIN
 70
3
  9
$DIMDSEP
 70
46
  9
$DIMATFIT
 70
3
  9
$DIMFRAC
 70
0
  9
$DIMLDRBLK
  1

  9
$DIMLUNIT
 70
2
  9
$DIMLWD
 70
-2
  9
$DIMLWE
 70
-2
  9
$DIMTMOVE
 70
2
  9
$DIMFXL
 40
1.0
  9
$DIMFXLON
 70
0
  9
$DIMJOGANG
 40
0.785398163397
  9
$DIMTFILL
 70
0
  9
$DIMTFILLCLR
 70
0
  9
$DIMARCSYM
 70
0
  9
$DIMLTYPE
  6

  9
$DIMLTEX1
  6

  9
$DIMLTEX2
  6

  9
$DIMTXTDIRECTION
 70
0
  9
$LUNITS
 70
2
  9
$LUPREC
 70
4
  9
$SKETCHINC
 40
1.0
  9
$FILLETRAD
 40
10.0
  9
$AUNITS
 70
0
  9
$AUPREC
 70
2
  9
$MENU
  1
.
  9
$ELEVATION
 40
0.0
  9
$PELEVATION
 40
0.0
  9
$THICKNESS
 40
0.0
  9
$LIMCHECK
 70
0
  9
$CHAMFERA
 40
0.0
  9
$CHAMFERB
 40
0.0
  9
$CHAMFERC
 40
0.0
  9
$CHAMFERD
 40
0.0
  9
$SKPOLY
 70
0
  9
$TDCREATE
 40
2461314.633946759
  9
$TDUCREATE
 40
2458532.153996898
  9
$TDUPDATE
 40
2461314.633946759
  9
$TDUUPDATE
 40
2458532.1544311
  9
$TDINDWG
 40
0.0
  9
$TDUSRTIMER
 40
0.0
  9
$USRTIMER
 70
1
  9
$ANGBASE
 50
0.0
  9
$ANGDIR
 70
0
  9
$PDMODE
 70
0
  9
$PDSIZE
 40
0.0
  9
$PLINEWID
 40
0.0
  9
$SPLFRAME
 70
0
  9
$SPLINETYPE
 70
6
  9
$SPLINESEGS
 70
8
  9
$HANDSEED
  5
99
  9
$SURFTAB1
 70
6
  9
$SURFTAB2
 70
6
  9
$SURFTYPE
 70
6
  9
$SURFU
 70
6
  9
$SURFV
 70
6
  9
$UCSBASE
  2

  9
$UCSNAME
  2

  9
$UCSORG
 10
0.0
 20
0.0
 30
0.0
  9
$UCSXDIR
 10
1.0
 20
0.0
 30
0.0
  9
$UCSYDIR
 10
0.0
 20
1.0
 30
0.0
  9
$UCSORTHOREF
  2

  9
$UCSORTHOVIEW
 70
0
  9
$UCSORGTOP
 10
0.0
 20
0.0
 30
0.0
  9
$UCSORGBOTTOM
 10
0.0
 20
0.0
 30
0.0
  9
$UCSORGLEFT
 10
0.0
 20
0.0
 30
0.0
  9
$UCSORGRIGHT
 10
0.0
 20
0.0
 30
0.0
  9
$UCSORGFRONT
 10
0.0
 20
0.0
 30
0.0
  9
$UCSORGBACK
 10
0.0
 20
0.0
 30
0.0
  9
$PUCSBASE
  2

  9
$PUCSNAME
  2

  9
$PUCSORG
 10
0.0
 20
0.0
 30
0.0
  9
$PUCSXDIR
 10
1.0
 20
0.0
 30
0.0
  9
$PUCSYDIR
 10
0.0
 20
1.0
 30
0.0
  9
$PUCSORTHOREF
  2

  9
$PUCSORTHOVIEW
 70
0
  9
$PUCSORGTOP
 10
0.0
 20
0.0
 30
0.0
  9
$PUCSORGBOTTOM
 10
0.0
 20
0.0
 30
0.0
  9
$PUCSORGLEFT
 10
0.0
 20
0.0
 30
0.0
  9
$PUCSORGRIGHT
 10
0.0
 20
0.0
 30
0.0
  9
$PUCSORGFRONT
 10
0.0
 20
0.0
 30
0.0
  9
$PUCSORGBACK
 10
0.0
 20
0.0
 30
0.0
  9
$USERI1
 70
0
  9
$USERI2
 70
0
  9
$USERI3
 70
0
  9
$USERI4
 70
0
  9
$USERI5
 70
0
  9
$USERR1
 40
0.0
  9
$USERR2
 40
0.0
  9
$USERR3
 40
0.0
  9
$USERR4
 40
0.0
  9
$USERR5
 40
0.0
  9
$WORLDVIEW
 70
1
  9
$SHADEDGE
 70
3
  9
$SHADEDIF
 70
70
  9
$TILEMODE
 70
1
  9
$MAXACTVP
 70
64
  9
$PINSBASE
 10
0.0
 20
0.0
 30
0.0
  9
$PLIMCHECK
 70
0
  9
$PEXTMIN
 10
1e+20
 20
1e+20
 30
1e+20
  9
$PEXTMAX
 10
-1e+20
 20
-1e+20
 30
-1e+20
  9
$PLIMMIN
 10
0.0
 20
0.0
  9
$PLIMMAX
 10
420.0
 20
297.0
  9
$UNITMODE
 70
0
  9
$VISRETAIN
 70
1
  9
$PLINEGEN
 70
0
  9
$PSLTSCALE
 70
1
  9
$TREEDEPTH
 70
3020
  9
$CMLSTYLE
  2
Standard
  9
$CMLJUST
 70
0
  9
$CMLSCALE
 40
20.0
  9
$PROXYGRAPHICS
 70
1
  9
$MEASUREMENT
 70
1
  9
$CELWEIGHT
370
-1
  9
$ENDCAPS
280
0
  9
$JOINSTYLE
280
0
  9
$LWDISPLAY
290
0
  9
$INSUNITS
 70
4
  9
$HYPERLINKBASE
  1

  9
$STYLESHEET
  1

  9
$XEDIT
290
1
  9
$CEPSNTYPE
380
0
  9
$PSTYLEMODE
290
1
  9
$FINGERPRINTGUID
  2
{AF969D3E-9205-4E51-AF46-F37853628FA1}
  9
$VERSIONGUID
  2
{3478EB1E-8CCD-416D-8C7F-714F64549257}
  9
$EXTNAMES
290
1
  9
$PSVPSCALE
 40
0.0
  9
$OLESTARTUP
290
0
  9
$SORTENTS
280
127
  9
$INDEXCTL
280
0
  9
$HIDETEXT
280
1
  9
$XCLIPFRAME
280
1
  9
$HALOGAP
280
0
  9
$OBSCOLOR
 70
257
  9
$OBSLTYPE
280
0
  9
$INTERSECTIONDISPLAY
280
0
  9
$INTERSECTIONCOLOR
 70
257
  9
$DIMASSOC
280
2
  9
$PROJECTNAME
  1

  9
$CAMERADISPLAY
290
0
  9
$LENSLENGTH
 40
50.0
  9
$CAMERAHEIGHT
 40
0.0
  9
$STEPSPERSEC
 40
24.0
  9
$STEPSIZE
 40
100.0
  9
$3DDWFPREC
 40
2.0
  9
$PSOLWIDTH
 40
0.005
  9
$PSOLHEIGHT
 40
0.08
  9
$LOFTANG1
 40
1.570796326795
  9
$LOFTANG2
 40
1.570796326795
  9
$LOFTMAG1
 40
0.0
  9
$LOFTMAG2
 40
0.0
  9
$LOFTPARAM
 70
7
  9
$LOFTNORMALS
280
1
  9
$LATITUDE
 40
37.795
  9
$LONGITUDE
 40
-122.394
  9
$NORTHDIRECTION
 40
0.0
  9
$TIMEZONE
 70
-8000
  9
$LIGHTGLYPHDISPLAY
280
1
  9
$TILEMODELIGHTSYNCH
280
1
  9
$CMATERIAL
347
20
  9
$SOLIDHIST
280
0
  9
$SHOWHIST
280
1
  9
$DWFFRAME
280
2
  9
$DGNFRAME
280
2
  9
$REALWORLDSCALE
290
1
  9
$INTERFERECOLOR
 62
256
  9
$CSHADOW
280
0
  9
$SHADOWPLANELOCATION
 40
0.0
  0
ENDSEC
  0
SECTION
  2
CLASSES
  0
CLASS
  1
ACDBDICTIONARYWDFLT
  2
AcDbDictionaryWithDefault
  3
ObjectDBX Classes
 90
0
 91
0
280
0
281
0
  0
CLASS
  1
SUN
  2
AcDbSun
  3
SCENEOE
 90
1153
 91
0
280
0
281
0
  0
CLASS
  1
VISUALSTYLE
  2
AcDbVisualStyle
  3
ObjectDBX Classes
 90
4095
 91
0
280
0
281
0
  0
CLASS
  1
MATERIAL
  2
AcDbMaterial
  3
ObjectDBX Classes
 90
1153
 91
0
280
0
281
0
  0
CLASS
  1
SCALE
  2
AcDbScale
  3
ObjectDBX Classes
 90
1153
 91
0
280
0
281
0
  0
CLASS
  1
TABLESTYLE
  2
AcDbTableStyle
  3
ObjectDBX Classes
 90
4095
 91
0
280
0
281
0
  0
CLASS
  1
MLEADERSTYLE
  2
AcDbMLeaderStyle
  3
ACDB_MLEADERSTYLE_CLASS
 90
4095
 91
0
280
0
281
0
  0
CLASS
  1
DICTIONARYVAR
  2
AcDbDictionaryVar
  3
ObjectDBX Classes
 90
0
 91
0
280
0
281
0
  0
CLASS
  1
CELLSTYLEMAP
  2
AcDbCellStyleMap
  3
ObjectDBX Classes
 90
1152
 91
0
280
0
281
0
  0
CLASS
  1
MENTALRAYRENDERSETTINGS
  2
AcDbMentalRayRenderSettings
  3
SCENEOE
 90
1024
 91
0
280
0
281
0
  0
CLASS
  1
ACDBDETAILVIEWSTYLE
  2
AcDbDetailViewStyle
  3
ObjectDBX Classes
 90
1025
 91
0
280
0
281
0
  0
CLASS
  1
ACDBSECTIONVIEWSTYLE
  2
AcDbSectionViewStyle
  3
ObjectDBX Classes
 90
1025
 91
0
280
0
281
0
  0
CLASS
  1
RASTERVARIABLES
  2
AcDbRasterVariables
  3
ISM
 90
0
 91
0
280
0
281
0
  0
CLASS
  1
ACDBPLACEHOLDER
  2
AcDbPlaceHolder
  3
ObjectDBX Classes
 90
0
 91
0
280
0
281
0
  0
CLASS
  1
LAYOUT
  2
AcDbLayout
  3
ObjectDBX Classes
 90
0
 91
0
280
0
281
0
  0
ENDSEC
  0
SECTION
  2
TABLES
  0
TABLE
  2
VPORT
  5
8
330
0
100
AcDbSymbolTable
 70
1
  0
VPORT
  5
23
330
8
100
AcDbSymbolTableRecord
100
AcDbViewportTableRecord
  2
*Active
 70
0
 10
0.0
 20
0.0
 11
1.0
 21
1.0
 12
0.0
 22
0.0
 13
0.0
 23
0.0
 14
0.5
 24
0.5
 15
0.5
 25
0.5
 16
0.0
 26
0.0
 36
1.0
 17
0.0
 27
0.0
 37
0.0
 40
1000.0
 41
1.34
 42
50.0
 43
0.0
 44
0.0
 50
0.0
 51
0.0
 71
0
 72
1000
 73
1
 74
3
 75
0
 76
0
 77
0
 78
0
281
0
 65
0
146
0.0
  0
ENDTAB
  0
TABLE
  2
LTYPE
  5
2
330
0
100
AcDbSymbolTable
 70
21
  0
LTYPE
  5
24
330
2
100
AcDbSymbolTableRecord
100
AcDbLinetypeTableRecord
  2
ByBlock
 70
0
  3

 72
65
 73
0
 40
0.0
  0
LTYPE
  5
25
330
2
100
AcDbSymbolTableRecord
100
AcDbLinetypeTableRecord
  2
ByLayer
 70
0
  3

 72
65
 73
0
 40
0.0
  0
LTYPE
  5
26
330
2
100
AcDbSymbolTableRecord
100
AcDbLinetypeTableRecord
  2
Continuous
 70
0
  3

 72
65
 73
0
 40
0.0
  0
LTYPE
  5
2F
330
2
100
AcDbSymbolTableRecord
100
AcDbLinetypeTableRecord
  2
CENTER
 70
0
  3
Center ____ _ ____ _ ____ _ ____ _ ____ _ ____
 72
65
 73
4
 40
5.08
 49
3.175
 74
0
 49
-0.635
 74
0
 49
0.635
 74
0
 49
-0.635
 74
0
  0
LTYPE
  5
30
330
2
100
AcDbSymbolTableRecord
100
AcDbLinetypeTableRecord
  2
CENTERX2
 70
0
  3
Center (2x) ________  __  ________  __  ________
 72
65
 73
4
 40
8.89
 49
6.35
 74
0
 49
-0.635
 74
0
 49
1.27
 74
0
 49
-0.635
 74
0
  0
LTYPE
  5
31
330
2
100
AcDbSymbolTableRecord
100
AcDbLinetypeTableRecord
  2
CENTER2
 70
0
  3
Center (.5x) ____ _ ____ _ ____ _ ____ _ ____
 72
65
 73
4
 40
2.54
 49
1.587
 74
0
 49
-0.318
 74
0
 49
0.318
 74
0
 49
-0.318
 74
0
  0
LTYPE
  5
32
330
2
100
AcDbSymbolTableRecord
100
AcDbLinetypeTableRecord
  2
DASHED
 70
0
  3
Dashed __ __ __ __ __ __ __ __ __ __ __ __ __ _
 72
65
 73
2
 40
1.524
 49
1.27
 74
0
 49
-0.254
 74
0
  0
LTYPE
  5
33
330
2
100
AcDbSymbolTableRecord
100
AcDbLinetypeTableRecord
  2
DASHEDX2
 70
0
  3
Dashed (2x) ____  ____  ____  ____  ____  ____
 72
65
 73
2
 40
3.048
 49
2.54
 74
0
 49
-0.508
 74
0
  0
LTYPE
  5
34
330
2
100
AcDbSymbolTableRecord
100
AcDbLinetypeTableRecord
  2
DASHED2
 70
0
  3
Dashed (.5x) _ _ _ _ _ _ _ _ _ _ _ _ _ _
 72
65
 73
2
 40
0.762
 49
0.635
 74
0
 49
-0.127
 74
0
  0
LTYPE
  5
35
330
2
100
AcDbSymbolTableRecord
100
AcDbLinetypeTableRecord
  2
PHANTOM
 70
0
  3
Phantom ______  __  __  ______  __  __  ______
 72
65
 73
6
 40
6.35
 49
3.175
 74
0
 49
-0.635
 74
0
 49
0.635
 74
0
 49
-0.635
 74
0
 49
0.635
 74
0
 49
-0.635
 74
0
  0
LTYPE
  5
36
330
2
100
AcDbSymbolTableRecord
100
AcDbLinetypeTableRecord
  2
PHANTOMX2
 70
0
  3
Phantom (2x)____________    ____    ____    ____________
 72
65
 73
6
 40
10.795
 49
6.35
 74
0
 49
-0.635
 74
0
 49
1.27
 74
0
 49
-0.635
 74
0
 49
1.27
 74
0
 49
-0.635
 74
0
  0
LTYPE
  5
37
330
2
100
AcDbSymbolTableRecord
100
AcDbLinetypeTableRecord
  2
PHANTOM2
 70
0
  3
Phantom (.5x) ___ _ _ ___ _ _ ___ _ _ ___ _ _ ___
 72
65
 73
6
 40
3.175
 49
1.587
 74
0
 49
-0.318
 74
0
 49
0.318
 74
0
 49
-0.318
 74
0
 49
0.318
 74
0
 49
-0.318
 74
0
  0
LTYPE
  5
38
330
2
100
AcDbSymbolTableRecord
100
AcDbLinetypeTableRecord
  2
DASHDOT
 70
0
  3
Dash dot __ . __ . __ . __ . __ . __ . __ . __
 72
65
 73
4
 40
3.556
 49
2.54
 74
0
 49
-0.508
 74
0
 49
0.0
 74
0
 49
-0.508
 74
0
  0
LTYPE
  5
39
330
2
100
AcDbSymbolTableRecord
100
AcDbLinetypeTableRecord
  2
DASHDOTX2
 70
0
  3
Dash dot (2x) ____  .  ____  .  ____  .  ____
 72
65
 73
4
 40
6.096
 49
5.08
 74
0
 49
-0.508
 74
0
 49
0.0
 74
0
 49
-0.508
 74
0
  0
LTYPE
  5
3A
330
2
100
AcDbSymbolTableRecord
100
AcDbLinetypeTableRecord
  2
DASHDOT2
 70
0
  3
Dash dot (.5x) _ . _ . _ . _ . _ . _ . _ . _
 72
65
 73
4
 40
1.778
 49
1.27
 74
0
 49
-0.254
 74
0
 49
0.0
 74
0
 49
-0.254
 74
0
  0
LTYPE
  5
3B
330
2
100
AcDbSymbolTableRecord
100
AcDbLinetypeTableRecord
  2
DOT
 70
0
  3
Dot .  .  .  .  .  .  .  .  .  .  .  .  .  .  .  .
 72
65
 73
2
 40
0.508
 49
0.0
 74
0
 49
-0.508
 74
0
  0
LTYPE
  5
3C
330
2
100
AcDbSymbolTableRecord
100
AcDbLinetypeTableRecord
  2
DOTX2
 70
0
  3
Dot (2x) .    .    .    .    .    .    .    . 
 72
65
 73
2
 40
1.016
 49
0.0
 74
0
 49
-1.016
 74
0
  0
LTYPE
  5
3D
330
2
100
AcDbSymbolTableRecord
100
AcDbLinetypeTableRecord
  2
DOT2
 70
0
  3
Dot (.5) . . . . . . . . . . . . . . . . . . . 
 72
65
 73
2
 40
0.254
 49
0.0
 74
0
 49
-0.254
 74
0
  0
LTYPE
  5
3E
330
2
100
AcDbSymbolTableRecord
100
AcDbLinetypeTableRecord
  2
DIVIDE
 70
0
  3
Divide __ . . __ . . __ . . __ . . __ . . __
 72
65
 73
6
 40
4.064
 49
2.54
 74
0
 49
-0.508
 74
0
 49
0.0
 74
0
 49
-0.508
 74
0
 49
0.0
 74
0
 49
-0.508
 74
0
  0
LTYPE
  5
3F
330
2
100
AcDbSymbolTableRecord
100
AcDbLinetypeTableRecord
  2
DIVIDEX2
 70
0
  3
Divide (2x) ____  . .  ____  . .  ____  . .  ____
 72
65
 73
6
 40
6.604
 49
5.08
 74
0
 49
-0.508
 74
0
 49
0.0
 74
0
 49
-0.508
 74
0
 49
0.0
 74
0
 49
-0.508
 74
0
  0
LTYPE
  5
40
330
2
100
AcDbSymbolTableRecord
100
AcDbLinetypeTableRecord
  2
DIVIDE2
 70
0
  3
Divide(.5x) _ . _ . _ . _ . _ . _ . _ . _
 72
65
 73
6
 40
2.032
 49
1.27
 74
0
 49
-0.254
 74
0
 49
0.0
 74
0
 49
-0.254
 74
0
 49
0.0
 74
0
 49
-0.254
 74
0
  0
ENDTAB
  0
TABLE
  2
LAYER
  5
1
330
0
100
AcDbSymbolTable
 70
8
  0
LAYER
  5
27
330
1
100
AcDbSymbolTableRecord
100
AcDbLayerTableRecord
  2
0
 70
0
 62
7
  6
Continuous
370
-3
390
13
347
21
  0
LAYER
  5
28
330
1
100
AcDbSymbolTableRecord
100
AcDbLayerTableRecord
  2
Defpoints
 70
0
 62
7
  6
Continuous
290
0
370
-3
390
13
347
21
  0
LAYER
  5
8A
330
1
100
AcDbSymbolTableRecord
100
AcDbLayerTableRecord
  2
CUT_OUT
 70
0
 62
7
  6
Continuous
370
-3
390
13
347
21
  0
LAYER
  5
8B
330
1
100
AcDbSymbolTableRecord
100
AcDbLayerTableRecord
  2
CUT_IN
 70
0
 62
1
  6
Continuous
370
-3
390
13
347
21
  0
LAYER
  5
8C
330
1
100
AcDbSymbolTableRecord
100
AcDbLayerTableRecord
  2
DRILL
 70
0
 62
3
  6
Continuous
370
-3
390
13
347
21
  0
LAYER
  5
8D
330
1
100
AcDbSymbolTableRecord
100
AcDbLayerTableRecord
  2
MARK
 70
0
 62
5
  6
Continuous
370
-3
390
13
347
21
  0
LAYER
  5
8E
330
1
100
AcDbSymbolTableRecord
100
AcDbLayerTableRecord
  2
TEXT
 70
0
 62
8
  6
Continuous
370
-3
390
13
347
21
  0
LAYER
  5
8F
330
1
100
AcDbSymbolTableRecord
100
AcDbLayerTableRecord
  2
SHEET
 70
0
 62
9
  6
Continuous
370
-3
390
13
347
21
  0
ENDTAB
  0
TABLE
  2
STYLE
  5
5
330
0
100
AcDbSymbolTable
 70
26
  0
STYLE
  5
29
330
5
100
AcDbSymbolTableRecord
100
AcDbTextStyleTableRecord
  2
Standard
 70
0
 40
0.0
 41
1.0
 50
0.0
 71
0
 42
2.5
  3
txt
  4

  0
STYLE
  5
41
330
5
100
AcDbSymbolTableRecord
100
AcDbTextStyleTableRecord
  2
OpenSans-Light
 70
0
 40
0.0
 41
1.0
 50
0.0
 71
0
 42
2.5
  3
OpenSans-Light.ttf
  4

  0
STYLE
  5
42
330
5
100
AcDbSymbolTableRecord
100
AcDbTextStyleTableRecord
  2
OpenSans-Light-Italic
 70
0
 40
0.0
 41
1.0
 50
0.0
 71
0
 42
2.5
  3
OpenSans-LightItalic.ttf
  4

  0
STYLE
  5
43
330
5
100
AcDbSymbolTableRecord
100
AcDbTextStyleTableRecord
  2
OpenSans
 70
0
 40
0.0
 41
1.0
 50
0.0
 71
0
 42
2.5
  3
OpenSans-Regular.ttf
  4

  0
STYLE
  5
44
330
5
100
AcDbSymbolTableRecord
100
AcDbTextStyleTableRecord
  2
OpenSans-Italic
 70
0
 40
0.0
 41
1.0
 50
0.0
 71
0
 42
2.5
  3
OpenSans-Italic.ttf
  4

  0
STYLE
  5
45
330
5
100
AcDbSymbolTableRecord
100
AcDbTextStyleTableRecord
  2
OpenSans-SemiBold
 70
0
 40
0.0
 41
1.0
 50
0.0
 71
0
 42
2.5
  3
OpenSans-SemiBold.ttf
  4

  0
STYLE
  5
46
330
5
100
AcDbSymbolTableRecord
100
AcDbTextStyleTableRecord
  2
OpenSans-SemiBoldItalic
 70
0
 40
0.0
 41
1.0
 50
0.0
 71
0
 42
2.5
  3
OpenSans-SemiBoldItalic.ttf
  4

  0
STYLE
  5
47
330
5
100
AcDbSymbolTableRecord
100
AcDbTextStyleTableRecord
  2
OpenSans-Bold
 70
0
 40
0.0
 41
1.0
 50
0.0
 71
0
 42
2.5
  3
OpenSans-Bold.ttf
  4

  0
STYLE
  5
48
330
5
100
AcDbSymbolTableRecord
100
AcDbTextStyleTableRecord
  2
OpenSans-BoldItalic
 70
0
 40
0.0
 41
1.0
 50
0.0
 71
0
 42
2.5
  3
OpenSans-BoldItalic.ttf
  4

  0
STYLE
  5
49
330
5
100
AcDbSymbolTableRecord
100
AcDbTextStyleTableRecord
  2
OpenSans-ExtraBold
 70
0
 40
0.0
 41
1.0
 50
0.0
 71
0
 42
2.5
  3
OpenSans-ExtraBold.ttf
  4

  0
STYLE
  5
4A
330
5
100
AcDbSymbolTableRecord
100
AcDbTextStyleTableRecord
  2
OpenSans-ExtraBoldItalic
 70
0
 40
0.0
 41
1.0
 50
0.0
 71
0
 42
2.5
  3
OpenSans-ExtraBoldItalic.ttf
  4

  0
STYLE
  5
4B
330
5
100
AcDbSymbolTableRecord
100
AcDbTextStyleTableRecord
  2
OpenSansCondensed-Bold
 70
0
 40
0.0
 41
1.0
 50
0.0
 71
0
 42
2.5
  3
OpenSansCondensed-Bold.ttf
  4

  0
STYLE
  5
4C
330
5
100
AcDbSymbolTableRecord
100
AcDbTextStyleTableRecord
  2
OpenSansCondensed-Light
 70
0
 40
0.0
 41
1.0
 50
0.0
 71
0
 42
2.5
  3
OpenSansCondensed-Light.ttf
  4

  0
STYLE
  5
4D
330
5
100
AcDbSymbolTableRecord
100
AcDbTextStyleTableRecord
  2
OpenSansCondensed-Italic
 70
0
 40
0.0
 41
1.0
 50
0.0
 71
0
 42
2.5
  3
OpenSansCondensed-LightItalic.ttf
  4

  0
STYLE
  5
4E
330
5
100
AcDbSymbolTableRecord
100
AcDbTextStyleTableRecord
  2
LiberationSans
 70
0
 40
0.0
 41
1.0
 50
0.0
 71
0
 42
2.5
  3
LiberationSans-Regular.ttf
  4

  0
STYLE
  5
4F
330
5
100
AcDbSymbolTableRecord
100
AcDbTextStyleTableRecord
  2
LiberationSans-Bold
 70
0
 40
0.0
 41
1.0
 50
0.0
 71
0
 42
2.5
  3
LiberationSans-Bold.ttf
  4

  0
STYLE
  5
50
330
5
100
AcDbSymbolTableRecord
100
AcDbTextStyleTableRecord
  2
LiberationSans-BoldItalic
 70
0
 40
0.0
 41
1.0
 50
0.0
 71
0
 42
2.5
  3
LiberationSans-BoldItalic.ttf
  4

  0
STYLE
  5
51
330
5
100
AcDbSymbolTableRecord
100
AcDbTextStyleTableRecord
  2
LiberationSans-Italic
 70
0
 40
0.0
 41
1.0
 50
0.0
 71
0
 42
2.5
  3
LiberationSans-Italic.ttf
  4

  0
STYLE
  5
52
330
5
100
AcDbSymbolTableRecord
100
AcDbTextStyleTableRecord
  2
LiberationSerif
 70
0
 40
0.0
 41
1.0
 50
0.0
 71
0
 42
2.5
  3
LiberationSerif-Regular.ttf
  4

  0
STYLE
  5
53
330
5
100
AcDbSymbolTableRecord
100
AcDbTextStyleTableRecord
  2
LiberationSerif-Bold
 70
0
 40
0.0
 41
1.0
 50
0.0
 71
0
 42
2.5
  3
LiberationSerif-Bold.ttf
  4

  0
STYLE
  5
54
330
5
100
AcDbSymbolTableRecord
100
AcDbTextStyleTableRecord
  2
LiberationSerif-BoldItalic
 70
0
 40
0.0
 41
1.0
 50
0.0
 71
0
 42
2.5
  3
LiberationSerif-BoldItalic.ttf
  4

  0
STYLE
  5
55
330
5
100
AcDbSymbolTableRecord
100
AcDbTextStyleTableRecord
  2
LiberationSerif-Italic
 70
0
 40
0.0
 41
1.0
 50
0.0
 71
0
 42
2.5
  3
LiberationSerif-Italic.ttf
  4

  0
STYLE
  5
56
330
5
100
AcDbSymbolTableRecord
100
AcDbTextStyleTableRecord
  2
LiberationMono
 70
0
 40
0.0
 41
1.0
 50
0.0
 71
0
 42
2.5
  3
LiberationMono-Regular.ttf
  4

  0
STYLE
  5
57
330
5
100
AcDbSymbolTableRecord
100
AcDbTextStyleTableRecord
  2
LiberationMono-Bold
 70
0
 40
0.0
 41
1.0
 50
0.0
 71
0
 42
2.5
  3
LiberationMono-Bold.ttf
  4

  0
STYLE
  5
58
330
5
100
AcDbSymbolTableRecord
100
AcDbTextStyleTableRecord
  2
LiberationMono-BoldItalic
 70
0
 40
0.0
 41
1.0
 50
0.0
 71
0
 42
2.5
  3
LiberationMono-BoldItalic.ttf
  4

  0
STYLE
  5
59
330
5
100
AcDbSymbolTableRecord
100
AcDbTextStyleTableRecord
  2
LiberationMono-Italic
 70
0
 40
0.0
 41
1.0
 50
0.0
 71
0
 42
2.5
  3
LiberationMono-Italic.ttf
  4

  0
ENDTAB
  0
TABLE
  2
VIEW
  5
7
330
0
100
AcDbSymbolTable
 70
0
  0
ENDTAB
  0
TABLE
  2
UCS
  5
6
330
0
100
AcDbSymbolTable
 70
0
  0
ENDTAB
  0
TABLE
  2
APPID
  5
3
330
0
100
AcDbSymbolTable
 70
3
  0
APPID
  5
2A
330
3
100
AcDbSymbolTableRecord
100
AcDbRegAppTableRecord
  2
ACAD
 70
0
  0
APPID
  5
96
330
3
100
AcDbSymbolTableRecord
100
AcDbRegAppTableRecord
  2
HATCHBACKGROUNDCOLOR
 70
0
  0
APPID
  5
97
330
3
100
AcDbSymbolTableRecord
100
AcDbRegAppTableRecord
  2
EZDXF
 70
0
  0
ENDTAB
  0
TABLE
  2
DIMSTYLE
  5
4
330
0
100
AcDbSymbolTable
 70
12
100
AcDbDimStyleTable
  0
DIMSTYLE
105
2B
330
4
100
AcDbSymbolTableRecord
100
AcDbDimStyleTableRecord
  2
Standard
 70
0
 40
1.0
 41
2.5
 42
0.625
 43
3.75
 44
1.25
 45
0.0
 46
0.0
 47
0.0
 48
0.0
 49
2.5
140
2.5
141
2.5
142
0.0
143
0.03937007874
144
1.0
145
0.0
146
1.0
147
0.625
148
0.0
 69
0
 70
0
 71
0
 72
0
 73
0
 74
0
 75
0
 76
0
 77
1
 78
8
 79
3
170
0
171
3
172
1
173
0
174
0
175
0
176
0
177
0
178
0
179
2
271
2
272
2
273
2
274
3
275
0
276
0
277
2
278
44
279
0
280
0
281
0
282
0
283
0
284
8
285
0
286
0
288
0
289
3
290
0
371
-2
372
-2
  0
DIMSTYLE
105
73
330
4
100
AcDbSymbolTableRecord
100
AcDbDimStyleTableRecord
  2
EZDXF
 70
0
 40
1.0
 41
0.175
 42
0.125
 43
3.75
 44
0.375
 45
0.0
 46
0.0
 47
0.0
 48
0.0
 49
2.5
140
0.25
141
2.5
142
0.0
143
0.03937007874
144
100.0
145
0.0
146
0.5
147
0.1
148
0.0
 69
0
 70
0
 71
0
 72
0
 73
0
 74
0
 75
0
 76
0
 77
1
 78
12
 79
3
170
0
171
3
172
1
173
0
174
0
175
0
176
0
177
0
178
0
179
2
271
2
272
2
273
2
274
3
275
0
276
0
277
2
278
46
279
2
280
0
281
0
282
0
283
0
284
8
285
0
286
0
288
1
289
3
290
0
340
4C
342
74
371
-2
372
-2
  0
DIMSTYLE
105
7C
330
4
100
AcDbSymbolTableRecord
100
AcDbDimStyleTableRecord
  2
EZ_M_100_H25_CM
 70
0
 40
1.0
 41
0.25
 42
0.125
 43
3.75
 44
0.375
 45
0.0
 46
0.0
 47
0.0
 48
0.0
 49
2.5
140
0.25
141
2.5
142
0.125
143
0.03937007874
144
100.0
145
0.0
146
0.5
147
0.1
148
0.0
 69
0
 70
0
 71
0
 72
0
 73
0
 74
0
 75
0
 76
0
 77
1
 78
12
 79
3
170
0
171
3
172
1
173
0
174
0
175
0
176
0
177
0
178
0
179
2
271
2
272
2
273
2
274
3
275
0
276
0
277
2
278
46
279
2
280
0
281
0
282
0
283
0
284
8
285
0
286
0
288
1
289
3
290
0
340
4C
371
-2
372
-2
  0
DIMSTYLE
105
7D
330
4
100
AcDbSymbolTableRecord
100
AcDbDimStyleTableRecord
  2
EZ_M_50_H25_CM
 70
0
 40
1.0
 41
0.125
 42
0.0625
 43
3.75
 44
0.1875
 45
0.0
 46
0.0
 47
0.0
 48
0.0
 49
2.5
140
0.125
141
2.5
142
0.0625
143
0.03937007874
144
100.0
145
0.0
146
0.5
147
0.05
148
0.0
 69
0
 70
0
 71
0
 72
0
 73
0
 74
0
 75
0
 76
0
 77
1
 78
12
 79
3
170
0
171
3
172
1
173
0
174
0
175
0
176
0
177
0
178
0
179
2
271
2
272
2
273
2
274
3
275
0
276
0
277
2
278
46
279
2
280
0
281
0
282
0
283
0
284
8
285
0
286
0
288
1
289
3
290
0
340
4C
371
-2
372
-2
  0
DIMSTYLE
105
7E
330
4
100
AcDbSymbolTableRecord
100
AcDbDimStyleTableRecord
  2
EZ_M_25_H25_CM
 70
0
 40
1.0
 41
0.0625
 42
0.03125
 43
3.75
 44
0.09375
 45
0.0
 46
0.0
 47
0.0
 48
0.0
 49
2.5
140
0.0625
141
2.5
142
0.03125
143
0.03937007874
144
100.0
145
0.0
146
0.5
147
0.025
148
0.0
 69
0
 70
0
 71
0
 72
0
 73
0
 74
0
 75
0
 76
0
 77
1
 78
12
 79
3
170
0
171
3
172
1
173
0
174
0
175
0
176
0
177
0
178
0
179
2
271
2
272
2
273
2
274
3
275
0
276
0
277
2
278
46
279
2
280
0
281
0
282
0
283
0
284
8
285
0
286
0
288
1
289
3
290
0
340
4C
371
-2
372
-2
  0
DIMSTYLE
105
7F
330
4
100
AcDbSymbolTableRecord
100
AcDbDimStyleTableRecord
  2
EZ_M_20_H25_CM
 70
0
 40
1.0
 41
0.05
 42
0.025
 43
3.75
 44
0.07500000000000001
 45
0.0
 46
0.0
 47
0.0
 48
0.0
 49
2.5
140
0.05
141
2.5
142
0.025
143
0.03937007874
144
100.0
145
0.0
146
0.5
147
0.020000000000000004
148
0.0
 69
0
 70
0
 71
0
 72
0
 73
0
 74
0
 75
0
 76
0
 77
1
 78
12
 79
3
170
0
171
3
172
1
173
0
174
0
175
0
176
0
177
0
178
0
179
2
271
2
272
2
273
2
274
3
275
0
276
0
277
2
278
46
279
2
280
0
281
0
282
0
283
0
284
8
285
0
286
0
288
1
289
3
290
0
340
4C
371
-2
372
-2
  0
DIMSTYLE
105
80
330
4
100
AcDbSymbolTableRecord
100
AcDbDimStyleTableRecord
  2
EZ_M_10_H25_CM
 70
0
 40
1.0
 41
0.025
 42
0.0125
 43
3.75
 44
0.037500000000000006
 45
0.0
 46
0.0
 47
0.0
 48
0.0
 49
2.5
140
0.025
141
2.5
142
0.0125
143
0.03937007874
144
100.0
145
0.0
146
0.5
147
0.010000000000000002
148
0.0
 69
0
 70
0
 71
0
 72
0
 73
0
 74
0
 75
0
 76
0
 77
1
 78
12
 79
3
170
0
171
3
172
1
173
0
174
0
175
0
176
0
177
0
178
0
179
2
271
2
272
2
273
2
274
3
275
0
276
0
277
2
278
46
279
2
280
0
281
0
282
0
283
0
284
8
285
0
286
0
288
1
289
3
290
0
340
4C
371
-2
372
-2
  0
DIMSTYLE
105
81
330
4
100
AcDbSymbolTableRecord
100
AcDbDimStyleTableRecord
  2
EZ_M_5_H25_CM
 70
0
 40
1.0
 41
0.0125
 42
0.00625
 43
3.75
 44
0.018750000000000003
 45
0.0
 46
0.0
 47
0.0
 48
0.0
 49
2.5
140
0.0125
141
2.5
142
0.00625
143
0.03937007874
144
100.0
145
0.0
146
0.5
147
0.005000000000000001
148
0.0
 69
0
 70
0
 71
0
 72
0
 73
0
 74
0
 75
0
 76
0
 77
1
 78
12
 79
3
170
0
171
3
172
1
173
0
174
0
175
0
176
0
177
0
178
0
179
2
271
2
272
2
273
2
274
3
275
0
276
0
277
2
278
46
279
2
280
0
281
0
282
0
283
0
284
8
285
0
286
0
288
1
289
3
290
0
340
4C
371
-2
372
-2
  0
DIMSTYLE
105
82
330
4
100
AcDbSymbolTableRecord
100
AcDbDimStyleTableRecord
  2
EZ_M_1_H25_CM
 70
0
 40
1.0
 41
0.0025
 42
0.00125
 43
3.75
 44
0.00375
 45
0.0
 46
0.0
 47
0.0
 48
0.0
 49
2.5
140
0.0025
141
2.5
142
0.00125
143
0.03937007874
144
100.0
145
0.0
146
0.5
147
0.001
148
0.0
 69
0
 70
0
 71
0
 72
0
 73
0
 74
0
 75
0
 76
0
 77
1
 78
12
 79
3
170
0
171
3
172
1
173
0
174
0
175
0
176
0
177
0
178
0
179
2
271
2
272
2
273
2
274
3
275
0
276
0
277
2
278
46
279
2
280
0
281
0
282
0
283
0
284
8
285
0
286
0
288
1
289
3
290
0
340
4C
371
-2
372
-2
  0
DIMSTYLE
105
83
330
4
100
AcDbSymbolTableRecord
100
AcDbDimStyleTableRecord
  2
EZ_RADIUS
 70
0
 40
1.0
 41
0.25
 42
0.125
 43
3.75
 44
0.375
 45
0.0
 46
0.0
 47
0.0
 48
0.0
 49
2.5
140
0.25
141
0.0
142
0.0
143
0.03937007874
144
100.0
145
0.0
146
0.5
147
0.1
148
0.0
 69
0
 70
0
 71
0
 72
0
 73
0
 74
0
 75
0
 76
0
 77
1
 78
12
 79
3
170
0
171
3
172
0
173
0
174
0
175
0
176
0
177
0
178
0
179
2
271
2
272
2
273
2
274
3
275
0
276
0
277
2
278
46
279
1
280
0
281
0
282
0
283
0
284
8
285
0
286
0
288
1
289
3
290
0
340
4C
342
84
371
-2
372
-2
  0
DIMSTYLE
105
88
330
4
100
AcDbSymbolTableRecord
100
AcDbDimStyleTableRecord
  2
EZ_RADIUS_INSIDE
 70
0
 40
1.0
 41
0.25
 42
0.125
 43
3.75
 44
0.375
 45
0.0
 46
0.0
 47
0.0
 48
0.0
 49
2.5
140
0.25
141
0.0
142
0.0
143
0.03937007874
144
100.0
145
0.0
146
0.5
147
0.1
148
0.0
 69
0
 70
0
 71
0
 72
0
 73
0
 74
0
 75
0
 76
0
 77
0
 78
12
 79
3
170
0
171
3
172
0
173
0
174
1
175
0
176
0
177
0
178
0
179
2
271
2
272
2
273
2
274
3
275
0
276
0
277
2
278
46
279
0
280
0
281
0
282
0
283
0
284
8
285
0
286
0
288
1
289
0
290
0
340
4C
342
84
371
-2
372
-2
  0
DIMSTYLE
105
89
330
4
100
AcDbSymbolTableRecord
100
AcDbDimStyleTableRecord
  2
EZ_CURVED
 70
0
 40
1.0
 41
0.25
 42
0.125
 43
3.75
 44
0.375
 45
0.0
 46
0.0
 47
0.0
 48
0.0
 49
2.5
140
0.25
141
2.5
142
0.0
143
0.03937007874
144
100.0
145
0.0
146
0.5
147
0.1
148
0.0
 69
0
 70
0
 71
0
 72
0
 73
0
 74
0
 75
0
 76
0
 77
1
 78
12
 79
2
 90
2
170
0
171
3
172
1
173
0
174
0
175
0
176
0
177
0
178
0
179
2
271
2
272
2
273
2
274
3
275
0
276
0
277
2
278
46
279
2
280
0
281
0
282
0
283
0
284
8
285
0
286
0
288
1
289
3
290
0
340
4C
371
-2
372
-2
  0
ENDTAB
  0
TABLE
  2
BLOCK_RECORD
  5
9
330
0
100
AcDbSymbolTable
 70
5
  0
BLOCK_RECORD
  5
17
330
9
100
AcDbSymbolTableRecord
100
AcDbBlockTableRecord
  2
*Model_Space
340
1A
 70
0
280
1
281
0
  0
BLOCK_RECORD
  5
1B
330
9
100
AcDbSymbolTableRecord
100
AcDbBlockTableRecord
  2
*Paper_Space
340
1E
 70
0
280
1
281
0
  0
BLOCK_RECORD
  5
74
330
9
100
AcDbSymbolTableRecord
100
AcDbBlockTableRecord
  2
_ARCHTICK
340
0
 70
0
280
1
281
0
  0
BLOCK_RECORD
  5
78
330
9
100
AcDbSymbolTableRecord
100
AcDbBlockTableRecord
  2
_CLOSEDFILLED
340
0
 70
0
280
1
281
0
  0
BLOCK_RECORD
  5
84
330
9
100
AcDbSymbolTableRecord
100
AcDbBlockTableRecord
  2
_CLOSEDBLANK
340
0
 70
0
280
1
281
0
  0
ENDTAB
  0
ENDSEC
  0
SECTION
  2
BLOCKS
  0
BLOCK
  5
18
330
17
100
AcDbEntity
  8
0
100
AcDbBlockBegin
  2
*Model_Space
 70
0
 10
0.0
 20
0.0
 30
0.0
  3
*Model_Space
  1

  0
ENDBLK
  5
19
330
17
100
AcDbEntity
  8
0
100
AcDbBlockEnd
  0
BLOCK
  5
1C
330
1B
100
AcDbEntity
  8
0
100
AcDbBlockBegin
  2
*Paper_Space
 70
0
 10
0.0
 20
0.0
 30
0.0
  3
*Paper_Space
  1

  0
ENDBLK
  5
1D
330
1B
100
AcDbEntity
  8
0
100
AcDbBlockEnd
  0
BLOCK
  5
75
330
74
100
AcDbEntity
  8
0
100
AcDbBlockBegin
  2
_ARCHTICK
 70
0
 10
0.0
 20
0.0
 30
0.0
  3
_ARCHTICK
  1

  0
LWPOLYLINE
  5
77
330
74
100
AcDbEntity
  8
0
  6
BYBLOCK
 62
0
100
AcDbPolyline
 90
2
 70
0
 43
0.15
 10
-0.5
 20
-0.5
 10
0.5
 20
0.5
  0
ENDBLK
  5
76
330
74
100
AcDbEntity
  8
0
100
AcDbBlockEnd
  0
BLOCK
  5
79
330
78
100
AcDbEntity
  8
0
100
AcDbBlockBegin
  2
_CLOSEDFILLED
 70
0
 10
0.0
 20
0.0
 30
0.0
  3
_CLOSEDFILLED
  1

  0
SOLID
  5
7B
330
78
100
AcDbEntity
  8
0
  6
BYBLOCK
 62
0
100
AcDbTrace
 10
-1.0
 20
0.16439898372402537
 30
0.0
 11
0.0
 21
0.0
 31
0.0
 12
-1.0
 22
-0.16439898372402537
 32
0.0
 13
-1.0
 23
-0.16439898372402537
 33
0.0
  0
ENDBLK
  5
7A
330
78
100
AcDbEntity
  8
0
100
AcDbBlockEnd
  0
BLOCK
  5
85
330
84
100
AcDbEntity
  8
0
100
AcDbBlockBegin
  2
_CLOSEDBLANK
 70
0
 10
0.0
 20
0.0
 30
0.0
  3
_CLOSEDBLANK
  1

  0
LWPOLYLINE
  5
87
330
84
100
AcDbEntity
  8
0
  6
BYBLOCK
 62
0
100
AcDbPolyline
 90
3
 70
1
 10
-1.0
 20
0.16439898372402537
 10
0.0
 20
0.0
 10
-1.0
 20
-0.16439898372402537
  0
ENDBLK
  5
86
330
84
100
AcDbEntity
  8
0
100
AcDbBlockEnd
  0
ENDSEC
  0
SECTION
  2
ENTITIES
  0
LWPOLYLINE
  5
90
330
17
100
AcDbEntity
  8
CUT_OUT
100
AcDbPolyline
 90
1468
 70
1
 10
28.213730691877913
 20
3.053849539572724
 10
27.520210691238447
 20
2.0666719002302614
 10
26.64322141971138
 20
1.2381916647804019
 10
25.618219789427997
 20
0.6019045119783186
 10
24.486646891994837
 20
0.18353570255365526
 10
23.29425252401387
 20
0.0
 10
22.08924551050029
 20
0.058717802137067565
 10
20.920344609120775
 20
0.35731513243115387
 10
19.83480879771679
 20
0.883719620504877
 10
18.87652658111955
 20
1.6166485913186648
 10
18.084241567094864
 20
2.526469529446871
 10
17.489986051860228
 20
3.576398129646833
 10
17.117785945733317
 20
4.723985496213658
 10
16.79086092292846
 20
6.236135665213112
 10
16.778174793243124
 20
6.2963049045886805
 10
16.76338633362934
 20
6.368270188409724
 10
16.74883238629411
 20
6.441395755950282
 10
15.88772491243924
 20
10.91293428105024
 10
15.869490194430568
 20
11.012103530051348
 10
15.703519041439904
 20
11.959421643723118
 10
15.676994338374698
 20
12.109543873358774
 10
15.177417126443515
 20
14.910746754818149
 10
14.880077581127637
 20
16.570626928291546
 10
14.868890978788556
 20
16.635099077996728
 10
14.452900288421915
 20
19.112727786124225
 10
13.839350085961883
 20
22.77453057606263
 10
13.832020743101054
 20
22.819312109378757
 10
13.707558192646786
 20
23.598232688295525
 10
13.205488235827033
 20
26.759194686585033
 10
13.202121952851542
 20
26.780638749980398
 10
12.86064519389862
 20
28.981914205155846
 10
12.851768368472165
 20
29.041083283959267
 10
12.328092975577192
 20
32.654373949665654
 10
12.322274077302495
 20
32.695527217689914
 10
12.314671500248664
 20
32.75067242724279
 10
12.308312476919127
 20
32.79820054429669
 10
12.27255422921479
 20
33.07383727770588
 10
12.266890955558154
 20
33.11882336344053
 10
11.379372550809705
 20
40.39040911211214
 10
11.368252237036018
 20
40.48817979420562
 10
11.305534695881192
 20
41.08299698241197
 10
11.302806254757797
 20
41.10943509795379
 10
10.61018072902641
 20
47.96962107756701
 10
10.60597934475561
 20
48.01279513221698
 10
10.498527930742569
 20
49.15998483059508
 10
10.49505223025534
 20
49.198423773097204
 10
10.13898076250814
 20
53.282765303222334
 10
10.135463059227106
 20
53.32482457615174
 10
10.012183240105287
 20
54.863974439542545
 10
10.010177489499313
 20
54.88971185109267
 10
9.578908640589134
 20
60.58172771113786
 10
9.576051333973624
 20
60.6211637076845
 10
9.499032268880399
 20
61.73507665357147
 10
9.496933346994297
 20
61.76664203865781
 10
9.40406871455184
 20
63.22113000413793
 10
9.379004529011468
 20
63.592776873837096
 10
8.96309453410288
 20
69.40842407381328
 10
8.96199809140029
 20
69.42404192737092
 10
8.562564358834607
 20
75.22189050013992
 10
8.559001858728607
 20
75.27734471842521
 10
8.501240198079131
 20
76.24660263444471
 10
8.499504136153007
 20
76.27703593094259
 10
8.454157759164502
 20
77.10913017451384
 10
8.450847922709215
 20
77.1664940931719
 10
8.41631408072908
 20
77.7335304062617
 10
8.412588073958887
 20
77.79161446727451
 10
8.128989152190343
 20
81.99956032791485
 10
8.127225792287902
 20
82.02663688909198
 10
8.018203330522681
 20
83.76115707629273
 10
8.01470899777894
 20
83.82162438888759
 10
7.7773846482299405
 20
88.32271247381826
 10
7.771272888331566
 20
88.42709265892708
 10
7.7053328763246896
 20
89.45126480810492
 10
7.697963067539547
 20
89.55616916696349
 10
7.3219598564220405
 20
94.49536565556627
 10
7.317248604566487
 20
94.56217786468733
 10
6.912820221064123
 20
100.7930015798427
 10
6.891602225399367
 20
101.10541112509117
 10
6.749031343493925
 20
103.10434465292605
 10
6.748553190801829
 20
103.11110241514936
 10
6.534116502862219
 20
106.16624740699405
 10
6.532972088609711
 20
106.18288317040094
 10
6.167428765860905
 20
111.60666625807431
 10
5.86499440054655
 20
116.09194177319162
 10
5.860095847368939
 20
116.1638394147948
 10
5.567818253199562
 20
120.40448402029257
 10
5.567011057179286
 20
120.41636753548681
 10
5.259837123394561
 20
125.00594364786744
 10
5.259395531044902
 20
125.01259709460692
 10
4.9849252988864805
 20
129.1830936130392
 10
4.983652420702697
 20
129.20293632190493
 10
4.729435590712569
 20
133.2713946392725
 10
4.722387857180934
 20
133.3822724940744
 10
4.414429716082452
 20
138.1361333238849
 10
4.413501749321426
 20
138.1507339961804
 10
4.123397250767539
 20
142.80488415244702
 10
4.122740655064263
 20
142.8155715014858
 10
3.889212006872299
 20
146.6729279244804
 10
3.6241228115296735
 20
151.10733956578702
 10
3.4022269030689927
 20
154.85873376618747
 10
3.4007873082377955
 20
154.88397384599898
 10
3.267915401577852
 20
157.30322674474723
 10
3.2583033196395377
 20
157.47315562033893
 10
2.9480523228480138
 20
162.78312547203382
 10
2.946812132401874
 20
162.8050397310989
 10
2.8963810675309674
 20
163.72601929551854
 10
2.893080030408669
 20
163.79319834869074
 10
2.7417557218334423
 20
167.27025474754822
 10
2.7378694229655025
 20
167.351167698612
 10
2.695891215030258
 20
168.1501077925415
 10
2.691217505554391
 20
168.2319447655982
 10
2.456351885611241
 20
172.0397529613769
 10
2.4527073125620404
 20
172.10454122091403
 10
2.240818532767946
 20
176.27307708351321
 10
2.2291108523202183
 20
176.49430339068232
 10
2.1923594523574366
 20
177.15887495915376
 10
2.191763088534742
 20
177.1698409655315
 10
2.1544021320170827
 20
177.86863233562374
 10
2.153720677118656
 20
177.88164307143444
 10
1.9707509095438809
 20
181.44915903063796
 10
1.9704433479770955
 20
181.45521565303886
 10
1.8044789116437414
 20
184.7563889965164
 10
1.8026392735992545
 20
184.79552909104615
 10
1.7330293532934888
 20
186.38736376573218
 10
1.732274559631378
 20
186.40523460656095
 10
1.6870070694117203
 20
187.51628642791997
 10
1.6855722522295764
 20
187.5544955561989
 10
1.6758893604725245
 20
187.83629264448814
 10
1.6748294004208333
 20
187.86988055305386
 10
1.6225750978574638
 20
189.6871150362155
 10
1.6140583277614837
 20
189.95868055052227
 10
1.5900062719186394
 20
190.66061249169667
 10
1.5882172876965228
 20
190.7219998598647
 10
1.5259998505367776
 20
193.3121147692128
 10
1.525380254079721
 20
193.34075672785298
 10
1.482311244231994
 20
195.57879544531818
 10
1.48130276196963
 20
195.6250260830482
 10
1.4702398706536997
 20
196.0787112758406
 10
1.4689861881398087
 20
196.12519620607583
 10
1.4075051230191775
 20
198.20541052448127
 10
1.4069987798479247
 20
198.2234626336272
 10
1.316121898418146
 20
201.64723375939263
 10
1.3154168117737868
 20
201.6764869754046
 10
1.2713544400117485
 20
203.71046787644983
 10
1.2697780926504834
 20
203.78108567424206
 10
1.2185120957676645
 20
206.00107482372496
 10
1.2150830210217691
 20
206.14127189826294
 10
1.0812027216733213
 20
211.29242398578555
 10
1.0809675239939338
 20
211.3017527069888
 10
0.9341570707872506
 20
217.3101799039453
 10
0.8798914154468207
 20
219.5733322151068
 10
0.8099632493477884
 20
222.43388330342958
 10
0.809734186448793
 20
222.44357398140704
 10
0.6742714613171756
 20
228.37731441555246
 10
0.6738997375804274
 20
228.39470153148463
 10
0.5976888306266801
 20
232.21874819702947
 10
0.5927340447273082
 20
232.44289286683696
 10
0.4641026212756856
 20
237.68227720752773
 10
0.46375841281053454
 20
237.69703756190083
 10
0.3883597499097391
 20
241.11047193003154
 10
0.3874909161273763
 20
241.15852030279024
 10
0.3460894387870894
 20
244.09964631620446
 10
0.34507638472211966
 20
244.1581153830185
 10
0.3332175377727822
 20
244.73445140227784
 10
0.3318087166663872
 20
244.79349859987596
 10
0.24313413622530788
 20
248.060473756429
 10
0.24196910107997383
 20
248.11135040881635
 10
0.20389280199088944
 20
250.15226069967613
 10
0.20373819954215833
 20
250.16087943857465
 10
0.13050791605525092
 20
254.41366291911183
 10
0.10481148367523474
 20
255.83222894353744
 10
0.10425977512875306
 20
255.86886193277718
 10
0.0867178526079897
 20
257.32986483449224
 10
0.08496120980504429
 20
257.4625807037898
 10
0.03708728271124073
 20
260.7231025164329
 10
0.03671859028003155
 20
260.75343652965574
 10
0.004926601536453745
 20
264.0561234968569
 10
0.0047432645420713015
 20
264.0801796526876
 10
0.0034545902608442702
 20
264.30962886292303
 10
0.00336787973878927
 20
264.3530745150146
 10
0.0038064477145667297
 20
264.62302042336125
 10
0.0038715483894975478
 20
264.79785832599873
 10
0.0
 20
267.32558601884205
 10
0.000457107822683156
 20
267.4094050870561
 10
0.02808736277506796
 20
269.63063365174634
 10
0.029385398547674413
 20
269.74290177639944
 10
0.03510876281086439
 20
270.29586100263333
 10
0.0355901407497754
 20
270.33190609480516
 10
0.05014817309961472
 20
271.22178437978033
 10
0.05051380705697284
 20
271.2420427368496
 10
0.10077166674977889
 20
273.78834000748213
 10
0.10117090737236367
 20
273.8070831970154
 10
0.14026066732924392
 20
275.5167757399813
 10
0.14513908765150063
 20
275.7539437173006
 10
0.1962253351745744
 20
278.59383048823906
 10
0.2840074976814435
 20
283.27929442039965
 10
0.2841736336119425
 20
283.2878371482941
 10
0.29886295689152576
 20
284.01647595435827
 10
0.3017657380977994
 20
284.1720961942125
 10
0.3133845046128272
 20
284.8565821115001
 10
0.4180330349424821
 20
290.72105801537896
 10
0.4181588969503309
 20
290.72789287254295
 10
0.5450189845962541
 20
297.41015884535153
 10
0.5467132205567964
 20
297.50390158535475
 10
0.5551469163967795
 20
297.9982628262235
 10
0.5553550816342181
 20
298.0098129648346
 10
0.5665604819877217
 20
298.6000136622513
 10
0.5668103760288545
 20
298.6124920098672
 10
0.7123744890188846
 20
305.5221625513507
 10
0.7129403211550311
 20
305.54664818988715
 10
0.8250426149082273
 20
310.00382921258273
 10
0.8292869970495076
 20
310.1852585917975
 10
0.9027104409797175
 20
313.6137091938334
 10
0.903550365997603
 20
313.6482756768695
 10
1.0563773413854847
 20
319.2706075667548
 10
1.0584122654663588
 20
319.3333747957437
 10
1.1062694456591657
 20
320.60414500985263
 10
1.1164032695153878
 20
320.893263755686
 10
1.1610902923268327
 20
322.2929338635329
 10
1.1630593665406082
 20
322.3469724267319
 10
1.3973979330645534
 20
328.0693460117603
 10
1.3995923070032177
 20
328.1180834652082
 10
1.5838392494785012
 20
331.87064522392893
 10
1.5871960351598773
 20
331.93990701398974
 10
1.8136964660043304
 20
336.68768869903465
 10
1.8153395262527852
 20
336.7202686861843
 10
2.2132647669824905
 20
344.20607089420275
 10
2.2715760589932756
 20
345.30686972031725
 10
2.2721625337799196
 20
345.3177540016935
 10
2.315382508472908
 20
346.1065296226415
 10
2.3158045499753257
 20
346.1141434209025
 10
2.7361651270367133
 20
353.6114021264565
 10
3.1231581613807293
 20
360.5634831929921
 10
3.127841655510508
 20
360.64890035097665
 10
3.1732139880896852
 20
361.49070848955864
 10
3.1857103725951106
 20
361.7332344249001
 10
3.22656541337858
 20
362.5685301357323
 10
3.2271300717162035
 20
362.5798554384081
 10
3.515733705921548
 20
368.2604182436736
 10
3.521989993786235
 20
368.3866161490489
 10
3.7127947736480564
 20
372.34575692446043
 10
3.7204262489930784
 20
372.5095473593191
 10
3.7909894175696195
 20
374.0843341054047
 10
3.7913170600753574
 20
374.091549124773
 10
3.879750516642389
 20
376.0134179625978
 10
3.880472609790445
 20
376.0286871305989
 10
3.9897470934647004
 20
378.2786282066729
 10
3.9915566897793155
 20
378.31376142527046
 10
4.080392790268888
 20
379.9453806655699
 10
4.1562031117490505
 20
381.36259074191315
 10
4.162649915740701
 20
381.4662727448344
 10
4.249532853480275
 20
382.69215246978627
 10
4.266198632826047
 20
382.9332966180371
 10
4.357053587716223
 20
384.2998387790052
 10
4.361929251809784
 20
384.3674081634775
 10
4.491241976386107
 20
386.0287757413481
 10
4.494622090593566
 20
386.0703352774451
 10
4.551764586341164
 20
386.74394254157835
 10
4.558377400680342
 20
386.8166420377787
 10
4.610875075176693
 20
387.3573084780645
 10
4.662407993280965
 20
387.9155414960788
 10
4.6669527469845775
 20
387.96652268330274
 10
4.8619436692216595
 20
390.2276218009225
 10
4.865855967856135
 20
390.2711370515792
 10
5.0640243214922975
 20
392.38881958416664
 10
5.066935760761339
 20
392.4191041424614
 10
5.146354982069511
 20
393.2237934395257
 10
5.171015838410597
 20
393.48002787648386
 10
5.377170495287032
 20
395.68665611962206
 10
5.378671770914366
 20
395.70249853615826
 10
5.507821990791399
 20
397.04639609525077
 10
5.5126138325532
 20
397.0942441193504
 10
5.548532648258345
 20
397.43896685513016
 10
5.555663060546635
 20
397.5101423335899
 10
5.628197064694518
 20
398.26438155490735
 10
5.639167020445939
 20
398.3788771268165
 10
5.648672542081101
 20
398.4706501914319
 10
5.95606316215833
 20
401.23113247507507
 10
5.958493156895997
 20
401.25260316558206
 10
6.0514170021681934
 20
402.0606268763881
 10
6.063171720780872
 20
402.15609227090715
 10
6.125138746891935
 20
402.62812837157594
 10
6.132724101656152
 20
402.6874359697073
 10
6.2453028322517525
 20
403.59150923561526
 10
6.251426566535429
 20
403.63913169118564
 10
6.670782397510436
 20
406.80029468838745
 10
6.676889421464068
 20
406.8450380462991
 10
7.223218293279444
 20
410.73833922887127
 10
7.230017690477382
 20
410.7877898462601
 10
7.295535603595454
 20
411.27428155774885
 10
7.3021095206956375
 20
411.32414806541624
 10
7.445564954269059
 20
412.4363052832356
 10
7.448540187006074
 20
412.4590290368477
 10
7.582210510596326
 20
413.4650255087454
 10
7.588068665812216
 20
413.5079275035867
 10
8.142772951115148
 20
417.46374788238893
 10
8.176975037999341
 20
417.7119983603219
 10
8.802388496987646
 20
422.3449702139842
 10
8.808237072500901
 20
422.3871652421013
 10
8.857819505234431
 20
422.73577745889463
 10
8.883365892312042
 20
422.9158272059028
 10
8.890565084439174
 20
422.9676509720514
 10
8.95829557903329
 20
423.465835857413
 10
8.965095360597104
 20
423.51694736862027
 10
9.032114687366175
 20
424.03198932977205
 10
9.034012199407641
 20
424.0464345812893
 10
9.743452494309565
 20
429.39689956549535
 10
9.89081328688502
 20
430.5107031071767
 10
9.90243672307713
 20
430.6021572788882
 10
10.011269761980998
 20
431.4950028085533
 10
10.021954196263266
 20
431.586556881014
 10
10.090771612211995
 20
432.20368020011233
 10
10.098430243938992
 20
432.2690974178601
 10
10.419262197352737
 20
434.88511848659715
 10
10.423628416707118
 20
434.91987979644625
 10
10.642173255702232
 20
436.6196598959035
 10
10.649254636796172
 20
436.6728549538293
 10
10.735893032208878
 20
437.30215114429546
 10
10.742120646441037
 20
437.34826736692537
 10
10.806055258970844
 20
437.83111991906617
 10
10.812462740877322
 20
437.8805630873685
 10
11.247647196387504
 20
441.3132253133323
 10
11.255081783851665
 20
441.36971697430374
 10
11.745032127174511
 20
444.96071238692775
 10
11.751113116782676
 20
445.0040986621793
 10
11.805344432146342
 20
445.38100915105065
 10
11.80675983841644
 20
445.39078915932186
 10
11.908702676511439
 20
446.0911129887686
 10
11.924952193332615
 20
446.20361153617625
 10
12.45549883671174
 20
449.9091599119956
 10
12.458859206897671
 20
449.93230836846635
 10
12.868483869224121
 20
452.7158984999033
 10
12.87146943146439
 20
452.735951511811
 10
13.048648577411086
 20
453.91235493222746
 10
13.053147004740026
 20
453.9417287047994
 10
13.251095182302436
 20
455.21323753208026
 10
13.30287008672775
 20
455.55318385203634
 10
13.717717462443204
 20
458.3469880276972
 10
13.721573440693078
 20
458.37257632419914
 10
14.170956402510228
 20
461.3116568364468
 10
14.180614712416173
 20
461.37271756245195
 10
14.18759545566428
 20
461.4154235812656
 10
14.21281620049217
 20
461.5587726369855
 10
14.234571483813681
 20
461.6742025844624
 10
14.256700502464867
 20
461.79622892252235
 10
14.464427458270507
 20
462.98842759948855
 10
14.484872932221947
 20
463.11074727591927
 10
15.000066222072235
 20
466.3292263769051
 10
15.011745808687067
 20
466.3995137072425
 10
15.383716316628295
 20
468.55865776751057
 10
15.425268448574343
 20
468.77584996422934
 10
15.563417076148085
 20
469.43217551525504
 10
15.57037841590909
 20
469.4647977395199
 10
16.15625465145564
 20
472.17341829089673
 10
16.238505367120013
 20
472.5607791771238
 10
16.254028522386875
 20
472.6350294011954
 10
16.303107610031873
 20
472.8499869977645
 10
16.532161893038563
 20
473.7745752053046
 10
16.58812203979727
 20
473.98415417366925
 10
17.139718010401623
 20
475.909614063465
 10
17.143742435191314
 20
475.9235980773273
 10
17.304076249848038
 20
476.4781924427733
 10
17.375978799903976
 20
476.7093227105851
 10
18.667544588011424
 20
480.5837245276179
 10
18.673496740065502
 20
480.60148714761624
 10
19.8933782687605
 20
484.2231235828516
 10
19.949865732315345
 20
484.39175641479983
 10
20.058744796026872
 20
484.71877298243146
 10
20.120595631265076
 20
484.89531042427484
 10
20.435322668091374
 20
485.7506509054907
 10
20.44440890824842
 20
485.7751796600037
 10
23.29430375421441
 20
493.4174287408754
 10
23.375291075788084
 20
493.6229639320776
 10
25.925195601284713
 20
499.7605328837071
 10
26.04741492531582
 20
500.0572438895771
 10
26.884082874019953
 20
502.1079675647513
 10
26.995569372843022
 20
502.36402235062843
 10
27.85043095188854
 20
504.20887487309034
 10
27.86664038658415
 20
504.24356538540434
 10
30.032761052412525
 20
508.84106569797586
 10
30.21659817216272
 20
509.19952196728383
 10
32.35744500831197
 20
513.0497857062196
 10
32.46488074846786
 20
513.243963104211
 10
33.18698929792453
 20
514.5562811881779
 10
33.37328269431566
 20
514.8716489179503
 10
33.90770811415945
 20
515.7163652766076
 10
33.917676848261294
 20
515.7320680021022
 10
35.98586725999127
 20
518.9787439539751
 10
36.16095858389099
 20
519.2383929837858
 10
37.86635485464245
 20
521.6302643437174
 10
37.935459166277724
 20
521.7274164082351
 10
38.57714454019316
 20
522.6319413785137
 10
38.73393046167212
 20
522.8429925011058
 10
39.04194158547182
 20
523.2391721578199
 10
39.04915020252827
 20
523.248425569039
 10
40.55379063183784
 20
525.1759824549536
 10
40.66245831139963
 20
525.3111213313416
 10
41.428406537265914
 20
526.2359609180392
 10
41.46626630250557
 20
526.2810033816565
 10
42.06025666303532
 20
527.0507426189934
 10
42.927276036623425
 20
527.959185238901
 10
45.58750027802125
 20
530.2175835432722
 10
46.86387629965071
 20
531.5493608474828
 10
48.198717737354684
 20
533.2642955104195
 10
49.19463857210417
 20
534.2715801922621
 10
49.28203488312573
 20
534.3412127834252
 10
49.43519337720204
 20
534.4592569834421
 10
51.021749500295755
 20
535.6418088428303
 10
51.06467310924677
 20
535.6735063656972
 10
51.33545153877793
 20
535.8716118203492
 10
51.56650514044463
 20
536.032469931843
 10
52.54786704857753
 20
536.6820451763176
 10
52.588087497957986
 20
536.708823123671
 10
52.99403116706759
 20
536.9806676297369
 10
53.03410727182984
 20
537.0076611259623
 10
55.2020334570243
 20
538.4763557169845
 10
55.47438172388411
 20
538.6503489405345
 10
58.218343283989384
 20
540.3010259066062
 10
58.2743506805154
 20
540.3343053509458
 10
59.11366831945713
 20
540.8268798296372
 10
59.44706650532322
 20
541.0086114946744
 10
60.92818362748591
 20
541.7561619209212
 10
60.9772373964218
 20
541.7811088454976
 10
61.47244963944274
 20
542.0348640167513
 10
61.52134994725628
 20
542.0601104261864
 10
64.93041332649267
 20
543.8333746615137
 10
65.31345272842367
 20
544.0157123427417
 10
69.33502000092611
 20
545.7584868759941
 10
69.40719889015233
 20
545.7892072316807
 10
71.05881694366192
 20
546.4794418544788
 10
71.35444178525202
 20
546.5939109811236
 10
73.47469914334934
 20
547.3511171684517
 10
73.53109871725627
 20
547.3714712015451
 10
74.10066915623406
 20
547.5791703889631
 10
74.15693187608957
 20
547.599899714952
 10
79.97991649588687
 20
549.7673660215595
 10
80.22401129682424
 20
549.8522852302237
 10
86.39562619948538
 20
551.8514239503779
 10
86.45158412777005
 20
551.8692479891502
 10
88.94836409720301
 20
552.6510983817624
 10
89.15700741290695
 20
552.7123051667286
 10
91.09740746719635
 20
553.243543916063
 10
91.56736994286177
 20
553.3745379199287
 10
92.33021884701921
 20
553.5912632279797
 10
92.38364827529344
 20
553.6061759519528
 10
97.8153634621294
 20
555.0951953972851
 10
97.86120980156252
 20
555.107568603252
 10
98.72539800471367
 20
555.3371344202458
 10
98.93325172124551
 20
555.3883976542133
 10
99.83227138606853
 20
555.5931816578967
 10
99.87757284671693
 20
555.6036250374473
 10
100.3199851191061
 20
555.7068204343193
 10
100.36529485433152
 20
555.7175128478698
 10
109.44710906839745
 20
557.8854959454331
 10
109.62001226260318
 20
557.9240820170887
 10
119.3312999729803
 20
559.9412785589091
 10
119.3880151886141
 20
559.9527742352338
 10
119.89805017793483
 20
560.0535956910369
 10
120.02192486293777
 20
560.0767337230361
 10
120.70456506049132
 20
560.1968365316225
 10
121.05509161103575
 20
560.25976001701
 10
131.8522858993394
 20
562.2413089876575
 10
131.96592206299033
 20
562.2610369556724
 10
144.03841878813583
 20
564.2375637288387
 10
144.10163272308282
 20
564.2475673225177
 10
144.36869661870276
 20
564.2883713221622
 10
144.39383309180005
 20
564.2921573857288
 10
157.47904872865496
 20
566.2347180068668
 10
157.55737814998184
 20
566.2458190937909
 10
171.09002362817108
 20
568.0727819435483
 10
171.16036605283492
 20
568.0818554587445
 10
181.15793681149552
 20
569.3114201849139
 10
185.33891538319776
 20
569.8244705879758
 10
185.40846625354752
 20
569.8325935398047
 10
199.5206165604227
 20
571.3973565475477
 10
199.55078443828862
 20
571.4006243766031
 10
199.8179979686002
 20
571.4288858954972
 10
199.85728859540006
 20
571.432910700489
 10
213.9705751337667
 20
572.8317065501087
 10
214.03931445195963
 20
572.8381203085166
 10
221.11480165053828
 20
573.4572629528149
 10
228.34919093306172
 20
574.0880251353421
 10
228.37860496361628
 20
574.0905168346712
 10
228.62268090785597
 20
574.1105882146685
 10
228.6622153837538
 20
574.1137077977686
 10
243.00899886472882
 20
575.1980865760422
 10
243.08207095709417
 20
575.2031612315468
 10
254.38164127075623
 20
575.9186080241539
 10
254.5072421586459
 20
575.9267109668134
 10
257.927066840953
 20
576.1520484605596
 10
258.0058964116343
 20
576.1567218731652
 10
268.3101654077595
 20
576.6995884505689
 10
273.4181171412231
 20
576.9646550084246
 10
273.46887539050743
 20
576.9670735069292
 10
275.0582638758095
 20
577.0360592444199
 10
275.21915768001537
 20
577.0432775872922
 10
276.8315651558628
 20
577.1184420873376
 10
276.85324146370374
 20
577.1194132806017
 10
286.00691620837824
 20
577.5129545684357
 10
289.85495168075147
 20
577.677817915114
 10
290.4173597817218
 20
577.7014167882026
 10
290.42578501731043
 20
577.7017643485735
 10
291.5977179369506
 20
577.7492843853261
 10
291.61899016167024
 20
577.7501091439013
 10
298.56901467364577
 20
578.0072256729736
 10
298.5757200436995
 20
578.007469984125
 10
303.7692754025392
 20
578.1937901619975
 10
303.78609124214086
 20
578.1943698271594
 10
306.25527904981914
 20
578.2760200059727
 10
306.2678215420502
 20
578.2764216262906
 10
308.8845279718408
 20
578.3574714743795
 10
309.0519049773148
 20
578.3629279937195
 10
312.78713879631306
 20
578.4915235736972
 10
312.79896234186316
 20
578.4919189617768
 10
316.031392258786
 20
578.596823662341
 10
317.3037519521241
 20
578.5023938283553
 10
318.700932331003
 20
578.2472784821491
 10
320.29484181086826
 20
578.101020817918
 10
327.303436647313
 20
578.0841668016251
 10
328.89803111873186
 20
578.2227568664589
 10
330.50726213477276
 20
578.5086004614398
 10
331.75208560154726
 20
578.5978870751186
 10
335.476080607196
 20
578.4764921688829
 10
341.22482066626196
 20
578.2838817649564
 10
341.3296214646944
 20
578.2804773211351
 10
342.2577870816902
 20
578.2513835970215
 10
342.2675993913814
 20
578.2510679905354
 10
343.0721681892088
 20
578.2245306358463
 10
343.085196852868
 20
578.2240867375615
 10
349.94207167987264
 20
577.9830089404857
 10
351.39677717580025
 20
577.9304816350177
 10
351.41298165927947
 20
577.9298745573011
 10
356.97524746503984
 20
577.7139649083722
 10
356.9823549760385
 20
577.7136847977293
 10
359.1725236986176
 20
577.6260688537575
 10
359.179692392362
 20
577.6257777829057
 10
369.78353358128686
 20
577.188878989969
 10
372.6347216876289
 20
577.0708257893422
 10
372.6556427978508
 20
577.0699229780139
 10
373.24481332039716
 20
577.0434683027853
 10
373.4009847880309
 20
577.0366859619421
 10
373.9150701372117
 20
577.0152234226091
 10
373.96495578368206
 20
577.0129327479406
 10
376.2144176284926
 20
576.9002580193121
 10
390.107963105388
 20
576.1945891845169
 10
390.18281458594294
 20
576.1903183663818
 10
394.3818042298324
 20
575.9244060272126
 10
394.4631598464492
 20
575.9193113637912
 10
405.56153565786593
 20
575.2342229097351
 10
405.6368354621938
 20
575.2290991534155
 10
420.22334688932307
 20
574.1443558068707
 10
420.25725473589443
 20
574.141737560102
 10
420.67292626277344
 20
574.1084555125402
 10
420.7128783096055
 20
574.1051222579408
 10
428.86003628004545
 20
573.397977447794
 10
434.97611643504666
 20
572.8650890432784
 10
435.0473940133507
 20
572.8584500246357
 10
449.23185214877867
 20
571.4518642311109
 10
449.26771832732516
 20
571.4481987524885
 10
449.53856841881486
 20
571.4196957097085
 10
449.57200792399846
 20
571.4160818946611
 10
463.73015928824395
 20
569.8458482303465
 10
463.7949481807906
 20
569.8383059946035
 10
467.69517591119313
 20
569.36276976246
 10
477.55712642884043
 20
568.1577204625762
 10
477.6203502112289
 20
568.14965399056
 10
491.0731265305283
 20
566.3606016461504
 10
491.1439890999994
 20
566.3507474975307
 10
503.37692911719057
 20
564.5752282927259
 10
503.6660834788769
 20
564.5333949716303
 10
503.74771370015924
 20
564.5210111584138
 10
514.2465389506256
 20
562.8542968764318
 10
514.3178892549756
 20
562.8425286034438
 10
523.4621763783427
 20
561.2776397786802
 10
523.5145095180146
 20
561.2688425813757
 10
524.0295392757592
 20
561.1838266590757
 10
524.0823368158842
 20
561.1752724548684
 10
524.3594665524595
 20
561.1312168644508
 10
524.492767001884
 20
561.1084830046248
 10
532.2909924027488
 20
559.6879145700643
 10
532.3209532053316
 20
559.6823781108124
 10
534.1932429303538
 20
559.3314791306034
 10
534.2141230316704
 20
559.3275275559988
 10
538.3384112787112
 20
558.5394351434802
 10
538.4318514891945
 20
558.5208098723245
 10
538.7036890534639
 20
558.4643772361624
 10
538.7235758979152
 20
558.4602136535525
 10
540.2119793245686
 20
558.1459645403344
 10
540.58259472498
 20
558.0691391724819
 10
544.0732083286682
 20
557.3605178867865
 10
544.2291536619977
 20
557.3266945938689
 10
547.6218563190231
 20
556.5434666518247
 10
547.8024495969847
 20
556.4988156711956
 10
550.5576010148096
 20
555.7721123504148
 10
550.596300561872
 20
555.7617665959763
 10
551.8895180785514
 20
555.4114141967863
 10
552.0447513747883
 20
555.3671091456238
 10
555.3111020582967
 20
554.3871537406924
 10
555.3339841971397
 20
554.3802390334241
 10
559.6832088841106
 20
553.0564950713072
 10
559.8275857766864
 20
553.0127750084491
 10
560.3200456695365
 20
552.8644906605521
 10
560.4783555931505
 20
552.8144227478479
 10
561.377684662883
 20
552.516246543925
 10
561.4028971454067
 20
552.5078252086009
 10
569.0758424075688
 20
549.9260430975828
 10
569.2887426730025
 20
549.8499117989303
 10
575.32096117163
 20
547.5637576683836
 10
575.6992098862819
 20
547.4220504794826
 10
577.6412919572874
 20
546.7037983141464
 10
577.9115505014443
 20
546.5963312256456
 10
579.6053739216969
 20
545.8747688589153
 10
579.6580623554148
 20
545.852025476665
 10
583.8419400043852
 20
544.022235267413
 10
584.2377452187649
 20
543.8315772586918
 10
587.6117390265226
 20
542.0513112999757
 10
587.9907716155742
 20
541.8532693959528
 10
589.398368513168
 20
541.125761504017
 10
589.7409376521925
 20
540.9342581127328
 10
590.5547162597968
 20
540.4437366245161
 10
590.5892850517862
 20
540.4227404172065
 10
593.4568691010022
 20
538.667784824509
 10
593.7330366164338
 20
538.4881673185293
 10
595.83395456132
 20
537.0381447039103
 10
596.0544011214536
 20
536.8868160381733
 10
597.1144105271928
 20
536.1635020358615
 10
597.3387988711729
 20
536.0026988577602
 10
597.7603605377565
 20
535.6856671262296
 10
597.7797963365674
 20
535.6709887524588
 10
599.5311194056627
 20
534.3427577061298
 10
599.6686570183408
 20
534.2352599377489
 10
600.5599799325142
 20
533.5174833273552
 10
600.6373515440871
 20
533.4553887157465
 10
600.7088562470128
 20
533.3970931477153
 10
600.7319068508818
 20
533.378003833029
 10
600.7525245012557
 20
533.3652218435966
 10
601.0127885942413
 20
533.1671344910637
 10
601.5895675557376
 20
532.6671262269242
 10
601.6633739690403
 20
532.5944217868378
 10
602.0830196563882
 20
532.1358430043605
 10
603.5255440200383
 20
530.385445407193
 10
604.8391465503258
 20
529.0892499886113
 10
606.5241260965074
 20
527.7379717170274
 10
607.1544866913893
 20
527.1535164194797
 10
607.3593795692815
 20
526.934227076922
 10
607.6023430954889
 20
526.6576495324034
 10
607.8797768999655
 20
526.3215754424747
 10
607.9330135181829
 20
526.257086372543
 10
608.7580332352128
 20
525.2600001532799
 10
608.8663867350906
 20
525.1251361152122
 10
610.3254698246978
 20
523.2544553746699
 10
610.3307654835291
 20
523.2476557811276
 10
610.6616064895823
 20
522.8222280218038
 10
610.8243197888971
 20
522.6028694250156
 10
611.4645002736781
 20
521.6974609242908
 10
611.537524891309
 20
521.5944430194593
 10
613.2006489936244
 20
519.2548324574207
 10
613.3786127910779
 20
518.9898243365865
 10
615.4087157770196
 20
515.7857839993139
 10
615.4208689348624
 20
515.7665223332347
 10
615.9711756132219
 20
514.8906564549352
 10
616.1589098256734
 20
514.5702590618521
 10
616.8832293275481
 20
513.2414587560788
 10
617.0153613385392
 20
513.0005475819332
 10
619.2118815779716
 20
509.0230533215718
 10
619.3934795078102
 20
508.66662890560235
 10
621.609738068232
 20
503.9329489038653
 10
621.6275853269688
 20
503.89447565204944
 10
622.4594314051346
 20
502.08453932498696
 10
622.5830176909441
 20
501.7959751805653
 10
623.4088032870762
 20
499.71933608433324
 10
623.4643027658701
 20
499.5803432654544
 10
626.0124626527939
 20
493.2278883953802
 10
626.1191623510607
 20
492.9409074191
 10
629.0847167259909
 20
484.29554721138334
 10
629.1190732436887
 20
484.1957131495577
 10
629.4613684222979
 20
483.2046363787965
 10
629.5457149179543
 20
482.9408410824747
 10
629.5647134277657
 20
482.8763263039767
 10
629.5768878005147
 20
482.8344230987695
 10
631.0661884064655
 20
477.6379157644961
 10
631.0701247204154
 20
477.6241188084358
 10
632.3933135134318
 20
472.9651766787338
 10
632.4756994884264
 20
472.6409637549345
 10
633.6898802845319
 20
467.2357552869038
 10
633.73177420827
 20
467.0329486653584
 10
634.5251931568249
 20
462.8269149614948
 10
634.5513716758321
 20
462.67784000302845
 10
634.614323824361
 20
462.2907569764401
 10
634.6482953582602
 20
462.08451828065694
 10
636.2355198247471
 20
452.58382088526776
 10
636.2509678405975
 20
452.49186800348724
 10
636.7231418491713
 20
449.6986893534681
 10
636.737143995823
 20
449.6120037642785
 10
638.226662983416
 20
439.941578021532
 10
638.2291093381573
 20
439.92555164259295
 10
638.8345418724894
 20
435.9230441421988
 10
638.8362958103667
 20
435.91137124528825
 10
640.0551612059428
 20
427.7448548665292
 10
640.0630806659086
 20
427.69006355410437
 10
640.1140135094176
 20
427.32582024026715
 10
640.1180655891869
 20
427.2963080356567
 10
640.2050621496503
 20
426.65080589010876
 10
640.25449387411
 20
426.2933289266699
 10
641.9589454999061
 20
414.3149117779643
 10
641.967530338798
 20
414.2522106877651
 10
643.4507846265166
 20
402.9768260056476
 10
643.4662452296334
 20
402.8486474293403
 10
643.4788760098836
 20
402.733524619405
 10
644.5577191052844
 20
393.0867735192676
 10
644.5689523945514
 20
392.97723747142084
 10
645.293075615677
 20
385.21511231553166
 10
645.301402791288
 20
385.11718467499884
 10
645.8824151344429
 20
377.55094664601984
 10
645.8876639204007
 20
377.4765382321697
 10
646.179595020926
 20
372.9361000148864
 10
646.1952557557499
 20
372.7006676367035
 10
646.3565683708421
 20
370.36595678233647
 10
646.8456087654445
 20
363.3469706855958
 10
646.8479593552203
 20
363.3117388249804
 10
647.3020102160988
 20
356.1907892241574
 10
647.4653492676897
 20
353.665137475988
 10
647.4806127594381
 20
353.43703040933065
 10
647.8039094827215
 20
348.7797362405538
 10
647.8073928737821
 20
348.72607623822927
 10
648.2470921295023
 20
341.4483681474613
 10
648.2477686606471
 20
341.43699100928563
 10
648.2678933644692
 20
341.09304373057154
 10
648.2715199876878
 20
341.02430132466293
 10
648.2935002991696
 20
340.55669372223485
 10
648.6942735693522
 20
332.08710701375213
 10
648.6976744725337
 20
332.0026343967309
 10
649.0255488408259
 20
322.1286077471958
 10
649.0258354922194
 20
322.11977924265483
 10
649.0479067583838
 20
321.42422682402224
 10
649.0499121421001
 20
321.3441854308082
 10
649.0706422178381
 20
320.2162576098185
 10
649.0721322589715
 20
320.13682832116973
 10
649.3057341725137
 20
308.2394756948122
 10
649.3064958756552
 20
308.1904958262494
 10
649.4428604000366
 20
296.30007961937565
 10
649.442981413308
 20
296.28856401886304
 10
649.465951552267
 20
293.88302530092346
 10
649.4661726105916
 20
293.85082612401203
 10
649.4802255338788
 20
290.49043124600763
 10
649.5391847547849
 20
278.9035202578545
 10
649.5392623956463
 20
278.8736295835175
 10
649.5400349778747
 20
271.6253342701459
 10
649.5417977034751
 20
264.33420317818593
 10
649.5417711679697
 20
264.3148492618758
 10
649.5192567783065
 20
256.76956730610186
 10
649.5190866257819
 20
256.73886692266996
 10
649.4875623857492
 20
252.8474111476575
 10
649.4865898229584
 20
252.70239888074403
 10
649.4674385287101
 20
248.96595558509455
 10
649.4671351023337
 20
248.92898314528534
 10
649.3928943447685
 20
242.3521754071055
 10
649.3927145085952
 20
242.3377753091058
 10
649.301390773971
 20
235.66637765012635
 10
649.2358703890741
 20
230.54898971840404
 10
649.2353552514337
 20
230.51588906613438
 10
649.100833366218
 20
223.17390629357382
 10
649.0245448000798
 20
218.8248402937559
 10
649.0238471809737
 20
218.7906326023043
 10
648.9362931906028
 20
215.02425885589352
 10
648.935984811136
 20
215.01157068618798
 10
648.7376768487611
 20
207.19271941187753
 10
648.7363664274311
 20
207.14771491145643
 10
648.4689188499822
 20
199.01196813876908
 10
648.4650754099619
 20
198.8907594365944
 10
648.3458644117347
 20
194.96742883242604
 10
648.3441289906084
 20
194.91723566680685
 10
648.18276248769
 20
190.7546316292961
 10
648.1822080218752
 20
190.74074420852963
 10
647.8441988731734
 20
182.51384831432864
 10
647.842401194865
 20
182.4734187982443
 10
647.4725251529125
 20
174.74256699752726
 10
647.4669093009624
 20
174.62227356512872
 10
647.2539033420035
 20
169.92717689538887
 10
647.2523693800777
 20
169.89524441643377
 10
646.973723851108
 20
164.40017465593942
 10
646.9728617318599
 20
164.38362501720047
 10
646.6423740378634
 20
158.20371937912975
 10
646.6403719095113
 20
158.1682503318441
 10
646.4184985522068
 20
154.43411502999044
 10
646.4045952588067
 20
154.1904486026334
 10
646.044191492964
 20
147.56403184893315
 10
646.0422181036713
 20
147.52957654432103
 10
645.927771434735
 20
145.6271984514887
 10
645.9242920458778
 20
145.57339639780147
 10
645.628587250555
 20
141.29916828627125
 10
645.5977776412476
 20
140.82192525610745
 10
645.3780145695239
 20
137.11917997549
 10
645.3729891708506
 20
137.04275813244493
 10
645.2694503163582
 20
135.60813230448167
 10
644.8235135918801
 20
129.45983448597786
 10
644.8180776883964
 20
129.38411293492715
 10
644.6438086788717
 20
126.9280831449316
 10
644.6430004909387
 20
126.91684262205266
 10
644.3683834527737
 20
123.14688547038948
 10
643.9533680670813
 20
117.42207821727203
 10
643.5717517176673
 20
112.16331714243776
 10
643.2344601733105
 20
107.57434311966293
 10
642.9008784866946
 20
102.96566234780224
 10
642.4997582661342
 20
97.41740411600199
 10
642.0783416324955
 20
91.54182234398988
 10
642.0713402528638
 20
91.44286611622724
 10
641.7884038717248
 20
87.38142977680883
 10
641.5400712390889
 20
83.79416431920063
 10
641.5384805616211
 20
83.77179328343644
 10
641.1145456933531
 20
77.96311281202719
 10
641.1133273240657
 20
77.94672798225236
 10
640.6327467012248
 20
71.60129662985668
 10
640.6186932233725
 20
71.411060929613
 10
640.4152286181658
 20
68.5767568074252
 10
640.4137326589735
 20
68.55640256288117
 10
640.2461212349339
 20
66.32771525439568
 10
640.2434027392416
 20
66.2929215201255
 10
639.7460427252047
 20
60.15710629286815
 10
639.742473504696
 20
60.11492222235478
 10
639.1398012408067
 20
53.279180105155774
 10
639.1100789517424
 20
52.92841233946274
 10
639.0026343241839
 20
51.60066230631722
 10
638.9992184995419
 20
51.560158196304855
 10
638.9282779036912
 20
50.751674132967935
 10
638.9224463613365
 20
50.6889923825386
 10
638.2855987344126
 20
44.21223988707149
 10
638.2793942887545
 20
44.15223913492295
 10
637.640823668409
 20
38.266215798060074
 10
637.6394851689056
 20
38.25399495773081
 10
637.480006863801
 20
36.811573178598735
 10
637.4706282705017
 20
36.731657027230085
 10
637.4492375352272
 20
36.559371531835836
 10
637.4478600805287
 20
36.548360505335836
 10
637.4358438467552
 20
36.45302162258096
 10
636.467312015556
 20
28.6922612009067
 10
636.456614039839
 20
28.611053943145862
 10
636.0826112500789
 20
25.914319798965607
 10
636.0536818915808
 20
25.72742295974271
 10
635.6691006046545
 20
23.47797727517772
 10
635.6289835759526
 20
23.24007134341298
 10
634.6030534098597
 20
17.060175519936394
 10
634.5913893769082
 20
16.992326568167698
 10
634.1632864852215
 20
14.584877291702497
 10
634.1542425506766
 20
14.5352305812971
 10
633.5669494454797
 20
11.386443411097048
 10
633.5533992814981
 20
11.316124676970333
 10
633.11356876544
 20
9.10473074333251
 10
633.1122178512942
 20
9.09795894350205
 10
632.6583249023363
 20
6.829509974164637
 10
632.6456030386253
 20
6.767624523311781
 10
632.6325037471023
 20
6.705561584583336
 10
632.6138284159013
 20
6.620163562352701
 10
632.2762202749659
 20
5.128508241169129
 10
632.2233423440061
 20
4.8926509490232775
 10
632.2029557622523
 20
4.800777092929934
 10
631.8433287245701
 20
3.697815645687484
 10
631.2781634557863
 20
2.684680028262221
 10
630.5285885897756
 20
1.7992461907676898
 10
629.6226268904634
 20
1.0746159680233234
 10
628.5941476242517
 20
0.5378795715421063
 10
627.4816003616713
 20
0.20910282531400526
 10
626.3265775449304
 20
0.10057700745068132
 10
625.1722595595905
 20
0.21635934226912923
 10
624.0618004411785
 20
0.552121321460902
 10
623.0367145668899
 20
1.0953105248413806
 10
622.1353246457173
 20
1.8256198910305557
 10
621.3913290287007
 20
2.7157468944380696
 10
620.8325419002297
 20
3.73241424681558
 10
620.6750446864601
 20
4.09905945232839
 10
620.4740646829046
 20
4.63642753535504
 10
619.0376547215326
 20
9.119503266208284
 10
618.9083972733757
 20
9.587230192574282
 10
617.3369049996165
 20
16.323966247694614
 10
617.2545878091489
 20
16.7440742034033
 10
616.6874540768922
 20
20.30798495126018
 10
616.6776403921624
 20
20.36833279512973
 10
616.5798699015786
 20
20.956931009250155
 10
616.5696457773793
 20
21.017214761997508
 10
615.6519893992279
 20
26.318624654623903
 10
615.6070173820929
 20
26.62540405371729
 10
614.8356472985263
 20
33.03791643490672
 10
614.8197187016253
 20
33.18576200218888
 10
614.5419819296114
 20
36.10260653945437
 10
614.5303577839163
 20
36.24184968510315
 10
614.3041185144066
 20
39.39428943365658
 10
614.2994661838053
 20
39.45613055109635
 10
614.2519887916097
 20
40.0594307834092
 10
614.2469104433076
 20
40.12123842725856
 10
613.7379786635054
 20
46.06438751544559
 10
613.7261881824928
 20
46.228521123610165
 10
613.5632714430138
 20
49.03437699464919
 10
613.5585537221073
 20
49.128358567523236
 10
613.3570379127386
 20
53.887848224148684
 10
613.3544778303597
 20
53.94414278726839
 10
613.3302902533665
 20
54.44168423598134
 10
613.3273013645132
 20
54.49935105045327
 10
612.991262467613
 20
60.60387773900544
 10
612.9862484173927
 20
60.71308280571037
 10
612.7510950288895
 20
67.10515200591036
 10
612.7491825449549
 20
67.1653647412088
 10
612.6425544709352
 20
71.153319755587
 10
612.6406805696602
 20
71.25680562392267
 10
612.6025695674286
 20
75.27663085534604
 10
612.5970255666406
 20
75.68177316942197
 10
612.4696348963337
 20
82.5140972145866
 10
612.468626110809
 20
82.6057852462475
 10
612.4442222152584
 20
89.8672690194249
 10
612.4443043691219
 20
89.92474859805512
 10
612.4647441479249
 20
93.21123657779484
 10
612.4658380522956
 20
93.29441124730445
 10
612.526257272584
 20
96.3024807547971
 10
612.5273010616118
 20
96.36540392119437
 10
612.5345996226557
 20
96.92291564503049
 10
612.5352136035756
 20
96.98754361095891
 10
612.5863776071545
 20
105.64561044264377
 10
612.5866323344874
 20
105.67583358646661
 10
612.7345585097873
 20
119.18859522166781
 10
612.7355458613131
 20
119.25003927959062
 10
612.743200510936
 20
119.61124526548117
 10
612.7509024302371
 20
120.062420177467
 10
612.7515588059372
 20
120.10856509480669
 10
612.7563411480274
 20
120.52013943575054
 10
612.7579384433236
 20
120.60542187698475
 10
613.132620766568
 20
135.10483237363712
 10
613.1387520394726
 20
135.37150339316003
 10
613.3130572494367
 20
144.21147008413982
 10
613.3158685377506
 20
144.36742435213569
 10
613.379039983722
 20
148.28797281291125
 10
613.4537732102644
 20
152.7632505442985
 10
613.5746927111284
 20
159.95259956761254
 10
613.5758902223438
 20
160.02739116279648
 10
613.6649381359367
 20
165.92766050383264
 10
613.6650672615976
 20
165.93584619101568
 10
613.7399822596167
 20
170.48802103274778
 10
613.7409866506446
 20
170.55171138883932
 10
613.8030582745514
 20
174.69330796321609
 10
613.8741469801234
 20
179.61905355288445
 10
613.8763878452305
 20
179.79841817891617
 10
613.9186400437521
 20
183.90297225480344
 10
613.9189319518488
 20
183.92675110560913
 10
613.969252341074
 20
187.45601877747967
 10
614.0100390897608
 20
190.264818254204
 10
614.010761226829
 20
190.33162993003918
 10
614.0148494091459
 20
190.90773414508618
 10
614.0150755222145
 20
190.97454993791592
 10
614.013749268749
 20
195.01912328758593
 10
614.0134805549087
 20
195.08578159328357
 10
614.0090351171923
 20
195.660526489201
 10
614.00827270623
 20
195.727180976336
 10
613.913485986702
 20
201.98695526495374
 10
613.9131618546804
 20
202.14385225505941
 10
613.9205976139839
 20
202.81923439509396
 10
613.9661397173796
 20
208.30590814784327
 10
613.9663376691541
 20
208.42529931953993
 10
613.9618294149874
 20
209.33124505961655
 10
613.9606801204872
 20
209.43709588878426
 10
613.9024531573893
 20
212.91544723290832
 10
613.9016138968844
 20
213.0197095968017
 10
613.9034470579039
 20
215.88586317443367
 10
613.9080446265989
 20
216.11689667260416
 10
613.9187710588012
 20
216.39070338154477
 10
613.9254985633745
 20
216.6875989442545
 10
613.9412596930521
 20
219.24782631720947
 10
613.9381880238236
 20
219.544782205055
 10
613.9315279248171
 20
219.79283527847267
 10
613.9295689587047
 20
220.00317500950595
 10
613.940082177661
 20
221.28260993538336
 10
613.9424974420926
 20
221.41052912961302
 10
613.9809262628911
 20
222.7110161713938
 10
613.9841016719554
 20
222.86055832219074
 10
613.9870427061082
 20
223.08816052329314
 10
613.9887481883563
 20
223.17333583643733
 10
614.0971017379131
 20
227.1677011808264
 10
614.0994024170072
 20
227.2769995783889
 10
614.1136940284598
 20
228.23142806258707
 10
614.1146706454685
 20
228.34210253775194
 10
614.1278449229626
 20
233.2668308799557
 10
614.1298979828803
 20
233.4085459499719
 10
614.1341675205988
 20
233.57086485824416
 10
614.137010095665
 20
233.65595926032435
 10
614.1483723490221
 20
233.93644019557757
 10
614.1557472924264
 20
234.30358400747676
 10
614.1546939337113
 20
237.61108889667682
 10
614.1464064821348
 20
237.994367794794
 10
614.1454732627558
 20
238.01609776907452
 10
614.1404555396332
 20
238.19548092978658
 10
614.1208259627256
 20
239.70422543011372
 10
614.12069803503
 20
239.84979365493334
 10
614.197328111238
 20
246.6597538700014
 10
614.1978107874885
 20
246.72143319265507
 10
614.2001501845484
 20
247.25327154828062
 10
614.2002101341047
 20
247.31495275893917
 10
614.1900358446043
 20
251.45956147198925
 10
614.189794913486
 20
251.50692892350654
 10
614.1866427044929
 20
251.91534662658225
 10
614.186152476932
 20
251.96271215403306
 10
614.1154524999232
 20
257.40879472783627
 10
614.0335631943939
 20
263.69358470667567
 10
614.0316755463318
 20
263.8242939415702
 10
613.9671936097207
 20
267.8429360025867
 10
613.9659323997314
 20
267.90721034857415
 10
613.9530760813986
 20
268.46145771558764
 10
613.9513554518301
 20
268.5257315709019
 10
613.7362208205002
 20
275.615293454974
 10
613.7336192484756
 20
275.7535972161454
 10
613.7038303897356
 20
279.8449851075147
 10
613.7047425239836
 20
280.00203928935116
 10
613.7317160804348
 20
281.4293327989907
 10
613.7328875108057
 20
281.68789752563197
 10
613.7109628191698
 20
283.9170490294623
 10
613.7047059059919
 20
284.1755408746493
 10
613.6772856951495
 20
284.88617655560495
 10
613.673350544497
 20
285.0380419241955
 10
613.6630571761393
 20
285.8150732412479
 10
613.6590728685703
 20
285.98895842505794
 10
613.6102342099748
 20
287.48781151153014
 10
613.6028903158237
 20
287.6615875134445
 10
613.5253232853288
 20
289.1548327700047
 10
613.5178618517514
 20
289.38002966714583
 10
613.4172216271379
 20
296.3962241656613
 10
613.4166555096325
 20
296.5070269090557
 10
613.4368600494256
 20
301.40551959811654
 10
613.4371867947871
 20
301.5082604562498
 10
613.4407714701816
 20
303.3730716247554
 10
613.4406723397717
 20
303.43595146248197
 10
613.437922557383
 20
303.9782438929835
 10
613.4373838944061
 20
304.0411354780559
 10
613.3285339084262
 20
313.067261208654
 10
613.3284054435444
 20
313.078840566975
 10
613.3098130037982
 20
314.9143720855488
 10
613.2282148352717
 20
323.28213093794574
 10
613.1398248735028
 20
333.32797532974735
 10
613.1396732558384
 20
333.34966315665247
 10
613.1161315034515
 20
337.8913524125396
 10
613.1118209847477
 20
338.1270936610521
 10
613.0480149010552
 20
340.15960618274437
 10
613.037525957755
 20
340.39523048123164
 10
612.7860005866253
 20
344.7579239051939
 10
612.779083600575
 20
344.91261154592837
 10
612.4807631247115
 20
354.2958562774693
 10
612.4779671069591
 20
354.43352167988013
 10
612.4757339875471
 20
354.6863387385757
 10
612.4747009790876
 20
354.7901226469844
 10
612.4696894940439
 20
355.23715886875266
 10
612.4684721157683
 20
355.3153180401972
 10
612.4550371798925
 20
355.989667106616
 10
612.4531391746843
 20
356.0678683965116
 10
612.3244626088133
 20
360.5639633606681
 10
612.3237598655969
 20
360.5905836129011
 10
612.1688297656002
 20
366.9984077269587
 10
612.1622952125967
 20
367.242179622575
 10
611.8892219997193
 20
376.4053249805632
 10
611.8837398370256
 20
376.55010399771396
 10
611.8264179827536
 20
377.79813214875446
 10
611.8186048418197
 20
377.9428196415842
 10
611.6701408807577
 20
380.3344175626472
 10
611.6675145000714
 20
380.37946434843514
 10
611.4618505063486
 20
384.15096049077573
 10
611.4584567804034
 20
384.22064437906215
 10
611.2083722669938
 20
390.053435163307
 10
611.207442644861
 20
390.0761197618734
 10
611.0944244841805
 20
392.96769563386545
 10
611.0893918366987
 20
393.0788461936384
 10
611.0400176121699
 20
394.0380597084518
 10
611.0336030909816
 20
394.14926724822726
 10
610.7217179208706
 20
399.03070717038827
 10
610.4171671842034
 20
403.8088834817784
 10
610.4117616585258
 20
403.90611641905
 10
610.3908027580843
 20
404.34775966391385
 10
610.3731443842372
 20
404.7019406894876
 10
610.3375360998757
 20
405.3603474218815
 10
610.312859268739
 20
405.78001662295014
 10
610.1248650066934
 20
408.719947112771
 10
610.1218470348933
 20
408.7704913907022
 10
609.9239423392112
 20
412.3378892014646
 10
609.9108317675646
 20
412.5659413232069
 10
609.7970802958287
 20
414.4625806747975
 10
609.762837640023
 20
414.87469087367595
 10
609.3364328820178
 20
418.8868606218462
 10
609.283285969259
 20
419.2970137308922
 10
609.2656190330453
 20
419.41247046249987
 10
609.2190091880872
 20
419.8017670379212
 10
609.0012532066477
 20
422.3134133481881
 10
608.9863477816734
 20
422.5313919307121
 10
608.9711607015911
 20
422.8344818119308
 10
608.9648028868669
 20
422.9472105411247
 10
608.9464515293809
 20
423.23992183243894
 10
608.9412170365954
 20
423.33565679044943
 10
608.8205452825368
 20
425.92149211726894
 10
608.8143369933824
 20
426.1397707688665
 10
608.7902964544301
 20
428.488287093512
 10
608.7897744676523
 20
428.5162046268474
 10
608.8643962634465
 20
429.57827377301817
 10
609.1255619182684
 20
430.61043257107053
 10
609.4162324660239
 20
431.44093853177503
 10
609.8399015639573
 20
433.2061186620594
 10
610.9053638020264
 20
441.08291670169575
 10
610.9658767099903
 20
442.89721948372056
 10
610.4276322464491
 20
450.82750636601156
 10
610.1225228856883
 20
452.6169936319261
 10
609.2461929999974
 20
455.783576530795
 10
609.2301923450855
 20
455.8425612882562
 10
607.2105005427195
 20
463.44089270417396
 10
606.5661874948248
 20
465.14583580422095
 10
603.485883346581
 20
471.3189493188473
 10
602.5175603334385
 20
472.85060531354986
 10
598.2587890348132
 20
478.2851263169456
 10
597.003048516265
 20
479.5915471120817
 10
594.6362343538797
 20
481.6023363616029
 10
593.9020756233886
 20
482.3453671629487
 10
593.3079067165413
 20
483.2044638533398
 10
592.8717356354668
 20
484.15358903019444
 10
592.2743769538597
 20
485.8230947033081
 10
591.9364519007663
 20
486.6389179495517
 10
589.7969596901397
 20
491.16249416428076
 10
589.3806971769309
 20
491.94126655125535
 10
586.8081192014512
 20
496.23335360184734
 10
586.3175280636794
 20
496.96757512574914
 10
583.336639655565
 20
500.9868378676132
 10
582.7764445540728
 20
501.66943757379863
 10
579.4159532982119
 20
505.3771683095802
 10
578.7915492180612
 20
506.00157238973094
 10
575.0838184822784
 20
509.3620636455929
 10
574.4012187760939
 20
509.9222587470844
 10
570.3819560342287
 20
512.9031471551996
 10
569.6477345103277
 20
513.3937382929707
 10
565.3556474597357
 20
515.9663162684506
 10
564.5768750727611
 20
516.3825787816594
 10
560.0532988580312
 20
518.5220709922864
 10
559.2374756117888
 20
518.8599960453793
 10
554.5259747447121
 20
520.5457980115978
 10
553.6809574630367
 20
520.8021312015849
 10
548.8269062725268
 20
522.0180077289086
 10
547.9608329337746
 20
522.1902804270443
 10
543.0109785862944
 20
522.9245219598487
 10
542.132189950161
 20
523.0110750858757
 10
536.913342280943
 20
523.2674606312912
 10
536.4717553827338
 20
523.2783009811835
 10
112.91360839659387
 20
523.2783009811835
 10
112.47202149838472
 20
523.2674606312912
 10
107.25317382916671
 20
523.0110750858757
 10
106.37438519303325
 20
522.9245219598487
 10
101.42453084555316
 20
522.1902804270443
 10
100.55845750680078
 20
522.0180077289086
 10
95.70440631629202
 20
520.8021312015851
 10
94.85938903461653
 20
520.545798011598
 10
90.14788816753824
 20
518.8599960453789
 10
89.33206492129551
 20
518.522070992286
 10
84.80848870656652
 20
516.3825787816594
 10
84.0297163195911
 20
515.9663162684501
 10
79.7376292689998
 20
513.3937382929707
 10
79.00340774509962
 20
512.9031471552
 10
74.98414500323392
 20
509.9222587470845
 10
74.3015452970491
 20
509.3620636455928
 10
70.59381456126684
 20
506.0015723897312
 10
69.96941048111583
 20
505.3771683095802
 10
66.60891922525491
 20
501.66943757379863
 10
66.04872412376261
 20
500.9868378676132
 10
63.06783571564824
 20
496.96757512574914
 10
62.57724457787651
 20
496.23335360184734
 10
60.00466660239687
 20
491.94126655125535
 10
59.588404089187975
 20
491.16249416428076
 10
57.448911878561205
 20
486.63891794955134
 10
57.1109868254681
 20
485.82309470330836
 10
55.6434657118827
 20
481.7216479511606
 10
55.21384908924358
 20
480.78405530933674
 10
54.6300135649376
 20
479.9338868054457
 10
53.90920905261913
 20
479.19626138596004
 10
52.83601065566381
 20
478.27217220344744
 10
51.587069520163936
 20
476.9550008436844
 10
47.359148691265545
 20
471.4816122477815
 10
46.4001739287275
 20
469.94045626744116
 10
45.25440560330742
 20
467.6015552789673
 10
45.19009128708217
 20
467.4741274010539
 10
44.78378112751602
 20
466.6923521602829
 10
44.536388863867785
 20
466.1429922451975
 10
44.453740411604656
 20
465.9671261329772
 10
43.304690517840186
 20
463.62152679091463
 10
42.88253115512015
 20
462.60729980551986
 10
42.76565940420835
 20
462.2697707495712
 10
42.56678042301638
 20
461.76927453122755
 10
41.532221733492406
 20
459.4719307685473
 10
40.97758736821521
 20
457.8365018613898
 10
39.247808374244414
 20
450.4754286048871
 10
39.01599728261965
 20
448.76413943957607
 10
38.725112669592306
 20
441.2081536668601
 10
38.82467283020492
 20
439.4841076222516
 10
39.98340889868541
 20
432.011834502297
 10
40.41066905441426
 20
430.3386053641224
 10
40.64067480529661
 20
429.7009308440886
 10
40.83320986142786
 20
429.05582522868923
 10
40.95652911346258
 20
428.5382614741892
 10
41.01185133009193
 20
428.34051496429936
 10
41.12145619809047
 20
427.87919680248723
 10
41.13270189077895
 20
427.8218801871536
 10
41.242660776718594
 20
426.8327010332916
 10
41.25616871712572
 20
426.34469018019945
 10
41.25807654981912
 20
426.11032589954186
 10
41.24235290111329
 20
424.73014560326055
 10
41.22912357807945
 20
424.39446829569005
 10
41.17614862511772
 20
423.6095510138704
 10
41.13327653067711
 20
423.1921787892726
 10
41.1245230785496
 20
423.1288403027325
 10
41.10990931994627
 20
423.01797124374036
 10
40.97384373841459
 20
421.93366450609165
 10
40.96059148662653
 20
421.82246120267473
 10
40.69420046718659
 20
419.4622172529863
 10
40.68623556457425
 20
419.38895766837715
 10
40.61143977749407
 20
418.67376352407246
 10
40.60407498139591
 20
418.6004411796765
 10
40.16551732227987
 20
414.04685945725055
 10
40.15789106164533
 20
413.9636270115078
 10
40.087244801112604
 20
413.1510930554549
 10
40.08039182452603
 20
413.06779337605496
 10
39.9965128389415
 20
411.98682077391334
 10
39.98013184906438
 20
411.80976947970936
 10
39.38719133923155
 20
406.29339935965675
 10
39.378010265441446
 20
406.21308008360984
 10
38.98427007835011
 20
402.9627232409882
 10
38.95477977771475
 20
402.6826347155287
 10
38.737190601433895
 20
400.2512816641555
 10
38.7163932663035
 20
399.9689339610595
 10
38.58641564382236
 20
397.7225492395225
 10
38.579124595525286
 20
397.61370646024136
 10
38.34524770116025
 20
394.5414023309038
 10
38.333573571367594
 20
394.40779399037535
 10
38.224870827287646
 20
393.3058824285598
 10
38.1947754536352
 20
392.9128955792718
 10
38.00958667117118
 20
389.5203459637303
 10
37.99672681626839
 20
389.1264182808245
 10
37.982652170952406
 20
387.8153055052044
 10
37.976609543721
 20
387.602909883075
 10
37.866020158732795
 20
385.2083040259669
 10
37.86289446786168
 20
385.1339541568365
 10
37.838593888275796
 20
384.4927687001501
 10
37.83608304450098
 20
384.418395161165
 10
37.69780163974826
 20
379.750119166887
 10
37.696015665651714
 20
379.6808053519866
 10
37.682918523197486
 20
379.0830964246667
 10
37.68166659874811
 20
379.01377090754966
 10
37.64767632858536
 20
376.621028700808
 10
37.64661898501282
 20
376.5650126140189
 10
37.57120660990495
 20
373.36233679982973
 10
37.56870955337433
 20
373.25089285218314
 10
37.47086256327282
 20
368.599933324123
 10
37.467262271653624
 20
368.4103156888085
 10
37.37318675305062
 20
362.7634465607181
 10
37.37135811303892
 20
362.6847121339063
 10
37.307676874023
 20
360.54726094295427
 10
37.30557382598374
 20
360.4868852898404
 10
37.25146490862659
 20
359.12989220479284
 10
37.24742421637728
 20
359.00772088289284
 10
37.2193016506925
 20
357.93748144115045
 10
37.21689681315013
 20
357.8133737510811
 10
37.15901122317473
 20
353.1747328810919
 10
37.157603605571126
 20
353.0996231880805
 10
37.11296312173022
 20
351.31429814880687
 10
37.107894507217736
 20
351.17570705784806
 10
36.904464756985476
 20
346.9508379298298
 10
36.896329286868024
 20
346.72053368717513
 10
36.851614604719146
 20
344.734169282411
 10
36.84937841293652
 20
344.5037322421873
 10
36.86181172320846
 20
340.49216700574016
 10
36.861840326518006
 20
340.4751760062214
 10
36.86335740205732
 20
334.80425166872624
 10
36.8627898039166
 20
334.72010304581806
 10
36.85633824234293
 20
334.25119029385746
 10
36.851760553206645
 20
333.78227254563086
 10
36.85143055097018
 20
333.7338858717687
 10
36.85090564610465
 20
333.60572154992747
 10
36.85065071980671
 20
333.52723444018096
 10
36.836871166779076
 20
327.4936839501685
 10
36.837710564574195
 20
327.08966901804155
 10
36.85038410118716
 20
325.27174685013415
 10
36.850472450150676
 20
325.2036631592397
 10
36.840487030223244
 20
322.9218303565735
 10
36.8404066960515
 20
322.8721945478261
 10
36.84090959771498
 20
322.4306978316866
 10
36.841113372294046
 20
322.3795248669577
 10
36.84408040440917
 20
321.9448032058168
 10
36.84391020149542
 20
321.8428677465225
 10
36.816292254439816
 20
319.1258486079839
 10
36.812848449777846
 20
318.97462936382607
 10
36.71752458353109
 20
316.2810749420258
 10
36.70104795208209
 20
315.8069898098179
 10
36.697361373238834
 20
315.7193679734613
 10
36.68246948167956
 20
315.41789687172337
 10
36.676465643183064
 20
315.29778565083564
 10
36.47741044733908
 20
311.18887079737027
 10
36.47648195209547
 20
311.17030013302025
 10
36.23978813631402
 20
306.5788897025172
 10
36.23634986979903
 20
306.50653117684135
 10
36.20919325193819
 20
305.88201544930735
 10
36.20633550427033
 20
305.80957524951475
 10
36.19015736305295
 20
305.3527784888595
 10
36.17935344726948
 20
305.01162363519205
 10
36.17875980478976
 20
304.9937227714543
 10
36.17492332136294
 20
304.88302430379935
 10
36.17076252101549
 20
304.7857673391193
 10
35.970247040082995
 20
300.8472654732685
 10
35.96874122391267
 20
300.8190014051224
 10
35.80730056616244
 20
297.91760368515025
 10
35.79823455132919
 20
297.7125348207623
 10
35.740177555711114
 20
295.94187673449386
 10
35.735788756962336
 20
295.7364500953778
 10
35.7183519211668
 20
293.98326827320415
 10
35.71772116580422
 20
293.91475163839226
 10
35.696778953345245
 20
291.41117005199783
 10
35.69280244602413
 20
291.237260835129
 10
35.67051176663426
 20
290.64086357324425
 10
35.67003619303216
 20
290.628481940292
 10
35.65031548801238
 20
290.1285113633263
 10
35.643689311413254
 20
289.8550391100791
 10
35.62238382297687
 20
287.49485899763715
 10
35.62407653161165
 20
287.2211007662771
 10
35.62783494119475
 20
287.0454443631427
 10
35.62788060227473
 20
286.79089877046044
 10
35.618880944084594
 20
286.36310639557496
 10
35.61249995787108
 20
286.1852640011846
 10
35.58233658384319
 20
285.5907756112597
 10
35.57190838862431
 20
285.2775821415229
 10
35.52902682225118
 20
282.576336400365
 10
35.529508541048926
 20
282.2629690661182
 10
35.54370511268746
 20
281.5138150136954
 10
35.544730371882736
 20
281.37520906400675
 10
35.53874070626807
 20
279.9334074545491
 10
35.5369988737545
 20
279.8116358289932
 10
35.50027695702943
 20
278.3101369079494
 10
35.497654800998646
 20
278.12513647764376
 10
35.496759863802424
 20
277.8952967774164
 10
35.49652888341217
 20
277.8345413480722
 10
35.49550067250328
 20
277.7439601737346
 10
35.42974153985875
 20
274.2650123118831
 10
35.42846564062728
 20
274.17216519548003
 10
35.42146148054263
 20
273.3560757196136
 10
35.42114680049093
 20
273.26145898267754
 10
35.42796897222735
 20
269.72798458383227
 10
35.425736863519035
 20
269.55234394940925
 10
35.42527692829708
 20
269.5355291145826
 10
35.43592603260112
 20
269.13475203758753
 10
35.43717022789809
 20
268.8730468737543
 10
35.38230997061737
 20
265.6569911953267
 10
35.383662432820245
 20
265.28463592137234
 10
35.385631314406965
 20
265.20369764598246
 10
35.38739559753958
 20
265.0688233152146
 10
35.38908497051261
 20
264.1504217814391
 10
35.38632326823915
 20
263.9570266584442
 10
35.27201868302376
 20
260.19788536077203
 10
35.27018283140302
 20
260.12877203513074
 10
35.25664234760086
 20
259.5327888793732
 10
35.25533747137888
 20
259.46366332912316
 10
35.210872157046936
 20
256.506167686593
 10
35.20733551576819
 20
256.2063811952124
 10
35.17471177320232
 20
252.19320668832552
 10
35.17435074960105
 20
252.16006026644416
 10
35.1167927818322
 20
247.94477030397954
 10
35.116224195897075
 20
247.8916437322851
 10
35.11266032690202
 20
247.4318236276407
 10
35.112405010794305
 20
247.37849828203125
 10
35.10596169655662
 20
243.84849519239884
 10
35.10601036138837
 20
243.79821741155877
 10
35.10764088069294
 20
243.36470165296413
 10
35.1079704167887
 20
243.31442492854532
 10
35.16745677923154
 20
236.9507781216102
 10
35.16676697167378
 20
236.78781819534314
 10
35.131596248962694
 20
234.81364078660113
 10
35.12606895785291
 20
234.64175321317273
 10
35.10285097551417
 20
234.14255673021833
 10
35.093268671422834
 20
233.77392154818804
 10
35.07578677376637
 20
230.59502966126806
 10
35.081314109680534
 20
230.22631070926525
 10
35.11890753662857
 20
229.16713972702382
 10
35.121863134485864
 20
229.05351658611397
 10
35.172217960802584
 20
226.00835121269105
 10
35.172975023085996
 20
225.88163458118532
 10
35.13496421294707
 20
217.59274903263116
 10
35.13487085858759
 20
217.5466864560324
 10
35.135082297725944
 20
217.14951228336847
 10
35.135224695648276
 20
217.1034498322625
 10
35.17226936242889
 20
210.54745387616404
 10
35.173714945623146
 20
210.35928737633745
 10
35.22885248361575
 20
204.84053640542697
 10
35.22901480517879
 20
204.82115647867693
 10
35.263580100915874
 20
199.70841082849626
 10
35.265845047593416
 20
199.46661151858137
 10
35.35498042567792
 20
192.2396589821636
 10
35.36007360630407
 20
191.9176794282614
 10
35.60411933801328
 20
179.57478864216606
 10
35.605249010142245
 20
179.478841562647
 10
35.6079541594749
 20
178.7626541852403
 10
35.60779199995909
 20
178.69039833890332
 10
35.6076437280401
 20
178.67246033324693
 10
35.60863881073436
 20
178.66200970270663
 10
35.60797267484503
 20
178.43299437200216
 10
35.642558741925825
 20
175.87376131259336
 10
35.64854122958951
 20
175.6454795240123
 10
35.650838047194554
 20
175.58644659344577
 10
35.65346222459027
 20
175.50464058005556
 10
35.661921295498246
 20
175.1696503194596
 10
35.663725679639015
 20
175.054129133228
 10
35.73629837166993
 20
162.9389357400566
 10
35.738917673223796
 20
162.64936527630277
 10
35.8491146365476
 20
153.90186852335856
 10
35.85290380453182
 20
153.653938924898
 10
35.91947426421831
 20
150.01999914871462
 10
35.91992645976757
 20
149.99165984577974
 10
35.96740054657005
 20
146.49939104455063
 10
35.96973263643076
 20
146.34629380174061
 10
36.126080243678814
 20
137.21036222582512
 10
36.13225949024951
 20
136.90730803794048
 10
36.464736923409475
 20
123.11911305947115
 10
36.46612954909898
 20
123.03937051636491
 10
36.47024084178122
 20
122.65927233234333
 10
36.47033366746757
 20
122.65003253537563
 10
36.4730073078606
 20
122.36180661075021
 10
36.47372008862601
 20
122.30458248154238
 10
36.48143504276214
 20
121.81117122001683
 10
36.482511731894874
 20
121.75395043728625
 10
36.490589402737214
 20
121.38673734205851
 10
36.49179333762686
 20
121.30924700123951
 10
36.605653651056116
 20
108.7657339978083
 10
36.67881303788619
 20
100.0852784890534
 10
36.6795919653548
 20
100.02051199190038
 10
36.68831785278388
 20
99.46208400333362
 10
36.689562895289384
 20
99.3973236354795
 10
36.747098075668475
 20
96.87666407170187
 10
36.74825999866448
 20
96.80906858354746
 10
36.777022356950795
 20
94.31976067635156
 10
36.77733612875306
 20
94.28269384692041
 10
36.82336739099276
 20
85.7201096989752
 10
36.82341818992319
 20
85.70861035332695
 10
36.867974329701156
 20
72.82830799597627
 10
36.86423720505081
 20
72.59480385524714
 10
36.4059169136674
 20
59.67725663234165
 10
36.399758861065436
 20
59.5449339960341
 10
35.98728168934048
 20
52.38477373498134
 10
35.98281329614588
 20
52.30029383957168
 10
35.94770891758594
 20
51.571700783040114
 10
35.944034805968045
 20
51.48718259968237
 10
35.81051719933748
 20
48.04275687736819
 10
35.8039198939116
 20
47.91036521284033
 10
35.79612672648568
 20
47.782424349074915
 10
35.78398703892907
 20
47.61964568310296
 10
35.110373288199526
 20
39.98846635213579
 10
35.1045866145584
 20
39.91992100781431
 10
35.05067560467569
 20
39.25082954396407
 10
35.045413002693806
 20
39.182241933064745
 10
34.82177052804127
 20
36.11381863879862
 10
34.80691456384454
 20
35.94349957588233
 10
34.49053557669055
 20
32.82950801065877
 10
34.47443117121668
 20
32.6877743161873
 10
33.71285398065788
 20
26.6282246677562
 10
33.66394727069377
 20
26.30885422792838
 10
32.8505696771295
 20
21.810451052335026
 10
32.84003601835076
 20
21.751058226153447
 10
32.73918721725562
 20
21.171138162767647
 10
32.72905168841004
 20
21.111675053090835
 10
31.923128792900343
 20
16.285908939338583
 10
31.84123345469078
 20
15.881614324974635
 10
30.94231755210882
 20
12.11449999920788
 10
30.933815279119813
 20
12.079339086299228
 10
30.034320279225994
 20
8.40798323284693
 10
29.92470862396874
 20
8.01804869910876
 10
28.982860547401458
 20
5.055274127090996
 10
28.978280615230176
 20
5.040929390585148
 10
28.695742221468095
 20
4.159812725328351
 10
28.213730691877913
 20
3.053849539572724
  0
LWPOLYLINE
  5
91
330
17
100
AcDbEntity
  8
CUT_IN
100
AcDbPolyline
 90
53
 70
1
 10
192.402018119508
 20
537.232765307733
 10
192.9699495422625
 20
537.7720138829234
 10
199.74713705561618
 20
538.486240287604
 10
200.41500264970313
 20
538.077228460108
 10
201.1659713261498
 20
537.8550097079903
 10
201.94886581069068
 20
537.8347278719739
 10
202.7103331379987
 20
538.0177651256661
 10
203.39848056810206
 20
538.391647782711
 10
203.96641199085656
 20
538.9308963579012
 10
204.37542381835254
 20
539.5987619519883
 10
204.5976425704702
 20
540.3497306284348
 10
204.6179244064866
 20
541.1326251129758
 10
204.43488715279443
 20
541.8940924402839
 10
204.06100449574956
 20
542.5822398703872
 10
203.5217559205592
 20
543.1501712931417
 10
202.5399069542531
 20
552.4667892602752
 10
202.94891878174911
 20
553.1346548543622
 10
203.17113753386678
 20
553.8856235308089
 10
203.19141936988314
 20
554.6685180153497
 10
203.008382116191
 20
555.4299853426578
 10
202.6344994591461
 20
556.1181327727611
 10
202.09525088395577
 20
556.6860641955157
 10
201.4273852898688
 20
557.0950760230116
 10
200.67641661342213
 20
557.3172947751293
 10
199.89352212888124
 20
557.3375766111457
 10
199.13205480157322
 20
557.1545393574535
 10
198.4439073714699
 20
556.7806567004086
 10
197.8759759487154
 20
556.2414081252182
 10
191.09878843536174
 20
555.5271817205376
 10
190.43092284127476
 20
555.9361935480335
 10
189.6799541648281
 20
556.1584123001512
 10
188.89705968028719
 20
556.1786941361677
 10
188.1355923529792
 20
555.9956568824755
 10
187.44744492287586
 20
555.6217742254306
 10
186.87951350012133
 20
555.0825256502403
 10
186.47050167262532
 20
554.4146600561533
 10
186.24828292050765
 20
553.6636913797067
 10
186.2280010844913
 20
552.8807968951658
 10
186.41103833818343
 20
552.1193295678577
 10
186.78492099522833
 20
551.4311821377544
 10
187.3241695704187
 20
550.8632507149998
 10
188.3060185367248
 20
541.5466327478664
 10
187.89700670922878
 20
540.8787671537793
 10
187.6747879571111
 20
540.1277984773327
 10
187.65450612109476
 20
539.3449039927918
 10
187.8375433747869
 20
538.5834366654838
 10
188.2114260318318
 20
537.8952892353805
 10
188.75067460702212
 20
537.3273578126259
 10
189.4185402011091
 20
536.9183459851299
 10
190.16950887755576
 20
536.6961272330122
 10
190.95240336209665
 20
536.6758453969959
 10
191.71387068940467
 20
536.8588826506881
 10
192.402018119508
 20
537.232765307733
  0
LWPOLYLINE
  5
92
330
17
100
AcDbEntity
  8
CUT_IN
100
AcDbPolyline
 90
53
 70
1
 10
448.2193924531779
 20
537.8550097079903
 10
448.97036112962456
 20
538.077228460108
 10
449.6382267237115
 20
538.486240287604
 10
456.4154142370652
 20
537.7720138829234
 10
456.9833456598197
 20
537.232765307733
 10
457.67149308992305
 20
536.8588826506881
 10
458.432960417231
 20
536.6758453969959
 10
459.21585490177193
 20
536.6961272330122
 10
459.9668235782186
 20
536.9183459851299
 10
460.63468917230557
 20
537.3273578126259
 10
461.17393774749587
 20
537.8952892353805
 10
461.5478204045408
 20
538.5834366654838
 10
461.73085765823294
 20
539.3449039927918
 10
461.7105758222166
 20
540.1277984773327
 10
461.4883570700989
 20
540.8787671537793
 10
461.0793452426029
 20
541.5466327478664
 10
462.061194208909
 20
550.8632507149998
 10
462.60044278409936
 20
551.4311821377544
 10
462.9743254411443
 20
552.1193295678577
 10
463.15736269483637
 20
552.8807968951658
 10
463.13708085882
 20
553.6636913797067
 10
462.91486210670234
 20
554.4146600561533
 10
462.50585027920636
 20
555.0825256502403
 10
461.9379188564518
 20
555.6217742254306
 10
461.2497714263485
 20
555.9956568824755
 10
460.48830409904053
 20
556.1786941361677
 10
459.70540961449956
 20
556.1584123001512
 10
458.9544409380529
 20
555.9361935480335
 10
458.286575343966
 20
555.5271817205376
 10
451.5093878306123
 20
556.2414081252182
 10
450.9414564078578
 20
556.7806567004086
 10
450.2533089777545
 20
557.1545393574535
 10
449.4918416504465
 20
557.3375766111457
 10
448.70894716590556
 20
557.3172947751293
 10
447.9579784894589
 20
557.0950760230116
 10
447.2901128953719
 20
556.6860641955157
 10
446.75086432018156
 20
556.1181327727611
 10
446.3769816631367
 20
555.4299853426578
 10
446.19394440944455
 20
554.6685180153497
 10
446.2142262454609
 20
553.8856235308089
 10
446.4364449975786
 20
553.1346548543622
 10
446.8454568250746
 20
552.4667892602752
 10
445.8636078587685
 20
543.1501712931417
 10
445.32435928357813
 20
542.5822398703872
 10
444.95047662653326
 20
541.8940924402839
 10
444.76743937284107
 20
541.1326251129758
 10
444.7877212088574
 20
540.3497306284348
 10
445.00993996097515
 20
539.5987619519883
 10
445.41895178847113
 20
538.9308963579012
 10
445.98688321122563
 20
538.391647782711
 10
446.675030641329
 20
538.0177651256661
 10
447.436497968637
 20
537.8347278719739
 10
448.2193924531779
 20
537.8550097079903
  0
LWPOLYLINE
  5
93
330
17
100
AcDbEntity
  8
CUT_IN
100
AcDbPolyline
 90
57
 70
1
 10
319.5518636249031
 20
537.3798732969009
 10
320.277160594524
 20
537.6753042239473
 10
320.9012805187781
 20
538.148389255359
 10
327.71588074271364
 20
538.108217919336
 10
327.71588074271364
 20
538.108217919336
 10
328.3343799154099
 20
537.6278077818797
 10
329.0561435328896
 20
537.3238465881734
 10
329.8319845973924
 20
537.2170487912488
 10
330.60903082251036
 20
537.3146924844743
 10
331.33432779213126
 20
537.6101234115208
 10
331.95844771638536
 20
538.0832084429326
 10
332.4388578538417
 20
538.7017076156287
 10
332.7428190475479
 20
539.4234712331086
 10
332.84961684447256
 20
540.1993122976113
 10
332.75197315124694
 20
540.9763585227292
 10
332.4565422242005
 20
541.7016554923501
 10
331.9834571927888
 20
542.3257754166043
 10
332.0814747032702
 20
558.9533067611717
 10
332.0814747032702
 20
558.9533067611717
 10
332.5618848407265
 20
559.5718059338678
 10
332.86584603443276
 20
560.2935695513477
 10
332.97264383135746
 20
561.0694106158504
 10
332.8750001381318
 20
561.8464568409684
 10
332.57956921108536
 20
562.5717538105891
 10
332.10648417967366
 20
563.1958737348434
 10
331.4879850069774
 20
563.6762838722997
 10
330.7662213894977
 20
563.9802450660059
 10
329.9903803249949
 20
564.0870428629305
 10
329.21333409987693
 20
563.9893991697049
 10
328.48803713025603
 20
563.6939682426585
 10
327.86391720600193
 20
563.2208832112468
 10
321.04931698206644
 20
563.2610545472699
 10
321.04931698206644
 20
563.2610545472699
 10
320.4308178093702
 20
563.7414646847262
 10
319.70905419189046
 20
564.0454258784324
 10
318.93321312738766
 20
564.152223675357
 10
318.1561669022697
 20
564.0545799821314
 10
317.4308699326488
 20
563.759149055085
 10
316.8067500083947
 20
563.2860640236734
 10
316.32633987093834
 20
562.667564850977
 10
316.02237867723215
 20
561.9458012334974
 10
315.91558088030746
 20
561.1699601689945
 10
316.01322457353314
 20
560.3929139438766
 10
316.30865550057956
 20
559.6676169742557
 10
316.78174053199126
 20
559.0434970500016
 10
316.6837230215099
 20
542.4159657054342
 10
316.6837230215099
 20
542.4159657054342
 10
316.2033128840535
 20
541.797466532738
 10
315.89935169034726
 20
541.0757029152583
 10
315.7925538934226
 20
540.2998618507554
 10
315.89019758664824
 20
539.5228156256376
 10
316.1856285136947
 20
538.7975186560166
 10
316.6587135451064
 20
538.1733987317625
 10
317.2772127178026
 20
537.6929885943061
 10
317.9989763352824
 20
537.3890274005998
 10
318.7748173997852
 20
537.2822296036752
 10
319.5518636249031
 20
537.3798732969009
  0
TEXT
  5
94
330
17
100
AcDbEntity
  8
TEXT
100
AcDbText
 10
631.5040206280939
 20
289.26743121857527
 30
0.0
 40
10.0
  1
П4
 72
1
 11
631.5040206280939
 21
289.26743121857527
 31
0.0
100
AcDbText
 73
2
  0
TEXT
  5
95
330
17
100
AcDbEntity
  8
TEXT
100
AcDbText
 10
0.0
 20
-20.0
 30
0.0
 40
8.0
  1
П4 Верхний шаблон спинки и подлокотников; Фанера берёзовая ФК 18 мм; 1 шт.
 11
0.0
 21
-20.0
 31
0.0
100
AcDbText
  0
ENDSEC
  0
SECTION
  2
OBJECTS
  0
DICTIONARY
  5
A
330
0
100
AcDbDictionary
281
1
  3
ACAD_COLOR
350
B
  3
ACAD_GROUP
350
C
  3
ACAD_LAYOUT
350
D
  3
ACAD_MATERIAL
350
E
  3
ACAD_MLEADERSTYLE
350
F
  3
ACAD_MLINESTYLE
350
10
  3
ACAD_PLOTSETTINGS
350
11
  3
ACAD_PLOTSTYLENAME
350
12
  3
ACAD_SCALELIST
350
14
  3
ACAD_TABLESTYLE
350
15
  3
ACAD_VISUALSTYLE
350
16
  3
EZDXF_META
350
2D
  0
DICTIONARY
  5
B
330
A
100
AcDbDictionary
281
1
  0
DICTIONARY
  5
C
330
A
100
AcDbDictionary
281
1
  0
DICTIONARY
  5
D
330
A
100
AcDbDictionary
281
1
  3
Model
350
1A
  3
Layout1
350
1E
  0
DICTIONARY
  5
E
330
A
100
AcDbDictionary
281
1
  3
ByBlock
350
1F
  3
ByLayer
350
20
  3
Global
350
21
  0
DICTIONARY
  5
F
330
A
100
AcDbDictionary
281
1
  3
Standard
350
2C
  0
DICTIONARY
  5
10
330
A
100
AcDbDictionary
281
1
  3
Standard
350
22
  0
DICTIONARY
  5
11
330
A
100
AcDbDictionary
281
1
  0
ACDBDICTIONARYWDFLT
  5
12
330
A
100
AcDbDictionary
281
1
  3
Normal
350
13
100
AcDbDictionaryWithDefault
340
13
  0
ACDBPLACEHOLDER
  5
13
330
12
  0
DICTIONARY
  5
14
330
A
100
AcDbDictionary
281
1
  0
DICTIONARY
  5
15
330
A
100
AcDbDictionary
281
1
  0
DICTIONARY
  5
16
330
A
100
AcDbDictionary
281
1
  3
2dWireframe
350
5A
  3
Basic
350
5B
  3
Brighten
350
5C
  3
ColorChange
350
5D
  3
Conceptual
350
5E
  3
Dim
350
5F
  3
EdgeColorOff
350
60
  3
Facepattern
350
61
  3
Flat
350
62
  3
FlatWithEdges
350
63
  3
Gouraud
350
64
  3
GouraudWithEdges
350
65
  3
Hidden
350
66
  3
JitterOff
350
67
  3
Linepattern
350
68
  3
Modeling
350
69
  3
OverhangOff
350
6A
  3
Realistic
350
6B
  3
Shaded
350
6C
  3
Shaded with edges
350
6D
  3
Shades of Gray
350
6E
  3
Sketchy
350
6F
  3
Thicken
350
70
  3
Wireframe
350
71
  3
X-Ray
350
72
  0
LAYOUT
  5
1A
330
D
100
AcDbPlotSettings
  1

  4
A3
  6

 40
7.5
 41
20.0
 42
7.5
 43
20.0
 44
420.0
 45
297.0
 46
0.0
 47
0.0
 48
0.0
 49
0.0
140
0.0
141
0.0
142
1.0
143
1.0
 70
1024
 72
1
 73
0
 74
5
  7

 75
16
 76
0
 77
2
 78
300
147
1.0
148
0.0
149
0.0
100
AcDbLayout
  1
Model
 70
1
 71
0
 10
0.0
 20
0.0
 11
420.0
 21
297.0
 12
0.0
 22
0.0
 32
0.0
 14
1e+20
 24
1e+20
 34
1e+20
 15
-1e+20
 25
-1e+20
 35
-1e+20
146
0.0
 13
0.0
 23
0.0
 33
0.0
 16
1.0
 26
0.0
 36
0.0
 17
0.0
 27
1.0
 37
0.0
 76
1
330
17
  0
LAYOUT
  5
1E
330
D
100
AcDbPlotSettings
  1

  4
A3
  6

 40
7.5
 41
20.0
 42
7.5
 43
20.0
 44
420.0
 45
297.0
 46
0.0
 47
0.0
 48
0.0
 49
0.0
140
0.0
141
0.0
142
1.0
143
1.0
 70
0
 72
1
 73
0
 74
5
  7

 75
16
 76
0
 77
2
 78
300
147
1.0
148
0.0
149
0.0
100
AcDbLayout
  1
Layout1
 70
1
 71
1
 10
0.0
 20
0.0
 11
420.0
 21
297.0
 12
0.0
 22
0.0
 32
0.0
 14
1e+20
 24
1e+20
 34
1e+20
 15
-1e+20
 25
-1e+20
 35
-1e+20
146
0.0
 13
0.0
 23
0.0
 33
0.0
 16
1.0
 26
0.0
 36
0.0
 17
0.0
 27
1.0
 37
0.0
 76
1
330
1B
  0
MATERIAL
  5
1F
102
{ACAD_REACTORS
330
E
102
}
330
E
100
AcDbMaterial
  1
ByBlock
  2

 70
0
 40
1.0
 71
1
 41
1.0
 91
-1023410177
 42
1.0
 72
1
  3

 73
1
 74
1
 75
1
 44
0.5
 73
0
 45
1.0
 46
1.0
 77
1
  4

 78
1
 79
1
170
1
 48
1.0
171
1
  6

172
1
173
1
174
1
140
1.0
141
1.0
175
1
  7

176
1
177
1
178
1
143
1.0
179
1
  8

270
1
271
1
272
1
145
1.0
146
1.0
273
1
  9

274
1
275
1
276
1
 42
1.0
 72
1
  3

 73
1
 74
1
 75
1
 94
63
  0
MATERIAL
  5
20
102
{ACAD_REACTORS
330
E
102
}
330
E
100
AcDbMaterial
  1
ByLayer
  2

 70
0
 40
1.0
 71
1
 41
1.0
 91
-1023410177
 42
1.0
 72
1
  3

 73
1
 74
1
 75
1
 44
0.5
 73
0
 45
1.0
 46
1.0
 77
1
  4

 78
1
 79
1
170
1
 48
1.0
171
1
  6

172
1
173
1
174
1
140
1.0
141
1.0
175
1
  7

176
1
177
1
178
1
143
1.0
179
1
  8

270
1
271
1
272
1
145
1.0
146
1.0
273
1
  9

274
1
275
1
276
1
 42
1.0
 72
1
  3

 73
1
 74
1
 75
1
 94
63
  0
MATERIAL
  5
21
102
{ACAD_REACTORS
330
E
102
}
330
E
100
AcDbMaterial
  1
Global
  2

 70
0
 40
1.0
 71
1
 41
1.0
 91
-1023410177
 42
1.0
 72
1
  3

 73
1
 74
1
 75
1
 44
0.5
 73
0
 45
1.0
 46
1.0
 77
1
  4

 78
1
 79
1
170
1
 48
1.0
171
1
  6

172
1
173
1
174
1
140
1.0
141
1.0
175
1
  7

176
1
177
1
178
1
143
1.0
179
1
  8

270
1
271
1
272
1
145
1.0
146
1.0
273
1
  9

274
1
275
1
276
1
 42
1.0
 72
1
  3

 73
1
 74
1
 75
1
 94
63
  0
MLINESTYLE
  5
22
102
{ACAD_REACTORS
330
10
102
}
330
10
100
AcDbMlineStyle
  2
Standard
 70
0
  3

 62
256
 51
90.0
 52
90.0
 71
2
 49
0.5
 62
256
  6
BYLAYER
 49
-0.5
 62
256
  6
BYLAYER
  0
MLEADERSTYLE
  5
2C
102
{ACAD_REACTORS
330
F
102
}
330
F
100
AcDbMLeaderStyle
179
2
170
2
171
1
172
0
 90
2
 40
0.0
 41
0.0
173
1
 91
-1056964608
 92
-2
290
1
 42
2.0
291
1
 43
8.0
  3
Standard
 44
4.0
300

342
29
174
1
175
1
176
0
178
1
 93
-1056964608
 45
4.0
292
0
297
0
 46
4.0
 94
-1056964608
 47
1.0
 49
1.0
140
1.0
294
1
141
0.0
177
0
142
1.0
295
0
296
0
143
3.75
271
0
272
9
273
9
  0
DICTIONARY
  5
2D
330
A
100
AcDbDictionary
280
1
281
1
  3
CREATED_BY_EZDXF
350
2E
  3
WRITTEN_BY_EZDXF
350
98
  0
DICTIONARYVAR
  5
2E
330
2D
100
DictionaryVariables
280
0
  1
1.4.4 @ 2026-09-30T15:12:53.318412+00:00
  0
VISUALSTYLE
  5
5A
102
{ACAD_REACTORS
330
16
102
}
330
16
100
AcDbVisualStyle
  2
2dWireframe
 70
4
 90
0
 40
0.6
 62
7
290
0
291
0
  0
VISUALSTYLE
  5
5B
102
{ACAD_REACTORS
330
16
102
}
330
16
100
AcDbVisualStyle
  2
Basic
 70
7
 90
1
 40
0.6
 62
7
290
0
291
1
  0
VISUALSTYLE
  5
5C
102
{ACAD_REACTORS
330
16
102
}
330
16
100
AcDbVisualStyle
  2
Brighten
 70
12
 90
2
 40
0.6
 62
7
290
0
291
1
  0
VISUALSTYLE
  5
5D
102
{ACAD_REACTORS
330
16
102
}
330
16
100
AcDbVisualStyle
  2
ColorChange
 70
16
 90
2
 40
0.6
 62
8
290
0
291
1
  0
VISUALSTYLE
  5
5E
102
{ACAD_REACTORS
330
16
102
}
330
16
100
AcDbVisualStyle
  2
Conceptual
 70
9
 90
3
 40
0.6
 62
7
290
0
291
0
  0
VISUALSTYLE
  5
5F
102
{ACAD_REACTORS
330
16
102
}
330
16
100
AcDbVisualStyle
  2
Dim
 70
11
 90
2
 40
0.6
 62
7
290
0
291
1
  0
VISUALSTYLE
  5
60
102
{ACAD_REACTORS
330
16
102
}
330
16
100
AcDbVisualStyle
  2
EdgeColorOff
 70
22
 90
2
 40
0.6
 62
7
290
0
291
1
  0
VISUALSTYLE
  5
61
102
{ACAD_REACTORS
330
16
102
}
330
16
100
AcDbVisualStyle
  2
Facepattern
 70
15
 90
2
 40
0.6
 62
7
290
0
291
1
  0
VISUALSTYLE
  5
62
102
{ACAD_REACTORS
330
16
102
}
330
16
100
AcDbVisualStyle
  2
Flat
 70
0
 90
2
 40
0.6
 62
7
290
0
291
1
  0
VISUALSTYLE
  5
63
102
{ACAD_REACTORS
330
16
102
}
330
16
100
AcDbVisualStyle
  2
FlatWithEdges
 70
1
 90
2
 40
0.6
 62
7
290
0
291
1
  0
VISUALSTYLE
  5
64
102
{ACAD_REACTORS
330
16
102
}
330
16
100
AcDbVisualStyle
  2
Gouraud
 70
2
 90
2
 40
0.6
 62
7
290
0
291
1
  0
VISUALSTYLE
  5
65
102
{ACAD_REACTORS
330
16
102
}
330
16
100
AcDbVisualStyle
  2
GouraudWithEdges
 70
3
 90
2
 40
0.6
 62
7
290
0
291
1
  0
VISUALSTYLE
  5
66
102
{ACAD_REACTORS
330
16
102
}
330
16
100
AcDbVisualStyle
  2
Hidden
 70
6
 90
1
 40
0.6
 62
7
290
0
291
0
  0
VISUALSTYLE
  5
67
102
{ACAD_REACTORS
330
16
102
}
330
16
100
AcDbVisualStyle
  2
JitterOff
 70
20
 90
2
 40
0.6
 62
7
290
0
291
1
  0
VISUALSTYLE
  5
68
102
{ACAD_REACTORS
330
16
102
}
330
16
100
AcDbVisualStyle
  2
Linepattern
 70
14
 90
2
 40
0.6
 62
7
290
0
291
1
  0
VISUALSTYLE
  5
69
102
{ACAD_REACTORS
330
16
102
}
330
16
100
AcDbVisualStyle
  2
Modeling
 70
10
 90
2
 40
0.6
 62
7
290
0
291
0
  0
VISUALSTYLE
  5
6A
102
{ACAD_REACTORS
330
16
102
}
330
16
100
AcDbVisualStyle
  2
OverhangOff
 70
21
 90
2
 40
0.6
 62
7
290
0
291
1
  0
VISUALSTYLE
  5
6B
102
{ACAD_REACTORS
330
16
102
}
330
16
100
AcDbVisualStyle
  2
Realistic
 70
8
 90
2
 40
0.6
 62
7
290
0
291
0
  0
VISUALSTYLE
  5
6C
102
{ACAD_REACTORS
330
16
102
}
330
16
100
AcDbVisualStyle
  2
Shaded
 70
27
 90
2
 40
0.6
 62
7
290
0
291
0
  0
VISUALSTYLE
  5
6D
102
{ACAD_REACTORS
330
16
102
}
330
16
100
AcDbVisualStyle
  2
Shaded with edges
 70
26
 90
2
 40
0.6
 62
7
290
0
291
0
  0
VISUALSTYLE
  5
6E
102
{ACAD_REACTORS
330
16
102
}
330
16
100
AcDbVisualStyle
  2
Shades of Gray
 70
23
 90
2
 40
0.6
 62
7
290
0
291
0
  0
VISUALSTYLE
  5
6F
102
{ACAD_REACTORS
330
16
102
}
330
16
100
AcDbVisualStyle
  2
Sketchy
 70
24
 90
1
 40
0.6
 62
7
290
0
291
0
  0
VISUALSTYLE
  5
70
102
{ACAD_REACTORS
330
16
102
}
330
16
100
AcDbVisualStyle
  2
Thicken
 70
13
 90
2
 40
0.6
 62
7
290
0
291
1
  0
VISUALSTYLE
  5
71
102
{ACAD_REACTORS
330
16
102
}
330
16
100
AcDbVisualStyle
  2
Wireframe
 70
5
 90
0
 40
0.6
 62
7
290
0
291
0
  0
VISUALSTYLE
  5
72
102
{ACAD_REACTORS
330
16
102
}
330
16
100
AcDbVisualStyle
  2
X-Ray
 70
25
 90
2
 40
0.5
 62
7
290
0
291
0
  0
DICTIONARYVAR
  5
98
330
2D
100
DictionaryVariables
280
0
  1
1.4.4 @ 2026-09-30T15:12:53.331107+00:00
  0
ENDSEC
  0
EOF
